G04 #@! TF.GenerationSoftware,KiCad,Pcbnew,(5.1.0)-1*
G04 #@! TF.CreationDate,2019-07-19T11:06:20-06:00*
G04 #@! TF.ProjectId,d4100_mod_board_full,64343130-305f-46d6-9f64-5f626f617264,rev?*
G04 #@! TF.SameCoordinates,Original*
G04 #@! TF.FileFunction,Soldermask,Bot*
G04 #@! TF.FilePolarity,Negative*
%FSLAX46Y46*%
G04 Gerber Fmt 4.6, Leading zero omitted, Abs format (unit mm)*
G04 Created by KiCad (PCBNEW (5.1.0)-1) date 2019-07-19 11:06:20*
%MOMM*%
%LPD*%
G04 APERTURE LIST*
%ADD10C,0.100000*%
G04 APERTURE END LIST*
D10*
G36*
X109517180Y-85559900D02*
G01*
X106111040Y-85559900D01*
X106111040Y-80548480D01*
X109517180Y-80548480D01*
X109517180Y-85559900D01*
G37*
X109517180Y-85559900D02*
X106111040Y-85559900D01*
X106111040Y-80548480D01*
X109517180Y-80548480D01*
X109517180Y-85559900D01*
G36*
X75838656Y-137430898D02*
G01*
X75944979Y-137452047D01*
X76245442Y-137576503D01*
X76515851Y-137757185D01*
X76745815Y-137987149D01*
X76926497Y-138257558D01*
X77050953Y-138558021D01*
X77114400Y-138876991D01*
X77114400Y-139202209D01*
X77050953Y-139521179D01*
X76926497Y-139821642D01*
X76745815Y-140092051D01*
X76515851Y-140322015D01*
X76245442Y-140502697D01*
X75944979Y-140627153D01*
X75838656Y-140648302D01*
X75626011Y-140690600D01*
X75300789Y-140690600D01*
X75088144Y-140648302D01*
X74981821Y-140627153D01*
X74681358Y-140502697D01*
X74410949Y-140322015D01*
X74180985Y-140092051D01*
X74000303Y-139821642D01*
X73875847Y-139521179D01*
X73812400Y-139202209D01*
X73812400Y-138876991D01*
X73875847Y-138558021D01*
X74000303Y-138257558D01*
X74180985Y-137987149D01*
X74410949Y-137757185D01*
X74681358Y-137576503D01*
X74981821Y-137452047D01*
X75088144Y-137430898D01*
X75300789Y-137388600D01*
X75626011Y-137388600D01*
X75838656Y-137430898D01*
X75838656Y-137430898D01*
G37*
G36*
X113938656Y-137430898D02*
G01*
X114044979Y-137452047D01*
X114345442Y-137576503D01*
X114615851Y-137757185D01*
X114845815Y-137987149D01*
X115026497Y-138257558D01*
X115150953Y-138558021D01*
X115214400Y-138876991D01*
X115214400Y-139202209D01*
X115150953Y-139521179D01*
X115026497Y-139821642D01*
X114845815Y-140092051D01*
X114615851Y-140322015D01*
X114345442Y-140502697D01*
X114044979Y-140627153D01*
X113938656Y-140648302D01*
X113726011Y-140690600D01*
X113400789Y-140690600D01*
X113188144Y-140648302D01*
X113081821Y-140627153D01*
X112781358Y-140502697D01*
X112510949Y-140322015D01*
X112280985Y-140092051D01*
X112100303Y-139821642D01*
X111975847Y-139521179D01*
X111912400Y-139202209D01*
X111912400Y-138876991D01*
X111975847Y-138558021D01*
X112100303Y-138257558D01*
X112280985Y-137987149D01*
X112510949Y-137757185D01*
X112781358Y-137576503D01*
X113081821Y-137452047D01*
X113188144Y-137430898D01*
X113400789Y-137388600D01*
X113726011Y-137388600D01*
X113938656Y-137430898D01*
X113938656Y-137430898D01*
G37*
G36*
X213506656Y-128159898D02*
G01*
X213612979Y-128181047D01*
X213913442Y-128305503D01*
X214183851Y-128486185D01*
X214413815Y-128716149D01*
X214594497Y-128986558D01*
X214718953Y-129287021D01*
X214782400Y-129605991D01*
X214782400Y-129931209D01*
X214718953Y-130250179D01*
X214594497Y-130550642D01*
X214413815Y-130821051D01*
X214183851Y-131051015D01*
X213913442Y-131231697D01*
X213612979Y-131356153D01*
X213506656Y-131377302D01*
X213294011Y-131419600D01*
X212968789Y-131419600D01*
X212756144Y-131377302D01*
X212649821Y-131356153D01*
X212349358Y-131231697D01*
X212078949Y-131051015D01*
X211848985Y-130821051D01*
X211668303Y-130550642D01*
X211543847Y-130250179D01*
X211480400Y-129931209D01*
X211480400Y-129605991D01*
X211543847Y-129287021D01*
X211668303Y-128986558D01*
X211848985Y-128716149D01*
X212078949Y-128486185D01*
X212349358Y-128305503D01*
X212649821Y-128181047D01*
X212756144Y-128159898D01*
X212968789Y-128117600D01*
X213294011Y-128117600D01*
X213506656Y-128159898D01*
X213506656Y-128159898D01*
G37*
G36*
X61106656Y-128159898D02*
G01*
X61212979Y-128181047D01*
X61513442Y-128305503D01*
X61783851Y-128486185D01*
X62013815Y-128716149D01*
X62194497Y-128986558D01*
X62318953Y-129287021D01*
X62382400Y-129605991D01*
X62382400Y-129931209D01*
X62318953Y-130250179D01*
X62194497Y-130550642D01*
X62013815Y-130821051D01*
X61783851Y-131051015D01*
X61513442Y-131231697D01*
X61212979Y-131356153D01*
X61106656Y-131377302D01*
X60894011Y-131419600D01*
X60568789Y-131419600D01*
X60356144Y-131377302D01*
X60249821Y-131356153D01*
X59949358Y-131231697D01*
X59678949Y-131051015D01*
X59448985Y-130821051D01*
X59268303Y-130550642D01*
X59143847Y-130250179D01*
X59080400Y-129931209D01*
X59080400Y-129605991D01*
X59143847Y-129287021D01*
X59268303Y-128986558D01*
X59448985Y-128716149D01*
X59678949Y-128486185D01*
X59949358Y-128305503D01*
X60249821Y-128181047D01*
X60356144Y-128159898D01*
X60568789Y-128117600D01*
X60894011Y-128117600D01*
X61106656Y-128159898D01*
X61106656Y-128159898D01*
G37*
G36*
X101059276Y-128709384D02*
G01*
X101276569Y-128799390D01*
X101276571Y-128799391D01*
X101472130Y-128930060D01*
X101638440Y-129096370D01*
X101765830Y-129287021D01*
X101769110Y-129291931D01*
X101859116Y-129509224D01*
X101905000Y-129739900D01*
X101905000Y-129975100D01*
X101859116Y-130205776D01*
X101769110Y-130423069D01*
X101769109Y-130423071D01*
X101638440Y-130618630D01*
X101472130Y-130784940D01*
X101276571Y-130915609D01*
X101276570Y-130915610D01*
X101276569Y-130915610D01*
X101059276Y-131005616D01*
X100828600Y-131051500D01*
X100593400Y-131051500D01*
X100362724Y-131005616D01*
X100145431Y-130915610D01*
X100145430Y-130915610D01*
X100145429Y-130915609D01*
X99949870Y-130784940D01*
X99783560Y-130618630D01*
X99652891Y-130423071D01*
X99652890Y-130423069D01*
X99562884Y-130205776D01*
X99517000Y-129975100D01*
X99517000Y-129739900D01*
X99562884Y-129509224D01*
X99652890Y-129291931D01*
X99656171Y-129287021D01*
X99783560Y-129096370D01*
X99949870Y-128930060D01*
X100145429Y-128799391D01*
X100145431Y-128799390D01*
X100362724Y-128709384D01*
X100593400Y-128663500D01*
X100828600Y-128663500D01*
X101059276Y-128709384D01*
X101059276Y-128709384D01*
G37*
G36*
X131318000Y-127508000D02*
G01*
X128270000Y-127508000D01*
X128270000Y-122809000D01*
X131318000Y-122809000D01*
X131318000Y-127508000D01*
X131318000Y-127508000D01*
G37*
G36*
X67940305Y-123015413D02*
G01*
X68016614Y-123047021D01*
X68085286Y-123092906D01*
X68143694Y-123151314D01*
X68189579Y-123219986D01*
X68221187Y-123296295D01*
X68237300Y-123377301D01*
X68237300Y-123459899D01*
X68221187Y-123540905D01*
X68189579Y-123617214D01*
X68143694Y-123685886D01*
X68085286Y-123744294D01*
X68016614Y-123790179D01*
X67940305Y-123821787D01*
X67859299Y-123837900D01*
X67776701Y-123837900D01*
X67695695Y-123821787D01*
X67619386Y-123790179D01*
X67550714Y-123744294D01*
X67492306Y-123685886D01*
X67446421Y-123617214D01*
X67414813Y-123540905D01*
X67398700Y-123459899D01*
X67398700Y-123377301D01*
X67414813Y-123296295D01*
X67446421Y-123219986D01*
X67492306Y-123151314D01*
X67550714Y-123092906D01*
X67619386Y-123047021D01*
X67695695Y-123015413D01*
X67776701Y-122999300D01*
X67859299Y-122999300D01*
X67940305Y-123015413D01*
X67940305Y-123015413D01*
G37*
G36*
X95931105Y-117173413D02*
G01*
X96007414Y-117205021D01*
X96076086Y-117250906D01*
X96134494Y-117309314D01*
X96180379Y-117377986D01*
X96211987Y-117454295D01*
X96228100Y-117535301D01*
X96228100Y-117617899D01*
X96211987Y-117698905D01*
X96180379Y-117775214D01*
X96134494Y-117843886D01*
X96076086Y-117902294D01*
X96007414Y-117948179D01*
X95931105Y-117979787D01*
X95850099Y-117995900D01*
X95767501Y-117995900D01*
X95686495Y-117979787D01*
X95610186Y-117948179D01*
X95541514Y-117902294D01*
X95483106Y-117843886D01*
X95437221Y-117775214D01*
X95405613Y-117698905D01*
X95389500Y-117617899D01*
X95389500Y-117535301D01*
X95405613Y-117454295D01*
X95437221Y-117377986D01*
X95483106Y-117309314D01*
X95541514Y-117250906D01*
X95610186Y-117205021D01*
X95686495Y-117173413D01*
X95767501Y-117157300D01*
X95850099Y-117157300D01*
X95931105Y-117173413D01*
X95931105Y-117173413D01*
G37*
G36*
X101227842Y-98902118D02*
G01*
X101294027Y-98908637D01*
X101463866Y-98960157D01*
X101620391Y-99043822D01*
X101656129Y-99073152D01*
X101757586Y-99156414D01*
X101840848Y-99257871D01*
X101870178Y-99293609D01*
X101953843Y-99450134D01*
X102005363Y-99619973D01*
X102022759Y-99796600D01*
X102005363Y-99973227D01*
X101953843Y-100143066D01*
X101870178Y-100299591D01*
X101840848Y-100335329D01*
X101757586Y-100436786D01*
X101656129Y-100520048D01*
X101620391Y-100549378D01*
X101463866Y-100633043D01*
X101294027Y-100684563D01*
X101227842Y-100691082D01*
X101161660Y-100697600D01*
X101073140Y-100697600D01*
X101006957Y-100691081D01*
X100940773Y-100684563D01*
X100770934Y-100633043D01*
X100614409Y-100549378D01*
X100578671Y-100520048D01*
X100477214Y-100436786D01*
X100393952Y-100335329D01*
X100364622Y-100299591D01*
X100280957Y-100143066D01*
X100229437Y-99973227D01*
X100212041Y-99796600D01*
X100229437Y-99619973D01*
X100280957Y-99450134D01*
X100364622Y-99293609D01*
X100393952Y-99257871D01*
X100477214Y-99156414D01*
X100578671Y-99073152D01*
X100614409Y-99043822D01*
X100770934Y-98960157D01*
X100940773Y-98908637D01*
X101006957Y-98902119D01*
X101073140Y-98895600D01*
X101161660Y-98895600D01*
X101227842Y-98902118D01*
X101227842Y-98902118D01*
G37*
G36*
X99478400Y-100697600D02*
G01*
X97676400Y-100697600D01*
X97676400Y-98895600D01*
X99478400Y-98895600D01*
X99478400Y-100697600D01*
X99478400Y-100697600D01*
G37*
G36*
X134926564Y-87889389D02*
G01*
X135117833Y-87968615D01*
X135117835Y-87968616D01*
X135289973Y-88083635D01*
X135436365Y-88230027D01*
X135551385Y-88402167D01*
X135630611Y-88593436D01*
X135671000Y-88796484D01*
X135671000Y-89003516D01*
X135630611Y-89206564D01*
X135551385Y-89397833D01*
X135551384Y-89397835D01*
X135436365Y-89569973D01*
X135289973Y-89716365D01*
X135117835Y-89831384D01*
X135117834Y-89831385D01*
X135117833Y-89831385D01*
X134926564Y-89910611D01*
X134723516Y-89951000D01*
X134516484Y-89951000D01*
X134313436Y-89910611D01*
X134122167Y-89831385D01*
X134122166Y-89831385D01*
X134122165Y-89831384D01*
X133950027Y-89716365D01*
X133803635Y-89569973D01*
X133688616Y-89397835D01*
X133688615Y-89397833D01*
X133609389Y-89206564D01*
X133569000Y-89003516D01*
X133569000Y-88796484D01*
X133609389Y-88593436D01*
X133688615Y-88402167D01*
X133803635Y-88230027D01*
X133950027Y-88083635D01*
X134122165Y-87968616D01*
X134122167Y-87968615D01*
X134313436Y-87889389D01*
X134516484Y-87849000D01*
X134723516Y-87849000D01*
X134926564Y-87889389D01*
X134926564Y-87889389D01*
G37*
G36*
X134926564Y-82809389D02*
G01*
X135117833Y-82888615D01*
X135117835Y-82888616D01*
X135289973Y-83003635D01*
X135436365Y-83150027D01*
X135551385Y-83322167D01*
X135630611Y-83513436D01*
X135671000Y-83716484D01*
X135671000Y-83923516D01*
X135630611Y-84126564D01*
X135551385Y-84317833D01*
X135551384Y-84317835D01*
X135436365Y-84489973D01*
X135289973Y-84636365D01*
X135117835Y-84751384D01*
X135117834Y-84751385D01*
X135117833Y-84751385D01*
X134926564Y-84830611D01*
X134723516Y-84871000D01*
X134516484Y-84871000D01*
X134313436Y-84830611D01*
X134122167Y-84751385D01*
X134122166Y-84751385D01*
X134122165Y-84751384D01*
X133950027Y-84636365D01*
X133803635Y-84489973D01*
X133688616Y-84317835D01*
X133688615Y-84317833D01*
X133609389Y-84126564D01*
X133569000Y-83923516D01*
X133569000Y-83716484D01*
X133609389Y-83513436D01*
X133688615Y-83322167D01*
X133803635Y-83150027D01*
X133950027Y-83003635D01*
X134122165Y-82888616D01*
X134122167Y-82888615D01*
X134313436Y-82809389D01*
X134516484Y-82769000D01*
X134723516Y-82769000D01*
X134926564Y-82809389D01*
X134926564Y-82809389D01*
G37*
G36*
X162706656Y-51959898D02*
G01*
X162812979Y-51981047D01*
X163113442Y-52105503D01*
X163383851Y-52286185D01*
X163613815Y-52516149D01*
X163794497Y-52786558D01*
X163918953Y-53087021D01*
X163982400Y-53405991D01*
X163982400Y-53731209D01*
X163918953Y-54050179D01*
X163794497Y-54350642D01*
X163613815Y-54621051D01*
X163383851Y-54851015D01*
X163113442Y-55031697D01*
X162812979Y-55156153D01*
X162706656Y-55177302D01*
X162494011Y-55219600D01*
X162168789Y-55219600D01*
X161956144Y-55177302D01*
X161849821Y-55156153D01*
X161549358Y-55031697D01*
X161278949Y-54851015D01*
X161048985Y-54621051D01*
X160868303Y-54350642D01*
X160743847Y-54050179D01*
X160680400Y-53731209D01*
X160680400Y-53405991D01*
X160743847Y-53087021D01*
X160868303Y-52786558D01*
X161048985Y-52516149D01*
X161278949Y-52286185D01*
X161549358Y-52105503D01*
X161849821Y-51981047D01*
X161956144Y-51959898D01*
X162168789Y-51917600D01*
X162494011Y-51917600D01*
X162706656Y-51959898D01*
X162706656Y-51959898D01*
G37*
G36*
X61106656Y-51959898D02*
G01*
X61212979Y-51981047D01*
X61513442Y-52105503D01*
X61783851Y-52286185D01*
X62013815Y-52516149D01*
X62194497Y-52786558D01*
X62318953Y-53087021D01*
X62382400Y-53405991D01*
X62382400Y-53731209D01*
X62318953Y-54050179D01*
X62194497Y-54350642D01*
X62013815Y-54621051D01*
X61783851Y-54851015D01*
X61513442Y-55031697D01*
X61212979Y-55156153D01*
X61106656Y-55177302D01*
X60894011Y-55219600D01*
X60568789Y-55219600D01*
X60356144Y-55177302D01*
X60249821Y-55156153D01*
X59949358Y-55031697D01*
X59678949Y-54851015D01*
X59448985Y-54621051D01*
X59268303Y-54350642D01*
X59143847Y-54050179D01*
X59080400Y-53731209D01*
X59080400Y-53405991D01*
X59143847Y-53087021D01*
X59268303Y-52786558D01*
X59448985Y-52516149D01*
X59678949Y-52286185D01*
X59949358Y-52105503D01*
X60249821Y-51981047D01*
X60356144Y-51959898D01*
X60568789Y-51917600D01*
X60894011Y-51917600D01*
X61106656Y-51959898D01*
X61106656Y-51959898D01*
G37*
M02*
