M48
; DRILL file {KiCad (5.1.0)-1} date 7/19/2019 11:06:15
; FORMAT={-:-/ absolute / inch / decimal}
; #@! TF.CreationDate,2019-07-19T11:06:15-06:00
; #@! TF.GenerationSoftware,Kicad,Pcbnew,(5.1.0)-1
; #@! TF.FileFunction,Plated,1,2,PTH
FMAT,2
INCH
T1C0.0040
T2C0.0100
T3C0.0157
T4C0.0190
T5C0.0394
T6C0.0551
T7C0.0730
%
G90
G05
T1
X5.401Y-4.913
T2
X5.2506Y-4.6602
X5.2506Y-4.6872
X5.3582Y-4.938
X5.3582Y-4.965
T3
X3.96Y-3.6
X3.96Y-3.67
X4.0Y-3.72
X4.04Y-3.57
X4.04Y-3.64
X4.059Y-3.194
X4.062Y-3.301
X4.07Y-3.72
X4.14Y-3.72
X4.17Y-3.57
X4.17Y-3.64
X4.22Y-3.2
X4.22Y-3.25
X4.22Y-3.29
X4.22Y-3.34
X4.27Y-3.2
X4.27Y-3.25
X4.27Y-3.29
X4.27Y-3.34
X4.2978Y-4.6024
X4.5466Y-4.9924
X4.597Y-4.942
X4.6758Y-4.888
X4.755Y-5.142
X4.9575Y-5.2075
X5.003Y-3.995
X5.003Y-4.06
X5.0094Y-4.3334
X5.0174Y-4.7664
X5.037Y-4.028
X5.071Y-3.995
X5.071Y-4.06
X5.075Y-4.856
X5.08Y-4.998
X5.128Y-4.854
X5.129Y-4.998
X5.221Y-5.193
X5.223Y-5.107
X5.2408Y-4.4358
X5.25Y-5.065
X5.252Y-5.141
X5.2546Y-4.1868
X5.546Y-5.063
T4
X2.67Y-4.859
X3.772Y-4.629
T5
X3.881Y-3.929
X3.981Y-3.929
T6
X5.3Y-3.3
X5.3Y-3.5
T7
X3.965Y-5.1125
T0
M30
