G04 #@! TF.GenerationSoftware,KiCad,Pcbnew,(5.1.0)-1*
G04 #@! TF.CreationDate,2019-07-29T14:33:41-06:00*
G04 #@! TF.ProjectId,d4100_mod_board_full,64343130-305f-46d6-9f64-5f626f617264,rev?*
G04 #@! TF.SameCoordinates,Original*
G04 #@! TF.FileFunction,Paste,Top*
G04 #@! TF.FilePolarity,Positive*
%FSLAX46Y46*%
G04 Gerber Fmt 4.6, Leading zero omitted, Abs format (unit mm)*
G04 Created by KiCad (PCBNEW (5.1.0)-1) date 2019-07-29 14:33:41*
%MOMM*%
%LPD*%
G04 APERTURE LIST*
%ADD10R,2.500000X2.000000*%
%ADD11R,2.650000X2.030000*%
%ADD12R,1.700000X1.300000*%
%ADD13R,2.500000X2.550000*%
%ADD14R,1.250000X1.500000*%
%ADD15R,2.000000X2.500000*%
%ADD16R,3.200000X1.000000*%
%ADD17R,1.500000X1.300000*%
%ADD18R,1.300000X1.500000*%
%ADD19R,2.000000X1.600000*%
%ADD20R,1.300000X1.600000*%
%ADD21R,1.500000X1.250000*%
%ADD22R,4.200000X1.500000*%
%ADD23R,1.475000X0.450000*%
%ADD24R,2.410000X3.290001*%
%ADD25R,0.650000X1.560000*%
G04 APERTURE END LIST*
D10*
X133697134Y-119888000D03*
X133697134Y-123888000D03*
X136956800Y-123888000D03*
X136956800Y-119888000D03*
X130437468Y-123888000D03*
X130437468Y-119888000D03*
X127177800Y-119888000D03*
X127177800Y-123888000D03*
D11*
X110243200Y-120040400D03*
X106063200Y-120040400D03*
X73500400Y-122936000D03*
X77680400Y-122936000D03*
D12*
X103505000Y-123345000D03*
X103505000Y-126845000D03*
X80043020Y-132265360D03*
X80043020Y-128765360D03*
D13*
X97790000Y-120030000D03*
X97790000Y-125080000D03*
X73761600Y-131709400D03*
X73761600Y-126659400D03*
D10*
X98531680Y-91179900D03*
X98531680Y-95179900D03*
X95245939Y-91179900D03*
X95245939Y-95179900D03*
D14*
X92402660Y-90929900D03*
X92402660Y-93429900D03*
D15*
X84857840Y-91500960D03*
X88857840Y-91500960D03*
D16*
X96149160Y-88011180D03*
X96149160Y-85811180D03*
D17*
X80143020Y-126466600D03*
X77443020Y-126466600D03*
D18*
X100965000Y-119935000D03*
X100965000Y-122635000D03*
X82110580Y-88205320D03*
X82110580Y-90905320D03*
X87919560Y-83185680D03*
X87919560Y-80485680D03*
D19*
X130352800Y-105486400D03*
D20*
X131602800Y-108386400D03*
X129102800Y-108386400D03*
X82130580Y-84210680D03*
X84630580Y-84210680D03*
D19*
X83380580Y-81310680D03*
D10*
X125120400Y-114697000D03*
X125120400Y-110697000D03*
X121741400Y-110697000D03*
X121741400Y-114697000D03*
D14*
X124637800Y-117138000D03*
X124637800Y-119638000D03*
X147370800Y-115651600D03*
X147370800Y-113151600D03*
X144881600Y-117291800D03*
X144881600Y-119791800D03*
X145313400Y-113924400D03*
X145313400Y-111424400D03*
D21*
X131602800Y-111556800D03*
X129102800Y-111556800D03*
D22*
X141224000Y-119657400D03*
X141224000Y-122357400D03*
D18*
X142976600Y-113922800D03*
X142976600Y-111222800D03*
D17*
X134006600Y-111556800D03*
X136706600Y-111556800D03*
D18*
X125298200Y-105482400D03*
X125298200Y-108182400D03*
D23*
X139882100Y-117811980D03*
X139882100Y-117161980D03*
X139882100Y-116511980D03*
X139882100Y-115861980D03*
X139882100Y-115211980D03*
X139882100Y-114561980D03*
X139882100Y-113911980D03*
X139882100Y-113261980D03*
X134006100Y-113261980D03*
X134006100Y-113911980D03*
X134006100Y-114561980D03*
X134006100Y-115211980D03*
X134006100Y-115861980D03*
X134006100Y-116511980D03*
X134006100Y-117161980D03*
X134006100Y-117811980D03*
D24*
X136944100Y-115536980D03*
D25*
X89811900Y-85876140D03*
X88861900Y-85876140D03*
X87911900Y-85876140D03*
X87911900Y-88576140D03*
X89811900Y-88576140D03*
X88861900Y-88576140D03*
M02*
