G04 #@! TF.GenerationSoftware,KiCad,Pcbnew,(5.1.0)-1*
G04 #@! TF.CreationDate,2019-07-19T11:06:20-06:00*
G04 #@! TF.ProjectId,d4100_mod_board_full,64343130-305f-46d6-9f64-5f626f617264,rev?*
G04 #@! TF.SameCoordinates,Original*
G04 #@! TF.FileFunction,Profile,NP*
%FSLAX46Y46*%
G04 Gerber Fmt 4.6, Leading zero omitted, Abs format (unit mm)*
G04 Created by KiCad (PCBNEW (5.1.0)-1) date 2019-07-19 11:06:20*
%MOMM*%
%LPD*%
G04 APERTURE LIST*
%ADD10C,0.050000*%
G04 APERTURE END LIST*
D10*
X78105000Y-116205000D02*
X78105000Y-101600000D01*
X83185000Y-116205000D02*
X78105000Y-116205000D01*
X79375000Y-101600000D02*
X78105000Y-101600000D01*
X83185000Y-101600000D02*
X79375000Y-101600000D01*
X83185000Y-116205000D02*
X83185000Y-101600000D01*
X218440000Y-105918000D02*
X218440000Y-144780000D01*
X211582000Y-105918000D02*
X218440000Y-105918000D01*
X62484000Y-135128000D02*
X50800000Y-135128000D01*
X62484000Y-144780000D02*
X62484000Y-135128000D01*
X91567000Y-48260000D02*
X207264000Y-48260000D01*
X50800000Y-48260000D02*
X64643000Y-48260000D01*
X211582000Y-60706000D02*
X211582000Y-105918000D01*
X207264000Y-60706000D02*
X207264000Y-48260000D01*
X211582000Y-60706000D02*
X207264000Y-60706000D01*
X180721000Y-104775000D02*
X180721000Y-79375000D01*
X190881000Y-104775000D02*
X180721000Y-104775000D01*
X190881000Y-79375000D02*
X190881000Y-104775000D01*
X180721000Y-79375000D02*
X190881000Y-79375000D01*
X141859000Y-99695000D02*
X141859000Y-97409000D01*
X146939000Y-99695000D02*
X141859000Y-99695000D01*
X146939000Y-97409000D02*
X146939000Y-99695000D01*
X141859000Y-97409000D02*
X146939000Y-97409000D01*
X153035000Y-77597000D02*
X153035000Y-75311000D01*
X165989000Y-77597000D02*
X153035000Y-77597000D01*
X165989000Y-75311000D02*
X165989000Y-77597000D01*
X153035000Y-75311000D02*
X165989000Y-75311000D01*
X91567000Y-56007000D02*
X91567000Y-48260000D01*
X73787000Y-56007000D02*
X91567000Y-56007000D01*
X73787000Y-62357000D02*
X73787000Y-56007000D01*
X64643000Y-62357000D02*
X73787000Y-62357000D01*
X64643000Y-48260000D02*
X64643000Y-62357000D01*
X66548000Y-78613000D02*
X66548000Y-102997000D01*
X77597000Y-78613000D02*
X66548000Y-78613000D01*
X77597000Y-102997000D02*
X77597000Y-78613000D01*
X66548000Y-102997000D02*
X77597000Y-102997000D01*
X50800000Y-48260000D02*
X50800000Y-135128000D01*
X62484000Y-144780000D02*
X218440000Y-144780000D01*
M02*
