M48
; DRILL file {KiCad (5.1.0)-1} date 7/29/2019 14:33:44
; FORMAT={-:-/ absolute / inch / decimal}
; #@! TF.CreationDate,2019-07-29T14:33:44-06:00
; #@! TF.GenerationSoftware,Kicad,Pcbnew,(5.1.0)-1
; #@! TF.FileFunction,Plated,1,2,PTH
FMAT,2
INCH
T1C0.0157
T2C0.0190
T3C0.0315
T4C0.0394
T5C0.0551
%
G90
G05
T1
X2.54Y-5.32
X2.64Y-5.32
X2.74Y-5.32
X2.84Y-5.32
X2.94Y-5.32
X3.04Y-5.32
X3.14Y-5.32
X3.24Y-5.32
X3.34Y-5.32
X3.3421Y-3.4411
X3.3421Y-3.4808
X3.3421Y-3.5219
X3.44Y-5.32
X3.5345Y-3.1709
X3.5345Y-3.2088
X3.5345Y-3.2458
X3.54Y-5.32
X3.5851Y-3.7451
X3.6262Y-3.7451
X3.64Y-5.32
X3.6659Y-3.7451
X3.74Y-5.32
X3.84Y-5.32
X3.94Y-5.32
X4.04Y-5.32
X4.14Y-5.32
X4.24Y-5.32
X4.34Y-5.32
X4.44Y-5.32
X4.54Y-5.32
X4.64Y-5.32
X4.701Y-4.215
X4.701Y-4.265
X4.74Y-5.32
X4.751Y-4.215
X4.751Y-4.265
X4.801Y-4.215
X4.801Y-4.265
X4.84Y-5.32
X4.851Y-4.215
X4.851Y-4.265
X4.94Y-5.32
X5.04Y-5.32
X5.14Y-5.32
X5.24Y-5.32
X5.34Y-5.32
X5.36Y-4.46
X5.36Y-4.52
X5.36Y-4.58
X5.36Y-4.64
X5.42Y-4.46
X5.42Y-4.52
X5.42Y-4.58
X5.42Y-4.64
X5.44Y-5.32
X5.54Y-5.32
X5.568Y-4.451
X5.57Y-4.486
X5.573Y-4.526
X5.64Y-5.32
X5.685Y-4.805
X5.685Y-4.855
X5.685Y-4.905
X5.685Y-4.955
X5.735Y-4.805
X5.735Y-4.855
X5.735Y-4.905
X5.735Y-4.955
X5.74Y-5.32
X5.84Y-5.32
X5.94Y-5.32
X6.04Y-5.32
X6.14Y-5.32
X6.24Y-5.32
X6.34Y-5.32
X6.44Y-5.32
X6.54Y-5.32
X6.64Y-1.92
X6.64Y-2.02
X6.64Y-2.12
X6.64Y-2.22
X6.64Y-2.32
X6.64Y-2.42
X6.64Y-2.52
X6.64Y-2.62
X6.64Y-2.72
X6.64Y-2.82
X6.64Y-2.92
X6.64Y-3.02
X6.64Y-3.12
X6.64Y-3.22
X6.64Y-3.32
X6.64Y-3.42
X6.64Y-3.52
X6.64Y-3.62
X6.64Y-3.72
X6.64Y-3.82
X6.64Y-3.92
X6.64Y-4.02
X6.64Y-4.12
X6.64Y-4.22
X6.64Y-4.32
X6.64Y-4.42
X6.64Y-4.52
X6.64Y-4.62
X6.64Y-4.72
X6.64Y-4.82
X6.64Y-4.92
X6.64Y-5.02
X6.64Y-5.12
X6.64Y-5.22
X6.64Y-5.32
X6.74Y-5.32
X6.84Y-5.32
X6.94Y-5.32
X7.04Y-5.32
X7.14Y-5.32
X7.24Y-5.32
X7.34Y-5.32
X7.44Y-5.32
X7.54Y-5.32
X7.64Y-5.32
X7.74Y-5.32
X7.84Y-5.32
X7.94Y-5.32
X8.04Y-5.32
X8.14Y-5.32
X8.24Y-5.32
X8.34Y-5.32
X8.44Y-5.32
X8.54Y-5.32
T2
X3.71Y-4.629
X2.67Y-4.859
X3.772Y-4.629
X2.732Y-4.859
T3
X3.5729Y-3.0586
X5.371Y-4.221
X3.3145Y-3.0355
X3.422Y-3.808
X4.525Y-4.6
X3.78Y-3.245
X5.846Y-4.666
X5.575Y-4.93
T4
X3.881Y-3.929
X3.981Y-3.929
T5
X4.5796Y-3.3893
X4.5796Y-3.5893
T0
M30
