G04 #@! TF.GenerationSoftware,KiCad,Pcbnew,(5.1.0)-1*
G04 #@! TF.CreationDate,2019-07-19T11:06:20-06:00*
G04 #@! TF.ProjectId,d4100_mod_board_full,64343130-305f-46d6-9f64-5f626f617264,rev?*
G04 #@! TF.SameCoordinates,Original*
G04 #@! TF.FileFunction,Legend,Top*
G04 #@! TF.FilePolarity,Positive*
%FSLAX46Y46*%
G04 Gerber Fmt 4.6, Leading zero omitted, Abs format (unit mm)*
G04 Created by KiCad (PCBNEW (5.1.0)-1) date 2019-07-19 11:06:20*
%MOMM*%
%LPD*%
G04 APERTURE LIST*
%ADD10C,0.150000*%
%ADD11C,0.120000*%
%ADD12C,0.300000*%
%ADD13C,0.127000*%
%ADD14C,0.200000*%
%ADD15C,0.100000*%
%ADD16C,0.152400*%
%ADD17C,0.050000*%
G04 APERTURE END LIST*
D10*
X96782380Y-160742380D02*
X97401428Y-160742380D01*
X97068095Y-161123333D01*
X97210952Y-161123333D01*
X97306190Y-161170952D01*
X97353809Y-161218571D01*
X97401428Y-161313809D01*
X97401428Y-161551904D01*
X97353809Y-161647142D01*
X97306190Y-161694761D01*
X97210952Y-161742380D01*
X96925238Y-161742380D01*
X96830000Y-161694761D01*
X96782380Y-161647142D01*
X97830000Y-161647142D02*
X97877619Y-161694761D01*
X97830000Y-161742380D01*
X97782380Y-161694761D01*
X97830000Y-161647142D01*
X97830000Y-161742380D01*
X98353809Y-161742380D02*
X98544285Y-161742380D01*
X98639523Y-161694761D01*
X98687142Y-161647142D01*
X98782380Y-161504285D01*
X98830000Y-161313809D01*
X98830000Y-160932857D01*
X98782380Y-160837619D01*
X98734761Y-160790000D01*
X98639523Y-160742380D01*
X98449047Y-160742380D01*
X98353809Y-160790000D01*
X98306190Y-160837619D01*
X98258571Y-160932857D01*
X98258571Y-161170952D01*
X98306190Y-161266190D01*
X98353809Y-161313809D01*
X98449047Y-161361428D01*
X98639523Y-161361428D01*
X98734761Y-161313809D01*
X98782380Y-161266190D01*
X98830000Y-161170952D01*
X99449047Y-160742380D02*
X99544285Y-160742380D01*
X99639523Y-160790000D01*
X99687142Y-160837619D01*
X99734761Y-160932857D01*
X99782380Y-161123333D01*
X99782380Y-161361428D01*
X99734761Y-161551904D01*
X99687142Y-161647142D01*
X99639523Y-161694761D01*
X99544285Y-161742380D01*
X99449047Y-161742380D01*
X99353809Y-161694761D01*
X99306190Y-161647142D01*
X99258571Y-161551904D01*
X99210952Y-161361428D01*
X99210952Y-161123333D01*
X99258571Y-160932857D01*
X99306190Y-160837619D01*
X99353809Y-160790000D01*
X99449047Y-160742380D01*
X100401428Y-160742380D02*
X100496666Y-160742380D01*
X100591904Y-160790000D01*
X100639523Y-160837619D01*
X100687142Y-160932857D01*
X100734761Y-161123333D01*
X100734761Y-161361428D01*
X100687142Y-161551904D01*
X100639523Y-161647142D01*
X100591904Y-161694761D01*
X100496666Y-161742380D01*
X100401428Y-161742380D01*
X100306190Y-161694761D01*
X100258571Y-161647142D01*
X100210952Y-161551904D01*
X100163333Y-161361428D01*
X100163333Y-161123333D01*
X100210952Y-160932857D01*
X100258571Y-160837619D01*
X100306190Y-160790000D01*
X100401428Y-160742380D01*
X101353809Y-160742380D02*
X101449047Y-160742380D01*
X101544285Y-160790000D01*
X101591904Y-160837619D01*
X101639523Y-160932857D01*
X101687142Y-161123333D01*
X101687142Y-161361428D01*
X101639523Y-161551904D01*
X101591904Y-161647142D01*
X101544285Y-161694761D01*
X101449047Y-161742380D01*
X101353809Y-161742380D01*
X101258571Y-161694761D01*
X101210952Y-161647142D01*
X101163333Y-161551904D01*
X101115714Y-161361428D01*
X101115714Y-161123333D01*
X101163333Y-160932857D01*
X101210952Y-160837619D01*
X101258571Y-160790000D01*
X101353809Y-160742380D01*
X102877619Y-161742380D02*
X102877619Y-161075714D01*
X102877619Y-160742380D02*
X102830000Y-160790000D01*
X102877619Y-160837619D01*
X102925238Y-160790000D01*
X102877619Y-160742380D01*
X102877619Y-160837619D01*
X103353809Y-161075714D02*
X103353809Y-161742380D01*
X103353809Y-161170952D02*
X103401428Y-161123333D01*
X103496666Y-161075714D01*
X103639523Y-161075714D01*
X103734761Y-161123333D01*
X103782380Y-161218571D01*
X103782380Y-161742380D01*
D11*
X50800000Y-160020000D02*
X149860000Y-160020000D01*
X50800000Y-121920000D02*
X50800000Y-160606421D01*
X149860000Y-121920000D02*
X149860000Y-160606421D01*
X149860000Y-160020000D02*
X148733496Y-160606421D01*
X149860000Y-160020000D02*
X148733496Y-159433579D01*
X50800000Y-160020000D02*
X51926504Y-160606421D01*
X50800000Y-160020000D02*
X51926504Y-159433579D01*
D10*
X148137619Y-112720000D02*
X148090000Y-112672380D01*
X148042380Y-112577142D01*
X148042380Y-112339047D01*
X148090000Y-112243809D01*
X148137619Y-112196190D01*
X148232857Y-112148571D01*
X148328095Y-112148571D01*
X148470952Y-112196190D01*
X149042380Y-112767619D01*
X149042380Y-112148571D01*
X148947142Y-111720000D02*
X148994761Y-111672380D01*
X149042380Y-111720000D01*
X148994761Y-111767619D01*
X148947142Y-111720000D01*
X149042380Y-111720000D01*
X148470952Y-111100952D02*
X148423333Y-111196190D01*
X148375714Y-111243809D01*
X148280476Y-111291428D01*
X148232857Y-111291428D01*
X148137619Y-111243809D01*
X148090000Y-111196190D01*
X148042380Y-111100952D01*
X148042380Y-110910476D01*
X148090000Y-110815238D01*
X148137619Y-110767619D01*
X148232857Y-110720000D01*
X148280476Y-110720000D01*
X148375714Y-110767619D01*
X148423333Y-110815238D01*
X148470952Y-110910476D01*
X148470952Y-111100952D01*
X148518571Y-111196190D01*
X148566190Y-111243809D01*
X148661428Y-111291428D01*
X148851904Y-111291428D01*
X148947142Y-111243809D01*
X148994761Y-111196190D01*
X149042380Y-111100952D01*
X149042380Y-110910476D01*
X148994761Y-110815238D01*
X148947142Y-110767619D01*
X148851904Y-110720000D01*
X148661428Y-110720000D01*
X148566190Y-110767619D01*
X148518571Y-110815238D01*
X148470952Y-110910476D01*
X148042380Y-110100952D02*
X148042380Y-110005714D01*
X148090000Y-109910476D01*
X148137619Y-109862857D01*
X148232857Y-109815238D01*
X148423333Y-109767619D01*
X148661428Y-109767619D01*
X148851904Y-109815238D01*
X148947142Y-109862857D01*
X148994761Y-109910476D01*
X149042380Y-110005714D01*
X149042380Y-110100952D01*
X148994761Y-110196190D01*
X148947142Y-110243809D01*
X148851904Y-110291428D01*
X148661428Y-110339047D01*
X148423333Y-110339047D01*
X148232857Y-110291428D01*
X148137619Y-110243809D01*
X148090000Y-110196190D01*
X148042380Y-110100952D01*
X148042380Y-109148571D02*
X148042380Y-109053333D01*
X148090000Y-108958095D01*
X148137619Y-108910476D01*
X148232857Y-108862857D01*
X148423333Y-108815238D01*
X148661428Y-108815238D01*
X148851904Y-108862857D01*
X148947142Y-108910476D01*
X148994761Y-108958095D01*
X149042380Y-109053333D01*
X149042380Y-109148571D01*
X148994761Y-109243809D01*
X148947142Y-109291428D01*
X148851904Y-109339047D01*
X148661428Y-109386666D01*
X148423333Y-109386666D01*
X148232857Y-109339047D01*
X148137619Y-109291428D01*
X148090000Y-109243809D01*
X148042380Y-109148571D01*
X148042380Y-108196190D02*
X148042380Y-108100952D01*
X148090000Y-108005714D01*
X148137619Y-107958095D01*
X148232857Y-107910476D01*
X148423333Y-107862857D01*
X148661428Y-107862857D01*
X148851904Y-107910476D01*
X148947142Y-107958095D01*
X148994761Y-108005714D01*
X149042380Y-108100952D01*
X149042380Y-108196190D01*
X148994761Y-108291428D01*
X148947142Y-108339047D01*
X148851904Y-108386666D01*
X148661428Y-108434285D01*
X148423333Y-108434285D01*
X148232857Y-108386666D01*
X148137619Y-108339047D01*
X148090000Y-108291428D01*
X148042380Y-108196190D01*
X149042380Y-106672380D02*
X148375714Y-106672380D01*
X148042380Y-106672380D02*
X148090000Y-106720000D01*
X148137619Y-106672380D01*
X148090000Y-106624761D01*
X148042380Y-106672380D01*
X148137619Y-106672380D01*
X148375714Y-106196190D02*
X149042380Y-106196190D01*
X148470952Y-106196190D02*
X148423333Y-106148571D01*
X148375714Y-106053333D01*
X148375714Y-105910476D01*
X148423333Y-105815238D01*
X148518571Y-105767619D01*
X149042380Y-105767619D01*
D11*
X149860000Y-144780000D02*
X149860000Y-73660000D01*
X152400000Y-144780000D02*
X149273579Y-144780000D01*
X152400000Y-73660000D02*
X149273579Y-73660000D01*
X149860000Y-73660000D02*
X150446421Y-74786504D01*
X149860000Y-73660000D02*
X149273579Y-74786504D01*
X149860000Y-144780000D02*
X150446421Y-143653496D01*
X149860000Y-144780000D02*
X149273579Y-143653496D01*
D10*
X121912428Y-88526880D02*
X121341000Y-88526880D01*
X121626714Y-88526880D02*
X121626714Y-87526880D01*
X121531476Y-87669738D01*
X121436238Y-87764976D01*
X121341000Y-87812595D01*
X122341000Y-88431642D02*
X122388619Y-88479261D01*
X122341000Y-88526880D01*
X122293380Y-88479261D01*
X122341000Y-88431642D01*
X122341000Y-88526880D01*
X122721952Y-87526880D02*
X123341000Y-87526880D01*
X123007666Y-87907833D01*
X123150523Y-87907833D01*
X123245761Y-87955452D01*
X123293380Y-88003071D01*
X123341000Y-88098309D01*
X123341000Y-88336404D01*
X123293380Y-88431642D01*
X123245761Y-88479261D01*
X123150523Y-88526880D01*
X122864809Y-88526880D01*
X122769571Y-88479261D01*
X122721952Y-88431642D01*
X123721952Y-87622119D02*
X123769571Y-87574500D01*
X123864809Y-87526880D01*
X124102904Y-87526880D01*
X124198142Y-87574500D01*
X124245761Y-87622119D01*
X124293380Y-87717357D01*
X124293380Y-87812595D01*
X124245761Y-87955452D01*
X123674333Y-88526880D01*
X124293380Y-88526880D01*
X124912428Y-87526880D02*
X125007666Y-87526880D01*
X125102904Y-87574500D01*
X125150523Y-87622119D01*
X125198142Y-87717357D01*
X125245761Y-87907833D01*
X125245761Y-88145928D01*
X125198142Y-88336404D01*
X125150523Y-88431642D01*
X125102904Y-88479261D01*
X125007666Y-88526880D01*
X124912428Y-88526880D01*
X124817190Y-88479261D01*
X124769571Y-88431642D01*
X124721952Y-88336404D01*
X124674333Y-88145928D01*
X124674333Y-87907833D01*
X124721952Y-87717357D01*
X124769571Y-87622119D01*
X124817190Y-87574500D01*
X124912428Y-87526880D01*
X125864809Y-87526880D02*
X125960047Y-87526880D01*
X126055285Y-87574500D01*
X126102904Y-87622119D01*
X126150523Y-87717357D01*
X126198142Y-87907833D01*
X126198142Y-88145928D01*
X126150523Y-88336404D01*
X126102904Y-88431642D01*
X126055285Y-88479261D01*
X125960047Y-88526880D01*
X125864809Y-88526880D01*
X125769571Y-88479261D01*
X125721952Y-88431642D01*
X125674333Y-88336404D01*
X125626714Y-88145928D01*
X125626714Y-87907833D01*
X125674333Y-87717357D01*
X125721952Y-87622119D01*
X125769571Y-87574500D01*
X125864809Y-87526880D01*
X127388619Y-88526880D02*
X127388619Y-87860214D01*
X127388619Y-87526880D02*
X127341000Y-87574500D01*
X127388619Y-87622119D01*
X127436238Y-87574500D01*
X127388619Y-87526880D01*
X127388619Y-87622119D01*
X127864809Y-87860214D02*
X127864809Y-88526880D01*
X127864809Y-87955452D02*
X127912428Y-87907833D01*
X128007666Y-87860214D01*
X128150523Y-87860214D01*
X128245761Y-87907833D01*
X128293380Y-88003071D01*
X128293380Y-88526880D01*
D11*
X108077000Y-89344500D02*
X141605000Y-89344500D01*
X108077000Y-98044000D02*
X108077000Y-88758079D01*
X141605000Y-98044000D02*
X141605000Y-88758079D01*
X141605000Y-89344500D02*
X140478496Y-89930921D01*
X141605000Y-89344500D02*
X140478496Y-88758079D01*
X108077000Y-89344500D02*
X109203504Y-89930921D01*
X108077000Y-89344500D02*
X109203504Y-88758079D01*
D10*
X145343619Y-113339928D02*
X145343619Y-112768500D01*
X145343619Y-113054214D02*
X146343619Y-113054214D01*
X146200761Y-112958976D01*
X146105523Y-112863738D01*
X146057904Y-112768500D01*
X145438857Y-113768500D02*
X145391238Y-113816119D01*
X145343619Y-113768500D01*
X145391238Y-113720880D01*
X145438857Y-113768500D01*
X145343619Y-113768500D01*
X146010285Y-114673261D02*
X145343619Y-114673261D01*
X146391238Y-114435166D02*
X145676952Y-114197071D01*
X145676952Y-114816119D01*
X146343619Y-115101833D02*
X146343619Y-115720880D01*
X145962666Y-115387547D01*
X145962666Y-115530404D01*
X145915047Y-115625642D01*
X145867428Y-115673261D01*
X145772190Y-115720880D01*
X145534095Y-115720880D01*
X145438857Y-115673261D01*
X145391238Y-115625642D01*
X145343619Y-115530404D01*
X145343619Y-115244690D01*
X145391238Y-115149452D01*
X145438857Y-115101833D01*
X146343619Y-116625642D02*
X146343619Y-116149452D01*
X145867428Y-116101833D01*
X145915047Y-116149452D01*
X145962666Y-116244690D01*
X145962666Y-116482785D01*
X145915047Y-116578023D01*
X145867428Y-116625642D01*
X145772190Y-116673261D01*
X145534095Y-116673261D01*
X145438857Y-116625642D01*
X145391238Y-116578023D01*
X145343619Y-116482785D01*
X145343619Y-116244690D01*
X145391238Y-116149452D01*
X145438857Y-116101833D01*
X146343619Y-117292309D02*
X146343619Y-117387547D01*
X146296000Y-117482785D01*
X146248380Y-117530404D01*
X146153142Y-117578023D01*
X145962666Y-117625642D01*
X145724571Y-117625642D01*
X145534095Y-117578023D01*
X145438857Y-117530404D01*
X145391238Y-117482785D01*
X145343619Y-117387547D01*
X145343619Y-117292309D01*
X145391238Y-117197071D01*
X145438857Y-117149452D01*
X145534095Y-117101833D01*
X145724571Y-117054214D01*
X145962666Y-117054214D01*
X146153142Y-117101833D01*
X146248380Y-117149452D01*
X146296000Y-117197071D01*
X146343619Y-117292309D01*
X145343619Y-118816119D02*
X146010285Y-118816119D01*
X146343619Y-118816119D02*
X146296000Y-118768500D01*
X146248380Y-118816119D01*
X146296000Y-118863738D01*
X146343619Y-118816119D01*
X146248380Y-118816119D01*
X146010285Y-119292309D02*
X145343619Y-119292309D01*
X145915047Y-119292309D02*
X145962666Y-119339928D01*
X146010285Y-119435166D01*
X146010285Y-119578023D01*
X145962666Y-119673261D01*
X145867428Y-119720880D01*
X145343619Y-119720880D01*
D11*
X144526000Y-98044000D02*
X144526000Y-134493000D01*
X141605000Y-98044000D02*
X145112421Y-98044000D01*
X141605000Y-134493000D02*
X145112421Y-134493000D01*
X144526000Y-134493000D02*
X143939579Y-133366496D01*
X144526000Y-134493000D02*
X145112421Y-133366496D01*
X144526000Y-98044000D02*
X143939579Y-99170504D01*
X144526000Y-98044000D02*
X145112421Y-99170504D01*
D10*
X100576428Y-97353380D02*
X100005000Y-97353380D01*
X100290714Y-97353380D02*
X100290714Y-96353380D01*
X100195476Y-96496238D01*
X100100238Y-96591476D01*
X100005000Y-96639095D01*
X101005000Y-97258142D02*
X101052619Y-97305761D01*
X101005000Y-97353380D01*
X100957380Y-97305761D01*
X101005000Y-97258142D01*
X101005000Y-97353380D01*
X101957380Y-96353380D02*
X101481190Y-96353380D01*
X101433571Y-96829571D01*
X101481190Y-96781952D01*
X101576428Y-96734333D01*
X101814523Y-96734333D01*
X101909761Y-96781952D01*
X101957380Y-96829571D01*
X102005000Y-96924809D01*
X102005000Y-97162904D01*
X101957380Y-97258142D01*
X101909761Y-97305761D01*
X101814523Y-97353380D01*
X101576428Y-97353380D01*
X101481190Y-97305761D01*
X101433571Y-97258142D01*
X102909761Y-96353380D02*
X102433571Y-96353380D01*
X102385952Y-96829571D01*
X102433571Y-96781952D01*
X102528809Y-96734333D01*
X102766904Y-96734333D01*
X102862142Y-96781952D01*
X102909761Y-96829571D01*
X102957380Y-96924809D01*
X102957380Y-97162904D01*
X102909761Y-97258142D01*
X102862142Y-97305761D01*
X102766904Y-97353380D01*
X102528809Y-97353380D01*
X102433571Y-97305761D01*
X102385952Y-97258142D01*
X103576428Y-96353380D02*
X103671666Y-96353380D01*
X103766904Y-96401000D01*
X103814523Y-96448619D01*
X103862142Y-96543857D01*
X103909761Y-96734333D01*
X103909761Y-96972428D01*
X103862142Y-97162904D01*
X103814523Y-97258142D01*
X103766904Y-97305761D01*
X103671666Y-97353380D01*
X103576428Y-97353380D01*
X103481190Y-97305761D01*
X103433571Y-97258142D01*
X103385952Y-97162904D01*
X103338333Y-96972428D01*
X103338333Y-96734333D01*
X103385952Y-96543857D01*
X103433571Y-96448619D01*
X103481190Y-96401000D01*
X103576428Y-96353380D01*
X104528809Y-96353380D02*
X104624047Y-96353380D01*
X104719285Y-96401000D01*
X104766904Y-96448619D01*
X104814523Y-96543857D01*
X104862142Y-96734333D01*
X104862142Y-96972428D01*
X104814523Y-97162904D01*
X104766904Y-97258142D01*
X104719285Y-97305761D01*
X104624047Y-97353380D01*
X104528809Y-97353380D01*
X104433571Y-97305761D01*
X104385952Y-97258142D01*
X104338333Y-97162904D01*
X104290714Y-96972428D01*
X104290714Y-96734333D01*
X104338333Y-96543857D01*
X104385952Y-96448619D01*
X104433571Y-96401000D01*
X104528809Y-96353380D01*
X106052619Y-97353380D02*
X106052619Y-96686714D01*
X106052619Y-96353380D02*
X106005000Y-96401000D01*
X106052619Y-96448619D01*
X106100238Y-96401000D01*
X106052619Y-96353380D01*
X106052619Y-96448619D01*
X106528809Y-96686714D02*
X106528809Y-97353380D01*
X106528809Y-96781952D02*
X106576428Y-96734333D01*
X106671666Y-96686714D01*
X106814523Y-96686714D01*
X106909761Y-96734333D01*
X106957380Y-96829571D01*
X106957380Y-97353380D01*
D11*
X123190000Y-95631000D02*
X83820000Y-95631000D01*
X123190000Y-95250000D02*
X123190000Y-96217421D01*
X83820000Y-95250000D02*
X83820000Y-96217421D01*
X83820000Y-95631000D02*
X84946504Y-95044579D01*
X83820000Y-95631000D02*
X84946504Y-96217421D01*
X123190000Y-95631000D02*
X122063496Y-95044579D01*
X123190000Y-95631000D02*
X122063496Y-96217421D01*
D10*
X129373380Y-88986904D02*
X129373380Y-88891666D01*
X129421000Y-88796428D01*
X129468619Y-88748809D01*
X129563857Y-88701190D01*
X129754333Y-88653571D01*
X129992428Y-88653571D01*
X130182904Y-88701190D01*
X130278142Y-88748809D01*
X130325761Y-88796428D01*
X130373380Y-88891666D01*
X130373380Y-88986904D01*
X130325761Y-89082142D01*
X130278142Y-89129761D01*
X130182904Y-89177380D01*
X129992428Y-89225000D01*
X129754333Y-89225000D01*
X129563857Y-89177380D01*
X129468619Y-89129761D01*
X129421000Y-89082142D01*
X129373380Y-88986904D01*
X130278142Y-88225000D02*
X130325761Y-88177380D01*
X130373380Y-88225000D01*
X130325761Y-88272619D01*
X130278142Y-88225000D01*
X130373380Y-88225000D01*
X129373380Y-87844047D02*
X129373380Y-87177380D01*
X130373380Y-87605952D01*
X129373380Y-86320238D02*
X129373380Y-86796428D01*
X129849571Y-86844047D01*
X129801952Y-86796428D01*
X129754333Y-86701190D01*
X129754333Y-86463095D01*
X129801952Y-86367857D01*
X129849571Y-86320238D01*
X129944809Y-86272619D01*
X130182904Y-86272619D01*
X130278142Y-86320238D01*
X130325761Y-86367857D01*
X130373380Y-86463095D01*
X130373380Y-86701190D01*
X130325761Y-86796428D01*
X130278142Y-86844047D01*
X129373380Y-85653571D02*
X129373380Y-85558333D01*
X129421000Y-85463095D01*
X129468619Y-85415476D01*
X129563857Y-85367857D01*
X129754333Y-85320238D01*
X129992428Y-85320238D01*
X130182904Y-85367857D01*
X130278142Y-85415476D01*
X130325761Y-85463095D01*
X130373380Y-85558333D01*
X130373380Y-85653571D01*
X130325761Y-85748809D01*
X130278142Y-85796428D01*
X130182904Y-85844047D01*
X129992428Y-85891666D01*
X129754333Y-85891666D01*
X129563857Y-85844047D01*
X129468619Y-85796428D01*
X129421000Y-85748809D01*
X129373380Y-85653571D01*
X129373380Y-84701190D02*
X129373380Y-84605952D01*
X129421000Y-84510714D01*
X129468619Y-84463095D01*
X129563857Y-84415476D01*
X129754333Y-84367857D01*
X129992428Y-84367857D01*
X130182904Y-84415476D01*
X130278142Y-84463095D01*
X130325761Y-84510714D01*
X130373380Y-84605952D01*
X130373380Y-84701190D01*
X130325761Y-84796428D01*
X130278142Y-84844047D01*
X130182904Y-84891666D01*
X129992428Y-84939285D01*
X129754333Y-84939285D01*
X129563857Y-84891666D01*
X129468619Y-84844047D01*
X129421000Y-84796428D01*
X129373380Y-84701190D01*
X130373380Y-83177380D02*
X129706714Y-83177380D01*
X129373380Y-83177380D02*
X129421000Y-83225000D01*
X129468619Y-83177380D01*
X129421000Y-83129761D01*
X129373380Y-83177380D01*
X129468619Y-83177380D01*
X129706714Y-82701190D02*
X130373380Y-82701190D01*
X129801952Y-82701190D02*
X129754333Y-82653571D01*
X129706714Y-82558333D01*
X129706714Y-82415476D01*
X129754333Y-82320238D01*
X129849571Y-82272619D01*
X130373380Y-82272619D01*
D11*
X128651000Y-95250000D02*
X128651000Y-76200000D01*
X123190000Y-95250000D02*
X129237421Y-95250000D01*
X123190000Y-76200000D02*
X129237421Y-76200000D01*
X128651000Y-76200000D02*
X129237421Y-77326504D01*
X128651000Y-76200000D02*
X128064579Y-77326504D01*
X128651000Y-95250000D02*
X129237421Y-94123496D01*
X128651000Y-95250000D02*
X128064579Y-94123496D01*
D10*
X32297619Y-92972380D02*
X32297619Y-93591428D01*
X31916666Y-93258095D01*
X31916666Y-93400952D01*
X31869047Y-93496190D01*
X31821428Y-93543809D01*
X31726190Y-93591428D01*
X31488095Y-93591428D01*
X31392857Y-93543809D01*
X31345238Y-93496190D01*
X31297619Y-93400952D01*
X31297619Y-93115238D01*
X31345238Y-93020000D01*
X31392857Y-92972380D01*
X31392857Y-94020000D02*
X31345238Y-94067619D01*
X31297619Y-94020000D01*
X31345238Y-93972380D01*
X31392857Y-94020000D01*
X31297619Y-94020000D01*
X31869047Y-94639047D02*
X31916666Y-94543809D01*
X31964285Y-94496190D01*
X32059523Y-94448571D01*
X32107142Y-94448571D01*
X32202380Y-94496190D01*
X32250000Y-94543809D01*
X32297619Y-94639047D01*
X32297619Y-94829523D01*
X32250000Y-94924761D01*
X32202380Y-94972380D01*
X32107142Y-95020000D01*
X32059523Y-95020000D01*
X31964285Y-94972380D01*
X31916666Y-94924761D01*
X31869047Y-94829523D01*
X31869047Y-94639047D01*
X31821428Y-94543809D01*
X31773809Y-94496190D01*
X31678571Y-94448571D01*
X31488095Y-94448571D01*
X31392857Y-94496190D01*
X31345238Y-94543809D01*
X31297619Y-94639047D01*
X31297619Y-94829523D01*
X31345238Y-94924761D01*
X31392857Y-94972380D01*
X31488095Y-95020000D01*
X31678571Y-95020000D01*
X31773809Y-94972380D01*
X31821428Y-94924761D01*
X31869047Y-94829523D01*
X32297619Y-95639047D02*
X32297619Y-95734285D01*
X32250000Y-95829523D01*
X32202380Y-95877142D01*
X32107142Y-95924761D01*
X31916666Y-95972380D01*
X31678571Y-95972380D01*
X31488095Y-95924761D01*
X31392857Y-95877142D01*
X31345238Y-95829523D01*
X31297619Y-95734285D01*
X31297619Y-95639047D01*
X31345238Y-95543809D01*
X31392857Y-95496190D01*
X31488095Y-95448571D01*
X31678571Y-95400952D01*
X31916666Y-95400952D01*
X32107142Y-95448571D01*
X32202380Y-95496190D01*
X32250000Y-95543809D01*
X32297619Y-95639047D01*
X32297619Y-96591428D02*
X32297619Y-96686666D01*
X32250000Y-96781904D01*
X32202380Y-96829523D01*
X32107142Y-96877142D01*
X31916666Y-96924761D01*
X31678571Y-96924761D01*
X31488095Y-96877142D01*
X31392857Y-96829523D01*
X31345238Y-96781904D01*
X31297619Y-96686666D01*
X31297619Y-96591428D01*
X31345238Y-96496190D01*
X31392857Y-96448571D01*
X31488095Y-96400952D01*
X31678571Y-96353333D01*
X31916666Y-96353333D01*
X32107142Y-96400952D01*
X32202380Y-96448571D01*
X32250000Y-96496190D01*
X32297619Y-96591428D01*
X32297619Y-97543809D02*
X32297619Y-97639047D01*
X32250000Y-97734285D01*
X32202380Y-97781904D01*
X32107142Y-97829523D01*
X31916666Y-97877142D01*
X31678571Y-97877142D01*
X31488095Y-97829523D01*
X31392857Y-97781904D01*
X31345238Y-97734285D01*
X31297619Y-97639047D01*
X31297619Y-97543809D01*
X31345238Y-97448571D01*
X31392857Y-97400952D01*
X31488095Y-97353333D01*
X31678571Y-97305714D01*
X31916666Y-97305714D01*
X32107142Y-97353333D01*
X32202380Y-97400952D01*
X32250000Y-97448571D01*
X32297619Y-97543809D01*
X31297619Y-99067619D02*
X31964285Y-99067619D01*
X32297619Y-99067619D02*
X32250000Y-99020000D01*
X32202380Y-99067619D01*
X32250000Y-99115238D01*
X32297619Y-99067619D01*
X32202380Y-99067619D01*
X31964285Y-99543809D02*
X31297619Y-99543809D01*
X31869047Y-99543809D02*
X31916666Y-99591428D01*
X31964285Y-99686666D01*
X31964285Y-99829523D01*
X31916666Y-99924761D01*
X31821428Y-99972380D01*
X31297619Y-99972380D01*
D11*
X33020000Y-48260000D02*
X33020000Y-144780000D01*
X109220000Y-48260000D02*
X32433579Y-48260000D01*
X109220000Y-144780000D02*
X32433579Y-144780000D01*
X33020000Y-144780000D02*
X32433579Y-143653496D01*
X33020000Y-144780000D02*
X33606421Y-143653496D01*
X33020000Y-48260000D02*
X32433579Y-49386504D01*
X33020000Y-48260000D02*
X33606421Y-49386504D01*
X137185400Y-124790200D02*
X132943600Y-124790200D01*
D12*
X132467400Y-118224800D02*
X131747400Y-118224800D01*
X132467400Y-119204800D02*
X131747400Y-119204800D01*
D13*
X110011000Y-80558000D02*
X105611000Y-80558000D01*
X110011000Y-85558000D02*
X105611000Y-85558000D01*
D14*
X111321000Y-85698000D02*
G75*
G03X111321000Y-85698000I-100000J0D01*
G01*
D13*
X126489800Y-104946200D02*
G75*
G03X126489800Y-104946200I-50000J0D01*
G01*
X129514800Y-101446200D02*
X129514800Y-104446200D01*
X126364800Y-104446200D02*
X126364800Y-101446200D01*
D11*
X112378380Y-110069080D02*
X112378380Y-111269080D01*
X110618380Y-111269080D02*
X110618380Y-110069080D01*
X112373780Y-115871880D02*
X112373780Y-114871880D01*
X110673780Y-114871880D02*
X110673780Y-115871880D01*
X133628200Y-107125100D02*
X133628200Y-115525100D01*
X127128200Y-107125100D02*
X127128200Y-115525100D01*
X127128200Y-107125100D02*
X133628200Y-107125100D01*
X132092720Y-118208840D02*
X132092720Y-119208840D01*
X128492720Y-119208840D02*
X128492720Y-118208840D01*
D10*
X118317600Y-111400000D02*
X125217600Y-111400000D01*
X118317600Y-104500000D02*
X125217600Y-104500000D01*
D11*
X118326400Y-114463800D02*
X118326400Y-119063800D01*
X123786400Y-119063800D02*
X123786400Y-114463800D01*
X122623200Y-99353000D02*
X121623200Y-99353000D01*
X121623200Y-101053000D02*
X122623200Y-101053000D01*
X115150000Y-83070000D02*
X115150000Y-82070000D01*
X113450000Y-82070000D02*
X113450000Y-83070000D01*
D13*
X108095000Y-93552000D02*
X102725000Y-93552000D01*
X102725000Y-89582000D02*
X108095000Y-89582000D01*
D14*
X109610000Y-92467000D02*
G75*
G03X109610000Y-92467000I-100000J0D01*
G01*
D13*
X112164000Y-94815000D02*
X117444000Y-94815000D01*
X112164000Y-89335000D02*
X112164000Y-94815000D01*
X117444000Y-89335000D02*
X112164000Y-89335000D01*
X117444000Y-94815000D02*
X117444000Y-89335000D01*
D14*
X118204000Y-92075000D02*
G75*
G03X118204000Y-92075000I-100000J0D01*
G01*
D15*
X130479800Y-122631200D02*
G75*
G02X129870200Y-122631200I-304800J0D01*
G01*
X126491997Y-123037601D02*
G75*
G02X126492000Y-122656600I-99167J190501D01*
G01*
D16*
X129870200Y-122631200D02*
X128244600Y-122631200D01*
X130479800Y-122631200D02*
X129870200Y-122631200D01*
X132105400Y-122631200D02*
X130479800Y-122631200D01*
X128244600Y-127609600D02*
X132105400Y-127609600D01*
D11*
X99580000Y-85970000D02*
X98380000Y-85970000D01*
X98380000Y-84210000D02*
X99580000Y-84210000D01*
X98230800Y-88992000D02*
X98230800Y-87792000D01*
X99990800Y-87792000D02*
X99990800Y-88992000D01*
X100666000Y-78368000D02*
X101866000Y-78368000D01*
X101866000Y-80128000D02*
X100666000Y-80128000D01*
X100556000Y-83303000D02*
X99356000Y-83303000D01*
X99356000Y-81543000D02*
X100556000Y-81543000D01*
X96650000Y-90810000D02*
X96650000Y-86230000D01*
X95890000Y-91570000D02*
X96650000Y-90810000D01*
X91310000Y-90810000D02*
X92070000Y-91570000D01*
X91310000Y-86230000D02*
X91310000Y-90810000D01*
X92070000Y-91570000D02*
X92860000Y-91570000D01*
X95890000Y-91570000D02*
X95100000Y-91570000D01*
X91310000Y-86230000D02*
X92860000Y-86230000D01*
X96650000Y-86230000D02*
X95100000Y-86230000D01*
X97020000Y-78398000D02*
X96020000Y-78398000D01*
X96020000Y-80098000D02*
X97020000Y-80098000D01*
X105545000Y-80098000D02*
X106545000Y-80098000D01*
X106545000Y-78398000D02*
X105545000Y-78398000D01*
X111498000Y-78398000D02*
X110498000Y-78398000D01*
X110498000Y-80098000D02*
X111498000Y-80098000D01*
X118769500Y-87355300D02*
X118769500Y-86355300D01*
X117069500Y-86355300D02*
X117069500Y-87355300D01*
X115477180Y-117438880D02*
X115477180Y-118638880D01*
X113717180Y-118638880D02*
X113717180Y-117438880D01*
X115477180Y-112587480D02*
X115477180Y-113787480D01*
X113717180Y-113787480D02*
X113717180Y-112587480D01*
X126852700Y-131628600D02*
X125652700Y-131628600D01*
X125652700Y-129868600D02*
X126852700Y-129868600D01*
X123637400Y-129754800D02*
X123637400Y-130954800D01*
X121877400Y-130954800D02*
X121877400Y-129754800D01*
X118801600Y-127085200D02*
X120001600Y-127085200D01*
X120001600Y-128845200D02*
X118801600Y-128845200D01*
X112027860Y-126148540D02*
X112027860Y-127348540D01*
X110267860Y-127348540D02*
X110267860Y-126148540D01*
X113186760Y-124311300D02*
X111986760Y-124311300D01*
X111986760Y-122551300D02*
X113186760Y-122551300D01*
D10*
X144820000Y-92560000D02*
X144820000Y-80160000D01*
X132420000Y-92560000D02*
X144820000Y-92560000D01*
X132420000Y-80160000D02*
X132420000Y-92560000D01*
X144820000Y-80160000D02*
X132420000Y-80160000D01*
D11*
X101674000Y-119709540D02*
X103674000Y-119709540D01*
X103674000Y-121849540D02*
X101674000Y-121849540D01*
X76590400Y-124006000D02*
X74590400Y-124006000D01*
X74590400Y-121866000D02*
X76590400Y-121866000D01*
X101601780Y-127878680D02*
X101601780Y-123578680D01*
X99601780Y-127878680D02*
X101601780Y-127878680D01*
X99601780Y-123578680D02*
X99601780Y-127878680D01*
X77968600Y-125847000D02*
X77968600Y-130147000D01*
X79968600Y-125847000D02*
X77968600Y-125847000D01*
X79968600Y-130147000D02*
X79968600Y-125847000D01*
X88734000Y-89527000D02*
X88734000Y-88527000D01*
X87034000Y-88527000D02*
X87034000Y-89527000D01*
X122198500Y-87355300D02*
X122198500Y-86355300D01*
X120498500Y-86355300D02*
X120498500Y-87355300D01*
X124270400Y-118168800D02*
X124270400Y-119168800D01*
X125970400Y-119168800D02*
X125970400Y-118168800D01*
X135856600Y-131204600D02*
X134856600Y-131204600D01*
X134856600Y-132904600D02*
X135856600Y-132904600D01*
X128797400Y-129614800D02*
X128797400Y-130614800D01*
X130497400Y-130614800D02*
X130497400Y-129614800D01*
X126651900Y-128010000D02*
X125651900Y-128010000D01*
X125651900Y-129710000D02*
X126651900Y-129710000D01*
X134100200Y-108943200D02*
X134100200Y-109943200D01*
X135800200Y-109943200D02*
X135800200Y-108943200D01*
X123747400Y-123304800D02*
X122747400Y-123304800D01*
X122747400Y-125004800D02*
X123747400Y-125004800D01*
X121150000Y-125235600D02*
X120150000Y-125235600D01*
X120150000Y-126935600D02*
X121150000Y-126935600D01*
X133057400Y-120604800D02*
X132057400Y-120604800D01*
X132057400Y-122304800D02*
X133057400Y-122304800D01*
X133947800Y-127998600D02*
X133947800Y-128998600D01*
X135647800Y-128998600D02*
X135647800Y-127998600D01*
X112173960Y-126325740D02*
X112173960Y-127325740D01*
X113873960Y-127325740D02*
X113873960Y-126325740D01*
X122610500Y-101321500D02*
X121610500Y-101321500D01*
X121610500Y-103021500D02*
X122610500Y-103021500D01*
X94271220Y-127767520D02*
X97971220Y-127767520D01*
X97971220Y-127767520D02*
X97971220Y-120667520D01*
X94271220Y-127767520D02*
X94271220Y-120667520D01*
X75611600Y-125084400D02*
X71911600Y-125084400D01*
X71911600Y-125084400D02*
X71911600Y-132184400D01*
X75611600Y-125084400D02*
X75611600Y-132184400D01*
D17*
X107287408Y-85918554D02*
X107287408Y-86437491D01*
X107317933Y-86498542D01*
X107348459Y-86529068D01*
X107409510Y-86559593D01*
X107531613Y-86559593D01*
X107592664Y-86529068D01*
X107623190Y-86498542D01*
X107653716Y-86437491D01*
X107653716Y-85918554D01*
X108233703Y-86132234D02*
X108233703Y-86559593D01*
X108081075Y-85888029D02*
X107928447Y-86345914D01*
X108325280Y-86345914D01*
X108691588Y-85918554D02*
X108752640Y-85918554D01*
X108813691Y-85949080D01*
X108844217Y-85979606D01*
X108874742Y-86040657D01*
X108905268Y-86162760D01*
X108905268Y-86315388D01*
X108874742Y-86437491D01*
X108844217Y-86498542D01*
X108813691Y-86529068D01*
X108752640Y-86559593D01*
X108691588Y-86559593D01*
X108630537Y-86529068D01*
X108600011Y-86498542D01*
X108569486Y-86437491D01*
X108538960Y-86315388D01*
X108538960Y-86162760D01*
X108569486Y-86040657D01*
X108600011Y-85979606D01*
X108630537Y-85949080D01*
X108691588Y-85918554D01*
X109515781Y-86559593D02*
X109149473Y-86559593D01*
X109332627Y-86559593D02*
X109332627Y-85918554D01*
X109271576Y-86010131D01*
X109210525Y-86071183D01*
X109149473Y-86101708D01*
X104315235Y-79507199D02*
X104681643Y-79507199D01*
X104498439Y-80148413D02*
X104498439Y-79507199D01*
X104895381Y-80148413D02*
X104895381Y-79507199D01*
X105139653Y-79507199D01*
X105200721Y-79537733D01*
X105231255Y-79568267D01*
X105261789Y-79629335D01*
X105261789Y-79720937D01*
X105231255Y-79782005D01*
X105200721Y-79812539D01*
X105139653Y-79843073D01*
X104895381Y-79843073D01*
X105506061Y-80117879D02*
X105597663Y-80148413D01*
X105750333Y-80148413D01*
X105811401Y-80117879D01*
X105841935Y-80087345D01*
X105872469Y-80026277D01*
X105872469Y-79965209D01*
X105841935Y-79904141D01*
X105811401Y-79873607D01*
X105750333Y-79843073D01*
X105628197Y-79812539D01*
X105567129Y-79782005D01*
X105536595Y-79751471D01*
X105506061Y-79690403D01*
X105506061Y-79629335D01*
X105536595Y-79568267D01*
X105567129Y-79537733D01*
X105628197Y-79507199D01*
X105780867Y-79507199D01*
X105872469Y-79537733D01*
X106452615Y-79507199D02*
X106147275Y-79507199D01*
X106116741Y-79812539D01*
X106147275Y-79782005D01*
X106208343Y-79751471D01*
X106361013Y-79751471D01*
X106422081Y-79782005D01*
X106452615Y-79812539D01*
X106483149Y-79873607D01*
X106483149Y-80026277D01*
X106452615Y-80087345D01*
X106422081Y-80117879D01*
X106361013Y-80148413D01*
X106208343Y-80148413D01*
X106147275Y-80117879D01*
X106116741Y-80087345D01*
X107063295Y-79507199D02*
X106757955Y-79507199D01*
X106727421Y-79812539D01*
X106757955Y-79782005D01*
X106819023Y-79751471D01*
X106971693Y-79751471D01*
X107032761Y-79782005D01*
X107063295Y-79812539D01*
X107093829Y-79873607D01*
X107093829Y-80026277D01*
X107063295Y-80087345D01*
X107032761Y-80117879D01*
X106971693Y-80148413D01*
X106819023Y-80148413D01*
X106757955Y-80117879D01*
X106727421Y-80087345D01*
X107307567Y-79507199D02*
X107704509Y-79507199D01*
X107490771Y-79751471D01*
X107582373Y-79751471D01*
X107643441Y-79782005D01*
X107673975Y-79812539D01*
X107704509Y-79873607D01*
X107704509Y-80026277D01*
X107673975Y-80087345D01*
X107643441Y-80117879D01*
X107582373Y-80148413D01*
X107399169Y-80148413D01*
X107338101Y-80117879D01*
X107307567Y-80087345D01*
X108254121Y-79720937D02*
X108254121Y-80148413D01*
X108101451Y-79476665D02*
X107948781Y-79934675D01*
X108345723Y-79934675D01*
X108712131Y-79507199D02*
X108773199Y-79507199D01*
X108834267Y-79537733D01*
X108864801Y-79568267D01*
X108895335Y-79629335D01*
X108925869Y-79751471D01*
X108925869Y-79904141D01*
X108895335Y-80026277D01*
X108864801Y-80087345D01*
X108834267Y-80117879D01*
X108773199Y-80148413D01*
X108712131Y-80148413D01*
X108651063Y-80117879D01*
X108620529Y-80087345D01*
X108589995Y-80026277D01*
X108559461Y-79904141D01*
X108559461Y-79751471D01*
X108589995Y-79629335D01*
X108620529Y-79568267D01*
X108651063Y-79537733D01*
X108712131Y-79507199D01*
X109200675Y-80148413D02*
X109200675Y-79507199D01*
X109444947Y-79507199D01*
X109506015Y-79537733D01*
X109536549Y-79568267D01*
X109567083Y-79629335D01*
X109567083Y-79720937D01*
X109536549Y-79782005D01*
X109506015Y-79812539D01*
X109444947Y-79843073D01*
X109200675Y-79843073D01*
X109780821Y-79507199D02*
X109933491Y-80148413D01*
X110055627Y-79690403D01*
X110177763Y-80148413D01*
X110330433Y-79507199D01*
X110574705Y-80148413D02*
X110574705Y-79507199D01*
X110818977Y-79507199D01*
X110880045Y-79537733D01*
X110910579Y-79568267D01*
X110941113Y-79629335D01*
X110941113Y-79720937D01*
X110910579Y-79782005D01*
X110880045Y-79812539D01*
X110818977Y-79843073D01*
X110574705Y-79843073D01*
X111582327Y-80148413D02*
X111368589Y-79843073D01*
X111215919Y-80148413D02*
X111215919Y-79507199D01*
X111460191Y-79507199D01*
X111521259Y-79537733D01*
X111551793Y-79568267D01*
X111582327Y-79629335D01*
X111582327Y-79720937D01*
X111551793Y-79782005D01*
X111521259Y-79812539D01*
X111460191Y-79843073D01*
X111215919Y-79843073D01*
D10*
X131357619Y-103917619D02*
X131310000Y-104012857D01*
X131214761Y-104108095D01*
X131071904Y-104250952D01*
X131024285Y-104346190D01*
X131024285Y-104441428D01*
X131262380Y-104393809D02*
X131214761Y-104489047D01*
X131119523Y-104584285D01*
X130929047Y-104631904D01*
X130595714Y-104631904D01*
X130405238Y-104584285D01*
X130310000Y-104489047D01*
X130262380Y-104393809D01*
X130262380Y-104203333D01*
X130310000Y-104108095D01*
X130405238Y-104012857D01*
X130595714Y-103965238D01*
X130929047Y-103965238D01*
X131119523Y-104012857D01*
X131214761Y-104108095D01*
X131262380Y-104203333D01*
X131262380Y-104393809D01*
X130357619Y-103584285D02*
X130310000Y-103536666D01*
X130262380Y-103441428D01*
X130262380Y-103203333D01*
X130310000Y-103108095D01*
X130357619Y-103060476D01*
X130452857Y-103012857D01*
X130548095Y-103012857D01*
X130690952Y-103060476D01*
X131262380Y-103631904D01*
X131262380Y-103012857D01*
X130262380Y-102393809D02*
X130262380Y-102298571D01*
X130310000Y-102203333D01*
X130357619Y-102155714D01*
X130452857Y-102108095D01*
X130643333Y-102060476D01*
X130881428Y-102060476D01*
X131071904Y-102108095D01*
X131167142Y-102155714D01*
X131214761Y-102203333D01*
X131262380Y-102298571D01*
X131262380Y-102393809D01*
X131214761Y-102489047D01*
X131167142Y-102536666D01*
X131071904Y-102584285D01*
X130881428Y-102631904D01*
X130643333Y-102631904D01*
X130452857Y-102584285D01*
X130357619Y-102536666D01*
X130310000Y-102489047D01*
X130262380Y-102393809D01*
X131262380Y-101108095D02*
X131262380Y-101679523D01*
X131262380Y-101393809D02*
X130262380Y-101393809D01*
X130405238Y-101489047D01*
X130500476Y-101584285D01*
X130548095Y-101679523D01*
X133373121Y-129311660D02*
X133373121Y-128311660D01*
X133944550Y-129311660D01*
X133944550Y-128311660D01*
X134277883Y-128311660D02*
X134849312Y-128311660D01*
X134563598Y-129311660D02*
X134563598Y-128311660D01*
X135135026Y-128406899D02*
X135182645Y-128359280D01*
X135277883Y-128311660D01*
X135515979Y-128311660D01*
X135611217Y-128359280D01*
X135658836Y-128406899D01*
X135706455Y-128502137D01*
X135706455Y-128597375D01*
X135658836Y-128740232D01*
X135087407Y-129311660D01*
X135706455Y-129311660D01*
X136325502Y-128311660D02*
X136420740Y-128311660D01*
X136515979Y-128359280D01*
X136563598Y-128406899D01*
X136611217Y-128502137D01*
X136658836Y-128692613D01*
X136658836Y-128930708D01*
X136611217Y-129121184D01*
X136563598Y-129216422D01*
X136515979Y-129264041D01*
X136420740Y-129311660D01*
X136325502Y-129311660D01*
X136230264Y-129264041D01*
X136182645Y-129216422D01*
X136135026Y-129121184D01*
X136087407Y-128930708D01*
X136087407Y-128692613D01*
X136135026Y-128502137D01*
X136182645Y-128406899D01*
X136230264Y-128359280D01*
X136325502Y-128311660D01*
X137515979Y-128311660D02*
X137325502Y-128311660D01*
X137230264Y-128359280D01*
X137182645Y-128406899D01*
X137087407Y-128549756D01*
X137039788Y-128740232D01*
X137039788Y-129121184D01*
X137087407Y-129216422D01*
X137135026Y-129264041D01*
X137230264Y-129311660D01*
X137420740Y-129311660D01*
X137515979Y-129264041D01*
X137563598Y-129216422D01*
X137611217Y-129121184D01*
X137611217Y-128883089D01*
X137563598Y-128787851D01*
X137515979Y-128740232D01*
X137420740Y-128692613D01*
X137230264Y-128692613D01*
X137135026Y-128740232D01*
X137087407Y-128787851D01*
X137039788Y-128883089D01*
X113650760Y-111788127D02*
X113174570Y-112121460D01*
X113650760Y-112359556D02*
X112650760Y-112359556D01*
X112650760Y-111978603D01*
X112698380Y-111883365D01*
X112745999Y-111835746D01*
X112841237Y-111788127D01*
X112984094Y-111788127D01*
X113079332Y-111835746D01*
X113126951Y-111883365D01*
X113174570Y-111978603D01*
X113174570Y-112359556D01*
X112745999Y-111407175D02*
X112698380Y-111359556D01*
X112650760Y-111264318D01*
X112650760Y-111026222D01*
X112698380Y-110930984D01*
X112745999Y-110883365D01*
X112841237Y-110835746D01*
X112936475Y-110835746D01*
X113079332Y-110883365D01*
X113650760Y-111454794D01*
X113650760Y-110835746D01*
X112650760Y-110216699D02*
X112650760Y-110121460D01*
X112698380Y-110026222D01*
X112745999Y-109978603D01*
X112841237Y-109930984D01*
X113031713Y-109883365D01*
X113269808Y-109883365D01*
X113460284Y-109930984D01*
X113555522Y-109978603D01*
X113603141Y-110026222D01*
X113650760Y-110121460D01*
X113650760Y-110216699D01*
X113603141Y-110311937D01*
X113555522Y-110359556D01*
X113460284Y-110407175D01*
X113269808Y-110454794D01*
X113031713Y-110454794D01*
X112841237Y-110407175D01*
X112745999Y-110359556D01*
X112698380Y-110311937D01*
X112650760Y-110216699D01*
X112650760Y-109550032D02*
X112650760Y-108883365D01*
X113650760Y-109311937D01*
X110130922Y-116490927D02*
X110178541Y-116538546D01*
X110226160Y-116681403D01*
X110226160Y-116776641D01*
X110178541Y-116919499D01*
X110083303Y-117014737D01*
X109988065Y-117062356D01*
X109797589Y-117109975D01*
X109654732Y-117109975D01*
X109464256Y-117062356D01*
X109369018Y-117014737D01*
X109273780Y-116919499D01*
X109226160Y-116776641D01*
X109226160Y-116681403D01*
X109273780Y-116538546D01*
X109321399Y-116490927D01*
X109321399Y-116109975D02*
X109273780Y-116062356D01*
X109226160Y-115967118D01*
X109226160Y-115729022D01*
X109273780Y-115633784D01*
X109321399Y-115586165D01*
X109416637Y-115538546D01*
X109511875Y-115538546D01*
X109654732Y-115586165D01*
X110226160Y-116157594D01*
X110226160Y-115538546D01*
X110226160Y-114586165D02*
X110226160Y-115157594D01*
X110226160Y-114871880D02*
X109226160Y-114871880D01*
X109369018Y-114967118D01*
X109464256Y-115062356D01*
X109511875Y-115157594D01*
X110226160Y-113633784D02*
X110226160Y-114205213D01*
X110226160Y-113919499D02*
X109226160Y-113919499D01*
X109369018Y-114014737D01*
X109464256Y-114109975D01*
X109511875Y-114205213D01*
X97094300Y-134452098D02*
X96094300Y-134452098D01*
X97094300Y-133880669D01*
X96094300Y-133880669D01*
X96094300Y-133547336D02*
X96094300Y-132975907D01*
X97094300Y-133261621D02*
X96094300Y-133261621D01*
X96189539Y-132690193D02*
X96141920Y-132642574D01*
X96094300Y-132547336D01*
X96094300Y-132309240D01*
X96141920Y-132214002D01*
X96189539Y-132166383D01*
X96284777Y-132118764D01*
X96380015Y-132118764D01*
X96522872Y-132166383D01*
X97094300Y-132737812D01*
X97094300Y-132118764D01*
X96094300Y-131499717D02*
X96094300Y-131404479D01*
X96141920Y-131309240D01*
X96189539Y-131261621D01*
X96284777Y-131214002D01*
X96475253Y-131166383D01*
X96713348Y-131166383D01*
X96903824Y-131214002D01*
X96999062Y-131261621D01*
X97046681Y-131309240D01*
X97094300Y-131404479D01*
X97094300Y-131499717D01*
X97046681Y-131594955D01*
X96999062Y-131642574D01*
X96903824Y-131690193D01*
X96713348Y-131737812D01*
X96475253Y-131737812D01*
X96284777Y-131690193D01*
X96189539Y-131642574D01*
X96141920Y-131594955D01*
X96094300Y-131499717D01*
X96427634Y-130309240D02*
X97094300Y-130309240D01*
X96046681Y-130547336D02*
X96760967Y-130785431D01*
X96760967Y-130166383D01*
X135072380Y-115736476D02*
X134072380Y-115736476D01*
X134072380Y-115498380D01*
X134120000Y-115355523D01*
X134215238Y-115260285D01*
X134310476Y-115212666D01*
X134500952Y-115165047D01*
X134643809Y-115165047D01*
X134834285Y-115212666D01*
X134929523Y-115260285D01*
X135024761Y-115355523D01*
X135072380Y-115498380D01*
X135072380Y-115736476D01*
X134167619Y-114784095D02*
X134120000Y-114736476D01*
X134072380Y-114641238D01*
X134072380Y-114403142D01*
X134120000Y-114307904D01*
X134167619Y-114260285D01*
X134262857Y-114212666D01*
X134358095Y-114212666D01*
X134500952Y-114260285D01*
X135072380Y-114831714D01*
X135072380Y-114212666D01*
X134072380Y-113593619D02*
X134072380Y-113498380D01*
X134120000Y-113403142D01*
X134167619Y-113355523D01*
X134262857Y-113307904D01*
X134453333Y-113260285D01*
X134691428Y-113260285D01*
X134881904Y-113307904D01*
X134977142Y-113355523D01*
X135024761Y-113403142D01*
X135072380Y-113498380D01*
X135072380Y-113593619D01*
X135024761Y-113688857D01*
X134977142Y-113736476D01*
X134881904Y-113784095D01*
X134691428Y-113831714D01*
X134453333Y-113831714D01*
X134262857Y-113784095D01*
X134167619Y-113736476D01*
X134120000Y-113688857D01*
X134072380Y-113593619D01*
X135072380Y-112307904D02*
X135072380Y-112879333D01*
X135072380Y-112593619D02*
X134072380Y-112593619D01*
X134215238Y-112688857D01*
X134310476Y-112784095D01*
X134358095Y-112879333D01*
X132905761Y-99321880D02*
X132905761Y-98321880D01*
X133477190Y-99321880D01*
X133477190Y-98321880D01*
X133810523Y-98321880D02*
X134381952Y-98321880D01*
X134096238Y-99321880D02*
X134096238Y-98321880D01*
X134667666Y-98417119D02*
X134715285Y-98369500D01*
X134810523Y-98321880D01*
X135048619Y-98321880D01*
X135143857Y-98369500D01*
X135191476Y-98417119D01*
X135239095Y-98512357D01*
X135239095Y-98607595D01*
X135191476Y-98750452D01*
X134620047Y-99321880D01*
X135239095Y-99321880D01*
X135858142Y-98321880D02*
X135953380Y-98321880D01*
X136048619Y-98369500D01*
X136096238Y-98417119D01*
X136143857Y-98512357D01*
X136191476Y-98702833D01*
X136191476Y-98940928D01*
X136143857Y-99131404D01*
X136096238Y-99226642D01*
X136048619Y-99274261D01*
X135953380Y-99321880D01*
X135858142Y-99321880D01*
X135762904Y-99274261D01*
X135715285Y-99226642D01*
X135667666Y-99131404D01*
X135620047Y-98940928D01*
X135620047Y-98702833D01*
X135667666Y-98512357D01*
X135715285Y-98417119D01*
X135762904Y-98369500D01*
X135858142Y-98321880D01*
X137143857Y-99321880D02*
X136572428Y-99321880D01*
X136858142Y-99321880D02*
X136858142Y-98321880D01*
X136762904Y-98464738D01*
X136667666Y-98559976D01*
X136572428Y-98607595D01*
X133445100Y-119827887D02*
X132968910Y-120161220D01*
X133445100Y-120399316D02*
X132445100Y-120399316D01*
X132445100Y-120018363D01*
X132492720Y-119923125D01*
X132540339Y-119875506D01*
X132635577Y-119827887D01*
X132778434Y-119827887D01*
X132873672Y-119875506D01*
X132921291Y-119923125D01*
X132968910Y-120018363D01*
X132968910Y-120399316D01*
X132540339Y-119446935D02*
X132492720Y-119399316D01*
X132445100Y-119304078D01*
X132445100Y-119065982D01*
X132492720Y-118970744D01*
X132540339Y-118923125D01*
X132635577Y-118875506D01*
X132730815Y-118875506D01*
X132873672Y-118923125D01*
X133445100Y-119494554D01*
X133445100Y-118875506D01*
X132445100Y-118256459D02*
X132445100Y-118161220D01*
X132492720Y-118065982D01*
X132540339Y-118018363D01*
X132635577Y-117970744D01*
X132826053Y-117923125D01*
X133064148Y-117923125D01*
X133254624Y-117970744D01*
X133349862Y-118018363D01*
X133397481Y-118065982D01*
X133445100Y-118161220D01*
X133445100Y-118256459D01*
X133397481Y-118351697D01*
X133349862Y-118399316D01*
X133254624Y-118446935D01*
X133064148Y-118494554D01*
X132826053Y-118494554D01*
X132635577Y-118446935D01*
X132540339Y-118399316D01*
X132492720Y-118351697D01*
X132445100Y-118256459D01*
X132445100Y-117018363D02*
X132445100Y-117494554D01*
X132921291Y-117542173D01*
X132873672Y-117494554D01*
X132826053Y-117399316D01*
X132826053Y-117161220D01*
X132873672Y-117065982D01*
X132921291Y-117018363D01*
X133016529Y-116970744D01*
X133254624Y-116970744D01*
X133349862Y-117018363D01*
X133397481Y-117065982D01*
X133445100Y-117161220D01*
X133445100Y-117399316D01*
X133397481Y-117494554D01*
X133349862Y-117542173D01*
X116736952Y-104084380D02*
X116260761Y-104084380D01*
X116260761Y-103084380D01*
X117022666Y-103179619D02*
X117070285Y-103132000D01*
X117165523Y-103084380D01*
X117403619Y-103084380D01*
X117498857Y-103132000D01*
X117546476Y-103179619D01*
X117594095Y-103274857D01*
X117594095Y-103370095D01*
X117546476Y-103512952D01*
X116975047Y-104084380D01*
X117594095Y-104084380D01*
X118213142Y-103084380D02*
X118308380Y-103084380D01*
X118403619Y-103132000D01*
X118451238Y-103179619D01*
X118498857Y-103274857D01*
X118546476Y-103465333D01*
X118546476Y-103703428D01*
X118498857Y-103893904D01*
X118451238Y-103989142D01*
X118403619Y-104036761D01*
X118308380Y-104084380D01*
X118213142Y-104084380D01*
X118117904Y-104036761D01*
X118070285Y-103989142D01*
X118022666Y-103893904D01*
X117975047Y-103703428D01*
X117975047Y-103465333D01*
X118022666Y-103274857D01*
X118070285Y-103179619D01*
X118117904Y-103132000D01*
X118213142Y-103084380D01*
X119498857Y-104084380D02*
X118927428Y-104084380D01*
X119213142Y-104084380D02*
X119213142Y-103084380D01*
X119117904Y-103227238D01*
X119022666Y-103322476D01*
X118927428Y-103370095D01*
X124913542Y-117882847D02*
X124961161Y-117930466D01*
X125008780Y-118073323D01*
X125008780Y-118168561D01*
X124961161Y-118311419D01*
X124865923Y-118406657D01*
X124770685Y-118454276D01*
X124580209Y-118501895D01*
X124437352Y-118501895D01*
X124246876Y-118454276D01*
X124151638Y-118406657D01*
X124056400Y-118311419D01*
X124008780Y-118168561D01*
X124008780Y-118073323D01*
X124056400Y-117930466D01*
X124104019Y-117882847D01*
X124104019Y-117501895D02*
X124056400Y-117454276D01*
X124008780Y-117359038D01*
X124008780Y-117120942D01*
X124056400Y-117025704D01*
X124104019Y-116978085D01*
X124199257Y-116930466D01*
X124294495Y-116930466D01*
X124437352Y-116978085D01*
X125008780Y-117549514D01*
X125008780Y-116930466D01*
X125008780Y-115978085D02*
X125008780Y-116549514D01*
X125008780Y-116263800D02*
X124008780Y-116263800D01*
X124151638Y-116359038D01*
X124246876Y-116454276D01*
X124294495Y-116549514D01*
X124008780Y-115644752D02*
X124008780Y-115025704D01*
X124389733Y-115359038D01*
X124389733Y-115216180D01*
X124437352Y-115120942D01*
X124484971Y-115073323D01*
X124580209Y-115025704D01*
X124818304Y-115025704D01*
X124913542Y-115073323D01*
X124961161Y-115120942D01*
X125008780Y-115216180D01*
X125008780Y-115501895D01*
X124961161Y-115597133D01*
X124913542Y-115644752D01*
X116736952Y-100687142D02*
X116689333Y-100734761D01*
X116546476Y-100782380D01*
X116451238Y-100782380D01*
X116308380Y-100734761D01*
X116213142Y-100639523D01*
X116165523Y-100544285D01*
X116117904Y-100353809D01*
X116117904Y-100210952D01*
X116165523Y-100020476D01*
X116213142Y-99925238D01*
X116308380Y-99830000D01*
X116451238Y-99782380D01*
X116546476Y-99782380D01*
X116689333Y-99830000D01*
X116736952Y-99877619D01*
X117117904Y-99877619D02*
X117165523Y-99830000D01*
X117260761Y-99782380D01*
X117498857Y-99782380D01*
X117594095Y-99830000D01*
X117641714Y-99877619D01*
X117689333Y-99972857D01*
X117689333Y-100068095D01*
X117641714Y-100210952D01*
X117070285Y-100782380D01*
X117689333Y-100782380D01*
X118308380Y-99782380D02*
X118403619Y-99782380D01*
X118498857Y-99830000D01*
X118546476Y-99877619D01*
X118594095Y-99972857D01*
X118641714Y-100163333D01*
X118641714Y-100401428D01*
X118594095Y-100591904D01*
X118546476Y-100687142D01*
X118498857Y-100734761D01*
X118403619Y-100782380D01*
X118308380Y-100782380D01*
X118213142Y-100734761D01*
X118165523Y-100687142D01*
X118117904Y-100591904D01*
X118070285Y-100401428D01*
X118070285Y-100163333D01*
X118117904Y-99972857D01*
X118165523Y-99877619D01*
X118213142Y-99830000D01*
X118308380Y-99782380D01*
X119594095Y-100782380D02*
X119022666Y-100782380D01*
X119308380Y-100782380D02*
X119308380Y-99782380D01*
X119213142Y-99925238D01*
X119117904Y-100020476D01*
X119022666Y-100068095D01*
X112907142Y-83689047D02*
X112954761Y-83736666D01*
X113002380Y-83879523D01*
X113002380Y-83974761D01*
X112954761Y-84117619D01*
X112859523Y-84212857D01*
X112764285Y-84260476D01*
X112573809Y-84308095D01*
X112430952Y-84308095D01*
X112240476Y-84260476D01*
X112145238Y-84212857D01*
X112050000Y-84117619D01*
X112002380Y-83974761D01*
X112002380Y-83879523D01*
X112050000Y-83736666D01*
X112097619Y-83689047D01*
X112335714Y-82831904D02*
X113002380Y-82831904D01*
X111954761Y-83070000D02*
X112669047Y-83308095D01*
X112669047Y-82689047D01*
X112002380Y-82117619D02*
X112002380Y-82022380D01*
X112050000Y-81927142D01*
X112097619Y-81879523D01*
X112192857Y-81831904D01*
X112383333Y-81784285D01*
X112621428Y-81784285D01*
X112811904Y-81831904D01*
X112907142Y-81879523D01*
X112954761Y-81927142D01*
X113002380Y-82022380D01*
X113002380Y-82117619D01*
X112954761Y-82212857D01*
X112907142Y-82260476D01*
X112811904Y-82308095D01*
X112621428Y-82355714D01*
X112383333Y-82355714D01*
X112192857Y-82308095D01*
X112097619Y-82260476D01*
X112050000Y-82212857D01*
X112002380Y-82117619D01*
X112430952Y-81212857D02*
X112383333Y-81308095D01*
X112335714Y-81355714D01*
X112240476Y-81403333D01*
X112192857Y-81403333D01*
X112097619Y-81355714D01*
X112050000Y-81308095D01*
X112002380Y-81212857D01*
X112002380Y-81022380D01*
X112050000Y-80927142D01*
X112097619Y-80879523D01*
X112192857Y-80831904D01*
X112240476Y-80831904D01*
X112335714Y-80879523D01*
X112383333Y-80927142D01*
X112430952Y-81022380D01*
X112430952Y-81212857D01*
X112478571Y-81308095D01*
X112526190Y-81355714D01*
X112621428Y-81403333D01*
X112811904Y-81403333D01*
X112907142Y-81355714D01*
X112954761Y-81308095D01*
X113002380Y-81212857D01*
X113002380Y-81022380D01*
X112954761Y-80927142D01*
X112907142Y-80879523D01*
X112811904Y-80831904D01*
X112621428Y-80831904D01*
X112526190Y-80879523D01*
X112478571Y-80927142D01*
X112430952Y-81022380D01*
D17*
X104057619Y-94849904D02*
X104057619Y-94049904D01*
X104248095Y-94049904D01*
X104362380Y-94088000D01*
X104438571Y-94164190D01*
X104476666Y-94240380D01*
X104514761Y-94392761D01*
X104514761Y-94507047D01*
X104476666Y-94659428D01*
X104438571Y-94735619D01*
X104362380Y-94811809D01*
X104248095Y-94849904D01*
X104057619Y-94849904D01*
X105200476Y-94316571D02*
X105200476Y-94849904D01*
X105010000Y-94011809D02*
X104819523Y-94583238D01*
X105314761Y-94583238D01*
X105771904Y-94049904D02*
X105848095Y-94049904D01*
X105924285Y-94088000D01*
X105962380Y-94126095D01*
X106000476Y-94202285D01*
X106038571Y-94354666D01*
X106038571Y-94545142D01*
X106000476Y-94697523D01*
X105962380Y-94773714D01*
X105924285Y-94811809D01*
X105848095Y-94849904D01*
X105771904Y-94849904D01*
X105695714Y-94811809D01*
X105657619Y-94773714D01*
X105619523Y-94697523D01*
X105581428Y-94545142D01*
X105581428Y-94354666D01*
X105619523Y-94202285D01*
X105657619Y-94126095D01*
X105695714Y-94088000D01*
X105771904Y-94049904D01*
X106800476Y-94849904D02*
X106343333Y-94849904D01*
X106571904Y-94849904D02*
X106571904Y-94049904D01*
X106495714Y-94164190D01*
X106419523Y-94240380D01*
X106343333Y-94278476D01*
X115002209Y-96580923D02*
X114697447Y-96580923D01*
X114697447Y-95940923D01*
X115489828Y-96154257D02*
X115489828Y-96580923D01*
X115337447Y-95910447D02*
X115185066Y-96367590D01*
X115581257Y-96367590D01*
X115946971Y-95940923D02*
X116007923Y-95940923D01*
X116068876Y-95971400D01*
X116099352Y-96001876D01*
X116129828Y-96062828D01*
X116160304Y-96184733D01*
X116160304Y-96337114D01*
X116129828Y-96459019D01*
X116099352Y-96519971D01*
X116068876Y-96550447D01*
X116007923Y-96580923D01*
X115946971Y-96580923D01*
X115886019Y-96550447D01*
X115855542Y-96519971D01*
X115825066Y-96459019D01*
X115794590Y-96337114D01*
X115794590Y-96184733D01*
X115825066Y-96062828D01*
X115855542Y-96001876D01*
X115886019Y-95971400D01*
X115946971Y-95940923D01*
X116769828Y-96580923D02*
X116404114Y-96580923D01*
X116586971Y-96580923D02*
X116586971Y-95940923D01*
X116526019Y-96032352D01*
X116465066Y-96093304D01*
X116404114Y-96123780D01*
X127057328Y-120410138D02*
X127057328Y-121738372D01*
X127135460Y-121894635D01*
X127213591Y-121972767D01*
X127369854Y-122050898D01*
X127682380Y-122050898D01*
X127838642Y-121972767D01*
X127916774Y-121894635D01*
X127994905Y-121738372D01*
X127994905Y-120410138D01*
X128698088Y-120566401D02*
X128776220Y-120488270D01*
X128932482Y-120410138D01*
X129323140Y-120410138D01*
X129479402Y-120488270D01*
X129557534Y-120566401D01*
X129635665Y-120722664D01*
X129635665Y-120878927D01*
X129557534Y-121113321D01*
X128619957Y-122050898D01*
X129635665Y-122050898D01*
X130651374Y-120410138D02*
X130807637Y-120410138D01*
X130963900Y-120488270D01*
X131042031Y-120566401D01*
X131120162Y-120722664D01*
X131198294Y-121035190D01*
X131198294Y-121425847D01*
X131120162Y-121738372D01*
X131042031Y-121894635D01*
X130963900Y-121972767D01*
X130807637Y-122050898D01*
X130651374Y-122050898D01*
X130495111Y-121972767D01*
X130416980Y-121894635D01*
X130338848Y-121738372D01*
X130260717Y-121425847D01*
X130260717Y-121035190D01*
X130338848Y-120722664D01*
X130416980Y-120566401D01*
X130495111Y-120488270D01*
X130651374Y-120410138D01*
X132760922Y-122050898D02*
X131823345Y-122050898D01*
X132292134Y-122050898D02*
X132292134Y-120410138D01*
X132135871Y-120644532D01*
X131979608Y-120800795D01*
X131823345Y-120878927D01*
D10*
X97860952Y-87242380D02*
X97527619Y-86766190D01*
X97289523Y-87242380D02*
X97289523Y-86242380D01*
X97670476Y-86242380D01*
X97765714Y-86290000D01*
X97813333Y-86337619D01*
X97860952Y-86432857D01*
X97860952Y-86575714D01*
X97813333Y-86670952D01*
X97765714Y-86718571D01*
X97670476Y-86766190D01*
X97289523Y-86766190D01*
X98718095Y-86575714D02*
X98718095Y-87242380D01*
X98480000Y-86194761D02*
X98241904Y-86909047D01*
X98860952Y-86909047D01*
X99432380Y-86242380D02*
X99527619Y-86242380D01*
X99622857Y-86290000D01*
X99670476Y-86337619D01*
X99718095Y-86432857D01*
X99765714Y-86623333D01*
X99765714Y-86861428D01*
X99718095Y-87051904D01*
X99670476Y-87147142D01*
X99622857Y-87194761D01*
X99527619Y-87242380D01*
X99432380Y-87242380D01*
X99337142Y-87194761D01*
X99289523Y-87147142D01*
X99241904Y-87051904D01*
X99194285Y-86861428D01*
X99194285Y-86623333D01*
X99241904Y-86432857D01*
X99289523Y-86337619D01*
X99337142Y-86290000D01*
X99432380Y-86242380D01*
X100622857Y-86575714D02*
X100622857Y-87242380D01*
X100384761Y-86194761D02*
X100146666Y-86909047D01*
X100765714Y-86909047D01*
X97863180Y-89511047D02*
X97386990Y-89844380D01*
X97863180Y-90082476D02*
X96863180Y-90082476D01*
X96863180Y-89701523D01*
X96910800Y-89606285D01*
X96958419Y-89558666D01*
X97053657Y-89511047D01*
X97196514Y-89511047D01*
X97291752Y-89558666D01*
X97339371Y-89606285D01*
X97386990Y-89701523D01*
X97386990Y-90082476D01*
X97196514Y-88653904D02*
X97863180Y-88653904D01*
X96815561Y-88892000D02*
X97529847Y-89130095D01*
X97529847Y-88511047D01*
X96863180Y-87939619D02*
X96863180Y-87844380D01*
X96910800Y-87749142D01*
X96958419Y-87701523D01*
X97053657Y-87653904D01*
X97244133Y-87606285D01*
X97482228Y-87606285D01*
X97672704Y-87653904D01*
X97767942Y-87701523D01*
X97815561Y-87749142D01*
X97863180Y-87844380D01*
X97863180Y-87939619D01*
X97815561Y-88034857D01*
X97767942Y-88082476D01*
X97672704Y-88130095D01*
X97482228Y-88177714D01*
X97244133Y-88177714D01*
X97053657Y-88130095D01*
X96958419Y-88082476D01*
X96910800Y-88034857D01*
X96863180Y-87939619D01*
X96863180Y-87272952D02*
X96863180Y-86653904D01*
X97244133Y-86987238D01*
X97244133Y-86844380D01*
X97291752Y-86749142D01*
X97339371Y-86701523D01*
X97434609Y-86653904D01*
X97672704Y-86653904D01*
X97767942Y-86701523D01*
X97815561Y-86749142D01*
X97863180Y-86844380D01*
X97863180Y-87130095D01*
X97815561Y-87225333D01*
X97767942Y-87272952D01*
X100146952Y-78000380D02*
X99813619Y-77524190D01*
X99575523Y-78000380D02*
X99575523Y-77000380D01*
X99956476Y-77000380D01*
X100051714Y-77048000D01*
X100099333Y-77095619D01*
X100146952Y-77190857D01*
X100146952Y-77333714D01*
X100099333Y-77428952D01*
X100051714Y-77476571D01*
X99956476Y-77524190D01*
X99575523Y-77524190D01*
X101004095Y-77333714D02*
X101004095Y-78000380D01*
X100766000Y-76952761D02*
X100527904Y-77667047D01*
X101146952Y-77667047D01*
X101718380Y-77000380D02*
X101813619Y-77000380D01*
X101908857Y-77048000D01*
X101956476Y-77095619D01*
X102004095Y-77190857D01*
X102051714Y-77381333D01*
X102051714Y-77619428D01*
X102004095Y-77809904D01*
X101956476Y-77905142D01*
X101908857Y-77952761D01*
X101813619Y-78000380D01*
X101718380Y-78000380D01*
X101623142Y-77952761D01*
X101575523Y-77905142D01*
X101527904Y-77809904D01*
X101480285Y-77619428D01*
X101480285Y-77381333D01*
X101527904Y-77190857D01*
X101575523Y-77095619D01*
X101623142Y-77048000D01*
X101718380Y-77000380D01*
X102432666Y-77095619D02*
X102480285Y-77048000D01*
X102575523Y-77000380D01*
X102813619Y-77000380D01*
X102908857Y-77048000D01*
X102956476Y-77095619D01*
X103004095Y-77190857D01*
X103004095Y-77286095D01*
X102956476Y-77428952D01*
X102385047Y-78000380D01*
X103004095Y-78000380D01*
X94702452Y-82875380D02*
X94369119Y-82399190D01*
X94131023Y-82875380D02*
X94131023Y-81875380D01*
X94511976Y-81875380D01*
X94607214Y-81923000D01*
X94654833Y-81970619D01*
X94702452Y-82065857D01*
X94702452Y-82208714D01*
X94654833Y-82303952D01*
X94607214Y-82351571D01*
X94511976Y-82399190D01*
X94131023Y-82399190D01*
X95559595Y-82208714D02*
X95559595Y-82875380D01*
X95321500Y-81827761D02*
X95083404Y-82542047D01*
X95702452Y-82542047D01*
X96273880Y-81875380D02*
X96369119Y-81875380D01*
X96464357Y-81923000D01*
X96511976Y-81970619D01*
X96559595Y-82065857D01*
X96607214Y-82256333D01*
X96607214Y-82494428D01*
X96559595Y-82684904D01*
X96511976Y-82780142D01*
X96464357Y-82827761D01*
X96369119Y-82875380D01*
X96273880Y-82875380D01*
X96178642Y-82827761D01*
X96131023Y-82780142D01*
X96083404Y-82684904D01*
X96035785Y-82494428D01*
X96035785Y-82256333D01*
X96083404Y-82065857D01*
X96131023Y-81970619D01*
X96178642Y-81923000D01*
X96273880Y-81875380D01*
X97559595Y-82875380D02*
X96988166Y-82875380D01*
X97273880Y-82875380D02*
X97273880Y-81875380D01*
X97178642Y-82018238D01*
X97083404Y-82113476D01*
X96988166Y-82161095D01*
X90527142Y-90019047D02*
X90574761Y-90066666D01*
X90622380Y-90209523D01*
X90622380Y-90304761D01*
X90574761Y-90447619D01*
X90479523Y-90542857D01*
X90384285Y-90590476D01*
X90193809Y-90638095D01*
X90050952Y-90638095D01*
X89860476Y-90590476D01*
X89765238Y-90542857D01*
X89670000Y-90447619D01*
X89622380Y-90304761D01*
X89622380Y-90209523D01*
X89670000Y-90066666D01*
X89717619Y-90019047D01*
X89955714Y-89161904D02*
X90622380Y-89161904D01*
X89574761Y-89400000D02*
X90289047Y-89638095D01*
X90289047Y-89019047D01*
X89622380Y-88447619D02*
X89622380Y-88352380D01*
X89670000Y-88257142D01*
X89717619Y-88209523D01*
X89812857Y-88161904D01*
X90003333Y-88114285D01*
X90241428Y-88114285D01*
X90431904Y-88161904D01*
X90527142Y-88209523D01*
X90574761Y-88257142D01*
X90622380Y-88352380D01*
X90622380Y-88447619D01*
X90574761Y-88542857D01*
X90527142Y-88590476D01*
X90431904Y-88638095D01*
X90241428Y-88685714D01*
X90003333Y-88685714D01*
X89812857Y-88638095D01*
X89717619Y-88590476D01*
X89670000Y-88542857D01*
X89622380Y-88447619D01*
X89622380Y-87257142D02*
X89622380Y-87447619D01*
X89670000Y-87542857D01*
X89717619Y-87590476D01*
X89860476Y-87685714D01*
X90050952Y-87733333D01*
X90431904Y-87733333D01*
X90527142Y-87685714D01*
X90574761Y-87638095D01*
X90622380Y-87542857D01*
X90622380Y-87352380D01*
X90574761Y-87257142D01*
X90527142Y-87209523D01*
X90431904Y-87161904D01*
X90193809Y-87161904D01*
X90098571Y-87209523D01*
X90050952Y-87257142D01*
X90003333Y-87352380D01*
X90003333Y-87542857D01*
X90050952Y-87638095D01*
X90098571Y-87685714D01*
X90193809Y-87733333D01*
X96401428Y-92660952D02*
X96401428Y-91899047D01*
X96782380Y-92280000D02*
X96020476Y-92280000D01*
X95400952Y-77954142D02*
X95353333Y-78001761D01*
X95210476Y-78049380D01*
X95115238Y-78049380D01*
X94972380Y-78001761D01*
X94877142Y-77906523D01*
X94829523Y-77811285D01*
X94781904Y-77620809D01*
X94781904Y-77477952D01*
X94829523Y-77287476D01*
X94877142Y-77192238D01*
X94972380Y-77097000D01*
X95115238Y-77049380D01*
X95210476Y-77049380D01*
X95353333Y-77097000D01*
X95400952Y-77144619D01*
X96258095Y-77382714D02*
X96258095Y-78049380D01*
X96020000Y-77001761D02*
X95781904Y-77716047D01*
X96400952Y-77716047D01*
X96972380Y-77049380D02*
X97067619Y-77049380D01*
X97162857Y-77097000D01*
X97210476Y-77144619D01*
X97258095Y-77239857D01*
X97305714Y-77430333D01*
X97305714Y-77668428D01*
X97258095Y-77858904D01*
X97210476Y-77954142D01*
X97162857Y-78001761D01*
X97067619Y-78049380D01*
X96972380Y-78049380D01*
X96877142Y-78001761D01*
X96829523Y-77954142D01*
X96781904Y-77858904D01*
X96734285Y-77668428D01*
X96734285Y-77430333D01*
X96781904Y-77239857D01*
X96829523Y-77144619D01*
X96877142Y-77097000D01*
X96972380Y-77049380D01*
X98210476Y-77049380D02*
X97734285Y-77049380D01*
X97686666Y-77525571D01*
X97734285Y-77477952D01*
X97829523Y-77430333D01*
X98067619Y-77430333D01*
X98162857Y-77477952D01*
X98210476Y-77525571D01*
X98258095Y-77620809D01*
X98258095Y-77858904D01*
X98210476Y-77954142D01*
X98162857Y-78001761D01*
X98067619Y-78049380D01*
X97829523Y-78049380D01*
X97734285Y-78001761D01*
X97686666Y-77954142D01*
X104925952Y-77855142D02*
X104878333Y-77902761D01*
X104735476Y-77950380D01*
X104640238Y-77950380D01*
X104497380Y-77902761D01*
X104402142Y-77807523D01*
X104354523Y-77712285D01*
X104306904Y-77521809D01*
X104306904Y-77378952D01*
X104354523Y-77188476D01*
X104402142Y-77093238D01*
X104497380Y-76998000D01*
X104640238Y-76950380D01*
X104735476Y-76950380D01*
X104878333Y-76998000D01*
X104925952Y-77045619D01*
X105783095Y-77283714D02*
X105783095Y-77950380D01*
X105545000Y-76902761D02*
X105306904Y-77617047D01*
X105925952Y-77617047D01*
X106497380Y-76950380D02*
X106592619Y-76950380D01*
X106687857Y-76998000D01*
X106735476Y-77045619D01*
X106783095Y-77140857D01*
X106830714Y-77331333D01*
X106830714Y-77569428D01*
X106783095Y-77759904D01*
X106735476Y-77855142D01*
X106687857Y-77902761D01*
X106592619Y-77950380D01*
X106497380Y-77950380D01*
X106402142Y-77902761D01*
X106354523Y-77855142D01*
X106306904Y-77759904D01*
X106259285Y-77569428D01*
X106259285Y-77331333D01*
X106306904Y-77140857D01*
X106354523Y-77045619D01*
X106402142Y-76998000D01*
X106497380Y-76950380D01*
X107687857Y-77283714D02*
X107687857Y-77950380D01*
X107449761Y-76902761D02*
X107211666Y-77617047D01*
X107830714Y-77617047D01*
X109878952Y-77954142D02*
X109831333Y-78001761D01*
X109688476Y-78049380D01*
X109593238Y-78049380D01*
X109450380Y-78001761D01*
X109355142Y-77906523D01*
X109307523Y-77811285D01*
X109259904Y-77620809D01*
X109259904Y-77477952D01*
X109307523Y-77287476D01*
X109355142Y-77192238D01*
X109450380Y-77097000D01*
X109593238Y-77049380D01*
X109688476Y-77049380D01*
X109831333Y-77097000D01*
X109878952Y-77144619D01*
X110736095Y-77382714D02*
X110736095Y-78049380D01*
X110498000Y-77001761D02*
X110259904Y-77716047D01*
X110878952Y-77716047D01*
X111450380Y-77049380D02*
X111545619Y-77049380D01*
X111640857Y-77097000D01*
X111688476Y-77144619D01*
X111736095Y-77239857D01*
X111783714Y-77430333D01*
X111783714Y-77668428D01*
X111736095Y-77858904D01*
X111688476Y-77954142D01*
X111640857Y-78001761D01*
X111545619Y-78049380D01*
X111450380Y-78049380D01*
X111355142Y-78001761D01*
X111307523Y-77954142D01*
X111259904Y-77858904D01*
X111212285Y-77668428D01*
X111212285Y-77430333D01*
X111259904Y-77239857D01*
X111307523Y-77144619D01*
X111355142Y-77097000D01*
X111450380Y-77049380D01*
X112117047Y-77049380D02*
X112736095Y-77049380D01*
X112402761Y-77430333D01*
X112545619Y-77430333D01*
X112640857Y-77477952D01*
X112688476Y-77525571D01*
X112736095Y-77620809D01*
X112736095Y-77858904D01*
X112688476Y-77954142D01*
X112640857Y-78001761D01*
X112545619Y-78049380D01*
X112259904Y-78049380D01*
X112164666Y-78001761D01*
X112117047Y-77954142D01*
X116526642Y-87974347D02*
X116574261Y-88021966D01*
X116621880Y-88164823D01*
X116621880Y-88260061D01*
X116574261Y-88402919D01*
X116479023Y-88498157D01*
X116383785Y-88545776D01*
X116193309Y-88593395D01*
X116050452Y-88593395D01*
X115859976Y-88545776D01*
X115764738Y-88498157D01*
X115669500Y-88402919D01*
X115621880Y-88260061D01*
X115621880Y-88164823D01*
X115669500Y-88021966D01*
X115717119Y-87974347D01*
X115955214Y-87117204D02*
X116621880Y-87117204D01*
X115574261Y-87355300D02*
X116288547Y-87593395D01*
X116288547Y-86974347D01*
X115621880Y-86402919D02*
X115621880Y-86307680D01*
X115669500Y-86212442D01*
X115717119Y-86164823D01*
X115812357Y-86117204D01*
X116002833Y-86069585D01*
X116240928Y-86069585D01*
X116431404Y-86117204D01*
X116526642Y-86164823D01*
X116574261Y-86212442D01*
X116621880Y-86307680D01*
X116621880Y-86402919D01*
X116574261Y-86498157D01*
X116526642Y-86545776D01*
X116431404Y-86593395D01*
X116240928Y-86641014D01*
X116002833Y-86641014D01*
X115812357Y-86593395D01*
X115717119Y-86545776D01*
X115669500Y-86498157D01*
X115621880Y-86402919D01*
X116621880Y-85117204D02*
X116621880Y-85688633D01*
X116621880Y-85402919D02*
X115621880Y-85402919D01*
X115764738Y-85498157D01*
X115859976Y-85593395D01*
X115907595Y-85688633D01*
X211417114Y-126020980D02*
X211417114Y-125020980D01*
X211417114Y-125497171D02*
X211988542Y-125497171D01*
X211988542Y-126020980D02*
X211988542Y-125020980D01*
X212988542Y-126020980D02*
X212417114Y-126020980D01*
X212702828Y-126020980D02*
X212702828Y-125020980D01*
X212607590Y-125163838D01*
X212512352Y-125259076D01*
X212417114Y-125306695D01*
X213607590Y-125020980D02*
X213702828Y-125020980D01*
X213798066Y-125068600D01*
X213845685Y-125116219D01*
X213893304Y-125211457D01*
X213940923Y-125401933D01*
X213940923Y-125640028D01*
X213893304Y-125830504D01*
X213845685Y-125925742D01*
X213798066Y-125973361D01*
X213702828Y-126020980D01*
X213607590Y-126020980D01*
X213512352Y-125973361D01*
X213464733Y-125925742D01*
X213417114Y-125830504D01*
X213369495Y-125640028D01*
X213369495Y-125401933D01*
X213417114Y-125211457D01*
X213464733Y-125116219D01*
X213512352Y-125068600D01*
X213607590Y-125020980D01*
X214798066Y-125020980D02*
X214607590Y-125020980D01*
X214512352Y-125068600D01*
X214464733Y-125116219D01*
X214369495Y-125259076D01*
X214321876Y-125449552D01*
X214321876Y-125830504D01*
X214369495Y-125925742D01*
X214417114Y-125973361D01*
X214512352Y-126020980D01*
X214702828Y-126020980D01*
X214798066Y-125973361D01*
X214845685Y-125925742D01*
X214893304Y-125830504D01*
X214893304Y-125592409D01*
X214845685Y-125497171D01*
X214798066Y-125449552D01*
X214702828Y-125401933D01*
X214512352Y-125401933D01*
X214417114Y-125449552D01*
X214369495Y-125497171D01*
X214321876Y-125592409D01*
X160617114Y-49820980D02*
X160617114Y-48820980D01*
X160617114Y-49297171D02*
X161188542Y-49297171D01*
X161188542Y-49820980D02*
X161188542Y-48820980D01*
X162188542Y-49820980D02*
X161617114Y-49820980D01*
X161902828Y-49820980D02*
X161902828Y-48820980D01*
X161807590Y-48963838D01*
X161712352Y-49059076D01*
X161617114Y-49106695D01*
X162807590Y-48820980D02*
X162902828Y-48820980D01*
X162998066Y-48868600D01*
X163045685Y-48916219D01*
X163093304Y-49011457D01*
X163140923Y-49201933D01*
X163140923Y-49440028D01*
X163093304Y-49630504D01*
X163045685Y-49725742D01*
X162998066Y-49773361D01*
X162902828Y-49820980D01*
X162807590Y-49820980D01*
X162712352Y-49773361D01*
X162664733Y-49725742D01*
X162617114Y-49630504D01*
X162569495Y-49440028D01*
X162569495Y-49201933D01*
X162617114Y-49011457D01*
X162664733Y-48916219D01*
X162712352Y-48868600D01*
X162807590Y-48820980D01*
X163998066Y-49154314D02*
X163998066Y-49820980D01*
X163759971Y-48773361D02*
X163521876Y-49487647D01*
X164140923Y-49487647D01*
X59017114Y-49820980D02*
X59017114Y-48820980D01*
X59017114Y-49297171D02*
X59588542Y-49297171D01*
X59588542Y-49820980D02*
X59588542Y-48820980D01*
X60588542Y-49820980D02*
X60017114Y-49820980D01*
X60302828Y-49820980D02*
X60302828Y-48820980D01*
X60207590Y-48963838D01*
X60112352Y-49059076D01*
X60017114Y-49106695D01*
X61207590Y-48820980D02*
X61302828Y-48820980D01*
X61398066Y-48868600D01*
X61445685Y-48916219D01*
X61493304Y-49011457D01*
X61540923Y-49201933D01*
X61540923Y-49440028D01*
X61493304Y-49630504D01*
X61445685Y-49725742D01*
X61398066Y-49773361D01*
X61302828Y-49820980D01*
X61207590Y-49820980D01*
X61112352Y-49773361D01*
X61064733Y-49725742D01*
X61017114Y-49630504D01*
X60969495Y-49440028D01*
X60969495Y-49201933D01*
X61017114Y-49011457D01*
X61064733Y-48916219D01*
X61112352Y-48868600D01*
X61207590Y-48820980D01*
X61921876Y-48916219D02*
X61969495Y-48868600D01*
X62064733Y-48820980D01*
X62302828Y-48820980D01*
X62398066Y-48868600D01*
X62445685Y-48916219D01*
X62493304Y-49011457D01*
X62493304Y-49106695D01*
X62445685Y-49249552D01*
X61874257Y-49820980D01*
X62493304Y-49820980D01*
X59017114Y-126020980D02*
X59017114Y-125020980D01*
X59017114Y-125497171D02*
X59588542Y-125497171D01*
X59588542Y-126020980D02*
X59588542Y-125020980D01*
X60588542Y-126020980D02*
X60017114Y-126020980D01*
X60302828Y-126020980D02*
X60302828Y-125020980D01*
X60207590Y-125163838D01*
X60112352Y-125259076D01*
X60017114Y-125306695D01*
X61207590Y-125020980D02*
X61302828Y-125020980D01*
X61398066Y-125068600D01*
X61445685Y-125116219D01*
X61493304Y-125211457D01*
X61540923Y-125401933D01*
X61540923Y-125640028D01*
X61493304Y-125830504D01*
X61445685Y-125925742D01*
X61398066Y-125973361D01*
X61302828Y-126020980D01*
X61207590Y-126020980D01*
X61112352Y-125973361D01*
X61064733Y-125925742D01*
X61017114Y-125830504D01*
X60969495Y-125640028D01*
X60969495Y-125401933D01*
X61017114Y-125211457D01*
X61064733Y-125116219D01*
X61112352Y-125068600D01*
X61207590Y-125020980D01*
X62493304Y-126020980D02*
X61921876Y-126020980D01*
X62207590Y-126020980D02*
X62207590Y-125020980D01*
X62112352Y-125163838D01*
X62017114Y-125259076D01*
X61921876Y-125306695D01*
X116749560Y-119157927D02*
X116273370Y-119491260D01*
X116749560Y-119729356D02*
X115749560Y-119729356D01*
X115749560Y-119348403D01*
X115797180Y-119253165D01*
X115844799Y-119205546D01*
X115940037Y-119157927D01*
X116082894Y-119157927D01*
X116178132Y-119205546D01*
X116225751Y-119253165D01*
X116273370Y-119348403D01*
X116273370Y-119729356D01*
X115844799Y-118776975D02*
X115797180Y-118729356D01*
X115749560Y-118634118D01*
X115749560Y-118396022D01*
X115797180Y-118300784D01*
X115844799Y-118253165D01*
X115940037Y-118205546D01*
X116035275Y-118205546D01*
X116178132Y-118253165D01*
X116749560Y-118824594D01*
X116749560Y-118205546D01*
X115749560Y-117586499D02*
X115749560Y-117491260D01*
X115797180Y-117396022D01*
X115844799Y-117348403D01*
X115940037Y-117300784D01*
X116130513Y-117253165D01*
X116368608Y-117253165D01*
X116559084Y-117300784D01*
X116654322Y-117348403D01*
X116701941Y-117396022D01*
X116749560Y-117491260D01*
X116749560Y-117586499D01*
X116701941Y-117681737D01*
X116654322Y-117729356D01*
X116559084Y-117776975D01*
X116368608Y-117824594D01*
X116130513Y-117824594D01*
X115940037Y-117776975D01*
X115844799Y-117729356D01*
X115797180Y-117681737D01*
X115749560Y-117586499D01*
X116749560Y-116776975D02*
X116749560Y-116586499D01*
X116701941Y-116491260D01*
X116654322Y-116443641D01*
X116511465Y-116348403D01*
X116320989Y-116300784D01*
X115940037Y-116300784D01*
X115844799Y-116348403D01*
X115797180Y-116396022D01*
X115749560Y-116491260D01*
X115749560Y-116681737D01*
X115797180Y-116776975D01*
X115844799Y-116824594D01*
X115940037Y-116872213D01*
X116178132Y-116872213D01*
X116273370Y-116824594D01*
X116320989Y-116776975D01*
X116368608Y-116681737D01*
X116368608Y-116491260D01*
X116320989Y-116396022D01*
X116273370Y-116348403D01*
X116178132Y-116300784D01*
X116749560Y-114306527D02*
X116273370Y-114639860D01*
X116749560Y-114877956D02*
X115749560Y-114877956D01*
X115749560Y-114497003D01*
X115797180Y-114401765D01*
X115844799Y-114354146D01*
X115940037Y-114306527D01*
X116082894Y-114306527D01*
X116178132Y-114354146D01*
X116225751Y-114401765D01*
X116273370Y-114497003D01*
X116273370Y-114877956D01*
X115844799Y-113925575D02*
X115797180Y-113877956D01*
X115749560Y-113782718D01*
X115749560Y-113544622D01*
X115797180Y-113449384D01*
X115844799Y-113401765D01*
X115940037Y-113354146D01*
X116035275Y-113354146D01*
X116178132Y-113401765D01*
X116749560Y-113973194D01*
X116749560Y-113354146D01*
X115749560Y-112735099D02*
X115749560Y-112639860D01*
X115797180Y-112544622D01*
X115844799Y-112497003D01*
X115940037Y-112449384D01*
X116130513Y-112401765D01*
X116368608Y-112401765D01*
X116559084Y-112449384D01*
X116654322Y-112497003D01*
X116701941Y-112544622D01*
X116749560Y-112639860D01*
X116749560Y-112735099D01*
X116701941Y-112830337D01*
X116654322Y-112877956D01*
X116559084Y-112925575D01*
X116368608Y-112973194D01*
X116130513Y-112973194D01*
X115940037Y-112925575D01*
X115844799Y-112877956D01*
X115797180Y-112830337D01*
X115749560Y-112735099D01*
X116178132Y-111830337D02*
X116130513Y-111925575D01*
X116082894Y-111973194D01*
X115987656Y-112020813D01*
X115940037Y-112020813D01*
X115844799Y-111973194D01*
X115797180Y-111925575D01*
X115749560Y-111830337D01*
X115749560Y-111639860D01*
X115797180Y-111544622D01*
X115844799Y-111497003D01*
X115940037Y-111449384D01*
X115987656Y-111449384D01*
X116082894Y-111497003D01*
X116130513Y-111544622D01*
X116178132Y-111639860D01*
X116178132Y-111830337D01*
X116225751Y-111925575D01*
X116273370Y-111973194D01*
X116368608Y-112020813D01*
X116559084Y-112020813D01*
X116654322Y-111973194D01*
X116701941Y-111925575D01*
X116749560Y-111830337D01*
X116749560Y-111639860D01*
X116701941Y-111544622D01*
X116654322Y-111497003D01*
X116559084Y-111449384D01*
X116368608Y-111449384D01*
X116273370Y-111497003D01*
X116225751Y-111544622D01*
X116178132Y-111639860D01*
X125133652Y-132900980D02*
X124800319Y-132424790D01*
X124562223Y-132900980D02*
X124562223Y-131900980D01*
X124943176Y-131900980D01*
X125038414Y-131948600D01*
X125086033Y-131996219D01*
X125133652Y-132091457D01*
X125133652Y-132234314D01*
X125086033Y-132329552D01*
X125038414Y-132377171D01*
X124943176Y-132424790D01*
X124562223Y-132424790D01*
X125514604Y-131996219D02*
X125562223Y-131948600D01*
X125657461Y-131900980D01*
X125895557Y-131900980D01*
X125990795Y-131948600D01*
X126038414Y-131996219D01*
X126086033Y-132091457D01*
X126086033Y-132186695D01*
X126038414Y-132329552D01*
X125466985Y-132900980D01*
X126086033Y-132900980D01*
X126705080Y-131900980D02*
X126800319Y-131900980D01*
X126895557Y-131948600D01*
X126943176Y-131996219D01*
X126990795Y-132091457D01*
X127038414Y-132281933D01*
X127038414Y-132520028D01*
X126990795Y-132710504D01*
X126943176Y-132805742D01*
X126895557Y-132853361D01*
X126800319Y-132900980D01*
X126705080Y-132900980D01*
X126609842Y-132853361D01*
X126562223Y-132805742D01*
X126514604Y-132710504D01*
X126466985Y-132520028D01*
X126466985Y-132281933D01*
X126514604Y-132091457D01*
X126562223Y-131996219D01*
X126609842Y-131948600D01*
X126705080Y-131900980D01*
X127895557Y-131900980D02*
X127705080Y-131900980D01*
X127609842Y-131948600D01*
X127562223Y-131996219D01*
X127466985Y-132139076D01*
X127419366Y-132329552D01*
X127419366Y-132710504D01*
X127466985Y-132805742D01*
X127514604Y-132853361D01*
X127609842Y-132900980D01*
X127800319Y-132900980D01*
X127895557Y-132853361D01*
X127943176Y-132805742D01*
X127990795Y-132710504D01*
X127990795Y-132472409D01*
X127943176Y-132377171D01*
X127895557Y-132329552D01*
X127800319Y-132281933D01*
X127609842Y-132281933D01*
X127514604Y-132329552D01*
X127466985Y-132377171D01*
X127419366Y-132472409D01*
X124909780Y-131473847D02*
X124433590Y-131807180D01*
X124909780Y-132045276D02*
X123909780Y-132045276D01*
X123909780Y-131664323D01*
X123957400Y-131569085D01*
X124005019Y-131521466D01*
X124100257Y-131473847D01*
X124243114Y-131473847D01*
X124338352Y-131521466D01*
X124385971Y-131569085D01*
X124433590Y-131664323D01*
X124433590Y-132045276D01*
X124005019Y-131092895D02*
X123957400Y-131045276D01*
X123909780Y-130950038D01*
X123909780Y-130711942D01*
X123957400Y-130616704D01*
X124005019Y-130569085D01*
X124100257Y-130521466D01*
X124195495Y-130521466D01*
X124338352Y-130569085D01*
X124909780Y-131140514D01*
X124909780Y-130521466D01*
X123909780Y-129902419D02*
X123909780Y-129807180D01*
X123957400Y-129711942D01*
X124005019Y-129664323D01*
X124100257Y-129616704D01*
X124290733Y-129569085D01*
X124528828Y-129569085D01*
X124719304Y-129616704D01*
X124814542Y-129664323D01*
X124862161Y-129711942D01*
X124909780Y-129807180D01*
X124909780Y-129902419D01*
X124862161Y-129997657D01*
X124814542Y-130045276D01*
X124719304Y-130092895D01*
X124528828Y-130140514D01*
X124290733Y-130140514D01*
X124100257Y-130092895D01*
X124005019Y-130045276D01*
X123957400Y-129997657D01*
X123909780Y-129902419D01*
X124243114Y-128711942D02*
X124909780Y-128711942D01*
X123862161Y-128950038D02*
X124576447Y-129188133D01*
X124576447Y-128569085D01*
X118282552Y-126717580D02*
X117949219Y-126241390D01*
X117711123Y-126717580D02*
X117711123Y-125717580D01*
X118092076Y-125717580D01*
X118187314Y-125765200D01*
X118234933Y-125812819D01*
X118282552Y-125908057D01*
X118282552Y-126050914D01*
X118234933Y-126146152D01*
X118187314Y-126193771D01*
X118092076Y-126241390D01*
X117711123Y-126241390D01*
X118663504Y-125812819D02*
X118711123Y-125765200D01*
X118806361Y-125717580D01*
X119044457Y-125717580D01*
X119139695Y-125765200D01*
X119187314Y-125812819D01*
X119234933Y-125908057D01*
X119234933Y-126003295D01*
X119187314Y-126146152D01*
X118615885Y-126717580D01*
X119234933Y-126717580D01*
X119853980Y-125717580D02*
X119949219Y-125717580D01*
X120044457Y-125765200D01*
X120092076Y-125812819D01*
X120139695Y-125908057D01*
X120187314Y-126098533D01*
X120187314Y-126336628D01*
X120139695Y-126527104D01*
X120092076Y-126622342D01*
X120044457Y-126669961D01*
X119949219Y-126717580D01*
X119853980Y-126717580D01*
X119758742Y-126669961D01*
X119711123Y-126622342D01*
X119663504Y-126527104D01*
X119615885Y-126336628D01*
X119615885Y-126098533D01*
X119663504Y-125908057D01*
X119711123Y-125812819D01*
X119758742Y-125765200D01*
X119853980Y-125717580D01*
X120520647Y-125717580D02*
X121139695Y-125717580D01*
X120806361Y-126098533D01*
X120949219Y-126098533D01*
X121044457Y-126146152D01*
X121092076Y-126193771D01*
X121139695Y-126289009D01*
X121139695Y-126527104D01*
X121092076Y-126622342D01*
X121044457Y-126669961D01*
X120949219Y-126717580D01*
X120663504Y-126717580D01*
X120568266Y-126669961D01*
X120520647Y-126622342D01*
X113300240Y-127867587D02*
X112824050Y-128200920D01*
X113300240Y-128439016D02*
X112300240Y-128439016D01*
X112300240Y-128058063D01*
X112347860Y-127962825D01*
X112395479Y-127915206D01*
X112490717Y-127867587D01*
X112633574Y-127867587D01*
X112728812Y-127915206D01*
X112776431Y-127962825D01*
X112824050Y-128058063D01*
X112824050Y-128439016D01*
X112395479Y-127486635D02*
X112347860Y-127439016D01*
X112300240Y-127343778D01*
X112300240Y-127105682D01*
X112347860Y-127010444D01*
X112395479Y-126962825D01*
X112490717Y-126915206D01*
X112585955Y-126915206D01*
X112728812Y-126962825D01*
X113300240Y-127534254D01*
X113300240Y-126915206D01*
X112300240Y-126296159D02*
X112300240Y-126200920D01*
X112347860Y-126105682D01*
X112395479Y-126058063D01*
X112490717Y-126010444D01*
X112681193Y-125962825D01*
X112919288Y-125962825D01*
X113109764Y-126010444D01*
X113205002Y-126058063D01*
X113252621Y-126105682D01*
X113300240Y-126200920D01*
X113300240Y-126296159D01*
X113252621Y-126391397D01*
X113205002Y-126439016D01*
X113109764Y-126486635D01*
X112919288Y-126534254D01*
X112681193Y-126534254D01*
X112490717Y-126486635D01*
X112395479Y-126439016D01*
X112347860Y-126391397D01*
X112300240Y-126296159D01*
X112395479Y-125581873D02*
X112347860Y-125534254D01*
X112300240Y-125439016D01*
X112300240Y-125200920D01*
X112347860Y-125105682D01*
X112395479Y-125058063D01*
X112490717Y-125010444D01*
X112585955Y-125010444D01*
X112728812Y-125058063D01*
X113300240Y-125629492D01*
X113300240Y-125010444D01*
X111467712Y-122131080D02*
X111134379Y-121654890D01*
X110896283Y-122131080D02*
X110896283Y-121131080D01*
X111277236Y-121131080D01*
X111372474Y-121178700D01*
X111420093Y-121226319D01*
X111467712Y-121321557D01*
X111467712Y-121464414D01*
X111420093Y-121559652D01*
X111372474Y-121607271D01*
X111277236Y-121654890D01*
X110896283Y-121654890D01*
X111848664Y-121226319D02*
X111896283Y-121178700D01*
X111991521Y-121131080D01*
X112229617Y-121131080D01*
X112324855Y-121178700D01*
X112372474Y-121226319D01*
X112420093Y-121321557D01*
X112420093Y-121416795D01*
X112372474Y-121559652D01*
X111801045Y-122131080D01*
X112420093Y-122131080D01*
X113039140Y-121131080D02*
X113134379Y-121131080D01*
X113229617Y-121178700D01*
X113277236Y-121226319D01*
X113324855Y-121321557D01*
X113372474Y-121512033D01*
X113372474Y-121750128D01*
X113324855Y-121940604D01*
X113277236Y-122035842D01*
X113229617Y-122083461D01*
X113134379Y-122131080D01*
X113039140Y-122131080D01*
X112943902Y-122083461D01*
X112896283Y-122035842D01*
X112848664Y-121940604D01*
X112801045Y-121750128D01*
X112801045Y-121512033D01*
X112848664Y-121321557D01*
X112896283Y-121226319D01*
X112943902Y-121178700D01*
X113039140Y-121131080D01*
X114324855Y-122131080D02*
X113753426Y-122131080D01*
X114039140Y-122131080D02*
X114039140Y-121131080D01*
X113943902Y-121273938D01*
X113848664Y-121369176D01*
X113753426Y-121416795D01*
X131072380Y-91945714D02*
X131786666Y-91945714D01*
X131929523Y-91993333D01*
X132024761Y-92088571D01*
X132072380Y-92231428D01*
X132072380Y-92326666D01*
X132072380Y-90945714D02*
X132072380Y-91517142D01*
X132072380Y-91231428D02*
X131072380Y-91231428D01*
X131215238Y-91326666D01*
X131310476Y-91421904D01*
X131358095Y-91517142D01*
X131072380Y-90326666D02*
X131072380Y-90231428D01*
X131120000Y-90136190D01*
X131167619Y-90088571D01*
X131262857Y-90040952D01*
X131453333Y-89993333D01*
X131691428Y-89993333D01*
X131881904Y-90040952D01*
X131977142Y-90088571D01*
X132024761Y-90136190D01*
X132072380Y-90231428D01*
X132072380Y-90326666D01*
X132024761Y-90421904D01*
X131977142Y-90469523D01*
X131881904Y-90517142D01*
X131691428Y-90564761D01*
X131453333Y-90564761D01*
X131262857Y-90517142D01*
X131167619Y-90469523D01*
X131120000Y-90421904D01*
X131072380Y-90326666D01*
X131405714Y-89136190D02*
X132072380Y-89136190D01*
X131024761Y-89374285D02*
X131739047Y-89612380D01*
X131739047Y-88993333D01*
X94523085Y-118362480D02*
X94523085Y-119076766D01*
X94475466Y-119219623D01*
X94380228Y-119314861D01*
X94237371Y-119362480D01*
X94142133Y-119362480D01*
X95523085Y-119362480D02*
X94951657Y-119362480D01*
X95237371Y-119362480D02*
X95237371Y-118362480D01*
X95142133Y-118505338D01*
X95046895Y-118600576D01*
X94951657Y-118648195D01*
X96142133Y-118362480D02*
X96237371Y-118362480D01*
X96332609Y-118410100D01*
X96380228Y-118457719D01*
X96427847Y-118552957D01*
X96475466Y-118743433D01*
X96475466Y-118981528D01*
X96427847Y-119172004D01*
X96380228Y-119267242D01*
X96332609Y-119314861D01*
X96237371Y-119362480D01*
X96142133Y-119362480D01*
X96046895Y-119314861D01*
X95999276Y-119267242D01*
X95951657Y-119172004D01*
X95904038Y-118981528D01*
X95904038Y-118743433D01*
X95951657Y-118552957D01*
X95999276Y-118457719D01*
X96046895Y-118410100D01*
X96142133Y-118362480D01*
X96808800Y-118362480D02*
X97427847Y-118362480D01*
X97094514Y-118743433D01*
X97237371Y-118743433D01*
X97332609Y-118791052D01*
X97380228Y-118838671D01*
X97427847Y-118933909D01*
X97427847Y-119172004D01*
X97380228Y-119267242D01*
X97332609Y-119314861D01*
X97237371Y-119362480D01*
X96951657Y-119362480D01*
X96856419Y-119314861D01*
X96808800Y-119267242D01*
X66532285Y-124204480D02*
X66532285Y-124918766D01*
X66484666Y-125061623D01*
X66389428Y-125156861D01*
X66246571Y-125204480D01*
X66151333Y-125204480D01*
X67532285Y-125204480D02*
X66960857Y-125204480D01*
X67246571Y-125204480D02*
X67246571Y-124204480D01*
X67151333Y-124347338D01*
X67056095Y-124442576D01*
X66960857Y-124490195D01*
X68151333Y-124204480D02*
X68246571Y-124204480D01*
X68341809Y-124252100D01*
X68389428Y-124299719D01*
X68437047Y-124394957D01*
X68484666Y-124585433D01*
X68484666Y-124823528D01*
X68437047Y-125014004D01*
X68389428Y-125109242D01*
X68341809Y-125156861D01*
X68246571Y-125204480D01*
X68151333Y-125204480D01*
X68056095Y-125156861D01*
X68008476Y-125109242D01*
X67960857Y-125014004D01*
X67913238Y-124823528D01*
X67913238Y-124585433D01*
X67960857Y-124394957D01*
X68008476Y-124299719D01*
X68056095Y-124252100D01*
X68151333Y-124204480D01*
X68865619Y-124299719D02*
X68913238Y-124252100D01*
X69008476Y-124204480D01*
X69246571Y-124204480D01*
X69341809Y-124252100D01*
X69389428Y-124299719D01*
X69437047Y-124394957D01*
X69437047Y-124490195D01*
X69389428Y-124633052D01*
X68818000Y-125204480D01*
X69437047Y-125204480D01*
X73749114Y-135291980D02*
X73749114Y-134291980D01*
X73749114Y-134768171D02*
X74320542Y-134768171D01*
X74320542Y-135291980D02*
X74320542Y-134291980D01*
X75320542Y-135291980D02*
X74749114Y-135291980D01*
X75034828Y-135291980D02*
X75034828Y-134291980D01*
X74939590Y-134434838D01*
X74844352Y-134530076D01*
X74749114Y-134577695D01*
X75939590Y-134291980D02*
X76034828Y-134291980D01*
X76130066Y-134339600D01*
X76177685Y-134387219D01*
X76225304Y-134482457D01*
X76272923Y-134672933D01*
X76272923Y-134911028D01*
X76225304Y-135101504D01*
X76177685Y-135196742D01*
X76130066Y-135244361D01*
X76034828Y-135291980D01*
X75939590Y-135291980D01*
X75844352Y-135244361D01*
X75796733Y-135196742D01*
X75749114Y-135101504D01*
X75701495Y-134911028D01*
X75701495Y-134672933D01*
X75749114Y-134482457D01*
X75796733Y-134387219D01*
X75844352Y-134339600D01*
X75939590Y-134291980D01*
X77177685Y-134291980D02*
X76701495Y-134291980D01*
X76653876Y-134768171D01*
X76701495Y-134720552D01*
X76796733Y-134672933D01*
X77034828Y-134672933D01*
X77130066Y-134720552D01*
X77177685Y-134768171D01*
X77225304Y-134863409D01*
X77225304Y-135101504D01*
X77177685Y-135196742D01*
X77130066Y-135244361D01*
X77034828Y-135291980D01*
X76796733Y-135291980D01*
X76701495Y-135244361D01*
X76653876Y-135196742D01*
X111849114Y-135291980D02*
X111849114Y-134291980D01*
X111849114Y-134768171D02*
X112420542Y-134768171D01*
X112420542Y-135291980D02*
X112420542Y-134291980D01*
X113420542Y-135291980D02*
X112849114Y-135291980D01*
X113134828Y-135291980D02*
X113134828Y-134291980D01*
X113039590Y-134434838D01*
X112944352Y-134530076D01*
X112849114Y-134577695D01*
X114039590Y-134291980D02*
X114134828Y-134291980D01*
X114230066Y-134339600D01*
X114277685Y-134387219D01*
X114325304Y-134482457D01*
X114372923Y-134672933D01*
X114372923Y-134911028D01*
X114325304Y-135101504D01*
X114277685Y-135196742D01*
X114230066Y-135244361D01*
X114134828Y-135291980D01*
X114039590Y-135291980D01*
X113944352Y-135244361D01*
X113896733Y-135196742D01*
X113849114Y-135101504D01*
X113801495Y-134911028D01*
X113801495Y-134672933D01*
X113849114Y-134482457D01*
X113896733Y-134387219D01*
X113944352Y-134339600D01*
X114039590Y-134291980D01*
X114706257Y-134291980D02*
X115325304Y-134291980D01*
X114991971Y-134672933D01*
X115134828Y-134672933D01*
X115230066Y-134720552D01*
X115277685Y-134768171D01*
X115325304Y-134863409D01*
X115325304Y-135101504D01*
X115277685Y-135196742D01*
X115230066Y-135244361D01*
X115134828Y-135291980D01*
X114849114Y-135291980D01*
X114753876Y-135244361D01*
X114706257Y-135196742D01*
X101401405Y-118452591D02*
X101068072Y-118452591D01*
X101068072Y-118976400D02*
X101068072Y-117976400D01*
X101544262Y-117976400D01*
X102449024Y-118976400D02*
X101877596Y-118976400D01*
X102163310Y-118976400D02*
X102163310Y-117976400D01*
X102068072Y-118119258D01*
X101972834Y-118214496D01*
X101877596Y-118262115D01*
X103068072Y-117976400D02*
X103163310Y-117976400D01*
X103258548Y-118024020D01*
X103306167Y-118071639D01*
X103353786Y-118166877D01*
X103401405Y-118357353D01*
X103401405Y-118595448D01*
X103353786Y-118785924D01*
X103306167Y-118881162D01*
X103258548Y-118928781D01*
X103163310Y-118976400D01*
X103068072Y-118976400D01*
X102972834Y-118928781D01*
X102925215Y-118881162D01*
X102877596Y-118785924D01*
X102829977Y-118595448D01*
X102829977Y-118357353D01*
X102877596Y-118166877D01*
X102925215Y-118071639D01*
X102972834Y-118024020D01*
X103068072Y-117976400D01*
X104353786Y-118976400D02*
X103782358Y-118976400D01*
X104068072Y-118976400D02*
X104068072Y-117976400D01*
X103972834Y-118119258D01*
X103877596Y-118214496D01*
X103782358Y-118262115D01*
X79753405Y-122869651D02*
X79420072Y-122869651D01*
X79420072Y-123393460D02*
X79420072Y-122393460D01*
X79896262Y-122393460D01*
X80801024Y-123393460D02*
X80229596Y-123393460D01*
X80515310Y-123393460D02*
X80515310Y-122393460D01*
X80420072Y-122536318D01*
X80324834Y-122631556D01*
X80229596Y-122679175D01*
X81420072Y-122393460D02*
X81515310Y-122393460D01*
X81610548Y-122441080D01*
X81658167Y-122488699D01*
X81705786Y-122583937D01*
X81753405Y-122774413D01*
X81753405Y-123012508D01*
X81705786Y-123202984D01*
X81658167Y-123298222D01*
X81610548Y-123345841D01*
X81515310Y-123393460D01*
X81420072Y-123393460D01*
X81324834Y-123345841D01*
X81277215Y-123298222D01*
X81229596Y-123202984D01*
X81181977Y-123012508D01*
X81181977Y-122774413D01*
X81229596Y-122583937D01*
X81277215Y-122488699D01*
X81324834Y-122441080D01*
X81420072Y-122393460D01*
X82134358Y-122488699D02*
X82181977Y-122441080D01*
X82277215Y-122393460D01*
X82515310Y-122393460D01*
X82610548Y-122441080D01*
X82658167Y-122488699D01*
X82705786Y-122583937D01*
X82705786Y-122679175D01*
X82658167Y-122822032D01*
X82086739Y-123393460D01*
X82705786Y-123393460D01*
X102961700Y-127024236D02*
X101961700Y-127024236D01*
X101961700Y-126786140D01*
X102009320Y-126643283D01*
X102104558Y-126548045D01*
X102199796Y-126500426D01*
X102390272Y-126452807D01*
X102533129Y-126452807D01*
X102723605Y-126500426D01*
X102818843Y-126548045D01*
X102914081Y-126643283D01*
X102961700Y-126786140D01*
X102961700Y-127024236D01*
X102961700Y-125500426D02*
X102961700Y-126071855D01*
X102961700Y-125786140D02*
X101961700Y-125786140D01*
X102104558Y-125881379D01*
X102199796Y-125976617D01*
X102247415Y-126071855D01*
X101961700Y-124881379D02*
X101961700Y-124786140D01*
X102009320Y-124690902D01*
X102056939Y-124643283D01*
X102152177Y-124595664D01*
X102342653Y-124548045D01*
X102580748Y-124548045D01*
X102771224Y-124595664D01*
X102866462Y-124643283D01*
X102914081Y-124690902D01*
X102961700Y-124786140D01*
X102961700Y-124881379D01*
X102914081Y-124976617D01*
X102866462Y-125024236D01*
X102771224Y-125071855D01*
X102580748Y-125119474D01*
X102342653Y-125119474D01*
X102152177Y-125071855D01*
X102056939Y-125024236D01*
X102009320Y-124976617D01*
X101961700Y-124881379D01*
X102056939Y-124167093D02*
X102009320Y-124119474D01*
X101961700Y-124024236D01*
X101961700Y-123786140D01*
X102009320Y-123690902D01*
X102056939Y-123643283D01*
X102152177Y-123595664D01*
X102247415Y-123595664D01*
X102390272Y-123643283D01*
X102961700Y-124214712D01*
X102961700Y-123595664D01*
X81420980Y-130087476D02*
X80420980Y-130087476D01*
X80420980Y-129849380D01*
X80468600Y-129706523D01*
X80563838Y-129611285D01*
X80659076Y-129563666D01*
X80849552Y-129516047D01*
X80992409Y-129516047D01*
X81182885Y-129563666D01*
X81278123Y-129611285D01*
X81373361Y-129706523D01*
X81420980Y-129849380D01*
X81420980Y-130087476D01*
X81420980Y-128563666D02*
X81420980Y-129135095D01*
X81420980Y-128849380D02*
X80420980Y-128849380D01*
X80563838Y-128944619D01*
X80659076Y-129039857D01*
X80706695Y-129135095D01*
X80420980Y-127944619D02*
X80420980Y-127849380D01*
X80468600Y-127754142D01*
X80516219Y-127706523D01*
X80611457Y-127658904D01*
X80801933Y-127611285D01*
X81040028Y-127611285D01*
X81230504Y-127658904D01*
X81325742Y-127706523D01*
X81373361Y-127754142D01*
X81420980Y-127849380D01*
X81420980Y-127944619D01*
X81373361Y-128039857D01*
X81325742Y-128087476D01*
X81230504Y-128135095D01*
X81040028Y-128182714D01*
X80801933Y-128182714D01*
X80611457Y-128135095D01*
X80516219Y-128087476D01*
X80468600Y-128039857D01*
X80420980Y-127944619D01*
X81420980Y-126658904D02*
X81420980Y-127230333D01*
X81420980Y-126944619D02*
X80420980Y-126944619D01*
X80563838Y-127039857D01*
X80659076Y-127135095D01*
X80706695Y-127230333D01*
X86491142Y-90146047D02*
X86538761Y-90193666D01*
X86586380Y-90336523D01*
X86586380Y-90431761D01*
X86538761Y-90574619D01*
X86443523Y-90669857D01*
X86348285Y-90717476D01*
X86157809Y-90765095D01*
X86014952Y-90765095D01*
X85824476Y-90717476D01*
X85729238Y-90669857D01*
X85634000Y-90574619D01*
X85586380Y-90431761D01*
X85586380Y-90336523D01*
X85634000Y-90193666D01*
X85681619Y-90146047D01*
X85919714Y-89288904D02*
X86586380Y-89288904D01*
X85538761Y-89527000D02*
X86253047Y-89765095D01*
X86253047Y-89146047D01*
X85586380Y-88574619D02*
X85586380Y-88479380D01*
X85634000Y-88384142D01*
X85681619Y-88336523D01*
X85776857Y-88288904D01*
X85967333Y-88241285D01*
X86205428Y-88241285D01*
X86395904Y-88288904D01*
X86491142Y-88336523D01*
X86538761Y-88384142D01*
X86586380Y-88479380D01*
X86586380Y-88574619D01*
X86538761Y-88669857D01*
X86491142Y-88717476D01*
X86395904Y-88765095D01*
X86205428Y-88812714D01*
X85967333Y-88812714D01*
X85776857Y-88765095D01*
X85681619Y-88717476D01*
X85634000Y-88669857D01*
X85586380Y-88574619D01*
X85586380Y-87907952D02*
X85586380Y-87241285D01*
X86586380Y-87669857D01*
X119955642Y-87974347D02*
X120003261Y-88021966D01*
X120050880Y-88164823D01*
X120050880Y-88260061D01*
X120003261Y-88402919D01*
X119908023Y-88498157D01*
X119812785Y-88545776D01*
X119622309Y-88593395D01*
X119479452Y-88593395D01*
X119288976Y-88545776D01*
X119193738Y-88498157D01*
X119098500Y-88402919D01*
X119050880Y-88260061D01*
X119050880Y-88164823D01*
X119098500Y-88021966D01*
X119146119Y-87974347D01*
X119384214Y-87117204D02*
X120050880Y-87117204D01*
X119003261Y-87355300D02*
X119717547Y-87593395D01*
X119717547Y-86974347D01*
X119050880Y-86402919D02*
X119050880Y-86307680D01*
X119098500Y-86212442D01*
X119146119Y-86164823D01*
X119241357Y-86117204D01*
X119431833Y-86069585D01*
X119669928Y-86069585D01*
X119860404Y-86117204D01*
X119955642Y-86164823D01*
X120003261Y-86212442D01*
X120050880Y-86307680D01*
X120050880Y-86402919D01*
X120003261Y-86498157D01*
X119955642Y-86545776D01*
X119860404Y-86593395D01*
X119669928Y-86641014D01*
X119431833Y-86641014D01*
X119241357Y-86593395D01*
X119146119Y-86545776D01*
X119098500Y-86498157D01*
X119050880Y-86402919D01*
X119146119Y-85688633D02*
X119098500Y-85641014D01*
X119050880Y-85545776D01*
X119050880Y-85307680D01*
X119098500Y-85212442D01*
X119146119Y-85164823D01*
X119241357Y-85117204D01*
X119336595Y-85117204D01*
X119479452Y-85164823D01*
X120050880Y-85736252D01*
X120050880Y-85117204D01*
X127227542Y-119787847D02*
X127275161Y-119835466D01*
X127322780Y-119978323D01*
X127322780Y-120073561D01*
X127275161Y-120216419D01*
X127179923Y-120311657D01*
X127084685Y-120359276D01*
X126894209Y-120406895D01*
X126751352Y-120406895D01*
X126560876Y-120359276D01*
X126465638Y-120311657D01*
X126370400Y-120216419D01*
X126322780Y-120073561D01*
X126322780Y-119978323D01*
X126370400Y-119835466D01*
X126418019Y-119787847D01*
X126418019Y-119406895D02*
X126370400Y-119359276D01*
X126322780Y-119264038D01*
X126322780Y-119025942D01*
X126370400Y-118930704D01*
X126418019Y-118883085D01*
X126513257Y-118835466D01*
X126608495Y-118835466D01*
X126751352Y-118883085D01*
X127322780Y-119454514D01*
X127322780Y-118835466D01*
X127322780Y-117883085D02*
X127322780Y-118454514D01*
X127322780Y-118168800D02*
X126322780Y-118168800D01*
X126465638Y-118264038D01*
X126560876Y-118359276D01*
X126608495Y-118454514D01*
X126656114Y-117025942D02*
X127322780Y-117025942D01*
X126275161Y-117264038D02*
X126989447Y-117502133D01*
X126989447Y-116883085D01*
X134237552Y-134161742D02*
X134189933Y-134209361D01*
X134047076Y-134256980D01*
X133951838Y-134256980D01*
X133808980Y-134209361D01*
X133713742Y-134114123D01*
X133666123Y-134018885D01*
X133618504Y-133828409D01*
X133618504Y-133685552D01*
X133666123Y-133495076D01*
X133713742Y-133399838D01*
X133808980Y-133304600D01*
X133951838Y-133256980D01*
X134047076Y-133256980D01*
X134189933Y-133304600D01*
X134237552Y-133352219D01*
X134618504Y-133352219D02*
X134666123Y-133304600D01*
X134761361Y-133256980D01*
X134999457Y-133256980D01*
X135094695Y-133304600D01*
X135142314Y-133352219D01*
X135189933Y-133447457D01*
X135189933Y-133542695D01*
X135142314Y-133685552D01*
X134570885Y-134256980D01*
X135189933Y-134256980D01*
X136142314Y-134256980D02*
X135570885Y-134256980D01*
X135856600Y-134256980D02*
X135856600Y-133256980D01*
X135761361Y-133399838D01*
X135666123Y-133495076D01*
X135570885Y-133542695D01*
X136523266Y-133352219D02*
X136570885Y-133304600D01*
X136666123Y-133256980D01*
X136904219Y-133256980D01*
X136999457Y-133304600D01*
X137047076Y-133352219D01*
X137094695Y-133447457D01*
X137094695Y-133542695D01*
X137047076Y-133685552D01*
X136475647Y-134256980D01*
X137094695Y-134256980D01*
X131754542Y-131233847D02*
X131802161Y-131281466D01*
X131849780Y-131424323D01*
X131849780Y-131519561D01*
X131802161Y-131662419D01*
X131706923Y-131757657D01*
X131611685Y-131805276D01*
X131421209Y-131852895D01*
X131278352Y-131852895D01*
X131087876Y-131805276D01*
X130992638Y-131757657D01*
X130897400Y-131662419D01*
X130849780Y-131519561D01*
X130849780Y-131424323D01*
X130897400Y-131281466D01*
X130945019Y-131233847D01*
X130945019Y-130852895D02*
X130897400Y-130805276D01*
X130849780Y-130710038D01*
X130849780Y-130471942D01*
X130897400Y-130376704D01*
X130945019Y-130329085D01*
X131040257Y-130281466D01*
X131135495Y-130281466D01*
X131278352Y-130329085D01*
X131849780Y-130900514D01*
X131849780Y-130281466D01*
X131849780Y-129329085D02*
X131849780Y-129900514D01*
X131849780Y-129614800D02*
X130849780Y-129614800D01*
X130992638Y-129710038D01*
X131087876Y-129805276D01*
X131135495Y-129900514D01*
X130849780Y-128710038D02*
X130849780Y-128614800D01*
X130897400Y-128519561D01*
X130945019Y-128471942D01*
X131040257Y-128424323D01*
X131230733Y-128376704D01*
X131468828Y-128376704D01*
X131659304Y-128424323D01*
X131754542Y-128471942D01*
X131802161Y-128519561D01*
X131849780Y-128614800D01*
X131849780Y-128710038D01*
X131802161Y-128805276D01*
X131754542Y-128852895D01*
X131659304Y-128900514D01*
X131468828Y-128948133D01*
X131230733Y-128948133D01*
X131040257Y-128900514D01*
X130945019Y-128852895D01*
X130897400Y-128805276D01*
X130849780Y-128710038D01*
X125032852Y-130967142D02*
X124985233Y-131014761D01*
X124842376Y-131062380D01*
X124747138Y-131062380D01*
X124604280Y-131014761D01*
X124509042Y-130919523D01*
X124461423Y-130824285D01*
X124413804Y-130633809D01*
X124413804Y-130490952D01*
X124461423Y-130300476D01*
X124509042Y-130205238D01*
X124604280Y-130110000D01*
X124747138Y-130062380D01*
X124842376Y-130062380D01*
X124985233Y-130110000D01*
X125032852Y-130157619D01*
X125413804Y-130157619D02*
X125461423Y-130110000D01*
X125556661Y-130062380D01*
X125794757Y-130062380D01*
X125889995Y-130110000D01*
X125937614Y-130157619D01*
X125985233Y-130252857D01*
X125985233Y-130348095D01*
X125937614Y-130490952D01*
X125366185Y-131062380D01*
X125985233Y-131062380D01*
X126604280Y-130062380D02*
X126699519Y-130062380D01*
X126794757Y-130110000D01*
X126842376Y-130157619D01*
X126889995Y-130252857D01*
X126937614Y-130443333D01*
X126937614Y-130681428D01*
X126889995Y-130871904D01*
X126842376Y-130967142D01*
X126794757Y-131014761D01*
X126699519Y-131062380D01*
X126604280Y-131062380D01*
X126509042Y-131014761D01*
X126461423Y-130967142D01*
X126413804Y-130871904D01*
X126366185Y-130681428D01*
X126366185Y-130443333D01*
X126413804Y-130252857D01*
X126461423Y-130157619D01*
X126509042Y-130110000D01*
X126604280Y-130062380D01*
X127413804Y-131062380D02*
X127604280Y-131062380D01*
X127699519Y-131014761D01*
X127747138Y-130967142D01*
X127842376Y-130824285D01*
X127889995Y-130633809D01*
X127889995Y-130252857D01*
X127842376Y-130157619D01*
X127794757Y-130110000D01*
X127699519Y-130062380D01*
X127509042Y-130062380D01*
X127413804Y-130110000D01*
X127366185Y-130157619D01*
X127318566Y-130252857D01*
X127318566Y-130490952D01*
X127366185Y-130586190D01*
X127413804Y-130633809D01*
X127509042Y-130681428D01*
X127699519Y-130681428D01*
X127794757Y-130633809D01*
X127842376Y-130586190D01*
X127889995Y-130490952D01*
X137057342Y-110562247D02*
X137104961Y-110609866D01*
X137152580Y-110752723D01*
X137152580Y-110847961D01*
X137104961Y-110990819D01*
X137009723Y-111086057D01*
X136914485Y-111133676D01*
X136724009Y-111181295D01*
X136581152Y-111181295D01*
X136390676Y-111133676D01*
X136295438Y-111086057D01*
X136200200Y-110990819D01*
X136152580Y-110847961D01*
X136152580Y-110752723D01*
X136200200Y-110609866D01*
X136247819Y-110562247D01*
X136247819Y-110181295D02*
X136200200Y-110133676D01*
X136152580Y-110038438D01*
X136152580Y-109800342D01*
X136200200Y-109705104D01*
X136247819Y-109657485D01*
X136343057Y-109609866D01*
X136438295Y-109609866D01*
X136581152Y-109657485D01*
X137152580Y-110228914D01*
X137152580Y-109609866D01*
X136152580Y-108990819D02*
X136152580Y-108895580D01*
X136200200Y-108800342D01*
X136247819Y-108752723D01*
X136343057Y-108705104D01*
X136533533Y-108657485D01*
X136771628Y-108657485D01*
X136962104Y-108705104D01*
X137057342Y-108752723D01*
X137104961Y-108800342D01*
X137152580Y-108895580D01*
X137152580Y-108990819D01*
X137104961Y-109086057D01*
X137057342Y-109133676D01*
X136962104Y-109181295D01*
X136771628Y-109228914D01*
X136533533Y-109228914D01*
X136343057Y-109181295D01*
X136247819Y-109133676D01*
X136200200Y-109086057D01*
X136152580Y-108990819D01*
X136581152Y-108086057D02*
X136533533Y-108181295D01*
X136485914Y-108228914D01*
X136390676Y-108276533D01*
X136343057Y-108276533D01*
X136247819Y-108228914D01*
X136200200Y-108181295D01*
X136152580Y-108086057D01*
X136152580Y-107895580D01*
X136200200Y-107800342D01*
X136247819Y-107752723D01*
X136343057Y-107705104D01*
X136390676Y-107705104D01*
X136485914Y-107752723D01*
X136533533Y-107800342D01*
X136581152Y-107895580D01*
X136581152Y-108086057D01*
X136628771Y-108181295D01*
X136676390Y-108228914D01*
X136771628Y-108276533D01*
X136962104Y-108276533D01*
X137057342Y-108228914D01*
X137104961Y-108181295D01*
X137152580Y-108086057D01*
X137152580Y-107895580D01*
X137104961Y-107800342D01*
X137057342Y-107752723D01*
X136962104Y-107705104D01*
X136771628Y-107705104D01*
X136676390Y-107752723D01*
X136628771Y-107800342D01*
X136581152Y-107895580D01*
X122128352Y-126261942D02*
X122080733Y-126309561D01*
X121937876Y-126357180D01*
X121842638Y-126357180D01*
X121699780Y-126309561D01*
X121604542Y-126214323D01*
X121556923Y-126119085D01*
X121509304Y-125928609D01*
X121509304Y-125785752D01*
X121556923Y-125595276D01*
X121604542Y-125500038D01*
X121699780Y-125404800D01*
X121842638Y-125357180D01*
X121937876Y-125357180D01*
X122080733Y-125404800D01*
X122128352Y-125452419D01*
X122509304Y-125452419D02*
X122556923Y-125404800D01*
X122652161Y-125357180D01*
X122890257Y-125357180D01*
X122985495Y-125404800D01*
X123033114Y-125452419D01*
X123080733Y-125547657D01*
X123080733Y-125642895D01*
X123033114Y-125785752D01*
X122461685Y-126357180D01*
X123080733Y-126357180D01*
X123699780Y-125357180D02*
X123795019Y-125357180D01*
X123890257Y-125404800D01*
X123937876Y-125452419D01*
X123985495Y-125547657D01*
X124033114Y-125738133D01*
X124033114Y-125976228D01*
X123985495Y-126166704D01*
X123937876Y-126261942D01*
X123890257Y-126309561D01*
X123795019Y-126357180D01*
X123699780Y-126357180D01*
X123604542Y-126309561D01*
X123556923Y-126261942D01*
X123509304Y-126166704D01*
X123461685Y-125976228D01*
X123461685Y-125738133D01*
X123509304Y-125547657D01*
X123556923Y-125452419D01*
X123604542Y-125404800D01*
X123699780Y-125357180D01*
X124366447Y-125357180D02*
X125033114Y-125357180D01*
X124604542Y-126357180D01*
X119530952Y-128192742D02*
X119483333Y-128240361D01*
X119340476Y-128287980D01*
X119245238Y-128287980D01*
X119102380Y-128240361D01*
X119007142Y-128145123D01*
X118959523Y-128049885D01*
X118911904Y-127859409D01*
X118911904Y-127716552D01*
X118959523Y-127526076D01*
X119007142Y-127430838D01*
X119102380Y-127335600D01*
X119245238Y-127287980D01*
X119340476Y-127287980D01*
X119483333Y-127335600D01*
X119530952Y-127383219D01*
X119911904Y-127383219D02*
X119959523Y-127335600D01*
X120054761Y-127287980D01*
X120292857Y-127287980D01*
X120388095Y-127335600D01*
X120435714Y-127383219D01*
X120483333Y-127478457D01*
X120483333Y-127573695D01*
X120435714Y-127716552D01*
X119864285Y-128287980D01*
X120483333Y-128287980D01*
X121102380Y-127287980D02*
X121197619Y-127287980D01*
X121292857Y-127335600D01*
X121340476Y-127383219D01*
X121388095Y-127478457D01*
X121435714Y-127668933D01*
X121435714Y-127907028D01*
X121388095Y-128097504D01*
X121340476Y-128192742D01*
X121292857Y-128240361D01*
X121197619Y-128287980D01*
X121102380Y-128287980D01*
X121007142Y-128240361D01*
X120959523Y-128192742D01*
X120911904Y-128097504D01*
X120864285Y-127907028D01*
X120864285Y-127668933D01*
X120911904Y-127478457D01*
X120959523Y-127383219D01*
X121007142Y-127335600D01*
X121102380Y-127287980D01*
X122292857Y-127287980D02*
X122102380Y-127287980D01*
X122007142Y-127335600D01*
X121959523Y-127383219D01*
X121864285Y-127526076D01*
X121816666Y-127716552D01*
X121816666Y-128097504D01*
X121864285Y-128192742D01*
X121911904Y-128240361D01*
X122007142Y-128287980D01*
X122197619Y-128287980D01*
X122292857Y-128240361D01*
X122340476Y-128192742D01*
X122388095Y-128097504D01*
X122388095Y-127859409D01*
X122340476Y-127764171D01*
X122292857Y-127716552D01*
X122197619Y-127668933D01*
X122007142Y-127668933D01*
X121911904Y-127716552D01*
X121864285Y-127764171D01*
X121816666Y-127859409D01*
X131438352Y-123561942D02*
X131390733Y-123609561D01*
X131247876Y-123657180D01*
X131152638Y-123657180D01*
X131009780Y-123609561D01*
X130914542Y-123514323D01*
X130866923Y-123419085D01*
X130819304Y-123228609D01*
X130819304Y-123085752D01*
X130866923Y-122895276D01*
X130914542Y-122800038D01*
X131009780Y-122704800D01*
X131152638Y-122657180D01*
X131247876Y-122657180D01*
X131390733Y-122704800D01*
X131438352Y-122752419D01*
X131819304Y-122752419D02*
X131866923Y-122704800D01*
X131962161Y-122657180D01*
X132200257Y-122657180D01*
X132295495Y-122704800D01*
X132343114Y-122752419D01*
X132390733Y-122847657D01*
X132390733Y-122942895D01*
X132343114Y-123085752D01*
X131771685Y-123657180D01*
X132390733Y-123657180D01*
X133009780Y-122657180D02*
X133105019Y-122657180D01*
X133200257Y-122704800D01*
X133247876Y-122752419D01*
X133295495Y-122847657D01*
X133343114Y-123038133D01*
X133343114Y-123276228D01*
X133295495Y-123466704D01*
X133247876Y-123561942D01*
X133200257Y-123609561D01*
X133105019Y-123657180D01*
X133009780Y-123657180D01*
X132914542Y-123609561D01*
X132866923Y-123561942D01*
X132819304Y-123466704D01*
X132771685Y-123276228D01*
X132771685Y-123038133D01*
X132819304Y-122847657D01*
X132866923Y-122752419D01*
X132914542Y-122704800D01*
X133009780Y-122657180D01*
X134247876Y-122657180D02*
X133771685Y-122657180D01*
X133724066Y-123133371D01*
X133771685Y-123085752D01*
X133866923Y-123038133D01*
X134105019Y-123038133D01*
X134200257Y-123085752D01*
X134247876Y-123133371D01*
X134295495Y-123228609D01*
X134295495Y-123466704D01*
X134247876Y-123561942D01*
X134200257Y-123609561D01*
X134105019Y-123657180D01*
X133866923Y-123657180D01*
X133771685Y-123609561D01*
X133724066Y-123561942D01*
X136904942Y-129617647D02*
X136952561Y-129665266D01*
X137000180Y-129808123D01*
X137000180Y-129903361D01*
X136952561Y-130046219D01*
X136857323Y-130141457D01*
X136762085Y-130189076D01*
X136571609Y-130236695D01*
X136428752Y-130236695D01*
X136238276Y-130189076D01*
X136143038Y-130141457D01*
X136047800Y-130046219D01*
X136000180Y-129903361D01*
X136000180Y-129808123D01*
X136047800Y-129665266D01*
X136095419Y-129617647D01*
X136095419Y-129236695D02*
X136047800Y-129189076D01*
X136000180Y-129093838D01*
X136000180Y-128855742D01*
X136047800Y-128760504D01*
X136095419Y-128712885D01*
X136190657Y-128665266D01*
X136285895Y-128665266D01*
X136428752Y-128712885D01*
X137000180Y-129284314D01*
X137000180Y-128665266D01*
X136000180Y-128046219D02*
X136000180Y-127950980D01*
X136047800Y-127855742D01*
X136095419Y-127808123D01*
X136190657Y-127760504D01*
X136381133Y-127712885D01*
X136619228Y-127712885D01*
X136809704Y-127760504D01*
X136904942Y-127808123D01*
X136952561Y-127855742D01*
X137000180Y-127950980D01*
X137000180Y-128046219D01*
X136952561Y-128141457D01*
X136904942Y-128189076D01*
X136809704Y-128236695D01*
X136619228Y-128284314D01*
X136381133Y-128284314D01*
X136190657Y-128236695D01*
X136095419Y-128189076D01*
X136047800Y-128141457D01*
X136000180Y-128046219D01*
X136333514Y-126855742D02*
X137000180Y-126855742D01*
X135952561Y-127093838D02*
X136666847Y-127331933D01*
X136666847Y-126712885D01*
X115131102Y-127944787D02*
X115178721Y-127992406D01*
X115226340Y-128135263D01*
X115226340Y-128230501D01*
X115178721Y-128373359D01*
X115083483Y-128468597D01*
X114988245Y-128516216D01*
X114797769Y-128563835D01*
X114654912Y-128563835D01*
X114464436Y-128516216D01*
X114369198Y-128468597D01*
X114273960Y-128373359D01*
X114226340Y-128230501D01*
X114226340Y-128135263D01*
X114273960Y-127992406D01*
X114321579Y-127944787D01*
X114321579Y-127563835D02*
X114273960Y-127516216D01*
X114226340Y-127420978D01*
X114226340Y-127182882D01*
X114273960Y-127087644D01*
X114321579Y-127040025D01*
X114416817Y-126992406D01*
X114512055Y-126992406D01*
X114654912Y-127040025D01*
X115226340Y-127611454D01*
X115226340Y-126992406D01*
X114226340Y-126373359D02*
X114226340Y-126278120D01*
X114273960Y-126182882D01*
X114321579Y-126135263D01*
X114416817Y-126087644D01*
X114607293Y-126040025D01*
X114845388Y-126040025D01*
X115035864Y-126087644D01*
X115131102Y-126135263D01*
X115178721Y-126182882D01*
X115226340Y-126278120D01*
X115226340Y-126373359D01*
X115178721Y-126468597D01*
X115131102Y-126516216D01*
X115035864Y-126563835D01*
X114845388Y-126611454D01*
X114607293Y-126611454D01*
X114416817Y-126563835D01*
X114321579Y-126516216D01*
X114273960Y-126468597D01*
X114226340Y-126373359D01*
X114226340Y-125706692D02*
X114226340Y-125087644D01*
X114607293Y-125420978D01*
X114607293Y-125278120D01*
X114654912Y-125182882D01*
X114702531Y-125135263D01*
X114797769Y-125087644D01*
X115035864Y-125087644D01*
X115131102Y-125135263D01*
X115178721Y-125182882D01*
X115226340Y-125278120D01*
X115226340Y-125563835D01*
X115178721Y-125659073D01*
X115131102Y-125706692D01*
X116736952Y-102465142D02*
X116689333Y-102512761D01*
X116546476Y-102560380D01*
X116451238Y-102560380D01*
X116308380Y-102512761D01*
X116213142Y-102417523D01*
X116165523Y-102322285D01*
X116117904Y-102131809D01*
X116117904Y-101988952D01*
X116165523Y-101798476D01*
X116213142Y-101703238D01*
X116308380Y-101608000D01*
X116451238Y-101560380D01*
X116546476Y-101560380D01*
X116689333Y-101608000D01*
X116736952Y-101655619D01*
X117117904Y-101655619D02*
X117165523Y-101608000D01*
X117260761Y-101560380D01*
X117498857Y-101560380D01*
X117594095Y-101608000D01*
X117641714Y-101655619D01*
X117689333Y-101750857D01*
X117689333Y-101846095D01*
X117641714Y-101988952D01*
X117070285Y-102560380D01*
X117689333Y-102560380D01*
X118308380Y-101560380D02*
X118403619Y-101560380D01*
X118498857Y-101608000D01*
X118546476Y-101655619D01*
X118594095Y-101750857D01*
X118641714Y-101941333D01*
X118641714Y-102179428D01*
X118594095Y-102369904D01*
X118546476Y-102465142D01*
X118498857Y-102512761D01*
X118403619Y-102560380D01*
X118308380Y-102560380D01*
X118213142Y-102512761D01*
X118165523Y-102465142D01*
X118117904Y-102369904D01*
X118070285Y-102179428D01*
X118070285Y-101941333D01*
X118117904Y-101750857D01*
X118165523Y-101655619D01*
X118213142Y-101608000D01*
X118308380Y-101560380D01*
X119022666Y-101655619D02*
X119070285Y-101608000D01*
X119165523Y-101560380D01*
X119403619Y-101560380D01*
X119498857Y-101608000D01*
X119546476Y-101655619D01*
X119594095Y-101750857D01*
X119594095Y-101846095D01*
X119546476Y-101988952D01*
X118975047Y-102560380D01*
X119594095Y-102560380D01*
X93684362Y-124786567D02*
X93731981Y-124834186D01*
X93779600Y-124977043D01*
X93779600Y-125072281D01*
X93731981Y-125215139D01*
X93636743Y-125310377D01*
X93541505Y-125357996D01*
X93351029Y-125405615D01*
X93208172Y-125405615D01*
X93017696Y-125357996D01*
X92922458Y-125310377D01*
X92827220Y-125215139D01*
X92779600Y-125072281D01*
X92779600Y-124977043D01*
X92827220Y-124834186D01*
X92874839Y-124786567D01*
X93779600Y-123834186D02*
X93779600Y-124405615D01*
X93779600Y-124119900D02*
X92779600Y-124119900D01*
X92922458Y-124215139D01*
X93017696Y-124310377D01*
X93065315Y-124405615D01*
X92779600Y-123215139D02*
X92779600Y-123119900D01*
X92827220Y-123024662D01*
X92874839Y-122977043D01*
X92970077Y-122929424D01*
X93160553Y-122881805D01*
X93398648Y-122881805D01*
X93589124Y-122929424D01*
X93684362Y-122977043D01*
X93731981Y-123024662D01*
X93779600Y-123119900D01*
X93779600Y-123215139D01*
X93731981Y-123310377D01*
X93684362Y-123357996D01*
X93589124Y-123405615D01*
X93398648Y-123453234D01*
X93160553Y-123453234D01*
X92970077Y-123405615D01*
X92874839Y-123357996D01*
X92827220Y-123310377D01*
X92779600Y-123215139D01*
X92874839Y-122500853D02*
X92827220Y-122453234D01*
X92779600Y-122357996D01*
X92779600Y-122119900D01*
X92827220Y-122024662D01*
X92874839Y-121977043D01*
X92970077Y-121929424D01*
X93065315Y-121929424D01*
X93208172Y-121977043D01*
X93779600Y-122548472D01*
X93779600Y-121929424D01*
X71375542Y-130303447D02*
X71423161Y-130351066D01*
X71470780Y-130493923D01*
X71470780Y-130589161D01*
X71423161Y-130732019D01*
X71327923Y-130827257D01*
X71232685Y-130874876D01*
X71042209Y-130922495D01*
X70899352Y-130922495D01*
X70708876Y-130874876D01*
X70613638Y-130827257D01*
X70518400Y-130732019D01*
X70470780Y-130589161D01*
X70470780Y-130493923D01*
X70518400Y-130351066D01*
X70566019Y-130303447D01*
X71470780Y-129351066D02*
X71470780Y-129922495D01*
X71470780Y-129636780D02*
X70470780Y-129636780D01*
X70613638Y-129732019D01*
X70708876Y-129827257D01*
X70756495Y-129922495D01*
X70470780Y-128732019D02*
X70470780Y-128636780D01*
X70518400Y-128541542D01*
X70566019Y-128493923D01*
X70661257Y-128446304D01*
X70851733Y-128398685D01*
X71089828Y-128398685D01*
X71280304Y-128446304D01*
X71375542Y-128493923D01*
X71423161Y-128541542D01*
X71470780Y-128636780D01*
X71470780Y-128732019D01*
X71423161Y-128827257D01*
X71375542Y-128874876D01*
X71280304Y-128922495D01*
X71089828Y-128970114D01*
X70851733Y-128970114D01*
X70661257Y-128922495D01*
X70566019Y-128874876D01*
X70518400Y-128827257D01*
X70470780Y-128732019D01*
X71470780Y-127446304D02*
X71470780Y-128017733D01*
X71470780Y-127732019D02*
X70470780Y-127732019D01*
X70613638Y-127827257D01*
X70708876Y-127922495D01*
X70756495Y-128017733D01*
M02*
