G04 #@! TF.GenerationSoftware,KiCad,Pcbnew,(5.1.0)-1*
G04 #@! TF.CreationDate,2019-07-19T11:06:20-06:00*
G04 #@! TF.ProjectId,d4100_mod_board_full,64343130-305f-46d6-9f64-5f626f617264,rev?*
G04 #@! TF.SameCoordinates,Original*
G04 #@! TF.FileFunction,Soldermask,Top*
G04 #@! TF.FilePolarity,Negative*
%FSLAX46Y46*%
G04 Gerber Fmt 4.6, Leading zero omitted, Abs format (unit mm)*
G04 Created by KiCad (PCBNEW (5.1.0)-1) date 2019-07-19 11:06:20*
%MOMM*%
%LPD*%
G04 APERTURE LIST*
%ADD10C,0.100000*%
G04 APERTURE END LIST*
D10*
G36*
X128764800Y-101729410D02*
G01*
X128764800Y-101096200D01*
X129066450Y-101096200D01*
X129066450Y-101729410D01*
X128764800Y-101729410D01*
G37*
G36*
X128114800Y-101728860D02*
G01*
X128114800Y-101096200D01*
X128415714Y-101096200D01*
X128415714Y-101728860D01*
X128114800Y-101728860D01*
G37*
G36*
X127464800Y-101729360D02*
G01*
X127464800Y-101096200D01*
X127764535Y-101096200D01*
X127764535Y-101729360D01*
X127464800Y-101729360D01*
G37*
G36*
X126814800Y-101729650D02*
G01*
X126814800Y-101096200D01*
X127113745Y-101096200D01*
X127113745Y-101729650D01*
X126814800Y-101729650D01*
G37*
G36*
X126714800Y-103506299D02*
G01*
X126714800Y-101731200D01*
X129165020Y-101731200D01*
X129165020Y-103506299D01*
X126714800Y-103506299D01*
G37*
G36*
X128764800Y-104799690D02*
G01*
X128764800Y-104196200D01*
X129066920Y-104196200D01*
X129066920Y-104799690D01*
X128764800Y-104799690D01*
G37*
G36*
X126814800Y-104798420D02*
G01*
X126814800Y-104196200D01*
X127113808Y-104196200D01*
X127113808Y-104798420D01*
X126814800Y-104798420D01*
G37*
G36*
X128114800Y-104798990D02*
G01*
X128114800Y-104196200D01*
X128415517Y-104196200D01*
X128415517Y-104798990D01*
X128114800Y-104798990D01*
G37*
G36*
X127464800Y-104797500D02*
G01*
X127464800Y-104196200D01*
X127764677Y-104196200D01*
X127764677Y-104797500D01*
X127464800Y-104797500D01*
G37*
G36*
X113938656Y-137430898D02*
G01*
X114044979Y-137452047D01*
X114345442Y-137576503D01*
X114615851Y-137757185D01*
X114845815Y-137987149D01*
X115026497Y-138257558D01*
X115150953Y-138558021D01*
X115214400Y-138876991D01*
X115214400Y-139202209D01*
X115150953Y-139521179D01*
X115026497Y-139821642D01*
X114845815Y-140092051D01*
X114615851Y-140322015D01*
X114345442Y-140502697D01*
X114044979Y-140627153D01*
X113938656Y-140648302D01*
X113726011Y-140690600D01*
X113400789Y-140690600D01*
X113188144Y-140648302D01*
X113081821Y-140627153D01*
X112781358Y-140502697D01*
X112510949Y-140322015D01*
X112280985Y-140092051D01*
X112100303Y-139821642D01*
X111975847Y-139521179D01*
X111912400Y-139202209D01*
X111912400Y-138876991D01*
X111975847Y-138558021D01*
X112100303Y-138257558D01*
X112280985Y-137987149D01*
X112510949Y-137757185D01*
X112781358Y-137576503D01*
X113081821Y-137452047D01*
X113188144Y-137430898D01*
X113400789Y-137388600D01*
X113726011Y-137388600D01*
X113938656Y-137430898D01*
X113938656Y-137430898D01*
G37*
G36*
X75838656Y-137430898D02*
G01*
X75944979Y-137452047D01*
X76245442Y-137576503D01*
X76515851Y-137757185D01*
X76745815Y-137987149D01*
X76926497Y-138257558D01*
X77050953Y-138558021D01*
X77114400Y-138876991D01*
X77114400Y-139202209D01*
X77050953Y-139521179D01*
X76926497Y-139821642D01*
X76745815Y-140092051D01*
X76515851Y-140322015D01*
X76245442Y-140502697D01*
X75944979Y-140627153D01*
X75838656Y-140648302D01*
X75626011Y-140690600D01*
X75300789Y-140690600D01*
X75088144Y-140648302D01*
X74981821Y-140627153D01*
X74681358Y-140502697D01*
X74410949Y-140322015D01*
X74180985Y-140092051D01*
X74000303Y-139821642D01*
X73875847Y-139521179D01*
X73812400Y-139202209D01*
X73812400Y-138876991D01*
X73875847Y-138558021D01*
X74000303Y-138257558D01*
X74180985Y-137987149D01*
X74410949Y-137757185D01*
X74681358Y-137576503D01*
X74981821Y-137452047D01*
X75088144Y-137430898D01*
X75300789Y-137388600D01*
X75626011Y-137388600D01*
X75838656Y-137430898D01*
X75838656Y-137430898D01*
G37*
G36*
X75062600Y-133035400D02*
G01*
X72460600Y-133035400D01*
X72460600Y-130383400D01*
X75062600Y-130383400D01*
X75062600Y-133035400D01*
X75062600Y-133035400D01*
G37*
G36*
X134907600Y-132730600D02*
G01*
X133305600Y-132730600D01*
X133305600Y-131378600D01*
X134907600Y-131378600D01*
X134907600Y-132730600D01*
X134907600Y-132730600D01*
G37*
G36*
X137407600Y-132730600D02*
G01*
X135805600Y-132730600D01*
X135805600Y-131378600D01*
X137407600Y-131378600D01*
X137407600Y-132730600D01*
X137407600Y-132730600D01*
G37*
G36*
X123458400Y-132505800D02*
G01*
X122056400Y-132505800D01*
X122056400Y-130903800D01*
X123458400Y-130903800D01*
X123458400Y-132505800D01*
X123458400Y-132505800D01*
G37*
G36*
X130323400Y-132165800D02*
G01*
X128971400Y-132165800D01*
X128971400Y-130563800D01*
X130323400Y-130563800D01*
X130323400Y-132165800D01*
X130323400Y-132165800D01*
G37*
G36*
X125703700Y-131449600D02*
G01*
X124101700Y-131449600D01*
X124101700Y-130047600D01*
X125703700Y-130047600D01*
X125703700Y-131449600D01*
X125703700Y-131449600D01*
G37*
G36*
X128403700Y-131449600D02*
G01*
X126801700Y-131449600D01*
X126801700Y-130047600D01*
X128403700Y-130047600D01*
X128403700Y-131449600D01*
X128403700Y-131449600D01*
G37*
G36*
X213506656Y-128159898D02*
G01*
X213612979Y-128181047D01*
X213913442Y-128305503D01*
X214183851Y-128486185D01*
X214413815Y-128716149D01*
X214594497Y-128986558D01*
X214718953Y-129287021D01*
X214740102Y-129393344D01*
X214782400Y-129605989D01*
X214782400Y-129931211D01*
X214740102Y-130143856D01*
X214718953Y-130250179D01*
X214594497Y-130550642D01*
X214413815Y-130821051D01*
X214183851Y-131051015D01*
X213913442Y-131231697D01*
X213612979Y-131356153D01*
X213506656Y-131377302D01*
X213294011Y-131419600D01*
X212968789Y-131419600D01*
X212756144Y-131377302D01*
X212649821Y-131356153D01*
X212349358Y-131231697D01*
X212078949Y-131051015D01*
X211848985Y-130821051D01*
X211668303Y-130550642D01*
X211543847Y-130250179D01*
X211522698Y-130143856D01*
X211480400Y-129931211D01*
X211480400Y-129605989D01*
X211522698Y-129393344D01*
X211543847Y-129287021D01*
X211668303Y-128986558D01*
X211848985Y-128716149D01*
X212078949Y-128486185D01*
X212349358Y-128305503D01*
X212649821Y-128181047D01*
X212756144Y-128159898D01*
X212968789Y-128117600D01*
X213294011Y-128117600D01*
X213506656Y-128159898D01*
X213506656Y-128159898D01*
G37*
G36*
X61106656Y-128159898D02*
G01*
X61212979Y-128181047D01*
X61513442Y-128305503D01*
X61783851Y-128486185D01*
X62013815Y-128716149D01*
X62194497Y-128986558D01*
X62318953Y-129287021D01*
X62340102Y-129393344D01*
X62382400Y-129605989D01*
X62382400Y-129931211D01*
X62340102Y-130143856D01*
X62318953Y-130250179D01*
X62194497Y-130550642D01*
X62013815Y-130821051D01*
X61783851Y-131051015D01*
X61513442Y-131231697D01*
X61212979Y-131356153D01*
X61106656Y-131377302D01*
X60894011Y-131419600D01*
X60568789Y-131419600D01*
X60356144Y-131377302D01*
X60249821Y-131356153D01*
X59949358Y-131231697D01*
X59678949Y-131051015D01*
X59448985Y-130821051D01*
X59268303Y-130550642D01*
X59143847Y-130250179D01*
X59122698Y-130143856D01*
X59080400Y-129931211D01*
X59080400Y-129605989D01*
X59122698Y-129393344D01*
X59143847Y-129287021D01*
X59268303Y-128986558D01*
X59448985Y-128716149D01*
X59678949Y-128486185D01*
X59949358Y-128305503D01*
X60249821Y-128181047D01*
X60356144Y-128159898D01*
X60568789Y-128117600D01*
X60894011Y-128117600D01*
X61106656Y-128159898D01*
X61106656Y-128159898D01*
G37*
G36*
X101059276Y-128709384D02*
G01*
X101276569Y-128799390D01*
X101276571Y-128799391D01*
X101472130Y-128930060D01*
X101638440Y-129096370D01*
X101765830Y-129287021D01*
X101769110Y-129291931D01*
X101859116Y-129509224D01*
X101905000Y-129739900D01*
X101905000Y-129975100D01*
X101859116Y-130205776D01*
X101785541Y-130383400D01*
X101769109Y-130423071D01*
X101638440Y-130618630D01*
X101472130Y-130784940D01*
X101276571Y-130915609D01*
X101276570Y-130915610D01*
X101276569Y-130915610D01*
X101059276Y-131005616D01*
X100828600Y-131051500D01*
X100593400Y-131051500D01*
X100362724Y-131005616D01*
X100145431Y-130915610D01*
X100145430Y-130915610D01*
X100145429Y-130915609D01*
X99949870Y-130784940D01*
X99783560Y-130618630D01*
X99652891Y-130423071D01*
X99636459Y-130383400D01*
X99562884Y-130205776D01*
X99517000Y-129975100D01*
X99517000Y-129739900D01*
X99562884Y-129509224D01*
X99652890Y-129291931D01*
X99656171Y-129287021D01*
X99783560Y-129096370D01*
X99949870Y-128930060D01*
X100145429Y-128799391D01*
X100145431Y-128799390D01*
X100362724Y-128709384D01*
X100593400Y-128663500D01*
X100828600Y-128663500D01*
X101059276Y-128709384D01*
X101059276Y-128709384D01*
G37*
G36*
X79869600Y-130848000D02*
G01*
X78067600Y-130848000D01*
X78067600Y-129446000D01*
X79869600Y-129446000D01*
X79869600Y-130848000D01*
X79869600Y-130848000D01*
G37*
G36*
X135473800Y-130549600D02*
G01*
X134121800Y-130549600D01*
X134121800Y-128947600D01*
X135473800Y-128947600D01*
X135473800Y-130549600D01*
X135473800Y-130549600D01*
G37*
G36*
X123458400Y-129805800D02*
G01*
X122056400Y-129805800D01*
X122056400Y-128203800D01*
X123458400Y-128203800D01*
X123458400Y-129805800D01*
X123458400Y-129805800D01*
G37*
G36*
X130323400Y-129665800D02*
G01*
X128971400Y-129665800D01*
X128971400Y-128063800D01*
X130323400Y-128063800D01*
X130323400Y-129665800D01*
X130323400Y-129665800D01*
G37*
G36*
X128202900Y-129536000D02*
G01*
X126600900Y-129536000D01*
X126600900Y-128184000D01*
X128202900Y-128184000D01*
X128202900Y-129536000D01*
X128202900Y-129536000D01*
G37*
G36*
X125702900Y-129536000D02*
G01*
X124100900Y-129536000D01*
X124100900Y-128184000D01*
X125702900Y-128184000D01*
X125702900Y-129536000D01*
X125702900Y-129536000D01*
G37*
G36*
X111848860Y-128899540D02*
G01*
X110446860Y-128899540D01*
X110446860Y-127297540D01*
X111848860Y-127297540D01*
X111848860Y-128899540D01*
X111848860Y-128899540D01*
G37*
G36*
X113699960Y-128876740D02*
G01*
X112347960Y-128876740D01*
X112347960Y-127274740D01*
X113699960Y-127274740D01*
X113699960Y-128876740D01*
X113699960Y-128876740D01*
G37*
G36*
X121552600Y-128666200D02*
G01*
X119950600Y-128666200D01*
X119950600Y-127264200D01*
X121552600Y-127264200D01*
X121552600Y-128666200D01*
X121552600Y-128666200D01*
G37*
G36*
X118852600Y-128666200D02*
G01*
X117250600Y-128666200D01*
X117250600Y-127264200D01*
X118852600Y-127264200D01*
X118852600Y-128666200D01*
X118852600Y-128666200D01*
G37*
G36*
X135473800Y-128049600D02*
G01*
X134121800Y-128049600D01*
X134121800Y-126447600D01*
X135473800Y-126447600D01*
X135473800Y-128049600D01*
X135473800Y-128049600D01*
G37*
G36*
X75062600Y-127985400D02*
G01*
X72460600Y-127985400D01*
X72460600Y-125333400D01*
X75062600Y-125333400D01*
X75062600Y-127985400D01*
X75062600Y-127985400D01*
G37*
G36*
X101502780Y-127779680D02*
G01*
X99700780Y-127779680D01*
X99700780Y-126377680D01*
X101502780Y-126377680D01*
X101502780Y-127779680D01*
X101502780Y-127779680D01*
G37*
G36*
X133578800Y-127609800D02*
G01*
X132359200Y-127609800D01*
X132359200Y-127203000D01*
X133578800Y-127203000D01*
X133578800Y-127609800D01*
X133578800Y-127609800D01*
G37*
G36*
X127990800Y-127609800D02*
G01*
X126771200Y-127609800D01*
X126771200Y-127203000D01*
X127990800Y-127203000D01*
X127990800Y-127609800D01*
X127990800Y-127609800D01*
G37*
G36*
X97422220Y-127518520D02*
G01*
X94820220Y-127518520D01*
X94820220Y-124866520D01*
X97422220Y-124866520D01*
X97422220Y-127518520D01*
X97422220Y-127518520D01*
G37*
G36*
X131318000Y-127508000D02*
G01*
X128270000Y-127508000D01*
X128270000Y-122809000D01*
X131318000Y-122809000D01*
X131318000Y-127508000D01*
X131318000Y-127508000D01*
G37*
G36*
X79869600Y-127348000D02*
G01*
X78067600Y-127348000D01*
X78067600Y-125946000D01*
X79869600Y-125946000D01*
X79869600Y-127348000D01*
X79869600Y-127348000D01*
G37*
G36*
X133578800Y-126949400D02*
G01*
X132359200Y-126949400D01*
X132359200Y-126542600D01*
X133578800Y-126542600D01*
X133578800Y-126949400D01*
X133578800Y-126949400D01*
G37*
G36*
X127990800Y-126949400D02*
G01*
X126771200Y-126949400D01*
X126771200Y-126542600D01*
X127990800Y-126542600D01*
X127990800Y-126949400D01*
X127990800Y-126949400D01*
G37*
G36*
X122701000Y-126761600D02*
G01*
X121099000Y-126761600D01*
X121099000Y-125409600D01*
X122701000Y-125409600D01*
X122701000Y-126761600D01*
X122701000Y-126761600D01*
G37*
G36*
X120201000Y-126761600D02*
G01*
X118599000Y-126761600D01*
X118599000Y-125409600D01*
X120201000Y-125409600D01*
X120201000Y-126761600D01*
X120201000Y-126761600D01*
G37*
G36*
X113699960Y-126376740D02*
G01*
X112347960Y-126376740D01*
X112347960Y-124774740D01*
X113699960Y-124774740D01*
X113699960Y-126376740D01*
X113699960Y-126376740D01*
G37*
G36*
X133578800Y-126289000D02*
G01*
X132359200Y-126289000D01*
X132359200Y-125247200D01*
X133578800Y-125247200D01*
X133578800Y-126289000D01*
X133578800Y-126289000D01*
G37*
G36*
X127990800Y-126289000D02*
G01*
X126771200Y-126289000D01*
X126771200Y-125247200D01*
X127990800Y-125247200D01*
X127990800Y-126289000D01*
X127990800Y-126289000D01*
G37*
G36*
X111848860Y-126199540D02*
G01*
X110446860Y-126199540D01*
X110446860Y-124597540D01*
X111848860Y-124597540D01*
X111848860Y-126199540D01*
X111848860Y-126199540D01*
G37*
G36*
X127990800Y-124993600D02*
G01*
X126771200Y-124993600D01*
X126771200Y-123951800D01*
X127990800Y-123951800D01*
X127990800Y-124993600D01*
X127990800Y-124993600D01*
G37*
G36*
X133578800Y-124993600D02*
G01*
X132359200Y-124993600D01*
X132359200Y-123951800D01*
X133578800Y-123951800D01*
X133578800Y-124993600D01*
X133578800Y-124993600D01*
G37*
G36*
X125298400Y-124830800D02*
G01*
X123696400Y-124830800D01*
X123696400Y-123478800D01*
X125298400Y-123478800D01*
X125298400Y-124830800D01*
X125298400Y-124830800D01*
G37*
G36*
X122798400Y-124830800D02*
G01*
X121196400Y-124830800D01*
X121196400Y-123478800D01*
X122798400Y-123478800D01*
X122798400Y-124830800D01*
X122798400Y-124830800D01*
G37*
G36*
X101502780Y-124279680D02*
G01*
X99700780Y-124279680D01*
X99700780Y-122877680D01*
X101502780Y-122877680D01*
X101502780Y-124279680D01*
X101502780Y-124279680D01*
G37*
G36*
X114737760Y-124132300D02*
G01*
X113135760Y-124132300D01*
X113135760Y-122730300D01*
X114737760Y-122730300D01*
X114737760Y-124132300D01*
X114737760Y-124132300D01*
G37*
G36*
X112037760Y-124132300D02*
G01*
X110435760Y-124132300D01*
X110435760Y-122730300D01*
X112037760Y-122730300D01*
X112037760Y-124132300D01*
X112037760Y-124132300D01*
G37*
G36*
X79056400Y-124002000D02*
G01*
X76304400Y-124002000D01*
X76304400Y-121870000D01*
X79056400Y-121870000D01*
X79056400Y-124002000D01*
X79056400Y-124002000D01*
G37*
G36*
X74876400Y-124002000D02*
G01*
X72124400Y-124002000D01*
X72124400Y-121870000D01*
X74876400Y-121870000D01*
X74876400Y-124002000D01*
X74876400Y-124002000D01*
G37*
G36*
X67940305Y-123015413D02*
G01*
X68016614Y-123047021D01*
X68085286Y-123092906D01*
X68143694Y-123151314D01*
X68189579Y-123219986D01*
X68221187Y-123296295D01*
X68237300Y-123377301D01*
X68237300Y-123459899D01*
X68221187Y-123540905D01*
X68189579Y-123617214D01*
X68143694Y-123685886D01*
X68085286Y-123744294D01*
X68016614Y-123790179D01*
X67940305Y-123821787D01*
X67859299Y-123837900D01*
X67776701Y-123837900D01*
X67695695Y-123821787D01*
X67619386Y-123790179D01*
X67550714Y-123744294D01*
X67492306Y-123685886D01*
X67446421Y-123617214D01*
X67414813Y-123540905D01*
X67398700Y-123459899D01*
X67398700Y-123377301D01*
X67414813Y-123296295D01*
X67446421Y-123219986D01*
X67492306Y-123151314D01*
X67550714Y-123092906D01*
X67619386Y-123047021D01*
X67695695Y-123015413D01*
X67776701Y-122999300D01*
X67859299Y-122999300D01*
X67940305Y-123015413D01*
X67940305Y-123015413D01*
G37*
G36*
X133578800Y-123698200D02*
G01*
X132359200Y-123698200D01*
X132359200Y-123291400D01*
X133578800Y-123291400D01*
X133578800Y-123698200D01*
X133578800Y-123698200D01*
G37*
G36*
X127990800Y-123698200D02*
G01*
X126771200Y-123698200D01*
X126771200Y-123291400D01*
X127990800Y-123291400D01*
X127990800Y-123698200D01*
X127990800Y-123698200D01*
G37*
G36*
X133578800Y-123037800D02*
G01*
X132359200Y-123037800D01*
X132359200Y-122631000D01*
X133578800Y-122631000D01*
X133578800Y-123037800D01*
X133578800Y-123037800D01*
G37*
G36*
X127990800Y-123037800D02*
G01*
X126771200Y-123037800D01*
X126771200Y-122631000D01*
X127990800Y-122631000D01*
X127990800Y-123037800D01*
X127990800Y-123037800D01*
G37*
G36*
X97422220Y-122468520D02*
G01*
X94820220Y-122468520D01*
X94820220Y-119816520D01*
X97422220Y-119816520D01*
X97422220Y-122468520D01*
X97422220Y-122468520D01*
G37*
G36*
X134608400Y-122130800D02*
G01*
X133006400Y-122130800D01*
X133006400Y-120778800D01*
X134608400Y-120778800D01*
X134608400Y-122130800D01*
X134608400Y-122130800D01*
G37*
G36*
X132108400Y-122130800D02*
G01*
X130506400Y-122130800D01*
X130506400Y-120778800D01*
X132108400Y-120778800D01*
X132108400Y-122130800D01*
X132108400Y-122130800D01*
G37*
G36*
X101960000Y-121845540D02*
G01*
X99208000Y-121845540D01*
X99208000Y-119713540D01*
X101960000Y-119713540D01*
X101960000Y-121845540D01*
X101960000Y-121845540D01*
G37*
G36*
X106140000Y-121845540D02*
G01*
X103388000Y-121845540D01*
X103388000Y-119713540D01*
X106140000Y-119713540D01*
X106140000Y-121845540D01*
X106140000Y-121845540D01*
G37*
G36*
X123607400Y-121514800D02*
G01*
X118505400Y-121514800D01*
X118505400Y-119012800D01*
X123607400Y-119012800D01*
X123607400Y-121514800D01*
X123607400Y-121514800D01*
G37*
G36*
X125796400Y-120719800D02*
G01*
X124444400Y-120719800D01*
X124444400Y-119117800D01*
X125796400Y-119117800D01*
X125796400Y-120719800D01*
X125796400Y-120719800D01*
G37*
G36*
X115298180Y-120189880D02*
G01*
X113896180Y-120189880D01*
X113896180Y-118587880D01*
X115298180Y-118587880D01*
X115298180Y-120189880D01*
X115298180Y-120189880D01*
G37*
G36*
X131943720Y-119959840D02*
G01*
X128641720Y-119959840D01*
X128641720Y-119057840D01*
X131943720Y-119057840D01*
X131943720Y-119959840D01*
X131943720Y-119959840D01*
G37*
G36*
X131943720Y-118359840D02*
G01*
X128641720Y-118359840D01*
X128641720Y-117457840D01*
X131943720Y-117457840D01*
X131943720Y-118359840D01*
X131943720Y-118359840D01*
G37*
G36*
X125796400Y-118219800D02*
G01*
X124444400Y-118219800D01*
X124444400Y-116617800D01*
X125796400Y-116617800D01*
X125796400Y-118219800D01*
X125796400Y-118219800D01*
G37*
G36*
X95931105Y-117173413D02*
G01*
X96007414Y-117205021D01*
X96076086Y-117250906D01*
X96134494Y-117309314D01*
X96180379Y-117377986D01*
X96211987Y-117454295D01*
X96228100Y-117535301D01*
X96228100Y-117617899D01*
X96211987Y-117698905D01*
X96180379Y-117775214D01*
X96134494Y-117843886D01*
X96076086Y-117902294D01*
X96007414Y-117948179D01*
X95931105Y-117979787D01*
X95850099Y-117995900D01*
X95767501Y-117995900D01*
X95686495Y-117979787D01*
X95610186Y-117948179D01*
X95541514Y-117902294D01*
X95483106Y-117843886D01*
X95437221Y-117775214D01*
X95405613Y-117698905D01*
X95389500Y-117617899D01*
X95389500Y-117535301D01*
X95405613Y-117454295D01*
X95437221Y-117377986D01*
X95483106Y-117309314D01*
X95541514Y-117250906D01*
X95610186Y-117205021D01*
X95686495Y-117173413D01*
X95767501Y-117157300D01*
X95850099Y-117157300D01*
X95931105Y-117173413D01*
X95931105Y-117173413D01*
G37*
G36*
X115298180Y-117489880D02*
G01*
X113896180Y-117489880D01*
X113896180Y-115887880D01*
X115298180Y-115887880D01*
X115298180Y-117489880D01*
X115298180Y-117489880D01*
G37*
G36*
X112199780Y-117422880D02*
G01*
X110847780Y-117422880D01*
X110847780Y-115820880D01*
X112199780Y-115820880D01*
X112199780Y-117422880D01*
X112199780Y-117422880D01*
G37*
G36*
X132079200Y-116626100D02*
G01*
X128677200Y-116626100D01*
X128677200Y-114024100D01*
X132079200Y-114024100D01*
X132079200Y-116626100D01*
X132079200Y-116626100D01*
G37*
G36*
X115298180Y-115338480D02*
G01*
X113896180Y-115338480D01*
X113896180Y-113736480D01*
X115298180Y-113736480D01*
X115298180Y-115338480D01*
X115298180Y-115338480D01*
G37*
G36*
X112199780Y-114922880D02*
G01*
X110847780Y-114922880D01*
X110847780Y-113320880D01*
X112199780Y-113320880D01*
X112199780Y-114922880D01*
X112199780Y-114922880D01*
G37*
G36*
X123607400Y-114514800D02*
G01*
X118505400Y-114514800D01*
X118505400Y-112012800D01*
X123607400Y-112012800D01*
X123607400Y-114514800D01*
X123607400Y-114514800D01*
G37*
G36*
X112199380Y-112820080D02*
G01*
X110797380Y-112820080D01*
X110797380Y-111218080D01*
X112199380Y-111218080D01*
X112199380Y-112820080D01*
X112199380Y-112820080D01*
G37*
G36*
X115298180Y-112638480D02*
G01*
X113896180Y-112638480D01*
X113896180Y-111036480D01*
X115298180Y-111036480D01*
X115298180Y-112638480D01*
X115298180Y-112638480D01*
G37*
G36*
X135626200Y-111494200D02*
G01*
X134274200Y-111494200D01*
X134274200Y-109892200D01*
X135626200Y-109892200D01*
X135626200Y-111494200D01*
X135626200Y-111494200D01*
G37*
G36*
X112199380Y-110120080D02*
G01*
X110797380Y-110120080D01*
X110797380Y-108518080D01*
X112199380Y-108518080D01*
X112199380Y-110120080D01*
X112199380Y-110120080D01*
G37*
G36*
X132079200Y-109826100D02*
G01*
X128677200Y-109826100D01*
X128677200Y-107224100D01*
X132079200Y-107224100D01*
X132079200Y-109826100D01*
X132079200Y-109826100D01*
G37*
G36*
X126018600Y-109751000D02*
G01*
X122966600Y-109751000D01*
X122966600Y-106149000D01*
X126018600Y-106149000D01*
X126018600Y-109751000D01*
X126018600Y-109751000D01*
G37*
G36*
X120568600Y-109751000D02*
G01*
X117516600Y-109751000D01*
X117516600Y-106149000D01*
X120568600Y-106149000D01*
X120568600Y-109751000D01*
X120568600Y-109751000D01*
G37*
G36*
X135626200Y-108994200D02*
G01*
X134274200Y-108994200D01*
X134274200Y-107392200D01*
X135626200Y-107392200D01*
X135626200Y-108994200D01*
X135626200Y-108994200D01*
G37*
G36*
X129165800Y-104897200D02*
G01*
X126713800Y-104897200D01*
X126713800Y-104095200D01*
X129165800Y-104095200D01*
X129165800Y-104897200D01*
X129165800Y-104897200D01*
G37*
G36*
X129265800Y-103607200D02*
G01*
X126613800Y-103607200D01*
X126613800Y-100995200D01*
X129265800Y-100995200D01*
X129265800Y-103607200D01*
X129265800Y-103607200D01*
G37*
G36*
X124161500Y-102847500D02*
G01*
X122559500Y-102847500D01*
X122559500Y-101495500D01*
X124161500Y-101495500D01*
X124161500Y-102847500D01*
X124161500Y-102847500D01*
G37*
G36*
X121661500Y-102847500D02*
G01*
X120059500Y-102847500D01*
X120059500Y-101495500D01*
X121661500Y-101495500D01*
X121661500Y-102847500D01*
X121661500Y-102847500D01*
G37*
G36*
X124174200Y-100879000D02*
G01*
X122572200Y-100879000D01*
X122572200Y-99527000D01*
X124174200Y-99527000D01*
X124174200Y-100879000D01*
X124174200Y-100879000D01*
G37*
G36*
X121674200Y-100879000D02*
G01*
X120072200Y-100879000D01*
X120072200Y-99527000D01*
X121674200Y-99527000D01*
X121674200Y-100879000D01*
X121674200Y-100879000D01*
G37*
G36*
X101227842Y-98902118D02*
G01*
X101294027Y-98908637D01*
X101463866Y-98960157D01*
X101620391Y-99043822D01*
X101656129Y-99073152D01*
X101757586Y-99156414D01*
X101840848Y-99257871D01*
X101870178Y-99293609D01*
X101953843Y-99450134D01*
X102005363Y-99619973D01*
X102022759Y-99796600D01*
X102005363Y-99973227D01*
X101953843Y-100143066D01*
X101870178Y-100299591D01*
X101840848Y-100335329D01*
X101757586Y-100436786D01*
X101656129Y-100520048D01*
X101620391Y-100549378D01*
X101463866Y-100633043D01*
X101294027Y-100684563D01*
X101227842Y-100691082D01*
X101161660Y-100697600D01*
X101073140Y-100697600D01*
X101006957Y-100691081D01*
X100940773Y-100684563D01*
X100770934Y-100633043D01*
X100614409Y-100549378D01*
X100578671Y-100520048D01*
X100477214Y-100436786D01*
X100393952Y-100335329D01*
X100364622Y-100299591D01*
X100280957Y-100143066D01*
X100229437Y-99973227D01*
X100212041Y-99796600D01*
X100229437Y-99619973D01*
X100280957Y-99450134D01*
X100364622Y-99293609D01*
X100393952Y-99257871D01*
X100477214Y-99156414D01*
X100578671Y-99073152D01*
X100614409Y-99043822D01*
X100770934Y-98960157D01*
X100940773Y-98908637D01*
X101006957Y-98902119D01*
X101073140Y-98895600D01*
X101161660Y-98895600D01*
X101227842Y-98902118D01*
X101227842Y-98902118D01*
G37*
G36*
X99478400Y-100697600D02*
G01*
X97676400Y-100697600D01*
X97676400Y-98895600D01*
X99478400Y-98895600D01*
X99478400Y-100697600D01*
X99478400Y-100697600D01*
G37*
G36*
X113790000Y-94476000D02*
G01*
X112508000Y-94476000D01*
X112508000Y-89674000D01*
X113790000Y-89674000D01*
X113790000Y-94476000D01*
X113790000Y-94476000D01*
G37*
G36*
X117100000Y-94476000D02*
G01*
X115818000Y-94476000D01*
X115818000Y-89674000D01*
X117100000Y-89674000D01*
X117100000Y-94476000D01*
X117100000Y-94476000D01*
G37*
G36*
X106765000Y-93298000D02*
G01*
X101803000Y-93298000D01*
X101803000Y-89836000D01*
X106765000Y-89836000D01*
X106765000Y-93298000D01*
X106765000Y-93298000D01*
G37*
G36*
X109017000Y-93233000D02*
G01*
X107515000Y-93233000D01*
X107515000Y-91741000D01*
X109017000Y-91741000D01*
X109017000Y-93233000D01*
X109017000Y-93233000D01*
G37*
G36*
X94831000Y-92651000D02*
G01*
X93129000Y-92651000D01*
X93129000Y-89549000D01*
X94831000Y-89549000D01*
X94831000Y-92651000D01*
X94831000Y-92651000D01*
G37*
G36*
X109017000Y-91393000D02*
G01*
X107515000Y-91393000D01*
X107515000Y-89901000D01*
X109017000Y-89901000D01*
X109017000Y-91393000D01*
X109017000Y-91393000D01*
G37*
G36*
X88560000Y-91078000D02*
G01*
X87208000Y-91078000D01*
X87208000Y-89476000D01*
X88560000Y-89476000D01*
X88560000Y-91078000D01*
X88560000Y-91078000D01*
G37*
G36*
X99811800Y-90543000D02*
G01*
X98409800Y-90543000D01*
X98409800Y-88941000D01*
X99811800Y-88941000D01*
X99811800Y-90543000D01*
X99811800Y-90543000D01*
G37*
G36*
X134926564Y-87889389D02*
G01*
X135117833Y-87968615D01*
X135117835Y-87968616D01*
X135289973Y-88083635D01*
X135436365Y-88230027D01*
X135551385Y-88402167D01*
X135630611Y-88593436D01*
X135671000Y-88796484D01*
X135671000Y-89003516D01*
X135630611Y-89206564D01*
X135551385Y-89397833D01*
X135551384Y-89397835D01*
X135436365Y-89569973D01*
X135289973Y-89716365D01*
X135117835Y-89831384D01*
X135117834Y-89831385D01*
X135117833Y-89831385D01*
X134926564Y-89910611D01*
X134723516Y-89951000D01*
X134516484Y-89951000D01*
X134313436Y-89910611D01*
X134122167Y-89831385D01*
X134122166Y-89831385D01*
X134122165Y-89831384D01*
X133950027Y-89716365D01*
X133803635Y-89569973D01*
X133688616Y-89397835D01*
X133688615Y-89397833D01*
X133609389Y-89206564D01*
X133569000Y-89003516D01*
X133569000Y-88796484D01*
X133609389Y-88593436D01*
X133688615Y-88402167D01*
X133803635Y-88230027D01*
X133950027Y-88083635D01*
X134122165Y-87968616D01*
X134122167Y-87968615D01*
X134313436Y-87889389D01*
X134516484Y-87849000D01*
X134723516Y-87849000D01*
X134926564Y-87889389D01*
X134926564Y-87889389D01*
G37*
G36*
X118595500Y-88906300D02*
G01*
X117243500Y-88906300D01*
X117243500Y-87304300D01*
X118595500Y-87304300D01*
X118595500Y-88906300D01*
X118595500Y-88906300D01*
G37*
G36*
X122024500Y-88906300D02*
G01*
X120672500Y-88906300D01*
X120672500Y-87304300D01*
X122024500Y-87304300D01*
X122024500Y-88906300D01*
X122024500Y-88906300D01*
G37*
G36*
X88560000Y-88578000D02*
G01*
X87208000Y-88578000D01*
X87208000Y-86976000D01*
X88560000Y-86976000D01*
X88560000Y-88578000D01*
X88560000Y-88578000D01*
G37*
G36*
X94831000Y-88251000D02*
G01*
X93129000Y-88251000D01*
X93129000Y-85149000D01*
X94831000Y-85149000D01*
X94831000Y-88251000D01*
X94831000Y-88251000D01*
G37*
G36*
X99811800Y-87843000D02*
G01*
X98409800Y-87843000D01*
X98409800Y-86241000D01*
X99811800Y-86241000D01*
X99811800Y-87843000D01*
X99811800Y-87843000D01*
G37*
G36*
X122024500Y-86406300D02*
G01*
X120672500Y-86406300D01*
X120672500Y-84804300D01*
X122024500Y-84804300D01*
X122024500Y-86406300D01*
X122024500Y-86406300D01*
G37*
G36*
X118595500Y-86406300D02*
G01*
X117243500Y-86406300D01*
X117243500Y-84804300D01*
X118595500Y-84804300D01*
X118595500Y-86406300D01*
X118595500Y-86406300D01*
G37*
G36*
X101131000Y-85791000D02*
G01*
X99529000Y-85791000D01*
X99529000Y-84389000D01*
X101131000Y-84389000D01*
X101131000Y-85791000D01*
X101131000Y-85791000D01*
G37*
G36*
X98431000Y-85791000D02*
G01*
X96829000Y-85791000D01*
X96829000Y-84389000D01*
X98431000Y-84389000D01*
X98431000Y-85791000D01*
X98431000Y-85791000D01*
G37*
G36*
X105777000Y-85264000D02*
G01*
X104105000Y-85264000D01*
X104105000Y-80852000D01*
X105777000Y-80852000D01*
X105777000Y-85264000D01*
X105777000Y-85264000D01*
G37*
G36*
X111517000Y-85264000D02*
G01*
X109845000Y-85264000D01*
X109845000Y-80852000D01*
X111517000Y-80852000D01*
X111517000Y-85264000D01*
X111517000Y-85264000D01*
G37*
G36*
X134926564Y-82809389D02*
G01*
X135117833Y-82888615D01*
X135117835Y-82888616D01*
X135289973Y-83003635D01*
X135436365Y-83150027D01*
X135551385Y-83322167D01*
X135630611Y-83513436D01*
X135671000Y-83716484D01*
X135671000Y-83923516D01*
X135630611Y-84126564D01*
X135573683Y-84264000D01*
X135551384Y-84317835D01*
X135436365Y-84489973D01*
X135289973Y-84636365D01*
X135117835Y-84751384D01*
X135117834Y-84751385D01*
X135117833Y-84751385D01*
X134926564Y-84830611D01*
X134723516Y-84871000D01*
X134516484Y-84871000D01*
X134313436Y-84830611D01*
X134122167Y-84751385D01*
X134122166Y-84751385D01*
X134122165Y-84751384D01*
X133950027Y-84636365D01*
X133803635Y-84489973D01*
X133688616Y-84317835D01*
X133666317Y-84264000D01*
X133609389Y-84126564D01*
X133569000Y-83923516D01*
X133569000Y-83716484D01*
X133609389Y-83513436D01*
X133688615Y-83322167D01*
X133803635Y-83150027D01*
X133950027Y-83003635D01*
X134122165Y-82888616D01*
X134122167Y-82888615D01*
X134313436Y-82809389D01*
X134516484Y-82769000D01*
X134723516Y-82769000D01*
X134926564Y-82809389D01*
X134926564Y-82809389D01*
G37*
G36*
X114976000Y-84621000D02*
G01*
X113624000Y-84621000D01*
X113624000Y-83019000D01*
X114976000Y-83019000D01*
X114976000Y-84621000D01*
X114976000Y-84621000D01*
G37*
G36*
X109092000Y-84264000D02*
G01*
X106530000Y-84264000D01*
X106530000Y-81852000D01*
X109092000Y-81852000D01*
X109092000Y-84264000D01*
X109092000Y-84264000D01*
G37*
G36*
X102107000Y-83124000D02*
G01*
X100505000Y-83124000D01*
X100505000Y-81722000D01*
X102107000Y-81722000D01*
X102107000Y-83124000D01*
X102107000Y-83124000D01*
G37*
G36*
X99407000Y-83124000D02*
G01*
X97805000Y-83124000D01*
X97805000Y-81722000D01*
X99407000Y-81722000D01*
X99407000Y-83124000D01*
X99407000Y-83124000D01*
G37*
G36*
X114976000Y-82121000D02*
G01*
X113624000Y-82121000D01*
X113624000Y-80519000D01*
X114976000Y-80519000D01*
X114976000Y-82121000D01*
X114976000Y-82121000D01*
G37*
G36*
X103417000Y-79949000D02*
G01*
X101815000Y-79949000D01*
X101815000Y-78547000D01*
X103417000Y-78547000D01*
X103417000Y-79949000D01*
X103417000Y-79949000D01*
G37*
G36*
X100717000Y-79949000D02*
G01*
X99115000Y-79949000D01*
X99115000Y-78547000D01*
X100717000Y-78547000D01*
X100717000Y-79949000D01*
X100717000Y-79949000D01*
G37*
G36*
X110549000Y-79924000D02*
G01*
X108947000Y-79924000D01*
X108947000Y-78572000D01*
X110549000Y-78572000D01*
X110549000Y-79924000D01*
X110549000Y-79924000D01*
G37*
G36*
X96071000Y-79924000D02*
G01*
X94469000Y-79924000D01*
X94469000Y-78572000D01*
X96071000Y-78572000D01*
X96071000Y-79924000D01*
X96071000Y-79924000D01*
G37*
G36*
X98571000Y-79924000D02*
G01*
X96969000Y-79924000D01*
X96969000Y-78572000D01*
X98571000Y-78572000D01*
X98571000Y-79924000D01*
X98571000Y-79924000D01*
G37*
G36*
X105596000Y-79924000D02*
G01*
X103994000Y-79924000D01*
X103994000Y-78572000D01*
X105596000Y-78572000D01*
X105596000Y-79924000D01*
X105596000Y-79924000D01*
G37*
G36*
X108096000Y-79924000D02*
G01*
X106494000Y-79924000D01*
X106494000Y-78572000D01*
X108096000Y-78572000D01*
X108096000Y-79924000D01*
X108096000Y-79924000D01*
G37*
G36*
X113049000Y-79924000D02*
G01*
X111447000Y-79924000D01*
X111447000Y-78572000D01*
X113049000Y-78572000D01*
X113049000Y-79924000D01*
X113049000Y-79924000D01*
G37*
G36*
X162706656Y-51959898D02*
G01*
X162812979Y-51981047D01*
X163113442Y-52105503D01*
X163383851Y-52286185D01*
X163613815Y-52516149D01*
X163794497Y-52786558D01*
X163918953Y-53087021D01*
X163982400Y-53405991D01*
X163982400Y-53731209D01*
X163918953Y-54050179D01*
X163794497Y-54350642D01*
X163613815Y-54621051D01*
X163383851Y-54851015D01*
X163113442Y-55031697D01*
X162812979Y-55156153D01*
X162706656Y-55177302D01*
X162494011Y-55219600D01*
X162168789Y-55219600D01*
X161956144Y-55177302D01*
X161849821Y-55156153D01*
X161549358Y-55031697D01*
X161278949Y-54851015D01*
X161048985Y-54621051D01*
X160868303Y-54350642D01*
X160743847Y-54050179D01*
X160680400Y-53731209D01*
X160680400Y-53405991D01*
X160743847Y-53087021D01*
X160868303Y-52786558D01*
X161048985Y-52516149D01*
X161278949Y-52286185D01*
X161549358Y-52105503D01*
X161849821Y-51981047D01*
X161956144Y-51959898D01*
X162168789Y-51917600D01*
X162494011Y-51917600D01*
X162706656Y-51959898D01*
X162706656Y-51959898D01*
G37*
G36*
X61106656Y-51959898D02*
G01*
X61212979Y-51981047D01*
X61513442Y-52105503D01*
X61783851Y-52286185D01*
X62013815Y-52516149D01*
X62194497Y-52786558D01*
X62318953Y-53087021D01*
X62382400Y-53405991D01*
X62382400Y-53731209D01*
X62318953Y-54050179D01*
X62194497Y-54350642D01*
X62013815Y-54621051D01*
X61783851Y-54851015D01*
X61513442Y-55031697D01*
X61212979Y-55156153D01*
X61106656Y-55177302D01*
X60894011Y-55219600D01*
X60568789Y-55219600D01*
X60356144Y-55177302D01*
X60249821Y-55156153D01*
X59949358Y-55031697D01*
X59678949Y-54851015D01*
X59448985Y-54621051D01*
X59268303Y-54350642D01*
X59143847Y-54050179D01*
X59080400Y-53731209D01*
X59080400Y-53405991D01*
X59143847Y-53087021D01*
X59268303Y-52786558D01*
X59448985Y-52516149D01*
X59678949Y-52286185D01*
X59949358Y-52105503D01*
X60249821Y-51981047D01*
X60356144Y-51959898D01*
X60568789Y-51917600D01*
X60894011Y-51917600D01*
X61106656Y-51959898D01*
X61106656Y-51959898D01*
G37*
M02*
