G04 #@! TF.GenerationSoftware,KiCad,Pcbnew,(5.1.0)-1*
G04 #@! TF.CreationDate,2019-07-19T11:06:20-06:00*
G04 #@! TF.ProjectId,d4100_mod_board_full,64343130-305f-46d6-9f64-5f626f617264,rev?*
G04 #@! TF.SameCoordinates,Original*
G04 #@! TF.FileFunction,Copper,L2,Bot*
G04 #@! TF.FilePolarity,Positive*
%FSLAX46Y46*%
G04 Gerber Fmt 4.6, Leading zero omitted, Abs format (unit mm)*
G04 Created by KiCad (PCBNEW (5.1.0)-1) date 2019-07-19 11:06:20*
%MOMM*%
%LPD*%
G04 APERTURE LIST*
%ADD10C,0.203200*%
%ADD11C,2.286000*%
%ADD12O,1.700000X1.700000*%
%ADD13R,1.700000X1.700000*%
%ADD14C,2.000000*%
%ADD15C,0.736600*%
%ADD16C,0.800000*%
%ADD17C,0.508000*%
%ADD18C,0.203200*%
%ADD19C,0.254000*%
%ADD20C,0.139700*%
%ADD21C,0.127000*%
G04 APERTURE END LIST*
D10*
X137185400Y-124790200D03*
D11*
X100711000Y-129857500D03*
D12*
X101117400Y-99796600D03*
D13*
X98577400Y-99796600D03*
D14*
X134620000Y-83820000D03*
X134620000Y-88900000D03*
D15*
X95808800Y-117576600D03*
X67818000Y-123418600D03*
D16*
X107188000Y-81280000D03*
X108458000Y-81280000D03*
X107188000Y-84836000D03*
X108458000Y-84836000D03*
X108458000Y-83566000D03*
X107188000Y-83566000D03*
X107188000Y-82550000D03*
X108458000Y-82550000D03*
X127939800Y-102311200D03*
X127076200Y-103124000D03*
X128803400Y-103124000D03*
X127076200Y-101473000D03*
X128803400Y-101473000D03*
X116763800Y-125526800D03*
X120777000Y-130606800D03*
X130276600Y-126949200D03*
X129032000Y-126949200D03*
X128905000Y-123342400D03*
X130251200Y-123291600D03*
X127441960Y-121066560D03*
X115483640Y-126806960D03*
X118765720Y-124154800D03*
X133400800Y-130581400D03*
X132664200Y-129717800D03*
X132613400Y-131902200D03*
X133466840Y-106344720D03*
X127238760Y-110068360D03*
X125920500Y-132270500D03*
X109164120Y-116900960D03*
X103174800Y-83845400D03*
X103098600Y-81127600D03*
X102616000Y-92456000D03*
X105918000Y-92456000D03*
X105918000Y-90678000D03*
X102616000Y-90678000D03*
X105156000Y-94488000D03*
X103378000Y-94488000D03*
X101600000Y-94488000D03*
X100584000Y-93218000D03*
X100584000Y-91440000D03*
X133116320Y-112669320D03*
D17*
X133365393Y-118370350D03*
X136097400Y-125425200D03*
X133365393Y-119056150D03*
X136097400Y-126111000D03*
D16*
X140868400Y-128600200D03*
X133350000Y-128651000D03*
D18*
X137185400Y-108197115D02*
X137185400Y-124790200D01*
X134772400Y-106349800D02*
X135338085Y-106349800D01*
X135338085Y-106349800D02*
X137185400Y-108197115D01*
D19*
X125520501Y-132670499D02*
X112566399Y-132670499D01*
X125920500Y-132270500D02*
X125520501Y-132670499D01*
X109164120Y-129268220D02*
X109164120Y-116900960D01*
X112566399Y-132670499D02*
X109164120Y-129268220D01*
X103174800Y-83845400D02*
X103174800Y-81203800D01*
X103174800Y-81203800D02*
X103098600Y-81127600D01*
D20*
X136097400Y-121102357D02*
X133889244Y-118894201D01*
X136097400Y-125425200D02*
X136097400Y-121102357D01*
X133527342Y-118532299D02*
X133365393Y-118370350D01*
X133616842Y-118532299D02*
X133527342Y-118532299D01*
X133889244Y-118894201D02*
X133889244Y-118804701D01*
X133889244Y-118804701D02*
X133616842Y-118532299D01*
X133602180Y-119056150D02*
X133365393Y-119056150D01*
X135573549Y-125173751D02*
X135779900Y-124967400D01*
X135845951Y-125949051D02*
X135573549Y-125676649D01*
X135935451Y-125949051D02*
X135845951Y-125949051D01*
X136097400Y-126111000D02*
X135935451Y-125949051D01*
X135779900Y-121233870D02*
X133602180Y-119056150D01*
X135573549Y-125676649D02*
X135573549Y-125173751D01*
X135779900Y-124967400D02*
X135779900Y-121233870D01*
D19*
X133858000Y-128143000D02*
X140411200Y-128143000D01*
X133350000Y-128651000D02*
X133858000Y-128143000D01*
X140411200Y-128143000D02*
X140868400Y-128600200D01*
D21*
G36*
X126313545Y-118536606D02*
G01*
X126395594Y-118618655D01*
X126500804Y-118699386D01*
X126601298Y-118757406D01*
X126723818Y-118808155D01*
X126835900Y-118838187D01*
X126967380Y-118855497D01*
X127025400Y-118859300D01*
X132692365Y-118859300D01*
X132666893Y-118987354D01*
X132666893Y-119124946D01*
X132693736Y-119259895D01*
X132746390Y-119387014D01*
X132822832Y-119501418D01*
X132920125Y-119598711D01*
X133034529Y-119675153D01*
X133161648Y-119727807D01*
X133296597Y-119754650D01*
X133434189Y-119754650D01*
X133550203Y-119731573D01*
X134073900Y-120255270D01*
X134073900Y-125286966D01*
X134033998Y-125477721D01*
X132978226Y-127890914D01*
X132949979Y-127902614D01*
X132811663Y-127995034D01*
X132694034Y-128112663D01*
X132601614Y-128250979D01*
X132537954Y-128404668D01*
X132505500Y-128567824D01*
X132505500Y-128734176D01*
X132537954Y-128897332D01*
X132601614Y-129051021D01*
X132694034Y-129189337D01*
X132811663Y-129306966D01*
X132949979Y-129399386D01*
X133103668Y-129463046D01*
X133266824Y-129495500D01*
X133433176Y-129495500D01*
X133596332Y-129463046D01*
X133750021Y-129399386D01*
X133824681Y-129349500D01*
X135530235Y-129349500D01*
X135649306Y-129365176D01*
X135756373Y-129409524D01*
X135848321Y-129480079D01*
X135918876Y-129572027D01*
X135963224Y-129679094D01*
X135978900Y-129798165D01*
X135978900Y-131872635D01*
X135963224Y-131991706D01*
X135918876Y-132098773D01*
X135848321Y-132190721D01*
X135756373Y-132261276D01*
X135649306Y-132305624D01*
X135530235Y-132321300D01*
X126765000Y-132321300D01*
X126765000Y-132187324D01*
X126732546Y-132024168D01*
X126668886Y-131870479D01*
X126576466Y-131732163D01*
X126458837Y-131614534D01*
X126320521Y-131522114D01*
X126166832Y-131458454D01*
X126003676Y-131426000D01*
X125837324Y-131426000D01*
X125674168Y-131458454D01*
X125520479Y-131522114D01*
X125382163Y-131614534D01*
X125264534Y-131732163D01*
X125172114Y-131870479D01*
X125108454Y-132024168D01*
X125093569Y-132098999D01*
X121263873Y-132098999D01*
X118409838Y-128952819D01*
X118403473Y-128946714D01*
X118295352Y-128856557D01*
X118280405Y-128847269D01*
X118151692Y-128790248D01*
X118134770Y-128785419D01*
X117995350Y-128765913D01*
X117986552Y-128765300D01*
X109735620Y-128765300D01*
X109735620Y-118478300D01*
X126268805Y-118478300D01*
X126313545Y-118536606D01*
X126313545Y-118536606D01*
G37*
X126313545Y-118536606D02*
X126395594Y-118618655D01*
X126500804Y-118699386D01*
X126601298Y-118757406D01*
X126723818Y-118808155D01*
X126835900Y-118838187D01*
X126967380Y-118855497D01*
X127025400Y-118859300D01*
X132692365Y-118859300D01*
X132666893Y-118987354D01*
X132666893Y-119124946D01*
X132693736Y-119259895D01*
X132746390Y-119387014D01*
X132822832Y-119501418D01*
X132920125Y-119598711D01*
X133034529Y-119675153D01*
X133161648Y-119727807D01*
X133296597Y-119754650D01*
X133434189Y-119754650D01*
X133550203Y-119731573D01*
X134073900Y-120255270D01*
X134073900Y-125286966D01*
X134033998Y-125477721D01*
X132978226Y-127890914D01*
X132949979Y-127902614D01*
X132811663Y-127995034D01*
X132694034Y-128112663D01*
X132601614Y-128250979D01*
X132537954Y-128404668D01*
X132505500Y-128567824D01*
X132505500Y-128734176D01*
X132537954Y-128897332D01*
X132601614Y-129051021D01*
X132694034Y-129189337D01*
X132811663Y-129306966D01*
X132949979Y-129399386D01*
X133103668Y-129463046D01*
X133266824Y-129495500D01*
X133433176Y-129495500D01*
X133596332Y-129463046D01*
X133750021Y-129399386D01*
X133824681Y-129349500D01*
X135530235Y-129349500D01*
X135649306Y-129365176D01*
X135756373Y-129409524D01*
X135848321Y-129480079D01*
X135918876Y-129572027D01*
X135963224Y-129679094D01*
X135978900Y-129798165D01*
X135978900Y-131872635D01*
X135963224Y-131991706D01*
X135918876Y-132098773D01*
X135848321Y-132190721D01*
X135756373Y-132261276D01*
X135649306Y-132305624D01*
X135530235Y-132321300D01*
X126765000Y-132321300D01*
X126765000Y-132187324D01*
X126732546Y-132024168D01*
X126668886Y-131870479D01*
X126576466Y-131732163D01*
X126458837Y-131614534D01*
X126320521Y-131522114D01*
X126166832Y-131458454D01*
X126003676Y-131426000D01*
X125837324Y-131426000D01*
X125674168Y-131458454D01*
X125520479Y-131522114D01*
X125382163Y-131614534D01*
X125264534Y-131732163D01*
X125172114Y-131870479D01*
X125108454Y-132024168D01*
X125093569Y-132098999D01*
X121263873Y-132098999D01*
X118409838Y-128952819D01*
X118403473Y-128946714D01*
X118295352Y-128856557D01*
X118280405Y-128847269D01*
X118151692Y-128790248D01*
X118134770Y-128785419D01*
X117995350Y-128765913D01*
X117986552Y-128765300D01*
X109735620Y-128765300D01*
X109735620Y-118478300D01*
X126268805Y-118478300D01*
X126313545Y-118536606D01*
G36*
X106286906Y-88979176D02*
G01*
X106393973Y-89023524D01*
X106485921Y-89094079D01*
X106556476Y-89186027D01*
X106600824Y-89293094D01*
X106616500Y-89412165D01*
X106616500Y-94737835D01*
X106600824Y-94856906D01*
X106556476Y-94963973D01*
X106485921Y-95055921D01*
X106393973Y-95126476D01*
X106286906Y-95170824D01*
X106167835Y-95186500D01*
X84332165Y-95186500D01*
X84213094Y-95170824D01*
X84106027Y-95126476D01*
X84014079Y-95055921D01*
X83943524Y-94963973D01*
X83899176Y-94856906D01*
X83883500Y-94737835D01*
X83883500Y-89412165D01*
X83899176Y-89293094D01*
X83943524Y-89186027D01*
X84014079Y-89094079D01*
X84106027Y-89023524D01*
X84213094Y-88979176D01*
X84332165Y-88963500D01*
X106167835Y-88963500D01*
X106286906Y-88979176D01*
X106286906Y-88979176D01*
G37*
X106286906Y-88979176D02*
X106393973Y-89023524D01*
X106485921Y-89094079D01*
X106556476Y-89186027D01*
X106600824Y-89293094D01*
X106616500Y-89412165D01*
X106616500Y-94737835D01*
X106600824Y-94856906D01*
X106556476Y-94963973D01*
X106485921Y-95055921D01*
X106393973Y-95126476D01*
X106286906Y-95170824D01*
X106167835Y-95186500D01*
X84332165Y-95186500D01*
X84213094Y-95170824D01*
X84106027Y-95126476D01*
X84014079Y-95055921D01*
X83943524Y-94963973D01*
X83899176Y-94856906D01*
X83883500Y-94737835D01*
X83883500Y-89412165D01*
X83899176Y-89293094D01*
X83943524Y-89186027D01*
X84014079Y-89094079D01*
X84106027Y-89023524D01*
X84213094Y-88979176D01*
X84332165Y-88963500D01*
X106167835Y-88963500D01*
X106286906Y-88979176D01*
G36*
X141211906Y-98123176D02*
G01*
X141318973Y-98167524D01*
X141389501Y-98221642D01*
X141389500Y-99671942D01*
X141387229Y-99695000D01*
X141396294Y-99787038D01*
X141423140Y-99875539D01*
X141466737Y-99957102D01*
X141525408Y-100028592D01*
X141541500Y-100041799D01*
X141541500Y-128087506D01*
X141524366Y-128061863D01*
X141406737Y-127944234D01*
X141268421Y-127851814D01*
X141114732Y-127788154D01*
X140951576Y-127755700D01*
X140832669Y-127755700D01*
X140817267Y-127736933D01*
X140730245Y-127665516D01*
X140630962Y-127612448D01*
X140523234Y-127579769D01*
X140439274Y-127571500D01*
X140411200Y-127568735D01*
X140383126Y-127571500D01*
X136588500Y-127571500D01*
X136588500Y-126607729D01*
X136639961Y-126556268D01*
X136716403Y-126441864D01*
X136769057Y-126314745D01*
X136795900Y-126179796D01*
X136795900Y-126042204D01*
X136769057Y-125907255D01*
X136716403Y-125780136D01*
X136708361Y-125768100D01*
X136716403Y-125756064D01*
X136769057Y-125628945D01*
X136795900Y-125493996D01*
X136795900Y-125356404D01*
X136769057Y-125221455D01*
X136716403Y-125094336D01*
X136639961Y-124979932D01*
X136611750Y-124951721D01*
X136611750Y-121127617D01*
X136614238Y-121102356D01*
X136604307Y-121001526D01*
X136588500Y-120949420D01*
X136588500Y-108372517D01*
X136639300Y-108423317D01*
X136639301Y-124736409D01*
X136639300Y-124736414D01*
X136639300Y-124843986D01*
X136644562Y-124870438D01*
X136647203Y-124897254D01*
X136655026Y-124923044D01*
X136660287Y-124949491D01*
X136670605Y-124974400D01*
X136678429Y-125000194D01*
X136691135Y-125023965D01*
X136701453Y-125048875D01*
X136716433Y-125071295D01*
X136729139Y-125095065D01*
X136746237Y-125115899D01*
X136761217Y-125138318D01*
X136780283Y-125157384D01*
X136797382Y-125178219D01*
X136818217Y-125195318D01*
X136837282Y-125214383D01*
X136859700Y-125229362D01*
X136880536Y-125246462D01*
X136904309Y-125259169D01*
X136926725Y-125274147D01*
X136951631Y-125284463D01*
X136975407Y-125297172D01*
X137001206Y-125304998D01*
X137026109Y-125315313D01*
X137052549Y-125320573D01*
X137078347Y-125328398D01*
X137105171Y-125331040D01*
X137131614Y-125336300D01*
X137158576Y-125336300D01*
X137185400Y-125338942D01*
X137212224Y-125336300D01*
X137239186Y-125336300D01*
X137265628Y-125331040D01*
X137292454Y-125328398D01*
X137318254Y-125320572D01*
X137344691Y-125315313D01*
X137369591Y-125304999D01*
X137395394Y-125297172D01*
X137419174Y-125284461D01*
X137444075Y-125274147D01*
X137466487Y-125259171D01*
X137490265Y-125246462D01*
X137511105Y-125229359D01*
X137533518Y-125214383D01*
X137552579Y-125195322D01*
X137573419Y-125178219D01*
X137590522Y-125157379D01*
X137609583Y-125138318D01*
X137624559Y-125115905D01*
X137641662Y-125095065D01*
X137654371Y-125071287D01*
X137669347Y-125048875D01*
X137679661Y-125023974D01*
X137692372Y-125000194D01*
X137700199Y-124974391D01*
X137710513Y-124949491D01*
X137715772Y-124923054D01*
X137723598Y-124897254D01*
X137726240Y-124870428D01*
X137731500Y-124843986D01*
X137731500Y-108223932D01*
X137734141Y-108197115D01*
X137731500Y-108170298D01*
X137731500Y-108170291D01*
X137723598Y-108090061D01*
X137692372Y-107987121D01*
X137641662Y-107892250D01*
X137573419Y-107809096D01*
X137552584Y-107791997D01*
X136588500Y-106827914D01*
X136588500Y-104317800D01*
X136587957Y-104309511D01*
X136570647Y-104178031D01*
X136566356Y-104162020D01*
X136515607Y-104039500D01*
X136507319Y-104025143D01*
X136426588Y-103919933D01*
X136414867Y-103908212D01*
X136309657Y-103827481D01*
X136295300Y-103819193D01*
X136172780Y-103768444D01*
X136156769Y-103764153D01*
X136025289Y-103746843D01*
X136017000Y-103746300D01*
X122584565Y-103746300D01*
X122465494Y-103730624D01*
X122358427Y-103686276D01*
X122266479Y-103615721D01*
X122195924Y-103523773D01*
X122151576Y-103416706D01*
X122135900Y-103297635D01*
X122135900Y-98556165D01*
X122151576Y-98437094D01*
X122195924Y-98330027D01*
X122266479Y-98238079D01*
X122358427Y-98167524D01*
X122465494Y-98123176D01*
X122584565Y-98107500D01*
X141092835Y-98107500D01*
X141211906Y-98123176D01*
X141211906Y-98123176D01*
G37*
X141211906Y-98123176D02*
X141318973Y-98167524D01*
X141389501Y-98221642D01*
X141389500Y-99671942D01*
X141387229Y-99695000D01*
X141396294Y-99787038D01*
X141423140Y-99875539D01*
X141466737Y-99957102D01*
X141525408Y-100028592D01*
X141541500Y-100041799D01*
X141541500Y-128087506D01*
X141524366Y-128061863D01*
X141406737Y-127944234D01*
X141268421Y-127851814D01*
X141114732Y-127788154D01*
X140951576Y-127755700D01*
X140832669Y-127755700D01*
X140817267Y-127736933D01*
X140730245Y-127665516D01*
X140630962Y-127612448D01*
X140523234Y-127579769D01*
X140439274Y-127571500D01*
X140411200Y-127568735D01*
X140383126Y-127571500D01*
X136588500Y-127571500D01*
X136588500Y-126607729D01*
X136639961Y-126556268D01*
X136716403Y-126441864D01*
X136769057Y-126314745D01*
X136795900Y-126179796D01*
X136795900Y-126042204D01*
X136769057Y-125907255D01*
X136716403Y-125780136D01*
X136708361Y-125768100D01*
X136716403Y-125756064D01*
X136769057Y-125628945D01*
X136795900Y-125493996D01*
X136795900Y-125356404D01*
X136769057Y-125221455D01*
X136716403Y-125094336D01*
X136639961Y-124979932D01*
X136611750Y-124951721D01*
X136611750Y-121127617D01*
X136614238Y-121102356D01*
X136604307Y-121001526D01*
X136588500Y-120949420D01*
X136588500Y-108372517D01*
X136639300Y-108423317D01*
X136639301Y-124736409D01*
X136639300Y-124736414D01*
X136639300Y-124843986D01*
X136644562Y-124870438D01*
X136647203Y-124897254D01*
X136655026Y-124923044D01*
X136660287Y-124949491D01*
X136670605Y-124974400D01*
X136678429Y-125000194D01*
X136691135Y-125023965D01*
X136701453Y-125048875D01*
X136716433Y-125071295D01*
X136729139Y-125095065D01*
X136746237Y-125115899D01*
X136761217Y-125138318D01*
X136780283Y-125157384D01*
X136797382Y-125178219D01*
X136818217Y-125195318D01*
X136837282Y-125214383D01*
X136859700Y-125229362D01*
X136880536Y-125246462D01*
X136904309Y-125259169D01*
X136926725Y-125274147D01*
X136951631Y-125284463D01*
X136975407Y-125297172D01*
X137001206Y-125304998D01*
X137026109Y-125315313D01*
X137052549Y-125320573D01*
X137078347Y-125328398D01*
X137105171Y-125331040D01*
X137131614Y-125336300D01*
X137158576Y-125336300D01*
X137185400Y-125338942D01*
X137212224Y-125336300D01*
X137239186Y-125336300D01*
X137265628Y-125331040D01*
X137292454Y-125328398D01*
X137318254Y-125320572D01*
X137344691Y-125315313D01*
X137369591Y-125304999D01*
X137395394Y-125297172D01*
X137419174Y-125284461D01*
X137444075Y-125274147D01*
X137466487Y-125259171D01*
X137490265Y-125246462D01*
X137511105Y-125229359D01*
X137533518Y-125214383D01*
X137552579Y-125195322D01*
X137573419Y-125178219D01*
X137590522Y-125157379D01*
X137609583Y-125138318D01*
X137624559Y-125115905D01*
X137641662Y-125095065D01*
X137654371Y-125071287D01*
X137669347Y-125048875D01*
X137679661Y-125023974D01*
X137692372Y-125000194D01*
X137700199Y-124974391D01*
X137710513Y-124949491D01*
X137715772Y-124923054D01*
X137723598Y-124897254D01*
X137726240Y-124870428D01*
X137731500Y-124843986D01*
X137731500Y-108223932D01*
X137734141Y-108197115D01*
X137731500Y-108170298D01*
X137731500Y-108170291D01*
X137723598Y-108090061D01*
X137692372Y-107987121D01*
X137641662Y-107892250D01*
X137573419Y-107809096D01*
X137552584Y-107791997D01*
X136588500Y-106827914D01*
X136588500Y-104317800D01*
X136587957Y-104309511D01*
X136570647Y-104178031D01*
X136566356Y-104162020D01*
X136515607Y-104039500D01*
X136507319Y-104025143D01*
X136426588Y-103919933D01*
X136414867Y-103908212D01*
X136309657Y-103827481D01*
X136295300Y-103819193D01*
X136172780Y-103768444D01*
X136156769Y-103764153D01*
X136025289Y-103746843D01*
X136017000Y-103746300D01*
X122584565Y-103746300D01*
X122465494Y-103730624D01*
X122358427Y-103686276D01*
X122266479Y-103615721D01*
X122195924Y-103523773D01*
X122151576Y-103416706D01*
X122135900Y-103297635D01*
X122135900Y-98556165D01*
X122151576Y-98437094D01*
X122195924Y-98330027D01*
X122266479Y-98238079D01*
X122358427Y-98167524D01*
X122465494Y-98123176D01*
X122584565Y-98107500D01*
X141092835Y-98107500D01*
X141211906Y-98123176D01*
G36*
X122341169Y-104610927D02*
G01*
X122472649Y-104628237D01*
X122580400Y-104635300D01*
X135699500Y-104635300D01*
X135699500Y-111329833D01*
X135649306Y-111350624D01*
X135530235Y-111366300D01*
X134831083Y-111366300D01*
X134724253Y-111181265D01*
X134643522Y-111076055D01*
X134491145Y-110923678D01*
X134385935Y-110842947D01*
X134199303Y-110735195D01*
X134076783Y-110684446D01*
X133868631Y-110628673D01*
X133737151Y-110611363D01*
X133629400Y-110604300D01*
X127025400Y-110604300D01*
X126917649Y-110611363D01*
X126786169Y-110628673D01*
X126578017Y-110684446D01*
X126455497Y-110735195D01*
X126268865Y-110842947D01*
X126163655Y-110923678D01*
X126011278Y-111076055D01*
X125930547Y-111181265D01*
X125823717Y-111366300D01*
X122584565Y-111366300D01*
X122465494Y-111350624D01*
X122358427Y-111306276D01*
X122266479Y-111235721D01*
X122195924Y-111143773D01*
X122151576Y-111036706D01*
X122135900Y-110917635D01*
X122135900Y-104555926D01*
X122341169Y-104610927D01*
X122341169Y-104610927D01*
G37*
X122341169Y-104610927D02*
X122472649Y-104628237D01*
X122580400Y-104635300D01*
X135699500Y-104635300D01*
X135699500Y-111329833D01*
X135649306Y-111350624D01*
X135530235Y-111366300D01*
X134831083Y-111366300D01*
X134724253Y-111181265D01*
X134643522Y-111076055D01*
X134491145Y-110923678D01*
X134385935Y-110842947D01*
X134199303Y-110735195D01*
X134076783Y-110684446D01*
X133868631Y-110628673D01*
X133737151Y-110611363D01*
X133629400Y-110604300D01*
X127025400Y-110604300D01*
X126917649Y-110611363D01*
X126786169Y-110628673D01*
X126578017Y-110684446D01*
X126455497Y-110735195D01*
X126268865Y-110842947D01*
X126163655Y-110923678D01*
X126011278Y-111076055D01*
X125930547Y-111181265D01*
X125823717Y-111366300D01*
X122584565Y-111366300D01*
X122465494Y-111350624D01*
X122358427Y-111306276D01*
X122266479Y-111235721D01*
X122195924Y-111143773D01*
X122151576Y-111036706D01*
X122135900Y-110917635D01*
X122135900Y-104555926D01*
X122341169Y-104610927D01*
G36*
X133744306Y-111508976D02*
G01*
X133851373Y-111553324D01*
X133943321Y-111623879D01*
X134013876Y-111715827D01*
X134058224Y-111822894D01*
X134073900Y-111941965D01*
X134073900Y-117902635D01*
X134058224Y-118021706D01*
X134017628Y-118119715D01*
X133984396Y-118039486D01*
X133907954Y-117925082D01*
X133810661Y-117827789D01*
X133696257Y-117751347D01*
X133569138Y-117698693D01*
X133434189Y-117671850D01*
X133296597Y-117671850D01*
X133161648Y-117698693D01*
X133034529Y-117751347D01*
X132920125Y-117827789D01*
X132822832Y-117925082D01*
X132746390Y-118039486D01*
X132693736Y-118166605D01*
X132666893Y-118301554D01*
X132666893Y-118351300D01*
X127029565Y-118351300D01*
X126910494Y-118335624D01*
X126803427Y-118291276D01*
X126711479Y-118220721D01*
X126640924Y-118128773D01*
X126596576Y-118021706D01*
X126580900Y-117902635D01*
X126580900Y-111941965D01*
X126596576Y-111822894D01*
X126640924Y-111715827D01*
X126711479Y-111623879D01*
X126803427Y-111553324D01*
X126910494Y-111508976D01*
X127029565Y-111493300D01*
X133625235Y-111493300D01*
X133744306Y-111508976D01*
X133744306Y-111508976D01*
G37*
X133744306Y-111508976D02*
X133851373Y-111553324D01*
X133943321Y-111623879D01*
X134013876Y-111715827D01*
X134058224Y-111822894D01*
X134073900Y-111941965D01*
X134073900Y-117902635D01*
X134058224Y-118021706D01*
X134017628Y-118119715D01*
X133984396Y-118039486D01*
X133907954Y-117925082D01*
X133810661Y-117827789D01*
X133696257Y-117751347D01*
X133569138Y-117698693D01*
X133434189Y-117671850D01*
X133296597Y-117671850D01*
X133161648Y-117698693D01*
X133034529Y-117751347D01*
X132920125Y-117827789D01*
X132822832Y-117925082D01*
X132746390Y-118039486D01*
X132693736Y-118166605D01*
X132666893Y-118301554D01*
X132666893Y-118351300D01*
X127029565Y-118351300D01*
X126910494Y-118335624D01*
X126803427Y-118291276D01*
X126711479Y-118220721D01*
X126640924Y-118128773D01*
X126596576Y-118021706D01*
X126580900Y-117902635D01*
X126580900Y-111941965D01*
X126596576Y-111822894D01*
X126640924Y-111715827D01*
X126711479Y-111623879D01*
X126803427Y-111553324D01*
X126910494Y-111508976D01*
X127029565Y-111493300D01*
X133625235Y-111493300D01*
X133744306Y-111508976D01*
M02*
