G04 #@! TF.GenerationSoftware,KiCad,Pcbnew,(5.1.0)-1*
G04 #@! TF.CreationDate,2019-07-29T14:33:41-06:00*
G04 #@! TF.ProjectId,d4100_mod_board_full,64343130-305f-46d6-9f64-5f626f617264,rev?*
G04 #@! TF.SameCoordinates,Original*
G04 #@! TF.FileFunction,Copper,L2,Bot*
G04 #@! TF.FilePolarity,Positive*
%FSLAX46Y46*%
G04 Gerber Fmt 4.6, Leading zero omitted, Abs format (unit mm)*
G04 Created by KiCad (PCBNEW (5.1.0)-1) date 2019-07-29 14:33:41*
%MOMM*%
%LPD*%
G04 APERTURE LIST*
%ADD10C,0.736600*%
%ADD11C,1.500000*%
%ADD12R,1.500000X1.500000*%
%ADD13O,1.700000X1.700000*%
%ADD14R,1.700000X1.700000*%
%ADD15C,2.000000*%
%ADD16C,0.800000*%
%ADD17C,0.762000*%
%ADD18C,0.254000*%
%ADD19C,0.177800*%
G04 APERTURE END LIST*
D10*
X94234000Y-117576600D03*
X69392800Y-123418600D03*
D11*
X136423400Y-107213400D03*
D12*
X90751660Y-77688440D03*
D11*
X86918800Y-96723200D03*
X84188300Y-77101700D03*
X96012000Y-82423000D03*
X114935000Y-116840000D03*
D12*
X141605000Y-125222000D03*
D11*
X148488400Y-118516400D03*
D13*
X101117400Y-99796600D03*
D14*
X98577400Y-99796600D03*
D15*
X116321840Y-86088220D03*
X116321840Y-91168220D03*
D10*
X95808800Y-117576600D03*
X67818000Y-123418600D03*
D16*
X216916000Y-135128000D03*
X214376000Y-135128000D03*
X211836000Y-135128000D03*
X209296000Y-135128000D03*
X206756000Y-135128000D03*
X204216000Y-135128000D03*
X201676000Y-135128000D03*
X199136000Y-135128000D03*
X196596000Y-135128000D03*
X194056000Y-135128000D03*
X191516000Y-135128000D03*
X188976000Y-135128000D03*
X186436000Y-135128000D03*
X183896000Y-135128000D03*
X181356000Y-135128000D03*
X178816000Y-135128000D03*
X176276000Y-135128000D03*
X173736000Y-135128000D03*
X171196000Y-135128000D03*
X168656000Y-135128000D03*
X166116000Y-135128000D03*
X163576000Y-135128000D03*
X161036000Y-135128000D03*
X158496000Y-135128000D03*
X155956000Y-135128000D03*
X153416000Y-135128000D03*
X150876000Y-135128000D03*
X148336000Y-135128000D03*
X145796000Y-135128000D03*
X143256000Y-135128000D03*
X140716000Y-135128000D03*
X138176000Y-135128000D03*
X135636000Y-135128000D03*
X133096000Y-135128000D03*
X130556000Y-135128000D03*
X128016000Y-135128000D03*
X125476000Y-135128000D03*
X122936000Y-135128000D03*
X120396000Y-135128000D03*
X117856000Y-135128000D03*
X115316000Y-135128000D03*
X112776000Y-135128000D03*
X110236000Y-135128000D03*
X107696000Y-135128000D03*
X105156000Y-135128000D03*
X102616000Y-135128000D03*
X100076000Y-135128000D03*
X97536000Y-135128000D03*
X94996000Y-135128000D03*
X92456000Y-135128000D03*
X89916000Y-135128000D03*
X87376000Y-135128000D03*
X84836000Y-135128000D03*
X82296000Y-135128000D03*
X79756000Y-135128000D03*
X77216000Y-135128000D03*
X74676000Y-135128000D03*
X72136000Y-135128000D03*
X69596000Y-135128000D03*
X67056000Y-135128000D03*
X64516000Y-135128000D03*
X168656000Y-132588000D03*
X168656000Y-130048000D03*
X168656000Y-127508000D03*
X168656000Y-124968000D03*
X168656000Y-122428000D03*
X168656000Y-119888000D03*
X168656000Y-117348000D03*
X168656000Y-114808000D03*
X168656000Y-112268000D03*
X168656000Y-109728000D03*
X168656000Y-107188000D03*
X168656000Y-104648000D03*
X168656000Y-102108000D03*
X168656000Y-99568000D03*
X168656000Y-97028000D03*
X168656000Y-94488000D03*
X168656000Y-91948000D03*
X168656000Y-89408000D03*
X168656000Y-86868000D03*
X168656000Y-84328000D03*
X168656000Y-81788000D03*
X168656000Y-79248000D03*
X168656000Y-76708000D03*
X168656000Y-74168000D03*
X168656000Y-71628000D03*
X168656000Y-69088000D03*
X168656000Y-66548000D03*
X168656000Y-64008000D03*
X168656000Y-61468000D03*
X168656000Y-58928000D03*
X168656000Y-56388000D03*
X168656000Y-53848000D03*
X168656000Y-51308000D03*
X168656000Y-48768000D03*
X137668000Y-116332000D03*
X136144000Y-116332000D03*
X136144000Y-114808000D03*
X137668000Y-114808000D03*
X121945400Y-108331000D03*
X92105480Y-95126140D03*
X84889940Y-88412320D03*
X84889940Y-89456860D03*
X84889940Y-87403940D03*
X89776300Y-80540860D03*
X89776300Y-81503520D03*
X89776300Y-82443320D03*
X93113860Y-95126140D03*
X91060940Y-95126140D03*
X141554200Y-114960400D03*
X141478000Y-113944400D03*
X141427200Y-113055400D03*
X123215400Y-107061000D03*
X145669000Y-125857000D03*
X144399000Y-125857000D03*
X145669000Y-124587000D03*
X144399000Y-124587000D03*
X145669000Y-123317000D03*
X144399000Y-123317000D03*
X145669000Y-122047000D03*
X144399000Y-122047000D03*
X121945400Y-107061000D03*
X120675400Y-107061000D03*
X119405400Y-107061000D03*
X123215400Y-108331000D03*
X120675400Y-108331000D03*
X119405400Y-108331000D03*
X136144000Y-113284000D03*
X137668000Y-113284000D03*
X137668000Y-117856000D03*
X136144000Y-117856000D03*
D17*
X94361000Y-86088220D02*
X89776300Y-81503520D01*
X116321840Y-86088220D02*
X94361000Y-86088220D01*
X121945400Y-91711780D02*
X121945400Y-107061000D01*
X116321840Y-86088220D02*
X121945400Y-91711780D01*
D18*
G36*
X101473000Y-97028000D02*
G01*
X88140817Y-97028000D01*
X88176800Y-96847102D01*
X88176800Y-96599298D01*
X88128456Y-96356255D01*
X88033625Y-96127314D01*
X87895952Y-95921272D01*
X87720728Y-95746048D01*
X87514686Y-95608375D01*
X87285745Y-95513544D01*
X87042702Y-95465200D01*
X86794898Y-95465200D01*
X86551855Y-95513544D01*
X86322914Y-95608375D01*
X86116872Y-95746048D01*
X85941648Y-95921272D01*
X85803975Y-96127314D01*
X85709144Y-96356255D01*
X85660800Y-96599298D01*
X85660800Y-96847102D01*
X85696783Y-97028000D01*
X81407000Y-97028000D01*
X81407000Y-82299098D01*
X94754000Y-82299098D01*
X94754000Y-82546902D01*
X94802344Y-82789945D01*
X94897175Y-83018886D01*
X95034848Y-83224928D01*
X95210072Y-83400152D01*
X95416114Y-83537825D01*
X95645055Y-83632656D01*
X95888098Y-83681000D01*
X96135902Y-83681000D01*
X96378945Y-83632656D01*
X96607886Y-83537825D01*
X96813928Y-83400152D01*
X96989152Y-83224928D01*
X97126825Y-83018886D01*
X97221656Y-82789945D01*
X97270000Y-82546902D01*
X97270000Y-82299098D01*
X97221656Y-82056055D01*
X97126825Y-81827114D01*
X96989152Y-81621072D01*
X96813928Y-81445848D01*
X96607886Y-81308175D01*
X96378945Y-81213344D01*
X96135902Y-81165000D01*
X95888098Y-81165000D01*
X95645055Y-81213344D01*
X95416114Y-81308175D01*
X95210072Y-81445848D01*
X95034848Y-81621072D01*
X94897175Y-81827114D01*
X94802344Y-82056055D01*
X94754000Y-82299098D01*
X81407000Y-82299098D01*
X81407000Y-78438440D01*
X89363588Y-78438440D01*
X89375848Y-78562922D01*
X89412158Y-78682620D01*
X89471123Y-78792934D01*
X89550475Y-78889625D01*
X89647166Y-78968977D01*
X89757480Y-79027942D01*
X89877178Y-79064252D01*
X90001660Y-79076512D01*
X90465910Y-79073440D01*
X90624660Y-78914690D01*
X90624660Y-77815440D01*
X90878660Y-77815440D01*
X90878660Y-78914690D01*
X91037410Y-79073440D01*
X91501660Y-79076512D01*
X91626142Y-79064252D01*
X91745840Y-79027942D01*
X91856154Y-78968977D01*
X91952845Y-78889625D01*
X92032197Y-78792934D01*
X92091162Y-78682620D01*
X92127472Y-78562922D01*
X92139732Y-78438440D01*
X92136660Y-77974190D01*
X91977910Y-77815440D01*
X90878660Y-77815440D01*
X90624660Y-77815440D01*
X89525410Y-77815440D01*
X89366660Y-77974190D01*
X89363588Y-78438440D01*
X81407000Y-78438440D01*
X81407000Y-76977798D01*
X82930300Y-76977798D01*
X82930300Y-77225602D01*
X82978644Y-77468645D01*
X83073475Y-77697586D01*
X83211148Y-77903628D01*
X83386372Y-78078852D01*
X83592414Y-78216525D01*
X83821355Y-78311356D01*
X84064398Y-78359700D01*
X84312202Y-78359700D01*
X84555245Y-78311356D01*
X84784186Y-78216525D01*
X84990228Y-78078852D01*
X85165452Y-77903628D01*
X85303125Y-77697586D01*
X85397956Y-77468645D01*
X85446300Y-77225602D01*
X85446300Y-76977798D01*
X85438472Y-76938440D01*
X89363588Y-76938440D01*
X89366660Y-77402690D01*
X89525410Y-77561440D01*
X90624660Y-77561440D01*
X90624660Y-76462190D01*
X90878660Y-76462190D01*
X90878660Y-77561440D01*
X91977910Y-77561440D01*
X92136660Y-77402690D01*
X92139732Y-76938440D01*
X92127472Y-76813958D01*
X92091162Y-76694260D01*
X92032197Y-76583946D01*
X91952845Y-76487255D01*
X91856154Y-76407903D01*
X91745840Y-76348938D01*
X91626142Y-76312628D01*
X91501660Y-76300368D01*
X91037410Y-76303440D01*
X90878660Y-76462190D01*
X90624660Y-76462190D01*
X90465910Y-76303440D01*
X90001660Y-76300368D01*
X89877178Y-76312628D01*
X89757480Y-76348938D01*
X89647166Y-76407903D01*
X89550475Y-76487255D01*
X89471123Y-76583946D01*
X89412158Y-76694260D01*
X89375848Y-76813958D01*
X89363588Y-76938440D01*
X85438472Y-76938440D01*
X85397956Y-76734755D01*
X85303125Y-76505814D01*
X85165452Y-76299772D01*
X84990228Y-76124548D01*
X84784186Y-75986875D01*
X84555245Y-75892044D01*
X84312202Y-75843700D01*
X84064398Y-75843700D01*
X83821355Y-75892044D01*
X83592414Y-75986875D01*
X83386372Y-76124548D01*
X83211148Y-76299772D01*
X83073475Y-76505814D01*
X82978644Y-76734755D01*
X82930300Y-76977798D01*
X81407000Y-76977798D01*
X81407000Y-74422000D01*
X101473000Y-74422000D01*
X101473000Y-97028000D01*
X101473000Y-97028000D01*
G37*
X101473000Y-97028000D02*
X88140817Y-97028000D01*
X88176800Y-96847102D01*
X88176800Y-96599298D01*
X88128456Y-96356255D01*
X88033625Y-96127314D01*
X87895952Y-95921272D01*
X87720728Y-95746048D01*
X87514686Y-95608375D01*
X87285745Y-95513544D01*
X87042702Y-95465200D01*
X86794898Y-95465200D01*
X86551855Y-95513544D01*
X86322914Y-95608375D01*
X86116872Y-95746048D01*
X85941648Y-95921272D01*
X85803975Y-96127314D01*
X85709144Y-96356255D01*
X85660800Y-96599298D01*
X85660800Y-96847102D01*
X85696783Y-97028000D01*
X81407000Y-97028000D01*
X81407000Y-82299098D01*
X94754000Y-82299098D01*
X94754000Y-82546902D01*
X94802344Y-82789945D01*
X94897175Y-83018886D01*
X95034848Y-83224928D01*
X95210072Y-83400152D01*
X95416114Y-83537825D01*
X95645055Y-83632656D01*
X95888098Y-83681000D01*
X96135902Y-83681000D01*
X96378945Y-83632656D01*
X96607886Y-83537825D01*
X96813928Y-83400152D01*
X96989152Y-83224928D01*
X97126825Y-83018886D01*
X97221656Y-82789945D01*
X97270000Y-82546902D01*
X97270000Y-82299098D01*
X97221656Y-82056055D01*
X97126825Y-81827114D01*
X96989152Y-81621072D01*
X96813928Y-81445848D01*
X96607886Y-81308175D01*
X96378945Y-81213344D01*
X96135902Y-81165000D01*
X95888098Y-81165000D01*
X95645055Y-81213344D01*
X95416114Y-81308175D01*
X95210072Y-81445848D01*
X95034848Y-81621072D01*
X94897175Y-81827114D01*
X94802344Y-82056055D01*
X94754000Y-82299098D01*
X81407000Y-82299098D01*
X81407000Y-78438440D01*
X89363588Y-78438440D01*
X89375848Y-78562922D01*
X89412158Y-78682620D01*
X89471123Y-78792934D01*
X89550475Y-78889625D01*
X89647166Y-78968977D01*
X89757480Y-79027942D01*
X89877178Y-79064252D01*
X90001660Y-79076512D01*
X90465910Y-79073440D01*
X90624660Y-78914690D01*
X90624660Y-77815440D01*
X90878660Y-77815440D01*
X90878660Y-78914690D01*
X91037410Y-79073440D01*
X91501660Y-79076512D01*
X91626142Y-79064252D01*
X91745840Y-79027942D01*
X91856154Y-78968977D01*
X91952845Y-78889625D01*
X92032197Y-78792934D01*
X92091162Y-78682620D01*
X92127472Y-78562922D01*
X92139732Y-78438440D01*
X92136660Y-77974190D01*
X91977910Y-77815440D01*
X90878660Y-77815440D01*
X90624660Y-77815440D01*
X89525410Y-77815440D01*
X89366660Y-77974190D01*
X89363588Y-78438440D01*
X81407000Y-78438440D01*
X81407000Y-76977798D01*
X82930300Y-76977798D01*
X82930300Y-77225602D01*
X82978644Y-77468645D01*
X83073475Y-77697586D01*
X83211148Y-77903628D01*
X83386372Y-78078852D01*
X83592414Y-78216525D01*
X83821355Y-78311356D01*
X84064398Y-78359700D01*
X84312202Y-78359700D01*
X84555245Y-78311356D01*
X84784186Y-78216525D01*
X84990228Y-78078852D01*
X85165452Y-77903628D01*
X85303125Y-77697586D01*
X85397956Y-77468645D01*
X85446300Y-77225602D01*
X85446300Y-76977798D01*
X85438472Y-76938440D01*
X89363588Y-76938440D01*
X89366660Y-77402690D01*
X89525410Y-77561440D01*
X90624660Y-77561440D01*
X90624660Y-76462190D01*
X90878660Y-76462190D01*
X90878660Y-77561440D01*
X91977910Y-77561440D01*
X92136660Y-77402690D01*
X92139732Y-76938440D01*
X92127472Y-76813958D01*
X92091162Y-76694260D01*
X92032197Y-76583946D01*
X91952845Y-76487255D01*
X91856154Y-76407903D01*
X91745840Y-76348938D01*
X91626142Y-76312628D01*
X91501660Y-76300368D01*
X91037410Y-76303440D01*
X90878660Y-76462190D01*
X90624660Y-76462190D01*
X90465910Y-76303440D01*
X90001660Y-76300368D01*
X89877178Y-76312628D01*
X89757480Y-76348938D01*
X89647166Y-76407903D01*
X89550475Y-76487255D01*
X89471123Y-76583946D01*
X89412158Y-76694260D01*
X89375848Y-76813958D01*
X89363588Y-76938440D01*
X85438472Y-76938440D01*
X85397956Y-76734755D01*
X85303125Y-76505814D01*
X85165452Y-76299772D01*
X84990228Y-76124548D01*
X84784186Y-75986875D01*
X84555245Y-75892044D01*
X84312202Y-75843700D01*
X84064398Y-75843700D01*
X83821355Y-75892044D01*
X83592414Y-75986875D01*
X83386372Y-76124548D01*
X83211148Y-76299772D01*
X83073475Y-76505814D01*
X82978644Y-76734755D01*
X82930300Y-76977798D01*
X81407000Y-76977798D01*
X81407000Y-74422000D01*
X101473000Y-74422000D01*
X101473000Y-97028000D01*
D19*
G36*
X135645759Y-106265841D02*
G01*
X135475841Y-106435759D01*
X135342338Y-106635560D01*
X135250380Y-106857568D01*
X135203500Y-107093250D01*
X135203500Y-107333550D01*
X135250380Y-107569232D01*
X135342338Y-107791240D01*
X135475841Y-107991041D01*
X135645759Y-108160959D01*
X135845560Y-108294462D01*
X136067568Y-108386420D01*
X136303250Y-108433300D01*
X136543550Y-108433300D01*
X136779232Y-108386420D01*
X137001240Y-108294462D01*
X137201041Y-108160959D01*
X137370959Y-107991041D01*
X137504462Y-107791240D01*
X137596420Y-107569232D01*
X137643300Y-107333550D01*
X137643300Y-107093250D01*
X137596420Y-106857568D01*
X137504462Y-106635560D01*
X137370959Y-106435759D01*
X137201041Y-106265841D01*
X137003578Y-106133900D01*
X146297000Y-106133900D01*
X146393923Y-106149251D01*
X146475039Y-106190582D01*
X146539418Y-106254961D01*
X146580749Y-106336077D01*
X146596100Y-106433000D01*
X146596100Y-125977000D01*
X146580749Y-126073923D01*
X146539418Y-126155039D01*
X146475039Y-126219418D01*
X146393923Y-126260749D01*
X146297000Y-126276100D01*
X142513481Y-126276100D01*
X142546427Y-126258490D01*
X142598640Y-126215640D01*
X142641490Y-126163427D01*
X142673331Y-126103857D01*
X142692938Y-126039220D01*
X142699559Y-125972000D01*
X142697900Y-125345825D01*
X142612175Y-125260100D01*
X141643100Y-125260100D01*
X141643100Y-125280100D01*
X141566900Y-125280100D01*
X141566900Y-125260100D01*
X140597825Y-125260100D01*
X140512100Y-125345825D01*
X140510441Y-125972000D01*
X140517062Y-126039220D01*
X140536669Y-126103857D01*
X140568510Y-126163427D01*
X140611360Y-126215640D01*
X140663573Y-126258490D01*
X140696519Y-126276100D01*
X119133000Y-126276100D01*
X119036077Y-126260749D01*
X118954961Y-126219418D01*
X118890582Y-126155039D01*
X118849251Y-126073923D01*
X118833900Y-125977000D01*
X118833900Y-124472000D01*
X140510441Y-124472000D01*
X140512100Y-125098175D01*
X140597825Y-125183900D01*
X141566900Y-125183900D01*
X141566900Y-124214825D01*
X141643100Y-124214825D01*
X141643100Y-125183900D01*
X142612175Y-125183900D01*
X142697900Y-125098175D01*
X142699559Y-124472000D01*
X142692938Y-124404780D01*
X142673331Y-124340143D01*
X142641490Y-124280573D01*
X142598640Y-124228360D01*
X142546427Y-124185510D01*
X142486857Y-124153669D01*
X142422220Y-124134062D01*
X142355000Y-124127441D01*
X141728825Y-124129100D01*
X141643100Y-124214825D01*
X141566900Y-124214825D01*
X141481175Y-124129100D01*
X140855000Y-124127441D01*
X140787780Y-124134062D01*
X140723143Y-124153669D01*
X140663573Y-124185510D01*
X140611360Y-124228360D01*
X140568510Y-124280573D01*
X140536669Y-124340143D01*
X140517062Y-124404780D01*
X140510441Y-124472000D01*
X118833900Y-124472000D01*
X118833900Y-112776000D01*
X134150100Y-112776000D01*
X134150100Y-118364000D01*
X134159129Y-118455673D01*
X134185869Y-118543823D01*
X134229292Y-118625062D01*
X134287731Y-118696269D01*
X134358938Y-118754708D01*
X134440177Y-118798131D01*
X134528327Y-118824871D01*
X134620000Y-118833900D01*
X139192000Y-118833900D01*
X139283673Y-118824871D01*
X139371823Y-118798131D01*
X139453062Y-118754708D01*
X139524269Y-118696269D01*
X139582708Y-118625062D01*
X139626131Y-118543823D01*
X139652871Y-118455673D01*
X139661900Y-118364000D01*
X139661900Y-112776000D01*
X139652871Y-112684327D01*
X139626131Y-112596177D01*
X139582708Y-112514938D01*
X139524269Y-112443731D01*
X139453062Y-112385292D01*
X139371823Y-112341869D01*
X139283673Y-112315129D01*
X139192000Y-112306100D01*
X134620000Y-112306100D01*
X134528327Y-112315129D01*
X134440177Y-112341869D01*
X134358938Y-112385292D01*
X134287731Y-112443731D01*
X134229292Y-112514938D01*
X134185869Y-112596177D01*
X134159129Y-112684327D01*
X134150100Y-112776000D01*
X118833900Y-112776000D01*
X118833900Y-106433000D01*
X118849251Y-106336077D01*
X118890582Y-106254961D01*
X118954961Y-106190582D01*
X119036077Y-106149251D01*
X119133000Y-106133900D01*
X135843222Y-106133900D01*
X135645759Y-106265841D01*
X135645759Y-106265841D01*
G37*
X135645759Y-106265841D02*
X135475841Y-106435759D01*
X135342338Y-106635560D01*
X135250380Y-106857568D01*
X135203500Y-107093250D01*
X135203500Y-107333550D01*
X135250380Y-107569232D01*
X135342338Y-107791240D01*
X135475841Y-107991041D01*
X135645759Y-108160959D01*
X135845560Y-108294462D01*
X136067568Y-108386420D01*
X136303250Y-108433300D01*
X136543550Y-108433300D01*
X136779232Y-108386420D01*
X137001240Y-108294462D01*
X137201041Y-108160959D01*
X137370959Y-107991041D01*
X137504462Y-107791240D01*
X137596420Y-107569232D01*
X137643300Y-107333550D01*
X137643300Y-107093250D01*
X137596420Y-106857568D01*
X137504462Y-106635560D01*
X137370959Y-106435759D01*
X137201041Y-106265841D01*
X137003578Y-106133900D01*
X146297000Y-106133900D01*
X146393923Y-106149251D01*
X146475039Y-106190582D01*
X146539418Y-106254961D01*
X146580749Y-106336077D01*
X146596100Y-106433000D01*
X146596100Y-125977000D01*
X146580749Y-126073923D01*
X146539418Y-126155039D01*
X146475039Y-126219418D01*
X146393923Y-126260749D01*
X146297000Y-126276100D01*
X142513481Y-126276100D01*
X142546427Y-126258490D01*
X142598640Y-126215640D01*
X142641490Y-126163427D01*
X142673331Y-126103857D01*
X142692938Y-126039220D01*
X142699559Y-125972000D01*
X142697900Y-125345825D01*
X142612175Y-125260100D01*
X141643100Y-125260100D01*
X141643100Y-125280100D01*
X141566900Y-125280100D01*
X141566900Y-125260100D01*
X140597825Y-125260100D01*
X140512100Y-125345825D01*
X140510441Y-125972000D01*
X140517062Y-126039220D01*
X140536669Y-126103857D01*
X140568510Y-126163427D01*
X140611360Y-126215640D01*
X140663573Y-126258490D01*
X140696519Y-126276100D01*
X119133000Y-126276100D01*
X119036077Y-126260749D01*
X118954961Y-126219418D01*
X118890582Y-126155039D01*
X118849251Y-126073923D01*
X118833900Y-125977000D01*
X118833900Y-124472000D01*
X140510441Y-124472000D01*
X140512100Y-125098175D01*
X140597825Y-125183900D01*
X141566900Y-125183900D01*
X141566900Y-124214825D01*
X141643100Y-124214825D01*
X141643100Y-125183900D01*
X142612175Y-125183900D01*
X142697900Y-125098175D01*
X142699559Y-124472000D01*
X142692938Y-124404780D01*
X142673331Y-124340143D01*
X142641490Y-124280573D01*
X142598640Y-124228360D01*
X142546427Y-124185510D01*
X142486857Y-124153669D01*
X142422220Y-124134062D01*
X142355000Y-124127441D01*
X141728825Y-124129100D01*
X141643100Y-124214825D01*
X141566900Y-124214825D01*
X141481175Y-124129100D01*
X140855000Y-124127441D01*
X140787780Y-124134062D01*
X140723143Y-124153669D01*
X140663573Y-124185510D01*
X140611360Y-124228360D01*
X140568510Y-124280573D01*
X140536669Y-124340143D01*
X140517062Y-124404780D01*
X140510441Y-124472000D01*
X118833900Y-124472000D01*
X118833900Y-112776000D01*
X134150100Y-112776000D01*
X134150100Y-118364000D01*
X134159129Y-118455673D01*
X134185869Y-118543823D01*
X134229292Y-118625062D01*
X134287731Y-118696269D01*
X134358938Y-118754708D01*
X134440177Y-118798131D01*
X134528327Y-118824871D01*
X134620000Y-118833900D01*
X139192000Y-118833900D01*
X139283673Y-118824871D01*
X139371823Y-118798131D01*
X139453062Y-118754708D01*
X139524269Y-118696269D01*
X139582708Y-118625062D01*
X139626131Y-118543823D01*
X139652871Y-118455673D01*
X139661900Y-118364000D01*
X139661900Y-112776000D01*
X139652871Y-112684327D01*
X139626131Y-112596177D01*
X139582708Y-112514938D01*
X139524269Y-112443731D01*
X139453062Y-112385292D01*
X139371823Y-112341869D01*
X139283673Y-112315129D01*
X139192000Y-112306100D01*
X134620000Y-112306100D01*
X134528327Y-112315129D01*
X134440177Y-112341869D01*
X134358938Y-112385292D01*
X134287731Y-112443731D01*
X134229292Y-112514938D01*
X134185869Y-112596177D01*
X134159129Y-112684327D01*
X134150100Y-112776000D01*
X118833900Y-112776000D01*
X118833900Y-106433000D01*
X118849251Y-106336077D01*
X118890582Y-106254961D01*
X118954961Y-106190582D01*
X119036077Y-106149251D01*
X119133000Y-106133900D01*
X135843222Y-106133900D01*
X135645759Y-106265841D01*
D18*
G36*
X139065000Y-118237000D02*
G01*
X134747000Y-118237000D01*
X134747000Y-112903000D01*
X139065000Y-112903000D01*
X139065000Y-118237000D01*
X139065000Y-118237000D01*
G37*
X139065000Y-118237000D02*
X134747000Y-118237000D01*
X134747000Y-112903000D01*
X139065000Y-112903000D01*
X139065000Y-118237000D01*
M02*
