G04 #@! TF.GenerationSoftware,KiCad,Pcbnew,(5.1.0)-1*
G04 #@! TF.CreationDate,2019-07-29T14:33:41-06:00*
G04 #@! TF.ProjectId,d4100_mod_board_full,64343130-305f-46d6-9f64-5f626f617264,rev?*
G04 #@! TF.SameCoordinates,Original*
G04 #@! TF.FileFunction,Copper,L1,Top*
G04 #@! TF.FilePolarity,Positive*
%FSLAX46Y46*%
G04 Gerber Fmt 4.6, Leading zero omitted, Abs format (unit mm)*
G04 Created by KiCad (PCBNEW (5.1.0)-1) date 2019-07-29 14:33:41*
%MOMM*%
%LPD*%
G04 APERTURE LIST*
%ADD10C,0.508000*%
%ADD11C,0.736600*%
%ADD12C,1.500000*%
%ADD13R,1.500000X1.500000*%
%ADD14R,2.500000X2.000000*%
%ADD15R,2.650000X2.030000*%
%ADD16O,1.700000X1.700000*%
%ADD17R,1.700000X1.700000*%
%ADD18C,2.000000*%
%ADD19R,1.700000X1.300000*%
%ADD20R,2.500000X2.550000*%
%ADD21R,1.250000X1.500000*%
%ADD22R,2.000000X2.500000*%
%ADD23R,3.200000X1.000000*%
%ADD24R,1.500000X1.300000*%
%ADD25R,1.300000X1.500000*%
%ADD26R,2.000000X1.600000*%
%ADD27R,1.300000X1.600000*%
%ADD28R,1.500000X1.250000*%
%ADD29R,4.200000X1.500000*%
%ADD30R,1.475000X0.450000*%
%ADD31R,2.410000X3.290001*%
%ADD32R,0.650000X1.560000*%
%ADD33C,0.800000*%
%ADD34C,0.762000*%
%ADD35C,0.381000*%
%ADD36C,0.250000*%
%ADD37C,1.270000*%
%ADD38C,0.254000*%
%ADD39C,0.127000*%
%ADD40C,0.177800*%
G04 APERTURE END LIST*
D10*
X94996000Y-91059000D02*
X92456000Y-91059000D01*
D11*
X94234000Y-117576600D03*
X69392800Y-123418600D03*
D12*
X136423400Y-107213400D03*
D13*
X90751660Y-77688440D03*
D12*
X86918800Y-96723200D03*
X84188300Y-77101700D03*
X96012000Y-82423000D03*
X114935000Y-116840000D03*
D13*
X141605000Y-125222000D03*
D12*
X148488400Y-118516400D03*
D14*
X133697134Y-119888000D03*
X133697134Y-123888000D03*
X136956800Y-123888000D03*
X136956800Y-119888000D03*
X130437468Y-123888000D03*
X130437468Y-119888000D03*
X127177800Y-119888000D03*
X127177800Y-123888000D03*
D15*
X110243200Y-120040400D03*
X106063200Y-120040400D03*
D16*
X101117400Y-99796600D03*
D17*
X98577400Y-99796600D03*
D18*
X116321840Y-86088220D03*
X116321840Y-91168220D03*
D11*
X95808800Y-117576600D03*
X67818000Y-123418600D03*
D15*
X73500400Y-122936000D03*
X77680400Y-122936000D03*
D19*
X103505000Y-123345000D03*
X103505000Y-126845000D03*
X80043020Y-132265360D03*
X80043020Y-128765360D03*
D20*
X97790000Y-120030000D03*
X97790000Y-125080000D03*
X73761600Y-131709400D03*
X73761600Y-126659400D03*
D14*
X98531680Y-91179900D03*
X98531680Y-95179900D03*
X95245939Y-91179900D03*
X95245939Y-95179900D03*
D21*
X92402660Y-90929900D03*
X92402660Y-93429900D03*
D22*
X84857840Y-91500960D03*
X88857840Y-91500960D03*
D23*
X96149160Y-88011180D03*
X96149160Y-85811180D03*
D14*
X95245939Y-91179900D03*
D21*
X92402660Y-90929460D03*
D24*
X80143020Y-126466600D03*
X77443020Y-126466600D03*
D25*
X100965000Y-119935000D03*
X100965000Y-122635000D03*
X82110580Y-88205320D03*
X82110580Y-90905320D03*
X87919560Y-83185680D03*
X87919560Y-80485680D03*
D26*
X130352800Y-105486400D03*
D27*
X131602800Y-108386400D03*
X129102800Y-108386400D03*
X82130580Y-84210680D03*
X84630580Y-84210680D03*
D26*
X83380580Y-81310680D03*
D14*
X125120400Y-114697000D03*
X125120400Y-110697000D03*
X121741400Y-110697000D03*
X121741400Y-114697000D03*
D21*
X124637800Y-117138000D03*
X124637800Y-119638000D03*
X147370800Y-115651600D03*
X147370800Y-113151600D03*
X144881600Y-117291800D03*
X144881600Y-119791800D03*
X145313400Y-113924400D03*
X145313400Y-111424400D03*
D28*
X131602800Y-111556800D03*
X129102800Y-111556800D03*
D29*
X141224000Y-119657400D03*
X141224000Y-122357400D03*
D25*
X142976600Y-113922800D03*
X142976600Y-111222800D03*
D24*
X134006600Y-111556800D03*
X136706600Y-111556800D03*
D25*
X125298200Y-105482400D03*
X125298200Y-108182400D03*
D30*
X139882100Y-117811980D03*
X139882100Y-117161980D03*
X139882100Y-116511980D03*
X139882100Y-115861980D03*
X139882100Y-115211980D03*
X139882100Y-114561980D03*
X139882100Y-113911980D03*
X139882100Y-113261980D03*
X134006100Y-113261980D03*
X134006100Y-113911980D03*
X134006100Y-114561980D03*
X134006100Y-115211980D03*
X134006100Y-115861980D03*
X134006100Y-116511980D03*
X134006100Y-117161980D03*
X134006100Y-117811980D03*
D31*
X136944100Y-115536980D03*
D32*
X89811900Y-85876140D03*
X88861900Y-85876140D03*
X87911900Y-85876140D03*
X87911900Y-88576140D03*
X89811900Y-88576140D03*
X88861900Y-88576140D03*
D33*
X216916000Y-135128000D03*
X214376000Y-135128000D03*
X211836000Y-135128000D03*
X209296000Y-135128000D03*
X206756000Y-135128000D03*
X204216000Y-135128000D03*
X201676000Y-135128000D03*
X199136000Y-135128000D03*
X196596000Y-135128000D03*
X194056000Y-135128000D03*
X191516000Y-135128000D03*
X188976000Y-135128000D03*
X186436000Y-135128000D03*
X183896000Y-135128000D03*
X181356000Y-135128000D03*
X178816000Y-135128000D03*
X176276000Y-135128000D03*
X173736000Y-135128000D03*
X171196000Y-135128000D03*
X168656000Y-135128000D03*
X166116000Y-135128000D03*
X163576000Y-135128000D03*
X161036000Y-135128000D03*
X158496000Y-135128000D03*
X155956000Y-135128000D03*
X153416000Y-135128000D03*
X150876000Y-135128000D03*
X148336000Y-135128000D03*
X145796000Y-135128000D03*
X143256000Y-135128000D03*
X140716000Y-135128000D03*
X138176000Y-135128000D03*
X135636000Y-135128000D03*
X133096000Y-135128000D03*
X130556000Y-135128000D03*
X128016000Y-135128000D03*
X125476000Y-135128000D03*
X122936000Y-135128000D03*
X120396000Y-135128000D03*
X117856000Y-135128000D03*
X115316000Y-135128000D03*
X112776000Y-135128000D03*
X110236000Y-135128000D03*
X107696000Y-135128000D03*
X105156000Y-135128000D03*
X102616000Y-135128000D03*
X100076000Y-135128000D03*
X97536000Y-135128000D03*
X94996000Y-135128000D03*
X92456000Y-135128000D03*
X89916000Y-135128000D03*
X87376000Y-135128000D03*
X84836000Y-135128000D03*
X82296000Y-135128000D03*
X79756000Y-135128000D03*
X77216000Y-135128000D03*
X74676000Y-135128000D03*
X72136000Y-135128000D03*
X69596000Y-135128000D03*
X67056000Y-135128000D03*
X64516000Y-135128000D03*
X168656000Y-132588000D03*
X168656000Y-130048000D03*
X168656000Y-127508000D03*
X168656000Y-124968000D03*
X168656000Y-122428000D03*
X168656000Y-119888000D03*
X168656000Y-117348000D03*
X168656000Y-114808000D03*
X168656000Y-112268000D03*
X168656000Y-109728000D03*
X168656000Y-107188000D03*
X168656000Y-104648000D03*
X168656000Y-102108000D03*
X168656000Y-99568000D03*
X168656000Y-97028000D03*
X168656000Y-94488000D03*
X168656000Y-91948000D03*
X168656000Y-89408000D03*
X168656000Y-86868000D03*
X168656000Y-84328000D03*
X168656000Y-81788000D03*
X168656000Y-79248000D03*
X168656000Y-76708000D03*
X168656000Y-74168000D03*
X168656000Y-71628000D03*
X168656000Y-69088000D03*
X168656000Y-66548000D03*
X168656000Y-64008000D03*
X168656000Y-61468000D03*
X168656000Y-58928000D03*
X168656000Y-56388000D03*
X168656000Y-53848000D03*
X168656000Y-51308000D03*
X168656000Y-48768000D03*
X137668000Y-116332000D03*
X136144000Y-116332000D03*
X136144000Y-114808000D03*
X137668000Y-114808000D03*
X121945400Y-108331000D03*
X92105480Y-95126140D03*
X84889940Y-88412320D03*
X84889940Y-89456860D03*
X84889940Y-87403940D03*
X89776300Y-80540860D03*
X89776300Y-81503520D03*
X89776300Y-82443320D03*
X93113860Y-95126140D03*
X91060940Y-95126140D03*
X141554200Y-114960400D03*
X141478000Y-113944400D03*
X141427200Y-113055400D03*
X123215400Y-107061000D03*
X145669000Y-125857000D03*
X144399000Y-125857000D03*
X145669000Y-124587000D03*
X144399000Y-124587000D03*
X145669000Y-123317000D03*
X144399000Y-123317000D03*
X145669000Y-122047000D03*
X144399000Y-122047000D03*
X121945400Y-107061000D03*
X120675400Y-107061000D03*
X119405400Y-107061000D03*
X123215400Y-108331000D03*
X120675400Y-108331000D03*
X119405400Y-108331000D03*
X136144000Y-113284000D03*
X137668000Y-113284000D03*
X137668000Y-117856000D03*
X136144000Y-117856000D03*
D34*
X69392800Y-123240800D02*
X68580000Y-122428000D01*
X69392800Y-123418600D02*
X69392800Y-123240800D01*
X94234000Y-117055746D02*
X94957746Y-116332000D01*
X94234000Y-117576600D02*
X94234000Y-117055746D01*
X90751660Y-77688440D02*
X90716800Y-77688440D01*
X88489660Y-77688440D02*
X87901780Y-78276320D01*
X90751660Y-77688440D02*
X88489660Y-77688440D01*
X87919560Y-78294100D02*
X87919560Y-80485680D01*
X87901780Y-78276320D02*
X87919560Y-78294100D01*
D10*
X89776300Y-78663800D02*
X90751660Y-77688440D01*
X89776300Y-83871942D02*
X89776300Y-82443320D01*
X88861900Y-85876140D02*
X88861900Y-84786342D01*
X88861900Y-84786342D02*
X89776300Y-83871942D01*
D34*
X84889940Y-87403940D02*
X84889940Y-89456860D01*
D35*
X84857840Y-89488960D02*
X84857840Y-91500960D01*
X84889940Y-89456860D02*
X84857840Y-89488960D01*
D10*
X89776300Y-80540860D02*
X89776300Y-78663800D01*
X89776300Y-81503520D02*
X89776300Y-80540860D01*
X89776300Y-82443320D02*
X89776300Y-81503520D01*
D34*
X98531680Y-95179900D02*
X95245939Y-95179900D01*
X95245939Y-95179900D02*
X94152660Y-95179900D01*
D35*
X91060940Y-95126140D02*
X91028840Y-95094040D01*
D34*
X92402660Y-94828960D02*
X92105480Y-95126140D01*
X92402660Y-93429900D02*
X92402660Y-94828960D01*
X93113860Y-95126140D02*
X92605260Y-95126140D01*
X92605260Y-95126140D02*
X91060940Y-95126140D01*
X95192179Y-95126140D02*
X92605260Y-95126140D01*
X95245939Y-95179900D02*
X95192179Y-95126140D01*
X142978200Y-113924400D02*
X142976600Y-113922800D01*
X125980200Y-111556800D02*
X125120400Y-110697000D01*
X129102800Y-111556800D02*
X125980200Y-111556800D01*
X121741400Y-110697000D02*
X125120400Y-110697000D01*
X125298200Y-110519200D02*
X125120400Y-110697000D01*
X125298200Y-108182400D02*
X125298200Y-110519200D01*
X129189800Y-123888000D02*
X127177800Y-123888000D01*
X141224000Y-122357400D02*
X139693400Y-123888000D01*
X139693400Y-123888000D02*
X129189800Y-123888000D01*
X145313400Y-113924400D02*
X142978200Y-113924400D01*
X142976600Y-113922800D02*
X142591800Y-113922800D01*
D35*
X142591800Y-113922800D02*
X141554200Y-114960400D01*
D36*
X141274800Y-115239800D02*
X140436600Y-115239800D01*
X141554200Y-114960400D02*
X141274800Y-115239800D01*
D34*
X103350000Y-127000000D02*
X103505000Y-126845000D01*
X97790000Y-125080000D02*
X99710000Y-127000000D01*
X99710000Y-127000000D02*
X103350000Y-127000000D01*
X103505000Y-126853400D02*
X103505000Y-126845000D01*
X103600800Y-126949200D02*
X103505000Y-126853400D01*
X118262400Y-126949200D02*
X103600800Y-126949200D01*
X127177800Y-123888000D02*
X121323600Y-123888000D01*
X121323600Y-123888000D02*
X118262400Y-126949200D01*
X92105480Y-95691825D02*
X92105480Y-95126140D01*
X92105480Y-121814900D02*
X92105480Y-95691825D01*
X80043020Y-132265360D02*
X81655020Y-132265360D01*
X81655020Y-132265360D02*
X92105480Y-121814900D01*
X74317560Y-132265360D02*
X80043020Y-132265360D01*
X73761600Y-131709400D02*
X74317560Y-132265360D01*
X73774000Y-126647000D02*
X73761600Y-126659400D01*
X73500400Y-126398200D02*
X73761600Y-126659400D01*
X73500400Y-122936000D02*
X73500400Y-126398200D01*
X67818000Y-125476000D02*
X67818000Y-123418600D01*
X73761600Y-126659400D02*
X69001400Y-126659400D01*
X69001400Y-126659400D02*
X67818000Y-125476000D01*
X73954400Y-126466600D02*
X73761600Y-126659400D01*
X77443020Y-126466600D02*
X73954400Y-126466600D01*
X97790000Y-119557800D02*
X95808800Y-117576600D01*
X97790000Y-120030000D02*
X97790000Y-119557800D01*
X97800400Y-120040400D02*
X97790000Y-120030000D01*
X106063200Y-120040400D02*
X97800400Y-120040400D01*
D36*
X132765800Y-115214400D02*
X134035800Y-115214400D01*
X132613400Y-116484400D02*
X133883400Y-116484400D01*
D34*
X126285380Y-115861980D02*
X125120400Y-114697000D01*
X134006100Y-115861980D02*
X126285380Y-115861980D01*
X124637800Y-115179600D02*
X125120400Y-114697000D01*
X124637800Y-117138000D02*
X124637800Y-115179600D01*
X121741400Y-114697000D02*
X125120400Y-114697000D01*
X116310160Y-91179900D02*
X116321840Y-91168220D01*
X98531680Y-91179900D02*
X116310160Y-91179900D01*
X116321840Y-92582433D02*
X116321840Y-91168220D01*
X116321840Y-111289440D02*
X116321840Y-92582433D01*
X121741400Y-114697000D02*
X119729400Y-114697000D01*
X119729400Y-114697000D02*
X116321840Y-111289440D01*
D36*
X134086600Y-117805200D02*
X135356600Y-117805200D01*
X134035800Y-117195600D02*
X135305800Y-117195600D01*
X134086600Y-113944400D02*
X135356600Y-113944400D01*
D34*
X147370800Y-111861600D02*
X147370800Y-113151600D01*
X145313400Y-111424400D02*
X146933600Y-111424400D01*
X146933600Y-111424400D02*
X147370800Y-111861600D01*
X136706800Y-119638000D02*
X136956800Y-119888000D01*
X124637800Y-119638000D02*
X136706800Y-119638000D01*
D37*
X110243200Y-120040400D02*
X118948200Y-120040400D01*
D34*
X117733000Y-119638000D02*
X114935000Y-116840000D01*
X124637800Y-119638000D02*
X117733000Y-119638000D01*
D38*
X147160420Y-115861980D02*
X147370800Y-115651600D01*
X139882100Y-115861980D02*
X147160420Y-115861980D01*
D34*
X140399200Y-117475000D02*
X139750800Y-117475000D01*
X141224000Y-118299800D02*
X140399200Y-117475000D01*
X141224000Y-119811800D02*
X141224000Y-118299800D01*
X148488400Y-118516400D02*
X147193000Y-119811800D01*
X147193000Y-119811800D02*
X141224000Y-119811800D01*
D38*
X134006600Y-113261480D02*
X134006100Y-113261980D01*
X134006600Y-111556800D02*
X134006600Y-113261480D01*
X134006600Y-111556800D02*
X131602800Y-111556800D01*
X131602800Y-109440400D02*
X131602800Y-111556800D01*
X131602800Y-108386400D02*
X131602800Y-109440400D01*
X135250400Y-108386400D02*
X136423400Y-107213400D01*
X131602800Y-108386400D02*
X135250400Y-108386400D01*
X84630580Y-84944880D02*
X84630580Y-84794880D01*
X87911900Y-85876140D02*
X85561840Y-85876140D01*
X85561840Y-85876140D02*
X84630580Y-84944880D01*
X85688299Y-78601699D02*
X84188300Y-77101700D01*
X85688299Y-82098961D02*
X85688299Y-78601699D01*
X84630580Y-84210680D02*
X84630580Y-83156680D01*
X84630580Y-83156680D02*
X85688299Y-82098961D01*
X87919560Y-85868480D02*
X87911900Y-85876140D01*
X87919560Y-83185680D02*
X87919560Y-85868480D01*
D34*
X87896700Y-95277940D02*
X88857840Y-94316800D01*
X83124040Y-95277940D02*
X87896700Y-95277940D01*
X82110580Y-90905320D02*
X82110580Y-94264480D01*
X82110580Y-94264480D02*
X83124040Y-95277940D01*
X88857840Y-97992180D02*
X88808560Y-98041460D01*
D35*
X88861900Y-88576140D02*
X88861900Y-91496900D01*
D34*
X88857840Y-91500960D02*
X88857840Y-97992180D01*
X88861900Y-91496900D02*
X88857840Y-91500960D01*
X88857840Y-110670560D02*
X88857840Y-93937840D01*
X88857840Y-94316800D02*
X88857840Y-93937840D01*
X88857840Y-93937840D02*
X88857840Y-91500960D01*
X88857840Y-113845560D02*
X88857840Y-110670560D01*
X77680400Y-122936000D02*
X79767400Y-122936000D01*
X79767400Y-122936000D02*
X88857840Y-113845560D01*
X88857840Y-94784160D02*
X86918800Y-96723200D01*
X88857840Y-91500960D02*
X88857840Y-94784160D01*
X96084200Y-85876140D02*
X96149160Y-85811180D01*
X89811900Y-85876140D02*
X96084200Y-85876140D01*
X96149160Y-82560160D02*
X96012000Y-82423000D01*
X96149160Y-85811180D02*
X96149160Y-82560160D01*
D36*
X144101780Y-116511980D02*
X144881600Y-117291800D01*
X139882100Y-116511980D02*
X144101780Y-116511980D01*
X87911900Y-87546140D02*
X87911900Y-88576140D01*
X88226820Y-87231220D02*
X87911900Y-87546140D01*
X89496980Y-87231220D02*
X88226820Y-87231220D01*
X89811900Y-88576140D02*
X89811900Y-87546140D01*
X89811900Y-87546140D02*
X89496980Y-87231220D01*
X90386900Y-88576140D02*
X89811900Y-88576140D01*
X91049340Y-88576140D02*
X90386900Y-88576140D01*
X92402660Y-90929460D02*
X92402660Y-89929460D01*
X92402660Y-89929460D02*
X91049340Y-88576140D01*
D34*
X80143020Y-128665360D02*
X80043020Y-128765360D01*
X80143020Y-126466600D02*
X80143020Y-128665360D01*
X102795000Y-122635000D02*
X103505000Y-123345000D01*
X100965000Y-122635000D02*
X102795000Y-122635000D01*
D36*
X142076600Y-111222800D02*
X142976600Y-111222800D01*
X141446280Y-111222800D02*
X142076600Y-111222800D01*
X139882100Y-113261980D02*
X139882100Y-112786980D01*
X139882100Y-112786980D02*
X141446280Y-111222800D01*
X125302200Y-105486400D02*
X125298200Y-105482400D01*
X130352800Y-105486400D02*
X125302200Y-105486400D01*
X82130580Y-88185320D02*
X82110580Y-88205320D01*
X82130580Y-84794880D02*
X82130580Y-88185320D01*
D38*
G36*
X94018623Y-87156686D02*
G01*
X93959658Y-87267000D01*
X93923348Y-87386698D01*
X93911088Y-87511180D01*
X93914160Y-87725430D01*
X94072910Y-87884180D01*
X96022160Y-87884180D01*
X96022160Y-87864180D01*
X96276160Y-87864180D01*
X96276160Y-87884180D01*
X98225410Y-87884180D01*
X98384160Y-87725430D01*
X98387232Y-87511180D01*
X98374972Y-87386698D01*
X98338662Y-87267000D01*
X98279697Y-87156686D01*
X98251231Y-87122000D01*
X100457000Y-87122000D01*
X100457000Y-92456000D01*
X100354120Y-92456000D01*
X100371182Y-92424080D01*
X100407492Y-92304382D01*
X100419752Y-92179900D01*
X100416680Y-91465650D01*
X100257930Y-91306900D01*
X98658680Y-91306900D01*
X98658680Y-91326900D01*
X98404680Y-91326900D01*
X98404680Y-91306900D01*
X95717088Y-91306900D01*
X95746974Y-91208378D01*
X95761686Y-91059000D01*
X95761085Y-91052900D01*
X98404680Y-91052900D01*
X98404680Y-89703650D01*
X98658680Y-89703650D01*
X98658680Y-91052900D01*
X100257930Y-91052900D01*
X100416680Y-90894150D01*
X100419752Y-90179900D01*
X100407492Y-90055418D01*
X100371182Y-89935720D01*
X100312217Y-89825406D01*
X100232865Y-89728715D01*
X100136174Y-89649363D01*
X100025860Y-89590398D01*
X99906162Y-89554088D01*
X99781680Y-89541828D01*
X98817430Y-89544900D01*
X98658680Y-89703650D01*
X98404680Y-89703650D01*
X98245930Y-89544900D01*
X97281680Y-89541828D01*
X97157198Y-89554088D01*
X97037500Y-89590398D01*
X96927186Y-89649363D01*
X96888810Y-89680858D01*
X96850433Y-89649363D01*
X96740119Y-89590398D01*
X96620421Y-89554088D01*
X96495939Y-89541828D01*
X95531689Y-89544900D01*
X95372939Y-89703650D01*
X95372939Y-90396456D01*
X95289015Y-90351598D01*
X95145378Y-90308026D01*
X95118939Y-90305422D01*
X95118939Y-89703650D01*
X94960189Y-89544900D01*
X93995939Y-89541828D01*
X93871457Y-89554088D01*
X93751759Y-89590398D01*
X93641445Y-89649363D01*
X93544754Y-89728715D01*
X93465402Y-89825406D01*
X93437344Y-89877898D01*
X93388608Y-89818512D01*
X93311255Y-89755031D01*
X93223003Y-89707859D01*
X93127245Y-89678811D01*
X93027660Y-89669003D01*
X92981193Y-89669003D01*
X92931526Y-89576083D01*
X92852424Y-89479696D01*
X92828273Y-89459876D01*
X91879577Y-88511180D01*
X93911088Y-88511180D01*
X93923348Y-88635662D01*
X93959658Y-88755360D01*
X94018623Y-88865674D01*
X94097975Y-88962365D01*
X94194666Y-89041717D01*
X94304980Y-89100682D01*
X94424678Y-89136992D01*
X94549160Y-89149252D01*
X95863410Y-89146180D01*
X96022160Y-88987430D01*
X96022160Y-88138180D01*
X96276160Y-88138180D01*
X96276160Y-88987430D01*
X96434910Y-89146180D01*
X97749160Y-89149252D01*
X97873642Y-89136992D01*
X97993340Y-89100682D01*
X98103654Y-89041717D01*
X98200345Y-88962365D01*
X98279697Y-88865674D01*
X98338662Y-88755360D01*
X98374972Y-88635662D01*
X98387232Y-88511180D01*
X98384160Y-88296930D01*
X98225410Y-88138180D01*
X96276160Y-88138180D01*
X96022160Y-88138180D01*
X94072910Y-88138180D01*
X93914160Y-88296930D01*
X93911088Y-88511180D01*
X91879577Y-88511180D01*
X91567000Y-88198603D01*
X91567000Y-87122000D01*
X94047089Y-87122000D01*
X94018623Y-87156686D01*
X94018623Y-87156686D01*
G37*
X94018623Y-87156686D02*
X93959658Y-87267000D01*
X93923348Y-87386698D01*
X93911088Y-87511180D01*
X93914160Y-87725430D01*
X94072910Y-87884180D01*
X96022160Y-87884180D01*
X96022160Y-87864180D01*
X96276160Y-87864180D01*
X96276160Y-87884180D01*
X98225410Y-87884180D01*
X98384160Y-87725430D01*
X98387232Y-87511180D01*
X98374972Y-87386698D01*
X98338662Y-87267000D01*
X98279697Y-87156686D01*
X98251231Y-87122000D01*
X100457000Y-87122000D01*
X100457000Y-92456000D01*
X100354120Y-92456000D01*
X100371182Y-92424080D01*
X100407492Y-92304382D01*
X100419752Y-92179900D01*
X100416680Y-91465650D01*
X100257930Y-91306900D01*
X98658680Y-91306900D01*
X98658680Y-91326900D01*
X98404680Y-91326900D01*
X98404680Y-91306900D01*
X95717088Y-91306900D01*
X95746974Y-91208378D01*
X95761686Y-91059000D01*
X95761085Y-91052900D01*
X98404680Y-91052900D01*
X98404680Y-89703650D01*
X98658680Y-89703650D01*
X98658680Y-91052900D01*
X100257930Y-91052900D01*
X100416680Y-90894150D01*
X100419752Y-90179900D01*
X100407492Y-90055418D01*
X100371182Y-89935720D01*
X100312217Y-89825406D01*
X100232865Y-89728715D01*
X100136174Y-89649363D01*
X100025860Y-89590398D01*
X99906162Y-89554088D01*
X99781680Y-89541828D01*
X98817430Y-89544900D01*
X98658680Y-89703650D01*
X98404680Y-89703650D01*
X98245930Y-89544900D01*
X97281680Y-89541828D01*
X97157198Y-89554088D01*
X97037500Y-89590398D01*
X96927186Y-89649363D01*
X96888810Y-89680858D01*
X96850433Y-89649363D01*
X96740119Y-89590398D01*
X96620421Y-89554088D01*
X96495939Y-89541828D01*
X95531689Y-89544900D01*
X95372939Y-89703650D01*
X95372939Y-90396456D01*
X95289015Y-90351598D01*
X95145378Y-90308026D01*
X95118939Y-90305422D01*
X95118939Y-89703650D01*
X94960189Y-89544900D01*
X93995939Y-89541828D01*
X93871457Y-89554088D01*
X93751759Y-89590398D01*
X93641445Y-89649363D01*
X93544754Y-89728715D01*
X93465402Y-89825406D01*
X93437344Y-89877898D01*
X93388608Y-89818512D01*
X93311255Y-89755031D01*
X93223003Y-89707859D01*
X93127245Y-89678811D01*
X93027660Y-89669003D01*
X92981193Y-89669003D01*
X92931526Y-89576083D01*
X92852424Y-89479696D01*
X92828273Y-89459876D01*
X91879577Y-88511180D01*
X93911088Y-88511180D01*
X93923348Y-88635662D01*
X93959658Y-88755360D01*
X94018623Y-88865674D01*
X94097975Y-88962365D01*
X94194666Y-89041717D01*
X94304980Y-89100682D01*
X94424678Y-89136992D01*
X94549160Y-89149252D01*
X95863410Y-89146180D01*
X96022160Y-88987430D01*
X96022160Y-88138180D01*
X96276160Y-88138180D01*
X96276160Y-88987430D01*
X96434910Y-89146180D01*
X97749160Y-89149252D01*
X97873642Y-89136992D01*
X97993340Y-89100682D01*
X98103654Y-89041717D01*
X98200345Y-88962365D01*
X98279697Y-88865674D01*
X98338662Y-88755360D01*
X98374972Y-88635662D01*
X98387232Y-88511180D01*
X98384160Y-88296930D01*
X98225410Y-88138180D01*
X96276160Y-88138180D01*
X96022160Y-88138180D01*
X94072910Y-88138180D01*
X93914160Y-88296930D01*
X93911088Y-88511180D01*
X91879577Y-88511180D01*
X91567000Y-88198603D01*
X91567000Y-87122000D01*
X94047089Y-87122000D01*
X94018623Y-87156686D01*
G36*
X94188212Y-87150232D02*
G01*
X94124731Y-87227585D01*
X94077559Y-87315837D01*
X94048511Y-87411595D01*
X94038703Y-87511180D01*
X94038703Y-88511180D01*
X94048511Y-88610765D01*
X94077559Y-88706523D01*
X94124731Y-88794775D01*
X94188212Y-88872128D01*
X94265565Y-88935609D01*
X94353817Y-88982781D01*
X94449575Y-89011829D01*
X94549160Y-89021637D01*
X97749160Y-89021637D01*
X97848745Y-89011829D01*
X97944503Y-88982781D01*
X98032755Y-88935609D01*
X98110108Y-88872128D01*
X98173589Y-88794775D01*
X98220761Y-88706523D01*
X98249809Y-88610765D01*
X98259617Y-88511180D01*
X98259617Y-87511180D01*
X98249809Y-87411595D01*
X98220761Y-87315837D01*
X98173589Y-87227585D01*
X98110108Y-87150232D01*
X98075707Y-87122000D01*
X100457000Y-87122000D01*
X100457000Y-90290900D01*
X100292137Y-90290900D01*
X100292137Y-90179900D01*
X100282329Y-90080315D01*
X100253281Y-89984557D01*
X100206109Y-89896305D01*
X100142628Y-89818952D01*
X100065275Y-89755471D01*
X99977023Y-89708299D01*
X99881265Y-89679251D01*
X99781680Y-89669443D01*
X97281680Y-89669443D01*
X97182095Y-89679251D01*
X97086337Y-89708299D01*
X96998085Y-89755471D01*
X96920732Y-89818952D01*
X96888809Y-89857850D01*
X96856887Y-89818952D01*
X96779534Y-89755471D01*
X96691282Y-89708299D01*
X96595524Y-89679251D01*
X96495939Y-89669443D01*
X93995939Y-89669443D01*
X93896354Y-89679251D01*
X93800596Y-89708299D01*
X93712344Y-89755471D01*
X93634991Y-89818952D01*
X93586540Y-89877991D01*
X93558197Y-89824966D01*
X93478845Y-89728275D01*
X93382154Y-89648923D01*
X93271840Y-89589958D01*
X93152142Y-89553648D01*
X93027660Y-89541388D01*
X92688410Y-89544460D01*
X92529660Y-89703210D01*
X92529660Y-90297000D01*
X92418574Y-90297000D01*
X92306622Y-90308026D01*
X92275660Y-90317418D01*
X92275660Y-89703210D01*
X92116910Y-89544460D01*
X91777660Y-89541388D01*
X91653178Y-89553648D01*
X91567000Y-89579790D01*
X91567000Y-87122000D01*
X94222613Y-87122000D01*
X94188212Y-87150232D01*
X94188212Y-87150232D01*
G37*
X94188212Y-87150232D02*
X94124731Y-87227585D01*
X94077559Y-87315837D01*
X94048511Y-87411595D01*
X94038703Y-87511180D01*
X94038703Y-88511180D01*
X94048511Y-88610765D01*
X94077559Y-88706523D01*
X94124731Y-88794775D01*
X94188212Y-88872128D01*
X94265565Y-88935609D01*
X94353817Y-88982781D01*
X94449575Y-89011829D01*
X94549160Y-89021637D01*
X97749160Y-89021637D01*
X97848745Y-89011829D01*
X97944503Y-88982781D01*
X98032755Y-88935609D01*
X98110108Y-88872128D01*
X98173589Y-88794775D01*
X98220761Y-88706523D01*
X98249809Y-88610765D01*
X98259617Y-88511180D01*
X98259617Y-87511180D01*
X98249809Y-87411595D01*
X98220761Y-87315837D01*
X98173589Y-87227585D01*
X98110108Y-87150232D01*
X98075707Y-87122000D01*
X100457000Y-87122000D01*
X100457000Y-90290900D01*
X100292137Y-90290900D01*
X100292137Y-90179900D01*
X100282329Y-90080315D01*
X100253281Y-89984557D01*
X100206109Y-89896305D01*
X100142628Y-89818952D01*
X100065275Y-89755471D01*
X99977023Y-89708299D01*
X99881265Y-89679251D01*
X99781680Y-89669443D01*
X97281680Y-89669443D01*
X97182095Y-89679251D01*
X97086337Y-89708299D01*
X96998085Y-89755471D01*
X96920732Y-89818952D01*
X96888809Y-89857850D01*
X96856887Y-89818952D01*
X96779534Y-89755471D01*
X96691282Y-89708299D01*
X96595524Y-89679251D01*
X96495939Y-89669443D01*
X93995939Y-89669443D01*
X93896354Y-89679251D01*
X93800596Y-89708299D01*
X93712344Y-89755471D01*
X93634991Y-89818952D01*
X93586540Y-89877991D01*
X93558197Y-89824966D01*
X93478845Y-89728275D01*
X93382154Y-89648923D01*
X93271840Y-89589958D01*
X93152142Y-89553648D01*
X93027660Y-89541388D01*
X92688410Y-89544460D01*
X92529660Y-89703210D01*
X92529660Y-90297000D01*
X92418574Y-90297000D01*
X92306622Y-90308026D01*
X92275660Y-90317418D01*
X92275660Y-89703210D01*
X92116910Y-89544460D01*
X91777660Y-89541388D01*
X91653178Y-89553648D01*
X91567000Y-89579790D01*
X91567000Y-87122000D01*
X94222613Y-87122000D01*
X94188212Y-87150232D01*
G36*
X143784999Y-120737143D02*
G01*
X143832171Y-120825395D01*
X143895652Y-120902748D01*
X143973005Y-120966229D01*
X144061257Y-121013401D01*
X144157015Y-121042449D01*
X144256600Y-121052257D01*
X145506600Y-121052257D01*
X145606185Y-121042449D01*
X145701943Y-121013401D01*
X145790195Y-120966229D01*
X145867548Y-120902748D01*
X145931029Y-120825395D01*
X145978201Y-120737143D01*
X145989226Y-120700800D01*
X146558000Y-120700800D01*
X146558000Y-125974008D01*
X146544064Y-126062001D01*
X146508212Y-126132363D01*
X146452363Y-126188212D01*
X146382001Y-126224064D01*
X146294008Y-126238000D01*
X142932839Y-126238000D01*
X142944502Y-126216180D01*
X142980812Y-126096482D01*
X142993072Y-125972000D01*
X142990000Y-125507750D01*
X142831250Y-125349000D01*
X141732000Y-125349000D01*
X141732000Y-125369000D01*
X141478000Y-125369000D01*
X141478000Y-125349000D01*
X140378750Y-125349000D01*
X140220000Y-125507750D01*
X140216928Y-125972000D01*
X140229188Y-126096482D01*
X140265498Y-126216180D01*
X140277161Y-126238000D01*
X119135992Y-126238000D01*
X119047999Y-126224064D01*
X118977637Y-126188212D01*
X118921788Y-126132363D01*
X118885936Y-126062001D01*
X118872000Y-125974008D01*
X118872000Y-124888000D01*
X125289728Y-124888000D01*
X125301988Y-125012482D01*
X125338298Y-125132180D01*
X125397263Y-125242494D01*
X125476615Y-125339185D01*
X125573306Y-125418537D01*
X125683620Y-125477502D01*
X125803318Y-125513812D01*
X125927800Y-125526072D01*
X126892050Y-125523000D01*
X127050800Y-125364250D01*
X127050800Y-124015000D01*
X127304800Y-124015000D01*
X127304800Y-125364250D01*
X127463550Y-125523000D01*
X128427800Y-125526072D01*
X128552282Y-125513812D01*
X128671980Y-125477502D01*
X128782294Y-125418537D01*
X128807634Y-125397741D01*
X128832974Y-125418537D01*
X128943288Y-125477502D01*
X129062986Y-125513812D01*
X129187468Y-125526072D01*
X130151718Y-125523000D01*
X130310468Y-125364250D01*
X130310468Y-124015000D01*
X130564468Y-124015000D01*
X130564468Y-125364250D01*
X130723218Y-125523000D01*
X131687468Y-125526072D01*
X131811950Y-125513812D01*
X131931648Y-125477502D01*
X132041962Y-125418537D01*
X132067301Y-125397742D01*
X132092640Y-125418537D01*
X132202954Y-125477502D01*
X132322652Y-125513812D01*
X132447134Y-125526072D01*
X133411384Y-125523000D01*
X133570134Y-125364250D01*
X133570134Y-124015000D01*
X133824134Y-124015000D01*
X133824134Y-125364250D01*
X133982884Y-125523000D01*
X134947134Y-125526072D01*
X135071616Y-125513812D01*
X135191314Y-125477502D01*
X135301628Y-125418537D01*
X135326967Y-125397742D01*
X135352306Y-125418537D01*
X135462620Y-125477502D01*
X135582318Y-125513812D01*
X135706800Y-125526072D01*
X136671050Y-125523000D01*
X136829800Y-125364250D01*
X136829800Y-124015000D01*
X137083800Y-124015000D01*
X137083800Y-125364250D01*
X137242550Y-125523000D01*
X138206800Y-125526072D01*
X138331282Y-125513812D01*
X138450980Y-125477502D01*
X138561294Y-125418537D01*
X138657985Y-125339185D01*
X138737337Y-125242494D01*
X138796302Y-125132180D01*
X138832612Y-125012482D01*
X138844872Y-124888000D01*
X138843083Y-124472000D01*
X140216928Y-124472000D01*
X140220000Y-124936250D01*
X140378750Y-125095000D01*
X141478000Y-125095000D01*
X141478000Y-123995750D01*
X141732000Y-123995750D01*
X141732000Y-125095000D01*
X142831250Y-125095000D01*
X142990000Y-124936250D01*
X142993072Y-124472000D01*
X142980812Y-124347518D01*
X142944502Y-124227820D01*
X142885537Y-124117506D01*
X142806185Y-124020815D01*
X142709494Y-123941463D01*
X142599180Y-123882498D01*
X142479482Y-123846188D01*
X142355000Y-123833928D01*
X141890750Y-123837000D01*
X141732000Y-123995750D01*
X141478000Y-123995750D01*
X141319250Y-123837000D01*
X140855000Y-123833928D01*
X140730518Y-123846188D01*
X140610820Y-123882498D01*
X140500506Y-123941463D01*
X140403815Y-124020815D01*
X140324463Y-124117506D01*
X140265498Y-124227820D01*
X140229188Y-124347518D01*
X140216928Y-124472000D01*
X138843083Y-124472000D01*
X138841800Y-124173750D01*
X138683050Y-124015000D01*
X137083800Y-124015000D01*
X136829800Y-124015000D01*
X133824134Y-124015000D01*
X133570134Y-124015000D01*
X130564468Y-124015000D01*
X130310468Y-124015000D01*
X127304800Y-124015000D01*
X127050800Y-124015000D01*
X125451550Y-124015000D01*
X125292800Y-124173750D01*
X125289728Y-124888000D01*
X118872000Y-124888000D01*
X118872000Y-122888000D01*
X125289728Y-122888000D01*
X125292800Y-123602250D01*
X125451550Y-123761000D01*
X127050800Y-123761000D01*
X127050800Y-122411750D01*
X127304800Y-122411750D01*
X127304800Y-123761000D01*
X130310468Y-123761000D01*
X130310468Y-122411750D01*
X130564468Y-122411750D01*
X130564468Y-123761000D01*
X133570134Y-123761000D01*
X133570134Y-122411750D01*
X133824134Y-122411750D01*
X133824134Y-123761000D01*
X136829800Y-123761000D01*
X136829800Y-122411750D01*
X136671050Y-122253000D01*
X135706800Y-122249928D01*
X135582318Y-122262188D01*
X135462620Y-122298498D01*
X135352306Y-122357463D01*
X135326967Y-122378258D01*
X135301628Y-122357463D01*
X135191314Y-122298498D01*
X135071616Y-122262188D01*
X134947134Y-122249928D01*
X133982884Y-122253000D01*
X133824134Y-122411750D01*
X133570134Y-122411750D01*
X133411384Y-122253000D01*
X132447134Y-122249928D01*
X132322652Y-122262188D01*
X132202954Y-122298498D01*
X132092640Y-122357463D01*
X132067301Y-122378258D01*
X132041962Y-122357463D01*
X131931648Y-122298498D01*
X131811950Y-122262188D01*
X131687468Y-122249928D01*
X130723218Y-122253000D01*
X130564468Y-122411750D01*
X130310468Y-122411750D01*
X130151718Y-122253000D01*
X129187468Y-122249928D01*
X129062986Y-122262188D01*
X128943288Y-122298498D01*
X128832974Y-122357463D01*
X128807634Y-122378259D01*
X128782294Y-122357463D01*
X128671980Y-122298498D01*
X128552282Y-122262188D01*
X128427800Y-122249928D01*
X127463550Y-122253000D01*
X127304800Y-122411750D01*
X127050800Y-122411750D01*
X126892050Y-122253000D01*
X125927800Y-122249928D01*
X125803318Y-122262188D01*
X125683620Y-122298498D01*
X125573306Y-122357463D01*
X125476615Y-122436815D01*
X125397263Y-122533506D01*
X125338298Y-122643820D01*
X125301988Y-122763518D01*
X125289728Y-122888000D01*
X118872000Y-122888000D01*
X118872000Y-121793000D01*
X138487156Y-121793000D01*
X138489000Y-122071650D01*
X138647748Y-122230398D01*
X138489000Y-122230398D01*
X138489000Y-122318820D01*
X138450980Y-122298498D01*
X138331282Y-122262188D01*
X138206800Y-122249928D01*
X137242550Y-122253000D01*
X137083800Y-122411750D01*
X137083800Y-123761000D01*
X138683050Y-123761000D01*
X138793362Y-123650688D01*
X138879820Y-123696902D01*
X138999518Y-123733212D01*
X139124000Y-123745472D01*
X140938250Y-123742400D01*
X141097000Y-123583650D01*
X141097000Y-122484400D01*
X141351000Y-122484400D01*
X141351000Y-123583650D01*
X141509750Y-123742400D01*
X143324000Y-123745472D01*
X143448482Y-123733212D01*
X143568180Y-123696902D01*
X143678494Y-123637937D01*
X143775185Y-123558585D01*
X143854537Y-123461894D01*
X143913502Y-123351580D01*
X143949812Y-123231882D01*
X143962072Y-123107400D01*
X143959000Y-122643150D01*
X143800250Y-122484400D01*
X141351000Y-122484400D01*
X141097000Y-122484400D01*
X141077000Y-122484400D01*
X141077000Y-122230400D01*
X141097000Y-122230400D01*
X141097000Y-121131150D01*
X141351000Y-121131150D01*
X141351000Y-122230400D01*
X143800250Y-122230400D01*
X143959000Y-122071650D01*
X143962072Y-121607400D01*
X143949812Y-121482918D01*
X143913502Y-121363220D01*
X143854537Y-121252906D01*
X143775185Y-121156215D01*
X143678494Y-121076863D01*
X143568180Y-121017898D01*
X143448482Y-120981588D01*
X143324000Y-120969328D01*
X141509750Y-120972400D01*
X141351000Y-121131150D01*
X141097000Y-121131150D01*
X140938250Y-120972400D01*
X139567800Y-120970079D01*
X139571909Y-120917857D01*
X143324000Y-120917857D01*
X143423585Y-120908049D01*
X143519343Y-120879001D01*
X143607595Y-120831829D01*
X143684948Y-120768348D01*
X143740382Y-120700800D01*
X143773974Y-120700800D01*
X143784999Y-120737143D01*
X143784999Y-120737143D01*
G37*
X143784999Y-120737143D02*
X143832171Y-120825395D01*
X143895652Y-120902748D01*
X143973005Y-120966229D01*
X144061257Y-121013401D01*
X144157015Y-121042449D01*
X144256600Y-121052257D01*
X145506600Y-121052257D01*
X145606185Y-121042449D01*
X145701943Y-121013401D01*
X145790195Y-120966229D01*
X145867548Y-120902748D01*
X145931029Y-120825395D01*
X145978201Y-120737143D01*
X145989226Y-120700800D01*
X146558000Y-120700800D01*
X146558000Y-125974008D01*
X146544064Y-126062001D01*
X146508212Y-126132363D01*
X146452363Y-126188212D01*
X146382001Y-126224064D01*
X146294008Y-126238000D01*
X142932839Y-126238000D01*
X142944502Y-126216180D01*
X142980812Y-126096482D01*
X142993072Y-125972000D01*
X142990000Y-125507750D01*
X142831250Y-125349000D01*
X141732000Y-125349000D01*
X141732000Y-125369000D01*
X141478000Y-125369000D01*
X141478000Y-125349000D01*
X140378750Y-125349000D01*
X140220000Y-125507750D01*
X140216928Y-125972000D01*
X140229188Y-126096482D01*
X140265498Y-126216180D01*
X140277161Y-126238000D01*
X119135992Y-126238000D01*
X119047999Y-126224064D01*
X118977637Y-126188212D01*
X118921788Y-126132363D01*
X118885936Y-126062001D01*
X118872000Y-125974008D01*
X118872000Y-124888000D01*
X125289728Y-124888000D01*
X125301988Y-125012482D01*
X125338298Y-125132180D01*
X125397263Y-125242494D01*
X125476615Y-125339185D01*
X125573306Y-125418537D01*
X125683620Y-125477502D01*
X125803318Y-125513812D01*
X125927800Y-125526072D01*
X126892050Y-125523000D01*
X127050800Y-125364250D01*
X127050800Y-124015000D01*
X127304800Y-124015000D01*
X127304800Y-125364250D01*
X127463550Y-125523000D01*
X128427800Y-125526072D01*
X128552282Y-125513812D01*
X128671980Y-125477502D01*
X128782294Y-125418537D01*
X128807634Y-125397741D01*
X128832974Y-125418537D01*
X128943288Y-125477502D01*
X129062986Y-125513812D01*
X129187468Y-125526072D01*
X130151718Y-125523000D01*
X130310468Y-125364250D01*
X130310468Y-124015000D01*
X130564468Y-124015000D01*
X130564468Y-125364250D01*
X130723218Y-125523000D01*
X131687468Y-125526072D01*
X131811950Y-125513812D01*
X131931648Y-125477502D01*
X132041962Y-125418537D01*
X132067301Y-125397742D01*
X132092640Y-125418537D01*
X132202954Y-125477502D01*
X132322652Y-125513812D01*
X132447134Y-125526072D01*
X133411384Y-125523000D01*
X133570134Y-125364250D01*
X133570134Y-124015000D01*
X133824134Y-124015000D01*
X133824134Y-125364250D01*
X133982884Y-125523000D01*
X134947134Y-125526072D01*
X135071616Y-125513812D01*
X135191314Y-125477502D01*
X135301628Y-125418537D01*
X135326967Y-125397742D01*
X135352306Y-125418537D01*
X135462620Y-125477502D01*
X135582318Y-125513812D01*
X135706800Y-125526072D01*
X136671050Y-125523000D01*
X136829800Y-125364250D01*
X136829800Y-124015000D01*
X137083800Y-124015000D01*
X137083800Y-125364250D01*
X137242550Y-125523000D01*
X138206800Y-125526072D01*
X138331282Y-125513812D01*
X138450980Y-125477502D01*
X138561294Y-125418537D01*
X138657985Y-125339185D01*
X138737337Y-125242494D01*
X138796302Y-125132180D01*
X138832612Y-125012482D01*
X138844872Y-124888000D01*
X138843083Y-124472000D01*
X140216928Y-124472000D01*
X140220000Y-124936250D01*
X140378750Y-125095000D01*
X141478000Y-125095000D01*
X141478000Y-123995750D01*
X141732000Y-123995750D01*
X141732000Y-125095000D01*
X142831250Y-125095000D01*
X142990000Y-124936250D01*
X142993072Y-124472000D01*
X142980812Y-124347518D01*
X142944502Y-124227820D01*
X142885537Y-124117506D01*
X142806185Y-124020815D01*
X142709494Y-123941463D01*
X142599180Y-123882498D01*
X142479482Y-123846188D01*
X142355000Y-123833928D01*
X141890750Y-123837000D01*
X141732000Y-123995750D01*
X141478000Y-123995750D01*
X141319250Y-123837000D01*
X140855000Y-123833928D01*
X140730518Y-123846188D01*
X140610820Y-123882498D01*
X140500506Y-123941463D01*
X140403815Y-124020815D01*
X140324463Y-124117506D01*
X140265498Y-124227820D01*
X140229188Y-124347518D01*
X140216928Y-124472000D01*
X138843083Y-124472000D01*
X138841800Y-124173750D01*
X138683050Y-124015000D01*
X137083800Y-124015000D01*
X136829800Y-124015000D01*
X133824134Y-124015000D01*
X133570134Y-124015000D01*
X130564468Y-124015000D01*
X130310468Y-124015000D01*
X127304800Y-124015000D01*
X127050800Y-124015000D01*
X125451550Y-124015000D01*
X125292800Y-124173750D01*
X125289728Y-124888000D01*
X118872000Y-124888000D01*
X118872000Y-122888000D01*
X125289728Y-122888000D01*
X125292800Y-123602250D01*
X125451550Y-123761000D01*
X127050800Y-123761000D01*
X127050800Y-122411750D01*
X127304800Y-122411750D01*
X127304800Y-123761000D01*
X130310468Y-123761000D01*
X130310468Y-122411750D01*
X130564468Y-122411750D01*
X130564468Y-123761000D01*
X133570134Y-123761000D01*
X133570134Y-122411750D01*
X133824134Y-122411750D01*
X133824134Y-123761000D01*
X136829800Y-123761000D01*
X136829800Y-122411750D01*
X136671050Y-122253000D01*
X135706800Y-122249928D01*
X135582318Y-122262188D01*
X135462620Y-122298498D01*
X135352306Y-122357463D01*
X135326967Y-122378258D01*
X135301628Y-122357463D01*
X135191314Y-122298498D01*
X135071616Y-122262188D01*
X134947134Y-122249928D01*
X133982884Y-122253000D01*
X133824134Y-122411750D01*
X133570134Y-122411750D01*
X133411384Y-122253000D01*
X132447134Y-122249928D01*
X132322652Y-122262188D01*
X132202954Y-122298498D01*
X132092640Y-122357463D01*
X132067301Y-122378258D01*
X132041962Y-122357463D01*
X131931648Y-122298498D01*
X131811950Y-122262188D01*
X131687468Y-122249928D01*
X130723218Y-122253000D01*
X130564468Y-122411750D01*
X130310468Y-122411750D01*
X130151718Y-122253000D01*
X129187468Y-122249928D01*
X129062986Y-122262188D01*
X128943288Y-122298498D01*
X128832974Y-122357463D01*
X128807634Y-122378259D01*
X128782294Y-122357463D01*
X128671980Y-122298498D01*
X128552282Y-122262188D01*
X128427800Y-122249928D01*
X127463550Y-122253000D01*
X127304800Y-122411750D01*
X127050800Y-122411750D01*
X126892050Y-122253000D01*
X125927800Y-122249928D01*
X125803318Y-122262188D01*
X125683620Y-122298498D01*
X125573306Y-122357463D01*
X125476615Y-122436815D01*
X125397263Y-122533506D01*
X125338298Y-122643820D01*
X125301988Y-122763518D01*
X125289728Y-122888000D01*
X118872000Y-122888000D01*
X118872000Y-121793000D01*
X138487156Y-121793000D01*
X138489000Y-122071650D01*
X138647748Y-122230398D01*
X138489000Y-122230398D01*
X138489000Y-122318820D01*
X138450980Y-122298498D01*
X138331282Y-122262188D01*
X138206800Y-122249928D01*
X137242550Y-122253000D01*
X137083800Y-122411750D01*
X137083800Y-123761000D01*
X138683050Y-123761000D01*
X138793362Y-123650688D01*
X138879820Y-123696902D01*
X138999518Y-123733212D01*
X139124000Y-123745472D01*
X140938250Y-123742400D01*
X141097000Y-123583650D01*
X141097000Y-122484400D01*
X141351000Y-122484400D01*
X141351000Y-123583650D01*
X141509750Y-123742400D01*
X143324000Y-123745472D01*
X143448482Y-123733212D01*
X143568180Y-123696902D01*
X143678494Y-123637937D01*
X143775185Y-123558585D01*
X143854537Y-123461894D01*
X143913502Y-123351580D01*
X143949812Y-123231882D01*
X143962072Y-123107400D01*
X143959000Y-122643150D01*
X143800250Y-122484400D01*
X141351000Y-122484400D01*
X141097000Y-122484400D01*
X141077000Y-122484400D01*
X141077000Y-122230400D01*
X141097000Y-122230400D01*
X141097000Y-121131150D01*
X141351000Y-121131150D01*
X141351000Y-122230400D01*
X143800250Y-122230400D01*
X143959000Y-122071650D01*
X143962072Y-121607400D01*
X143949812Y-121482918D01*
X143913502Y-121363220D01*
X143854537Y-121252906D01*
X143775185Y-121156215D01*
X143678494Y-121076863D01*
X143568180Y-121017898D01*
X143448482Y-120981588D01*
X143324000Y-120969328D01*
X141509750Y-120972400D01*
X141351000Y-121131150D01*
X141097000Y-121131150D01*
X140938250Y-120972400D01*
X139567800Y-120970079D01*
X139571909Y-120917857D01*
X143324000Y-120917857D01*
X143423585Y-120908049D01*
X143519343Y-120879001D01*
X143607595Y-120831829D01*
X143684948Y-120768348D01*
X143740382Y-120700800D01*
X143773974Y-120700800D01*
X143784999Y-120737143D01*
G36*
X141737098Y-112928620D02*
G01*
X141700788Y-113048318D01*
X141688528Y-113172800D01*
X141691600Y-113637050D01*
X141850350Y-113795800D01*
X142849600Y-113795800D01*
X142849600Y-113775800D01*
X143103600Y-113775800D01*
X143103600Y-113795800D01*
X144102850Y-113795800D01*
X144156700Y-113741950D01*
X144212150Y-113797400D01*
X145186400Y-113797400D01*
X145186400Y-113777400D01*
X145440400Y-113777400D01*
X145440400Y-113797400D01*
X145460400Y-113797400D01*
X145460400Y-114051400D01*
X145440400Y-114051400D01*
X145440400Y-114071400D01*
X145186400Y-114071400D01*
X145186400Y-114051400D01*
X144212150Y-114051400D01*
X144158300Y-114105250D01*
X144102850Y-114049800D01*
X143103600Y-114049800D01*
X143103600Y-114069800D01*
X142849600Y-114069800D01*
X142849600Y-114049800D01*
X141850350Y-114049800D01*
X141691600Y-114208550D01*
X141688528Y-114672800D01*
X141700788Y-114797282D01*
X141737098Y-114916980D01*
X141796063Y-115027294D01*
X141875415Y-115123985D01*
X141972106Y-115203337D01*
X142016338Y-115226980D01*
X140920777Y-115226980D01*
X140903195Y-115212551D01*
X140902127Y-115211980D01*
X140903195Y-115211409D01*
X140980548Y-115147928D01*
X141008408Y-115113980D01*
X141095850Y-115113980D01*
X141254600Y-114955230D01*
X141243468Y-114853097D01*
X141205361Y-114733959D01*
X141144744Y-114624544D01*
X141130057Y-114607187D01*
X141130057Y-114336980D01*
X141120249Y-114237395D01*
X141120123Y-114236980D01*
X141120249Y-114236565D01*
X141130057Y-114136980D01*
X141130057Y-113686980D01*
X141120249Y-113587395D01*
X141120123Y-113586980D01*
X141120249Y-113586565D01*
X141130057Y-113486980D01*
X141130057Y-113036980D01*
X141120249Y-112937395D01*
X141109815Y-112903000D01*
X141750792Y-112903000D01*
X141737098Y-112928620D01*
X141737098Y-112928620D01*
G37*
X141737098Y-112928620D02*
X141700788Y-113048318D01*
X141688528Y-113172800D01*
X141691600Y-113637050D01*
X141850350Y-113795800D01*
X142849600Y-113795800D01*
X142849600Y-113775800D01*
X143103600Y-113775800D01*
X143103600Y-113795800D01*
X144102850Y-113795800D01*
X144156700Y-113741950D01*
X144212150Y-113797400D01*
X145186400Y-113797400D01*
X145186400Y-113777400D01*
X145440400Y-113777400D01*
X145440400Y-113797400D01*
X145460400Y-113797400D01*
X145460400Y-114051400D01*
X145440400Y-114051400D01*
X145440400Y-114071400D01*
X145186400Y-114071400D01*
X145186400Y-114051400D01*
X144212150Y-114051400D01*
X144158300Y-114105250D01*
X144102850Y-114049800D01*
X143103600Y-114049800D01*
X143103600Y-114069800D01*
X142849600Y-114069800D01*
X142849600Y-114049800D01*
X141850350Y-114049800D01*
X141691600Y-114208550D01*
X141688528Y-114672800D01*
X141700788Y-114797282D01*
X141737098Y-114916980D01*
X141796063Y-115027294D01*
X141875415Y-115123985D01*
X141972106Y-115203337D01*
X142016338Y-115226980D01*
X140920777Y-115226980D01*
X140903195Y-115212551D01*
X140902127Y-115211980D01*
X140903195Y-115211409D01*
X140980548Y-115147928D01*
X141008408Y-115113980D01*
X141095850Y-115113980D01*
X141254600Y-114955230D01*
X141243468Y-114853097D01*
X141205361Y-114733959D01*
X141144744Y-114624544D01*
X141130057Y-114607187D01*
X141130057Y-114336980D01*
X141120249Y-114237395D01*
X141120123Y-114236980D01*
X141120249Y-114236565D01*
X141130057Y-114136980D01*
X141130057Y-113686980D01*
X141120249Y-113587395D01*
X141120123Y-113586980D01*
X141120249Y-113586565D01*
X141130057Y-113486980D01*
X141130057Y-113036980D01*
X141120249Y-112937395D01*
X141109815Y-112903000D01*
X141750792Y-112903000D01*
X141737098Y-112928620D01*
G36*
X124137743Y-106232400D02*
G01*
X124147551Y-106331985D01*
X124176599Y-106427743D01*
X124223771Y-106515995D01*
X124287252Y-106593348D01*
X124364605Y-106656829D01*
X124452857Y-106704001D01*
X124548615Y-106733049D01*
X124648200Y-106742857D01*
X125948200Y-106742857D01*
X126047785Y-106733049D01*
X126143543Y-106704001D01*
X126231795Y-106656829D01*
X126309148Y-106593348D01*
X126372629Y-106515995D01*
X126419801Y-106427743D01*
X126448849Y-106331985D01*
X126458657Y-106232400D01*
X126458657Y-106172000D01*
X128842343Y-106172000D01*
X128842343Y-106286400D01*
X128852151Y-106385985D01*
X128881199Y-106481743D01*
X128928371Y-106569995D01*
X128991852Y-106647348D01*
X129069205Y-106710829D01*
X129157457Y-106758001D01*
X129253215Y-106787049D01*
X129352800Y-106796857D01*
X129413000Y-106796857D01*
X129413000Y-107075943D01*
X128452800Y-107075943D01*
X128353215Y-107085751D01*
X128257457Y-107114799D01*
X128169205Y-107161971D01*
X128091852Y-107225452D01*
X128028371Y-107302805D01*
X127981199Y-107391057D01*
X127952151Y-107486815D01*
X127942343Y-107586400D01*
X127942343Y-109186400D01*
X127952151Y-109285985D01*
X127981199Y-109381743D01*
X128028371Y-109469995D01*
X128091852Y-109547348D01*
X128169205Y-109610829D01*
X128257457Y-109658001D01*
X128353215Y-109687049D01*
X128452800Y-109696857D01*
X129469675Y-109696857D01*
X129499608Y-109755603D01*
X129513030Y-109776572D01*
X129522962Y-109787749D01*
X129607251Y-109872038D01*
X129626497Y-109887832D01*
X129639397Y-109895392D01*
X129745608Y-109949510D01*
X129768791Y-109958585D01*
X129783398Y-109961789D01*
X129901133Y-109980436D01*
X129921000Y-109982000D01*
X130967800Y-109982000D01*
X130967800Y-110421343D01*
X130852800Y-110421343D01*
X130753215Y-110431151D01*
X130657457Y-110460199D01*
X130569205Y-110507371D01*
X130491852Y-110570852D01*
X130428371Y-110648205D01*
X130424802Y-110654881D01*
X130383337Y-110577306D01*
X130303985Y-110480615D01*
X130207294Y-110401263D01*
X130096980Y-110342298D01*
X129977282Y-110305988D01*
X129852800Y-110293728D01*
X129388550Y-110296800D01*
X129229800Y-110455550D01*
X129229800Y-111429800D01*
X129249800Y-111429800D01*
X129249800Y-111683800D01*
X129229800Y-111683800D01*
X129229800Y-112658050D01*
X129388550Y-112816800D01*
X129852800Y-112819872D01*
X129977282Y-112807612D01*
X130096980Y-112771302D01*
X130207294Y-112712337D01*
X130303985Y-112632985D01*
X130383337Y-112536294D01*
X130424802Y-112458719D01*
X130428371Y-112465395D01*
X130491852Y-112542748D01*
X130569205Y-112606229D01*
X130657457Y-112653401D01*
X130753215Y-112682449D01*
X130852800Y-112692257D01*
X132352800Y-112692257D01*
X132452385Y-112682449D01*
X132548143Y-112653401D01*
X132636395Y-112606229D01*
X132713748Y-112542748D01*
X132777229Y-112465395D01*
X132798019Y-112426501D01*
X132832171Y-112490395D01*
X132895652Y-112567748D01*
X132967625Y-112626814D01*
X132907652Y-112676032D01*
X132844171Y-112753385D01*
X132796999Y-112841637D01*
X132767951Y-112937395D01*
X132758143Y-113036980D01*
X132758143Y-113157000D01*
X123952000Y-113157000D01*
X123952000Y-112334812D01*
X124834650Y-112332000D01*
X124993400Y-112173250D01*
X124993400Y-110824000D01*
X125247400Y-110824000D01*
X125247400Y-112173250D01*
X125406150Y-112332000D01*
X126370400Y-112335072D01*
X126494882Y-112322812D01*
X126614580Y-112286502D01*
X126724894Y-112227537D01*
X126780624Y-112181800D01*
X127714728Y-112181800D01*
X127726988Y-112306282D01*
X127763298Y-112425980D01*
X127822263Y-112536294D01*
X127901615Y-112632985D01*
X127998306Y-112712337D01*
X128108620Y-112771302D01*
X128228318Y-112807612D01*
X128352800Y-112819872D01*
X128817050Y-112816800D01*
X128975800Y-112658050D01*
X128975800Y-111683800D01*
X127876550Y-111683800D01*
X127717800Y-111842550D01*
X127714728Y-112181800D01*
X126780624Y-112181800D01*
X126821585Y-112148185D01*
X126900937Y-112051494D01*
X126959902Y-111941180D01*
X126996212Y-111821482D01*
X127008472Y-111697000D01*
X127005400Y-110982750D01*
X126954450Y-110931800D01*
X127714728Y-110931800D01*
X127717800Y-111271050D01*
X127876550Y-111429800D01*
X128975800Y-111429800D01*
X128975800Y-110455550D01*
X128817050Y-110296800D01*
X128352800Y-110293728D01*
X128228318Y-110305988D01*
X128108620Y-110342298D01*
X127998306Y-110401263D01*
X127901615Y-110480615D01*
X127822263Y-110577306D01*
X127763298Y-110687620D01*
X127726988Y-110807318D01*
X127714728Y-110931800D01*
X126954450Y-110931800D01*
X126846650Y-110824000D01*
X125247400Y-110824000D01*
X124993400Y-110824000D01*
X121868400Y-110824000D01*
X121868400Y-110844000D01*
X121614400Y-110844000D01*
X121614400Y-110824000D01*
X120015150Y-110824000D01*
X119856400Y-110982750D01*
X119853603Y-111633000D01*
X119135992Y-111633000D01*
X119047999Y-111619064D01*
X118977637Y-111583212D01*
X118921788Y-111527363D01*
X118885936Y-111457001D01*
X118872000Y-111369008D01*
X118872000Y-109697000D01*
X119853328Y-109697000D01*
X119856400Y-110411250D01*
X120015150Y-110570000D01*
X121614400Y-110570000D01*
X121614400Y-109220750D01*
X121868400Y-109220750D01*
X121868400Y-110570000D01*
X124993400Y-110570000D01*
X124993400Y-110550000D01*
X125247400Y-110550000D01*
X125247400Y-110570000D01*
X126846650Y-110570000D01*
X127005400Y-110411250D01*
X127008472Y-109697000D01*
X126996212Y-109572518D01*
X126959902Y-109452820D01*
X126900937Y-109342506D01*
X126821585Y-109245815D01*
X126724894Y-109166463D01*
X126614580Y-109107498D01*
X126563370Y-109091964D01*
X126574012Y-109056882D01*
X126586272Y-108932400D01*
X126583200Y-108468150D01*
X126424450Y-108309400D01*
X125425200Y-108309400D01*
X125425200Y-108329400D01*
X125171200Y-108329400D01*
X125171200Y-108309400D01*
X124171950Y-108309400D01*
X124013200Y-108468150D01*
X124010128Y-108932400D01*
X124022388Y-109056882D01*
X124023156Y-109059415D01*
X123870400Y-109058928D01*
X123745918Y-109071188D01*
X123626220Y-109107498D01*
X123515906Y-109166463D01*
X123430900Y-109236225D01*
X123345894Y-109166463D01*
X123235580Y-109107498D01*
X123115882Y-109071188D01*
X122991400Y-109058928D01*
X122027150Y-109062000D01*
X121868400Y-109220750D01*
X121614400Y-109220750D01*
X121455650Y-109062000D01*
X120491400Y-109058928D01*
X120366918Y-109071188D01*
X120247220Y-109107498D01*
X120136906Y-109166463D01*
X120040215Y-109245815D01*
X119960863Y-109342506D01*
X119901898Y-109452820D01*
X119865588Y-109572518D01*
X119853328Y-109697000D01*
X118872000Y-109697000D01*
X118872000Y-107432400D01*
X124010128Y-107432400D01*
X124013200Y-107896650D01*
X124171950Y-108055400D01*
X125171200Y-108055400D01*
X125171200Y-106956150D01*
X125425200Y-106956150D01*
X125425200Y-108055400D01*
X126424450Y-108055400D01*
X126583200Y-107896650D01*
X126586272Y-107432400D01*
X126574012Y-107307918D01*
X126537702Y-107188220D01*
X126478737Y-107077906D01*
X126399385Y-106981215D01*
X126302694Y-106901863D01*
X126192380Y-106842898D01*
X126072682Y-106806588D01*
X125948200Y-106794328D01*
X125583950Y-106797400D01*
X125425200Y-106956150D01*
X125171200Y-106956150D01*
X125012450Y-106797400D01*
X124648200Y-106794328D01*
X124523718Y-106806588D01*
X124404020Y-106842898D01*
X124293706Y-106901863D01*
X124197015Y-106981215D01*
X124117663Y-107077906D01*
X124058698Y-107188220D01*
X124022388Y-107307918D01*
X124010128Y-107432400D01*
X118872000Y-107432400D01*
X118872000Y-106435992D01*
X118885936Y-106347999D01*
X118921788Y-106277637D01*
X118977637Y-106221788D01*
X119047999Y-106185936D01*
X119135992Y-106172000D01*
X124137743Y-106172000D01*
X124137743Y-106232400D01*
X124137743Y-106232400D01*
G37*
X124137743Y-106232400D02*
X124147551Y-106331985D01*
X124176599Y-106427743D01*
X124223771Y-106515995D01*
X124287252Y-106593348D01*
X124364605Y-106656829D01*
X124452857Y-106704001D01*
X124548615Y-106733049D01*
X124648200Y-106742857D01*
X125948200Y-106742857D01*
X126047785Y-106733049D01*
X126143543Y-106704001D01*
X126231795Y-106656829D01*
X126309148Y-106593348D01*
X126372629Y-106515995D01*
X126419801Y-106427743D01*
X126448849Y-106331985D01*
X126458657Y-106232400D01*
X126458657Y-106172000D01*
X128842343Y-106172000D01*
X128842343Y-106286400D01*
X128852151Y-106385985D01*
X128881199Y-106481743D01*
X128928371Y-106569995D01*
X128991852Y-106647348D01*
X129069205Y-106710829D01*
X129157457Y-106758001D01*
X129253215Y-106787049D01*
X129352800Y-106796857D01*
X129413000Y-106796857D01*
X129413000Y-107075943D01*
X128452800Y-107075943D01*
X128353215Y-107085751D01*
X128257457Y-107114799D01*
X128169205Y-107161971D01*
X128091852Y-107225452D01*
X128028371Y-107302805D01*
X127981199Y-107391057D01*
X127952151Y-107486815D01*
X127942343Y-107586400D01*
X127942343Y-109186400D01*
X127952151Y-109285985D01*
X127981199Y-109381743D01*
X128028371Y-109469995D01*
X128091852Y-109547348D01*
X128169205Y-109610829D01*
X128257457Y-109658001D01*
X128353215Y-109687049D01*
X128452800Y-109696857D01*
X129469675Y-109696857D01*
X129499608Y-109755603D01*
X129513030Y-109776572D01*
X129522962Y-109787749D01*
X129607251Y-109872038D01*
X129626497Y-109887832D01*
X129639397Y-109895392D01*
X129745608Y-109949510D01*
X129768791Y-109958585D01*
X129783398Y-109961789D01*
X129901133Y-109980436D01*
X129921000Y-109982000D01*
X130967800Y-109982000D01*
X130967800Y-110421343D01*
X130852800Y-110421343D01*
X130753215Y-110431151D01*
X130657457Y-110460199D01*
X130569205Y-110507371D01*
X130491852Y-110570852D01*
X130428371Y-110648205D01*
X130424802Y-110654881D01*
X130383337Y-110577306D01*
X130303985Y-110480615D01*
X130207294Y-110401263D01*
X130096980Y-110342298D01*
X129977282Y-110305988D01*
X129852800Y-110293728D01*
X129388550Y-110296800D01*
X129229800Y-110455550D01*
X129229800Y-111429800D01*
X129249800Y-111429800D01*
X129249800Y-111683800D01*
X129229800Y-111683800D01*
X129229800Y-112658050D01*
X129388550Y-112816800D01*
X129852800Y-112819872D01*
X129977282Y-112807612D01*
X130096980Y-112771302D01*
X130207294Y-112712337D01*
X130303985Y-112632985D01*
X130383337Y-112536294D01*
X130424802Y-112458719D01*
X130428371Y-112465395D01*
X130491852Y-112542748D01*
X130569205Y-112606229D01*
X130657457Y-112653401D01*
X130753215Y-112682449D01*
X130852800Y-112692257D01*
X132352800Y-112692257D01*
X132452385Y-112682449D01*
X132548143Y-112653401D01*
X132636395Y-112606229D01*
X132713748Y-112542748D01*
X132777229Y-112465395D01*
X132798019Y-112426501D01*
X132832171Y-112490395D01*
X132895652Y-112567748D01*
X132967625Y-112626814D01*
X132907652Y-112676032D01*
X132844171Y-112753385D01*
X132796999Y-112841637D01*
X132767951Y-112937395D01*
X132758143Y-113036980D01*
X132758143Y-113157000D01*
X123952000Y-113157000D01*
X123952000Y-112334812D01*
X124834650Y-112332000D01*
X124993400Y-112173250D01*
X124993400Y-110824000D01*
X125247400Y-110824000D01*
X125247400Y-112173250D01*
X125406150Y-112332000D01*
X126370400Y-112335072D01*
X126494882Y-112322812D01*
X126614580Y-112286502D01*
X126724894Y-112227537D01*
X126780624Y-112181800D01*
X127714728Y-112181800D01*
X127726988Y-112306282D01*
X127763298Y-112425980D01*
X127822263Y-112536294D01*
X127901615Y-112632985D01*
X127998306Y-112712337D01*
X128108620Y-112771302D01*
X128228318Y-112807612D01*
X128352800Y-112819872D01*
X128817050Y-112816800D01*
X128975800Y-112658050D01*
X128975800Y-111683800D01*
X127876550Y-111683800D01*
X127717800Y-111842550D01*
X127714728Y-112181800D01*
X126780624Y-112181800D01*
X126821585Y-112148185D01*
X126900937Y-112051494D01*
X126959902Y-111941180D01*
X126996212Y-111821482D01*
X127008472Y-111697000D01*
X127005400Y-110982750D01*
X126954450Y-110931800D01*
X127714728Y-110931800D01*
X127717800Y-111271050D01*
X127876550Y-111429800D01*
X128975800Y-111429800D01*
X128975800Y-110455550D01*
X128817050Y-110296800D01*
X128352800Y-110293728D01*
X128228318Y-110305988D01*
X128108620Y-110342298D01*
X127998306Y-110401263D01*
X127901615Y-110480615D01*
X127822263Y-110577306D01*
X127763298Y-110687620D01*
X127726988Y-110807318D01*
X127714728Y-110931800D01*
X126954450Y-110931800D01*
X126846650Y-110824000D01*
X125247400Y-110824000D01*
X124993400Y-110824000D01*
X121868400Y-110824000D01*
X121868400Y-110844000D01*
X121614400Y-110844000D01*
X121614400Y-110824000D01*
X120015150Y-110824000D01*
X119856400Y-110982750D01*
X119853603Y-111633000D01*
X119135992Y-111633000D01*
X119047999Y-111619064D01*
X118977637Y-111583212D01*
X118921788Y-111527363D01*
X118885936Y-111457001D01*
X118872000Y-111369008D01*
X118872000Y-109697000D01*
X119853328Y-109697000D01*
X119856400Y-110411250D01*
X120015150Y-110570000D01*
X121614400Y-110570000D01*
X121614400Y-109220750D01*
X121868400Y-109220750D01*
X121868400Y-110570000D01*
X124993400Y-110570000D01*
X124993400Y-110550000D01*
X125247400Y-110550000D01*
X125247400Y-110570000D01*
X126846650Y-110570000D01*
X127005400Y-110411250D01*
X127008472Y-109697000D01*
X126996212Y-109572518D01*
X126959902Y-109452820D01*
X126900937Y-109342506D01*
X126821585Y-109245815D01*
X126724894Y-109166463D01*
X126614580Y-109107498D01*
X126563370Y-109091964D01*
X126574012Y-109056882D01*
X126586272Y-108932400D01*
X126583200Y-108468150D01*
X126424450Y-108309400D01*
X125425200Y-108309400D01*
X125425200Y-108329400D01*
X125171200Y-108329400D01*
X125171200Y-108309400D01*
X124171950Y-108309400D01*
X124013200Y-108468150D01*
X124010128Y-108932400D01*
X124022388Y-109056882D01*
X124023156Y-109059415D01*
X123870400Y-109058928D01*
X123745918Y-109071188D01*
X123626220Y-109107498D01*
X123515906Y-109166463D01*
X123430900Y-109236225D01*
X123345894Y-109166463D01*
X123235580Y-109107498D01*
X123115882Y-109071188D01*
X122991400Y-109058928D01*
X122027150Y-109062000D01*
X121868400Y-109220750D01*
X121614400Y-109220750D01*
X121455650Y-109062000D01*
X120491400Y-109058928D01*
X120366918Y-109071188D01*
X120247220Y-109107498D01*
X120136906Y-109166463D01*
X120040215Y-109245815D01*
X119960863Y-109342506D01*
X119901898Y-109452820D01*
X119865588Y-109572518D01*
X119853328Y-109697000D01*
X118872000Y-109697000D01*
X118872000Y-107432400D01*
X124010128Y-107432400D01*
X124013200Y-107896650D01*
X124171950Y-108055400D01*
X125171200Y-108055400D01*
X125171200Y-106956150D01*
X125425200Y-106956150D01*
X125425200Y-108055400D01*
X126424450Y-108055400D01*
X126583200Y-107896650D01*
X126586272Y-107432400D01*
X126574012Y-107307918D01*
X126537702Y-107188220D01*
X126478737Y-107077906D01*
X126399385Y-106981215D01*
X126302694Y-106901863D01*
X126192380Y-106842898D01*
X126072682Y-106806588D01*
X125948200Y-106794328D01*
X125583950Y-106797400D01*
X125425200Y-106956150D01*
X125171200Y-106956150D01*
X125012450Y-106797400D01*
X124648200Y-106794328D01*
X124523718Y-106806588D01*
X124404020Y-106842898D01*
X124293706Y-106901863D01*
X124197015Y-106981215D01*
X124117663Y-107077906D01*
X124058698Y-107188220D01*
X124022388Y-107307918D01*
X124010128Y-107432400D01*
X118872000Y-107432400D01*
X118872000Y-106435992D01*
X118885936Y-106347999D01*
X118921788Y-106277637D01*
X118977637Y-106221788D01*
X119047999Y-106185936D01*
X119135992Y-106172000D01*
X124137743Y-106172000D01*
X124137743Y-106232400D01*
D39*
G36*
X120173900Y-114554125D02*
G01*
X120253275Y-114633500D01*
X121677900Y-114633500D01*
X121677900Y-114613500D01*
X121804900Y-114613500D01*
X121804900Y-114633500D01*
X123229525Y-114633500D01*
X123308900Y-114554125D01*
X123310380Y-113728500D01*
X123551420Y-113728500D01*
X123552900Y-114554125D01*
X123632275Y-114633500D01*
X125056900Y-114633500D01*
X125056900Y-114613500D01*
X125183900Y-114613500D01*
X125183900Y-114633500D01*
X126608525Y-114633500D01*
X126687900Y-114554125D01*
X126689380Y-113728500D01*
X132821950Y-113728500D01*
X132821950Y-114136980D01*
X132830532Y-114224117D01*
X132834434Y-114236980D01*
X132830532Y-114249843D01*
X132821950Y-114336980D01*
X132821950Y-114786980D01*
X132830532Y-114874117D01*
X132855949Y-114957906D01*
X132897224Y-115035125D01*
X132952771Y-115102809D01*
X133020455Y-115158356D01*
X133097674Y-115199631D01*
X133181463Y-115225048D01*
X133268600Y-115233630D01*
X133921500Y-115233630D01*
X133921500Y-115275480D01*
X133030475Y-115275480D01*
X132951100Y-115354855D01*
X132949564Y-115436980D01*
X132955694Y-115499221D01*
X132967148Y-115536980D01*
X132955694Y-115574739D01*
X132949564Y-115636980D01*
X132951100Y-115719105D01*
X133030475Y-115798480D01*
X133921500Y-115798480D01*
X133921500Y-115925480D01*
X133030475Y-115925480D01*
X132951100Y-116004855D01*
X132949564Y-116086980D01*
X132955694Y-116149221D01*
X132967148Y-116186980D01*
X132955694Y-116224739D01*
X132949564Y-116286980D01*
X132951100Y-116369105D01*
X133030475Y-116448480D01*
X133921500Y-116448480D01*
X133921500Y-116490330D01*
X133268600Y-116490330D01*
X133181463Y-116498912D01*
X133097674Y-116524329D01*
X133020455Y-116565604D01*
X132952771Y-116621151D01*
X132897224Y-116688835D01*
X132855949Y-116766054D01*
X132830532Y-116849843D01*
X132821950Y-116936980D01*
X132821950Y-117386980D01*
X132830532Y-117474117D01*
X132834434Y-117486980D01*
X132830532Y-117499843D01*
X132821950Y-117586980D01*
X132821950Y-118036980D01*
X132830532Y-118124117D01*
X132855949Y-118207906D01*
X132897224Y-118285125D01*
X132952771Y-118352809D01*
X133020455Y-118408356D01*
X133082182Y-118441350D01*
X132447134Y-118441350D01*
X132359997Y-118449932D01*
X132276208Y-118475349D01*
X132198989Y-118516624D01*
X132131305Y-118572171D01*
X132075758Y-118639855D01*
X132067301Y-118655677D01*
X132058844Y-118639855D01*
X132003297Y-118572171D01*
X131935613Y-118516624D01*
X131858394Y-118475349D01*
X131774605Y-118449932D01*
X131687468Y-118441350D01*
X129187468Y-118441350D01*
X129100331Y-118449932D01*
X129016542Y-118475349D01*
X128939323Y-118516624D01*
X128871639Y-118572171D01*
X128816092Y-118639855D01*
X128807634Y-118655679D01*
X128799176Y-118639855D01*
X128743629Y-118572171D01*
X128675945Y-118516624D01*
X128598726Y-118475349D01*
X128514937Y-118449932D01*
X128427800Y-118441350D01*
X126151152Y-118441350D01*
X125581796Y-117871994D01*
X125580300Y-117280875D01*
X125500925Y-117201500D01*
X124911302Y-117201500D01*
X124784302Y-117074500D01*
X125500925Y-117074500D01*
X125580300Y-116995125D01*
X125581836Y-116388000D01*
X125575706Y-116325759D01*
X125557551Y-116265910D01*
X125528069Y-116210753D01*
X125488393Y-116162407D01*
X125440047Y-116122731D01*
X125384890Y-116093249D01*
X125325041Y-116075094D01*
X125262800Y-116068964D01*
X124780675Y-116070500D01*
X124701300Y-116149875D01*
X124701300Y-116991498D01*
X124574300Y-116864498D01*
X124574300Y-116149875D01*
X124494925Y-116070500D01*
X124012800Y-116068964D01*
X123950559Y-116075094D01*
X123890710Y-116093249D01*
X123835553Y-116122731D01*
X123787207Y-116162407D01*
X123785992Y-116163888D01*
X123679573Y-116142720D01*
X123667185Y-116141500D01*
X119130996Y-116141500D01*
X119028134Y-116125209D01*
X118939842Y-116080221D01*
X118869779Y-116010158D01*
X118824791Y-115921866D01*
X118808500Y-115819004D01*
X118808500Y-115697000D01*
X120172364Y-115697000D01*
X120178494Y-115759241D01*
X120196649Y-115819090D01*
X120226131Y-115874247D01*
X120265807Y-115922593D01*
X120314153Y-115962269D01*
X120369310Y-115991751D01*
X120429159Y-116009906D01*
X120491400Y-116016036D01*
X121598525Y-116014500D01*
X121677900Y-115935125D01*
X121677900Y-114760500D01*
X121804900Y-114760500D01*
X121804900Y-115935125D01*
X121884275Y-116014500D01*
X122991400Y-116016036D01*
X123053641Y-116009906D01*
X123113490Y-115991751D01*
X123168647Y-115962269D01*
X123216993Y-115922593D01*
X123256669Y-115874247D01*
X123286151Y-115819090D01*
X123304306Y-115759241D01*
X123310436Y-115697000D01*
X123551364Y-115697000D01*
X123557494Y-115759241D01*
X123575649Y-115819090D01*
X123605131Y-115874247D01*
X123644807Y-115922593D01*
X123693153Y-115962269D01*
X123748310Y-115991751D01*
X123808159Y-116009906D01*
X123870400Y-116016036D01*
X124977525Y-116014500D01*
X125056900Y-115935125D01*
X125056900Y-114760500D01*
X125183900Y-114760500D01*
X125183900Y-115935125D01*
X125263275Y-116014500D01*
X126370400Y-116016036D01*
X126432641Y-116009906D01*
X126492490Y-115991751D01*
X126547647Y-115962269D01*
X126595993Y-115922593D01*
X126635669Y-115874247D01*
X126665151Y-115819090D01*
X126683306Y-115759241D01*
X126689436Y-115697000D01*
X126687900Y-114839875D01*
X126608525Y-114760500D01*
X125183900Y-114760500D01*
X125056900Y-114760500D01*
X123632275Y-114760500D01*
X123552900Y-114839875D01*
X123551364Y-115697000D01*
X123310436Y-115697000D01*
X123308900Y-114839875D01*
X123229525Y-114760500D01*
X121804900Y-114760500D01*
X121677900Y-114760500D01*
X120253275Y-114760500D01*
X120173900Y-114839875D01*
X120172364Y-115697000D01*
X118808500Y-115697000D01*
X118808500Y-114050996D01*
X118824791Y-113948134D01*
X118869779Y-113859842D01*
X118939842Y-113789779D01*
X119028134Y-113744791D01*
X119130996Y-113728500D01*
X120172420Y-113728500D01*
X120173900Y-114554125D01*
X120173900Y-114554125D01*
G37*
X120173900Y-114554125D02*
X120253275Y-114633500D01*
X121677900Y-114633500D01*
X121677900Y-114613500D01*
X121804900Y-114613500D01*
X121804900Y-114633500D01*
X123229525Y-114633500D01*
X123308900Y-114554125D01*
X123310380Y-113728500D01*
X123551420Y-113728500D01*
X123552900Y-114554125D01*
X123632275Y-114633500D01*
X125056900Y-114633500D01*
X125056900Y-114613500D01*
X125183900Y-114613500D01*
X125183900Y-114633500D01*
X126608525Y-114633500D01*
X126687900Y-114554125D01*
X126689380Y-113728500D01*
X132821950Y-113728500D01*
X132821950Y-114136980D01*
X132830532Y-114224117D01*
X132834434Y-114236980D01*
X132830532Y-114249843D01*
X132821950Y-114336980D01*
X132821950Y-114786980D01*
X132830532Y-114874117D01*
X132855949Y-114957906D01*
X132897224Y-115035125D01*
X132952771Y-115102809D01*
X133020455Y-115158356D01*
X133097674Y-115199631D01*
X133181463Y-115225048D01*
X133268600Y-115233630D01*
X133921500Y-115233630D01*
X133921500Y-115275480D01*
X133030475Y-115275480D01*
X132951100Y-115354855D01*
X132949564Y-115436980D01*
X132955694Y-115499221D01*
X132967148Y-115536980D01*
X132955694Y-115574739D01*
X132949564Y-115636980D01*
X132951100Y-115719105D01*
X133030475Y-115798480D01*
X133921500Y-115798480D01*
X133921500Y-115925480D01*
X133030475Y-115925480D01*
X132951100Y-116004855D01*
X132949564Y-116086980D01*
X132955694Y-116149221D01*
X132967148Y-116186980D01*
X132955694Y-116224739D01*
X132949564Y-116286980D01*
X132951100Y-116369105D01*
X133030475Y-116448480D01*
X133921500Y-116448480D01*
X133921500Y-116490330D01*
X133268600Y-116490330D01*
X133181463Y-116498912D01*
X133097674Y-116524329D01*
X133020455Y-116565604D01*
X132952771Y-116621151D01*
X132897224Y-116688835D01*
X132855949Y-116766054D01*
X132830532Y-116849843D01*
X132821950Y-116936980D01*
X132821950Y-117386980D01*
X132830532Y-117474117D01*
X132834434Y-117486980D01*
X132830532Y-117499843D01*
X132821950Y-117586980D01*
X132821950Y-118036980D01*
X132830532Y-118124117D01*
X132855949Y-118207906D01*
X132897224Y-118285125D01*
X132952771Y-118352809D01*
X133020455Y-118408356D01*
X133082182Y-118441350D01*
X132447134Y-118441350D01*
X132359997Y-118449932D01*
X132276208Y-118475349D01*
X132198989Y-118516624D01*
X132131305Y-118572171D01*
X132075758Y-118639855D01*
X132067301Y-118655677D01*
X132058844Y-118639855D01*
X132003297Y-118572171D01*
X131935613Y-118516624D01*
X131858394Y-118475349D01*
X131774605Y-118449932D01*
X131687468Y-118441350D01*
X129187468Y-118441350D01*
X129100331Y-118449932D01*
X129016542Y-118475349D01*
X128939323Y-118516624D01*
X128871639Y-118572171D01*
X128816092Y-118639855D01*
X128807634Y-118655679D01*
X128799176Y-118639855D01*
X128743629Y-118572171D01*
X128675945Y-118516624D01*
X128598726Y-118475349D01*
X128514937Y-118449932D01*
X128427800Y-118441350D01*
X126151152Y-118441350D01*
X125581796Y-117871994D01*
X125580300Y-117280875D01*
X125500925Y-117201500D01*
X124911302Y-117201500D01*
X124784302Y-117074500D01*
X125500925Y-117074500D01*
X125580300Y-116995125D01*
X125581836Y-116388000D01*
X125575706Y-116325759D01*
X125557551Y-116265910D01*
X125528069Y-116210753D01*
X125488393Y-116162407D01*
X125440047Y-116122731D01*
X125384890Y-116093249D01*
X125325041Y-116075094D01*
X125262800Y-116068964D01*
X124780675Y-116070500D01*
X124701300Y-116149875D01*
X124701300Y-116991498D01*
X124574300Y-116864498D01*
X124574300Y-116149875D01*
X124494925Y-116070500D01*
X124012800Y-116068964D01*
X123950559Y-116075094D01*
X123890710Y-116093249D01*
X123835553Y-116122731D01*
X123787207Y-116162407D01*
X123785992Y-116163888D01*
X123679573Y-116142720D01*
X123667185Y-116141500D01*
X119130996Y-116141500D01*
X119028134Y-116125209D01*
X118939842Y-116080221D01*
X118869779Y-116010158D01*
X118824791Y-115921866D01*
X118808500Y-115819004D01*
X118808500Y-115697000D01*
X120172364Y-115697000D01*
X120178494Y-115759241D01*
X120196649Y-115819090D01*
X120226131Y-115874247D01*
X120265807Y-115922593D01*
X120314153Y-115962269D01*
X120369310Y-115991751D01*
X120429159Y-116009906D01*
X120491400Y-116016036D01*
X121598525Y-116014500D01*
X121677900Y-115935125D01*
X121677900Y-114760500D01*
X121804900Y-114760500D01*
X121804900Y-115935125D01*
X121884275Y-116014500D01*
X122991400Y-116016036D01*
X123053641Y-116009906D01*
X123113490Y-115991751D01*
X123168647Y-115962269D01*
X123216993Y-115922593D01*
X123256669Y-115874247D01*
X123286151Y-115819090D01*
X123304306Y-115759241D01*
X123310436Y-115697000D01*
X123551364Y-115697000D01*
X123557494Y-115759241D01*
X123575649Y-115819090D01*
X123605131Y-115874247D01*
X123644807Y-115922593D01*
X123693153Y-115962269D01*
X123748310Y-115991751D01*
X123808159Y-116009906D01*
X123870400Y-116016036D01*
X124977525Y-116014500D01*
X125056900Y-115935125D01*
X125056900Y-114760500D01*
X125183900Y-114760500D01*
X125183900Y-115935125D01*
X125263275Y-116014500D01*
X126370400Y-116016036D01*
X126432641Y-116009906D01*
X126492490Y-115991751D01*
X126547647Y-115962269D01*
X126595993Y-115922593D01*
X126635669Y-115874247D01*
X126665151Y-115819090D01*
X126683306Y-115759241D01*
X126689436Y-115697000D01*
X126687900Y-114839875D01*
X126608525Y-114760500D01*
X125183900Y-114760500D01*
X125056900Y-114760500D01*
X123632275Y-114760500D01*
X123552900Y-114839875D01*
X123551364Y-115697000D01*
X123310436Y-115697000D01*
X123308900Y-114839875D01*
X123229525Y-114760500D01*
X121804900Y-114760500D01*
X121677900Y-114760500D01*
X120253275Y-114760500D01*
X120173900Y-114839875D01*
X120172364Y-115697000D01*
X118808500Y-115697000D01*
X118808500Y-114050996D01*
X118824791Y-113948134D01*
X118869779Y-113859842D01*
X118939842Y-113789779D01*
X119028134Y-113744791D01*
X119130996Y-113728500D01*
X120172420Y-113728500D01*
X120173900Y-114554125D01*
D40*
G36*
X123668241Y-118888000D02*
G01*
X123669900Y-119514175D01*
X123755625Y-119599900D01*
X124599700Y-119599900D01*
X124599700Y-119579900D01*
X124675900Y-119579900D01*
X124675900Y-119599900D01*
X124695900Y-119599900D01*
X124695900Y-119676100D01*
X124675900Y-119676100D01*
X124675900Y-120645175D01*
X124761625Y-120730900D01*
X125262800Y-120732559D01*
X125330020Y-120725938D01*
X125394657Y-120706331D01*
X125454227Y-120674490D01*
X125506440Y-120631640D01*
X125549290Y-120579427D01*
X125581131Y-120519857D01*
X125583956Y-120510545D01*
X125583241Y-120888000D01*
X125589862Y-120955220D01*
X125609469Y-121019857D01*
X125641310Y-121079427D01*
X125684160Y-121131640D01*
X125736373Y-121174490D01*
X125776802Y-121196100D01*
X111881804Y-121196100D01*
X111886531Y-121187257D01*
X111906138Y-121122620D01*
X111912759Y-121055400D01*
X111911517Y-120388000D01*
X123668241Y-120388000D01*
X123674862Y-120455220D01*
X123694469Y-120519857D01*
X123726310Y-120579427D01*
X123769160Y-120631640D01*
X123821373Y-120674490D01*
X123880943Y-120706331D01*
X123945580Y-120725938D01*
X124012800Y-120732559D01*
X124513975Y-120730900D01*
X124599700Y-120645175D01*
X124599700Y-119676100D01*
X123755625Y-119676100D01*
X123669900Y-119761825D01*
X123668241Y-120388000D01*
X111911517Y-120388000D01*
X111911100Y-120164225D01*
X111825375Y-120078500D01*
X110578900Y-120078500D01*
X110578900Y-120002300D01*
X111825375Y-120002300D01*
X111911100Y-119916575D01*
X111912759Y-119025400D01*
X111906138Y-118958180D01*
X111886531Y-118893543D01*
X111854690Y-118833973D01*
X111854630Y-118833900D01*
X123673570Y-118833900D01*
X123668241Y-118888000D01*
X123668241Y-118888000D01*
G37*
X123668241Y-118888000D02*
X123669900Y-119514175D01*
X123755625Y-119599900D01*
X124599700Y-119599900D01*
X124599700Y-119579900D01*
X124675900Y-119579900D01*
X124675900Y-119599900D01*
X124695900Y-119599900D01*
X124695900Y-119676100D01*
X124675900Y-119676100D01*
X124675900Y-120645175D01*
X124761625Y-120730900D01*
X125262800Y-120732559D01*
X125330020Y-120725938D01*
X125394657Y-120706331D01*
X125454227Y-120674490D01*
X125506440Y-120631640D01*
X125549290Y-120579427D01*
X125581131Y-120519857D01*
X125583956Y-120510545D01*
X125583241Y-120888000D01*
X125589862Y-120955220D01*
X125609469Y-121019857D01*
X125641310Y-121079427D01*
X125684160Y-121131640D01*
X125736373Y-121174490D01*
X125776802Y-121196100D01*
X111881804Y-121196100D01*
X111886531Y-121187257D01*
X111906138Y-121122620D01*
X111912759Y-121055400D01*
X111911517Y-120388000D01*
X123668241Y-120388000D01*
X123674862Y-120455220D01*
X123694469Y-120519857D01*
X123726310Y-120579427D01*
X123769160Y-120631640D01*
X123821373Y-120674490D01*
X123880943Y-120706331D01*
X123945580Y-120725938D01*
X124012800Y-120732559D01*
X124513975Y-120730900D01*
X124599700Y-120645175D01*
X124599700Y-119676100D01*
X123755625Y-119676100D01*
X123669900Y-119761825D01*
X123668241Y-120388000D01*
X111911517Y-120388000D01*
X111911100Y-120164225D01*
X111825375Y-120078500D01*
X110578900Y-120078500D01*
X110578900Y-120002300D01*
X111825375Y-120002300D01*
X111911100Y-119916575D01*
X111912759Y-119025400D01*
X111906138Y-118958180D01*
X111886531Y-118893543D01*
X111854690Y-118833973D01*
X111854630Y-118833900D01*
X123673570Y-118833900D01*
X123668241Y-118888000D01*
G36*
X146393923Y-109959251D02*
G01*
X146475039Y-110000582D01*
X146539418Y-110064961D01*
X146580749Y-110146077D01*
X146596100Y-110243000D01*
X146596100Y-112007000D01*
X146581253Y-112100742D01*
X146554373Y-112115110D01*
X146502160Y-112157960D01*
X146459310Y-112210173D01*
X146427469Y-112269743D01*
X146426065Y-112274372D01*
X146393923Y-112290749D01*
X146297000Y-112306100D01*
X146256779Y-112306100D01*
X146276338Y-112241620D01*
X146282959Y-112174400D01*
X146281300Y-111548225D01*
X146195575Y-111462500D01*
X145351500Y-111462500D01*
X145351500Y-111482500D01*
X145275300Y-111482500D01*
X145275300Y-111462500D01*
X144431225Y-111462500D01*
X144345500Y-111548225D01*
X144343841Y-112174400D01*
X144350462Y-112241620D01*
X144370021Y-112306100D01*
X143960951Y-112306100D01*
X144019198Y-112235125D01*
X144062831Y-112153493D01*
X144089700Y-112064916D01*
X144098773Y-111972800D01*
X144098773Y-110674400D01*
X144343841Y-110674400D01*
X144345500Y-111300575D01*
X144431225Y-111386300D01*
X145275300Y-111386300D01*
X145275300Y-110417225D01*
X145351500Y-110417225D01*
X145351500Y-111386300D01*
X146195575Y-111386300D01*
X146281300Y-111300575D01*
X146282959Y-110674400D01*
X146276338Y-110607180D01*
X146256731Y-110542543D01*
X146224890Y-110482973D01*
X146182040Y-110430760D01*
X146129827Y-110387910D01*
X146070257Y-110356069D01*
X146005620Y-110336462D01*
X145938400Y-110329841D01*
X145437225Y-110331500D01*
X145351500Y-110417225D01*
X145275300Y-110417225D01*
X145189575Y-110331500D01*
X144688400Y-110329841D01*
X144621180Y-110336462D01*
X144556543Y-110356069D01*
X144496973Y-110387910D01*
X144444760Y-110430760D01*
X144401910Y-110482973D01*
X144370069Y-110542543D01*
X144350462Y-110607180D01*
X144343841Y-110674400D01*
X144098773Y-110674400D01*
X144098773Y-110472800D01*
X144089700Y-110380684D01*
X144062831Y-110292107D01*
X144019198Y-110210475D01*
X143960477Y-110138923D01*
X143888925Y-110080202D01*
X143807293Y-110036569D01*
X143718716Y-110009700D01*
X143626600Y-110000627D01*
X142326600Y-110000627D01*
X142234484Y-110009700D01*
X142145907Y-110036569D01*
X142064275Y-110080202D01*
X141992723Y-110138923D01*
X141934002Y-110210475D01*
X141890369Y-110292107D01*
X141863500Y-110380684D01*
X141854427Y-110472800D01*
X141854427Y-110627900D01*
X141475501Y-110627900D01*
X141446280Y-110625022D01*
X141417059Y-110627900D01*
X141329659Y-110636508D01*
X141241799Y-110663160D01*
X141217520Y-110670525D01*
X141114172Y-110725766D01*
X141054250Y-110774943D01*
X141023587Y-110800107D01*
X141004960Y-110822804D01*
X139521665Y-112306100D01*
X139446000Y-112306100D01*
X139432093Y-112307194D01*
X139314358Y-112325841D01*
X139297495Y-112330242D01*
X139287905Y-112334437D01*
X139181694Y-112388555D01*
X139167016Y-112397951D01*
X139159192Y-112404903D01*
X139074903Y-112489192D01*
X139063847Y-112502664D01*
X139058555Y-112511694D01*
X139022186Y-112583071D01*
X138963907Y-112600749D01*
X138882275Y-112644382D01*
X138810723Y-112703103D01*
X138752002Y-112774655D01*
X138708369Y-112856287D01*
X138681500Y-112944864D01*
X138672427Y-113036980D01*
X138672427Y-113486980D01*
X138681500Y-113579096D01*
X138683892Y-113586980D01*
X138681500Y-113594864D01*
X138672427Y-113686980D01*
X138672427Y-114136980D01*
X138681500Y-114229096D01*
X138683892Y-114236980D01*
X138681500Y-114244864D01*
X138672427Y-114336980D01*
X138672427Y-114786980D01*
X138681500Y-114879096D01*
X138683892Y-114886980D01*
X138681500Y-114894864D01*
X138672427Y-114986980D01*
X138672427Y-115436980D01*
X138681500Y-115529096D01*
X138683892Y-115536980D01*
X138681500Y-115544864D01*
X138672427Y-115636980D01*
X138672427Y-116086980D01*
X138681500Y-116179096D01*
X138683892Y-116186980D01*
X138681500Y-116194864D01*
X138672427Y-116286980D01*
X138672427Y-116736980D01*
X138681500Y-116829096D01*
X138683892Y-116836980D01*
X138681500Y-116844864D01*
X138672427Y-116936980D01*
X138672427Y-117386980D01*
X138681500Y-117479096D01*
X138683892Y-117486980D01*
X138681500Y-117494864D01*
X138672427Y-117586980D01*
X138672427Y-118036980D01*
X138681500Y-118129096D01*
X138708369Y-118217673D01*
X138752002Y-118299305D01*
X138810723Y-118370857D01*
X138882275Y-118429578D01*
X138954012Y-118467922D01*
X138943307Y-118471169D01*
X138861675Y-118514802D01*
X138790123Y-118573523D01*
X138731402Y-118645075D01*
X138687769Y-118726707D01*
X138660900Y-118815284D01*
X138651827Y-118907400D01*
X138651827Y-120407400D01*
X138660900Y-120499516D01*
X138687769Y-120588093D01*
X138731402Y-120669725D01*
X138790123Y-120741277D01*
X138861675Y-120799998D01*
X138943307Y-120843631D01*
X138976100Y-120853578D01*
X138976100Y-120897000D01*
X138960749Y-120993923D01*
X138919418Y-121075039D01*
X138855039Y-121139418D01*
X138773923Y-121180749D01*
X138677000Y-121196100D01*
X138357798Y-121196100D01*
X138398227Y-121174490D01*
X138450440Y-121131640D01*
X138493290Y-121079427D01*
X138525131Y-121019857D01*
X138544738Y-120955220D01*
X138551359Y-120888000D01*
X138549700Y-120011825D01*
X138463975Y-119926100D01*
X136994900Y-119926100D01*
X136994900Y-119946100D01*
X136918700Y-119946100D01*
X136918700Y-119926100D01*
X135449625Y-119926100D01*
X135363900Y-120011825D01*
X135362241Y-120888000D01*
X135368862Y-120955220D01*
X135388469Y-121019857D01*
X135420310Y-121079427D01*
X135463160Y-121131640D01*
X135515373Y-121174490D01*
X135555802Y-121196100D01*
X135098132Y-121196100D01*
X135138561Y-121174490D01*
X135190774Y-121131640D01*
X135233624Y-121079427D01*
X135265465Y-121019857D01*
X135285072Y-120955220D01*
X135291693Y-120888000D01*
X135290034Y-120011825D01*
X135204309Y-119926100D01*
X133735234Y-119926100D01*
X133735234Y-119946100D01*
X133659034Y-119946100D01*
X133659034Y-119926100D01*
X132189959Y-119926100D01*
X132104234Y-120011825D01*
X132102575Y-120888000D01*
X132109196Y-120955220D01*
X132128803Y-121019857D01*
X132160644Y-121079427D01*
X132203494Y-121131640D01*
X132255707Y-121174490D01*
X132296136Y-121196100D01*
X131838466Y-121196100D01*
X131878895Y-121174490D01*
X131931108Y-121131640D01*
X131973958Y-121079427D01*
X132005799Y-121019857D01*
X132025406Y-120955220D01*
X132032027Y-120888000D01*
X132030368Y-120011825D01*
X131944643Y-119926100D01*
X130475568Y-119926100D01*
X130475568Y-119946100D01*
X130399368Y-119946100D01*
X130399368Y-119926100D01*
X128930293Y-119926100D01*
X128844568Y-120011825D01*
X128842909Y-120888000D01*
X128849530Y-120955220D01*
X128869137Y-121019857D01*
X128900978Y-121079427D01*
X128943828Y-121131640D01*
X128996041Y-121174490D01*
X129036470Y-121196100D01*
X128578798Y-121196100D01*
X128619227Y-121174490D01*
X128671440Y-121131640D01*
X128714290Y-121079427D01*
X128746131Y-121019857D01*
X128765738Y-120955220D01*
X128772359Y-120888000D01*
X128770700Y-120011825D01*
X128684975Y-119926100D01*
X127215900Y-119926100D01*
X127215900Y-119946100D01*
X127139700Y-119946100D01*
X127139700Y-119926100D01*
X127119700Y-119926100D01*
X127119700Y-119849900D01*
X127139700Y-119849900D01*
X127139700Y-119829900D01*
X127215900Y-119829900D01*
X127215900Y-119849900D01*
X128684975Y-119849900D01*
X128770700Y-119764175D01*
X128771740Y-119214900D01*
X128843528Y-119214900D01*
X128844568Y-119764175D01*
X128930293Y-119849900D01*
X130399368Y-119849900D01*
X130399368Y-119829900D01*
X130475568Y-119829900D01*
X130475568Y-119849900D01*
X131944643Y-119849900D01*
X132030368Y-119764175D01*
X132031408Y-119214900D01*
X132103194Y-119214900D01*
X132104234Y-119764175D01*
X132189959Y-119849900D01*
X133659034Y-119849900D01*
X133659034Y-119829900D01*
X133735234Y-119829900D01*
X133735234Y-119849900D01*
X135204309Y-119849900D01*
X135290034Y-119764175D01*
X135291693Y-118888000D01*
X135362241Y-118888000D01*
X135363900Y-119764175D01*
X135449625Y-119849900D01*
X136918700Y-119849900D01*
X136918700Y-118630825D01*
X136994900Y-118630825D01*
X136994900Y-119849900D01*
X138463975Y-119849900D01*
X138549700Y-119764175D01*
X138551359Y-118888000D01*
X138544738Y-118820780D01*
X138525131Y-118756143D01*
X138493290Y-118696573D01*
X138450440Y-118644360D01*
X138398227Y-118601510D01*
X138338657Y-118569669D01*
X138274020Y-118550062D01*
X138206800Y-118543441D01*
X137080625Y-118545100D01*
X136994900Y-118630825D01*
X136918700Y-118630825D01*
X136832975Y-118545100D01*
X135706800Y-118543441D01*
X135639580Y-118550062D01*
X135574943Y-118569669D01*
X135515373Y-118601510D01*
X135463160Y-118644360D01*
X135420310Y-118696573D01*
X135388469Y-118756143D01*
X135368862Y-118820780D01*
X135362241Y-118888000D01*
X135291693Y-118888000D01*
X135285072Y-118820780D01*
X135265465Y-118756143D01*
X135233624Y-118696573D01*
X135190774Y-118644360D01*
X135138561Y-118601510D01*
X135078991Y-118569669D01*
X135014354Y-118550062D01*
X134947134Y-118543441D01*
X134432217Y-118544200D01*
X134449115Y-118437507D01*
X134453581Y-118380755D01*
X134743600Y-118381539D01*
X134810820Y-118374918D01*
X134875457Y-118355311D01*
X134935027Y-118323470D01*
X134987240Y-118280620D01*
X135030090Y-118228407D01*
X135061931Y-118168837D01*
X135081538Y-118104200D01*
X135088159Y-118036980D01*
X135086500Y-117935805D01*
X135000775Y-117850080D01*
X134454900Y-117850080D01*
X134454900Y-117773880D01*
X135000775Y-117773880D01*
X135086500Y-117688155D01*
X135088159Y-117586980D01*
X135081538Y-117519760D01*
X135071595Y-117486980D01*
X135081538Y-117454200D01*
X135088159Y-117386980D01*
X135086500Y-117285805D01*
X135000775Y-117200080D01*
X134835716Y-117200080D01*
X134924293Y-117173211D01*
X135005925Y-117129578D01*
X135077477Y-117070857D01*
X135136198Y-116999305D01*
X135179831Y-116917673D01*
X135206700Y-116829096D01*
X135215773Y-116736980D01*
X135215773Y-116286980D01*
X135206700Y-116194864D01*
X135204308Y-116186980D01*
X135206700Y-116179096D01*
X135215773Y-116086980D01*
X135215773Y-115636980D01*
X135206700Y-115544864D01*
X135204308Y-115536980D01*
X135206700Y-115529096D01*
X135215773Y-115436980D01*
X135215773Y-114986980D01*
X135206700Y-114894864D01*
X135204308Y-114886980D01*
X135206700Y-114879096D01*
X135215773Y-114786980D01*
X135215773Y-114336980D01*
X135206700Y-114244864D01*
X135179831Y-114156287D01*
X135136198Y-114074655D01*
X135077477Y-114003103D01*
X135005925Y-113944382D01*
X134945305Y-113911980D01*
X135005925Y-113879578D01*
X135077477Y-113820857D01*
X135136198Y-113749305D01*
X135179831Y-113667673D01*
X135206700Y-113579096D01*
X135215773Y-113486980D01*
X135215773Y-113036980D01*
X135206700Y-112944864D01*
X135179831Y-112856287D01*
X135136198Y-112774655D01*
X135077477Y-112703103D01*
X135005925Y-112644382D01*
X134970345Y-112625364D01*
X135018925Y-112599398D01*
X135090477Y-112540677D01*
X135149198Y-112469125D01*
X135192831Y-112387493D01*
X135219700Y-112298916D01*
X135228773Y-112206800D01*
X135612041Y-112206800D01*
X135618662Y-112274020D01*
X135638269Y-112338657D01*
X135670110Y-112398227D01*
X135712960Y-112450440D01*
X135765173Y-112493290D01*
X135824743Y-112525131D01*
X135889380Y-112544738D01*
X135956600Y-112551359D01*
X136582775Y-112549700D01*
X136668500Y-112463975D01*
X136668500Y-111594900D01*
X136744700Y-111594900D01*
X136744700Y-112463975D01*
X136830425Y-112549700D01*
X137456600Y-112551359D01*
X137523820Y-112544738D01*
X137588457Y-112525131D01*
X137648027Y-112493290D01*
X137700240Y-112450440D01*
X137743090Y-112398227D01*
X137774931Y-112338657D01*
X137794538Y-112274020D01*
X137801159Y-112206800D01*
X137799500Y-111680625D01*
X137713775Y-111594900D01*
X136744700Y-111594900D01*
X136668500Y-111594900D01*
X135699425Y-111594900D01*
X135613700Y-111680625D01*
X135612041Y-112206800D01*
X135228773Y-112206800D01*
X135228773Y-110906800D01*
X135612041Y-110906800D01*
X135613700Y-111432975D01*
X135699425Y-111518700D01*
X136668500Y-111518700D01*
X136668500Y-110649625D01*
X136744700Y-110649625D01*
X136744700Y-111518700D01*
X137713775Y-111518700D01*
X137799500Y-111432975D01*
X137801159Y-110906800D01*
X137794538Y-110839580D01*
X137774931Y-110774943D01*
X137743090Y-110715373D01*
X137700240Y-110663160D01*
X137648027Y-110620310D01*
X137588457Y-110588469D01*
X137523820Y-110568862D01*
X137456600Y-110562241D01*
X136830425Y-110563900D01*
X136744700Y-110649625D01*
X136668500Y-110649625D01*
X136582775Y-110563900D01*
X135956600Y-110562241D01*
X135889380Y-110568862D01*
X135824743Y-110588469D01*
X135765173Y-110620310D01*
X135712960Y-110663160D01*
X135670110Y-110715373D01*
X135638269Y-110774943D01*
X135618662Y-110839580D01*
X135612041Y-110906800D01*
X135228773Y-110906800D01*
X135219700Y-110814684D01*
X135192831Y-110726107D01*
X135149198Y-110644475D01*
X135090477Y-110572923D01*
X135018925Y-110514202D01*
X134937293Y-110470569D01*
X134848716Y-110443700D01*
X134756600Y-110434627D01*
X134708900Y-110434627D01*
X134708900Y-110243000D01*
X134724251Y-110146077D01*
X134765582Y-110064961D01*
X134829961Y-110000582D01*
X134911077Y-109959251D01*
X135008000Y-109943900D01*
X146297000Y-109943900D01*
X146393923Y-109959251D01*
X146393923Y-109959251D01*
G37*
X146393923Y-109959251D02*
X146475039Y-110000582D01*
X146539418Y-110064961D01*
X146580749Y-110146077D01*
X146596100Y-110243000D01*
X146596100Y-112007000D01*
X146581253Y-112100742D01*
X146554373Y-112115110D01*
X146502160Y-112157960D01*
X146459310Y-112210173D01*
X146427469Y-112269743D01*
X146426065Y-112274372D01*
X146393923Y-112290749D01*
X146297000Y-112306100D01*
X146256779Y-112306100D01*
X146276338Y-112241620D01*
X146282959Y-112174400D01*
X146281300Y-111548225D01*
X146195575Y-111462500D01*
X145351500Y-111462500D01*
X145351500Y-111482500D01*
X145275300Y-111482500D01*
X145275300Y-111462500D01*
X144431225Y-111462500D01*
X144345500Y-111548225D01*
X144343841Y-112174400D01*
X144350462Y-112241620D01*
X144370021Y-112306100D01*
X143960951Y-112306100D01*
X144019198Y-112235125D01*
X144062831Y-112153493D01*
X144089700Y-112064916D01*
X144098773Y-111972800D01*
X144098773Y-110674400D01*
X144343841Y-110674400D01*
X144345500Y-111300575D01*
X144431225Y-111386300D01*
X145275300Y-111386300D01*
X145275300Y-110417225D01*
X145351500Y-110417225D01*
X145351500Y-111386300D01*
X146195575Y-111386300D01*
X146281300Y-111300575D01*
X146282959Y-110674400D01*
X146276338Y-110607180D01*
X146256731Y-110542543D01*
X146224890Y-110482973D01*
X146182040Y-110430760D01*
X146129827Y-110387910D01*
X146070257Y-110356069D01*
X146005620Y-110336462D01*
X145938400Y-110329841D01*
X145437225Y-110331500D01*
X145351500Y-110417225D01*
X145275300Y-110417225D01*
X145189575Y-110331500D01*
X144688400Y-110329841D01*
X144621180Y-110336462D01*
X144556543Y-110356069D01*
X144496973Y-110387910D01*
X144444760Y-110430760D01*
X144401910Y-110482973D01*
X144370069Y-110542543D01*
X144350462Y-110607180D01*
X144343841Y-110674400D01*
X144098773Y-110674400D01*
X144098773Y-110472800D01*
X144089700Y-110380684D01*
X144062831Y-110292107D01*
X144019198Y-110210475D01*
X143960477Y-110138923D01*
X143888925Y-110080202D01*
X143807293Y-110036569D01*
X143718716Y-110009700D01*
X143626600Y-110000627D01*
X142326600Y-110000627D01*
X142234484Y-110009700D01*
X142145907Y-110036569D01*
X142064275Y-110080202D01*
X141992723Y-110138923D01*
X141934002Y-110210475D01*
X141890369Y-110292107D01*
X141863500Y-110380684D01*
X141854427Y-110472800D01*
X141854427Y-110627900D01*
X141475501Y-110627900D01*
X141446280Y-110625022D01*
X141417059Y-110627900D01*
X141329659Y-110636508D01*
X141241799Y-110663160D01*
X141217520Y-110670525D01*
X141114172Y-110725766D01*
X141054250Y-110774943D01*
X141023587Y-110800107D01*
X141004960Y-110822804D01*
X139521665Y-112306100D01*
X139446000Y-112306100D01*
X139432093Y-112307194D01*
X139314358Y-112325841D01*
X139297495Y-112330242D01*
X139287905Y-112334437D01*
X139181694Y-112388555D01*
X139167016Y-112397951D01*
X139159192Y-112404903D01*
X139074903Y-112489192D01*
X139063847Y-112502664D01*
X139058555Y-112511694D01*
X139022186Y-112583071D01*
X138963907Y-112600749D01*
X138882275Y-112644382D01*
X138810723Y-112703103D01*
X138752002Y-112774655D01*
X138708369Y-112856287D01*
X138681500Y-112944864D01*
X138672427Y-113036980D01*
X138672427Y-113486980D01*
X138681500Y-113579096D01*
X138683892Y-113586980D01*
X138681500Y-113594864D01*
X138672427Y-113686980D01*
X138672427Y-114136980D01*
X138681500Y-114229096D01*
X138683892Y-114236980D01*
X138681500Y-114244864D01*
X138672427Y-114336980D01*
X138672427Y-114786980D01*
X138681500Y-114879096D01*
X138683892Y-114886980D01*
X138681500Y-114894864D01*
X138672427Y-114986980D01*
X138672427Y-115436980D01*
X138681500Y-115529096D01*
X138683892Y-115536980D01*
X138681500Y-115544864D01*
X138672427Y-115636980D01*
X138672427Y-116086980D01*
X138681500Y-116179096D01*
X138683892Y-116186980D01*
X138681500Y-116194864D01*
X138672427Y-116286980D01*
X138672427Y-116736980D01*
X138681500Y-116829096D01*
X138683892Y-116836980D01*
X138681500Y-116844864D01*
X138672427Y-116936980D01*
X138672427Y-117386980D01*
X138681500Y-117479096D01*
X138683892Y-117486980D01*
X138681500Y-117494864D01*
X138672427Y-117586980D01*
X138672427Y-118036980D01*
X138681500Y-118129096D01*
X138708369Y-118217673D01*
X138752002Y-118299305D01*
X138810723Y-118370857D01*
X138882275Y-118429578D01*
X138954012Y-118467922D01*
X138943307Y-118471169D01*
X138861675Y-118514802D01*
X138790123Y-118573523D01*
X138731402Y-118645075D01*
X138687769Y-118726707D01*
X138660900Y-118815284D01*
X138651827Y-118907400D01*
X138651827Y-120407400D01*
X138660900Y-120499516D01*
X138687769Y-120588093D01*
X138731402Y-120669725D01*
X138790123Y-120741277D01*
X138861675Y-120799998D01*
X138943307Y-120843631D01*
X138976100Y-120853578D01*
X138976100Y-120897000D01*
X138960749Y-120993923D01*
X138919418Y-121075039D01*
X138855039Y-121139418D01*
X138773923Y-121180749D01*
X138677000Y-121196100D01*
X138357798Y-121196100D01*
X138398227Y-121174490D01*
X138450440Y-121131640D01*
X138493290Y-121079427D01*
X138525131Y-121019857D01*
X138544738Y-120955220D01*
X138551359Y-120888000D01*
X138549700Y-120011825D01*
X138463975Y-119926100D01*
X136994900Y-119926100D01*
X136994900Y-119946100D01*
X136918700Y-119946100D01*
X136918700Y-119926100D01*
X135449625Y-119926100D01*
X135363900Y-120011825D01*
X135362241Y-120888000D01*
X135368862Y-120955220D01*
X135388469Y-121019857D01*
X135420310Y-121079427D01*
X135463160Y-121131640D01*
X135515373Y-121174490D01*
X135555802Y-121196100D01*
X135098132Y-121196100D01*
X135138561Y-121174490D01*
X135190774Y-121131640D01*
X135233624Y-121079427D01*
X135265465Y-121019857D01*
X135285072Y-120955220D01*
X135291693Y-120888000D01*
X135290034Y-120011825D01*
X135204309Y-119926100D01*
X133735234Y-119926100D01*
X133735234Y-119946100D01*
X133659034Y-119946100D01*
X133659034Y-119926100D01*
X132189959Y-119926100D01*
X132104234Y-120011825D01*
X132102575Y-120888000D01*
X132109196Y-120955220D01*
X132128803Y-121019857D01*
X132160644Y-121079427D01*
X132203494Y-121131640D01*
X132255707Y-121174490D01*
X132296136Y-121196100D01*
X131838466Y-121196100D01*
X131878895Y-121174490D01*
X131931108Y-121131640D01*
X131973958Y-121079427D01*
X132005799Y-121019857D01*
X132025406Y-120955220D01*
X132032027Y-120888000D01*
X132030368Y-120011825D01*
X131944643Y-119926100D01*
X130475568Y-119926100D01*
X130475568Y-119946100D01*
X130399368Y-119946100D01*
X130399368Y-119926100D01*
X128930293Y-119926100D01*
X128844568Y-120011825D01*
X128842909Y-120888000D01*
X128849530Y-120955220D01*
X128869137Y-121019857D01*
X128900978Y-121079427D01*
X128943828Y-121131640D01*
X128996041Y-121174490D01*
X129036470Y-121196100D01*
X128578798Y-121196100D01*
X128619227Y-121174490D01*
X128671440Y-121131640D01*
X128714290Y-121079427D01*
X128746131Y-121019857D01*
X128765738Y-120955220D01*
X128772359Y-120888000D01*
X128770700Y-120011825D01*
X128684975Y-119926100D01*
X127215900Y-119926100D01*
X127215900Y-119946100D01*
X127139700Y-119946100D01*
X127139700Y-119926100D01*
X127119700Y-119926100D01*
X127119700Y-119849900D01*
X127139700Y-119849900D01*
X127139700Y-119829900D01*
X127215900Y-119829900D01*
X127215900Y-119849900D01*
X128684975Y-119849900D01*
X128770700Y-119764175D01*
X128771740Y-119214900D01*
X128843528Y-119214900D01*
X128844568Y-119764175D01*
X128930293Y-119849900D01*
X130399368Y-119849900D01*
X130399368Y-119829900D01*
X130475568Y-119829900D01*
X130475568Y-119849900D01*
X131944643Y-119849900D01*
X132030368Y-119764175D01*
X132031408Y-119214900D01*
X132103194Y-119214900D01*
X132104234Y-119764175D01*
X132189959Y-119849900D01*
X133659034Y-119849900D01*
X133659034Y-119829900D01*
X133735234Y-119829900D01*
X133735234Y-119849900D01*
X135204309Y-119849900D01*
X135290034Y-119764175D01*
X135291693Y-118888000D01*
X135362241Y-118888000D01*
X135363900Y-119764175D01*
X135449625Y-119849900D01*
X136918700Y-119849900D01*
X136918700Y-118630825D01*
X136994900Y-118630825D01*
X136994900Y-119849900D01*
X138463975Y-119849900D01*
X138549700Y-119764175D01*
X138551359Y-118888000D01*
X138544738Y-118820780D01*
X138525131Y-118756143D01*
X138493290Y-118696573D01*
X138450440Y-118644360D01*
X138398227Y-118601510D01*
X138338657Y-118569669D01*
X138274020Y-118550062D01*
X138206800Y-118543441D01*
X137080625Y-118545100D01*
X136994900Y-118630825D01*
X136918700Y-118630825D01*
X136832975Y-118545100D01*
X135706800Y-118543441D01*
X135639580Y-118550062D01*
X135574943Y-118569669D01*
X135515373Y-118601510D01*
X135463160Y-118644360D01*
X135420310Y-118696573D01*
X135388469Y-118756143D01*
X135368862Y-118820780D01*
X135362241Y-118888000D01*
X135291693Y-118888000D01*
X135285072Y-118820780D01*
X135265465Y-118756143D01*
X135233624Y-118696573D01*
X135190774Y-118644360D01*
X135138561Y-118601510D01*
X135078991Y-118569669D01*
X135014354Y-118550062D01*
X134947134Y-118543441D01*
X134432217Y-118544200D01*
X134449115Y-118437507D01*
X134453581Y-118380755D01*
X134743600Y-118381539D01*
X134810820Y-118374918D01*
X134875457Y-118355311D01*
X134935027Y-118323470D01*
X134987240Y-118280620D01*
X135030090Y-118228407D01*
X135061931Y-118168837D01*
X135081538Y-118104200D01*
X135088159Y-118036980D01*
X135086500Y-117935805D01*
X135000775Y-117850080D01*
X134454900Y-117850080D01*
X134454900Y-117773880D01*
X135000775Y-117773880D01*
X135086500Y-117688155D01*
X135088159Y-117586980D01*
X135081538Y-117519760D01*
X135071595Y-117486980D01*
X135081538Y-117454200D01*
X135088159Y-117386980D01*
X135086500Y-117285805D01*
X135000775Y-117200080D01*
X134835716Y-117200080D01*
X134924293Y-117173211D01*
X135005925Y-117129578D01*
X135077477Y-117070857D01*
X135136198Y-116999305D01*
X135179831Y-116917673D01*
X135206700Y-116829096D01*
X135215773Y-116736980D01*
X135215773Y-116286980D01*
X135206700Y-116194864D01*
X135204308Y-116186980D01*
X135206700Y-116179096D01*
X135215773Y-116086980D01*
X135215773Y-115636980D01*
X135206700Y-115544864D01*
X135204308Y-115536980D01*
X135206700Y-115529096D01*
X135215773Y-115436980D01*
X135215773Y-114986980D01*
X135206700Y-114894864D01*
X135204308Y-114886980D01*
X135206700Y-114879096D01*
X135215773Y-114786980D01*
X135215773Y-114336980D01*
X135206700Y-114244864D01*
X135179831Y-114156287D01*
X135136198Y-114074655D01*
X135077477Y-114003103D01*
X135005925Y-113944382D01*
X134945305Y-113911980D01*
X135005925Y-113879578D01*
X135077477Y-113820857D01*
X135136198Y-113749305D01*
X135179831Y-113667673D01*
X135206700Y-113579096D01*
X135215773Y-113486980D01*
X135215773Y-113036980D01*
X135206700Y-112944864D01*
X135179831Y-112856287D01*
X135136198Y-112774655D01*
X135077477Y-112703103D01*
X135005925Y-112644382D01*
X134970345Y-112625364D01*
X135018925Y-112599398D01*
X135090477Y-112540677D01*
X135149198Y-112469125D01*
X135192831Y-112387493D01*
X135219700Y-112298916D01*
X135228773Y-112206800D01*
X135612041Y-112206800D01*
X135618662Y-112274020D01*
X135638269Y-112338657D01*
X135670110Y-112398227D01*
X135712960Y-112450440D01*
X135765173Y-112493290D01*
X135824743Y-112525131D01*
X135889380Y-112544738D01*
X135956600Y-112551359D01*
X136582775Y-112549700D01*
X136668500Y-112463975D01*
X136668500Y-111594900D01*
X136744700Y-111594900D01*
X136744700Y-112463975D01*
X136830425Y-112549700D01*
X137456600Y-112551359D01*
X137523820Y-112544738D01*
X137588457Y-112525131D01*
X137648027Y-112493290D01*
X137700240Y-112450440D01*
X137743090Y-112398227D01*
X137774931Y-112338657D01*
X137794538Y-112274020D01*
X137801159Y-112206800D01*
X137799500Y-111680625D01*
X137713775Y-111594900D01*
X136744700Y-111594900D01*
X136668500Y-111594900D01*
X135699425Y-111594900D01*
X135613700Y-111680625D01*
X135612041Y-112206800D01*
X135228773Y-112206800D01*
X135228773Y-110906800D01*
X135612041Y-110906800D01*
X135613700Y-111432975D01*
X135699425Y-111518700D01*
X136668500Y-111518700D01*
X136668500Y-110649625D01*
X136744700Y-110649625D01*
X136744700Y-111518700D01*
X137713775Y-111518700D01*
X137799500Y-111432975D01*
X137801159Y-110906800D01*
X137794538Y-110839580D01*
X137774931Y-110774943D01*
X137743090Y-110715373D01*
X137700240Y-110663160D01*
X137648027Y-110620310D01*
X137588457Y-110588469D01*
X137523820Y-110568862D01*
X137456600Y-110562241D01*
X136830425Y-110563900D01*
X136744700Y-110649625D01*
X136668500Y-110649625D01*
X136582775Y-110563900D01*
X135956600Y-110562241D01*
X135889380Y-110568862D01*
X135824743Y-110588469D01*
X135765173Y-110620310D01*
X135712960Y-110663160D01*
X135670110Y-110715373D01*
X135638269Y-110774943D01*
X135618662Y-110839580D01*
X135612041Y-110906800D01*
X135228773Y-110906800D01*
X135219700Y-110814684D01*
X135192831Y-110726107D01*
X135149198Y-110644475D01*
X135090477Y-110572923D01*
X135018925Y-110514202D01*
X134937293Y-110470569D01*
X134848716Y-110443700D01*
X134756600Y-110434627D01*
X134708900Y-110434627D01*
X134708900Y-110243000D01*
X134724251Y-110146077D01*
X134765582Y-110064961D01*
X134829961Y-110000582D01*
X134911077Y-109959251D01*
X135008000Y-109943900D01*
X146297000Y-109943900D01*
X146393923Y-109959251D01*
M02*
