G04 #@! TF.GenerationSoftware,KiCad,Pcbnew,(5.1.0)-1*
G04 #@! TF.CreationDate,2019-07-29T14:33:42-06:00*
G04 #@! TF.ProjectId,d4100_mod_board_full,64343130-305f-46d6-9f64-5f626f617264,rev?*
G04 #@! TF.SameCoordinates,Original*
G04 #@! TF.FileFunction,Soldermask,Top*
G04 #@! TF.FilePolarity,Negative*
%FSLAX46Y46*%
G04 Gerber Fmt 4.6, Leading zero omitted, Abs format (unit mm)*
G04 Created by KiCad (PCBNEW (5.1.0)-1) date 2019-07-29 14:33:42*
%MOMM*%
%LPD*%
G04 APERTURE LIST*
%ADD10C,0.100000*%
G04 APERTURE END LIST*
D10*
G36*
X113938656Y-137430898D02*
G01*
X114044979Y-137452047D01*
X114345442Y-137576503D01*
X114615851Y-137757185D01*
X114845815Y-137987149D01*
X115026497Y-138257558D01*
X115150953Y-138558021D01*
X115214400Y-138876991D01*
X115214400Y-139202209D01*
X115150953Y-139521179D01*
X115026497Y-139821642D01*
X114845815Y-140092051D01*
X114615851Y-140322015D01*
X114345442Y-140502697D01*
X114044979Y-140627153D01*
X113938656Y-140648302D01*
X113726011Y-140690600D01*
X113400789Y-140690600D01*
X113188144Y-140648302D01*
X113081821Y-140627153D01*
X112781358Y-140502697D01*
X112510949Y-140322015D01*
X112280985Y-140092051D01*
X112100303Y-139821642D01*
X111975847Y-139521179D01*
X111912400Y-139202209D01*
X111912400Y-138876991D01*
X111975847Y-138558021D01*
X112100303Y-138257558D01*
X112280985Y-137987149D01*
X112510949Y-137757185D01*
X112781358Y-137576503D01*
X113081821Y-137452047D01*
X113188144Y-137430898D01*
X113400789Y-137388600D01*
X113726011Y-137388600D01*
X113938656Y-137430898D01*
X113938656Y-137430898D01*
G37*
G36*
X75838656Y-137430898D02*
G01*
X75944979Y-137452047D01*
X76245442Y-137576503D01*
X76515851Y-137757185D01*
X76745815Y-137987149D01*
X76926497Y-138257558D01*
X77050953Y-138558021D01*
X77114400Y-138876991D01*
X77114400Y-139202209D01*
X77050953Y-139521179D01*
X76926497Y-139821642D01*
X76745815Y-140092051D01*
X76515851Y-140322015D01*
X76245442Y-140502697D01*
X75944979Y-140627153D01*
X75838656Y-140648302D01*
X75626011Y-140690600D01*
X75300789Y-140690600D01*
X75088144Y-140648302D01*
X74981821Y-140627153D01*
X74681358Y-140502697D01*
X74410949Y-140322015D01*
X74180985Y-140092051D01*
X74000303Y-139821642D01*
X73875847Y-139521179D01*
X73812400Y-139202209D01*
X73812400Y-138876991D01*
X73875847Y-138558021D01*
X74000303Y-138257558D01*
X74180985Y-137987149D01*
X74410949Y-137757185D01*
X74681358Y-137576503D01*
X74981821Y-137452047D01*
X75088144Y-137430898D01*
X75300789Y-137388600D01*
X75626011Y-137388600D01*
X75838656Y-137430898D01*
X75838656Y-137430898D01*
G37*
G36*
X75062600Y-133035400D02*
G01*
X72460600Y-133035400D01*
X72460600Y-130383400D01*
X75062600Y-130383400D01*
X75062600Y-133035400D01*
X75062600Y-133035400D01*
G37*
G36*
X80944020Y-132966360D02*
G01*
X79142020Y-132966360D01*
X79142020Y-131564360D01*
X80944020Y-131564360D01*
X80944020Y-132966360D01*
X80944020Y-132966360D01*
G37*
G36*
X213506656Y-128159898D02*
G01*
X213612979Y-128181047D01*
X213913442Y-128305503D01*
X214183851Y-128486185D01*
X214413815Y-128716149D01*
X214594497Y-128986558D01*
X214718953Y-129287021D01*
X214782400Y-129605991D01*
X214782400Y-129931209D01*
X214718953Y-130250179D01*
X214594497Y-130550642D01*
X214413815Y-130821051D01*
X214183851Y-131051015D01*
X213913442Y-131231697D01*
X213612979Y-131356153D01*
X213506656Y-131377302D01*
X213294011Y-131419600D01*
X212968789Y-131419600D01*
X212756144Y-131377302D01*
X212649821Y-131356153D01*
X212349358Y-131231697D01*
X212078949Y-131051015D01*
X211848985Y-130821051D01*
X211668303Y-130550642D01*
X211543847Y-130250179D01*
X211480400Y-129931209D01*
X211480400Y-129605991D01*
X211543847Y-129287021D01*
X211668303Y-128986558D01*
X211848985Y-128716149D01*
X212078949Y-128486185D01*
X212349358Y-128305503D01*
X212649821Y-128181047D01*
X212756144Y-128159898D01*
X212968789Y-128117600D01*
X213294011Y-128117600D01*
X213506656Y-128159898D01*
X213506656Y-128159898D01*
G37*
G36*
X61106656Y-128159898D02*
G01*
X61212979Y-128181047D01*
X61513442Y-128305503D01*
X61783851Y-128486185D01*
X62013815Y-128716149D01*
X62194497Y-128986558D01*
X62318953Y-129287021D01*
X62382400Y-129605991D01*
X62382400Y-129931209D01*
X62318953Y-130250179D01*
X62194497Y-130550642D01*
X62013815Y-130821051D01*
X61783851Y-131051015D01*
X61513442Y-131231697D01*
X61212979Y-131356153D01*
X61106656Y-131377302D01*
X60894011Y-131419600D01*
X60568789Y-131419600D01*
X60356144Y-131377302D01*
X60249821Y-131356153D01*
X59949358Y-131231697D01*
X59678949Y-131051015D01*
X59448985Y-130821051D01*
X59268303Y-130550642D01*
X59143847Y-130250179D01*
X59080400Y-129931209D01*
X59080400Y-129605991D01*
X59143847Y-129287021D01*
X59268303Y-128986558D01*
X59448985Y-128716149D01*
X59678949Y-128486185D01*
X59949358Y-128305503D01*
X60249821Y-128181047D01*
X60356144Y-128159898D01*
X60568789Y-128117600D01*
X60894011Y-128117600D01*
X61106656Y-128159898D01*
X61106656Y-128159898D01*
G37*
G36*
X80944020Y-129466360D02*
G01*
X79142020Y-129466360D01*
X79142020Y-128064360D01*
X80944020Y-128064360D01*
X80944020Y-129466360D01*
X80944020Y-129466360D01*
G37*
G36*
X75062600Y-127985400D02*
G01*
X72460600Y-127985400D01*
X72460600Y-125333400D01*
X75062600Y-125333400D01*
X75062600Y-127985400D01*
X75062600Y-127985400D01*
G37*
G36*
X104406000Y-127546000D02*
G01*
X102604000Y-127546000D01*
X102604000Y-126144000D01*
X104406000Y-126144000D01*
X104406000Y-127546000D01*
X104406000Y-127546000D01*
G37*
G36*
X78244020Y-127167600D02*
G01*
X76642020Y-127167600D01*
X76642020Y-125765600D01*
X78244020Y-125765600D01*
X78244020Y-127167600D01*
X78244020Y-127167600D01*
G37*
G36*
X80944020Y-127167600D02*
G01*
X79342020Y-127167600D01*
X79342020Y-125765600D01*
X80944020Y-125765600D01*
X80944020Y-127167600D01*
X80944020Y-127167600D01*
G37*
G36*
X99091000Y-126406000D02*
G01*
X96489000Y-126406000D01*
X96489000Y-123754000D01*
X99091000Y-123754000D01*
X99091000Y-126406000D01*
X99091000Y-126406000D01*
G37*
G36*
X142406000Y-126023000D02*
G01*
X140804000Y-126023000D01*
X140804000Y-124421000D01*
X142406000Y-124421000D01*
X142406000Y-126023000D01*
X142406000Y-126023000D01*
G37*
G36*
X128478800Y-124939000D02*
G01*
X125876800Y-124939000D01*
X125876800Y-122837000D01*
X128478800Y-122837000D01*
X128478800Y-124939000D01*
X128478800Y-124939000D01*
G37*
G36*
X134998134Y-124939000D02*
G01*
X132396134Y-124939000D01*
X132396134Y-122837000D01*
X134998134Y-122837000D01*
X134998134Y-124939000D01*
X134998134Y-124939000D01*
G37*
G36*
X138257800Y-124939000D02*
G01*
X135655800Y-124939000D01*
X135655800Y-122837000D01*
X138257800Y-122837000D01*
X138257800Y-124939000D01*
X138257800Y-124939000D01*
G37*
G36*
X131738468Y-124939000D02*
G01*
X129136468Y-124939000D01*
X129136468Y-122837000D01*
X131738468Y-122837000D01*
X131738468Y-124939000D01*
X131738468Y-124939000D01*
G37*
G36*
X104406000Y-124046000D02*
G01*
X102604000Y-124046000D01*
X102604000Y-122644000D01*
X104406000Y-122644000D01*
X104406000Y-124046000D01*
X104406000Y-124046000D01*
G37*
G36*
X74876400Y-124002000D02*
G01*
X72124400Y-124002000D01*
X72124400Y-121870000D01*
X74876400Y-121870000D01*
X74876400Y-124002000D01*
X74876400Y-124002000D01*
G37*
G36*
X79056400Y-124002000D02*
G01*
X76304400Y-124002000D01*
X76304400Y-121870000D01*
X79056400Y-121870000D01*
X79056400Y-124002000D01*
X79056400Y-124002000D01*
G37*
G36*
X69515105Y-123015413D02*
G01*
X69591414Y-123047021D01*
X69660086Y-123092906D01*
X69718494Y-123151314D01*
X69764379Y-123219986D01*
X69795987Y-123296295D01*
X69812100Y-123377301D01*
X69812100Y-123459899D01*
X69795987Y-123540905D01*
X69764379Y-123617214D01*
X69718494Y-123685886D01*
X69660086Y-123744294D01*
X69591414Y-123790179D01*
X69515105Y-123821787D01*
X69434099Y-123837900D01*
X69351501Y-123837900D01*
X69270495Y-123821787D01*
X69194186Y-123790179D01*
X69125514Y-123744294D01*
X69067106Y-123685886D01*
X69021221Y-123617214D01*
X68989613Y-123540905D01*
X68973500Y-123459899D01*
X68973500Y-123377301D01*
X68989613Y-123296295D01*
X69021221Y-123219986D01*
X69067106Y-123151314D01*
X69125514Y-123092906D01*
X69194186Y-123047021D01*
X69270495Y-123015413D01*
X69351501Y-122999300D01*
X69434099Y-122999300D01*
X69515105Y-123015413D01*
X69515105Y-123015413D01*
G37*
G36*
X67940305Y-123015413D02*
G01*
X68016614Y-123047021D01*
X68085286Y-123092906D01*
X68143694Y-123151314D01*
X68189579Y-123219986D01*
X68221187Y-123296295D01*
X68237300Y-123377301D01*
X68237300Y-123459899D01*
X68221187Y-123540905D01*
X68189579Y-123617214D01*
X68143694Y-123685886D01*
X68085286Y-123744294D01*
X68016614Y-123790179D01*
X67940305Y-123821787D01*
X67859299Y-123837900D01*
X67776701Y-123837900D01*
X67695695Y-123821787D01*
X67619386Y-123790179D01*
X67550714Y-123744294D01*
X67492306Y-123685886D01*
X67446421Y-123617214D01*
X67414813Y-123540905D01*
X67398700Y-123459899D01*
X67398700Y-123377301D01*
X67414813Y-123296295D01*
X67446421Y-123219986D01*
X67492306Y-123151314D01*
X67550714Y-123092906D01*
X67619386Y-123047021D01*
X67695695Y-123015413D01*
X67776701Y-122999300D01*
X67859299Y-122999300D01*
X67940305Y-123015413D01*
X67940305Y-123015413D01*
G37*
G36*
X101666000Y-123436000D02*
G01*
X100264000Y-123436000D01*
X100264000Y-121834000D01*
X101666000Y-121834000D01*
X101666000Y-123436000D01*
X101666000Y-123436000D01*
G37*
G36*
X143375000Y-123158400D02*
G01*
X139073000Y-123158400D01*
X139073000Y-121556400D01*
X143375000Y-121556400D01*
X143375000Y-123158400D01*
X143375000Y-123158400D01*
G37*
G36*
X99091000Y-121356000D02*
G01*
X96489000Y-121356000D01*
X96489000Y-118704000D01*
X99091000Y-118704000D01*
X99091000Y-121356000D01*
X99091000Y-121356000D01*
G37*
G36*
X107439200Y-121106400D02*
G01*
X104687200Y-121106400D01*
X104687200Y-118974400D01*
X107439200Y-118974400D01*
X107439200Y-121106400D01*
X107439200Y-121106400D01*
G37*
G36*
X111619200Y-121106400D02*
G01*
X108867200Y-121106400D01*
X108867200Y-118974400D01*
X111619200Y-118974400D01*
X111619200Y-121106400D01*
X111619200Y-121106400D01*
G37*
G36*
X134998134Y-120939000D02*
G01*
X132396134Y-120939000D01*
X132396134Y-118837000D01*
X134998134Y-118837000D01*
X134998134Y-120939000D01*
X134998134Y-120939000D01*
G37*
G36*
X138257800Y-120939000D02*
G01*
X135655800Y-120939000D01*
X135655800Y-118837000D01*
X138257800Y-118837000D01*
X138257800Y-120939000D01*
X138257800Y-120939000D01*
G37*
G36*
X131738468Y-120939000D02*
G01*
X129136468Y-120939000D01*
X129136468Y-118837000D01*
X131738468Y-118837000D01*
X131738468Y-120939000D01*
X131738468Y-120939000D01*
G37*
G36*
X128478800Y-120939000D02*
G01*
X125876800Y-120939000D01*
X125876800Y-118837000D01*
X128478800Y-118837000D01*
X128478800Y-120939000D01*
X128478800Y-120939000D01*
G37*
G36*
X101666000Y-120736000D02*
G01*
X100264000Y-120736000D01*
X100264000Y-119134000D01*
X101666000Y-119134000D01*
X101666000Y-120736000D01*
X101666000Y-120736000D01*
G37*
G36*
X145557600Y-120592800D02*
G01*
X144205600Y-120592800D01*
X144205600Y-118990800D01*
X145557600Y-118990800D01*
X145557600Y-120592800D01*
X145557600Y-120592800D01*
G37*
G36*
X143375000Y-120458400D02*
G01*
X139073000Y-120458400D01*
X139073000Y-118856400D01*
X143375000Y-118856400D01*
X143375000Y-120458400D01*
X143375000Y-120458400D01*
G37*
G36*
X125313800Y-120439000D02*
G01*
X123961800Y-120439000D01*
X123961800Y-118837000D01*
X125313800Y-118837000D01*
X125313800Y-120439000D01*
X125313800Y-120439000D01*
G37*
G36*
X148722042Y-117746181D02*
G01*
X148867814Y-117806562D01*
X148867816Y-117806563D01*
X148999008Y-117894222D01*
X149110578Y-118005792D01*
X149168714Y-118092800D01*
X149198238Y-118136986D01*
X149258619Y-118282758D01*
X149289400Y-118437507D01*
X149289400Y-118595293D01*
X149258619Y-118750042D01*
X149214564Y-118856400D01*
X149198237Y-118895816D01*
X149110578Y-119027008D01*
X148999008Y-119138578D01*
X148867816Y-119226237D01*
X148867815Y-119226238D01*
X148867814Y-119226238D01*
X148722042Y-119286619D01*
X148567293Y-119317400D01*
X148409507Y-119317400D01*
X148254758Y-119286619D01*
X148108986Y-119226238D01*
X148108985Y-119226238D01*
X148108984Y-119226237D01*
X147977792Y-119138578D01*
X147866222Y-119027008D01*
X147778563Y-118895816D01*
X147762236Y-118856400D01*
X147718181Y-118750042D01*
X147687400Y-118595293D01*
X147687400Y-118437507D01*
X147718181Y-118282758D01*
X147778562Y-118136986D01*
X147808086Y-118092800D01*
X147866222Y-118005792D01*
X147977792Y-117894222D01*
X148108984Y-117806563D01*
X148108986Y-117806562D01*
X148254758Y-117746181D01*
X148409507Y-117715400D01*
X148567293Y-117715400D01*
X148722042Y-117746181D01*
X148722042Y-117746181D01*
G37*
G36*
X145557600Y-118092800D02*
G01*
X144205600Y-118092800D01*
X144205600Y-116490800D01*
X145557600Y-116490800D01*
X145557600Y-118092800D01*
X145557600Y-118092800D01*
G37*
G36*
X134794600Y-118087980D02*
G01*
X133217600Y-118087980D01*
X133217600Y-112985980D01*
X134794600Y-112985980D01*
X134794600Y-118087980D01*
X134794600Y-118087980D01*
G37*
G36*
X140670600Y-118087980D02*
G01*
X139093600Y-118087980D01*
X139093600Y-112985980D01*
X140670600Y-112985980D01*
X140670600Y-118087980D01*
X140670600Y-118087980D01*
G37*
G36*
X95931105Y-117173413D02*
G01*
X96007414Y-117205021D01*
X96076086Y-117250906D01*
X96134494Y-117309314D01*
X96180379Y-117377986D01*
X96211987Y-117454295D01*
X96228100Y-117535301D01*
X96228100Y-117617899D01*
X96211987Y-117698905D01*
X96180379Y-117775214D01*
X96134494Y-117843886D01*
X96076086Y-117902294D01*
X96007414Y-117948179D01*
X95931105Y-117979787D01*
X95850099Y-117995900D01*
X95767501Y-117995900D01*
X95686495Y-117979787D01*
X95610186Y-117948179D01*
X95541514Y-117902294D01*
X95483106Y-117843886D01*
X95437221Y-117775214D01*
X95405613Y-117698905D01*
X95389500Y-117617899D01*
X95389500Y-117535301D01*
X95405613Y-117454295D01*
X95437221Y-117377986D01*
X95483106Y-117309314D01*
X95541514Y-117250906D01*
X95610186Y-117205021D01*
X95686495Y-117173413D01*
X95767501Y-117157300D01*
X95850099Y-117157300D01*
X95931105Y-117173413D01*
X95931105Y-117173413D01*
G37*
G36*
X94356305Y-117173413D02*
G01*
X94432614Y-117205021D01*
X94501286Y-117250906D01*
X94559694Y-117309314D01*
X94605579Y-117377986D01*
X94637187Y-117454295D01*
X94653300Y-117535301D01*
X94653300Y-117617899D01*
X94637187Y-117698905D01*
X94605579Y-117775214D01*
X94559694Y-117843886D01*
X94501286Y-117902294D01*
X94432614Y-117948179D01*
X94356305Y-117979787D01*
X94275299Y-117995900D01*
X94192701Y-117995900D01*
X94111695Y-117979787D01*
X94035386Y-117948179D01*
X93966714Y-117902294D01*
X93908306Y-117843886D01*
X93862421Y-117775214D01*
X93830813Y-117698905D01*
X93814700Y-117617899D01*
X93814700Y-117535301D01*
X93830813Y-117454295D01*
X93862421Y-117377986D01*
X93908306Y-117309314D01*
X93966714Y-117250906D01*
X94035386Y-117205021D01*
X94111695Y-117173413D01*
X94192701Y-117157300D01*
X94275299Y-117157300D01*
X94356305Y-117173413D01*
X94356305Y-117173413D01*
G37*
G36*
X125313800Y-117939000D02*
G01*
X123961800Y-117939000D01*
X123961800Y-116337000D01*
X125313800Y-116337000D01*
X125313800Y-117939000D01*
X125313800Y-117939000D01*
G37*
G36*
X115168642Y-116069781D02*
G01*
X115314414Y-116130162D01*
X115314416Y-116130163D01*
X115445608Y-116217822D01*
X115557178Y-116329392D01*
X115562261Y-116337000D01*
X115644838Y-116460586D01*
X115705219Y-116606358D01*
X115736000Y-116761107D01*
X115736000Y-116918893D01*
X115705219Y-117073642D01*
X115663892Y-117173413D01*
X115644837Y-117219416D01*
X115557178Y-117350608D01*
X115445608Y-117462178D01*
X115314416Y-117549837D01*
X115314415Y-117549838D01*
X115314414Y-117549838D01*
X115168642Y-117610219D01*
X115013893Y-117641000D01*
X114856107Y-117641000D01*
X114701358Y-117610219D01*
X114555586Y-117549838D01*
X114555585Y-117549838D01*
X114555584Y-117549837D01*
X114424392Y-117462178D01*
X114312822Y-117350608D01*
X114225163Y-117219416D01*
X114206108Y-117173413D01*
X114164781Y-117073642D01*
X114134000Y-116918893D01*
X114134000Y-116761107D01*
X114164781Y-116606358D01*
X114225162Y-116460586D01*
X114307739Y-116337000D01*
X114312822Y-116329392D01*
X114424392Y-116217822D01*
X114555584Y-116130163D01*
X114555586Y-116130162D01*
X114701358Y-116069781D01*
X114856107Y-116039000D01*
X115013893Y-116039000D01*
X115168642Y-116069781D01*
X115168642Y-116069781D01*
G37*
G36*
X138200100Y-117232980D02*
G01*
X135688100Y-117232980D01*
X135688100Y-113840980D01*
X138200100Y-113840980D01*
X138200100Y-117232980D01*
X138200100Y-117232980D01*
G37*
G36*
X148046800Y-116452600D02*
G01*
X146694800Y-116452600D01*
X146694800Y-114850600D01*
X148046800Y-114850600D01*
X148046800Y-116452600D01*
X148046800Y-116452600D01*
G37*
G36*
X123042400Y-115748000D02*
G01*
X120440400Y-115748000D01*
X120440400Y-113646000D01*
X123042400Y-113646000D01*
X123042400Y-115748000D01*
X123042400Y-115748000D01*
G37*
G36*
X126421400Y-115748000D02*
G01*
X123819400Y-115748000D01*
X123819400Y-113646000D01*
X126421400Y-113646000D01*
X126421400Y-115748000D01*
X126421400Y-115748000D01*
G37*
G36*
X145989400Y-114725400D02*
G01*
X144637400Y-114725400D01*
X144637400Y-113123400D01*
X145989400Y-113123400D01*
X145989400Y-114725400D01*
X145989400Y-114725400D01*
G37*
G36*
X143677600Y-114723800D02*
G01*
X142275600Y-114723800D01*
X142275600Y-113121800D01*
X143677600Y-113121800D01*
X143677600Y-114723800D01*
X143677600Y-114723800D01*
G37*
G36*
X148046800Y-113952600D02*
G01*
X146694800Y-113952600D01*
X146694800Y-112350600D01*
X148046800Y-112350600D01*
X148046800Y-113952600D01*
X148046800Y-113952600D01*
G37*
G36*
X137507600Y-112257800D02*
G01*
X135905600Y-112257800D01*
X135905600Y-110855800D01*
X137507600Y-110855800D01*
X137507600Y-112257800D01*
X137507600Y-112257800D01*
G37*
G36*
X134807600Y-112257800D02*
G01*
X133205600Y-112257800D01*
X133205600Y-110855800D01*
X134807600Y-110855800D01*
X134807600Y-112257800D01*
X134807600Y-112257800D01*
G37*
G36*
X129903800Y-112232800D02*
G01*
X128301800Y-112232800D01*
X128301800Y-110880800D01*
X129903800Y-110880800D01*
X129903800Y-112232800D01*
X129903800Y-112232800D01*
G37*
G36*
X132403800Y-112232800D02*
G01*
X130801800Y-112232800D01*
X130801800Y-110880800D01*
X132403800Y-110880800D01*
X132403800Y-112232800D01*
X132403800Y-112232800D01*
G37*
G36*
X145989400Y-112225400D02*
G01*
X144637400Y-112225400D01*
X144637400Y-110623400D01*
X145989400Y-110623400D01*
X145989400Y-112225400D01*
X145989400Y-112225400D01*
G37*
G36*
X143677600Y-112023800D02*
G01*
X142275600Y-112023800D01*
X142275600Y-110421800D01*
X143677600Y-110421800D01*
X143677600Y-112023800D01*
X143677600Y-112023800D01*
G37*
G36*
X123042400Y-111748000D02*
G01*
X120440400Y-111748000D01*
X120440400Y-109646000D01*
X123042400Y-109646000D01*
X123042400Y-111748000D01*
X123042400Y-111748000D01*
G37*
G36*
X126421400Y-111748000D02*
G01*
X123819400Y-111748000D01*
X123819400Y-109646000D01*
X126421400Y-109646000D01*
X126421400Y-111748000D01*
X126421400Y-111748000D01*
G37*
G36*
X132303800Y-109237400D02*
G01*
X130901800Y-109237400D01*
X130901800Y-107535400D01*
X132303800Y-107535400D01*
X132303800Y-109237400D01*
X132303800Y-109237400D01*
G37*
G36*
X129803800Y-109237400D02*
G01*
X128401800Y-109237400D01*
X128401800Y-107535400D01*
X129803800Y-107535400D01*
X129803800Y-109237400D01*
X129803800Y-109237400D01*
G37*
G36*
X125999200Y-108983400D02*
G01*
X124597200Y-108983400D01*
X124597200Y-107381400D01*
X125999200Y-107381400D01*
X125999200Y-108983400D01*
X125999200Y-108983400D01*
G37*
G36*
X136657042Y-106443181D02*
G01*
X136802814Y-106503562D01*
X136802816Y-106503563D01*
X136934008Y-106591222D01*
X137045578Y-106702792D01*
X137133237Y-106833984D01*
X137133238Y-106833986D01*
X137193619Y-106979758D01*
X137224400Y-107134507D01*
X137224400Y-107292293D01*
X137193619Y-107447042D01*
X137133238Y-107592814D01*
X137133237Y-107592816D01*
X137045578Y-107724008D01*
X136934008Y-107835578D01*
X136802816Y-107923237D01*
X136802815Y-107923238D01*
X136802814Y-107923238D01*
X136657042Y-107983619D01*
X136502293Y-108014400D01*
X136344507Y-108014400D01*
X136189758Y-107983619D01*
X136043986Y-107923238D01*
X136043985Y-107923238D01*
X136043984Y-107923237D01*
X135912792Y-107835578D01*
X135801222Y-107724008D01*
X135713563Y-107592816D01*
X135713562Y-107592814D01*
X135653181Y-107447042D01*
X135622400Y-107292293D01*
X135622400Y-107134507D01*
X135653181Y-106979758D01*
X135713562Y-106833986D01*
X135713563Y-106833984D01*
X135801222Y-106702792D01*
X135912792Y-106591222D01*
X136043984Y-106503563D01*
X136043986Y-106503562D01*
X136189758Y-106443181D01*
X136344507Y-106412400D01*
X136502293Y-106412400D01*
X136657042Y-106443181D01*
X136657042Y-106443181D01*
G37*
G36*
X131403800Y-106337400D02*
G01*
X129301800Y-106337400D01*
X129301800Y-104635400D01*
X131403800Y-104635400D01*
X131403800Y-106337400D01*
X131403800Y-106337400D01*
G37*
G36*
X125999200Y-106283400D02*
G01*
X124597200Y-106283400D01*
X124597200Y-104681400D01*
X125999200Y-104681400D01*
X125999200Y-106283400D01*
X125999200Y-106283400D01*
G37*
G36*
X99478400Y-100697600D02*
G01*
X97676400Y-100697600D01*
X97676400Y-98895600D01*
X99478400Y-98895600D01*
X99478400Y-100697600D01*
X99478400Y-100697600D01*
G37*
G36*
X101227842Y-98902118D02*
G01*
X101294027Y-98908637D01*
X101463866Y-98960157D01*
X101620391Y-99043822D01*
X101656129Y-99073152D01*
X101757586Y-99156414D01*
X101840848Y-99257871D01*
X101870178Y-99293609D01*
X101953843Y-99450134D01*
X102005363Y-99619973D01*
X102022759Y-99796600D01*
X102005363Y-99973227D01*
X101953843Y-100143066D01*
X101870178Y-100299591D01*
X101840848Y-100335329D01*
X101757586Y-100436786D01*
X101656129Y-100520048D01*
X101620391Y-100549378D01*
X101463866Y-100633043D01*
X101294027Y-100684563D01*
X101227842Y-100691082D01*
X101161660Y-100697600D01*
X101073140Y-100697600D01*
X101006957Y-100691081D01*
X100940773Y-100684563D01*
X100770934Y-100633043D01*
X100614409Y-100549378D01*
X100578671Y-100520048D01*
X100477214Y-100436786D01*
X100393952Y-100335329D01*
X100364622Y-100299591D01*
X100280957Y-100143066D01*
X100229437Y-99973227D01*
X100212041Y-99796600D01*
X100229437Y-99619973D01*
X100280957Y-99450134D01*
X100364622Y-99293609D01*
X100393952Y-99257871D01*
X100477214Y-99156414D01*
X100578671Y-99073152D01*
X100614409Y-99043822D01*
X100770934Y-98960157D01*
X100940773Y-98908637D01*
X101006957Y-98902119D01*
X101073140Y-98895600D01*
X101161660Y-98895600D01*
X101227842Y-98902118D01*
X101227842Y-98902118D01*
G37*
G36*
X87152442Y-95952981D02*
G01*
X87298214Y-96013362D01*
X87298216Y-96013363D01*
X87429408Y-96101022D01*
X87540978Y-96212592D01*
X87628637Y-96343784D01*
X87628638Y-96343786D01*
X87689019Y-96489558D01*
X87719800Y-96644307D01*
X87719800Y-96802093D01*
X87689019Y-96956842D01*
X87628638Y-97102614D01*
X87628637Y-97102616D01*
X87540978Y-97233808D01*
X87429408Y-97345378D01*
X87298216Y-97433037D01*
X87298215Y-97433038D01*
X87298214Y-97433038D01*
X87152442Y-97493419D01*
X86997693Y-97524200D01*
X86839907Y-97524200D01*
X86685158Y-97493419D01*
X86539386Y-97433038D01*
X86539385Y-97433038D01*
X86539384Y-97433037D01*
X86408192Y-97345378D01*
X86296622Y-97233808D01*
X86208963Y-97102616D01*
X86208962Y-97102614D01*
X86148581Y-96956842D01*
X86117800Y-96802093D01*
X86117800Y-96644307D01*
X86148581Y-96489558D01*
X86208962Y-96343786D01*
X86208963Y-96343784D01*
X86296622Y-96212592D01*
X86408192Y-96101022D01*
X86539384Y-96013363D01*
X86539386Y-96013362D01*
X86685158Y-95952981D01*
X86839907Y-95922200D01*
X86997693Y-95922200D01*
X87152442Y-95952981D01*
X87152442Y-95952981D01*
G37*
G36*
X96546939Y-96230900D02*
G01*
X93944939Y-96230900D01*
X93944939Y-94128900D01*
X96546939Y-94128900D01*
X96546939Y-96230900D01*
X96546939Y-96230900D01*
G37*
G36*
X99832680Y-96230900D02*
G01*
X97230680Y-96230900D01*
X97230680Y-94128900D01*
X99832680Y-94128900D01*
X99832680Y-96230900D01*
X99832680Y-96230900D01*
G37*
G36*
X93078660Y-94230900D02*
G01*
X91726660Y-94230900D01*
X91726660Y-92628900D01*
X93078660Y-92628900D01*
X93078660Y-94230900D01*
X93078660Y-94230900D01*
G37*
G36*
X89908840Y-92801960D02*
G01*
X87806840Y-92801960D01*
X87806840Y-90199960D01*
X89908840Y-90199960D01*
X89908840Y-92801960D01*
X89908840Y-92801960D01*
G37*
G36*
X85908840Y-92801960D02*
G01*
X83806840Y-92801960D01*
X83806840Y-90199960D01*
X85908840Y-90199960D01*
X85908840Y-92801960D01*
X85908840Y-92801960D01*
G37*
G36*
X99832680Y-92230900D02*
G01*
X97230680Y-92230900D01*
X97230680Y-90128900D01*
X99832680Y-90128900D01*
X99832680Y-92230900D01*
X99832680Y-92230900D01*
G37*
G36*
X96546939Y-92230900D02*
G01*
X93944939Y-92230900D01*
X93944939Y-90128900D01*
X96546939Y-90128900D01*
X96546939Y-92230900D01*
X96546939Y-92230900D01*
G37*
G36*
X116628404Y-90157609D02*
G01*
X116819673Y-90236835D01*
X116819675Y-90236836D01*
X116991813Y-90351855D01*
X117138205Y-90498247D01*
X117253225Y-90670387D01*
X117332451Y-90861656D01*
X117372840Y-91064704D01*
X117372840Y-91271736D01*
X117332451Y-91474784D01*
X117253225Y-91666053D01*
X117253224Y-91666055D01*
X117138205Y-91838193D01*
X116991813Y-91984585D01*
X116819675Y-92099604D01*
X116819674Y-92099605D01*
X116819673Y-92099605D01*
X116628404Y-92178831D01*
X116425356Y-92219220D01*
X116218324Y-92219220D01*
X116015276Y-92178831D01*
X115824007Y-92099605D01*
X115824006Y-92099605D01*
X115824005Y-92099604D01*
X115651867Y-91984585D01*
X115505475Y-91838193D01*
X115390456Y-91666055D01*
X115390455Y-91666053D01*
X115311229Y-91474784D01*
X115270840Y-91271736D01*
X115270840Y-91064704D01*
X115311229Y-90861656D01*
X115390455Y-90670387D01*
X115505475Y-90498247D01*
X115651867Y-90351855D01*
X115824005Y-90236836D01*
X115824007Y-90236835D01*
X116015276Y-90157609D01*
X116218324Y-90117220D01*
X116425356Y-90117220D01*
X116628404Y-90157609D01*
X116628404Y-90157609D01*
G37*
G36*
X93078660Y-91730900D02*
G01*
X91726660Y-91730900D01*
X91726660Y-90128900D01*
X93078660Y-90128900D01*
X93078660Y-91730900D01*
X93078660Y-91730900D01*
G37*
G36*
X82811580Y-91706320D02*
G01*
X81409580Y-91706320D01*
X81409580Y-90104320D01*
X82811580Y-90104320D01*
X82811580Y-91706320D01*
X82811580Y-91706320D01*
G37*
G36*
X90187900Y-89407140D02*
G01*
X87535900Y-89407140D01*
X87535900Y-87745140D01*
X90187900Y-87745140D01*
X90187900Y-89407140D01*
X90187900Y-89407140D01*
G37*
G36*
X82811580Y-89006320D02*
G01*
X81409580Y-89006320D01*
X81409580Y-87404320D01*
X82811580Y-87404320D01*
X82811580Y-89006320D01*
X82811580Y-89006320D01*
G37*
G36*
X97800160Y-88562180D02*
G01*
X94498160Y-88562180D01*
X94498160Y-87460180D01*
X97800160Y-87460180D01*
X97800160Y-88562180D01*
X97800160Y-88562180D01*
G37*
G36*
X116628404Y-85077609D02*
G01*
X116819673Y-85156835D01*
X116819675Y-85156836D01*
X116974340Y-85260180D01*
X116991813Y-85271855D01*
X117138205Y-85418247D01*
X117253225Y-85590387D01*
X117332451Y-85781656D01*
X117372840Y-85984704D01*
X117372840Y-86191736D01*
X117332451Y-86394784D01*
X117253225Y-86586053D01*
X117253224Y-86586055D01*
X117138205Y-86758193D01*
X116991813Y-86904585D01*
X116819675Y-87019604D01*
X116819674Y-87019605D01*
X116819673Y-87019605D01*
X116628404Y-87098831D01*
X116425356Y-87139220D01*
X116218324Y-87139220D01*
X116015276Y-87098831D01*
X115824007Y-87019605D01*
X115824006Y-87019605D01*
X115824005Y-87019604D01*
X115651867Y-86904585D01*
X115505475Y-86758193D01*
X115390456Y-86586055D01*
X115390455Y-86586053D01*
X115311229Y-86394784D01*
X115270840Y-86191736D01*
X115270840Y-85984704D01*
X115311229Y-85781656D01*
X115390455Y-85590387D01*
X115505475Y-85418247D01*
X115651867Y-85271855D01*
X115669340Y-85260180D01*
X115824005Y-85156836D01*
X115824007Y-85156835D01*
X116015276Y-85077609D01*
X116218324Y-85037220D01*
X116425356Y-85037220D01*
X116628404Y-85077609D01*
X116628404Y-85077609D01*
G37*
G36*
X90187900Y-86707140D02*
G01*
X87535900Y-86707140D01*
X87535900Y-85045140D01*
X90187900Y-85045140D01*
X90187900Y-86707140D01*
X90187900Y-86707140D01*
G37*
G36*
X97800160Y-86362180D02*
G01*
X94498160Y-86362180D01*
X94498160Y-85260180D01*
X97800160Y-85260180D01*
X97800160Y-86362180D01*
X97800160Y-86362180D01*
G37*
G36*
X85331580Y-85061680D02*
G01*
X83929580Y-85061680D01*
X83929580Y-83359680D01*
X85331580Y-83359680D01*
X85331580Y-85061680D01*
X85331580Y-85061680D01*
G37*
G36*
X82831580Y-85061680D02*
G01*
X81429580Y-85061680D01*
X81429580Y-83359680D01*
X82831580Y-83359680D01*
X82831580Y-85061680D01*
X82831580Y-85061680D01*
G37*
G36*
X88620560Y-83986680D02*
G01*
X87218560Y-83986680D01*
X87218560Y-82384680D01*
X88620560Y-82384680D01*
X88620560Y-83986680D01*
X88620560Y-83986680D01*
G37*
G36*
X96245642Y-81652781D02*
G01*
X96391414Y-81713162D01*
X96391416Y-81713163D01*
X96522608Y-81800822D01*
X96634178Y-81912392D01*
X96721837Y-82043584D01*
X96721838Y-82043586D01*
X96782219Y-82189358D01*
X96813000Y-82344107D01*
X96813000Y-82501893D01*
X96782219Y-82656642D01*
X96721838Y-82802414D01*
X96721837Y-82802416D01*
X96634178Y-82933608D01*
X96522608Y-83045178D01*
X96391416Y-83132837D01*
X96391415Y-83132838D01*
X96391414Y-83132838D01*
X96245642Y-83193219D01*
X96090893Y-83224000D01*
X95933107Y-83224000D01*
X95778358Y-83193219D01*
X95632586Y-83132838D01*
X95632585Y-83132838D01*
X95632584Y-83132837D01*
X95501392Y-83045178D01*
X95389822Y-82933608D01*
X95302163Y-82802416D01*
X95302162Y-82802414D01*
X95241781Y-82656642D01*
X95211000Y-82501893D01*
X95211000Y-82344107D01*
X95241781Y-82189358D01*
X95302162Y-82043586D01*
X95302163Y-82043584D01*
X95389822Y-81912392D01*
X95501392Y-81800822D01*
X95632584Y-81713163D01*
X95632586Y-81713162D01*
X95778358Y-81652781D01*
X95933107Y-81622000D01*
X96090893Y-81622000D01*
X96245642Y-81652781D01*
X96245642Y-81652781D01*
G37*
G36*
X84431580Y-82161680D02*
G01*
X82329580Y-82161680D01*
X82329580Y-80459680D01*
X84431580Y-80459680D01*
X84431580Y-82161680D01*
X84431580Y-82161680D01*
G37*
G36*
X88620560Y-81286680D02*
G01*
X87218560Y-81286680D01*
X87218560Y-79684680D01*
X88620560Y-79684680D01*
X88620560Y-81286680D01*
X88620560Y-81286680D01*
G37*
G36*
X91552660Y-78489440D02*
G01*
X89950660Y-78489440D01*
X89950660Y-76887440D01*
X91552660Y-76887440D01*
X91552660Y-78489440D01*
X91552660Y-78489440D01*
G37*
G36*
X84421942Y-76331481D02*
G01*
X84567714Y-76391862D01*
X84567716Y-76391863D01*
X84698908Y-76479522D01*
X84810478Y-76591092D01*
X84898137Y-76722284D01*
X84898138Y-76722286D01*
X84958519Y-76868058D01*
X84989300Y-77022807D01*
X84989300Y-77180593D01*
X84958519Y-77335342D01*
X84898138Y-77481114D01*
X84898137Y-77481116D01*
X84810478Y-77612308D01*
X84698908Y-77723878D01*
X84567716Y-77811537D01*
X84567715Y-77811538D01*
X84567714Y-77811538D01*
X84421942Y-77871919D01*
X84267193Y-77902700D01*
X84109407Y-77902700D01*
X83954658Y-77871919D01*
X83808886Y-77811538D01*
X83808885Y-77811538D01*
X83808884Y-77811537D01*
X83677692Y-77723878D01*
X83566122Y-77612308D01*
X83478463Y-77481116D01*
X83478462Y-77481114D01*
X83418081Y-77335342D01*
X83387300Y-77180593D01*
X83387300Y-77022807D01*
X83418081Y-76868058D01*
X83478462Y-76722286D01*
X83478463Y-76722284D01*
X83566122Y-76591092D01*
X83677692Y-76479522D01*
X83808884Y-76391863D01*
X83808886Y-76391862D01*
X83954658Y-76331481D01*
X84109407Y-76300700D01*
X84267193Y-76300700D01*
X84421942Y-76331481D01*
X84421942Y-76331481D01*
G37*
G36*
X162706656Y-51959898D02*
G01*
X162812979Y-51981047D01*
X163113442Y-52105503D01*
X163383851Y-52286185D01*
X163613815Y-52516149D01*
X163794497Y-52786558D01*
X163918953Y-53087021D01*
X163982400Y-53405991D01*
X163982400Y-53731209D01*
X163918953Y-54050179D01*
X163794497Y-54350642D01*
X163613815Y-54621051D01*
X163383851Y-54851015D01*
X163113442Y-55031697D01*
X162812979Y-55156153D01*
X162706656Y-55177302D01*
X162494011Y-55219600D01*
X162168789Y-55219600D01*
X161956144Y-55177302D01*
X161849821Y-55156153D01*
X161549358Y-55031697D01*
X161278949Y-54851015D01*
X161048985Y-54621051D01*
X160868303Y-54350642D01*
X160743847Y-54050179D01*
X160680400Y-53731209D01*
X160680400Y-53405991D01*
X160743847Y-53087021D01*
X160868303Y-52786558D01*
X161048985Y-52516149D01*
X161278949Y-52286185D01*
X161549358Y-52105503D01*
X161849821Y-51981047D01*
X161956144Y-51959898D01*
X162168789Y-51917600D01*
X162494011Y-51917600D01*
X162706656Y-51959898D01*
X162706656Y-51959898D01*
G37*
G36*
X61106656Y-51959898D02*
G01*
X61212979Y-51981047D01*
X61513442Y-52105503D01*
X61783851Y-52286185D01*
X62013815Y-52516149D01*
X62194497Y-52786558D01*
X62318953Y-53087021D01*
X62382400Y-53405991D01*
X62382400Y-53731209D01*
X62318953Y-54050179D01*
X62194497Y-54350642D01*
X62013815Y-54621051D01*
X61783851Y-54851015D01*
X61513442Y-55031697D01*
X61212979Y-55156153D01*
X61106656Y-55177302D01*
X60894011Y-55219600D01*
X60568789Y-55219600D01*
X60356144Y-55177302D01*
X60249821Y-55156153D01*
X59949358Y-55031697D01*
X59678949Y-54851015D01*
X59448985Y-54621051D01*
X59268303Y-54350642D01*
X59143847Y-54050179D01*
X59080400Y-53731209D01*
X59080400Y-53405991D01*
X59143847Y-53087021D01*
X59268303Y-52786558D01*
X59448985Y-52516149D01*
X59678949Y-52286185D01*
X59949358Y-52105503D01*
X60249821Y-51981047D01*
X60356144Y-51959898D01*
X60568789Y-51917600D01*
X60894011Y-51917600D01*
X61106656Y-51959898D01*
X61106656Y-51959898D01*
G37*
M02*
