G04 #@! TF.GenerationSoftware,KiCad,Pcbnew,(5.1.0)-1*
G04 #@! TF.CreationDate,2019-07-19T11:06:20-06:00*
G04 #@! TF.ProjectId,d4100_mod_board_full,64343130-305f-46d6-9f64-5f626f617264,rev?*
G04 #@! TF.SameCoordinates,Original*
G04 #@! TF.FileFunction,Paste,Top*
G04 #@! TF.FilePolarity,Positive*
%FSLAX46Y46*%
G04 Gerber Fmt 4.6, Leading zero omitted, Abs format (unit mm)*
G04 Created by KiCad (PCBNEW (5.1.0)-1) date 2019-07-19 11:06:20*
%MOMM*%
%LPD*%
G04 APERTURE LIST*
%ADD10C,0.100000*%
%ADD11R,2.460000X2.310000*%
%ADD12R,1.570000X0.410000*%
%ADD13R,2.550000X2.510000*%
%ADD14R,0.400000X0.700000*%
%ADD15R,1.300000X1.500000*%
%ADD16R,1.250000X1.500000*%
%ADD17R,3.300000X2.500000*%
%ADD18R,3.200000X0.800000*%
%ADD19R,2.950000X3.500000*%
%ADD20R,5.000000X2.400000*%
%ADD21R,1.500000X1.250000*%
%ADD22R,1.400000X1.390000*%
%ADD23R,4.860000X3.360000*%
%ADD24R,1.180000X4.700000*%
%ADD25R,1.498600X1.701800*%
%ADD26R,1.117600X0.304800*%
%ADD27R,1.500000X1.300000*%
%ADD28R,1.600000X3.000000*%
%ADD29R,2.650000X2.030000*%
%ADD30R,1.700000X1.300000*%
%ADD31R,2.500000X2.550000*%
G04 APERTURE END LIST*
D10*
G36*
X108612613Y-83808000D02*
G01*
X107011000Y-83808000D01*
X107011000Y-82306488D01*
X108612613Y-82306488D01*
X108612613Y-83808000D01*
G37*
G36*
X128040300Y-102601017D02*
G01*
X128040300Y-101896700D01*
X129167730Y-101896700D01*
X129167730Y-102601017D01*
X128040300Y-102601017D01*
G37*
G36*
X126714300Y-102601462D02*
G01*
X126714300Y-101896700D01*
X127839230Y-101896700D01*
X127839230Y-102601462D01*
X126714300Y-102601462D01*
G37*
G36*
X128040300Y-103506761D02*
G01*
X128040300Y-102801700D01*
X129165430Y-102801700D01*
X129165430Y-103506761D01*
X128040300Y-103506761D01*
G37*
G36*
X126714300Y-103507311D02*
G01*
X126714300Y-102801700D01*
X127839190Y-102801700D01*
X127839190Y-103507311D01*
X126714300Y-103507311D01*
G37*
G36*
X128764800Y-101695350D02*
G01*
X128764800Y-101096200D01*
X129065570Y-101096200D01*
X129065570Y-101695350D01*
X128764800Y-101695350D01*
G37*
G36*
X126814800Y-101694360D02*
G01*
X126814800Y-101096200D01*
X127113587Y-101096200D01*
X127113587Y-101694360D01*
X126814800Y-101694360D01*
G37*
G36*
X128114800Y-101694400D02*
G01*
X128114800Y-101096200D01*
X128415482Y-101096200D01*
X128415482Y-101694400D01*
X128114800Y-101694400D01*
G37*
G36*
X127464800Y-101695490D02*
G01*
X127464800Y-101096200D01*
X127764701Y-101096200D01*
X127764701Y-101695490D01*
X127464800Y-101695490D01*
G37*
G36*
X128764800Y-104798570D02*
G01*
X128764800Y-104196200D01*
X129066240Y-104196200D01*
X129066240Y-104798570D01*
X128764800Y-104798570D01*
G37*
G36*
X126814800Y-104798120D02*
G01*
X126814800Y-104196200D01*
X127113944Y-104196200D01*
X127113944Y-104798120D01*
X126814800Y-104798120D01*
G37*
G36*
X128114800Y-104798040D02*
G01*
X128114800Y-104196200D01*
X128415272Y-104196200D01*
X128415272Y-104798040D01*
X128114800Y-104798040D01*
G37*
G36*
X127464800Y-104798850D02*
G01*
X127464800Y-104196200D01*
X127764549Y-104196200D01*
X127764549Y-104798850D01*
X127464800Y-104798850D01*
G37*
G36*
X102744000Y-92627000D02*
G01*
X102744000Y-90507000D01*
X105824000Y-90507000D01*
X105824000Y-92627000D01*
X102744000Y-92627000D01*
G37*
D11*
X107811000Y-83058000D03*
D12*
X104941000Y-85008000D03*
X104941000Y-84358000D03*
X104941000Y-83708000D03*
X104941000Y-83058000D03*
X104941000Y-82408000D03*
X104941000Y-81758000D03*
X104941000Y-81108000D03*
X110681000Y-81108000D03*
X110681000Y-81758000D03*
X110681000Y-82408000D03*
X110681000Y-83058000D03*
X110681000Y-83708000D03*
X110681000Y-84358000D03*
X110681000Y-85008000D03*
D13*
X127939800Y-102301200D03*
D14*
X128914800Y-104496200D03*
X128264800Y-104496200D03*
X126964800Y-104496200D03*
X127614800Y-104496200D03*
D15*
X111498380Y-112019080D03*
X111498380Y-109319080D03*
D16*
X111523780Y-114121880D03*
X111523780Y-116621880D03*
D17*
X130378200Y-115325100D03*
X130378200Y-108525100D03*
D18*
X130292720Y-119508840D03*
X130292720Y-117908840D03*
D19*
X119042600Y-107950000D03*
X124492600Y-107950000D03*
D20*
X121056400Y-120263800D03*
X121056400Y-113263800D03*
D21*
X120873200Y-100203000D03*
X123373200Y-100203000D03*
D16*
X114300000Y-81320000D03*
X114300000Y-83820000D03*
D22*
X108266000Y-92487000D03*
X108266000Y-90647000D03*
D23*
X104284000Y-91567000D03*
D24*
X113149000Y-92075000D03*
X116459000Y-92075000D03*
D25*
X130175000Y-125120400D03*
D26*
X132969000Y-122834400D03*
X132969000Y-123494800D03*
X132969000Y-124155200D03*
X132969000Y-124790200D03*
X132969000Y-125450600D03*
X132969000Y-126085600D03*
X132969000Y-126746000D03*
X132969000Y-127406400D03*
X127381000Y-127406400D03*
X127381000Y-126746000D03*
X127381000Y-126085600D03*
X127381000Y-125450600D03*
X127381000Y-124790200D03*
X127381000Y-124155200D03*
X127381000Y-123494800D03*
X127381000Y-122834400D03*
D27*
X97630000Y-85090000D03*
X100330000Y-85090000D03*
D15*
X99110800Y-87042000D03*
X99110800Y-89742000D03*
D27*
X102616000Y-79248000D03*
X99916000Y-79248000D03*
X98606000Y-82423000D03*
X101306000Y-82423000D03*
D28*
X93980000Y-86700000D03*
X93980000Y-91100000D03*
D21*
X95270000Y-79248000D03*
X97770000Y-79248000D03*
X107295000Y-79248000D03*
X104795000Y-79248000D03*
X109748000Y-79248000D03*
X112248000Y-79248000D03*
D16*
X117919500Y-85605300D03*
X117919500Y-88105300D03*
D15*
X114597180Y-119388880D03*
X114597180Y-116688880D03*
X114597180Y-114537480D03*
X114597180Y-111837480D03*
D27*
X124902700Y-130748600D03*
X127602700Y-130748600D03*
D15*
X122757400Y-131704800D03*
X122757400Y-129004800D03*
D27*
X120751600Y-127965200D03*
X118051600Y-127965200D03*
D15*
X111147860Y-128098540D03*
X111147860Y-125398540D03*
D27*
X111236760Y-123431300D03*
X113936760Y-123431300D03*
D29*
X104764000Y-120779540D03*
X100584000Y-120779540D03*
X73500400Y-122936000D03*
X77680400Y-122936000D03*
D30*
X100601780Y-123578680D03*
X100601780Y-127078680D03*
X78968600Y-130147000D03*
X78968600Y-126647000D03*
D16*
X87884000Y-87777000D03*
X87884000Y-90277000D03*
X121348500Y-85605300D03*
X121348500Y-88105300D03*
X125120400Y-119918800D03*
X125120400Y-117418800D03*
D21*
X134106600Y-132054600D03*
X136606600Y-132054600D03*
D16*
X129647400Y-131364800D03*
X129647400Y-128864800D03*
D21*
X124901900Y-128860000D03*
X127401900Y-128860000D03*
D16*
X134950200Y-110693200D03*
X134950200Y-108193200D03*
D21*
X121997400Y-124154800D03*
X124497400Y-124154800D03*
X119400000Y-126085600D03*
X121900000Y-126085600D03*
X131307400Y-121454800D03*
X133807400Y-121454800D03*
D16*
X134797800Y-129748600D03*
X134797800Y-127248600D03*
X113023960Y-128075740D03*
X113023960Y-125575740D03*
D21*
X120860500Y-102171500D03*
X123360500Y-102171500D03*
D31*
X96121220Y-121142520D03*
X96121220Y-126192520D03*
X73761600Y-131709400D03*
X73761600Y-126659400D03*
M02*
