G04 ================== begin FILE IDENTIFICATION RECORD ==================*
G04 Layout Name:  2510300_REV-D.brd*
G04 Film Name:    L09_sig4.gbr*
G04 File Format:  Gerber RS274X*
G04 File Origin:  Cadence Allegro 16.6-2015-S051*
G04 Origin Date:  Tue Apr 12 06:53:57 2016*
G04 *
G04 Layer:  VIA CLASS/L9_SIG4*
G04 Layer:  PIN/L9_SIG4*
G04 Layer:  ETCH/L9_SIG4*
G04 Layer:  DRAWING FORMAT/TITLE_BLOCK*
G04 *
G04 Offset:    (0.00 0.00)*
G04 Mirror:    No*
G04 Mode:      Positive*
G04 Rotation:  0*
G04 FullContactRelief:  No*
G04 UndefLineWidth:     0.00*
G04 ================== end FILE IDENTIFICATION RECORD ====================*
%FSLAX25Y25*MOIN*%
%IR0*IPPOS*OFA0.00000B0.00000*MIA0B0*SFA1.00000B1.00000*%
%ADD15C,.02*%
%ADD13C,.06*%
%ADD16C,.07*%
%ADD14C,.025*%
%ADD10C,.016*%
%ADD11C,.055*%
%ADD12C,.094*%
%ADD17C,.011*%
%ADD18C,.004*%
%ADD19C,.006*%
%ADD20C,.008*%
%ADD21C,.00399*%
G75*
%LPD*%
G75*
G54D10*
X43900Y259200D03*
X43932Y250132D03*
X43200Y262800D03*
X43347Y255053D03*
X42079Y284579D03*
X43600Y271200D03*
X42037Y274737D03*
X42242Y279658D03*
X56900Y151100D03*
Y160800D03*
Y171300D03*
Y191400D03*
Y181700D03*
Y201300D03*
Y210700D03*
X68240Y216960D03*
X68100Y220600D03*
X67400Y224500D03*
X66700Y227000D03*
X56900Y221100D03*
X66520Y238220D03*
X80000Y207200D03*
X82250Y205150D03*
X79190Y202790D03*
X79800Y234100D03*
X106000Y9900D03*
X105300Y38800D03*
X109000Y21900D03*
X99000Y96500D03*
X100500Y231700D03*
X110100Y31100D03*
X120000Y165000D03*
X119700Y248400D03*
X144600Y211000D03*
X145600Y195700D03*
X146200Y203400D03*
X146100Y198300D03*
X145000Y206000D03*
X146200Y213600D03*
X145000Y201000D03*
X146900Y208400D03*
X146500Y218500D03*
X146600Y221000D03*
X144700Y223000D03*
X146500Y228500D03*
X146000Y225000D03*
X144700Y215900D03*
X160000Y242000D03*
X177500Y213500D03*
X163000Y227000D03*
Y230000D03*
X177500Y218500D03*
X162500Y237500D03*
X163000Y233000D03*
X192300Y52300D03*
X187000Y211000D03*
X186000Y216000D03*
X186500Y228500D03*
X192000Y229000D03*
X187000Y225000D03*
X191000Y232000D03*
X187000Y221000D03*
X191000Y239000D03*
X188000Y242000D03*
Y235000D03*
X186500Y238500D03*
X224900Y84900D03*
X263400Y333500D03*
X283800Y236800D03*
X273000Y266000D03*
X275900Y270400D03*
X278921Y336122D03*
X307508Y298948D03*
X319319D03*
X303571Y302886D03*
X311445Y310760D03*
X315382Y334382D03*
X334266Y116218D03*
X330330D03*
X334266Y124092D03*
Y112282D03*
Y128030D03*
Y179234D03*
Y191044D03*
Y187108D03*
X335066Y255618D03*
Y251682D03*
X327193Y298948D03*
Y302886D03*
X331130Y306822D03*
X323256D03*
X346078Y112282D03*
X342141D03*
Y120156D03*
Y124092D03*
X346078Y116218D03*
Y120156D03*
X338204Y124092D03*
Y120156D03*
Y116218D03*
X350015Y128030D03*
X346078D03*
X342141D03*
X350015Y135904D03*
X346078Y139841D03*
X350015Y179234D03*
X346078D03*
X338204D03*
X350015Y183170D03*
Y187108D03*
X338204Y183170D03*
X346078Y191044D03*
Y183170D03*
X342141Y187108D03*
X338204D03*
X342141Y191044D03*
Y183170D03*
X354752Y255618D03*
X350815D03*
X339005Y275305D03*
Y279241D03*
Y271367D03*
X342941D03*
Y326508D03*
X350815Y322571D03*
X342941Y334382D03*
X346878D03*
X342941Y330444D03*
X339004Y334382D03*
X366586Y247744D03*
Y243807D03*
X366585Y259556D03*
X370522Y255618D03*
X366585Y251682D03*
X370522Y259556D03*
Y342256D03*
Y338318D03*
X377596Y116218D03*
Y112282D03*
X385470Y120156D03*
X381534Y187108D03*
X386271Y263492D03*
X374459Y255618D03*
X378396D03*
X378395Y330445D03*
Y326508D03*
X378396Y338318D03*
X374459D03*
X393344Y147715D03*
X397282D03*
X405156Y194982D03*
Y191044D03*
Y187108D03*
X394144Y298948D03*
Y306822D03*
X409092Y191044D03*
Y194982D03*
X434700Y267500D03*
X441600Y262100D03*
X441900Y339800D03*
X451300Y264300D03*
X475268Y125000D03*
X477236Y115164D03*
X482500Y125000D03*
X478500D03*
X492100Y293800D03*
X487700Y317800D03*
X481800Y304400D03*
X508300Y125500D03*
X500858Y124342D03*
X506000Y126800D03*
X504300Y124800D03*
X508849Y213950D03*
X496250Y229698D03*
X526660Y211510D03*
Y214660D03*
X523510D03*
X526660Y198912D03*
Y230490D03*
X523510D03*
Y217809D03*
Y233640D03*
X543900Y273300D03*
X625100Y173300D03*
X619900Y283200D03*
X620200Y292236D03*
X620901Y288299D03*
X621900Y290268D03*
X621769Y286331D03*
X619700Y315100D03*
X631894Y353706D03*
X635831Y353969D03*
X633862Y356038D03*
X640600Y186100D03*
X645129Y206329D03*
X665020Y178500D03*
X682325Y333575D03*
X682500Y338400D03*
X745900Y104600D03*
G54D20*
G01X120000Y165000D02*
X113709D01*
X107700Y158991D01*
Y105200D01*
X99000Y96500D01*
G01X258500Y-125000D02*
Y-117000D01*
X261000D01*
X262000Y-117400D01*
X262750Y-117933D01*
X263375Y-118733D01*
X263875Y-119667D01*
X264000Y-121000D01*
X263875Y-122333D01*
X263375Y-123267D01*
X262750Y-124067D01*
X262000Y-124600D01*
X261000Y-125000D01*
X258500D01*
G01X266625D02*
X269750Y-117000D01*
X272875Y-125000D01*
G01X271750Y-122200D02*
X267750D01*
G01X278250Y-117000D02*
Y-125000D01*
G01X275375Y-117000D02*
X281125D01*
G01X289250Y-125000D02*
X284250D01*
Y-117000D01*
X289250D01*
G01X287250Y-120867D02*
X284250D01*
G01X295250Y-125267D02*
X295000Y-125133D01*
Y-124867D01*
X295250Y-124733D01*
X295500Y-124867D01*
Y-125133D01*
X295250Y-125267D01*
G01Y-121667D02*
X295000Y-121533D01*
Y-121267D01*
X295250Y-121133D01*
X295500Y-121267D01*
Y-121533D01*
X295250Y-121667D01*
G01X267750Y-70000D02*
Y-62000D01*
X270250D01*
X271250Y-62400D01*
X272000Y-62933D01*
X272625Y-63733D01*
X273125Y-64667D01*
X273250Y-66000D01*
X273125Y-67333D01*
X272625Y-68267D01*
X272000Y-69067D01*
X271250Y-69600D01*
X270250Y-70000D01*
X267750D01*
G01X277500Y-62000D02*
X280500D01*
G01X279000D02*
Y-70000D01*
G01X277500D02*
X280500D01*
G01X288250Y-66000D02*
X290750D01*
Y-68400D01*
X290000Y-69200D01*
X289125Y-69733D01*
X287875Y-70000D01*
X286625Y-69733D01*
X285750Y-69200D01*
X285000Y-68400D01*
X284500Y-67467D01*
X284250Y-66400D01*
Y-65467D01*
X284500Y-64667D01*
X285000Y-63733D01*
X285750Y-62933D01*
X286500Y-62400D01*
X287500Y-62000D01*
X288375D01*
X289375Y-62267D01*
X290125Y-62800D01*
G01X294500Y-62000D02*
X297500D01*
G01X296000D02*
Y-70000D01*
G01X294500D02*
X297500D01*
G01X304500Y-62000D02*
Y-70000D01*
G01X301625Y-62000D02*
X307375D01*
G01X309875Y-70000D02*
X313000Y-62000D01*
X316125Y-70000D01*
G01X315000Y-67200D02*
X311000D01*
G01X319000Y-62000D02*
Y-70000D01*
X324000D01*
G01X336000Y-62000D02*
Y-70000D01*
X341000D01*
G01X345500Y-62000D02*
X348500D01*
G01X347000D02*
Y-70000D01*
G01X345500D02*
X348500D01*
G01X356250Y-66000D02*
X358750D01*
Y-68400D01*
X358000Y-69200D01*
X357125Y-69733D01*
X355875Y-70000D01*
X354625Y-69733D01*
X353750Y-69200D01*
X353000Y-68400D01*
X352500Y-67467D01*
X352250Y-66400D01*
Y-65467D01*
X352500Y-64667D01*
X353000Y-63733D01*
X353750Y-62933D01*
X354500Y-62400D01*
X355500Y-62000D01*
X356375D01*
X357375Y-62267D01*
X358125Y-62800D01*
G01X361375Y-70000D02*
Y-62000D01*
G01X366625D02*
Y-70000D01*
G01Y-66000D02*
X361375D01*
G01X372500Y-62000D02*
Y-70000D01*
G01X369625Y-62000D02*
X375375D01*
G01X388000D02*
X391000D01*
G01X389500D02*
Y-70000D01*
G01X388000D02*
X391000D01*
G01X395125D02*
Y-62000D01*
X400875Y-70000D01*
Y-62000D01*
G01X403625Y-70000D02*
Y-62000D01*
X409375Y-70000D01*
Y-62000D01*
G01X415000Y-70000D02*
X414000Y-69867D01*
X413125Y-69333D01*
X412375Y-68533D01*
X411875Y-67600D01*
X411625Y-66533D01*
Y-65467D01*
X411875Y-64400D01*
X412375Y-63467D01*
X413125Y-62667D01*
X414000Y-62133D01*
X415000Y-62000D01*
X416000Y-62133D01*
X416875Y-62667D01*
X417625Y-63467D01*
X418125Y-64400D01*
X418375Y-65467D01*
Y-66533D01*
X418125Y-67600D01*
X417625Y-68533D01*
X416875Y-69333D01*
X416000Y-69867D01*
X415000Y-70000D01*
G01X420375Y-62000D02*
X423500Y-70000D01*
X426625Y-62000D01*
G01X428875Y-70000D02*
X432000Y-62000D01*
X435125Y-70000D01*
G01X434000Y-67200D02*
X430000D01*
G01X440500Y-62000D02*
Y-70000D01*
G01X437625Y-62000D02*
X443375D01*
G01X447500D02*
X450500D01*
G01X449000D02*
Y-70000D01*
G01X447500D02*
X450500D01*
G01X457500D02*
X456500Y-69867D01*
X455625Y-69333D01*
X454875Y-68533D01*
X454375Y-67600D01*
X454125Y-66533D01*
Y-65467D01*
X454375Y-64400D01*
X454875Y-63467D01*
X455625Y-62667D01*
X456500Y-62133D01*
X457500Y-62000D01*
X458500Y-62133D01*
X459375Y-62667D01*
X460125Y-63467D01*
X460625Y-64400D01*
X460875Y-65467D01*
Y-66533D01*
X460625Y-67600D01*
X460125Y-68533D01*
X459375Y-69333D01*
X458500Y-69867D01*
X457500Y-70000D01*
G01X463125D02*
Y-62000D01*
X468875Y-70000D01*
Y-62000D01*
G01X471875Y-68934D02*
X472875Y-69600D01*
X474000Y-70000D01*
X475000D01*
X476000Y-69600D01*
X476750Y-68934D01*
X477125Y-68000D01*
X476875Y-67067D01*
X476250Y-66267D01*
X475125Y-65733D01*
X473625Y-65467D01*
X472750Y-64933D01*
X472375Y-64000D01*
X472625Y-63067D01*
X473250Y-62400D01*
X474125Y-62000D01*
X475000D01*
X475875Y-62267D01*
X476625Y-62933D01*
G01X316250Y-117000D02*
X315250Y-117267D01*
X314500Y-117933D01*
X314000Y-118733D01*
X313625Y-119800D01*
X313500Y-121000D01*
X313625Y-122200D01*
X314000Y-123267D01*
X314500Y-124067D01*
X315250Y-124733D01*
X316250Y-125000D01*
X317250Y-124733D01*
X318000Y-124067D01*
X318500Y-123267D01*
X318875Y-122200D01*
X319000Y-121000D01*
X318875Y-119800D01*
X318500Y-118733D01*
X318000Y-117933D01*
X317250Y-117267D01*
X316250Y-117000D01*
G01X326250Y-125000D02*
Y-117000D01*
X321625Y-122733D01*
X327875D01*
G01X331000Y-125267D02*
X335500Y-117000D01*
G01X341750Y-125000D02*
Y-117000D01*
X340250Y-118600D01*
G01Y-125000D02*
X343250D01*
G01X347875Y-118333D02*
X348625Y-117533D01*
X349500Y-117133D01*
X350500Y-117000D01*
X351750Y-117267D01*
X352625Y-117933D01*
X352875Y-118733D01*
X352750Y-119534D01*
X352250Y-120200D01*
X349750Y-121533D01*
X348625Y-122467D01*
X347875Y-123800D01*
X347625Y-125000D01*
X352875D01*
G01X356500Y-125267D02*
X361000Y-117000D01*
G01X364875Y-118333D02*
X365625Y-117533D01*
X366500Y-117133D01*
X367500Y-117000D01*
X368750Y-117267D01*
X369625Y-117933D01*
X369875Y-118733D01*
X369750Y-119534D01*
X369250Y-120200D01*
X366750Y-121533D01*
X365625Y-122467D01*
X364875Y-123800D01*
X364625Y-125000D01*
X369875D01*
G01X375750Y-117000D02*
X374750Y-117267D01*
X374000Y-117933D01*
X373500Y-118733D01*
X373125Y-119800D01*
X373000Y-121000D01*
X373125Y-122200D01*
X373500Y-123267D01*
X374000Y-124067D01*
X374750Y-124733D01*
X375750Y-125000D01*
X376750Y-124733D01*
X377500Y-124067D01*
X378000Y-123267D01*
X378375Y-122200D01*
X378500Y-121000D01*
X378375Y-119800D01*
X378000Y-118733D01*
X377500Y-117933D01*
X376750Y-117267D01*
X375750Y-117000D01*
G01X384250Y-125000D02*
Y-117000D01*
X382750Y-118600D01*
G01Y-125000D02*
X385750D01*
G01X390375Y-121667D02*
X391250Y-120733D01*
X392000Y-120200D01*
X393000Y-119933D01*
X393875Y-120200D01*
X394500Y-120733D01*
X395000Y-121533D01*
X395125Y-122467D01*
X395000Y-123267D01*
X394500Y-124067D01*
X393750Y-124733D01*
X392875Y-125000D01*
X391875Y-124733D01*
X391000Y-123934D01*
X390500Y-122733D01*
X390375Y-121400D01*
X390625Y-119667D01*
X391000Y-118733D01*
X391625Y-117800D01*
X392500Y-117133D01*
X393375Y-117000D01*
X394250Y-117267D01*
X394875Y-117933D01*
G01X408750Y-125000D02*
Y-117000D01*
X411875D01*
X412875Y-117400D01*
X413500Y-117933D01*
X413750Y-119000D01*
X413500Y-120067D01*
X412750Y-120733D01*
X411875Y-121133D01*
X408750D01*
G01X411875D02*
X413750Y-125000D01*
G01X422250D02*
X417250D01*
Y-117000D01*
X422250D01*
G01X420250Y-120867D02*
X417250D01*
G01X425125Y-117000D02*
X428250Y-125000D01*
X431375Y-117000D01*
G01X436750Y-125267D02*
X436500Y-125133D01*
Y-124867D01*
X436750Y-124733D01*
X437000Y-124867D01*
Y-125133D01*
X436750Y-125267D01*
G01Y-121667D02*
X436500Y-121533D01*
Y-121267D01*
X436750Y-121133D01*
X437000Y-121267D01*
Y-121533D01*
X436750Y-121667D01*
G01X459750Y-125000D02*
Y-117000D01*
X462250D01*
X463250Y-117400D01*
X464000Y-117933D01*
X464625Y-118733D01*
X465125Y-119667D01*
X465250Y-121000D01*
X465125Y-122333D01*
X464625Y-123267D01*
X464000Y-124067D01*
X463250Y-124600D01*
X462250Y-125000D01*
X459750D01*
G54D11*
X147500Y337500D03*
Y357500D03*
Y347500D03*
Y367500D03*
Y377500D03*
X157500Y337500D03*
Y357500D03*
Y347500D03*
Y367500D03*
Y377500D03*
X167500Y337500D03*
Y357500D03*
Y347500D03*
Y367500D03*
Y377500D03*
G54D21*
G01X350815Y322571D02*
Y320741D01*
X349325Y319251D01*
Y299288D01*
X342579Y292542D01*
X342324D01*
X341451Y291669D01*
Y291392D01*
X338664Y288605D01*
X338387D01*
X337514Y287732D01*
Y287456D01*
X334726Y284668D01*
X334449D01*
X333576Y283795D01*
Y283645D01*
X331440Y281509D01*
X294755D01*
X294136Y280890D01*
X284083D01*
X281484Y278291D01*
X281162D01*
X279038Y280414D01*
X278716D01*
X278488Y280186D01*
Y279864D01*
X280612Y277741D01*
Y277419D01*
X280384Y277191D01*
X280062D01*
X277938Y279314D01*
X277616D01*
X277388Y279086D01*
Y278764D01*
X279512Y276641D01*
Y276319D01*
X279284Y276091D01*
X278962D01*
X276838Y278214D01*
X276516D01*
X276288Y277986D01*
Y277664D01*
X278412Y275541D01*
Y275219D01*
X278184Y274991D01*
X277862D01*
X275738Y277114D01*
X275416D01*
X275188Y276886D01*
Y276564D01*
X277312Y274441D01*
Y274119D01*
X277084Y273891D01*
X276762D01*
X274638Y276014D01*
X274316D01*
X274088Y275786D01*
Y275464D01*
X276212Y273341D01*
Y273019D01*
X275984Y272791D01*
X275662D01*
X273766Y274686D01*
X272886D01*
X271016Y272816D01*
Y271936D01*
X272912Y270041D01*
Y269719D01*
X272684Y269491D01*
X272362D01*
X270238Y271614D01*
X269916D01*
X269688Y271386D01*
Y271064D01*
X271812Y268941D01*
Y268619D01*
X271584Y268391D01*
X271262D01*
X269138Y270514D01*
X268816D01*
X268588Y270286D01*
Y269964D01*
X270712Y267841D01*
Y267519D01*
X270484Y267291D01*
X270162D01*
X268038Y269414D01*
X267716D01*
X267488Y269186D01*
Y268864D01*
X269612Y266741D01*
Y266419D01*
X269384Y266191D01*
X269062D01*
X266938Y268314D01*
X266616D01*
X266388Y268086D01*
Y267764D01*
X268512Y265641D01*
Y265319D01*
X262019Y258826D01*
X261697D01*
X259824Y260700D01*
X259502D01*
X259274Y260472D01*
Y260150D01*
X261147Y258276D01*
Y257954D01*
X260919Y257726D01*
X260597D01*
X258724Y259600D01*
X258402D01*
X258174Y259372D01*
Y259050D01*
X260047Y257176D01*
Y256854D01*
X259819Y256626D01*
X259497D01*
X257624Y258500D01*
X257302D01*
X257074Y258272D01*
Y257950D01*
X258947Y256076D01*
Y255754D01*
X248993Y245800D01*
X188700D01*
X188000Y245100D01*
X177240D01*
X176040Y246300D01*
X157800D01*
X152897Y241397D01*
X150504D01*
X147117Y238010D01*
Y237417D01*
X138800Y229100D01*
X136260D01*
X130242Y223082D01*
Y209078D01*
X128722Y207558D01*
X127055D01*
X124682Y205185D01*
X123618D01*
X122575Y204142D01*
Y200992D01*
X112863Y191280D01*
X111933D01*
X111060Y190407D01*
Y189160D01*
X91900Y170000D01*
X81293D01*
X66600Y184693D01*
Y191500D01*
X62056Y196044D01*
Y222356D01*
X66700Y227000D01*
G01X342941Y326508D02*
X340493Y324060D01*
X338387D01*
X337514Y323187D01*
Y321081D01*
X336556Y320123D01*
Y318017D01*
X335683Y317144D01*
X335407D01*
X333000Y314737D01*
Y308161D01*
X333398Y307762D01*
Y299109D01*
X326742Y292453D01*
X326613D01*
X325793Y291633D01*
Y291610D01*
X323836Y289653D01*
X322676D01*
X322429Y289900D01*
X320146D01*
X319899Y289653D01*
X318739D01*
X318492Y289900D01*
X316209D01*
X315962Y289653D01*
X314802D01*
X314555Y289900D01*
X312399D01*
X312061Y289562D01*
X310827D01*
X310489Y289900D01*
X308335D01*
X308087Y289652D01*
X306927D01*
X306679Y289900D01*
X304525D01*
X304187Y289562D01*
X302953D01*
X302615Y289900D01*
X300589D01*
X300251Y289562D01*
X299017D01*
X298679Y289900D01*
X296651D01*
X296313Y289562D01*
X295079D01*
X294741Y289900D01*
X292714D01*
X292376Y289562D01*
X291142D01*
X290804Y289900D01*
X276507D01*
X273307Y293100D01*
X236107D01*
X234524Y291517D01*
X234202D01*
X232422Y293298D01*
X232100D01*
X231872Y293070D01*
Y292748D01*
X233652Y290967D01*
Y290645D01*
X233424Y290417D01*
X233102D01*
X231322Y292198D01*
X231000D01*
X230772Y291970D01*
Y291648D01*
X232552Y289867D01*
Y289545D01*
X232324Y289317D01*
X232002D01*
X230222Y291098D01*
X229900D01*
X229672Y290870D01*
Y290548D01*
X231452Y288767D01*
Y288445D01*
X231224Y288217D01*
X230902D01*
X229122Y289998D01*
X228800D01*
X228572Y289770D01*
Y289448D01*
X230352Y287667D01*
Y287345D01*
X230124Y287117D01*
X229802D01*
X228022Y288898D01*
X227700D01*
X227472Y288670D01*
Y288348D01*
X229252Y286567D01*
Y286245D01*
X229024Y286017D01*
X228702D01*
X226922Y287798D01*
X226600D01*
X226372Y287570D01*
Y287248D01*
X228152Y285467D01*
Y285145D01*
X227924Y284917D01*
X227602D01*
X225822Y286698D01*
X225500D01*
X225272Y286470D01*
Y286148D01*
X227052Y284367D01*
Y284045D01*
X226824Y283817D01*
X226502D01*
X224722Y285598D01*
X224400D01*
X224172Y285370D01*
Y285048D01*
X225952Y283267D01*
Y282945D01*
X225724Y282717D01*
X225402D01*
X223622Y284498D01*
X223300D01*
X223072Y284270D01*
Y283948D01*
X224852Y282167D01*
Y281845D01*
X224624Y281617D01*
X224302D01*
X222522Y283398D01*
X222200D01*
X221972Y283170D01*
Y282848D01*
X223752Y281067D01*
Y280745D01*
X223524Y280517D01*
X223202D01*
X221422Y282298D01*
X221100D01*
X220872Y282070D01*
Y281748D01*
X219091Y279967D01*
X218967D01*
X213489Y274489D01*
X213283D01*
X212411Y273617D01*
Y273411D01*
X202371Y263371D01*
X200530D01*
X200302Y263143D01*
Y259828D01*
X200074Y259600D01*
X199753D01*
X199525Y259828D01*
Y263143D01*
X199297Y263371D01*
X198976D01*
X198748Y263143D01*
Y259828D01*
X198520Y259600D01*
X198199D01*
X197971Y259828D01*
Y263143D01*
X197743Y263371D01*
X196822D01*
X196593Y263600D01*
X196272D01*
X196044Y263372D01*
Y257828D01*
X195816Y257600D01*
X195495D01*
X195267Y257828D01*
Y263372D01*
X195039Y263600D01*
X194718D01*
X194490Y263372D01*
Y257828D01*
X194262Y257600D01*
X193941D01*
X193713Y257828D01*
Y263372D01*
X193485Y263600D01*
X193164D01*
X192936Y263372D01*
Y257828D01*
X192708Y257600D01*
X192387D01*
X192159Y257828D01*
Y263372D01*
X191931Y263600D01*
X191610D01*
X191382Y263372D01*
Y257828D01*
X191154Y257600D01*
X190833D01*
X190605Y257828D01*
Y263372D01*
X190377Y263600D01*
X190056D01*
X189828Y263372D01*
Y257828D01*
X189600Y257600D01*
X189279D01*
X189051Y257828D01*
Y263372D01*
X188823Y263600D01*
X188502D01*
X188274Y263372D01*
Y257828D01*
X188046Y257600D01*
X187725D01*
X186925Y258400D01*
X180848D01*
X180048Y257600D01*
X173309D01*
X170346Y254637D01*
X161934D01*
X161165Y253868D01*
Y253308D01*
X160292Y252435D01*
X159058D01*
X156856Y254637D01*
X154937D01*
X134997Y234697D01*
Y234400D01*
X124682Y224085D01*
X122787D01*
X99502Y200800D01*
X93046D01*
X86246Y194000D01*
X73500D01*
X71800Y195700D01*
Y214700D01*
X69540Y216960D01*
X68240D01*
G01X68100Y220600D02*
Y218927D01*
X63610Y214437D01*
Y210383D01*
X64893Y209100D01*
X65607D01*
X68100Y206607D01*
Y196700D01*
X74300Y190500D01*
X98800D01*
X122575Y214275D01*
Y216742D01*
X122935Y217102D01*
Y218298D01*
X122575Y218658D01*
Y219892D01*
X123618Y220935D01*
X124682D01*
X125555Y221808D01*
Y223555D01*
X147600Y245600D01*
X148100D01*
X154158Y251658D01*
X160614D01*
X162816Y253860D01*
X170668D01*
X171308Y254500D01*
X203300D01*
X226310Y277510D01*
X232090D01*
X232318Y277738D01*
Y287772D01*
X232546Y288000D01*
X232867D01*
X233095Y287772D01*
Y277738D01*
X233323Y277510D01*
X233644D01*
X233872Y277738D01*
Y287772D01*
X234100Y288000D01*
X234421D01*
X234649Y287772D01*
Y277738D01*
X234877Y277510D01*
X235198D01*
X235426Y277738D01*
Y287772D01*
X235654Y288000D01*
X235975D01*
X236203Y287772D01*
Y277738D01*
X236431Y277510D01*
X236752D01*
X236980Y277738D01*
Y287772D01*
X237208Y288000D01*
X237529D01*
X237757Y287772D01*
Y277738D01*
X237985Y277510D01*
X247037D01*
X247751Y278224D01*
Y278546D01*
X246460Y279836D01*
Y280158D01*
X246688Y280386D01*
X247010D01*
X248301Y279096D01*
X248623D01*
X248851Y279324D01*
Y279646D01*
X247560Y280936D01*
Y281258D01*
X247788Y281486D01*
X248110D01*
X249401Y280196D01*
X249723D01*
X255152Y285625D01*
X327683D01*
X328593Y286535D01*
Y286558D01*
X331597Y289562D01*
X331747D01*
X332620Y290435D01*
Y290820D01*
X336556Y294756D01*
Y314355D01*
X339345Y317144D01*
X339621D01*
X341451Y318974D01*
Y319251D01*
X343281Y321081D01*
X343558D01*
X345389Y322912D01*
Y323188D01*
X347039Y324838D01*
X370959D01*
X372969Y326848D01*
Y327125D01*
X373842Y327998D01*
X375948D01*
X378395Y330445D01*
G01X67400Y224500D02*
Y222007D01*
X66610Y221217D01*
Y218810D01*
X62833Y215033D01*
Y196567D01*
X73200Y186200D01*
X79700D01*
X81800Y184100D01*
X94633D01*
X109733Y199200D01*
X112693D01*
X121828Y208335D01*
X128400D01*
X129465Y209400D01*
Y223539D01*
X130243Y224317D01*
X130378D01*
X134400Y228339D01*
Y230588D01*
X136200Y232388D01*
X139588D01*
X144510Y237310D01*
Y239617D01*
X145383Y240490D01*
Y241400D01*
X146690Y242707D01*
X149407D01*
X155700Y249000D01*
X222300D01*
X223000Y249700D01*
X226000D01*
X226700Y249000D01*
X228500D01*
X261188Y281688D01*
X265073D01*
X265300Y281915D01*
X266079D01*
X266306Y281688D01*
X266627D01*
X266855Y281916D01*
Y284272D01*
X267083Y284500D01*
X267404D01*
X267632Y284272D01*
Y281916D01*
X267860Y281688D01*
X268181D01*
X268409Y281916D01*
Y284272D01*
X268637Y284500D01*
X268958D01*
X269186Y284272D01*
Y281916D01*
X269414Y281688D01*
X269735D01*
X269963Y281916D01*
Y284272D01*
X270191Y284500D01*
X270512D01*
X270740Y284272D01*
Y281916D01*
X270968Y281688D01*
X271289D01*
X271517Y281916D01*
Y284272D01*
X271745Y284500D01*
X272066D01*
X272294Y284272D01*
Y281916D01*
X272522Y281688D01*
X272843D01*
X273071Y281916D01*
Y284272D01*
X273299Y284500D01*
X273620D01*
X273848Y284272D01*
Y281916D01*
X274076Y281688D01*
X274397D01*
X274625Y281916D01*
Y284272D01*
X274853Y284500D01*
X275174D01*
X275402Y284272D01*
Y281916D01*
X275630Y281688D01*
X275951D01*
X276179Y281916D01*
Y284272D01*
X276407Y284500D01*
X276728D01*
X276956Y284272D01*
Y281916D01*
X277184Y281688D01*
X277505D01*
X277733Y281916D01*
Y284272D01*
X277961Y284500D01*
X278282D01*
X278510Y284272D01*
Y281916D01*
X278738Y281688D01*
X279059D01*
X279287Y281916D01*
Y284272D01*
X279515Y284500D01*
X279836D01*
X280064Y284272D01*
Y281916D01*
X280292Y281688D01*
X280613D01*
X280841Y281916D01*
Y284272D01*
X281069Y284500D01*
X281390D01*
X281618Y284272D01*
Y281916D01*
X281846Y281688D01*
X282167D01*
X282395Y281916D01*
Y284272D01*
X282623Y284500D01*
X282944D01*
X283172Y284272D01*
Y281916D01*
X283400Y281688D01*
X283721D01*
X283949Y281916D01*
Y284272D01*
X284177Y284500D01*
X284498D01*
X284726Y284272D01*
Y281916D01*
X284954Y281688D01*
X285275D01*
X285503Y281916D01*
Y284272D01*
X285731Y284500D01*
X286052D01*
X286280Y284272D01*
Y281916D01*
X286508Y281688D01*
X286829D01*
X287057Y281916D01*
Y284272D01*
X287285Y284500D01*
X287606D01*
X287834Y284272D01*
Y281916D01*
X288062Y281688D01*
X292376D01*
X293333Y282645D01*
Y282922D01*
X295080Y284669D01*
X327808D01*
X328868Y283609D01*
X329655D01*
X329730Y283684D01*
Y283759D01*
X330550Y284579D01*
X330574D01*
X333576Y287581D01*
Y287732D01*
X334449Y288605D01*
X334726D01*
X337514Y291393D01*
Y291669D01*
X338387Y292542D01*
X339871D01*
X341100Y293771D01*
Y314962D01*
X343282Y317144D01*
X343558D01*
X344431Y318017D01*
Y318294D01*
X347218Y321081D01*
X347496D01*
X348369Y321954D01*
Y322232D01*
X350198Y324061D01*
X375948D01*
X378395Y326508D01*
G01X327193Y302886D02*
X326301Y303778D01*
Y304149D01*
X325523Y304927D01*
Y310600D01*
X323523Y312600D01*
X323522D01*
X322916Y313206D01*
X322639D01*
X321766Y314079D01*
Y314356D01*
X319936Y316186D01*
X279409D01*
X270978Y307755D01*
X201355D01*
X197686Y304086D01*
X197364D01*
X191686Y309764D01*
X191364D01*
X191136Y309536D01*
Y309214D01*
X196814Y303536D01*
Y303214D01*
X196586Y302986D01*
X196264D01*
X190586Y308664D01*
X190264D01*
X190036Y308436D01*
Y308114D01*
X195714Y302436D01*
Y302114D01*
X195486Y301886D01*
X195164D01*
X189486Y307564D01*
X189164D01*
X188936Y307336D01*
Y307014D01*
X194614Y301336D01*
Y301014D01*
X194386Y300786D01*
X194064D01*
X188386Y306464D01*
X188064D01*
X187836Y306236D01*
Y305914D01*
X193514Y300236D01*
Y299914D01*
X193286Y299686D01*
X192964D01*
X187286Y305364D01*
X186964D01*
X186736Y305136D01*
Y304814D01*
X192414Y299136D01*
Y298814D01*
X192186Y298586D01*
X191864D01*
X186186Y304264D01*
X185864D01*
X185636Y304036D01*
Y303714D01*
X191314Y298036D01*
Y297714D01*
X191086Y297486D01*
X190764D01*
X185086Y303164D01*
X184764D01*
X184536Y302936D01*
Y302614D01*
X190214Y296936D01*
Y296614D01*
X189986Y296386D01*
X189664D01*
X183986Y302064D01*
X183664D01*
X183436Y301836D01*
Y301514D01*
X189114Y295836D01*
Y295514D01*
X188886Y295286D01*
X188564D01*
X182886Y300964D01*
X182564D01*
X182336Y300736D01*
Y300414D01*
X188014Y294736D01*
Y294414D01*
X187786Y294186D01*
X187464D01*
X181786Y299864D01*
X181464D01*
X181236Y299636D01*
Y299314D01*
X186914Y293636D01*
Y293314D01*
X186686Y293086D01*
X186364D01*
X180686Y298764D01*
X180364D01*
X180136Y298536D01*
Y298214D01*
X185814Y292536D01*
Y292214D01*
X185586Y291986D01*
X185264D01*
X179586Y297664D01*
X179264D01*
X179036Y297436D01*
Y297114D01*
X184714Y291436D01*
Y291114D01*
X182100Y288500D01*
X167001D01*
X162266Y283765D01*
X141865D01*
X125555Y267455D01*
Y265908D01*
X124682Y265035D01*
X123542D01*
X112957Y254450D01*
Y254257D01*
X108800Y250100D01*
X97000D01*
X94600Y247700D01*
Y245600D01*
X86350Y237350D01*
X82823D01*
X81983Y236510D01*
X80183D01*
X78473Y238220D01*
X66520D01*
G01X303571Y302886D02*
X301742D01*
X300251Y301395D01*
X291995D01*
X290700Y300100D01*
X288299D01*
X287789Y299590D01*
X280783D01*
X278476Y297283D01*
X274327D01*
X274099Y297511D01*
Y298172D01*
X273871Y298400D01*
X273550D01*
X273322Y298172D01*
Y297511D01*
X273094Y297283D01*
X272773D01*
X272545Y297511D01*
Y298172D01*
X272317Y298400D01*
X271996D01*
X271768Y298172D01*
Y297511D01*
X271540Y297283D01*
X271219D01*
X270991Y297511D01*
Y298172D01*
X270763Y298400D01*
X270442D01*
X270214Y298172D01*
Y297511D01*
X269986Y297283D01*
X269665D01*
X269437Y297511D01*
Y298172D01*
X269209Y298400D01*
X268888D01*
X268660Y298172D01*
Y297511D01*
X268432Y297283D01*
X268111D01*
X267883Y297511D01*
Y298172D01*
X267655Y298400D01*
X267334D01*
X267106Y298172D01*
Y297511D01*
X266878Y297283D01*
X266557D01*
X266329Y297511D01*
Y298172D01*
X266101Y298400D01*
X265780D01*
X265552Y298172D01*
Y297511D01*
X265324Y297283D01*
X265003D01*
X264775Y297511D01*
Y298172D01*
X264547Y298400D01*
X264226D01*
X263998Y298172D01*
Y297511D01*
X263770Y297283D01*
X263449D01*
X263221Y297511D01*
Y298172D01*
X262993Y298400D01*
X262672D01*
X262444Y298172D01*
Y297511D01*
X262216Y297283D01*
X261895D01*
X261667Y297511D01*
Y298172D01*
X261439Y298400D01*
X261118D01*
X260890Y298172D01*
Y297511D01*
X260662Y297283D01*
X260341D01*
X260113Y297511D01*
Y298172D01*
X259885Y298400D01*
X259564D01*
X259336Y298172D01*
Y297511D01*
X259108Y297283D01*
X258787D01*
X258559Y297511D01*
Y298172D01*
X258331Y298400D01*
X258010D01*
X257782Y298172D01*
Y297511D01*
X257554Y297283D01*
X257233D01*
X257005Y297511D01*
Y298172D01*
X256777Y298400D01*
X256456D01*
X256228Y298172D01*
Y297511D01*
X256000Y297283D01*
X255679D01*
X255451Y297511D01*
Y298172D01*
X255223Y298400D01*
X254902D01*
X254674Y298172D01*
Y297511D01*
X254446Y297283D01*
X254125D01*
X253897Y297511D01*
Y298172D01*
X253669Y298400D01*
X253348D01*
X253120Y298172D01*
Y297511D01*
X252892Y297283D01*
X252571D01*
X252343Y297511D01*
Y298172D01*
X252115Y298400D01*
X251794D01*
X251566Y298172D01*
Y297511D01*
X251338Y297283D01*
X251017D01*
X250789Y297511D01*
Y298172D01*
X250561Y298400D01*
X250240D01*
X250012Y298172D01*
Y297511D01*
X249784Y297283D01*
X249463D01*
X249235Y297511D01*
Y298172D01*
X249007Y298400D01*
X248686D01*
X248458Y298172D01*
Y297511D01*
X248230Y297283D01*
X247909D01*
X247681Y297511D01*
Y298172D01*
X247453Y298400D01*
X247132D01*
X246904Y298172D01*
Y297511D01*
X246676Y297283D01*
X245224D01*
X244117Y298390D01*
X225390D01*
X223529Y296529D01*
Y296207D01*
X224057Y295679D01*
Y295357D01*
X223829Y295129D01*
X223507D01*
X222979Y295657D01*
X222657D01*
X222429Y295429D01*
Y295107D01*
X222957Y294579D01*
Y294257D01*
X222729Y294029D01*
X222407D01*
X221879Y294557D01*
X221557D01*
X221329Y294329D01*
Y294007D01*
X221857Y293479D01*
Y293157D01*
X221629Y292929D01*
X221307D01*
X220779Y293457D01*
X220457D01*
X220229Y293229D01*
Y292907D01*
X220757Y292379D01*
Y292057D01*
X220529Y291829D01*
X220207D01*
X219679Y292357D01*
X219357D01*
X219129Y292129D01*
Y291807D01*
X219657Y291279D01*
Y290957D01*
X219429Y290729D01*
X219107D01*
X218579Y291257D01*
X218257D01*
X218029Y291029D01*
Y290707D01*
X218557Y290179D01*
Y289857D01*
X218329Y289629D01*
X218007D01*
X217479Y290157D01*
X217157D01*
X216929Y289929D01*
Y289607D01*
X217457Y289079D01*
Y288757D01*
X217229Y288529D01*
X216907D01*
X216379Y289057D01*
X216057D01*
X215829Y288829D01*
Y288507D01*
X216357Y287979D01*
Y287657D01*
X216129Y287429D01*
X215807D01*
X215279Y287957D01*
X214957D01*
X214729Y287729D01*
Y287407D01*
X215257Y286879D01*
Y286557D01*
X215029Y286329D01*
X214707D01*
X214179Y286857D01*
X213857D01*
X213629Y286629D01*
Y286307D01*
X214157Y285779D01*
Y285457D01*
X213929Y285229D01*
X213607D01*
X213079Y285757D01*
X212757D01*
X212529Y285529D01*
Y285207D01*
X213057Y284679D01*
Y284357D01*
X212829Y284129D01*
X212507D01*
X211979Y284657D01*
X211657D01*
X211429Y284429D01*
Y284107D01*
X211957Y283579D01*
Y283257D01*
X211729Y283029D01*
X211407D01*
X210879Y283557D01*
X210557D01*
X210329Y283329D01*
Y283007D01*
X210857Y282479D01*
Y282157D01*
X210629Y281929D01*
X210307D01*
X209779Y282457D01*
X209457D01*
X208568Y281568D01*
X206961D01*
X206733Y281340D01*
Y280828D01*
X206505Y280600D01*
X206184D01*
X205956Y280828D01*
Y281340D01*
X205728Y281568D01*
X205407D01*
X205179Y281340D01*
Y280828D01*
X204951Y280600D01*
X204630D01*
X204402Y280828D01*
Y281340D01*
X204174Y281568D01*
X203853D01*
X203625Y281340D01*
Y280828D01*
X203397Y280600D01*
X203076D01*
X202848Y280828D01*
Y281340D01*
X202620Y281568D01*
X202299D01*
X202071Y281340D01*
Y280828D01*
X201843Y280600D01*
X201522D01*
X201294Y280828D01*
Y281340D01*
X201066Y281568D01*
X200745D01*
X200517Y281340D01*
Y280828D01*
X200289Y280600D01*
X199968D01*
X199740Y280828D01*
Y281340D01*
X199512Y281568D01*
X199191D01*
X198963Y281340D01*
Y280828D01*
X198735Y280600D01*
X198414D01*
X198186Y280828D01*
Y281340D01*
X197958Y281568D01*
X197637D01*
X197409Y281340D01*
Y280828D01*
X197181Y280600D01*
X196860D01*
X196632Y280828D01*
Y281340D01*
X196404Y281568D01*
X196083D01*
X195855Y281340D01*
Y280828D01*
X195627Y280600D01*
X195306D01*
X195078Y280828D01*
Y281340D01*
X194850Y281568D01*
X194529D01*
X194301Y281340D01*
Y280828D01*
X194073Y280600D01*
X193752D01*
X193524Y280828D01*
Y281340D01*
X193296Y281568D01*
X190367D01*
X189494Y280695D01*
Y280373D01*
X191472Y278396D01*
Y278074D01*
X191244Y277846D01*
X190922D01*
X188944Y279823D01*
X188622D01*
X188394Y279595D01*
Y279273D01*
X190372Y277296D01*
Y276974D01*
X190144Y276746D01*
X189822D01*
X187844Y278723D01*
X187522D01*
X187294Y278495D01*
Y278173D01*
X189272Y276196D01*
Y275874D01*
X189044Y275646D01*
X188722D01*
X186744Y277623D01*
X186422D01*
X186194Y277395D01*
Y277073D01*
X188172Y275096D01*
Y274774D01*
X187944Y274546D01*
X187622D01*
X185644Y276523D01*
X185322D01*
X185094Y276295D01*
Y275973D01*
X187072Y273996D01*
Y273674D01*
X186844Y273446D01*
X186522D01*
X184544Y275423D01*
X184222D01*
X183994Y275195D01*
Y274873D01*
X185972Y272896D01*
Y272574D01*
X185744Y272346D01*
X185422D01*
X183444Y274323D01*
X183122D01*
X182894Y274095D01*
Y273773D01*
X184872Y271796D01*
Y271474D01*
X184644Y271246D01*
X184322D01*
X182344Y273223D01*
X182022D01*
X181794Y272995D01*
Y272673D01*
X183772Y270696D01*
Y270374D01*
X183544Y270146D01*
X183222D01*
X181244Y272123D01*
X180922D01*
X180694Y271895D01*
Y271573D01*
X182672Y269596D01*
Y269274D01*
X182444Y269046D01*
X182122D01*
X180144Y271023D01*
X179822D01*
X179594Y270795D01*
Y270473D01*
X181572Y268496D01*
Y268174D01*
X181344Y267946D01*
X181022D01*
X179044Y269923D01*
X178722D01*
X178494Y269695D01*
Y269373D01*
X180472Y267396D01*
Y267074D01*
X180244Y266846D01*
X179922D01*
X177944Y268823D01*
X177622D01*
X170684Y261885D01*
X158072D01*
X157844Y261657D01*
Y256728D01*
X157616Y256500D01*
X157295D01*
X157067Y256728D01*
Y261657D01*
X156839Y261885D01*
X156518D01*
X156290Y261657D01*
Y256728D01*
X156062Y256500D01*
X155741D01*
X155513Y256728D01*
Y261657D01*
X155285Y261885D01*
X154964D01*
X154736Y261657D01*
Y256728D01*
X154508Y256500D01*
X154187D01*
X153959Y256728D01*
Y261657D01*
X153731Y261885D01*
X153410D01*
X153182Y261657D01*
Y256728D01*
X152954Y256500D01*
X152633D01*
X152405Y256728D01*
Y261657D01*
X152177Y261885D01*
X151856D01*
X151628Y261657D01*
Y256728D01*
X151400Y256500D01*
X151079D01*
X150851Y256728D01*
Y261657D01*
X150623Y261885D01*
X150302D01*
X150074Y261657D01*
Y256728D01*
X149846Y256500D01*
X149525D01*
X149297Y256728D01*
Y261657D01*
X149069Y261885D01*
X148748D01*
X148520Y261657D01*
Y256728D01*
X148292Y256500D01*
X147971D01*
X147743Y256728D01*
Y261657D01*
X147515Y261885D01*
X147194D01*
X146966Y261657D01*
Y256728D01*
X146738Y256500D01*
X146417D01*
X146189Y256728D01*
Y261657D01*
X145961Y261885D01*
X144785D01*
X137390Y254490D01*
X137383D01*
X136510Y253617D01*
Y252210D01*
X122600Y238300D01*
Y237300D01*
X101910Y216610D01*
Y212803D01*
X101037Y211930D01*
X97230D01*
X84700Y199400D01*
X81453D01*
X80730Y198677D01*
Y197443D01*
X79857Y196570D01*
X78623D01*
X78193Y197000D01*
X75799D01*
X75400Y197399D01*
Y202600D01*
X80000Y207200D01*
G01X311445Y310760D02*
X310714D01*
X308446Y308492D01*
X286699D01*
X280497Y302290D01*
X240661D01*
X240651Y302300D01*
X221499D01*
X219349Y300150D01*
X219027D01*
X217250Y301926D01*
X216928D01*
X216700Y301698D01*
Y301376D01*
X218477Y299600D01*
Y299278D01*
X218249Y299050D01*
X217927D01*
X216150Y300826D01*
X215828D01*
X215600Y300598D01*
Y300276D01*
X217377Y298500D01*
Y298178D01*
X217149Y297950D01*
X216827D01*
X215050Y299726D01*
X214728D01*
X214500Y299498D01*
Y299176D01*
X216277Y297400D01*
Y297078D01*
X216049Y296850D01*
X215727D01*
X213950Y298626D01*
X213628D01*
X213400Y298398D01*
Y298076D01*
X215177Y296300D01*
Y295978D01*
X214949Y295750D01*
X214627D01*
X212850Y297526D01*
X212528D01*
X212300Y297298D01*
Y296976D01*
X214077Y295200D01*
Y294878D01*
X213849Y294650D01*
X213527D01*
X211750Y296426D01*
X211428D01*
X211200Y296198D01*
Y295876D01*
X212977Y294100D01*
Y293778D01*
X212749Y293550D01*
X212427D01*
X210650Y295326D01*
X210328D01*
X210100Y295098D01*
Y294776D01*
X211877Y293000D01*
Y292678D01*
X211649Y292450D01*
X211327D01*
X209550Y294226D01*
X209228D01*
X209000Y293998D01*
Y293676D01*
X210777Y291900D01*
Y291578D01*
X210549Y291350D01*
X210227D01*
X208450Y293126D01*
X208128D01*
X207900Y292898D01*
Y292576D01*
X209677Y290800D01*
Y290478D01*
X209449Y290250D01*
X209127D01*
X207350Y292026D01*
X207028D01*
X206800Y291798D01*
Y291476D01*
X208577Y289700D01*
Y289378D01*
X208349Y289150D01*
X208027D01*
X206250Y290926D01*
X205928D01*
X205700Y290698D01*
Y290376D01*
X207477Y288600D01*
Y288278D01*
X207249Y288050D01*
X206927D01*
X205150Y289826D01*
X204828D01*
X204600Y289598D01*
Y289276D01*
X206377Y287500D01*
Y287178D01*
X206149Y286950D01*
X205827D01*
X204050Y288726D01*
X203728D01*
X203500Y288498D01*
Y288176D01*
X205277Y286400D01*
Y286078D01*
X205049Y285850D01*
X204727D01*
X202950Y287626D01*
X202628D01*
X202400Y287398D01*
Y287076D01*
X204177Y285300D01*
Y284978D01*
X203949Y284750D01*
X203627D01*
X201850Y286526D01*
X201528D01*
X201300Y286298D01*
Y285976D01*
X203077Y284200D01*
Y283878D01*
X202322Y283123D01*
X189724D01*
X177766Y271165D01*
X176316D01*
X176088Y271393D01*
Y276472D01*
X175860Y276700D01*
X175539D01*
X175311Y276472D01*
Y271393D01*
X175083Y271165D01*
X174762D01*
X174534Y271393D01*
Y276472D01*
X174306Y276700D01*
X173985D01*
X173757Y276472D01*
Y271393D01*
X173529Y271165D01*
X173208D01*
X172980Y271393D01*
Y276472D01*
X172752Y276700D01*
X172431D01*
X172203Y276472D01*
Y271393D01*
X171975Y271165D01*
X167060D01*
X166832Y271393D01*
Y276272D01*
X166604Y276500D01*
X166283D01*
X166055Y276272D01*
Y271393D01*
X165827Y271165D01*
X165506D01*
X165278Y271393D01*
Y276272D01*
X165050Y276500D01*
X164729D01*
X164501Y276272D01*
Y271393D01*
X164273Y271165D01*
X163952D01*
X163724Y271393D01*
Y276272D01*
X163496Y276500D01*
X163175D01*
X162947Y276272D01*
Y271393D01*
X162719Y271165D01*
X162398D01*
X162170Y271393D01*
Y276272D01*
X161942Y276500D01*
X161621D01*
X161393Y276272D01*
Y271393D01*
X161165Y271165D01*
X156695D01*
X156467Y271393D01*
Y275772D01*
X156239Y276000D01*
X155918D01*
X155690Y275772D01*
Y271393D01*
X155462Y271165D01*
X155141D01*
X154913Y271393D01*
Y275772D01*
X154685Y276000D01*
X154364D01*
X154136Y275772D01*
Y271393D01*
X153908Y271165D01*
X153587D01*
X153359Y271393D01*
Y275772D01*
X153131Y276000D01*
X152810D01*
X152582Y275772D01*
Y271393D01*
X152354Y271165D01*
X152033D01*
X151805Y271393D01*
Y275772D01*
X151577Y276000D01*
X151256D01*
X151028Y275772D01*
Y271393D01*
X150800Y271165D01*
X148965D01*
X140265Y262465D01*
Y261108D01*
X134859Y255702D01*
X134537D01*
X133232Y257008D01*
X132910D01*
X132682Y256780D01*
Y256458D01*
X133987Y255152D01*
Y254830D01*
X133759Y254602D01*
X133437D01*
X132132Y255908D01*
X131810D01*
X131582Y255680D01*
Y255358D01*
X132887Y254052D01*
Y253730D01*
X132659Y253502D01*
X132337D01*
X131032Y254808D01*
X130710D01*
X130482Y254580D01*
Y254258D01*
X131787Y252952D01*
Y252630D01*
X131559Y252402D01*
X131237D01*
X129932Y253708D01*
X129610D01*
X129382Y253480D01*
Y253158D01*
X130687Y251852D01*
Y251530D01*
X130459Y251302D01*
X130137D01*
X128832Y252608D01*
X128510D01*
X128282Y252380D01*
Y252058D01*
X129587Y250752D01*
Y250430D01*
X129359Y250202D01*
X129037D01*
X127732Y251508D01*
X127410D01*
X127182Y251280D01*
Y250958D01*
X128487Y249652D01*
Y249330D01*
X128259Y249102D01*
X127937D01*
X126632Y250408D01*
X126310D01*
X126082Y250180D01*
Y249858D01*
X127387Y248552D01*
Y248230D01*
X127159Y248002D01*
X126837D01*
X125532Y249308D01*
X125210D01*
X124982Y249080D01*
Y248758D01*
X126287Y247452D01*
Y247130D01*
X126059Y246902D01*
X125737D01*
X124432Y248208D01*
X124110D01*
X123882Y247980D01*
Y247658D01*
X125187Y246352D01*
Y246030D01*
X123457Y244300D01*
X120500D01*
X113730Y237530D01*
Y236423D01*
X106200Y228893D01*
Y226493D01*
X100817Y221110D01*
X98203D01*
X95210Y218117D01*
Y218110D01*
X82250Y205150D01*
G01X79190Y202790D02*
X80103D01*
X81883Y201010D01*
X83310D01*
X85640Y203340D01*
Y203662D01*
X84062Y205240D01*
Y205562D01*
X84290Y205790D01*
X84612D01*
X86190Y204212D01*
X86512D01*
X86740Y204440D01*
Y204762D01*
X85162Y206340D01*
Y206662D01*
X85390Y206890D01*
X85712D01*
X87290Y205312D01*
X87612D01*
X87840Y205540D01*
Y205862D01*
X86262Y207440D01*
Y207762D01*
X86490Y207990D01*
X86812D01*
X88390Y206412D01*
X88712D01*
X88940Y206640D01*
Y206962D01*
X87362Y208540D01*
Y208862D01*
X87590Y209090D01*
X87912D01*
X89490Y207512D01*
X89812D01*
X90040Y207740D01*
Y208062D01*
X88462Y209640D01*
Y209962D01*
X88690Y210190D01*
X89012D01*
X90590Y208612D01*
X90912D01*
X91140Y208840D01*
Y209162D01*
X89562Y210740D01*
Y211062D01*
X89790Y211290D01*
X90112D01*
X91690Y209712D01*
X92012D01*
X92240Y209940D01*
Y210262D01*
X90662Y211840D01*
Y212162D01*
X90890Y212390D01*
X91212D01*
X92790Y210812D01*
X93112D01*
X93340Y211040D01*
Y211362D01*
X91762Y212940D01*
Y213262D01*
X91990Y213490D01*
X92312D01*
X93890Y211912D01*
X94212D01*
X94440Y212140D01*
Y212462D01*
X92862Y214040D01*
Y214362D01*
X93090Y214590D01*
X93412D01*
X94990Y213012D01*
X95312D01*
X95540Y213240D01*
Y213562D01*
X93962Y215140D01*
Y215462D01*
X94190Y215690D01*
X94512D01*
X96090Y214112D01*
X96412D01*
X99010Y216710D01*
Y219217D01*
X100126Y220333D01*
X101139D01*
X110560Y229754D01*
Y230567D01*
X111433Y231440D01*
X113940D01*
X114492Y231992D01*
Y232314D01*
X113114Y233692D01*
Y234014D01*
X113342Y234242D01*
X113664D01*
X115042Y232864D01*
X115364D01*
X115592Y233092D01*
Y233414D01*
X114214Y234792D01*
Y235114D01*
X114442Y235342D01*
X114764D01*
X116142Y233964D01*
X116464D01*
X116692Y234192D01*
Y234514D01*
X115314Y235892D01*
Y236214D01*
X115542Y236442D01*
X115864D01*
X117242Y235064D01*
X117564D01*
X117792Y235292D01*
Y235614D01*
X116414Y236992D01*
Y237314D01*
X116642Y237542D01*
X116964D01*
X118342Y236164D01*
X118664D01*
X118892Y236392D01*
Y236714D01*
X117514Y238092D01*
Y238414D01*
X117742Y238642D01*
X118064D01*
X119442Y237264D01*
X119764D01*
X121717Y239217D01*
Y240217D01*
X125628Y244128D01*
Y244450D01*
X125329Y244749D01*
Y245071D01*
X125557Y245299D01*
X125879D01*
X126178Y245000D01*
X126500D01*
X126728Y245228D01*
Y245550D01*
X126429Y245849D01*
Y246171D01*
X126657Y246399D01*
X126979D01*
X127278Y246100D01*
X127600D01*
X127828Y246328D01*
Y246650D01*
X127529Y246949D01*
Y247271D01*
X127757Y247499D01*
X128079D01*
X128378Y247200D01*
X128700D01*
X128928Y247428D01*
Y247750D01*
X128629Y248049D01*
Y248371D01*
X128857Y248599D01*
X129179D01*
X129478Y248300D01*
X129800D01*
X130028Y248528D01*
Y248850D01*
X129729Y249149D01*
Y249471D01*
X129957Y249699D01*
X130279D01*
X130578Y249400D01*
X130900D01*
X131128Y249628D01*
Y249950D01*
X130829Y250249D01*
Y250571D01*
X131057Y250799D01*
X131379D01*
X131678Y250500D01*
X132000D01*
X132228Y250728D01*
Y251050D01*
X131929Y251349D01*
Y251671D01*
X132157Y251899D01*
X132479D01*
X132778Y251600D01*
X133100D01*
X133328Y251828D01*
Y252150D01*
X133029Y252449D01*
Y252771D01*
X133257Y252999D01*
X133579D01*
X133878Y252700D01*
X134200D01*
X134428Y252928D01*
Y253250D01*
X134129Y253549D01*
Y253871D01*
X134357Y254099D01*
X134679D01*
X134978Y253800D01*
X135300D01*
X135528Y254028D01*
Y254350D01*
X135229Y254649D01*
Y254971D01*
X135457Y255199D01*
X135779D01*
X136078Y254900D01*
X136400D01*
X136628Y255128D01*
Y255450D01*
X136329Y255749D01*
Y256071D01*
X136557Y256299D01*
X136879D01*
X137178Y256000D01*
X137500D01*
X137728Y256228D01*
Y256550D01*
X137429Y256849D01*
Y257171D01*
X137657Y257399D01*
X137979D01*
X138278Y257100D01*
X138600D01*
X138828Y257328D01*
Y257650D01*
X138529Y257949D01*
Y258271D01*
X138757Y258499D01*
X139079D01*
X139378Y258200D01*
X139700D01*
X139928Y258428D01*
Y258750D01*
X139629Y259049D01*
Y259371D01*
X139857Y259599D01*
X140179D01*
X140478Y259300D01*
X140800D01*
X141028Y259528D01*
Y259850D01*
X140729Y260149D01*
Y260471D01*
X140957Y260699D01*
X141279D01*
X141578Y260400D01*
X141900D01*
X142128Y260628D01*
Y260950D01*
X141829Y261249D01*
Y261571D01*
X142057Y261799D01*
X142379D01*
X142678Y261500D01*
X143000D01*
X143228Y261728D01*
Y262050D01*
X142929Y262349D01*
Y262671D01*
X143157Y262899D01*
X143479D01*
X143778Y262600D01*
X144100D01*
X144328Y262828D01*
Y263150D01*
X144029Y263449D01*
Y263771D01*
X144257Y263999D01*
X144579D01*
X144878Y263700D01*
X145200D01*
X145428Y263928D01*
Y264250D01*
X145129Y264549D01*
Y264871D01*
X145357Y265099D01*
X145679D01*
X145978Y264800D01*
X146300D01*
X146528Y265028D01*
Y265350D01*
X146229Y265649D01*
Y265971D01*
X146457Y266199D01*
X146779D01*
X147078Y265900D01*
X147400D01*
X147628Y266128D01*
Y266450D01*
X147329Y266749D01*
Y267071D01*
X147557Y267299D01*
X147879D01*
X148178Y267000D01*
X148500D01*
X149515Y268015D01*
X150691D01*
X150919Y268243D01*
Y270072D01*
X151147Y270300D01*
X151468D01*
X151696Y270072D01*
Y268243D01*
X151924Y268015D01*
X152245D01*
X152473Y268243D01*
Y270072D01*
X152701Y270300D01*
X153022D01*
X153250Y270072D01*
Y268243D01*
X153478Y268015D01*
X153799D01*
X154027Y268243D01*
Y270072D01*
X154255Y270300D01*
X154576D01*
X154804Y270072D01*
Y268243D01*
X155032Y268015D01*
X155353D01*
X155581Y268243D01*
Y270072D01*
X155809Y270300D01*
X156130D01*
X156358Y270072D01*
Y268243D01*
X156586Y268015D01*
X156907D01*
X157135Y268243D01*
Y270072D01*
X157363Y270300D01*
X157684D01*
X157912Y270072D01*
Y268243D01*
X158140Y268015D01*
X158461D01*
X158689Y268243D01*
Y270072D01*
X158917Y270300D01*
X159238D01*
X159466Y270072D01*
Y268243D01*
X159694Y268015D01*
X161858D01*
X162028Y268185D01*
X164533D01*
X164761Y267957D01*
Y264128D01*
X164989Y263900D01*
X165310D01*
X165538Y264128D01*
Y267957D01*
X165766Y268185D01*
X166087D01*
X166315Y267957D01*
Y264128D01*
X166543Y263900D01*
X166864D01*
X167092Y264128D01*
Y267957D01*
X167320Y268185D01*
X167641D01*
X167869Y267957D01*
Y264128D01*
X168097Y263900D01*
X168418D01*
X168646Y264128D01*
Y267957D01*
X168874Y268185D01*
X169195D01*
X169423Y267957D01*
Y264128D01*
X169651Y263900D01*
X169972D01*
X170200Y264128D01*
Y267957D01*
X170428Y268185D01*
X174485D01*
X175600Y269300D01*
X177000D01*
X190045Y282345D01*
X203545D01*
X205654Y284454D01*
X205976D01*
X207604Y282826D01*
X207926D01*
X208154Y283054D01*
Y283376D01*
X206526Y285004D01*
Y285326D01*
X206754Y285554D01*
X207076D01*
X208704Y283926D01*
X209026D01*
X209254Y284154D01*
Y284476D01*
X207626Y286104D01*
Y286426D01*
X207854Y286654D01*
X208176D01*
X209804Y285026D01*
X210126D01*
X210354Y285254D01*
Y285576D01*
X208726Y287204D01*
Y287526D01*
X208954Y287754D01*
X209276D01*
X210904Y286126D01*
X211226D01*
X211454Y286354D01*
Y286676D01*
X209826Y288304D01*
Y288626D01*
X210054Y288854D01*
X210376D01*
X212004Y287226D01*
X212326D01*
X212554Y287454D01*
Y287776D01*
X210926Y289404D01*
Y289726D01*
X211154Y289954D01*
X211476D01*
X213104Y288326D01*
X213426D01*
X213654Y288554D01*
Y288876D01*
X212026Y290504D01*
Y290826D01*
X212254Y291054D01*
X212576D01*
X214204Y289426D01*
X214526D01*
X214754Y289654D01*
Y289976D01*
X213126Y291604D01*
Y291926D01*
X213354Y292154D01*
X213676D01*
X215304Y290526D01*
X215626D01*
X215854Y290754D01*
Y291076D01*
X214226Y292704D01*
Y293026D01*
X214454Y293254D01*
X214776D01*
X216404Y291626D01*
X216726D01*
X216954Y291854D01*
Y292176D01*
X215326Y293804D01*
Y294126D01*
X215554Y294354D01*
X215876D01*
X217504Y292726D01*
X217826D01*
X218054Y292954D01*
Y293276D01*
X216426Y294904D01*
Y295226D01*
X216654Y295454D01*
X216976D01*
X218604Y293826D01*
X218926D01*
X219154Y294054D01*
Y294376D01*
X217526Y296004D01*
Y296326D01*
X217754Y296554D01*
X218076D01*
X219704Y294926D01*
X220026D01*
X220254Y295154D01*
Y295476D01*
X218626Y297104D01*
Y297426D01*
X218854Y297654D01*
X219176D01*
X220804Y296026D01*
X221126D01*
X221354Y296254D01*
Y296576D01*
X219726Y298204D01*
Y298526D01*
X220510Y299310D01*
X277517D01*
X278907Y300700D01*
X283300D01*
X287200Y304600D01*
X313667D01*
X313892Y304375D01*
Y302268D01*
X314765Y301395D01*
X316871D01*
X319319Y298948D01*
G01X366586Y247744D02*
Y246686D01*
X365096Y245196D01*
Y208081D01*
X364296Y207281D01*
Y158496D01*
X358725Y152925D01*
Y107075D01*
X354569Y102919D01*
X304284D01*
X303939Y103264D01*
X179858D01*
X167200Y90606D01*
Y88534D01*
X130467Y51801D01*
X110795D01*
X103036Y44042D01*
Y13570D01*
X104589Y12017D01*
Y11311D01*
X106000Y9900D01*
G01X109000Y21900D02*
X103811Y27089D01*
Y39417D01*
X112548Y48154D01*
X131160D01*
X185495Y102489D01*
X303617D01*
X303962Y102144D01*
X354891D01*
X359500Y106753D01*
Y123850D01*
X362191Y126541D01*
X362465D01*
X363337Y127413D01*
Y127688D01*
X366126Y130477D01*
X366402D01*
X368074Y132149D01*
Y240487D01*
X366586Y241975D01*
Y243807D01*
G01X331130Y306822D02*
Y306095D01*
X328862Y303827D01*
Y302162D01*
X328096Y301396D01*
X326073D01*
X325524Y301945D01*
Y303827D01*
X324746Y304605D01*
Y307439D01*
X323873Y308312D01*
X323000D01*
X320808Y310504D01*
Y311376D01*
X319935Y312249D01*
X319551D01*
X318773Y313027D01*
X283327D01*
X276400Y306100D01*
X211500D01*
X206251Y300851D01*
X205929D01*
X201151Y305629D01*
X200829D01*
X200601Y305401D01*
Y305079D01*
X205379Y300301D01*
Y299979D01*
X205151Y299751D01*
X204829D01*
X200051Y304529D01*
X199729D01*
X199501Y304301D01*
Y303979D01*
X204279Y299201D01*
Y298879D01*
X204051Y298651D01*
X203729D01*
X198951Y303429D01*
X198629D01*
X198401Y303201D01*
Y302879D01*
X203179Y298101D01*
Y297779D01*
X202951Y297551D01*
X202629D01*
X197851Y302329D01*
X197529D01*
X197301Y302101D01*
Y301779D01*
X202079Y297001D01*
Y296679D01*
X201851Y296451D01*
X201529D01*
X196751Y301229D01*
X196429D01*
X196201Y301001D01*
Y300679D01*
X200979Y295901D01*
Y295579D01*
X200751Y295351D01*
X200429D01*
X195651Y300129D01*
X195329D01*
X195101Y299901D01*
Y299579D01*
X199879Y294801D01*
Y294479D01*
X199651Y294251D01*
X199329D01*
X194551Y299029D01*
X194229D01*
X194001Y298801D01*
Y298479D01*
X198779Y293701D01*
Y293379D01*
X198551Y293151D01*
X198229D01*
X193451Y297929D01*
X193129D01*
X192901Y297701D01*
Y297379D01*
X197679Y292601D01*
Y292279D01*
X197451Y292051D01*
X197129D01*
X192351Y296829D01*
X192029D01*
X191801Y296601D01*
Y296279D01*
X196579Y291501D01*
Y291179D01*
X196351Y290951D01*
X196029D01*
X191251Y295729D01*
X190929D01*
X190701Y295501D01*
Y295179D01*
X195479Y290401D01*
Y290079D01*
X195251Y289851D01*
X194929D01*
X190151Y294629D01*
X189829D01*
X189601Y294401D01*
Y294079D01*
X194379Y289301D01*
Y288979D01*
X194151Y288751D01*
X193829D01*
X189051Y293529D01*
X188729D01*
X188501Y293301D01*
Y292979D01*
X193279Y288201D01*
Y287879D01*
X193051Y287651D01*
X192729D01*
X187951Y292429D01*
X187629D01*
X187401Y292201D01*
Y291879D01*
X192179Y287101D01*
Y286779D01*
X190500Y285100D01*
X166700D01*
X161700Y280100D01*
X145100D01*
X139910Y274910D01*
X139610D01*
X122000Y257300D01*
Y257200D01*
X98800Y234000D01*
Y230599D01*
X99599Y229800D01*
X102901D01*
X110750Y237649D01*
Y237657D01*
X111623Y238530D01*
X111631D01*
X119700Y246599D01*
Y248400D01*
G01X100500Y231700D02*
X120283Y251483D01*
X125183D01*
X151335Y277635D01*
X182435D01*
X188700Y283900D01*
X197700D01*
X198847Y285047D01*
Y285369D01*
X195620Y288596D01*
Y288918D01*
X195848Y289146D01*
X196170D01*
X199397Y285919D01*
X199719D01*
X199947Y286147D01*
Y286469D01*
X196720Y289696D01*
Y290018D01*
X196948Y290246D01*
X197270D01*
X200497Y287019D01*
X200819D01*
X201047Y287247D01*
Y287569D01*
X197820Y290796D01*
Y291118D01*
X198048Y291346D01*
X198370D01*
X201597Y288119D01*
X201919D01*
X202147Y288347D01*
Y288669D01*
X198920Y291896D01*
Y292218D01*
X199148Y292446D01*
X199470D01*
X202697Y289219D01*
X203019D01*
X203247Y289447D01*
Y289769D01*
X200020Y292996D01*
Y293318D01*
X200248Y293546D01*
X200570D01*
X203797Y290319D01*
X204119D01*
X204347Y290547D01*
Y290869D01*
X201120Y294096D01*
Y294418D01*
X201348Y294646D01*
X201670D01*
X204897Y291419D01*
X205219D01*
X205447Y291647D01*
Y291969D01*
X202220Y295196D01*
Y295518D01*
X202448Y295746D01*
X202770D01*
X205997Y292519D01*
X206319D01*
X206547Y292747D01*
Y293069D01*
X203320Y296296D01*
Y296618D01*
X203548Y296846D01*
X203870D01*
X207097Y293619D01*
X207419D01*
X207647Y293847D01*
Y294169D01*
X204420Y297396D01*
Y297718D01*
X204648Y297946D01*
X204970D01*
X208197Y294719D01*
X208519D01*
X208747Y294947D01*
Y295269D01*
X205520Y298496D01*
Y298818D01*
X205748Y299046D01*
X206070D01*
X209297Y295819D01*
X209619D01*
X209847Y296047D01*
Y296369D01*
X206620Y299596D01*
Y299918D01*
X206848Y300146D01*
X207170D01*
X210397Y296919D01*
X210719D01*
X210947Y297147D01*
Y297469D01*
X207720Y300696D01*
Y301018D01*
X207948Y301246D01*
X208270D01*
X211497Y298019D01*
X211819D01*
X212047Y298247D01*
Y298569D01*
X208820Y301796D01*
Y302118D01*
X209048Y302346D01*
X209370D01*
X212597Y299119D01*
X212919D01*
X213147Y299347D01*
Y299669D01*
X209920Y302896D01*
Y303218D01*
X210148Y303446D01*
X210470D01*
X213697Y300219D01*
X214019D01*
X214247Y300447D01*
Y300769D01*
X211020Y303996D01*
Y304318D01*
X211248Y304546D01*
X211570D01*
X214797Y301319D01*
X215119D01*
X217200Y303400D01*
X218785D01*
X219013Y303628D01*
Y304772D01*
X219241Y305000D01*
X219562D01*
X219790Y304772D01*
Y303628D01*
X220018Y303400D01*
X220339D01*
X220567Y303628D01*
Y304772D01*
X220795Y305000D01*
X221116D01*
X221344Y304772D01*
Y303628D01*
X221572Y303400D01*
X221893D01*
X222121Y303628D01*
Y304772D01*
X222349Y305000D01*
X222670D01*
X222898Y304772D01*
Y303628D01*
X223126Y303400D01*
X223447D01*
X223675Y303628D01*
Y304772D01*
X223903Y305000D01*
X224224D01*
X224452Y304772D01*
Y303628D01*
X224680Y303400D01*
X225001D01*
X225229Y303628D01*
Y304772D01*
X225457Y305000D01*
X225778D01*
X226006Y304772D01*
Y303628D01*
X226234Y303400D01*
X226555D01*
X226783Y303628D01*
Y304772D01*
X227011Y305000D01*
X227332D01*
X227560Y304772D01*
Y303628D01*
X227788Y303400D01*
X228109D01*
X228337Y303628D01*
Y304772D01*
X228565Y305000D01*
X228886D01*
X229114Y304772D01*
Y303628D01*
X229342Y303400D01*
X229663D01*
X229891Y303628D01*
Y304772D01*
X230119Y305000D01*
X230440D01*
X230668Y304772D01*
Y303628D01*
X230896Y303400D01*
X231217D01*
X231445Y303628D01*
Y304772D01*
X231673Y305000D01*
X231994D01*
X232222Y304772D01*
Y303628D01*
X232450Y303400D01*
X232771D01*
X232999Y303628D01*
Y304772D01*
X233227Y305000D01*
X233548D01*
X233776Y304772D01*
Y303628D01*
X234004Y303400D01*
X234325D01*
X234553Y303628D01*
Y304772D01*
X234781Y305000D01*
X235102D01*
X235330Y304772D01*
Y303628D01*
X235558Y303400D01*
X235879D01*
X236107Y303628D01*
Y304772D01*
X236335Y305000D01*
X236656D01*
X236884Y304772D01*
Y303628D01*
X237112Y303400D01*
X237433D01*
X237661Y303628D01*
Y304772D01*
X237889Y305000D01*
X238210D01*
X238438Y304772D01*
Y303628D01*
X238666Y303400D01*
X238987D01*
X239215Y303628D01*
Y304772D01*
X239443Y305000D01*
X239764D01*
X239992Y304772D01*
Y303628D01*
X240220Y303400D01*
X240541D01*
X240769Y303628D01*
Y304772D01*
X240997Y305000D01*
X241318D01*
X241546Y304772D01*
Y303628D01*
X241774Y303400D01*
X242095D01*
X242323Y303628D01*
Y304772D01*
X242551Y305000D01*
X242872D01*
X243100Y304772D01*
Y303628D01*
X243328Y303400D01*
X243649D01*
X243877Y303628D01*
Y304772D01*
X244105Y305000D01*
X244426D01*
X244654Y304772D01*
Y303628D01*
X244882Y303400D01*
X245203D01*
X245431Y303628D01*
Y304772D01*
X245659Y305000D01*
X245980D01*
X246208Y304772D01*
Y303628D01*
X246436Y303400D01*
X246757D01*
X246985Y303628D01*
Y304772D01*
X247213Y305000D01*
X247534D01*
X247762Y304772D01*
Y303628D01*
X247990Y303400D01*
X248311D01*
X248539Y303628D01*
Y304772D01*
X248767Y305000D01*
X249088D01*
X249316Y304772D01*
Y303628D01*
X249544Y303400D01*
X249865D01*
X250093Y303628D01*
Y304772D01*
X250321Y305000D01*
X250642D01*
X250870Y304772D01*
Y303628D01*
X251098Y303400D01*
X251419D01*
X251647Y303628D01*
Y304772D01*
X251875Y305000D01*
X252196D01*
X252424Y304772D01*
Y303628D01*
X252652Y303400D01*
X252973D01*
X253201Y303628D01*
Y304772D01*
X253429Y305000D01*
X253750D01*
X253978Y304772D01*
Y303628D01*
X254206Y303400D01*
X254527D01*
X254755Y303628D01*
Y304772D01*
X254983Y305000D01*
X255304D01*
X255532Y304772D01*
Y303628D01*
X255760Y303400D01*
X256081D01*
X256309Y303628D01*
Y304772D01*
X256537Y305000D01*
X256858D01*
X257086Y304772D01*
Y303628D01*
X257314Y303400D01*
X257635D01*
X257863Y303628D01*
Y304772D01*
X258091Y305000D01*
X258412D01*
X258640Y304772D01*
Y303628D01*
X258868Y303400D01*
X259189D01*
X259417Y303628D01*
Y304772D01*
X259645Y305000D01*
X259966D01*
X260194Y304772D01*
Y303628D01*
X260422Y303400D01*
X260743D01*
X260971Y303628D01*
Y304772D01*
X261199Y305000D01*
X261520D01*
X261748Y304772D01*
Y303628D01*
X261976Y303400D01*
X262297D01*
X262525Y303628D01*
Y304772D01*
X262753Y305000D01*
X263074D01*
X263302Y304772D01*
Y303628D01*
X263530Y303400D01*
X263851D01*
X264079Y303628D01*
Y304772D01*
X264307Y305000D01*
X264628D01*
X264856Y304772D01*
Y303628D01*
X265084Y303400D01*
X279800D01*
X285669Y309269D01*
X308124D01*
X308998Y310143D01*
Y310420D01*
X310828Y312250D01*
X312062D01*
X313892Y310420D01*
Y310143D01*
X314765Y309270D01*
X315999D01*
X316871Y310142D01*
X317828D01*
X318701Y309269D01*
X319935D01*
X321079Y308125D01*
Y303614D01*
X320988Y303523D01*
Y301945D01*
X321079Y301854D01*
Y298601D01*
X319556Y297078D01*
X309422D01*
X307552Y298948D01*
X307508D01*
G54D12*
X174000Y10500D03*
X342000D03*
X375000Y10000D03*
X543000D03*
G54D13*
X274000Y183000D03*
X284000D03*
X459500Y188000D03*
X449500D03*
X492500Y275000D03*
X502500D03*
X744000Y236400D03*
Y246400D03*
G54D14*
G01X224900Y84900D02*
X212300Y72300D01*
X203300D01*
X192300Y61300D01*
Y52300D01*
X452727Y19227D03*
Y14227D03*
X467727Y39227D03*
G54D15*
G01X255000Y-52500D02*
X490000D01*
Y-135000D01*
X255000D01*
G01Y-52500D02*
Y-135000D01*
G01X490000Y-107500D02*
X255000D01*
G01Y-80000D02*
X490000D01*
G01X335000D02*
Y-107500D01*
G01X405000D02*
Y-135000D01*
X448100Y108000D03*
X452100Y107800D03*
G54D16*
X605500Y79500D03*
G54D17*
G01X448100Y108000D02*
Y42107D01*
X450027Y40180D01*
Y21927D01*
X452727Y19227D01*
G01Y14227D02*
X455017Y16517D01*
Y86058D01*
X451460Y89615D01*
Y100777D01*
X452100Y101417D01*
Y107800D01*
G01X467727Y39227D02*
X482400Y53900D01*
X598334D01*
X610049Y65615D01*
Y69886D01*
X605500Y74435D01*
Y79500D01*
G54D18*
G01X366585Y259556D02*
Y261383D01*
X369032Y263830D01*
Y264110D01*
X370861Y265939D01*
X371140D01*
X372012Y266811D01*
Y267091D01*
X374797Y269876D01*
X375077D01*
X375949Y270748D01*
Y271027D01*
X378736Y273814D01*
X379014D01*
X379886Y274686D01*
Y274964D01*
X382673Y277751D01*
X382952D01*
X383824Y278623D01*
Y306484D01*
X386610Y309270D01*
X386888D01*
X388538Y310920D01*
Y370970D01*
X377808Y381700D01*
X169277D01*
X168890Y382087D01*
X117917D01*
X115370Y379540D01*
X113540D01*
X102540Y368540D01*
Y357855D01*
X101765Y357080D01*
X88344D01*
X86060Y354796D01*
Y351060D01*
X80989Y345989D01*
X79283D01*
X78411Y345117D01*
Y343411D01*
X65489Y330489D01*
X65383D01*
X64511Y329617D01*
Y329511D01*
X38255Y303255D01*
Y264845D01*
X43900Y259200D01*
G01X370522Y255618D02*
Y257448D01*
X372012Y258938D01*
Y259217D01*
X374595Y261800D01*
X374748D01*
X376906Y263958D01*
Y264110D01*
X377778Y264982D01*
X378056D01*
X380844Y267770D01*
Y268048D01*
X381716Y268920D01*
X381996D01*
X384871Y271795D01*
Y271946D01*
X385691Y272766D01*
X385840D01*
X387785Y274711D01*
Y302570D01*
X390547Y305332D01*
X390826D01*
X392476Y306982D01*
Y369234D01*
X378310Y383400D01*
X169775D01*
X169536Y383639D01*
X117273D01*
X117034Y383400D01*
X103335D01*
X103184Y383551D01*
X98414D01*
X98263Y383400D01*
Y383399D01*
X97786Y382922D01*
Y381823D01*
X95825Y379862D01*
X94862D01*
X61383Y346383D01*
Y343489D01*
X60511Y342617D01*
Y342511D01*
X35989Y317989D01*
Y316683D01*
X35117Y315811D01*
X33811D01*
X32232Y314232D01*
Y261832D01*
X43932Y250132D01*
G01X370522Y259556D02*
Y261384D01*
X372012Y262874D01*
Y263024D01*
X374928Y265940D01*
X375077D01*
X375949Y266812D01*
Y267091D01*
X378734Y269876D01*
X379014D01*
X379886Y270748D01*
Y271026D01*
X382674Y273814D01*
X382952D01*
X384602Y275464D01*
Y303326D01*
X386608Y305332D01*
X386888D01*
X387760Y306204D01*
Y306482D01*
X390548Y309270D01*
X390825D01*
X391698Y310143D01*
Y368911D01*
X378009Y382600D01*
X169476D01*
X169213Y382863D01*
X117595D01*
X117332Y382600D01*
X103037D01*
X102862Y382775D01*
X98737D01*
X98562Y382600D01*
Y381501D01*
X96147Y379086D01*
X96086D01*
X63489Y346489D01*
Y341383D01*
X62617Y340511D01*
X61511D01*
X33010Y312010D01*
Y265390D01*
X43347Y255053D01*
G01X56900Y191400D02*
Y199178D01*
X51632Y204446D01*
Y269241D01*
X144121Y361730D01*
X166630D01*
X169300Y364400D01*
X237592D01*
X238016Y364824D01*
X239252D01*
X240776Y363300D01*
X291010D01*
X291141Y363431D01*
X292377D01*
X292508Y363300D01*
X294947D01*
X295078Y363431D01*
X296314D01*
X296445Y363300D01*
X298885D01*
X299016Y363431D01*
X300252D01*
X300383Y363300D01*
X302821D01*
X302952Y363431D01*
X304188D01*
X304319Y363300D01*
X306759D01*
X306890Y363431D01*
X308126D01*
X308257Y363300D01*
X310695D01*
X310826Y363431D01*
X312062D01*
X312193Y363300D01*
X314633D01*
X314764Y363431D01*
X316000D01*
X316882Y362549D01*
Y362269D01*
X318867Y360284D01*
X323084D01*
X324756Y358612D01*
Y358332D01*
X327522Y355566D01*
X327800D01*
X328692Y354674D01*
Y354396D01*
X331458Y351630D01*
X335674D01*
X336566Y350738D01*
Y350460D01*
X339334Y347692D01*
X367193D01*
X368085Y346800D01*
Y346521D01*
X370850Y343756D01*
X371130D01*
X372022Y342864D01*
Y342585D01*
X374789Y339818D01*
X375081D01*
X376581Y338318D01*
X378396D01*
G01X56900Y201300D02*
Y204200D01*
X52410Y208690D01*
Y221910D01*
X56060Y225560D01*
Y272568D01*
X144442Y360950D01*
X171200D01*
X171505Y361255D01*
X290245D01*
X291100Y360400D01*
X316800D01*
X317696Y359504D01*
X319926D01*
X320818Y358612D01*
Y358334D01*
X323586Y355566D01*
X323864D01*
X324756Y354674D01*
Y354394D01*
X327520Y351630D01*
X327800D01*
X328692Y350738D01*
Y350460D01*
X330680Y348472D01*
X335995D01*
X337346Y347121D01*
Y345742D01*
X338552Y344536D01*
X366427D01*
X368707Y342256D01*
X370522D01*
G01X374459Y338318D02*
X373382D01*
X371102Y340598D01*
X342491D01*
X340504Y342585D01*
Y342864D01*
X339612Y343756D01*
X338231D01*
X336566Y345421D01*
Y346800D01*
X335674Y347692D01*
X327522D01*
X324756Y350458D01*
Y350738D01*
X323864Y351630D01*
X323584D01*
X320818Y354396D01*
Y354674D01*
X319926Y355566D01*
X319648D01*
X316882Y358332D01*
Y358612D01*
X315990Y359504D01*
X290892D01*
X289919Y360477D01*
X242057D01*
X235630Y354050D01*
X144872D01*
X113122Y322300D01*
X110192D01*
X94700Y306808D01*
Y304978D01*
X56840Y267118D01*
Y223162D01*
X55410Y221732D01*
Y220468D01*
X56900Y218978D01*
Y210700D01*
G01X43200Y262800D02*
X39038Y266962D01*
Y285840D01*
X73207Y320009D01*
X81005D01*
X85311Y324315D01*
X85421D01*
X95489Y334383D01*
Y335995D01*
X104728Y345234D01*
Y367794D01*
X118241Y381307D01*
X168571D01*
X173089Y376789D01*
X365003D01*
X366382Y375410D01*
X376494D01*
X387759Y364145D01*
Y314079D01*
X386886Y313206D01*
X386610D01*
X383824Y310420D01*
Y310143D01*
X382950Y309269D01*
X382675D01*
X380664Y307258D01*
Y279403D01*
X379012Y277751D01*
X378737D01*
X375949Y274963D01*
Y274688D01*
X375075Y273814D01*
X374801D01*
X372012Y271025D01*
Y270750D01*
X371138Y269876D01*
X370863D01*
X367986Y266999D01*
Y266850D01*
X367165Y266029D01*
X367017D01*
X364138Y263150D01*
Y262876D01*
X363264Y262002D01*
X363115D01*
X361159Y260046D01*
Y255001D01*
X362031Y254129D01*
X363227D01*
X365674Y251682D01*
X366585D01*
G01X43600Y271200D02*
X43468D01*
X39814Y274854D01*
Y285518D01*
X41140Y286844D01*
X51250D01*
X63489Y299083D01*
Y300583D01*
X78961Y316055D01*
X79541D01*
X84761Y321275D01*
Y322667D01*
X85633Y323539D01*
X87539D01*
X97211Y333211D01*
X98517D01*
X105504Y340198D01*
Y367472D01*
X118563Y380531D01*
X131440D01*
X137920Y374051D01*
X186817D01*
X188132Y375366D01*
X229868D01*
X232144Y373090D01*
X377716D01*
X384689Y366117D01*
Y314945D01*
X382950Y313206D01*
X382675D01*
X379886Y310417D01*
Y282562D01*
X379012Y281688D01*
X378737D01*
X375949Y278900D01*
Y278625D01*
X375075Y277751D01*
X374800D01*
X372012Y274963D01*
Y274688D01*
X371138Y273814D01*
X370864D01*
X368076Y271026D01*
Y270750D01*
X367202Y269876D01*
X367054D01*
X364138Y266960D01*
Y266814D01*
X363264Y265940D01*
X362990D01*
X357020Y259970D01*
Y258615D01*
X354752Y256347D01*
Y255618D01*
G01X42037Y274737D02*
Y275037D01*
X45122Y278122D01*
Y278658D01*
X44739Y279041D01*
X43731D01*
X42859Y278169D01*
X41625D01*
X40753Y279041D01*
Y280275D01*
X41696Y281218D01*
Y282856D01*
X40590Y283962D01*
Y285196D01*
X41462Y286068D01*
X42696D01*
X43409Y285355D01*
X52355D01*
X66111Y299111D01*
X66717D01*
X67589Y299983D01*
Y300589D01*
X78411Y311411D01*
Y314407D01*
X79283Y315279D01*
X82279D01*
X84711Y317711D01*
X86417D01*
X87289Y318583D01*
Y320289D01*
X97041Y330041D01*
X98487D01*
X99359Y330913D01*
Y332359D01*
X106280Y339280D01*
Y367144D01*
X107405Y368269D01*
Y368272D01*
X109230Y370097D01*
Y370100D01*
X118885Y379755D01*
X131115D01*
X137597Y373273D01*
X187140D01*
X188457Y374590D01*
X229543D01*
X231335Y372798D01*
Y371257D01*
X232482Y370110D01*
X268701D01*
X269781Y371190D01*
X375193D01*
X383824Y362559D01*
Y318016D01*
X382952Y317144D01*
X382674D01*
X379886Y314356D01*
Y314078D01*
X379014Y313206D01*
X378735D01*
X376300Y310771D01*
Y282911D01*
X374120Y280731D01*
X373841D01*
X372969Y279859D01*
Y279580D01*
X370183Y276794D01*
X369904D01*
X369032Y275922D01*
Y275643D01*
X366245Y272856D01*
X365968D01*
X365096Y271984D01*
Y271706D01*
X362310Y268920D01*
X362030D01*
X356242Y263132D01*
Y258938D01*
X355370Y258066D01*
X353263D01*
X350815Y255618D01*
G01X335066Y251682D02*
X333576Y253172D01*
Y260174D01*
X334448Y261046D01*
X334728D01*
X337515Y263833D01*
Y264111D01*
X338387Y264983D01*
X338665D01*
X341451Y267769D01*
Y268048D01*
X342323Y268920D01*
X342602D01*
X345388Y271706D01*
Y275922D01*
X347217Y277751D01*
X347496D01*
X348547Y278802D01*
Y290892D01*
X350555Y292900D01*
X350812D01*
X361158Y303246D01*
Y303503D01*
X362030Y304375D01*
X362309D01*
X365095Y307161D01*
Y307440D01*
X365967Y308312D01*
X366246D01*
X369032Y311098D01*
Y311377D01*
X369904Y312249D01*
X370183D01*
X372969Y315035D01*
Y315314D01*
X373841Y316186D01*
X374119D01*
X376906Y318973D01*
Y319252D01*
X377778Y320124D01*
X378058D01*
X379886Y321952D01*
Y358622D01*
X378057Y360451D01*
X377778D01*
X376906Y361323D01*
Y361602D01*
X374108Y364400D01*
X281308D01*
X281018Y364110D01*
X279782D01*
X279492Y364400D01*
X240777D01*
X239575Y365602D01*
X237693D01*
X237269Y365178D01*
X174700D01*
X168929Y370949D01*
X137719D01*
X130469Y378199D01*
X119531D01*
X107832Y366500D01*
Y326540D01*
X63508Y282216D01*
X55122D01*
X54517Y281611D01*
X53283D01*
X52678Y282216D01*
X44800D01*
X42242Y279658D01*
G01X42079Y284579D02*
X53273D01*
X53283Y284589D01*
X54517D01*
X54527Y284579D01*
X64772D01*
X73511Y293318D01*
Y296617D01*
X74383Y297489D01*
X77682D01*
X95711Y315518D01*
Y319017D01*
X96583Y319889D01*
X100082D01*
X107056Y326863D01*
Y366822D01*
X108181Y367947D01*
Y367950D01*
X119208Y378977D01*
X130792D01*
X138042Y371727D01*
X169252D01*
X171929Y369050D01*
X268742D01*
X269032Y369340D01*
X270268D01*
X272298Y367310D01*
X375135D01*
X380664Y361781D01*
Y318794D01*
X379014Y317144D01*
X378736D01*
X376906Y315314D01*
Y315035D01*
X375077Y313206D01*
X374798D01*
X372969Y311377D01*
Y311098D01*
X371140Y309269D01*
X370861D01*
X369032Y307440D01*
Y307161D01*
X367203Y305332D01*
X366924D01*
X365095Y303503D01*
Y303224D01*
X363266Y301395D01*
X362987D01*
X353262Y291670D01*
Y291391D01*
X351433Y289562D01*
X351154D01*
X349325Y287733D01*
Y271705D01*
X346540Y268920D01*
X346261D01*
X345389Y268048D01*
Y267770D01*
X342602Y264983D01*
X342323D01*
X341451Y264111D01*
Y263831D01*
X338666Y261046D01*
X338386D01*
X337514Y260174D01*
Y259114D01*
X335066Y256666D01*
Y255618D01*
G01X56900Y151100D02*
X61278Y155478D01*
Y222679D01*
X63600Y225001D01*
Y237408D01*
X75392Y249200D01*
X84308D01*
X87200Y252092D01*
Y265708D01*
X118027Y296535D01*
X131415D01*
X183520Y348640D01*
X286960D01*
X287828Y347772D01*
X304100D01*
X306008Y345864D01*
Y345584D01*
X307592Y344000D01*
X311809D01*
X313881Y341928D01*
Y341648D01*
X314773Y340756D01*
X315052D01*
X317818Y337990D01*
Y337712D01*
X318712Y336818D01*
X326865D01*
X328692Y334991D01*
Y334712D01*
X331460Y331944D01*
X331739D01*
X333508Y330175D01*
Y329896D01*
X334450Y328954D01*
X339636D01*
X341126Y330444D01*
X342941D01*
G01X339004Y334382D02*
X337188D01*
X335698Y332892D01*
X334448D01*
X333508Y333832D01*
Y334112D01*
X331738Y335882D01*
X331458D01*
X328692Y338648D01*
Y338928D01*
X327801Y339819D01*
X319648D01*
X316882Y342585D01*
Y342864D01*
X315990Y343756D01*
X315711D01*
X312944Y346523D01*
Y346802D01*
X312053Y347693D01*
X307837D01*
X305070Y350460D01*
Y350738D01*
X304188Y351620D01*
X286620D01*
X284740Y349740D01*
X174862D01*
X164050Y338928D01*
Y335672D01*
X134203Y305825D01*
X120917D01*
X113494Y298402D01*
X111734D01*
X82870Y269538D01*
Y267248D01*
X60100Y244478D01*
Y164200D01*
X56900Y161000D01*
Y160800D01*
G01Y171300D02*
Y171880D01*
X59320Y174300D01*
Y250928D01*
X81182Y272790D01*
X84790D01*
X113690Y301690D01*
X114498D01*
X121783Y308975D01*
X133123D01*
X156548Y332400D01*
X157278D01*
X162600Y337722D01*
Y347478D01*
X166071Y350949D01*
X168929D01*
X169355Y350523D01*
X282913D01*
X284788Y352398D01*
X311284D01*
X312944Y350738D01*
Y350460D01*
X315712Y347692D01*
X315991D01*
X316882Y346801D01*
Y346522D01*
X319648Y343756D01*
X319927D01*
X320818Y342865D01*
Y342586D01*
X322805Y340599D01*
X330957D01*
X332630Y338926D01*
Y338646D01*
X335394Y335882D01*
X339626D01*
X341126Y334382D01*
X342941D01*
G01X56900Y181700D02*
Y187700D01*
X58400Y189200D01*
Y261578D01*
X144050Y347228D01*
Y348928D01*
X146849Y351727D01*
X169252D01*
X169678Y351301D01*
X281301D01*
X285556Y355556D01*
X312062D01*
X312944Y354674D01*
Y354396D01*
X315710Y351630D01*
X315990D01*
X316882Y350738D01*
Y350458D01*
X319648Y347692D01*
X319928D01*
X320818Y346802D01*
Y346523D01*
X323585Y343756D01*
X331738D01*
X332630Y342864D01*
Y342584D01*
X335396Y339818D01*
X335674D01*
X336566Y338926D01*
Y338648D01*
X338396Y336818D01*
X342627D01*
X345063Y334382D01*
X346878D01*
G01X370522Y338318D02*
X369032Y336828D01*
X346260D01*
X344441Y338647D01*
Y338926D01*
X343549Y339818D01*
X339334D01*
X336566Y342586D01*
Y342864D01*
X334894Y344536D01*
X326740D01*
X324756Y346520D01*
Y346801D01*
X323865Y347692D01*
X323586D01*
X320818Y350460D01*
Y350738D01*
X319926Y351630D01*
X319646D01*
X316882Y354394D01*
Y354674D01*
X315052Y356504D01*
X290100D01*
X286905Y359699D01*
X245503D01*
X238664Y352860D01*
X146168D01*
X61708Y268400D01*
X60992D01*
X57620Y265028D01*
Y221820D01*
X56900Y221100D01*
G01X327193Y298948D02*
X323445Y295200D01*
X225300D01*
X209900Y279800D01*
X194408D01*
X192886Y278278D01*
Y277956D01*
X196160Y274682D01*
Y274360D01*
X195931Y274131D01*
X195609D01*
X192335Y277405D01*
X192013D01*
X191784Y277176D01*
Y276854D01*
X195058Y273580D01*
Y273258D01*
X194829Y273029D01*
X194507D01*
X191233Y276303D01*
X190911D01*
X190682Y276074D01*
Y275752D01*
X193956Y272478D01*
Y272156D01*
X193727Y271927D01*
X193405D01*
X190131Y275201D01*
X189809D01*
X189580Y274972D01*
Y274650D01*
X192854Y271376D01*
Y271054D01*
X192625Y270825D01*
X192303D01*
X189029Y274099D01*
X188707D01*
X188478Y273870D01*
Y273548D01*
X191752Y270274D01*
Y269952D01*
X191523Y269723D01*
X191201D01*
X187927Y272997D01*
X187605D01*
X187376Y272768D01*
Y272446D01*
X190650Y269172D01*
Y268850D01*
X190421Y268621D01*
X190099D01*
X186825Y271895D01*
X186503D01*
X186274Y271666D01*
Y271344D01*
X189548Y268070D01*
Y267748D01*
X189319Y267519D01*
X188997D01*
X185723Y270793D01*
X185401D01*
X185172Y270564D01*
Y270242D01*
X188446Y266968D01*
Y266646D01*
X188217Y266417D01*
X187895D01*
X184621Y269691D01*
X184299D01*
X184070Y269462D01*
Y269140D01*
X187344Y265866D01*
Y265544D01*
X187115Y265315D01*
X186793D01*
X183519Y268589D01*
X183197D01*
X182968Y268360D01*
Y268038D01*
X186242Y264764D01*
Y264442D01*
X186013Y264213D01*
X185691D01*
X182417Y267487D01*
X182095D01*
X181866Y267258D01*
Y266936D01*
X185140Y263662D01*
Y263340D01*
X184911Y263111D01*
X184589D01*
X181315Y266385D01*
X180993D01*
X180764Y266156D01*
Y265834D01*
X184038Y262560D01*
Y262238D01*
X183809Y262009D01*
X183487D01*
X180213Y265283D01*
X179891D01*
X170023Y255415D01*
X169069D01*
X168841Y255643D01*
Y260872D01*
X168613Y261100D01*
X168291D01*
X168063Y260872D01*
Y255643D01*
X167835Y255415D01*
X167513D01*
X167285Y255643D01*
Y260872D01*
X167057Y261100D01*
X166735D01*
X166507Y260872D01*
Y255643D01*
X166279Y255415D01*
X165957D01*
X165729Y255643D01*
Y260872D01*
X165501Y261100D01*
X165179D01*
X164951Y260872D01*
Y255643D01*
X164723Y255415D01*
X164401D01*
X164173Y255643D01*
Y260872D01*
X163945Y261100D01*
X163623D01*
X163395Y260872D01*
Y255643D01*
X163167Y255415D01*
X162845D01*
X162617Y255643D01*
Y260872D01*
X162389Y261100D01*
X162067D01*
X161839Y260872D01*
Y255643D01*
X161611Y255415D01*
X152863D01*
X124513Y227065D01*
X123447D01*
X105482Y209100D01*
X99492D01*
X94382Y203990D01*
X90682D01*
X82484Y195792D01*
X75907D01*
X74622Y197077D01*
Y228922D01*
X79800Y234100D01*
G01X105300Y38800D02*
X120861D01*
X122260Y40199D01*
X126599D01*
X174000Y87600D01*
X358957D01*
X375700Y104343D01*
Y114322D01*
X377596Y116218D01*
G01X110100Y31100D02*
X151200D01*
X167000Y46900D01*
X322194D01*
X379085Y103791D01*
Y108961D01*
X377596Y110450D01*
Y112282D01*
G01X346078D02*
X344249D01*
X341981Y110014D01*
X333828D01*
X331820Y108006D01*
Y107726D01*
X330948Y106854D01*
X300046D01*
X294300Y112600D01*
X254599D01*
X232799Y134400D01*
X213800D01*
X192400Y155800D01*
X169235D01*
X145600Y179435D01*
Y195700D01*
G01X334266Y116218D02*
X332618D01*
X330440Y114040D01*
X300360D01*
X297400Y117000D01*
X276700D01*
X250700Y143000D01*
X214100D01*
X197300Y159800D01*
X168538D01*
X149188Y179150D01*
Y200412D01*
X146200Y203400D01*
G01X146100Y198300D02*
X147632Y196768D01*
Y178504D01*
X168936Y157200D01*
X196600D01*
X213600Y140200D01*
X250000D01*
X276600Y113600D01*
X295700D01*
X299286Y110014D01*
X331314D01*
X332092Y110792D01*
X338822D01*
X340312Y112282D01*
X342141D01*
G01X145000Y206000D02*
X145708D01*
X149966Y201742D01*
Y179473D01*
X168339Y161100D01*
X197800D01*
X211000Y147900D01*
X228200D01*
X231700Y144400D01*
X250900D01*
X277500Y117800D01*
X322982D01*
X324992Y115790D01*
Y115638D01*
X325812Y114818D01*
X326972D01*
X328372Y116218D01*
X330330D01*
G01X146200Y213600D02*
X152300Y207500D01*
Y180442D01*
X166042Y166700D01*
X185900D01*
X188100Y164500D01*
X207200D01*
X211300Y160400D01*
X224900D01*
X232600Y152700D01*
X251600D01*
X265800Y138500D01*
X267500D01*
X280418Y125582D01*
X331718D01*
X333208Y124092D01*
X334266D01*
G01X144700Y215900D02*
X146008D01*
X153210Y208698D01*
Y182682D01*
X159057Y176835D01*
X164327D01*
X166442Y178950D01*
X195950D01*
X209385Y165515D01*
X226585D01*
X234710Y157390D01*
X252101D01*
X282991Y126500D01*
X333965D01*
X334744Y125722D01*
X336374Y124092D01*
X338204D01*
G01Y120156D02*
X336844D01*
X335354Y121646D01*
X282054D01*
X269200Y134500D01*
X264800D01*
X248000Y151300D01*
X232200D01*
X225000Y158500D01*
X209800D01*
X204800Y163500D01*
X183701D01*
X181701Y165500D01*
X166141D01*
X151522Y180119D01*
Y205886D01*
X146408Y211000D01*
X144600D01*
G01X145000Y201000D02*
X145508D01*
X148410Y198098D01*
Y178827D01*
X168737Y158500D01*
X197000D01*
X213802Y141700D01*
X250300D01*
X276690Y115310D01*
X297090D01*
X301608Y110792D01*
X330948D01*
X332438Y112282D01*
X334266D01*
G01X146900Y208400D02*
X150744Y204556D01*
Y179796D01*
X168140Y162400D01*
X203408D01*
X215808Y150000D01*
X247200D01*
X264200Y133000D01*
X267900D01*
X282322Y118578D01*
X335844D01*
X338204Y116218D01*
G01X334266Y128030D02*
X333570D01*
X332080Y129520D01*
X290480D01*
X271000Y149000D01*
X263501D01*
X253801Y158700D01*
X247200D01*
X240800Y165100D01*
X231900D01*
X227600Y169400D01*
X207700D01*
X197285Y179815D01*
X159227D01*
X153988Y185054D01*
Y211012D01*
X146500Y218500D01*
G01X146600Y221000D02*
X154766Y212834D01*
Y187426D01*
X159057Y183135D01*
X174935D01*
X177290Y185490D01*
X199110D01*
X209900Y174700D01*
X212900D01*
X216700Y170900D01*
X236800D01*
X242400Y165300D01*
X252008D01*
X263154Y154154D01*
X268346D01*
X292024Y130476D01*
X333928D01*
X335756Y128648D01*
Y128370D01*
X338544Y125582D01*
X338822D01*
X340144Y124260D01*
Y122153D01*
X342141Y120156D01*
G01X144700Y223000D02*
X146708D01*
X155544Y214164D01*
Y189798D01*
X159057Y186285D01*
X203207D01*
X217292Y172200D01*
X247600D01*
X263900Y155900D01*
X269600D01*
X291878Y133622D01*
X334718D01*
X335756Y132584D01*
Y132306D01*
X338542Y129520D01*
X338822D01*
X339694Y128648D01*
Y127506D01*
X342141Y125059D01*
Y124092D01*
G01X146500Y228500D02*
X157100Y217900D01*
Y194542D01*
X159057Y192585D01*
X164614D01*
X166377Y190822D01*
X204378D01*
X219978Y175222D01*
X249678D01*
X261950Y162950D01*
X266550D01*
X292078Y137422D01*
X334856D01*
X335756Y136522D01*
Y136244D01*
X337766Y134234D01*
X339145D01*
X340472Y132907D01*
Y131527D01*
X342479Y129520D01*
X342759D01*
X343631Y128648D01*
Y118665D01*
X346078Y116218D01*
G01X146000Y225000D02*
X156322Y214678D01*
Y192170D01*
X159227Y189265D01*
X204443D01*
X219808Y173900D01*
X247900D01*
X263900Y157900D01*
X269100D01*
X292600Y134400D01*
X335700D01*
X336644Y133456D01*
X338822D01*
X339694Y132584D01*
Y130477D01*
X342141Y128030D01*
G01X163000Y233000D02*
X162908D01*
X160123Y230215D01*
X159057D01*
X158185Y229343D01*
Y196607D01*
X159227Y195565D01*
X162735D01*
X166600Y191700D01*
X205900D01*
X217600Y180000D01*
X226892D01*
X230892Y176000D01*
X251300D01*
X262800Y164500D01*
X267000D01*
X293300Y138200D01*
X338016D01*
X339694Y136522D01*
Y136243D01*
X341523Y134414D01*
X341801D01*
X344500Y131715D01*
Y123200D01*
X346078Y121622D01*
Y120156D01*
G01X338204Y179234D02*
X335770Y176800D01*
X302400D01*
X302033Y176433D01*
X267467D01*
X253290Y190610D01*
X219290D01*
X208856Y201044D01*
X186747D01*
X172999Y214792D01*
Y230281D01*
X170481Y232799D01*
X165309D01*
X162408Y235700D01*
X162192D01*
X160000Y237892D01*
Y242000D01*
G01X163000Y230000D02*
Y229108D01*
X161510Y227618D01*
Y199610D01*
X168298Y192822D01*
X206678D01*
X213990Y185510D01*
X231490D01*
X238378Y178622D01*
X259186D01*
X268186Y169622D01*
Y167774D01*
X294629Y141331D01*
X338822D01*
X339694Y140459D01*
Y140180D01*
X342480Y137394D01*
X342759D01*
X343631Y136522D01*
Y136243D01*
X346418Y133456D01*
X346696D01*
X347568Y132584D01*
Y130868D01*
X346078Y129378D01*
Y128030D01*
G01X163000Y227000D02*
Y208120D01*
X168320Y202800D01*
X176100D01*
X185300Y193600D01*
X209500D01*
X214000Y189100D01*
X251508D01*
X277300Y163308D01*
Y159761D01*
X294952Y142109D01*
X341981D01*
X344588Y139502D01*
Y139223D01*
X345460Y138351D01*
X345739D01*
X348346Y135744D01*
Y131527D01*
X350015Y129858D01*
Y128030D01*
G01X177500Y213500D02*
X181900Y209100D01*
Y208892D01*
X187682Y203110D01*
X247498D01*
X271307Y179301D01*
X286400D01*
X289888Y182789D01*
X298611D01*
X300676Y180724D01*
X344176D01*
X345666Y179234D01*
X346078D01*
G01X162500Y237500D02*
X163619D01*
X166918Y234201D01*
X170180D01*
X174400Y229981D01*
Y214492D01*
X187070Y201822D01*
X211739D01*
X220260Y193301D01*
X238601D01*
X238890Y193590D01*
X253209D01*
X269588Y177211D01*
X297894D01*
X298427Y177744D01*
X330820D01*
X332310Y179234D01*
X334266D01*
G01X177500Y218500D02*
X194800D01*
X199408Y213892D01*
X240010D01*
Y214018D01*
X240882Y214890D01*
X242118D01*
X242990Y214018D01*
Y213892D01*
X250208D01*
X267710Y196390D01*
X277010D01*
X279900Y193500D01*
X283100D01*
X288400Y188200D01*
X303400D01*
X305982Y185618D01*
X339693D01*
X342141Y183170D01*
G01X350015Y179234D02*
X347747Y181502D01*
X303397D01*
X298299Y186600D01*
X286200D01*
X285178Y187622D01*
X282277D01*
X277267Y192632D01*
X265067D01*
X250277Y207422D01*
X202277D01*
X198699Y211000D01*
X187000D01*
G01X338204Y183170D02*
X336534Y184840D01*
X301160D01*
X298578Y187422D01*
X287178D01*
X286200Y188400D01*
X282600D01*
X277590Y193410D01*
X265390D01*
X250490Y208310D01*
X202490D01*
X194800Y216000D01*
X186000D01*
G01X334266Y191044D02*
X332438D01*
X330948Y192534D01*
X289866D01*
X281800Y200600D01*
X269700D01*
X244418Y225882D01*
X193011D01*
X191382Y227510D01*
X190392Y228500D01*
X186500D01*
G01X342141Y187108D02*
X340312D01*
X338822Y188598D01*
X338542D01*
X336200Y190940D01*
Y191218D01*
X334106Y193312D01*
X291088D01*
X281700Y202700D01*
X270199D01*
X246239Y226660D01*
X195432D01*
X193092Y229000D01*
X192000D01*
G01X187000Y225000D02*
X207660D01*
X209319Y223340D01*
X210360Y222299D01*
Y221232D01*
X211232Y220360D01*
X247940D01*
X268800Y199500D01*
X277300D01*
X281300Y195500D01*
X285500D01*
X290650Y190350D01*
X304800D01*
X305596Y189554D01*
X333928D01*
X336374Y187108D01*
X338204D01*
G01X187000Y221000D02*
X204293D01*
X204933Y220360D01*
X209150D01*
X210360Y219150D01*
Y218083D01*
X211232Y217211D01*
X248587D01*
X248758Y217041D01*
X268299Y197500D01*
X278199D01*
X280977Y194722D01*
X283378D01*
X289100Y189000D01*
X305049D01*
X305451Y188598D01*
X330948D01*
X332438Y187108D01*
X334266D01*
G01X191000Y239000D02*
X204845D01*
X204933Y239088D01*
X224980D01*
X227082Y241190D01*
X247910D01*
X268078Y221022D01*
X286562D01*
X306284Y201300D01*
X345676D01*
X348500Y198476D01*
Y186100D01*
X350015Y184585D01*
Y183170D01*
G01X188000Y242000D02*
X193892D01*
X194382Y241510D01*
X204710D01*
X205885Y242685D01*
X250715D01*
X271600Y221800D01*
X289201D01*
X306501Y204500D01*
X346414D01*
X348615Y202299D01*
Y202276D01*
X350573Y200318D01*
X350595D01*
X351505Y199408D01*
Y190005D01*
X350015Y188515D01*
Y187108D01*
G01X346078Y191044D02*
X344249D01*
X342759Y192534D01*
X342609D01*
X339604Y195539D01*
Y195562D01*
X337738Y197428D01*
X290972D01*
X283090Y205310D01*
X272282D01*
X269200Y208392D01*
Y209909D01*
X245719Y233390D01*
X232782D01*
X232351Y232959D01*
X201640D01*
X199599Y235000D01*
X188000D01*
G01X186500Y238500D02*
X189392D01*
X191953Y235939D01*
X247261D01*
X273500Y209700D01*
X281600D01*
X290892Y200408D01*
X342759D01*
X343700Y199467D01*
Y195380D01*
X346546Y192534D01*
X346696D01*
X347568Y191662D01*
Y190426D01*
X346696Y189554D01*
X346416D01*
X344588Y187726D01*
Y186490D01*
X346078Y185000D01*
Y183170D01*
G01X191000Y232000D02*
X197600D01*
X199791Y229809D01*
X248199D01*
X267900Y210108D01*
Y208591D01*
X272491Y204000D01*
X282500D01*
X290028Y196472D01*
X334884D01*
X335756Y195600D01*
Y195450D01*
X338672Y192534D01*
X338822D01*
X340312Y191044D01*
X342141D01*
G01X315382Y334382D02*
X312935Y336829D01*
X310827D01*
X309083Y338573D01*
Y338852D01*
X308126Y339809D01*
X306890D01*
X305146Y338065D01*
Y337786D01*
X304188Y336828D01*
X302952D01*
X301208Y338572D01*
Y338852D01*
X300252Y339808D01*
X269908D01*
X263600Y333500D01*
X263400D01*
G01X283800Y236800D02*
X288200D01*
X289700Y238300D01*
X357300D01*
X361318Y242318D01*
X363264D01*
X364137Y243191D01*
Y247401D01*
X365969Y249233D01*
X370052D01*
X371922Y251103D01*
Y253081D01*
X374459Y255618D01*
G01X350015Y135904D02*
X351844D01*
X354292Y138352D01*
X354569D01*
X355441Y139224D01*
Y207665D01*
X338306Y224800D01*
X293694D01*
X282311Y236183D01*
Y243617D01*
X288694Y250000D01*
X311868D01*
X312880Y251012D01*
Y251159D01*
X314802Y253081D01*
X314823D01*
X317828Y256086D01*
Y256234D01*
X318702Y257108D01*
X318850D01*
X321855Y260113D01*
Y260134D01*
X322676Y260955D01*
X322697D01*
X325702Y263960D01*
Y264108D01*
X326576Y264982D01*
X326724D01*
X329639Y267897D01*
Y268045D01*
X330513Y268919D01*
X330789D01*
X333576Y271706D01*
Y271982D01*
X334450Y272856D01*
X336556D01*
X339005Y275305D01*
G01X346078Y139841D02*
X347907D01*
X349397Y141331D01*
X349674D01*
X352281Y143938D01*
Y206505D01*
X347961Y210825D01*
X306571D01*
X281535Y235861D01*
Y243939D01*
X290768Y253172D01*
X310977D01*
X313981Y256176D01*
Y256197D01*
X314802Y257018D01*
X314950D01*
X317918Y259986D01*
Y260134D01*
X318739Y260955D01*
X318760D01*
X321855Y264050D01*
Y264071D01*
X322676Y264892D01*
X322824D01*
X325792Y267860D01*
Y268008D01*
X326613Y268829D01*
X326634D01*
X329640Y271835D01*
Y271982D01*
X331472Y273814D01*
X335682D01*
X336556Y274688D01*
Y276792D01*
X339005Y279241D01*
G01X273000Y266000D02*
Y268706D01*
X274410Y270116D01*
Y271018D01*
X275282Y271890D01*
X276518D01*
X276817Y271591D01*
X279291D01*
X279511Y271811D01*
Y272317D01*
X280383Y273189D01*
X280889D01*
X284494Y276794D01*
X293293D01*
X294206Y277707D01*
Y279859D01*
X295078Y280731D01*
X335731D01*
X336688Y281688D01*
X342812D01*
X344431Y280069D01*
Y272857D01*
X342941Y271367D01*
G01X275900Y270400D02*
X276800Y269500D01*
X287100D01*
X291414Y273814D01*
X292377D01*
X293249Y274686D01*
Y275649D01*
X294824Y277224D01*
X333421D01*
X333800Y277600D01*
X333951Y277751D01*
X335684D01*
X336556Y278623D01*
Y278942D01*
X338524Y280910D01*
X339945D01*
X340495Y280360D01*
Y278623D01*
X339005Y277133D01*
Y275305D01*
G01X323256Y306822D02*
Y304994D01*
X324746Y303504D01*
Y301623D01*
X325751Y300618D01*
X328418D01*
X329640Y301840D01*
Y303504D01*
X330512Y304376D01*
X330792D01*
X332620Y306204D01*
Y307440D01*
X330790Y309270D01*
X330512D01*
X329640Y310142D01*
Y310421D01*
X326855Y313206D01*
X326575D01*
X325050Y314731D01*
Y315010D01*
X323096Y316964D01*
X299196D01*
X297186Y318974D01*
Y319252D01*
X296314Y320124D01*
X296034D01*
X293249Y322909D01*
Y323188D01*
X292327Y324110D01*
X288282D01*
X287410Y324982D01*
Y327632D01*
X278921Y336122D01*
G01X339005Y271367D02*
X337267D01*
X334820Y268920D01*
X334450D01*
X333576Y268046D01*
Y267770D01*
X330788Y264982D01*
X330513D01*
X329640Y264109D01*
Y251066D01*
X330513Y250193D01*
X367202D01*
X369122Y252113D01*
Y252261D01*
X369943Y253082D01*
X370092D01*
X372969Y255959D01*
Y256234D01*
X373843Y257108D01*
X374117D01*
X376906Y259897D01*
Y260172D01*
X377780Y261046D01*
X378056D01*
X380844Y263834D01*
Y264108D01*
X381717Y264981D01*
X410509D01*
X411382Y264108D01*
Y263961D01*
X414388Y260955D01*
X414409D01*
X416276Y259088D01*
Y258940D01*
X418108Y257108D01*
X418382D01*
X420214Y255276D01*
Y255002D01*
X422044Y253172D01*
X422320D01*
X424151Y251341D01*
Y251066D01*
X425983Y249234D01*
X436266D01*
X466740Y218760D01*
X504038D01*
X508849Y213950D01*
G01X500858Y124342D02*
X498206Y121690D01*
X388962D01*
X387428Y120156D01*
X385470D01*
G01X477236Y115164D02*
X470444D01*
X467900Y117708D01*
X385810D01*
X383980Y119538D01*
Y183660D01*
X386028Y185708D01*
X386050D01*
X386870Y186528D01*
Y186678D01*
X389836Y189644D01*
X389988D01*
X390808Y190464D01*
Y190488D01*
X393812Y193492D01*
X393962D01*
X394834Y194364D01*
Y194642D01*
X397710Y197518D01*
X397862D01*
X398682Y198338D01*
Y198362D01*
X400728Y200408D01*
X405774D01*
X406646Y199536D01*
Y197428D01*
X409092Y194982D01*
G01X381534Y187108D02*
Y188936D01*
X380044Y190426D01*
Y252869D01*
X378785Y254128D01*
X377778D01*
X376906Y255000D01*
Y256236D01*
X378735Y258065D01*
X382952D01*
X383824Y258937D01*
Y261045D01*
X386271Y263492D01*
G01X378396Y255618D02*
X380834Y253180D01*
Y251060D01*
X381712Y250182D01*
X382018D01*
X384770Y247430D01*
Y247122D01*
X385648Y246244D01*
X385956D01*
X388708Y243492D01*
Y243186D01*
X389586Y242308D01*
X389892D01*
X392644Y239556D01*
Y239248D01*
X393522Y238370D01*
X393830D01*
X396582Y235618D01*
Y235312D01*
X397460Y234434D01*
X397766D01*
X400518Y231682D01*
Y231374D01*
X401396Y230496D01*
X401703D01*
X404456Y227743D01*
Y227437D01*
X408416Y223478D01*
X427522D01*
X444900Y206100D01*
X467222D01*
X484600Y188722D01*
Y188478D01*
X493078Y180000D01*
X521178D01*
X522278Y178900D01*
X524840D01*
X528915Y182975D01*
X621775D01*
X645129Y206329D01*
G01X482500Y125000D02*
X480032Y122532D01*
X457868D01*
X437910Y142490D01*
X414310D01*
X410600Y146200D01*
X394859D01*
X393344Y147715D01*
G01X478500Y125000D02*
X476000Y127500D01*
X473000D01*
X466410Y134090D01*
X452410D01*
X439990Y146510D01*
X415082D01*
X412387Y149205D01*
X400600D01*
X399110Y147715D01*
X397282D01*
G01X475268Y125000D02*
X476958Y123310D01*
X479310D01*
X480500Y124500D01*
Y128000D01*
X464710Y143790D01*
X453210D01*
X411382Y185618D01*
X404538D01*
X403666Y186490D01*
Y191662D01*
X405156Y193152D01*
Y194982D01*
G01X506000Y126800D02*
Y129000D01*
X486164Y148836D01*
X484400D01*
X476236Y157000D01*
X456000D01*
X423446Y189554D01*
X408474D01*
X406984Y191044D01*
X405156D01*
G01X504300Y124800D02*
Y127008D01*
X502918Y128390D01*
X496110D01*
X469500Y155000D01*
X455500D01*
X421902Y188598D01*
X406646D01*
X405156Y187108D01*
G01X682325Y333575D02*
X680175D01*
X663200Y316600D01*
X587211D01*
X557686Y287075D01*
X555554D01*
X542400Y273921D01*
Y272679D01*
X543990Y271089D01*
Y233019D01*
X542961Y231990D01*
X535570D01*
X531309Y227729D01*
Y226719D01*
X530430Y225840D01*
X510261D01*
X509470Y225049D01*
X465512D01*
X445800Y244761D01*
Y245454D01*
X425324Y265930D01*
X425020D01*
X424141Y266809D01*
Y267114D01*
X421389Y269866D01*
X421083D01*
X420204Y270745D01*
Y272200D01*
X418600Y273804D01*
X417145D01*
X415320Y275629D01*
Y275922D01*
X414448Y276794D01*
X414155D01*
X413212Y277737D01*
Y277750D01*
X412340Y278622D01*
Y279938D01*
X410600Y281678D01*
X409271D01*
X408392Y282557D01*
Y283308D01*
X405986Y285714D01*
X405376D01*
X405375Y285715D01*
X405334D01*
X404556Y286493D01*
Y286698D01*
X401602Y289652D01*
X401438D01*
X400618Y290472D01*
Y292474D01*
X394144Y298948D01*
G01Y306822D02*
X395961D01*
X397461Y308322D01*
X452422D01*
X454600Y310500D01*
Y311800D01*
X440400Y326000D01*
Y340421D01*
X445979Y346000D01*
X555542D01*
X558492Y343050D01*
X588597D01*
X607047Y361500D01*
X657879D01*
X666706Y352673D01*
X668249D01*
X675822Y345101D01*
X676701Y344222D01*
Y344199D01*
X682500Y338400D01*
G01X508300Y125500D02*
Y127800D01*
X509500Y129000D01*
Y132000D01*
X482500Y159000D01*
X456000D01*
X423956Y191044D01*
X409092D01*
G01X441600Y262100D02*
X451179D01*
X452479Y260800D01*
X459821D01*
X475400Y276379D01*
Y277100D01*
X492100Y293800D01*
G01X487700Y317800D02*
X487000D01*
X464550Y295350D01*
X462029D01*
X434700Y268021D01*
Y267500D01*
G01X496250Y229698D02*
X497400Y230848D01*
Y310621D01*
X468221Y339800D01*
X441900D01*
G01X451300Y264300D02*
Y275321D01*
X456079Y280100D01*
X457500D01*
X481800Y304400D01*
G01X526660Y198912D02*
X525160Y197412D01*
Y195141D01*
X526039Y194262D01*
X541138D01*
X542100Y193300D01*
X549500D01*
X551925Y195725D01*
X560525D01*
X592025Y227225D01*
X601675D01*
X606010Y231560D01*
Y231618D01*
X606882Y232490D01*
X606940D01*
X622950Y248500D01*
Y266620D01*
X619025Y270545D01*
Y281046D01*
X619900Y281921D01*
Y283200D01*
G01X526660Y211510D02*
X525009Y213160D01*
X522889D01*
X522010Y214039D01*
Y215281D01*
X523038Y216309D01*
X524131D01*
X525010Y217188D01*
Y218280D01*
X529421Y222691D01*
X543111D01*
X555565Y235145D01*
Y237265D01*
X576511Y258211D01*
X577917D01*
X578789Y259083D01*
Y260489D01*
X580025Y261725D01*
X593146D01*
X611700Y280279D01*
Y284227D01*
X619709Y292236D01*
X620200D01*
G01X621769Y286331D02*
X619890D01*
X619121Y287100D01*
X617879D01*
X617000Y286221D01*
Y261958D01*
X569517Y214475D01*
X556444D01*
X555565Y213596D01*
Y211244D01*
X551181Y206860D01*
X522889D01*
X521231Y208518D01*
Y215604D01*
X523065Y217438D01*
X523139D01*
X523510Y217809D01*
G01X633862Y356038D02*
Y353553D01*
X632515Y352206D01*
X599985D01*
X593000Y345221D01*
Y343959D01*
X558016Y308975D01*
X556444D01*
X555565Y308096D01*
Y306816D01*
X528700Y279951D01*
Y273467D01*
X522010Y266777D01*
Y236168D01*
X523038Y235140D01*
X524131D01*
X525010Y234261D01*
Y232139D01*
X526660Y230490D01*
G01X523510D02*
X525010Y228990D01*
X530430D01*
X532800Y231360D01*
Y249400D01*
X540900Y257500D01*
Y291021D01*
X555704Y305825D01*
X558025D01*
X603601Y351401D01*
X631501D01*
X632846Y351407D01*
X635408Y353969D01*
X635831D01*
G01X620901Y288299D02*
X617976D01*
X616201Y286524D01*
Y275330D01*
X558496Y217625D01*
X544427D01*
X543111Y216309D01*
X528411D01*
X527612Y215510D01*
X527510D01*
X526660Y214660D01*
G01X621900Y290268D02*
X618843D01*
X614900Y286325D01*
Y280329D01*
X593146Y258575D01*
X592054D01*
X566854Y233375D01*
X556444D01*
X544269Y221200D01*
X531079D01*
X528160Y218281D01*
Y217188D01*
X527281Y216309D01*
X525261D01*
X524462Y215510D01*
X524360D01*
X523510Y214660D01*
G01X631894Y353706D02*
X600383D01*
X583200Y336523D01*
Y335261D01*
X560064Y312125D01*
X556444D01*
X541400Y297081D01*
Y294379D01*
X525721Y278700D01*
X523468D01*
X518500Y273732D01*
Y238576D01*
X522992Y234084D01*
X523066D01*
X523510Y233640D01*
G01X543900Y273300D02*
X555419D01*
X556444Y274325D01*
X593146D01*
X617800Y298979D01*
Y313200D01*
X619700Y315100D01*
G01X625100Y173300D02*
X627800D01*
X640600Y186100D01*
G01X745900Y104600D02*
X690800D01*
X680160Y115240D01*
Y163360D01*
X665020Y178500D01*
G54D19*
G01X263917Y-86500D02*
Y-92500D01*
X267583D01*
G01X269958D02*
X272250Y-86500D01*
X274542Y-92500D01*
G01X273717Y-90400D02*
X270783D01*
G01X278750Y-92500D02*
Y-89800D01*
X276917Y-86500D01*
G01X280583D02*
X278750Y-89800D01*
G01X287083Y-92500D02*
X283417D01*
Y-86500D01*
X287083D01*
G01X285617Y-89400D02*
X283417D01*
G01X289917Y-92500D02*
Y-86500D01*
X292208D01*
X292942Y-86800D01*
X293400Y-87200D01*
X293583Y-88000D01*
X293400Y-88800D01*
X292850Y-89300D01*
X292208Y-89600D01*
X289917D01*
G01X292208D02*
X293583Y-92500D01*
G01X303192Y-91800D02*
X303833Y-92300D01*
X304567Y-92500D01*
X305300Y-92300D01*
X305942Y-91700D01*
X306400Y-90800D01*
X306583Y-89900D01*
Y-88800D01*
X306400Y-87900D01*
X305942Y-87100D01*
X305392Y-86700D01*
X304750Y-86500D01*
X304017Y-86700D01*
X303467Y-87100D01*
X303100Y-87700D01*
X302917Y-88500D01*
X303100Y-89200D01*
X303558Y-89900D01*
X304108Y-90300D01*
X304750Y-90400D01*
X305483Y-90200D01*
X306033Y-89700D01*
X306583Y-88800D01*
G01X309600Y-92700D02*
X312900Y-86500D01*
G01X316008Y-87500D02*
X316558Y-86900D01*
X317200Y-86600D01*
X317933Y-86500D01*
X318850Y-86700D01*
X319492Y-87200D01*
X319675Y-87800D01*
X319583Y-88400D01*
X319217Y-88900D01*
X317383Y-89900D01*
X316558Y-90600D01*
X316008Y-91600D01*
X315825Y-92500D01*
X319675D01*
G01X324250Y-86500D02*
X323517Y-86700D01*
X322967Y-87200D01*
X322600Y-87800D01*
X322325Y-88600D01*
X322233Y-89500D01*
X322325Y-90400D01*
X322600Y-91200D01*
X322967Y-91800D01*
X323517Y-92300D01*
X324250Y-92500D01*
X324983Y-92300D01*
X325533Y-91800D01*
X325900Y-91200D01*
X326175Y-90400D01*
X326267Y-89500D01*
X326175Y-88600D01*
X325900Y-87800D01*
X325533Y-87200D01*
X324983Y-86700D01*
X324250Y-86500D01*
G01X270325Y-101700D02*
X271058Y-102200D01*
X271883Y-102500D01*
X272617D01*
X273350Y-102200D01*
X273900Y-101700D01*
X274175Y-101000D01*
X273992Y-100300D01*
X273533Y-99700D01*
X272708Y-99300D01*
X271608Y-99100D01*
X270967Y-98700D01*
X270692Y-98000D01*
X270875Y-97300D01*
X271333Y-96800D01*
X271975Y-96500D01*
X272617D01*
X273258Y-96700D01*
X273808Y-97200D01*
G01X277650Y-96500D02*
X279850D01*
G01X278750D02*
Y-102500D01*
G01X277650D02*
X279850D01*
G01X285800Y-99500D02*
X287633D01*
Y-101300D01*
X287083Y-101900D01*
X286442Y-102300D01*
X285525Y-102500D01*
X284608Y-102300D01*
X283967Y-101900D01*
X283417Y-101300D01*
X283050Y-100600D01*
X282867Y-99800D01*
Y-99100D01*
X283050Y-98500D01*
X283417Y-97800D01*
X283967Y-97200D01*
X284517Y-96800D01*
X285250Y-96500D01*
X285892D01*
X286625Y-96700D01*
X287175Y-97100D01*
G01X289642Y-102500D02*
Y-96500D01*
X293858Y-102500D01*
Y-96500D01*
G01X295958Y-102500D02*
X298250Y-96500D01*
X300542Y-102500D01*
G01X299717Y-100400D02*
X296783D01*
G01X302917Y-96500D02*
Y-102500D01*
X306583D01*
G01X315733Y-101300D02*
X316283Y-102000D01*
X317017Y-102400D01*
X317842Y-102500D01*
X318575Y-102400D01*
X319308Y-101900D01*
X319767Y-101300D01*
X319858Y-100700D01*
X319675Y-100000D01*
X319033Y-99500D01*
X318392Y-99300D01*
X317567D01*
G01X318392D02*
X318942Y-99000D01*
X319400Y-98500D01*
X319583Y-97900D01*
X319400Y-97300D01*
X318942Y-96800D01*
X318117Y-96500D01*
X317292Y-96600D01*
X316467Y-97000D01*
G01X364983Y-97500D02*
Y-91500D01*
X366817D01*
X367550Y-91800D01*
X368100Y-92200D01*
X368558Y-92800D01*
X368925Y-93500D01*
X369017Y-94500D01*
X368925Y-95500D01*
X368558Y-96200D01*
X368100Y-96800D01*
X367550Y-97200D01*
X366817Y-97500D01*
X364983D01*
G01X374600D02*
Y-91500D01*
X371208Y-95800D01*
X375792D01*
G01X380000Y-97500D02*
Y-91500D01*
X378900Y-92700D01*
G01Y-97500D02*
X381100D01*
G01X386500Y-91500D02*
X385767Y-91700D01*
X385217Y-92200D01*
X384850Y-92800D01*
X384575Y-93600D01*
X384483Y-94500D01*
X384575Y-95400D01*
X384850Y-96200D01*
X385217Y-96800D01*
X385767Y-97300D01*
X386500Y-97500D01*
X387233Y-97300D01*
X387783Y-96800D01*
X388150Y-96200D01*
X388425Y-95400D01*
X388517Y-94500D01*
X388425Y-93600D01*
X388150Y-92800D01*
X387783Y-92200D01*
X387233Y-91700D01*
X386500Y-91500D01*
G01X393000D02*
X392267Y-91700D01*
X391717Y-92200D01*
X391350Y-92800D01*
X391075Y-93600D01*
X390983Y-94500D01*
X391075Y-95400D01*
X391350Y-96200D01*
X391717Y-96800D01*
X392267Y-97300D01*
X393000Y-97500D01*
X393733Y-97300D01*
X394283Y-96800D01*
X394650Y-96200D01*
X394925Y-95400D01*
X395017Y-94500D01*
X394925Y-93600D01*
X394650Y-92800D01*
X394283Y-92200D01*
X393733Y-91700D01*
X393000Y-91500D01*
G01X405542Y-99500D02*
X404625Y-98500D01*
X404167Y-97500D01*
Y-93500D01*
X404625Y-92500D01*
X405542Y-91500D01*
G01X410758Y-92500D02*
X411308Y-91900D01*
X411950Y-91600D01*
X412683Y-91500D01*
X413600Y-91700D01*
X414242Y-92200D01*
X414425Y-92800D01*
X414333Y-93400D01*
X413967Y-93900D01*
X412133Y-94900D01*
X411308Y-95600D01*
X410758Y-96600D01*
X410575Y-97500D01*
X414425D01*
G01X416983Y-96600D02*
X417533Y-97100D01*
X418175Y-97400D01*
X419000Y-97500D01*
X419825Y-97300D01*
X420467Y-96900D01*
X420925Y-96200D01*
X421017Y-95400D01*
X420833Y-94600D01*
X420375Y-94100D01*
X419733Y-93700D01*
X419092Y-93600D01*
X418450Y-93700D01*
X417625Y-94100D01*
X417900Y-91500D01*
X420375D01*
G01X425500Y-97500D02*
Y-91500D01*
X424400Y-92700D01*
G01Y-97500D02*
X426600D01*
G01X432000Y-91500D02*
X431267Y-91700D01*
X430717Y-92200D01*
X430350Y-92800D01*
X430075Y-93600D01*
X429983Y-94500D01*
X430075Y-95400D01*
X430350Y-96200D01*
X430717Y-96800D01*
X431267Y-97300D01*
X432000Y-97500D01*
X432733Y-97300D01*
X433283Y-96800D01*
X433650Y-96200D01*
X433925Y-95400D01*
X434017Y-94500D01*
X433925Y-93600D01*
X433650Y-92800D01*
X433283Y-92200D01*
X432733Y-91700D01*
X432000Y-91500D01*
G01X436483Y-96300D02*
X437033Y-97000D01*
X437767Y-97400D01*
X438592Y-97500D01*
X439325Y-97400D01*
X440058Y-96900D01*
X440517Y-96300D01*
X440608Y-95700D01*
X440425Y-95000D01*
X439783Y-94500D01*
X439142Y-94300D01*
X438317D01*
G01X439142D02*
X439692Y-94000D01*
X440150Y-93500D01*
X440333Y-92900D01*
X440150Y-92300D01*
X439692Y-91800D01*
X438867Y-91500D01*
X438042Y-91600D01*
X437217Y-92000D01*
G01X445000Y-91500D02*
X444267Y-91700D01*
X443717Y-92200D01*
X443350Y-92800D01*
X443075Y-93600D01*
X442983Y-94500D01*
X443075Y-95400D01*
X443350Y-96200D01*
X443717Y-96800D01*
X444267Y-97300D01*
X445000Y-97500D01*
X445733Y-97300D01*
X446283Y-96800D01*
X446650Y-96200D01*
X446925Y-95400D01*
X447017Y-94500D01*
X446925Y-93600D01*
X446650Y-92800D01*
X446283Y-92200D01*
X445733Y-91700D01*
X445000Y-91500D01*
G01X451500D02*
X450767Y-91700D01*
X450217Y-92200D01*
X449850Y-92800D01*
X449575Y-93600D01*
X449483Y-94500D01*
X449575Y-95400D01*
X449850Y-96200D01*
X450217Y-96800D01*
X450767Y-97300D01*
X451500Y-97500D01*
X452233Y-97300D01*
X452783Y-96800D01*
X453150Y-96200D01*
X453425Y-95400D01*
X453517Y-94500D01*
X453425Y-93600D01*
X453150Y-92800D01*
X452783Y-92200D01*
X452233Y-91700D01*
X451500Y-91500D01*
G01X458458Y-99500D02*
X459375Y-98500D01*
X459833Y-97500D01*
Y-93500D01*
X459375Y-92500D01*
X458458Y-91500D01*
M02*
