G04 ================== begin FILE IDENTIFICATION RECORD ==================*
G04 Layout Name:  2510300_REV-D.brd*
G04 Film Name:    L12_sig5.gbr*
G04 File Format:  Gerber RS274X*
G04 File Origin:  Cadence Allegro 16.6-2015-S051*
G04 Origin Date:  Tue Apr 12 06:53:57 2016*
G04 *
G04 Layer:  VIA CLASS/L12_SIG5*
G04 Layer:  PIN/L12_SIG5*
G04 Layer:  ETCH/L12_SIG5*
G04 Layer:  DRAWING FORMAT/TITLE_BLOCK*
G04 *
G04 Offset:    (0.00 0.00)*
G04 Mirror:    No*
G04 Mode:      Positive*
G04 Rotation:  0*
G04 FullContactRelief:  No*
G04 UndefLineWidth:     0.00*
G04 ================== end FILE IDENTIFICATION RECORD ====================*
%FSLAX25Y25*MOIN*%
%IR0*IPPOS*OFA0.00000B0.00000*MIA0B0*SFA1.00000B1.00000*%
%ADD15C,.06*%
%ADD14C,.025*%
%ADD11C,.07*%
%ADD10C,.016*%
%ADD12C,.055*%
%ADD13C,.094*%
%ADD16C,.02*%
%ADD17C,.011*%
%ADD18C,.004*%
%ADD19C,.006*%
%ADD20C,.008*%
%ADD21C,.00399*%
%ADD23C,.02604*%
%ADD22C,.06504*%
%ADD24C,.04904*%
G75*
%LPD*%
G75*
G36*
G01X153300Y331700D02*
Y380500D01*
X160100Y387300D01*
X307690D01*
X307936Y386716D01*
X307844Y386621D01*
G03X310356I1256J-1221D01*
G01X310264Y386716D01*
X310510Y387300D01*
X338845D01*
X339118Y386764D01*
X339046Y386665D01*
G03X341154I1054J-765D01*
G01X341082Y386764D01*
X341355Y387300D01*
X372500D01*
X380200Y379600D01*
Y346400D01*
X379887Y346087D01*
X379697Y346278D01*
X379689Y346346D01*
G03X377128Y345895I-1293J-155D01*
G01X377150Y345801D01*
X376836Y345404D01*
X376019D01*
X375705Y345801D01*
X375727Y345895D01*
G03X373191I-1268J297D01*
G01X373213Y345801D01*
X372899Y345404D01*
X370196D01*
X369734Y345866D01*
Y347034D01*
X370200Y347500D01*
Y348510D01*
X370502Y348826D01*
X370582Y348829D01*
G03Y351431I-60J1301D01*
G01X370502Y351434D01*
X370200Y351750D01*
Y352446D01*
X370502Y352762D01*
X370582Y352765D01*
G03Y355367I-60J1301D01*
G01X370502Y355370D01*
X370200Y355686D01*
Y356384D01*
X370502Y356700D01*
X370582Y356703D01*
G03Y359305I-60J1301D01*
G01X370502Y359308D01*
X370200Y359624D01*
Y360321D01*
X370502Y360637D01*
X370582Y360640D01*
G03X370416Y363239I-60J1301D01*
G01X370408Y363238D01*
X370200D01*
Y363500D01*
X368000Y365700D01*
Y367629D01*
X368561Y367889D01*
X368658Y367806D01*
G03Y369794I842J994D01*
G01X368561Y369711D01*
X368000Y369971D01*
Y371800D01*
X357800Y382000D01*
X252800D01*
X246700Y375900D01*
X238261D01*
X238202Y375993D01*
G03X235998I-1102J-693D01*
G01X235939Y375900D01*
X199700D01*
X179100Y355300D01*
Y340000D01*
X170800Y331700D01*
X153300D01*
G37*
%LPC*%
G75*
G54D23*
X178334Y380066D03*
X378396Y350130D03*
X374459D03*
X378396Y354066D03*
Y358004D03*
X374459D03*
Y354066D03*
Y361941D03*
X367000Y376900D03*
X378396Y361941D03*
G54D22*
X157500Y357500D03*
Y347500D03*
X167500Y357500D03*
Y347500D03*
Y337500D03*
X157500Y377500D03*
Y367500D03*
X167500Y377500D03*
Y367500D03*
G54D24*
X189315Y371700D03*
%LPD*%
G75*
G54D10*
X20900Y141700D03*
X67200Y160553D03*
Y157648D03*
X81480Y153180D03*
X79620Y150820D03*
X81000Y172400D03*
X86400Y178000D03*
X79440Y174440D03*
X79590Y164990D03*
X80550Y167350D03*
X81850Y186250D03*
X79590Y183890D03*
X79900Y302000D03*
X85470Y316170D03*
X85800Y319200D03*
X90760Y304360D03*
X83626Y325027D03*
X98240Y154360D03*
X97000Y156600D03*
X100300Y152000D03*
X99400Y164500D03*
X100100Y167200D03*
X100070Y187430D03*
X97200Y318400D03*
X96200Y306200D03*
X114750Y177713D03*
X114300Y170900D03*
X112240Y173260D03*
X114750Y180618D03*
X113830Y185070D03*
X114550Y309548D03*
Y312453D03*
X113880Y303180D03*
X111350Y320150D03*
X223500Y167500D03*
X247764D03*
X240100Y205300D03*
X259100Y195600D03*
X282300Y192000D03*
X281800Y198000D03*
X315382Y310760D03*
X319319Y314696D03*
X315382D03*
X319319Y318634D03*
X315382D03*
Y326508D03*
Y330445D03*
X311445Y346193D03*
X319319Y338319D03*
X311445Y342256D03*
X315382Y346193D03*
X311445Y338319D03*
X319319Y342256D03*
Y346193D03*
X331130Y318634D03*
X327193D03*
Y314696D03*
X331130Y310760D03*
X323256Y314696D03*
Y310760D03*
Y334382D03*
Y342256D03*
X342141Y175296D03*
X346078D03*
X342141Y171359D03*
X346078D03*
X339004Y314696D03*
X365785Y120156D03*
X361848Y179234D03*
X369722D03*
X365785Y187108D03*
X361848Y183170D03*
X369722D03*
X365785D03*
X369722Y191044D03*
X370522Y251682D03*
Y267429D03*
Y346192D03*
X377596Y187108D03*
X373659Y191044D03*
Y187108D03*
X377596Y191044D03*
X382334Y255618D03*
X386271Y267429D03*
X374459Y267430D03*
X390208Y267429D03*
X378396Y267430D03*
X382334Y263492D03*
X378396Y271366D03*
Y318634D03*
X382334D03*
Y314696D03*
X390208Y302885D03*
X378396Y314696D03*
X386270Y334382D03*
X390207D03*
Y342256D03*
Y338319D03*
X405956Y251681D03*
X394145Y267429D03*
X398082Y306822D03*
X405956Y314696D03*
X402018Y334382D03*
X398081Y326508D03*
X402018D03*
Y322571D03*
Y338319D03*
X394144D03*
Y342256D03*
X409893Y247744D03*
Y255618D03*
Y251681D03*
X434700Y267500D03*
X441600Y262100D03*
X437200Y302300D03*
X432400Y290800D03*
X439900Y312300D03*
X441400Y310800D03*
X451300Y264300D03*
X474700Y262300D03*
X479100Y182900D03*
X487400Y210800D03*
X489951Y220250D03*
X488000Y276900D03*
X529809Y195762D03*
X526660Y205211D03*
Y224191D03*
X529809D03*
Y217809D03*
X526660Y233640D03*
X529809Y246238D03*
X515500Y315600D03*
X539340Y224191D03*
Y230490D03*
X542490Y227340D03*
Y230490D03*
Y224191D03*
X539340Y227340D03*
X542490Y246238D03*
X539340Y236789D03*
Y246238D03*
Y239939D03*
Y243088D03*
Y233640D03*
X542490D03*
Y236789D03*
Y239939D03*
Y243088D03*
X607500Y186000D03*
Y191000D03*
Y196000D03*
Y188500D03*
Y193500D03*
Y198500D03*
Y208500D03*
Y213500D03*
Y203500D03*
Y201000D03*
Y206000D03*
Y211000D03*
Y221000D03*
Y223500D03*
Y218500D03*
Y216000D03*
X619700Y315100D03*
X621483Y343417D03*
X655516Y356216D03*
X689000Y347400D03*
X673232Y356068D03*
G54D20*
G01X258500Y-125000D02*
Y-117000D01*
X261000D01*
X262000Y-117400D01*
X262750Y-117933D01*
X263375Y-118733D01*
X263875Y-119667D01*
X264000Y-121000D01*
X263875Y-122333D01*
X263375Y-123267D01*
X262750Y-124067D01*
X262000Y-124600D01*
X261000Y-125000D01*
X258500D01*
G01X266625D02*
X269750Y-117000D01*
X272875Y-125000D01*
G01X271750Y-122200D02*
X267750D01*
G01X278250Y-117000D02*
Y-125000D01*
G01X275375Y-117000D02*
X281125D01*
G01X289250Y-125000D02*
X284250D01*
Y-117000D01*
X289250D01*
G01X287250Y-120867D02*
X284250D01*
G01X295250Y-125267D02*
X295000Y-125133D01*
Y-124867D01*
X295250Y-124733D01*
X295500Y-124867D01*
Y-125133D01*
X295250Y-125267D01*
G01Y-121667D02*
X295000Y-121533D01*
Y-121267D01*
X295250Y-121133D01*
X295500Y-121267D01*
Y-121533D01*
X295250Y-121667D01*
G01X267750Y-70000D02*
Y-62000D01*
X270250D01*
X271250Y-62400D01*
X272000Y-62933D01*
X272625Y-63733D01*
X273125Y-64667D01*
X273250Y-66000D01*
X273125Y-67333D01*
X272625Y-68267D01*
X272000Y-69067D01*
X271250Y-69600D01*
X270250Y-70000D01*
X267750D01*
G01X277500Y-62000D02*
X280500D01*
G01X279000D02*
Y-70000D01*
G01X277500D02*
X280500D01*
G01X288250Y-66000D02*
X290750D01*
Y-68400D01*
X290000Y-69200D01*
X289125Y-69733D01*
X287875Y-70000D01*
X286625Y-69733D01*
X285750Y-69200D01*
X285000Y-68400D01*
X284500Y-67467D01*
X284250Y-66400D01*
Y-65467D01*
X284500Y-64667D01*
X285000Y-63733D01*
X285750Y-62933D01*
X286500Y-62400D01*
X287500Y-62000D01*
X288375D01*
X289375Y-62267D01*
X290125Y-62800D01*
G01X294500Y-62000D02*
X297500D01*
G01X296000D02*
Y-70000D01*
G01X294500D02*
X297500D01*
G01X304500Y-62000D02*
Y-70000D01*
G01X301625Y-62000D02*
X307375D01*
G01X309875Y-70000D02*
X313000Y-62000D01*
X316125Y-70000D01*
G01X315000Y-67200D02*
X311000D01*
G01X319000Y-62000D02*
Y-70000D01*
X324000D01*
G01X336000Y-62000D02*
Y-70000D01*
X341000D01*
G01X345500Y-62000D02*
X348500D01*
G01X347000D02*
Y-70000D01*
G01X345500D02*
X348500D01*
G01X356250Y-66000D02*
X358750D01*
Y-68400D01*
X358000Y-69200D01*
X357125Y-69733D01*
X355875Y-70000D01*
X354625Y-69733D01*
X353750Y-69200D01*
X353000Y-68400D01*
X352500Y-67467D01*
X352250Y-66400D01*
Y-65467D01*
X352500Y-64667D01*
X353000Y-63733D01*
X353750Y-62933D01*
X354500Y-62400D01*
X355500Y-62000D01*
X356375D01*
X357375Y-62267D01*
X358125Y-62800D01*
G01X361375Y-70000D02*
Y-62000D01*
G01X366625D02*
Y-70000D01*
G01Y-66000D02*
X361375D01*
G01X372500Y-62000D02*
Y-70000D01*
G01X369625Y-62000D02*
X375375D01*
G01X388000D02*
X391000D01*
G01X389500D02*
Y-70000D01*
G01X388000D02*
X391000D01*
G01X395125D02*
Y-62000D01*
X400875Y-70000D01*
Y-62000D01*
G01X403625Y-70000D02*
Y-62000D01*
X409375Y-70000D01*
Y-62000D01*
G01X415000Y-70000D02*
X414000Y-69867D01*
X413125Y-69333D01*
X412375Y-68533D01*
X411875Y-67600D01*
X411625Y-66533D01*
Y-65467D01*
X411875Y-64400D01*
X412375Y-63467D01*
X413125Y-62667D01*
X414000Y-62133D01*
X415000Y-62000D01*
X416000Y-62133D01*
X416875Y-62667D01*
X417625Y-63467D01*
X418125Y-64400D01*
X418375Y-65467D01*
Y-66533D01*
X418125Y-67600D01*
X417625Y-68533D01*
X416875Y-69333D01*
X416000Y-69867D01*
X415000Y-70000D01*
G01X420375Y-62000D02*
X423500Y-70000D01*
X426625Y-62000D01*
G01X428875Y-70000D02*
X432000Y-62000D01*
X435125Y-70000D01*
G01X434000Y-67200D02*
X430000D01*
G01X440500Y-62000D02*
Y-70000D01*
G01X437625Y-62000D02*
X443375D01*
G01X447500D02*
X450500D01*
G01X449000D02*
Y-70000D01*
G01X447500D02*
X450500D01*
G01X457500D02*
X456500Y-69867D01*
X455625Y-69333D01*
X454875Y-68533D01*
X454375Y-67600D01*
X454125Y-66533D01*
Y-65467D01*
X454375Y-64400D01*
X454875Y-63467D01*
X455625Y-62667D01*
X456500Y-62133D01*
X457500Y-62000D01*
X458500Y-62133D01*
X459375Y-62667D01*
X460125Y-63467D01*
X460625Y-64400D01*
X460875Y-65467D01*
Y-66533D01*
X460625Y-67600D01*
X460125Y-68533D01*
X459375Y-69333D01*
X458500Y-69867D01*
X457500Y-70000D01*
G01X463125D02*
Y-62000D01*
X468875Y-70000D01*
Y-62000D01*
G01X471875Y-68934D02*
X472875Y-69600D01*
X474000Y-70000D01*
X475000D01*
X476000Y-69600D01*
X476750Y-68934D01*
X477125Y-68000D01*
X476875Y-67067D01*
X476250Y-66267D01*
X475125Y-65733D01*
X473625Y-65467D01*
X472750Y-64933D01*
X472375Y-64000D01*
X472625Y-63067D01*
X473250Y-62400D01*
X474125Y-62000D01*
X475000D01*
X475875Y-62267D01*
X476625Y-62933D01*
G01X316250Y-117000D02*
X315250Y-117267D01*
X314500Y-117933D01*
X314000Y-118733D01*
X313625Y-119800D01*
X313500Y-121000D01*
X313625Y-122200D01*
X314000Y-123267D01*
X314500Y-124067D01*
X315250Y-124733D01*
X316250Y-125000D01*
X317250Y-124733D01*
X318000Y-124067D01*
X318500Y-123267D01*
X318875Y-122200D01*
X319000Y-121000D01*
X318875Y-119800D01*
X318500Y-118733D01*
X318000Y-117933D01*
X317250Y-117267D01*
X316250Y-117000D01*
G01X326250Y-125000D02*
Y-117000D01*
X321625Y-122733D01*
X327875D01*
G01X331000Y-125267D02*
X335500Y-117000D01*
G01X341750Y-125000D02*
Y-117000D01*
X340250Y-118600D01*
G01Y-125000D02*
X343250D01*
G01X347875Y-118333D02*
X348625Y-117533D01*
X349500Y-117133D01*
X350500Y-117000D01*
X351750Y-117267D01*
X352625Y-117933D01*
X352875Y-118733D01*
X352750Y-119534D01*
X352250Y-120200D01*
X349750Y-121533D01*
X348625Y-122467D01*
X347875Y-123800D01*
X347625Y-125000D01*
X352875D01*
G01X356500Y-125267D02*
X361000Y-117000D01*
G01X364875Y-118333D02*
X365625Y-117533D01*
X366500Y-117133D01*
X367500Y-117000D01*
X368750Y-117267D01*
X369625Y-117933D01*
X369875Y-118733D01*
X369750Y-119534D01*
X369250Y-120200D01*
X366750Y-121533D01*
X365625Y-122467D01*
X364875Y-123800D01*
X364625Y-125000D01*
X369875D01*
G01X375750Y-117000D02*
X374750Y-117267D01*
X374000Y-117933D01*
X373500Y-118733D01*
X373125Y-119800D01*
X373000Y-121000D01*
X373125Y-122200D01*
X373500Y-123267D01*
X374000Y-124067D01*
X374750Y-124733D01*
X375750Y-125000D01*
X376750Y-124733D01*
X377500Y-124067D01*
X378000Y-123267D01*
X378375Y-122200D01*
X378500Y-121000D01*
X378375Y-119800D01*
X378000Y-118733D01*
X377500Y-117933D01*
X376750Y-117267D01*
X375750Y-117000D01*
G01X384250Y-125000D02*
Y-117000D01*
X382750Y-118600D01*
G01Y-125000D02*
X385750D01*
G01X390375Y-121667D02*
X391250Y-120733D01*
X392000Y-120200D01*
X393000Y-119933D01*
X393875Y-120200D01*
X394500Y-120733D01*
X395000Y-121533D01*
X395125Y-122467D01*
X395000Y-123267D01*
X394500Y-124067D01*
X393750Y-124733D01*
X392875Y-125000D01*
X391875Y-124733D01*
X391000Y-123934D01*
X390500Y-122733D01*
X390375Y-121400D01*
X390625Y-119667D01*
X391000Y-118733D01*
X391625Y-117800D01*
X392500Y-117133D01*
X393375Y-117000D01*
X394250Y-117267D01*
X394875Y-117933D01*
G01X408750Y-125000D02*
Y-117000D01*
X411875D01*
X412875Y-117400D01*
X413500Y-117933D01*
X413750Y-119000D01*
X413500Y-120067D01*
X412750Y-120733D01*
X411875Y-121133D01*
X408750D01*
G01X411875D02*
X413750Y-125000D01*
G01X422250D02*
X417250D01*
Y-117000D01*
X422250D01*
G01X420250Y-120867D02*
X417250D01*
G01X425125Y-117000D02*
X428250Y-125000D01*
X431375Y-117000D01*
G01X436750Y-125267D02*
X436500Y-125133D01*
Y-124867D01*
X436750Y-124733D01*
X437000Y-124867D01*
Y-125133D01*
X436750Y-125267D01*
G01Y-121667D02*
X436500Y-121533D01*
Y-121267D01*
X436750Y-121133D01*
X437000Y-121267D01*
Y-121533D01*
X436750Y-121667D01*
G01X459750Y-125000D02*
Y-117000D01*
X462250D01*
X463250Y-117400D01*
X464000Y-117933D01*
X464625Y-118733D01*
X465125Y-119667D01*
X465250Y-121000D01*
X465125Y-122333D01*
X464625Y-123267D01*
X464000Y-124067D01*
X463250Y-124600D01*
X462250Y-125000D01*
X459750D01*
G54D11*
X61000Y353000D03*
X124000Y11000D03*
Y23500D03*
Y36000D03*
X234000Y197500D03*
X486500Y243000D03*
G54D21*
G01X67200Y160553D02*
X68053Y159700D01*
X70786D01*
X75201Y164114D01*
Y187114D01*
X79901Y191814D01*
Y195814D01*
X82801Y198714D01*
Y199414D01*
X86701Y203314D01*
Y232814D01*
X90786Y236899D01*
X101186D01*
X111486Y247199D01*
X113386D01*
X117601Y251414D01*
Y264114D01*
X127086Y273599D01*
X138386D01*
X144986Y280199D01*
X160186D01*
X173486Y293499D01*
X175686D01*
X176686Y294499D01*
X189486D01*
X211308Y316321D01*
Y317407D01*
X218200Y324300D01*
X230885D01*
X231698Y323487D01*
Y315527D01*
X231926Y315299D01*
X232247D01*
X232475Y315527D01*
Y332488D01*
X233288Y333301D01*
X234437D01*
X235250Y332488D01*
Y315527D01*
X235478Y315299D01*
X235799D01*
X236027Y315527D01*
Y332488D01*
X236840Y333301D01*
X237989D01*
X238802Y332488D01*
Y315527D01*
X239030Y315299D01*
X239351D01*
X239579Y315527D01*
Y332488D01*
X240392Y333301D01*
X241541D01*
X242354Y332488D01*
Y315527D01*
X242582Y315299D01*
X242903D01*
X243131Y315527D01*
Y332488D01*
X243944Y333301D01*
X245093D01*
X245906Y332488D01*
Y324528D01*
X246134Y324300D01*
X258000D01*
X262800Y329100D01*
Y329600D01*
X275399Y342199D01*
X286023D01*
X288548Y344724D01*
X291099D01*
X291121Y344702D01*
X301079D01*
X301080Y344703D01*
X306477D01*
X306478Y344702D01*
X309954D01*
X311445Y346193D01*
G01X67200Y157648D02*
X68453Y158901D01*
X71401D01*
X76200Y163700D01*
Y186700D01*
X80900Y191400D01*
Y195400D01*
X83800Y198300D01*
Y199000D01*
X87700Y202900D01*
Y232400D01*
X91200Y235900D01*
X101600D01*
X111900Y246200D01*
X113800D01*
X118600Y251000D01*
Y263700D01*
X127500Y272600D01*
X138800D01*
X145400Y279200D01*
X160600D01*
X173900Y292500D01*
X176100D01*
X177100Y293500D01*
X189900D01*
X212307Y315907D01*
Y316993D01*
X218614Y323301D01*
X230471D01*
X230699Y323073D01*
Y315113D01*
X231512Y314300D01*
X232661D01*
X233474Y315113D01*
Y332074D01*
X233702Y332302D01*
X234023D01*
X234251Y332074D01*
Y315113D01*
X235064Y314300D01*
X236213D01*
X237026Y315113D01*
Y332074D01*
X237254Y332302D01*
X237575D01*
X237803Y332074D01*
Y315113D01*
X238616Y314300D01*
X239765D01*
X240578Y315113D01*
Y332074D01*
X240806Y332302D01*
X241127D01*
X241355Y332074D01*
Y315113D01*
X242168Y314300D01*
X243317D01*
X244130Y315113D01*
Y332074D01*
X244358Y332302D01*
X244679D01*
X244907Y332074D01*
Y324114D01*
X245720Y323301D01*
X258414D01*
X263799Y328686D01*
Y329186D01*
X275813Y341200D01*
X286437D01*
X288962Y343725D01*
X290706D01*
X290728Y343703D01*
X291099D01*
X291142Y343746D01*
X292376D01*
X292419Y343703D01*
X295036D01*
X295079Y343746D01*
X296313D01*
X296356Y343703D01*
X298974D01*
X299017Y343746D01*
X300251D01*
X300294Y343703D01*
X301079D01*
X301080Y343704D01*
X302912D01*
X302954Y343746D01*
X304188D01*
X304230Y343704D01*
X306476D01*
X306477Y343703D01*
X306848D01*
X306891Y343746D01*
X308125D01*
X308168Y343703D01*
X309998D01*
X311445Y342256D01*
G01X327193Y314696D02*
Y312867D01*
X325400Y311074D01*
Y310702D01*
X323968Y309270D01*
X322000D01*
X321050Y308320D01*
Y305850D01*
X319755Y304555D01*
X294604D01*
X293249Y303200D01*
Y298331D01*
X292018Y297100D01*
X291600D01*
X288664Y294164D01*
X288161D01*
X286836Y292839D01*
Y292336D01*
X254900Y260400D01*
X252800D01*
X251570Y259170D01*
X251248D01*
X250570Y259848D01*
X250248D01*
X250020Y259620D01*
Y259298D01*
X250698Y258620D01*
Y258298D01*
X250470Y258070D01*
X250148D01*
X249470Y258748D01*
X249148D01*
X248920Y258520D01*
Y258198D01*
X249598Y257520D01*
Y257198D01*
X249370Y256970D01*
X249048D01*
X248370Y257648D01*
X248048D01*
X247820Y257420D01*
Y257098D01*
X248498Y256420D01*
Y256098D01*
X248270Y255870D01*
X247948D01*
X247270Y256548D01*
X246948D01*
X246720Y256320D01*
Y255998D01*
X247398Y255320D01*
Y254998D01*
X247170Y254770D01*
X246848D01*
X246170Y255448D01*
X245848D01*
X245620Y255220D01*
Y254898D01*
X246298Y254220D01*
Y253898D01*
X246070Y253670D01*
X245748D01*
X245070Y254348D01*
X244748D01*
X244520Y254120D01*
Y253798D01*
X245198Y253120D01*
Y252798D01*
X244970Y252570D01*
X244648D01*
X243970Y253248D01*
X243648D01*
X243420Y253020D01*
Y252698D01*
X244098Y252020D01*
Y251698D01*
X243870Y251470D01*
X243548D01*
X242870Y252148D01*
X242548D01*
X242320Y251920D01*
Y251598D01*
X242998Y250920D01*
Y250598D01*
X242770Y250370D01*
X242448D01*
X241770Y251048D01*
X241448D01*
X241220Y250820D01*
Y250498D01*
X241898Y249820D01*
Y249498D01*
X241670Y249270D01*
X241348D01*
X240670Y249948D01*
X240348D01*
X240120Y249720D01*
Y249398D01*
X240798Y248720D01*
Y248398D01*
X240570Y248170D01*
X240248D01*
X239570Y248848D01*
X239248D01*
X239020Y248620D01*
Y248298D01*
X239698Y247620D01*
Y247298D01*
X239470Y247070D01*
X239148D01*
X238470Y247748D01*
X238148D01*
X237920Y247520D01*
Y247198D01*
X238598Y246520D01*
Y246198D01*
X238370Y245970D01*
X238048D01*
X237370Y246648D01*
X237048D01*
X236820Y246420D01*
Y246098D01*
X237498Y245420D01*
Y245098D01*
X237270Y244870D01*
X236948D01*
X236270Y245548D01*
X235948D01*
X235720Y245320D01*
Y244998D01*
X236398Y244320D01*
Y243998D01*
X229600Y237200D01*
Y236104D01*
X229828Y235876D01*
X230272D01*
X230500Y235648D01*
Y235327D01*
X230272Y235099D01*
X229828D01*
X229600Y234871D01*
Y234550D01*
X229828Y234322D01*
X230272D01*
X230500Y234094D01*
Y233773D01*
X230272Y233545D01*
X229828D01*
X229600Y233317D01*
Y232996D01*
X229828Y232768D01*
X230272D01*
X230500Y232540D01*
Y232219D01*
X230272Y231991D01*
X229828D01*
X229600Y231763D01*
Y231442D01*
X229828Y231214D01*
X230272D01*
X230500Y230986D01*
Y230665D01*
X230272Y230437D01*
X229828D01*
X229600Y230209D01*
Y229888D01*
X229828Y229660D01*
X230272D01*
X230500Y229432D01*
Y229111D01*
X230272Y228883D01*
X229828D01*
X229600Y228655D01*
Y228334D01*
X229828Y228106D01*
X230272D01*
X230500Y227878D01*
Y227557D01*
X230272Y227329D01*
X229828D01*
X229600Y227101D01*
Y226780D01*
X229828Y226552D01*
X230272D01*
X230500Y226324D01*
Y226003D01*
X230272Y225775D01*
X229828D01*
X229600Y225547D01*
Y225226D01*
X229828Y224998D01*
X230272D01*
X230500Y224770D01*
Y224449D01*
X230272Y224221D01*
X229828D01*
X229600Y223993D01*
Y223672D01*
X229828Y223444D01*
X230272D01*
X230500Y223216D01*
Y222895D01*
X230272Y222667D01*
X229828D01*
X229600Y222439D01*
Y222118D01*
X229828Y221890D01*
X230272D01*
X230500Y221662D01*
Y221341D01*
X230272Y221113D01*
X229828D01*
X229600Y220885D01*
Y220564D01*
X229828Y220336D01*
X230272D01*
X230500Y220108D01*
Y219787D01*
X230272Y219559D01*
X229828D01*
X229600Y219331D01*
Y219010D01*
X229828Y218782D01*
X230272D01*
X230500Y218554D01*
Y218233D01*
X230272Y218005D01*
X229828D01*
X229600Y217777D01*
Y217456D01*
X229828Y217228D01*
X230272D01*
X230500Y217000D01*
Y216679D01*
X230272Y216451D01*
X229828D01*
X229600Y216223D01*
Y215902D01*
X229828Y215674D01*
X230272D01*
X230500Y215446D01*
Y215125D01*
X230272Y214897D01*
X229828D01*
X229600Y214669D01*
Y214348D01*
X229828Y214120D01*
X230272D01*
X230500Y213892D01*
Y213571D01*
X230272Y213343D01*
X229828D01*
X229600Y213115D01*
Y208300D01*
X226200Y204900D01*
X221900D01*
X212800Y195800D01*
X204200D01*
X188206Y179806D01*
Y179484D01*
X188534Y179156D01*
Y178834D01*
X188306Y178606D01*
X187984D01*
X187656Y178934D01*
X187334D01*
X187106Y178706D01*
Y178384D01*
X187434Y178056D01*
Y177734D01*
X187206Y177506D01*
X186884D01*
X186556Y177834D01*
X186234D01*
X186006Y177606D01*
Y177284D01*
X186334Y176956D01*
Y176634D01*
X186106Y176406D01*
X185784D01*
X185456Y176734D01*
X185134D01*
X184906Y176506D01*
Y176184D01*
X185234Y175856D01*
Y175534D01*
X185006Y175306D01*
X184684D01*
X184356Y175634D01*
X184034D01*
X183806Y175406D01*
Y175084D01*
X184134Y174756D01*
Y174434D01*
X183906Y174206D01*
X183584D01*
X183256Y174534D01*
X182934D01*
X182706Y174306D01*
Y173984D01*
X183034Y173656D01*
Y173334D01*
X182806Y173106D01*
X182484D01*
X182156Y173434D01*
X181834D01*
X181606Y173206D01*
Y172884D01*
X181934Y172556D01*
Y172234D01*
X181706Y172006D01*
X181384D01*
X181056Y172334D01*
X180734D01*
X180506Y172106D01*
Y171784D01*
X180834Y171456D01*
Y171134D01*
X180606Y170906D01*
X180284D01*
X179956Y171234D01*
X179634D01*
X179406Y171006D01*
Y170684D01*
X179734Y170356D01*
Y170034D01*
X179506Y169806D01*
X179184D01*
X178856Y170134D01*
X178534D01*
X178306Y169906D01*
Y169584D01*
X178634Y169256D01*
Y168934D01*
X178406Y168706D01*
X178084D01*
X177756Y169034D01*
X177434D01*
X177206Y168806D01*
Y168484D01*
X177534Y168156D01*
Y167834D01*
X177306Y167606D01*
X176984D01*
X176656Y167934D01*
X176334D01*
X176106Y167706D01*
Y167384D01*
X176434Y167056D01*
Y166734D01*
X176206Y166506D01*
X175884D01*
X175556Y166834D01*
X175234D01*
X175006Y166606D01*
Y166284D01*
X175334Y165956D01*
Y165634D01*
X175106Y165406D01*
X174784D01*
X174456Y165734D01*
X174134D01*
X173906Y165506D01*
Y165184D01*
X174234Y164856D01*
Y164534D01*
X174006Y164306D01*
X173684D01*
X173356Y164634D01*
X173034D01*
X172806Y164406D01*
Y164084D01*
X173134Y163756D01*
Y163434D01*
X172906Y163206D01*
X172584D01*
X172256Y163534D01*
X171934D01*
X171706Y163306D01*
Y162984D01*
X172034Y162656D01*
Y162334D01*
X171806Y162106D01*
X171484D01*
X171156Y162434D01*
X170834D01*
X169200Y160800D01*
X160800D01*
X145200Y145200D01*
X140777D01*
X140549Y144972D01*
Y142528D01*
X140321Y142300D01*
X140000D01*
X139772Y142528D01*
Y144972D01*
X139544Y145200D01*
X139223D01*
X138995Y144972D01*
Y142528D01*
X138767Y142300D01*
X138446D01*
X138218Y142528D01*
Y144972D01*
X137990Y145200D01*
X137669D01*
X137441Y144972D01*
Y142528D01*
X137213Y142300D01*
X136892D01*
X136664Y142528D01*
Y144972D01*
X136436Y145200D01*
X136115D01*
X135887Y144972D01*
Y142528D01*
X135659Y142300D01*
X135338D01*
X135110Y142528D01*
Y144972D01*
X134882Y145200D01*
X134561D01*
X134333Y144972D01*
Y142528D01*
X134105Y142300D01*
X133784D01*
X133556Y142528D01*
Y144972D01*
X133328Y145200D01*
X133007D01*
X132779Y144972D01*
Y142528D01*
X132551Y142300D01*
X132230D01*
X132002Y142528D01*
Y144972D01*
X131774Y145200D01*
X131453D01*
X131225Y144972D01*
Y142528D01*
X130997Y142300D01*
X130676D01*
X130448Y142528D01*
Y144972D01*
X130220Y145200D01*
X129899D01*
X129671Y144972D01*
Y142528D01*
X129443Y142300D01*
X129122D01*
X128894Y142528D01*
Y144972D01*
X128666Y145200D01*
X128345D01*
X128117Y144972D01*
Y142528D01*
X127889Y142300D01*
X127568D01*
X127340Y142528D01*
Y144972D01*
X127112Y145200D01*
X121500D01*
X118550Y148150D01*
X110391D01*
X110163Y147922D01*
Y143928D01*
X109935Y143700D01*
X109614D01*
X109386Y143928D01*
Y147922D01*
X109158Y148150D01*
X108837D01*
X108609Y147922D01*
Y143928D01*
X108381Y143700D01*
X108060D01*
X107832Y143928D01*
Y147922D01*
X107604Y148150D01*
X107283D01*
X107055Y147922D01*
Y143928D01*
X106827Y143700D01*
X106506D01*
X106278Y143928D01*
Y147922D01*
X106050Y148150D01*
X105729D01*
X105501Y147922D01*
Y143928D01*
X105273Y143700D01*
X104952D01*
X104724Y143928D01*
Y147922D01*
X104496Y148150D01*
X104175D01*
X103947Y147922D01*
Y143928D01*
X103719Y143700D01*
X103398D01*
X103170Y143928D01*
Y147922D01*
X102942Y148150D01*
X100461D01*
X95431Y153180D01*
X81480D01*
G01X79620Y150820D02*
X90980D01*
X99100Y142700D01*
X110593D01*
X112293Y144400D01*
X121233D01*
X124233Y141400D01*
X142600D01*
X160900Y159700D01*
X170500D01*
X179810Y169010D01*
X180132D01*
X182610Y166532D01*
X182932D01*
X183160Y166760D01*
Y167082D01*
X180682Y169560D01*
Y169882D01*
X180910Y170110D01*
X181232D01*
X183710Y167632D01*
X184032D01*
X184260Y167860D01*
Y168182D01*
X181782Y170660D01*
Y170982D01*
X182010Y171210D01*
X182332D01*
X184810Y168732D01*
X185132D01*
X185360Y168960D01*
Y169282D01*
X182882Y171760D01*
Y172082D01*
X183110Y172310D01*
X183432D01*
X185910Y169832D01*
X186232D01*
X186460Y170060D01*
Y170382D01*
X183982Y172860D01*
Y173182D01*
X184210Y173410D01*
X184532D01*
X187010Y170932D01*
X187332D01*
X187560Y171160D01*
Y171482D01*
X185082Y173960D01*
Y174282D01*
X185310Y174510D01*
X185632D01*
X188110Y172032D01*
X188432D01*
X188660Y172260D01*
Y172582D01*
X186182Y175060D01*
Y175382D01*
X186410Y175610D01*
X186732D01*
X189210Y173132D01*
X189532D01*
X189760Y173360D01*
Y173682D01*
X187282Y176160D01*
Y176482D01*
X187510Y176710D01*
X187832D01*
X190310Y174232D01*
X190632D01*
X190860Y174460D01*
Y174782D01*
X188382Y177260D01*
Y177582D01*
X188610Y177810D01*
X188932D01*
X191410Y175332D01*
X191732D01*
X191960Y175560D01*
Y175882D01*
X189482Y178360D01*
Y178682D01*
X189710Y178910D01*
X190032D01*
X192510Y176432D01*
X192832D01*
X193060Y176660D01*
Y176982D01*
X190582Y179460D01*
Y179782D01*
X190810Y180010D01*
X191132D01*
X193610Y177532D01*
X193932D01*
X194160Y177760D01*
Y178082D01*
X191682Y180560D01*
Y180882D01*
X191910Y181110D01*
X192232D01*
X194710Y178632D01*
X195032D01*
X195260Y178860D01*
Y179182D01*
X192782Y181660D01*
Y181982D01*
X193010Y182210D01*
X193332D01*
X195810Y179732D01*
X196132D01*
X196360Y179960D01*
Y180282D01*
X193882Y182760D01*
Y183082D01*
X194110Y183310D01*
X194432D01*
X196910Y180832D01*
X197232D01*
X197460Y181060D01*
Y181382D01*
X194982Y183860D01*
Y184182D01*
X195210Y184410D01*
X195532D01*
X198010Y181932D01*
X198332D01*
X198560Y182160D01*
Y182482D01*
X196082Y184960D01*
Y185282D01*
X196310Y185510D01*
X196632D01*
X199110Y183032D01*
X199432D01*
X199660Y183260D01*
Y183582D01*
X197182Y186060D01*
Y186382D01*
X197410Y186610D01*
X197732D01*
X200210Y184132D01*
X200532D01*
X200760Y184360D01*
Y184682D01*
X198282Y187160D01*
Y187482D01*
X198510Y187710D01*
X198832D01*
X201310Y185232D01*
X201632D01*
X201860Y185460D01*
Y185782D01*
X199382Y188260D01*
Y188582D01*
X199610Y188810D01*
X199932D01*
X202410Y186332D01*
X202732D01*
X202960Y186560D01*
Y186882D01*
X200482Y189360D01*
Y189682D01*
X200710Y189910D01*
X201032D01*
X203510Y187432D01*
X203832D01*
X204060Y187660D01*
Y187982D01*
X201582Y190460D01*
Y190782D01*
X201810Y191010D01*
X202132D01*
X204610Y188532D01*
X204932D01*
X205160Y188760D01*
Y189082D01*
X202682Y191560D01*
Y191882D01*
X204200Y193400D01*
X211900D01*
X221400Y202900D01*
X226000D01*
X231800Y208700D01*
Y237100D01*
X253800Y259100D01*
X256100D01*
X277300Y280300D01*
Y280600D01*
X287610Y290910D01*
Y291110D01*
X287611Y291111D01*
Y292517D01*
X288483Y293389D01*
X289889D01*
X292700Y296200D01*
X314741D01*
X316872Y298331D01*
Y299565D01*
X317745Y300438D01*
X320988D01*
X321766Y301216D01*
Y303666D01*
X323432Y305332D01*
X324924D01*
X325702Y306110D01*
Y307702D01*
X327270Y309270D01*
X327810D01*
X329300Y310760D01*
X331130D01*
G01Y318634D02*
X329464Y320300D01*
X288400D01*
X278600Y310500D01*
X271699D01*
X232499Y271300D01*
X225193D01*
X201954Y248061D01*
Y242456D01*
X198000Y238502D01*
Y234800D01*
X193490Y230290D01*
Y227185D01*
X189805Y223500D01*
X183715D01*
X183487Y223728D01*
Y229172D01*
X183259Y229400D01*
X182938D01*
X182710Y229172D01*
Y223728D01*
X182482Y223500D01*
X182161D01*
X181933Y223728D01*
Y229172D01*
X181705Y229400D01*
X181384D01*
X181156Y229172D01*
Y223728D01*
X180928Y223500D01*
X180607D01*
X180379Y223728D01*
Y229172D01*
X180151Y229400D01*
X179830D01*
X179602Y229172D01*
Y223728D01*
X179374Y223500D01*
X179053D01*
X178825Y223728D01*
Y229172D01*
X178597Y229400D01*
X178276D01*
X178048Y229172D01*
Y223728D01*
X177820Y223500D01*
X177499D01*
X177271Y223728D01*
Y229172D01*
X177043Y229400D01*
X176722D01*
X176494Y229172D01*
Y223728D01*
X176266Y223500D01*
X175945D01*
X175717Y223728D01*
Y229172D01*
X175489Y229400D01*
X175168D01*
X174940Y229172D01*
Y223728D01*
X174712Y223500D01*
X174391D01*
X174163Y223728D01*
Y229172D01*
X173935Y229400D01*
X173614D01*
X173386Y229172D01*
Y223728D01*
X173158Y223500D01*
X165900D01*
X163900Y221500D01*
Y221393D01*
X160292Y217785D01*
X158785D01*
X158546Y217546D01*
X158224D01*
X153796Y221974D01*
X153474D01*
X153246Y221746D01*
Y221424D01*
X157674Y216996D01*
Y216674D01*
X157446Y216446D01*
X157124D01*
X152696Y220874D01*
X152374D01*
X152146Y220646D01*
Y220324D01*
X156574Y215896D01*
Y215574D01*
X156346Y215346D01*
X156024D01*
X151596Y219774D01*
X151274D01*
X151046Y219546D01*
Y219224D01*
X155474Y214796D01*
Y214474D01*
X155246Y214246D01*
X154924D01*
X150496Y218674D01*
X150174D01*
X149946Y218446D01*
Y218124D01*
X154374Y213696D01*
Y213374D01*
X154146Y213146D01*
X153824D01*
X149396Y217574D01*
X149074D01*
X148846Y217346D01*
Y217024D01*
X153274Y212596D01*
Y212274D01*
X152300Y211300D01*
X147100D01*
X143300Y207500D01*
Y193277D01*
X143700Y192877D01*
Y190476D01*
X143472Y190248D01*
X141828D01*
X141600Y190020D01*
Y189699D01*
X141828Y189471D01*
X143472D01*
X143700Y189243D01*
Y188922D01*
X143472Y188694D01*
X141828D01*
X141600Y188466D01*
Y188145D01*
X141828Y187917D01*
X143472D01*
X143700Y187689D01*
Y187368D01*
X143472Y187140D01*
X141828D01*
X141600Y186912D01*
Y186591D01*
X141828Y186363D01*
X143472D01*
X143700Y186135D01*
Y185814D01*
X143472Y185586D01*
X141828D01*
X141600Y185358D01*
Y185037D01*
X141828Y184809D01*
X143472D01*
X143700Y184581D01*
Y178300D01*
X128910Y163510D01*
X114190D01*
X108500Y169200D01*
X83588D01*
X81000Y171788D01*
Y172400D01*
G01X86400Y178000D02*
X110000D01*
X114200Y182200D01*
X115507D01*
X119422Y186115D01*
X124682D01*
X127500Y188933D01*
Y236800D01*
X138800Y248100D01*
X179400D01*
X180610Y249310D01*
Y249632D01*
X178482Y251760D01*
Y252082D01*
X178710Y252310D01*
X179032D01*
X181160Y250182D01*
X181482D01*
X181710Y250410D01*
Y250732D01*
X179582Y252860D01*
Y253182D01*
X179810Y253410D01*
X180132D01*
X182260Y251282D01*
X182582D01*
X182810Y251510D01*
Y251832D01*
X180682Y253960D01*
Y254282D01*
X180910Y254510D01*
X181232D01*
X183360Y252382D01*
X183682D01*
X183910Y252610D01*
Y252932D01*
X181782Y255060D01*
Y255382D01*
X182010Y255610D01*
X182332D01*
X184460Y253482D01*
X184782D01*
X185010Y253710D01*
Y254032D01*
X182882Y256160D01*
Y256482D01*
X183110Y256710D01*
X183432D01*
X185560Y254582D01*
X185882D01*
X186110Y254810D01*
Y255132D01*
X183982Y257260D01*
Y257582D01*
X184210Y257810D01*
X184532D01*
X186660Y255682D01*
X186982D01*
X187210Y255910D01*
Y256232D01*
X185082Y258360D01*
Y258682D01*
X185310Y258910D01*
X185632D01*
X187760Y256782D01*
X188082D01*
X188310Y257010D01*
Y257332D01*
X186182Y259460D01*
Y259782D01*
X186410Y260010D01*
X186732D01*
X188860Y257882D01*
X189182D01*
X189410Y258110D01*
Y258432D01*
X187282Y260560D01*
Y260882D01*
X187510Y261110D01*
X187832D01*
X189960Y258982D01*
X190282D01*
X190510Y259210D01*
Y259532D01*
X188382Y261660D01*
Y261982D01*
X188610Y262210D01*
X188932D01*
X191060Y260082D01*
X191382D01*
X191610Y260310D01*
Y260632D01*
X189482Y262760D01*
Y263082D01*
X189710Y263310D01*
X190032D01*
X192160Y261182D01*
X192482D01*
X192710Y261410D01*
Y261732D01*
X190582Y263860D01*
Y264182D01*
X190810Y264410D01*
X191132D01*
X193260Y262282D01*
X193582D01*
X193810Y262510D01*
Y262832D01*
X191682Y264960D01*
Y265282D01*
X191910Y265510D01*
X192232D01*
X194360Y263382D01*
X194682D01*
X194910Y263610D01*
Y263932D01*
X192782Y266060D01*
Y266382D01*
X193010Y266610D01*
X193332D01*
X195460Y264482D01*
X195782D01*
X196010Y264710D01*
Y265032D01*
X193882Y267160D01*
Y267482D01*
X194110Y267710D01*
X194432D01*
X196560Y265582D01*
X196882D01*
X197110Y265810D01*
Y266132D01*
X194982Y268260D01*
Y268582D01*
X195210Y268810D01*
X195532D01*
X197660Y266682D01*
X197982D01*
X198210Y266910D01*
Y267232D01*
X196082Y269360D01*
Y269682D01*
X196310Y269910D01*
X196632D01*
X198760Y267782D01*
X199082D01*
X199310Y268010D01*
Y268332D01*
X197182Y270460D01*
Y270782D01*
X197410Y271010D01*
X197732D01*
X199860Y268882D01*
X200182D01*
X200410Y269110D01*
Y269432D01*
X198282Y271560D01*
Y271882D01*
X198510Y272110D01*
X198832D01*
X200960Y269982D01*
X201282D01*
X204467Y273167D01*
Y273489D01*
X202489Y275467D01*
Y275789D01*
X202717Y276017D01*
X203039D01*
X205017Y274039D01*
X205339D01*
X205567Y274267D01*
Y274589D01*
X203589Y276567D01*
Y276889D01*
X203817Y277117D01*
X204139D01*
X206117Y275139D01*
X206439D01*
X206667Y275367D01*
Y275689D01*
X204689Y277667D01*
Y277989D01*
X204917Y278217D01*
X205239D01*
X207217Y276239D01*
X207539D01*
X207767Y276467D01*
Y276789D01*
X205789Y278767D01*
Y279089D01*
X206017Y279317D01*
X206339D01*
X208317Y277339D01*
X208639D01*
X208867Y277567D01*
Y277889D01*
X206889Y279867D01*
Y280189D01*
X207117Y280417D01*
X207439D01*
X209417Y278439D01*
X209739D01*
X209967Y278667D01*
Y278989D01*
X207989Y280967D01*
Y281289D01*
X208217Y281517D01*
X208539D01*
X210517Y279539D01*
X210839D01*
X211067Y279767D01*
Y280089D01*
X209089Y282067D01*
Y282389D01*
X209317Y282617D01*
X209639D01*
X211617Y280639D01*
X211939D01*
X226500Y295200D01*
X240400D01*
X273200Y328000D01*
X282000D01*
X285150Y331150D01*
X289650D01*
X290900Y332400D01*
X311569D01*
X312934Y333765D01*
Y334134D01*
X314851Y336051D01*
X316321D01*
X317829Y337559D01*
Y338936D01*
X318702Y339809D01*
X319608D01*
X322055Y342256D01*
X323256D01*
G01X79440Y174440D02*
X104533D01*
X111933Y167040D01*
X113167D01*
X114040Y167913D01*
X115614D01*
X115627Y167900D01*
X131700D01*
X140000Y176200D01*
Y224600D01*
X145785Y230385D01*
X147248D01*
X147476Y230613D01*
Y234872D01*
X147704Y235100D01*
X148025D01*
X148253Y234872D01*
Y230613D01*
X148481Y230385D01*
X148802D01*
X149030Y230613D01*
Y234872D01*
X149258Y235100D01*
X149579D01*
X149807Y234872D01*
Y230613D01*
X150035Y230385D01*
X150356D01*
X150584Y230613D01*
Y234872D01*
X150812Y235100D01*
X151133D01*
X151361Y234872D01*
Y230613D01*
X151589Y230385D01*
X151910D01*
X152138Y230613D01*
Y234872D01*
X152366Y235100D01*
X152687D01*
X152915Y234872D01*
Y230613D01*
X153143Y230385D01*
X153464D01*
X153692Y230613D01*
Y234872D01*
X153920Y235100D01*
X154241D01*
X154469Y234872D01*
Y230613D01*
X154697Y230385D01*
X155018D01*
X155246Y230613D01*
Y234872D01*
X155474Y235100D01*
X155795D01*
X156023Y234872D01*
Y230613D01*
X156251Y230385D01*
X160292D01*
X161417Y231510D01*
X165630D01*
X166919Y232799D01*
X175911D01*
X178200Y230510D01*
X179382D01*
X179610Y230738D01*
Y231872D01*
X179838Y232100D01*
X180159D01*
X180387Y231872D01*
Y230738D01*
X180615Y230510D01*
X180936D01*
X181164Y230738D01*
Y231872D01*
X181392Y232100D01*
X181713D01*
X181941Y231872D01*
Y230738D01*
X182169Y230510D01*
X182490D01*
X182718Y230738D01*
Y231872D01*
X182946Y232100D01*
X183267D01*
X183495Y231872D01*
Y230738D01*
X183723Y230510D01*
X184044D01*
X184272Y230738D01*
Y231872D01*
X184500Y232100D01*
X184821D01*
X185049Y231872D01*
Y230738D01*
X185277Y230510D01*
X185598D01*
X185826Y230738D01*
Y231872D01*
X186054Y232100D01*
X186375D01*
X186603Y231872D01*
Y230738D01*
X186831Y230510D01*
X187152D01*
X187380Y230738D01*
Y231872D01*
X187608Y232100D01*
X187929D01*
X188157Y231872D01*
Y230738D01*
X188385Y230510D01*
X191617D01*
X192490Y231383D01*
Y231390D01*
X193771Y232671D01*
Y232993D01*
X192193Y234571D01*
Y234893D01*
X192421Y235121D01*
X192743D01*
X194321Y233543D01*
X194643D01*
X194871Y233771D01*
Y234093D01*
X193293Y235671D01*
Y235993D01*
X193521Y236221D01*
X193843D01*
X195421Y234643D01*
X195743D01*
X196700Y235600D01*
Y238900D01*
X201177Y243377D01*
Y245177D01*
X200949Y245405D01*
X198228D01*
X198000Y245633D01*
Y245954D01*
X198228Y246182D01*
X200949D01*
X201177Y246410D01*
Y246731D01*
X200949Y246959D01*
X198228D01*
X198000Y247187D01*
Y247508D01*
X198228Y247736D01*
X200949D01*
X201177Y247964D01*
Y248877D01*
X202761Y250461D01*
Y250783D01*
X201884Y251660D01*
Y251982D01*
X202112Y252210D01*
X202434D01*
X203311Y251333D01*
X203633D01*
X203861Y251561D01*
Y251883D01*
X202984Y252760D01*
Y253082D01*
X203212Y253310D01*
X203534D01*
X204411Y252433D01*
X204733D01*
X204961Y252661D01*
Y252983D01*
X204084Y253860D01*
Y254182D01*
X204312Y254410D01*
X204634D01*
X205511Y253533D01*
X205833D01*
X206061Y253761D01*
Y254083D01*
X205184Y254960D01*
Y255282D01*
X205412Y255510D01*
X205734D01*
X206611Y254633D01*
X206933D01*
X207161Y254861D01*
Y255183D01*
X206284Y256060D01*
Y256382D01*
X206512Y256610D01*
X206834D01*
X207711Y255733D01*
X208033D01*
X208261Y255961D01*
Y256283D01*
X207384Y257160D01*
Y257482D01*
X207612Y257710D01*
X207934D01*
X208811Y256833D01*
X209133D01*
X209361Y257061D01*
Y257383D01*
X208484Y258260D01*
Y258582D01*
X208712Y258810D01*
X209034D01*
X209911Y257933D01*
X210233D01*
X210461Y258161D01*
Y258483D01*
X209584Y259360D01*
Y259682D01*
X209812Y259910D01*
X210134D01*
X211011Y259033D01*
X211333D01*
X211561Y259261D01*
Y259583D01*
X210684Y260460D01*
Y260782D01*
X210912Y261010D01*
X211234D01*
X212111Y260133D01*
X212433D01*
X212661Y260361D01*
Y260683D01*
X211784Y261560D01*
Y261882D01*
X212012Y262110D01*
X212334D01*
X213211Y261233D01*
X213533D01*
X213761Y261461D01*
Y261783D01*
X212884Y262660D01*
Y262982D01*
X213112Y263210D01*
X213434D01*
X214311Y262333D01*
X214633D01*
X214861Y262561D01*
Y262883D01*
X213984Y263760D01*
Y264082D01*
X214212Y264310D01*
X214534D01*
X215411Y263433D01*
X215733D01*
X215961Y263661D01*
Y263983D01*
X215084Y264860D01*
Y265182D01*
X215312Y265410D01*
X215634D01*
X216511Y264533D01*
X216833D01*
X217061Y264761D01*
Y265083D01*
X216184Y265960D01*
Y266282D01*
X216412Y266510D01*
X216734D01*
X217611Y265633D01*
X217933D01*
X218161Y265861D01*
Y266183D01*
X217284Y267060D01*
Y267382D01*
X217512Y267610D01*
X217834D01*
X218711Y266733D01*
X219033D01*
X219261Y266961D01*
Y267283D01*
X218384Y268160D01*
Y268482D01*
X218612Y268710D01*
X218934D01*
X219811Y267833D01*
X220133D01*
X220361Y268061D01*
Y268383D01*
X219484Y269260D01*
Y269582D01*
X219712Y269810D01*
X220034D01*
X220911Y268933D01*
X221233D01*
X221461Y269161D01*
Y269483D01*
X220584Y270360D01*
Y270682D01*
X220812Y270910D01*
X221134D01*
X222011Y270033D01*
X222333D01*
X224900Y272600D01*
X232200D01*
X271100Y311500D01*
X277800D01*
X285095Y318795D01*
X285123D01*
X287405Y321077D01*
X330969D01*
X332620Y319426D01*
Y318017D01*
X331747Y317144D01*
X328900D01*
X327410Y318634D01*
X327193D01*
G01X79590Y164990D02*
X90710D01*
X97490Y158210D01*
X113167D01*
X113844Y157533D01*
X121200D01*
X121790Y158123D01*
X127321D01*
X127549Y157895D01*
Y155828D01*
X127777Y155600D01*
X128098D01*
X128326Y155828D01*
Y157895D01*
X128554Y158123D01*
X128875D01*
X129103Y157895D01*
Y155828D01*
X129331Y155600D01*
X129652D01*
X129880Y155828D01*
Y157895D01*
X130108Y158123D01*
X130429D01*
X130657Y157895D01*
Y155828D01*
X130885Y155600D01*
X131206D01*
X131434Y155828D01*
Y157895D01*
X131662Y158123D01*
X131983D01*
X132211Y157895D01*
Y155828D01*
X132439Y155600D01*
X132760D01*
X132988Y155828D01*
Y157895D01*
X133216Y158123D01*
X133537D01*
X133765Y157895D01*
Y155828D01*
X133993Y155600D01*
X134314D01*
X134542Y155828D01*
Y157895D01*
X134770Y158123D01*
X135091D01*
X135319Y157895D01*
Y155828D01*
X135547Y155600D01*
X135868D01*
X136096Y155828D01*
Y157895D01*
X136324Y158123D01*
X138923D01*
X141100Y160300D01*
X142077D01*
X151200Y169423D01*
Y175047D01*
X151428Y175275D01*
X156972D01*
X157200Y175503D01*
Y175824D01*
X156972Y176052D01*
X151428D01*
X151200Y176280D01*
Y176601D01*
X151428Y176829D01*
X156972D01*
X157200Y177057D01*
Y177378D01*
X156972Y177606D01*
X151428D01*
X151200Y177834D01*
Y178155D01*
X151428Y178383D01*
X156972D01*
X157200Y178611D01*
Y178932D01*
X156972Y179160D01*
X151428D01*
X151200Y179388D01*
Y179709D01*
X151428Y179937D01*
X156972D01*
X157200Y180165D01*
Y180486D01*
X156972Y180714D01*
X151428D01*
X151200Y180942D01*
Y181263D01*
X151428Y181491D01*
X156972D01*
X157200Y181719D01*
Y182040D01*
X156972Y182268D01*
X151428D01*
X151200Y182496D01*
Y182817D01*
X151428Y183045D01*
X156972D01*
X157200Y183273D01*
Y183594D01*
X156972Y183822D01*
X151428D01*
X151200Y184050D01*
Y184371D01*
X151428Y184599D01*
X156972D01*
X157200Y184827D01*
Y185148D01*
X156972Y185376D01*
X151428D01*
X151200Y185604D01*
Y185925D01*
X151428Y186153D01*
X156972D01*
X157200Y186381D01*
Y186702D01*
X156972Y186930D01*
X151428D01*
X151200Y187158D01*
Y187479D01*
X151428Y187707D01*
X156972D01*
X157200Y187935D01*
Y188256D01*
X156972Y188484D01*
X151428D01*
X151200Y188712D01*
Y189033D01*
X151428Y189261D01*
X156972D01*
X157200Y189489D01*
Y189810D01*
X156972Y190038D01*
X151428D01*
X151200Y190266D01*
Y190587D01*
X151428Y190815D01*
X156972D01*
X157200Y191043D01*
Y191364D01*
X156972Y191592D01*
X151428D01*
X151200Y191820D01*
Y192141D01*
X151428Y192369D01*
X156972D01*
X157200Y192597D01*
Y192918D01*
X156972Y193146D01*
X151428D01*
X151200Y193374D01*
Y193695D01*
X151428Y193923D01*
X156972D01*
X157200Y194151D01*
Y194472D01*
X156972Y194700D01*
X151428D01*
X151200Y194928D01*
Y195900D01*
X157200Y201900D01*
X162500D01*
X163399Y202799D01*
X172582D01*
X182683Y212900D01*
X188600D01*
X202900Y227200D01*
Y237400D01*
X212000Y246500D01*
X220400D01*
X238510Y264610D01*
Y264617D01*
X239383Y265490D01*
X240090D01*
X272600Y298000D01*
X276500D01*
X290750Y312250D01*
X312204D01*
X313154Y313200D01*
X317800D01*
X319296Y314696D01*
X319319D01*
G01X80550Y167350D02*
X92950D01*
X101117Y159183D01*
X116010D01*
X116883Y158310D01*
X118117D01*
X118707Y158900D01*
X134400D01*
X136634Y161134D01*
X136956D01*
X138684Y159406D01*
X139006D01*
X139234Y159634D01*
Y159956D01*
X137506Y161684D01*
Y162006D01*
X137734Y162234D01*
X138056D01*
X139784Y160506D01*
X140106D01*
X140334Y160734D01*
Y161056D01*
X138606Y162784D01*
Y163106D01*
X138834Y163334D01*
X139156D01*
X140884Y161606D01*
X141206D01*
X141434Y161834D01*
Y162156D01*
X139706Y163884D01*
Y164206D01*
X139934Y164434D01*
X140256D01*
X141984Y162706D01*
X142306D01*
X142534Y162934D01*
Y163256D01*
X140806Y164984D01*
Y165306D01*
X141034Y165534D01*
X141356D01*
X143084Y163806D01*
X143406D01*
X143634Y164034D01*
Y164356D01*
X141906Y166084D01*
Y166406D01*
X142134Y166634D01*
X142456D01*
X144184Y164906D01*
X144506D01*
X144734Y165134D01*
Y165456D01*
X143006Y167184D01*
Y167506D01*
X143234Y167734D01*
X143556D01*
X145284Y166006D01*
X145606D01*
X145834Y166234D01*
Y166556D01*
X144106Y168284D01*
Y168606D01*
X150200Y174700D01*
Y196800D01*
X158415Y205015D01*
X162086D01*
X162900Y204201D01*
X172221D01*
X175256Y207236D01*
Y207558D01*
X173168Y209646D01*
Y209968D01*
X173396Y210196D01*
X173718D01*
X175806Y208108D01*
X176128D01*
X176356Y208336D01*
Y208658D01*
X174268Y210746D01*
Y211068D01*
X174496Y211296D01*
X174818D01*
X176906Y209208D01*
X177228D01*
X182020Y214000D01*
X188000D01*
X201300Y227300D01*
Y228516D01*
X201072Y228744D01*
X200628D01*
X200400Y228972D01*
Y229293D01*
X200628Y229521D01*
X201072D01*
X201300Y229749D01*
Y230070D01*
X201072Y230298D01*
X200628D01*
X200400Y230526D01*
Y230847D01*
X200628Y231075D01*
X201072D01*
X201300Y231303D01*
Y231624D01*
X201072Y231852D01*
X200628D01*
X200400Y232080D01*
Y232401D01*
X200628Y232629D01*
X201072D01*
X201300Y232857D01*
Y233178D01*
X201072Y233406D01*
X200628D01*
X200400Y233634D01*
Y233955D01*
X200628Y234183D01*
X201072D01*
X201300Y234411D01*
Y234732D01*
X201072Y234960D01*
X200628D01*
X200400Y235188D01*
Y235509D01*
X200628Y235737D01*
X201072D01*
X201300Y235965D01*
Y237200D01*
X212600Y248500D01*
X214399D01*
X214627Y248728D01*
Y250372D01*
X214855Y250600D01*
X215176D01*
X215404Y250372D01*
Y248728D01*
X215632Y248500D01*
X215953D01*
X216181Y248728D01*
Y250372D01*
X216409Y250600D01*
X216730D01*
X216958Y250372D01*
Y248728D01*
X217186Y248500D01*
X217507D01*
X217735Y248728D01*
Y250372D01*
X217963Y250600D01*
X218284D01*
X218512Y250372D01*
Y248728D01*
X218740Y248500D01*
X220900D01*
X222291Y249894D01*
Y250215D01*
X220460Y252041D01*
X220459Y252362D01*
X220688Y252591D01*
X221009Y252592D01*
X222840Y250766D01*
X223162Y250767D01*
X223390Y250996D01*
X223389Y251318D01*
X221558Y253143D01*
X221557Y253464D01*
X221786Y253693D01*
X222107Y253694D01*
X223938Y251868D01*
X224260Y251869D01*
X224488Y252098D01*
X224487Y252420D01*
X222656Y254245D01*
X222655Y254566D01*
X222884Y254795D01*
X223205Y254796D01*
X225036Y252970D01*
X225357Y252971D01*
X228699Y256324D01*
Y256646D01*
X226682Y258660D01*
Y258982D01*
X226910Y259210D01*
X227232D01*
X229249Y257196D01*
X229571D01*
X229799Y257424D01*
Y257746D01*
X227782Y259760D01*
Y260082D01*
X228010Y260310D01*
X228332D01*
X230349Y258296D01*
X230671D01*
X230899Y258524D01*
Y258846D01*
X228882Y260860D01*
Y261182D01*
X229110Y261410D01*
X229432D01*
X231449Y259396D01*
X231771D01*
X231999Y259624D01*
Y259946D01*
X229982Y261960D01*
Y262282D01*
X230210Y262510D01*
X230532D01*
X232549Y260496D01*
X232871D01*
X233099Y260724D01*
Y261046D01*
X231082Y263060D01*
Y263382D01*
X231310Y263610D01*
X231632D01*
X233649Y261596D01*
X233971D01*
X234199Y261824D01*
Y262146D01*
X232182Y264160D01*
Y264482D01*
X232410Y264710D01*
X232732D01*
X234749Y262696D01*
X235071D01*
X235299Y262924D01*
Y263246D01*
X233282Y265260D01*
Y265582D01*
X233510Y265810D01*
X233832D01*
X235849Y263796D01*
X236171D01*
X236399Y264024D01*
Y264346D01*
X234382Y266360D01*
Y266682D01*
X234610Y266910D01*
X234932D01*
X236949Y264896D01*
X237271D01*
X237499Y265124D01*
Y265446D01*
X235482Y267460D01*
Y267782D01*
X235710Y268010D01*
X236032D01*
X238049Y265996D01*
X238371D01*
X238599Y266224D01*
Y266546D01*
X236582Y268560D01*
Y268882D01*
X236810Y269110D01*
X237132D01*
X239149Y267096D01*
X239471D01*
X240715Y268342D01*
X241037D01*
X241261Y268118D01*
X241583D01*
X241811Y268346D01*
Y268668D01*
X241587Y268892D01*
Y269214D01*
X241815Y269442D01*
X242137D01*
X242361Y269218D01*
X242683D01*
X242911Y269446D01*
Y269768D01*
X242687Y269992D01*
Y270314D01*
X242915Y270542D01*
X243237D01*
X243461Y270318D01*
X243783D01*
X244011Y270546D01*
Y270868D01*
X243787Y271092D01*
Y271414D01*
X244015Y271642D01*
X244337D01*
X244561Y271418D01*
X244883D01*
X245111Y271646D01*
Y271968D01*
X244887Y272192D01*
Y272514D01*
X245115Y272742D01*
X245437D01*
X245661Y272518D01*
X245983D01*
X246211Y272746D01*
Y273068D01*
X245987Y273292D01*
Y273614D01*
X246215Y273842D01*
X246537D01*
X246761Y273618D01*
X247083D01*
X247311Y273846D01*
Y274168D01*
X247087Y274392D01*
Y274714D01*
X247315Y274942D01*
X247637D01*
X247861Y274718D01*
X248183D01*
X248411Y274946D01*
Y275268D01*
X248187Y275492D01*
Y275814D01*
X248415Y276042D01*
X248737D01*
X248961Y275818D01*
X249283D01*
X249511Y276046D01*
Y276368D01*
X249287Y276592D01*
Y276914D01*
X249515Y277142D01*
X249837D01*
X250061Y276918D01*
X250383D01*
X250611Y277146D01*
Y277468D01*
X250387Y277692D01*
Y278014D01*
X250615Y278242D01*
X250937D01*
X251161Y278018D01*
X251483D01*
X251711Y278246D01*
Y278568D01*
X251487Y278792D01*
Y279114D01*
X251715Y279342D01*
X252037D01*
X252261Y279118D01*
X252583D01*
X252811Y279346D01*
Y279668D01*
X252587Y279892D01*
Y280214D01*
X252815Y280442D01*
X253137D01*
X253361Y280218D01*
X253683D01*
X253911Y280446D01*
Y280768D01*
X253687Y280992D01*
Y281314D01*
X253915Y281542D01*
X254237D01*
X254461Y281318D01*
X254783D01*
X255011Y281546D01*
Y281868D01*
X254787Y282092D01*
Y282414D01*
X255015Y282642D01*
X255337D01*
X255561Y282418D01*
X255883D01*
X256111Y282646D01*
Y282968D01*
X255887Y283192D01*
Y283514D01*
X256115Y283742D01*
X256437D01*
X256661Y283518D01*
X256983D01*
X257211Y283746D01*
Y284068D01*
X256987Y284292D01*
Y284614D01*
X257215Y284842D01*
X257537D01*
X257761Y284618D01*
X258083D01*
X258311Y284846D01*
Y285168D01*
X258087Y285392D01*
Y285714D01*
X258315Y285942D01*
X258637D01*
X258861Y285718D01*
X259183D01*
X259411Y285946D01*
Y286268D01*
X259187Y286492D01*
Y286814D01*
X259415Y287042D01*
X259737D01*
X259961Y286818D01*
X260283D01*
X260511Y287046D01*
Y287368D01*
X260287Y287592D01*
Y287914D01*
X260515Y288142D01*
X260837D01*
X261061Y287918D01*
X261383D01*
X261611Y288146D01*
Y288468D01*
X261387Y288692D01*
Y289014D01*
X261615Y289242D01*
X261937D01*
X262161Y289018D01*
X262483D01*
X262711Y289246D01*
Y289568D01*
X262487Y289792D01*
Y290114D01*
X262715Y290342D01*
X263037D01*
X263261Y290118D01*
X263583D01*
X263811Y290346D01*
Y290668D01*
X263587Y290892D01*
Y291214D01*
X263815Y291442D01*
X264137D01*
X264361Y291218D01*
X264683D01*
X264911Y291446D01*
Y291768D01*
X264687Y291992D01*
Y292314D01*
X264915Y292542D01*
X265237D01*
X265461Y292318D01*
X265783D01*
X266011Y292546D01*
Y292868D01*
X265787Y293092D01*
Y293414D01*
X266015Y293642D01*
X266337D01*
X266561Y293418D01*
X266883D01*
X267111Y293646D01*
Y293968D01*
X266887Y294192D01*
Y294514D01*
X267115Y294742D01*
X267437D01*
X267661Y294518D01*
X267983D01*
X268211Y294746D01*
Y295068D01*
X267987Y295292D01*
Y295614D01*
X277451Y305090D01*
X277773D01*
X279470Y303394D01*
X279792D01*
X280020Y303622D01*
Y303944D01*
X278323Y305640D01*
Y305962D01*
X278551Y306190D01*
X278873D01*
X280570Y304494D01*
X280892D01*
X281120Y304722D01*
Y305044D01*
X283138Y307062D01*
X283562D01*
X289706Y313206D01*
X312061D01*
X313551Y314696D01*
X315382D01*
G01X81850Y186250D02*
X87150D01*
X95900Y195000D01*
X101700D01*
X107200Y200500D01*
Y235800D01*
X111623Y240223D01*
X112200D01*
X113377Y241400D01*
X116700D01*
X133865Y258565D01*
X160565D01*
X175455Y273455D01*
Y273777D01*
X167627Y281605D01*
Y281927D01*
X167855Y282155D01*
X168177D01*
X176005Y274327D01*
X176327D01*
X176555Y274555D01*
Y274877D01*
X168727Y282705D01*
Y283027D01*
X168955Y283255D01*
X169277D01*
X177105Y275427D01*
X177427D01*
X177655Y275655D01*
Y275977D01*
X169827Y283805D01*
Y284127D01*
X170055Y284355D01*
X170377D01*
X178205Y276527D01*
X178527D01*
X178755Y276755D01*
Y277077D01*
X170927Y284905D01*
Y285227D01*
X171155Y285455D01*
X171477D01*
X179305Y277627D01*
X179627D01*
X179855Y277855D01*
Y278177D01*
X172027Y286005D01*
Y286327D01*
X172255Y286555D01*
X172577D01*
X180405Y278727D01*
X180727D01*
X180955Y278955D01*
Y279277D01*
X173127Y287105D01*
Y287427D01*
X173355Y287655D01*
X173677D01*
X181505Y279827D01*
X181827D01*
X182055Y280055D01*
Y280377D01*
X174227Y288205D01*
Y288527D01*
X174455Y288755D01*
X174777D01*
X182605Y280927D01*
X182927D01*
X183155Y281155D01*
Y281477D01*
X175327Y289305D01*
Y289627D01*
X175555Y289855D01*
X175877D01*
X183705Y282027D01*
X184027D01*
X210500Y308500D01*
X245500D01*
X274600Y337600D01*
X278293D01*
X278304Y337611D01*
X279538D01*
X279549Y337600D01*
X284100D01*
X287266Y340766D01*
X312062D01*
X312935Y341639D01*
Y341917D01*
X315382Y344364D01*
Y346193D01*
G01X79590Y183890D02*
X81783D01*
X81883Y183990D01*
X83117D01*
X83217Y183890D01*
X91390D01*
X96600Y189100D01*
X103800D01*
X110000Y195300D01*
Y204793D01*
X109910Y204883D01*
Y230810D01*
X112800Y233700D01*
X115300D01*
X138250Y256650D01*
X156950D01*
X158185Y255415D01*
X160292D01*
X160407Y255300D01*
X165200D01*
X170467Y260567D01*
Y260889D01*
X168039Y263317D01*
Y263639D01*
X168267Y263867D01*
X168589D01*
X171017Y261439D01*
X171339D01*
X171567Y261667D01*
Y261989D01*
X169139Y264417D01*
Y264739D01*
X169367Y264967D01*
X169689D01*
X172117Y262539D01*
X172439D01*
X172667Y262767D01*
Y263089D01*
X170239Y265517D01*
Y265839D01*
X170467Y266067D01*
X170789D01*
X173217Y263639D01*
X173539D01*
X173767Y263867D01*
Y264189D01*
X171339Y266617D01*
Y266939D01*
X171567Y267167D01*
X171889D01*
X174317Y264739D01*
X174639D01*
X174867Y264967D01*
Y265289D01*
X172439Y267717D01*
Y268039D01*
X172667Y268267D01*
X172989D01*
X175417Y265839D01*
X175739D01*
X175967Y266067D01*
Y266389D01*
X173539Y268817D01*
Y269139D01*
X173767Y269367D01*
X174089D01*
X176517Y266939D01*
X176839D01*
X177067Y267167D01*
Y267489D01*
X174639Y269917D01*
Y270239D01*
X174867Y270467D01*
X175189D01*
X177617Y268039D01*
X177939D01*
X178167Y268267D01*
Y268589D01*
X175739Y271017D01*
Y271339D01*
X175967Y271567D01*
X176289D01*
X178717Y269139D01*
X179039D01*
X179267Y269367D01*
Y269689D01*
X176839Y272117D01*
Y272439D01*
X177067Y272667D01*
X177389D01*
X179817Y270239D01*
X180139D01*
X180367Y270467D01*
Y270789D01*
X177939Y273217D01*
Y273539D01*
X178167Y273767D01*
X178489D01*
X180917Y271339D01*
X181239D01*
X181467Y271567D01*
Y271889D01*
X179039Y274317D01*
Y274639D01*
X179267Y274867D01*
X179589D01*
X182017Y272439D01*
X182339D01*
X182567Y272667D01*
Y272989D01*
X180139Y275417D01*
Y275739D01*
X180367Y275967D01*
X180689D01*
X183117Y273539D01*
X183439D01*
X183667Y273767D01*
Y274089D01*
X181239Y276517D01*
Y276839D01*
X181467Y277067D01*
X181789D01*
X184217Y274639D01*
X184539D01*
X184767Y274867D01*
Y275189D01*
X182339Y277617D01*
Y277939D01*
X182567Y278167D01*
X182889D01*
X185317Y275739D01*
X185639D01*
X185867Y275967D01*
Y276289D01*
X183439Y278717D01*
Y279039D01*
X183667Y279267D01*
X183989D01*
X186417Y276839D01*
X186739D01*
X186967Y277067D01*
Y277389D01*
X184539Y279817D01*
Y280139D01*
X184767Y280367D01*
X185089D01*
X187517Y277939D01*
X187839D01*
X188067Y278167D01*
Y278489D01*
X185639Y280917D01*
Y281239D01*
X185867Y281467D01*
X186189D01*
X188617Y279039D01*
X188939D01*
X189167Y279267D01*
Y279589D01*
X186739Y282017D01*
Y282339D01*
X186967Y282567D01*
X187289D01*
X189717Y280139D01*
X190039D01*
X190267Y280367D01*
Y280689D01*
X187839Y283117D01*
Y283439D01*
X188067Y283667D01*
X188389D01*
X190817Y281239D01*
X191139D01*
X191367Y281467D01*
Y281789D01*
X188939Y284217D01*
Y284539D01*
X189167Y284767D01*
X189489D01*
X191917Y282339D01*
X192239D01*
X192467Y282567D01*
Y282889D01*
X190039Y285317D01*
Y285639D01*
X190267Y285867D01*
X190589D01*
X193017Y283439D01*
X193339D01*
X193567Y283667D01*
Y283989D01*
X191139Y286417D01*
Y286739D01*
X191367Y286967D01*
X191689D01*
X194117Y284539D01*
X194439D01*
X194667Y284767D01*
Y285089D01*
X192239Y287517D01*
Y287839D01*
X192467Y288067D01*
X192789D01*
X195217Y285639D01*
X195539D01*
X195767Y285867D01*
Y286189D01*
X193339Y288617D01*
Y288939D01*
X193567Y289167D01*
X193889D01*
X196317Y286739D01*
X196639D01*
X215600Y305700D01*
X244400D01*
X271200Y332500D01*
X280600D01*
X287909Y339809D01*
X312204D01*
X313161Y340766D01*
X315999D01*
X316872Y341639D01*
Y342873D01*
X316700Y343045D01*
Y344600D01*
X318293Y346193D01*
X319319D01*
G01X398081Y326508D02*
X397608D01*
X395161Y324061D01*
X360439D01*
X355545Y328954D01*
X354135D01*
X353262Y329827D01*
Y330104D01*
X350474Y332892D01*
X350198D01*
X349325Y333765D01*
Y362775D01*
X347100Y365000D01*
X281907D01*
X281017Y364110D01*
X279783D01*
X278893Y365000D01*
X272400D01*
X269900Y362500D01*
X252100D01*
X230255Y340655D01*
X229933D01*
X226605Y343983D01*
X226283D01*
X226055Y343755D01*
Y343433D01*
X229383Y340105D01*
Y339783D01*
X229155Y339555D01*
X228833D01*
X225505Y342883D01*
X225183D01*
X224955Y342655D01*
Y342333D01*
X228283Y339005D01*
Y338683D01*
X228055Y338455D01*
X227733D01*
X224405Y341783D01*
X224083D01*
X223855Y341555D01*
Y341233D01*
X227183Y337905D01*
Y337583D01*
X226955Y337355D01*
X226633D01*
X223305Y340683D01*
X222983D01*
X222755Y340455D01*
Y340133D01*
X226083Y336805D01*
Y336483D01*
X225855Y336255D01*
X225533D01*
X222205Y339583D01*
X221883D01*
X221655Y339355D01*
Y339033D01*
X224983Y335705D01*
Y335383D01*
X224755Y335155D01*
X224433D01*
X221105Y338483D01*
X220783D01*
X220555Y338255D01*
Y337933D01*
X223883Y334605D01*
Y334283D01*
X223655Y334055D01*
X223333D01*
X220005Y337383D01*
X219683D01*
X219455Y337155D01*
Y336833D01*
X222783Y333505D01*
Y333183D01*
X222555Y332955D01*
X222233D01*
X218905Y336283D01*
X218583D01*
X218355Y336055D01*
Y335733D01*
X221683Y332405D01*
Y332083D01*
X221455Y331855D01*
X221133D01*
X217805Y335183D01*
X217483D01*
X217255Y334955D01*
Y334633D01*
X220583Y331305D01*
Y330983D01*
X220355Y330755D01*
X220033D01*
X216705Y334083D01*
X216383D01*
X216155Y333855D01*
Y333533D01*
X219483Y330205D01*
Y329883D01*
X219255Y329655D01*
X218933D01*
X215605Y332983D01*
X215283D01*
X215055Y332755D01*
Y332433D01*
X218383Y329105D01*
Y328783D01*
X218155Y328555D01*
X217833D01*
X214505Y331883D01*
X214183D01*
X213955Y331655D01*
Y331333D01*
X217283Y328005D01*
Y327683D01*
X216200Y326600D01*
Y325700D01*
X188200Y297700D01*
X164200D01*
X162900Y296400D01*
X146000D01*
X144400Y298000D01*
X124565D01*
X123100Y296535D01*
X115465D01*
X113967Y298033D01*
X83867D01*
X79900Y302000D01*
G01X85470Y316170D02*
Y317423D01*
X84310Y318583D01*
Y319817D01*
X84760Y320267D01*
Y322667D01*
X85633Y323540D01*
X86867D01*
X89507Y320900D01*
X92100D01*
X93022Y319978D01*
Y319977D01*
X96829Y316170D01*
X114971D01*
X117978Y319177D01*
X124546D01*
X130169Y324800D01*
X162654D01*
X162882Y325028D01*
Y326572D01*
X163110Y326800D01*
X163431D01*
X163659Y326572D01*
Y325028D01*
X163887Y324800D01*
X164208D01*
X164436Y325028D01*
Y326572D01*
X164664Y326800D01*
X164985D01*
X165213Y326572D01*
Y325028D01*
X165441Y324800D01*
X165762D01*
X165990Y325028D01*
Y326572D01*
X166218Y326800D01*
X166539D01*
X166767Y326572D01*
Y325028D01*
X166995Y324800D01*
X167316D01*
X167544Y325028D01*
Y326572D01*
X167772Y326800D01*
X168093D01*
X168321Y326572D01*
Y325028D01*
X168549Y324800D01*
X168870D01*
X169098Y325028D01*
Y326572D01*
X169326Y326800D01*
X169647D01*
X169875Y326572D01*
Y325028D01*
X170103Y324800D01*
X170424D01*
X170652Y325028D01*
Y326572D01*
X170880Y326800D01*
X171201D01*
X171429Y326572D01*
Y325028D01*
X171657Y324800D01*
X171978D01*
X172206Y325028D01*
Y326572D01*
X172434Y326800D01*
X172755D01*
X172983Y326572D01*
Y325028D01*
X173211Y324800D01*
X173989D01*
X174217Y325028D01*
Y326967D01*
X174445Y327195D01*
X174766D01*
X174994Y326967D01*
Y325028D01*
X175222Y324800D01*
X175543D01*
X175771Y325028D01*
Y326967D01*
X175999Y327195D01*
X176320D01*
X176548Y326967D01*
Y325028D01*
X176776Y324800D01*
X177097D01*
X177325Y325028D01*
Y326967D01*
X177553Y327195D01*
X177874D01*
X178102Y326967D01*
Y325028D01*
X178330Y324800D01*
X180000D01*
X180711Y325511D01*
Y325833D01*
X177283Y329261D01*
Y329583D01*
X177511Y329811D01*
X177833D01*
X181261Y326383D01*
X181583D01*
X181811Y326611D01*
Y326933D01*
X178383Y330361D01*
Y330683D01*
X178611Y330911D01*
X178933D01*
X182361Y327483D01*
X182683D01*
X182911Y327711D01*
Y328033D01*
X179483Y331461D01*
Y331783D01*
X179711Y332011D01*
X180033D01*
X183461Y328583D01*
X183783D01*
X184011Y328811D01*
Y329133D01*
X180583Y332561D01*
Y332883D01*
X180811Y333111D01*
X181133D01*
X184561Y329683D01*
X184883D01*
X185111Y329911D01*
Y330233D01*
X181683Y333661D01*
Y333983D01*
X181911Y334211D01*
X182233D01*
X185661Y330783D01*
X185983D01*
X186900Y331700D01*
Y354400D01*
X192000Y359500D01*
X202259D01*
X202487Y359728D01*
Y360472D01*
X202715Y360700D01*
X203036D01*
X203264Y360472D01*
Y359728D01*
X203492Y359500D01*
X203813D01*
X204041Y359728D01*
Y360472D01*
X204269Y360700D01*
X204590D01*
X204818Y360472D01*
Y359728D01*
X205046Y359500D01*
X205367D01*
X205595Y359728D01*
Y360472D01*
X205823Y360700D01*
X206144D01*
X206372Y360472D01*
Y359728D01*
X206600Y359500D01*
X206921D01*
X207149Y359728D01*
Y360472D01*
X207377Y360700D01*
X207698D01*
X207926Y360472D01*
Y359728D01*
X208154Y359500D01*
X208475D01*
X208703Y359728D01*
Y360472D01*
X208931Y360700D01*
X209252D01*
X209480Y360472D01*
Y359728D01*
X209708Y359500D01*
X210029D01*
X210257Y359728D01*
Y360472D01*
X210485Y360700D01*
X210806D01*
X211034Y360472D01*
Y359728D01*
X211262Y359500D01*
X211583D01*
X211811Y359728D01*
Y360472D01*
X212039Y360700D01*
X212360D01*
X212588Y360472D01*
Y359728D01*
X212816Y359500D01*
X213137D01*
X213365Y359728D01*
Y360472D01*
X213593Y360700D01*
X213914D01*
X214142Y360472D01*
Y359728D01*
X214370Y359500D01*
X214691D01*
X214919Y359728D01*
Y360472D01*
X215147Y360700D01*
X215468D01*
X215696Y360472D01*
Y359728D01*
X215924Y359500D01*
X216245D01*
X216473Y359728D01*
Y360472D01*
X216701Y360700D01*
X217022D01*
X217250Y360472D01*
Y359728D01*
X217478Y359500D01*
X217799D01*
X218027Y359728D01*
Y360472D01*
X218255Y360700D01*
X218576D01*
X218804Y360472D01*
Y359728D01*
X219032Y359500D01*
X219353D01*
X219581Y359728D01*
Y360472D01*
X219809Y360700D01*
X220130D01*
X220358Y360472D01*
Y359728D01*
X220586Y359500D01*
X220907D01*
X221135Y359728D01*
Y360472D01*
X221363Y360700D01*
X221684D01*
X221912Y360472D01*
Y359728D01*
X222140Y359500D01*
X222461D01*
X222689Y359728D01*
Y360472D01*
X222917Y360700D01*
X223238D01*
X223466Y360472D01*
Y359728D01*
X223694Y359500D01*
X224015D01*
X224243Y359728D01*
Y360472D01*
X224471Y360700D01*
X224792D01*
X225020Y360472D01*
Y359728D01*
X225248Y359500D01*
X230600D01*
X241100Y370000D01*
X247000D01*
X254600Y377600D01*
X353100D01*
X362700Y368000D01*
Y364000D01*
X364200Y362500D01*
Y345371D01*
X365095Y344476D01*
Y341639D01*
X366926Y339808D01*
X387759D01*
X390207Y342256D01*
G01X85800Y319200D02*
X92700D01*
X94710Y317190D01*
Y305583D01*
X99593Y300700D01*
X115793D01*
X116883Y301790D01*
X120813D01*
X123020Y299583D01*
X127300D01*
X128817Y301100D01*
X133372D01*
X133600Y301328D01*
Y302425D01*
X133828Y302653D01*
X134149D01*
X134377Y302425D01*
Y301328D01*
X134605Y301100D01*
X134926D01*
X135154Y301328D01*
Y302425D01*
X135382Y302653D01*
X135703D01*
X135931Y302425D01*
Y301328D01*
X136159Y301100D01*
X136480D01*
X136708Y301328D01*
Y302425D01*
X136936Y302653D01*
X137257D01*
X137485Y302425D01*
Y301328D01*
X137713Y301100D01*
X138034D01*
X138262Y301328D01*
Y302425D01*
X138490Y302653D01*
X138811D01*
X139039Y302425D01*
Y301328D01*
X139267Y301100D01*
X139588D01*
X139816Y301328D01*
Y302425D01*
X140044Y302653D01*
X140365D01*
X140593Y302425D01*
Y301328D01*
X140821Y301100D01*
X141142D01*
X141370Y301328D01*
Y302425D01*
X141598Y302653D01*
X141919D01*
X142147Y302425D01*
Y301328D01*
X142375Y301100D01*
X142696D01*
X142924Y301328D01*
Y302425D01*
X143152Y302653D01*
X143473D01*
X143701Y302425D01*
Y301328D01*
X143929Y301100D01*
X144250D01*
X144478Y301328D01*
Y302425D01*
X144706Y302653D01*
X145027D01*
X145255Y302425D01*
Y301328D01*
X145483Y301100D01*
X145804D01*
X146032Y301328D01*
Y302425D01*
X146260Y302653D01*
X146581D01*
X146809Y302425D01*
Y301328D01*
X147037Y301100D01*
X147358D01*
X147586Y301328D01*
Y302425D01*
X147814Y302653D01*
X148135D01*
X148363Y302425D01*
Y301328D01*
X148591Y301100D01*
X148912D01*
X149140Y301328D01*
Y302425D01*
X149368Y302653D01*
X149689D01*
X149917Y302425D01*
Y301328D01*
X150145Y301100D01*
X150466D01*
X150694Y301328D01*
Y302425D01*
X150922Y302653D01*
X151243D01*
X151471Y302425D01*
Y301328D01*
X151699Y301100D01*
X152020D01*
X152248Y301328D01*
Y302425D01*
X152476Y302653D01*
X152797D01*
X153025Y302425D01*
Y301328D01*
X153253Y301100D01*
X157493D01*
X159093Y302700D01*
X163558D01*
X163786Y302928D01*
Y303572D01*
X164014Y303800D01*
X164335D01*
X164563Y303572D01*
Y302928D01*
X164791Y302700D01*
X165112D01*
X165340Y302928D01*
Y303572D01*
X165568Y303800D01*
X165889D01*
X166117Y303572D01*
Y302928D01*
X166345Y302700D01*
X166666D01*
X166894Y302928D01*
Y303572D01*
X167122Y303800D01*
X167443D01*
X167671Y303572D01*
Y302928D01*
X167899Y302700D01*
X168220D01*
X168448Y302928D01*
Y303572D01*
X168676Y303800D01*
X168997D01*
X169225Y303572D01*
Y302928D01*
X169453Y302700D01*
X169774D01*
X170002Y302928D01*
Y303572D01*
X170230Y303800D01*
X170551D01*
X170779Y303572D01*
Y302928D01*
X171007Y302700D01*
X171328D01*
X171556Y302928D01*
Y303572D01*
X171784Y303800D01*
X172105D01*
X172333Y303572D01*
Y302928D01*
X172561Y302700D01*
X172882D01*
X173110Y302928D01*
Y303572D01*
X173338Y303800D01*
X173659D01*
X173887Y303572D01*
Y302928D01*
X174115Y302700D01*
X174436D01*
X174664Y302928D01*
Y303572D01*
X174892Y303800D01*
X175213D01*
X175441Y303572D01*
Y302928D01*
X175669Y302700D01*
X175990D01*
X176218Y302928D01*
Y303572D01*
X176446Y303800D01*
X176767D01*
X176995Y303572D01*
Y302928D01*
X177223Y302700D01*
X177544D01*
X177772Y302928D01*
Y303572D01*
X178000Y303800D01*
X178321D01*
X178549Y303572D01*
Y302928D01*
X178777Y302700D01*
X179098D01*
X179326Y302928D01*
Y303572D01*
X179554Y303800D01*
X179875D01*
X180103Y303572D01*
Y302928D01*
X180331Y302700D01*
X184500D01*
X185421Y303621D01*
Y303943D01*
X183894Y305470D01*
Y305792D01*
X184122Y306020D01*
X184444D01*
X185971Y304493D01*
X186293D01*
X186521Y304721D01*
Y305043D01*
X184994Y306570D01*
Y306892D01*
X185222Y307120D01*
X185544D01*
X187071Y305593D01*
X187393D01*
X187621Y305821D01*
Y306143D01*
X186094Y307670D01*
Y307992D01*
X186322Y308220D01*
X186644D01*
X188171Y306693D01*
X188493D01*
X188721Y306921D01*
Y307243D01*
X187194Y308770D01*
Y309092D01*
X187422Y309320D01*
X187744D01*
X189271Y307793D01*
X189593D01*
X189821Y308021D01*
Y308343D01*
X188294Y309870D01*
Y310192D01*
X188522Y310420D01*
X188844D01*
X190371Y308893D01*
X190693D01*
X190921Y309121D01*
Y309443D01*
X189394Y310970D01*
Y311292D01*
X189622Y311520D01*
X189944D01*
X191471Y309993D01*
X191793D01*
X192021Y310221D01*
Y310543D01*
X190494Y312070D01*
Y312392D01*
X190722Y312620D01*
X191044D01*
X192571Y311093D01*
X192893D01*
X193121Y311321D01*
Y311643D01*
X191594Y313170D01*
Y313492D01*
X191822Y313720D01*
X192144D01*
X193671Y312193D01*
X193993D01*
X196300Y314500D01*
X196800D01*
X202690Y320390D01*
Y337790D01*
X209617Y344717D01*
X210217D01*
X214100Y348600D01*
X234600D01*
X255723Y369723D01*
X289322D01*
X290999Y371400D01*
X345500D01*
X353469Y363431D01*
X355369D01*
X356800Y362000D01*
Y332700D01*
X361502Y327998D01*
X394898D01*
X395855Y328955D01*
X399571D01*
X402018Y326508D01*
G01Y322571D02*
X399571Y325017D01*
Y327125D01*
X398698Y327998D01*
X397464D01*
X395634Y326168D01*
Y325891D01*
X394720Y324977D01*
X362071D01*
X357000Y330048D01*
Y330303D01*
X354411Y332892D01*
X354135D01*
X353262Y333765D01*
Y362138D01*
X346800Y368600D01*
X344507D01*
X343517Y367610D01*
X273310D01*
X269700Y364000D01*
X251200D01*
X234646Y347446D01*
X218746D01*
X217764Y346464D01*
Y346142D01*
X221242Y342664D01*
Y342342D01*
X221014Y342114D01*
X220692D01*
X217214Y345592D01*
X216892D01*
X216664Y345364D01*
Y345042D01*
X220142Y341564D01*
Y341242D01*
X219914Y341014D01*
X219592D01*
X216114Y344492D01*
X215792D01*
X215564Y344264D01*
Y343942D01*
X219042Y340464D01*
Y340142D01*
X218814Y339914D01*
X218492D01*
X215014Y343392D01*
X214692D01*
X214464Y343164D01*
Y342842D01*
X217942Y339364D01*
Y339042D01*
X217714Y338814D01*
X217392D01*
X213914Y342292D01*
X213592D01*
X213364Y342064D01*
Y341742D01*
X216842Y338264D01*
Y337942D01*
X216614Y337714D01*
X216292D01*
X212814Y341192D01*
X212492D01*
X212264Y340964D01*
Y340642D01*
X215742Y337164D01*
Y336842D01*
X215514Y336614D01*
X215192D01*
X211714Y340092D01*
X211392D01*
X211164Y339864D01*
Y339542D01*
X214642Y336064D01*
Y335742D01*
X214414Y335514D01*
X214092D01*
X210614Y338992D01*
X210292D01*
X210064Y338764D01*
Y338442D01*
X213542Y334964D01*
Y334642D01*
X213314Y334414D01*
X212992D01*
X209514Y337892D01*
X209192D01*
X208964Y337664D01*
Y337342D01*
X212442Y333864D01*
Y333542D01*
X212214Y333314D01*
X211892D01*
X208414Y336792D01*
X208092D01*
X207864Y336564D01*
Y336242D01*
X211342Y332764D01*
Y332442D01*
X211114Y332214D01*
X210792D01*
X207314Y335692D01*
X206992D01*
X204800Y333500D01*
Y320200D01*
X196500Y311900D01*
X196400D01*
X186423Y301923D01*
X167123D01*
X164800Y299600D01*
X130094D01*
X129300Y298806D01*
X121751D01*
X121042Y299515D01*
X119808D01*
X119103Y298810D01*
X98590D01*
X93040Y304360D01*
X90760D01*
G01X394144Y342256D02*
X393415Y342985D01*
Y344685D01*
X391698Y346402D01*
Y346809D01*
X390825Y347682D01*
X385653D01*
X384780Y346809D01*
Y346531D01*
X382951Y344702D01*
X369905D01*
X369032Y345575D01*
Y363089D01*
X365132Y366989D01*
Y370168D01*
X354650Y380650D01*
X253993D01*
X247843Y374500D01*
X241400D01*
X235800Y368900D01*
X225709D01*
X225481Y369128D01*
Y373072D01*
X225253Y373300D01*
X224932D01*
X224704Y373072D01*
Y369128D01*
X224476Y368900D01*
X224155D01*
X223927Y369128D01*
Y373072D01*
X223699Y373300D01*
X223378D01*
X223150Y373072D01*
Y369128D01*
X222922Y368900D01*
X222601D01*
X222373Y369128D01*
Y373072D01*
X222145Y373300D01*
X221824D01*
X221596Y373072D01*
Y369128D01*
X221368Y368900D01*
X221047D01*
X220819Y369128D01*
Y373072D01*
X220591Y373300D01*
X220270D01*
X220042Y373072D01*
Y369128D01*
X219814Y368900D01*
X219493D01*
X219265Y369128D01*
Y373072D01*
X219037Y373300D01*
X218716D01*
X218488Y373072D01*
Y369128D01*
X218260Y368900D01*
X217939D01*
X217711Y369128D01*
Y373072D01*
X217483Y373300D01*
X217162D01*
X216934Y373072D01*
Y369128D01*
X216706Y368900D01*
X216385D01*
X216157Y369128D01*
Y373072D01*
X215929Y373300D01*
X215608D01*
X215380Y373072D01*
Y369128D01*
X215152Y368900D01*
X214831D01*
X214603Y369128D01*
Y373072D01*
X214375Y373300D01*
X214054D01*
X213826Y373072D01*
Y369128D01*
X213598Y368900D01*
X213277D01*
X213049Y369128D01*
Y373072D01*
X212821Y373300D01*
X212500D01*
X212272Y373072D01*
Y369128D01*
X212044Y368900D01*
X211723D01*
X211495Y369128D01*
Y373072D01*
X211267Y373300D01*
X210946D01*
X210718Y373072D01*
Y369128D01*
X210490Y368900D01*
X205395D01*
X205167Y369128D01*
Y372426D01*
X205110Y372483D01*
Y372929D01*
X204939Y373100D01*
X204618D01*
X204390Y372872D01*
Y369128D01*
X204162Y368900D01*
X203841D01*
X203613Y369128D01*
Y372872D01*
X203385Y373100D01*
X203064D01*
X202836Y372872D01*
Y369128D01*
X202608Y368900D01*
X202287D01*
X202059Y369128D01*
Y372872D01*
X201831Y373100D01*
X201510D01*
X201282Y372872D01*
Y369128D01*
X201054Y368900D01*
X200733D01*
X200505Y369128D01*
Y372872D01*
X200277Y373100D01*
X199956D01*
X199728Y372872D01*
Y369128D01*
X199500Y368900D01*
X195300D01*
X181200Y354800D01*
Y352887D01*
X180972Y352659D01*
X180528D01*
X180300Y352431D01*
Y352110D01*
X180528Y351882D01*
X180972D01*
X181200Y351654D01*
Y351333D01*
X180972Y351105D01*
X180528D01*
X180300Y350877D01*
Y350556D01*
X180528Y350328D01*
X180972D01*
X181200Y350100D01*
Y349779D01*
X180972Y349551D01*
X180528D01*
X180300Y349323D01*
Y349002D01*
X180528Y348774D01*
X180972D01*
X181200Y348546D01*
Y348225D01*
X180972Y347997D01*
X180528D01*
X180300Y347769D01*
Y347448D01*
X180528Y347220D01*
X180972D01*
X181200Y346992D01*
Y346671D01*
X180972Y346443D01*
X180528D01*
X180300Y346215D01*
Y345894D01*
X180528Y345666D01*
X180972D01*
X181200Y345438D01*
Y345117D01*
X180972Y344889D01*
X180528D01*
X180300Y344661D01*
Y344340D01*
X180528Y344112D01*
X180972D01*
X181200Y343884D01*
Y343563D01*
X180972Y343335D01*
X180528D01*
X180300Y343107D01*
Y342786D01*
X180528Y342558D01*
X180972D01*
X181200Y342330D01*
Y339900D01*
X172000Y330700D01*
X138100D01*
X135700Y333100D01*
X116000D01*
X107900Y325000D01*
X98700D01*
X97770Y325930D01*
X95643D01*
X95013Y325300D01*
X85700D01*
X85500Y325500D01*
X84099D01*
X83626Y325027D01*
G01X315382Y310760D02*
Y309582D01*
X314292Y308492D01*
X290292D01*
X286500Y304700D01*
Y299500D01*
X279674Y292674D01*
X279352D01*
X277624Y294402D01*
X277302D01*
X277074Y294174D01*
Y293852D01*
X278802Y292124D01*
Y291802D01*
X278574Y291574D01*
X278252D01*
X276524Y293302D01*
X276202D01*
X275974Y293074D01*
Y292752D01*
X277702Y291024D01*
Y290702D01*
X273551Y286551D01*
X273229D01*
X270451Y289329D01*
X270129D01*
X269901Y289101D01*
Y288779D01*
X272679Y286001D01*
Y285679D01*
X272451Y285451D01*
X272129D01*
X269351Y288229D01*
X269029D01*
X268801Y288001D01*
Y287679D01*
X271579Y284901D01*
Y284579D01*
X271351Y284351D01*
X271029D01*
X268251Y287129D01*
X267929D01*
X267701Y286901D01*
Y286579D01*
X270479Y283801D01*
Y283479D01*
X270251Y283251D01*
X269929D01*
X267151Y286029D01*
X266829D01*
X266601Y285801D01*
Y285479D01*
X269379Y282701D01*
Y282379D01*
X269151Y282151D01*
X268829D01*
X266051Y284929D01*
X265729D01*
X265501Y284701D01*
Y284379D01*
X268279Y281601D01*
Y281279D01*
X268051Y281051D01*
X267729D01*
X264951Y283829D01*
X264629D01*
X264401Y283601D01*
Y283279D01*
X267179Y280501D01*
Y280179D01*
X266951Y279951D01*
X266629D01*
X263851Y282729D01*
X263529D01*
X263301Y282501D01*
Y282179D01*
X266079Y279401D01*
Y279079D01*
X265851Y278851D01*
X265529D01*
X262751Y281629D01*
X262429D01*
X262201Y281401D01*
Y281079D01*
X264979Y278301D01*
Y277979D01*
X264751Y277751D01*
X264429D01*
X261651Y280529D01*
X261329D01*
X261101Y280301D01*
Y279979D01*
X263879Y277201D01*
Y276879D01*
X263651Y276651D01*
X263329D01*
X260551Y279429D01*
X260229D01*
X260001Y279201D01*
Y278879D01*
X262779Y276101D01*
Y275779D01*
X262551Y275551D01*
X262229D01*
X259451Y278329D01*
X259129D01*
X258901Y278101D01*
Y277779D01*
X261679Y275001D01*
Y274679D01*
X261451Y274451D01*
X261129D01*
X258351Y277229D01*
X258029D01*
X257801Y277001D01*
Y276679D01*
X260579Y273901D01*
Y273579D01*
X260351Y273351D01*
X260029D01*
X257251Y276129D01*
X256929D01*
X256701Y275901D01*
Y275579D01*
X259479Y272801D01*
Y272479D01*
X252543Y265543D01*
X250643D01*
X245450Y260350D01*
X245128D01*
X243300Y262178D01*
X242978D01*
X242750Y261950D01*
Y261628D01*
X244578Y259800D01*
Y259478D01*
X244350Y259250D01*
X244028D01*
X242200Y261078D01*
X241878D01*
X241650Y260850D01*
Y260528D01*
X243478Y258700D01*
Y258378D01*
X243250Y258150D01*
X242928D01*
X241100Y259978D01*
X240778D01*
X240550Y259750D01*
Y259428D01*
X242378Y257600D01*
Y257278D01*
X242150Y257050D01*
X241828D01*
X240000Y258878D01*
X239678D01*
X239450Y258650D01*
Y258328D01*
X241278Y256500D01*
Y256178D01*
X241050Y255950D01*
X240728D01*
X238900Y257778D01*
X238578D01*
X238350Y257550D01*
Y257228D01*
X240178Y255400D01*
Y255078D01*
X239950Y254850D01*
X239628D01*
X237800Y256678D01*
X237478D01*
X237250Y256450D01*
Y256128D01*
X239078Y254300D01*
Y253978D01*
X238850Y253750D01*
X238528D01*
X236700Y255578D01*
X236378D01*
X236150Y255350D01*
Y255028D01*
X237978Y253200D01*
Y252878D01*
X237750Y252650D01*
X237428D01*
X235600Y254478D01*
X235278D01*
X235050Y254250D01*
Y253928D01*
X236878Y252100D01*
Y251778D01*
X236650Y251550D01*
X236328D01*
X234500Y253378D01*
X234178D01*
X233950Y253150D01*
Y252828D01*
X235778Y251000D01*
Y250678D01*
X235550Y250450D01*
X235228D01*
X233400Y252278D01*
X233078D01*
X232850Y252050D01*
Y251728D01*
X234678Y249900D01*
Y249578D01*
X234450Y249350D01*
X234128D01*
X232300Y251178D01*
X231978D01*
X231750Y250950D01*
Y250628D01*
X233578Y248800D01*
Y248478D01*
X233350Y248250D01*
X233028D01*
X231200Y250078D01*
X230878D01*
X230650Y249850D01*
Y249528D01*
X232478Y247700D01*
Y247378D01*
X232250Y247150D01*
X231928D01*
X230100Y248978D01*
X229778D01*
X229550Y248750D01*
Y248428D01*
X231378Y246600D01*
Y246278D01*
X231150Y246050D01*
X230828D01*
X229000Y247878D01*
X228678D01*
X228450Y247650D01*
Y247328D01*
X230278Y245500D01*
Y245178D01*
X228400Y243300D01*
X226900D01*
X226000Y242400D01*
Y209800D01*
X224510Y208310D01*
X217910D01*
X209450Y199850D01*
X202758D01*
X166508Y163600D01*
X159300D01*
X147165Y151465D01*
X121235D01*
X118340Y154360D01*
X98240D01*
G01X99400Y164500D02*
X103800D01*
X104660Y163640D01*
X104982D01*
X107359Y166017D01*
X107681D01*
X107909Y165789D01*
Y165467D01*
X105532Y163090D01*
Y162768D01*
X105760Y162540D01*
X106082D01*
X108459Y164917D01*
X108781D01*
X109009Y164689D01*
Y164367D01*
X106632Y161990D01*
Y161668D01*
X106860Y161440D01*
X107182D01*
X109559Y163817D01*
X109881D01*
X110109Y163589D01*
Y163267D01*
X107732Y160890D01*
Y160568D01*
X108340Y159960D01*
X113167D01*
X114497Y161290D01*
X135090D01*
X148367Y174567D01*
Y179615D01*
X148595Y179843D01*
X149072D01*
X149300Y180071D01*
Y180392D01*
X149072Y180620D01*
X148595D01*
X148367Y180848D01*
Y181169D01*
X148595Y181397D01*
X149072D01*
X149300Y181625D01*
Y181946D01*
X149072Y182174D01*
X148595D01*
X148367Y182402D01*
Y182723D01*
X148595Y182951D01*
X149072D01*
X149300Y183179D01*
Y183500D01*
X149072Y183728D01*
X148595D01*
X148367Y183956D01*
Y184277D01*
X148595Y184505D01*
X149072D01*
X149300Y184733D01*
Y185054D01*
X149072Y185282D01*
X148595D01*
X148367Y185510D01*
Y185831D01*
X148595Y186059D01*
X149072D01*
X149300Y186287D01*
Y186608D01*
X149072Y186836D01*
X148595D01*
X148367Y187064D01*
Y187385D01*
X148595Y187613D01*
X149072D01*
X149300Y187841D01*
Y188162D01*
X149072Y188390D01*
X148595D01*
X148367Y188618D01*
Y188939D01*
X148595Y189167D01*
X149072D01*
X149300Y189395D01*
Y189716D01*
X149072Y189944D01*
X148595D01*
X148367Y190172D01*
Y190493D01*
X148595Y190721D01*
X149072D01*
X149300Y190949D01*
Y191270D01*
X149072Y191498D01*
X148595D01*
X148367Y191726D01*
Y192047D01*
X148595Y192275D01*
X149072D01*
X149300Y192503D01*
Y192824D01*
X149072Y193052D01*
X148595D01*
X148367Y193280D01*
Y193601D01*
X148595Y193829D01*
X149072D01*
X149300Y194057D01*
Y194378D01*
X149072Y194606D01*
X148595D01*
X148367Y194834D01*
Y195155D01*
X148595Y195383D01*
X149072D01*
X149300Y195611D01*
Y195932D01*
X149072Y196160D01*
X148595D01*
X148367Y196388D01*
Y197868D01*
X150220Y199721D01*
Y200043D01*
X148692Y201571D01*
Y201893D01*
X148920Y202121D01*
X149242D01*
X150770Y200593D01*
X151092D01*
X151320Y200821D01*
Y201143D01*
X149792Y202671D01*
Y202993D01*
X150020Y203221D01*
X150342D01*
X151870Y201693D01*
X152192D01*
X152420Y201921D01*
Y202243D01*
X150892Y203771D01*
Y204093D01*
X151120Y204321D01*
X151442D01*
X152970Y202793D01*
X153292D01*
X153520Y203021D01*
Y203343D01*
X151992Y204871D01*
Y205193D01*
X152220Y205421D01*
X152542D01*
X154070Y203893D01*
X154392D01*
X154620Y204121D01*
Y204443D01*
X153092Y205971D01*
Y206293D01*
X153320Y206521D01*
X153642D01*
X155170Y204993D01*
X155492D01*
X155720Y205221D01*
Y205543D01*
X154192Y207071D01*
Y207393D01*
X154420Y207621D01*
X154742D01*
X156270Y206093D01*
X156592D01*
X156820Y206321D01*
Y206643D01*
X155292Y208171D01*
Y208493D01*
X155520Y208721D01*
X155842D01*
X157370Y207193D01*
X157692D01*
X158834Y208335D01*
X160292D01*
X164757Y212800D01*
X173900D01*
X178110Y217010D01*
X178117D01*
X178990Y217883D01*
Y217890D01*
X179600Y218500D01*
X180460D01*
X180688Y218728D01*
Y221572D01*
X180916Y221800D01*
X181237D01*
X181465Y221572D01*
Y218728D01*
X181693Y218500D01*
X182014D01*
X182242Y218728D01*
Y221572D01*
X182470Y221800D01*
X182791D01*
X183019Y221572D01*
Y218728D01*
X183247Y218500D01*
X183568D01*
X183796Y218728D01*
Y221572D01*
X184024Y221800D01*
X184345D01*
X184573Y221572D01*
Y218728D01*
X184801Y218500D01*
X190600D01*
X191153Y219053D01*
Y219375D01*
X190476Y220052D01*
Y220374D01*
X190704Y220602D01*
X191026D01*
X191703Y219925D01*
X192025D01*
X192253Y220153D01*
Y220475D01*
X191576Y221152D01*
Y221474D01*
X191804Y221702D01*
X192126D01*
X192803Y221025D01*
X193125D01*
X193353Y221253D01*
Y221575D01*
X192676Y222252D01*
Y222574D01*
X192904Y222802D01*
X193226D01*
X193903Y222125D01*
X194225D01*
X194453Y222353D01*
Y222675D01*
X193776Y223352D01*
Y223674D01*
X194004Y223902D01*
X194326D01*
X195003Y223225D01*
X195325D01*
X195553Y223453D01*
Y223775D01*
X194876Y224452D01*
Y224774D01*
X195104Y225002D01*
X195426D01*
X196103Y224325D01*
X196425D01*
X196653Y224553D01*
Y224875D01*
X195976Y225552D01*
Y225874D01*
X196204Y226102D01*
X196526D01*
X197203Y225425D01*
X197525D01*
X197753Y225653D01*
Y225975D01*
X197076Y226652D01*
Y226974D01*
X197304Y227202D01*
X197626D01*
X198303Y226525D01*
X198625D01*
X199600Y227500D01*
Y236900D01*
X204400Y241700D01*
X216389Y253690D01*
X216711D01*
X218502Y251899D01*
X218824D01*
X219052Y252127D01*
Y252449D01*
X217261Y254240D01*
Y254562D01*
X217489Y254790D01*
X217811D01*
X219602Y252999D01*
X219924D01*
X220152Y253227D01*
Y253549D01*
X218361Y255340D01*
Y255662D01*
X218589Y255890D01*
X218911D01*
X220702Y254099D01*
X221024D01*
X221252Y254327D01*
Y254649D01*
X219461Y256440D01*
Y256762D01*
X219689Y256990D01*
X220011D01*
X221802Y255199D01*
X222124D01*
X222352Y255427D01*
Y255749D01*
X220561Y257540D01*
Y257862D01*
X220789Y258090D01*
X221111D01*
X222902Y256299D01*
X223224D01*
X223452Y256527D01*
Y256849D01*
X221661Y258640D01*
Y258962D01*
X222589Y259890D01*
X226490D01*
X231160Y264560D01*
Y264882D01*
X230133Y265909D01*
Y266231D01*
X230361Y266459D01*
X230683D01*
X231710Y265432D01*
X232032D01*
X232260Y265660D01*
Y265982D01*
X231233Y267009D01*
Y267331D01*
X231461Y267559D01*
X231783D01*
X232810Y266532D01*
X233132D01*
X233360Y266760D01*
Y267082D01*
X232333Y268109D01*
Y268431D01*
X232561Y268659D01*
X232883D01*
X233910Y267632D01*
X234232D01*
X234460Y267860D01*
Y268182D01*
X233433Y269209D01*
Y269531D01*
X233661Y269759D01*
X233983D01*
X235010Y268732D01*
X235332D01*
X235560Y268960D01*
Y269282D01*
X234533Y270309D01*
Y270631D01*
X234761Y270859D01*
X235083D01*
X236110Y269832D01*
X236432D01*
X236660Y270060D01*
Y270382D01*
X235633Y271409D01*
Y271731D01*
X235861Y271959D01*
X236183D01*
X237210Y270932D01*
X237532D01*
X238094Y271494D01*
X242696D01*
X244490Y273288D01*
Y273990D01*
X245769Y275269D01*
Y275591D01*
X244242Y277118D01*
Y277440D01*
X244470Y277668D01*
X244792D01*
X246319Y276141D01*
X246641D01*
X246869Y276369D01*
Y276691D01*
X245342Y278218D01*
Y278540D01*
X245570Y278768D01*
X245892D01*
X247419Y277241D01*
X247741D01*
X247969Y277469D01*
Y277791D01*
X246442Y279318D01*
Y279640D01*
X246670Y279868D01*
X246992D01*
X248519Y278341D01*
X248841D01*
X249069Y278569D01*
Y278891D01*
X247542Y280418D01*
Y280740D01*
X247770Y280968D01*
X248092D01*
X249619Y279441D01*
X249941D01*
X250169Y279669D01*
Y279991D01*
X248642Y281518D01*
Y281840D01*
X248870Y282068D01*
X249192D01*
X250719Y280541D01*
X251041D01*
X251269Y280769D01*
Y281091D01*
X249742Y282618D01*
Y282940D01*
X249970Y283168D01*
X250292D01*
X251819Y281641D01*
X252141D01*
X252369Y281869D01*
Y282191D01*
X250842Y283718D01*
Y284040D01*
X251070Y284268D01*
X251392D01*
X252919Y282741D01*
X253241D01*
X253469Y282969D01*
Y283291D01*
X251942Y284818D01*
Y285140D01*
X252170Y285368D01*
X252492D01*
X254019Y283841D01*
X254341D01*
X254569Y284069D01*
Y284391D01*
X253042Y285918D01*
Y286240D01*
X253270Y286468D01*
X253592D01*
X255119Y284941D01*
X255441D01*
X255669Y285169D01*
Y285491D01*
X254142Y287018D01*
Y287340D01*
X254370Y287568D01*
X254692D01*
X256219Y286041D01*
X256541D01*
X278500Y308000D01*
X281100D01*
X289286Y316186D01*
X315041D01*
X317489Y318634D01*
X319319D01*
G01X323256Y314696D02*
X321896D01*
X319623Y312423D01*
X314423D01*
X313400Y311400D01*
Y310608D01*
X312062Y309270D01*
X302955D01*
X302954Y309269D01*
X289669D01*
X285000Y304600D01*
Y299600D01*
X282890Y297490D01*
Y297483D01*
X282017Y296610D01*
X275910D01*
X260898Y281598D01*
X260576D01*
X259498Y282676D01*
X259176D01*
X258948Y282448D01*
Y282126D01*
X260026Y281048D01*
Y280726D01*
X259798Y280498D01*
X259476D01*
X258398Y281576D01*
X258076D01*
X257848Y281348D01*
Y281026D01*
X258926Y279948D01*
Y279626D01*
X258698Y279398D01*
X258376D01*
X257298Y280476D01*
X256976D01*
X256748Y280248D01*
Y279926D01*
X257826Y278848D01*
Y278526D01*
X257598Y278298D01*
X257276D01*
X256198Y279376D01*
X255876D01*
X255648Y279148D01*
Y278826D01*
X256726Y277748D01*
Y277426D01*
X256498Y277198D01*
X256176D01*
X255098Y278276D01*
X254776D01*
X254548Y278048D01*
Y277726D01*
X255626Y276648D01*
Y276326D01*
X255398Y276098D01*
X255076D01*
X253998Y277176D01*
X253676D01*
X253448Y276948D01*
Y276626D01*
X254526Y275548D01*
Y275226D01*
X254298Y274998D01*
X253976D01*
X252898Y276076D01*
X252576D01*
X252348Y275848D01*
Y275526D01*
X253426Y274448D01*
Y274126D01*
X253198Y273898D01*
X252876D01*
X251798Y274976D01*
X251476D01*
X251248Y274748D01*
Y274426D01*
X252326Y273348D01*
Y273026D01*
X252098Y272798D01*
X251776D01*
X250698Y273876D01*
X250376D01*
X250148Y273648D01*
Y273326D01*
X251226Y272248D01*
Y271926D01*
X250998Y271698D01*
X250676D01*
X249598Y272776D01*
X249276D01*
X249048Y272548D01*
Y272226D01*
X250126Y271148D01*
Y270826D01*
X249898Y270598D01*
X249576D01*
X248498Y271676D01*
X248176D01*
X247948Y271448D01*
Y271126D01*
X249026Y270048D01*
Y269726D01*
X248798Y269498D01*
X248476D01*
X247398Y270576D01*
X247076D01*
X246848Y270348D01*
Y270026D01*
X247926Y268948D01*
Y268626D01*
X247698Y268398D01*
X247376D01*
X246298Y269476D01*
X245976D01*
X245748Y269248D01*
Y268926D01*
X246826Y267848D01*
Y267526D01*
X246598Y267298D01*
X246276D01*
X245198Y268376D01*
X244876D01*
X244648Y268148D01*
Y267826D01*
X245726Y266748D01*
Y266426D01*
X245498Y266198D01*
X245176D01*
X244098Y267276D01*
X243776D01*
X243548Y267048D01*
Y266726D01*
X244626Y265648D01*
Y265326D01*
X244398Y265098D01*
X244076D01*
X242998Y266176D01*
X242676D01*
X242448Y265948D01*
Y265626D01*
X243526Y264548D01*
Y264226D01*
X239544Y260244D01*
X239222D01*
X237594Y261872D01*
X237272D01*
X237044Y261644D01*
Y261322D01*
X238672Y259694D01*
Y259372D01*
X238444Y259144D01*
X238122D01*
X236494Y260772D01*
X236172D01*
X235944Y260544D01*
Y260222D01*
X237572Y258594D01*
Y258272D01*
X237344Y258044D01*
X237022D01*
X235394Y259672D01*
X235072D01*
X234844Y259444D01*
Y259122D01*
X236472Y257494D01*
Y257172D01*
X236244Y256944D01*
X235922D01*
X234294Y258572D01*
X233972D01*
X233744Y258344D01*
Y258022D01*
X235372Y256394D01*
Y256072D01*
X235144Y255844D01*
X234822D01*
X233194Y257472D01*
X232872D01*
X232644Y257244D01*
Y256922D01*
X234272Y255294D01*
Y254972D01*
X234044Y254744D01*
X233722D01*
X232094Y256372D01*
X231772D01*
X231544Y256144D01*
Y255822D01*
X233172Y254194D01*
Y253872D01*
X232944Y253644D01*
X232622D01*
X230994Y255272D01*
X230672D01*
X230444Y255044D01*
Y254722D01*
X232072Y253094D01*
Y252772D01*
X231844Y252544D01*
X231522D01*
X229894Y254172D01*
X229572D01*
X229344Y253944D01*
Y253622D01*
X230972Y251994D01*
Y251672D01*
X229190Y249890D01*
Y249883D01*
X228317Y249010D01*
X228310D01*
X224400Y245100D01*
X219100D01*
X216660Y242660D01*
Y209160D01*
X209800Y202300D01*
X202700D01*
X182300Y181900D01*
X176270D01*
X176042Y182128D01*
Y193172D01*
X175814Y193400D01*
X175493D01*
X175265Y193172D01*
Y182128D01*
X175037Y181900D01*
X174716D01*
X174488Y182128D01*
Y193172D01*
X174260Y193400D01*
X173939D01*
X173711Y193172D01*
Y182128D01*
X173483Y181900D01*
X173162D01*
X172934Y182128D01*
Y193172D01*
X172706Y193400D01*
X172385D01*
X172157Y193172D01*
Y182128D01*
X171929Y181900D01*
X171608D01*
X171380Y182128D01*
Y193172D01*
X171152Y193400D01*
X170831D01*
X170603Y193172D01*
Y182128D01*
X170375Y181900D01*
X169392D01*
X142277Y154785D01*
X123448D01*
X123433Y154800D01*
X121500D01*
X121070Y155230D01*
X111933D01*
X110563Y156600D01*
X97000D01*
G01X100300Y152000D02*
X117200D01*
X120715Y148485D01*
X146385D01*
X160300Y162400D01*
X168600D01*
X187804Y181604D01*
Y181926D01*
X187327Y182403D01*
Y182725D01*
X187555Y182953D01*
X187877D01*
X188354Y182476D01*
X188676D01*
X188904Y182704D01*
Y183026D01*
X188427Y183503D01*
Y183825D01*
X188655Y184053D01*
X188977D01*
X189454Y183576D01*
X189776D01*
X190004Y183804D01*
Y184126D01*
X189527Y184603D01*
Y184925D01*
X189755Y185153D01*
X190077D01*
X190554Y184676D01*
X190876D01*
X191104Y184904D01*
Y185226D01*
X190627Y185703D01*
Y186025D01*
X190855Y186253D01*
X191177D01*
X191654Y185776D01*
X191976D01*
X192204Y186004D01*
Y186326D01*
X191727Y186803D01*
Y187125D01*
X191955Y187353D01*
X192277D01*
X192754Y186876D01*
X193076D01*
X193304Y187104D01*
Y187426D01*
X192827Y187903D01*
Y188225D01*
X193055Y188453D01*
X193377D01*
X193854Y187976D01*
X194176D01*
X194404Y188204D01*
Y188526D01*
X193927Y189003D01*
Y189325D01*
X194155Y189553D01*
X194477D01*
X194954Y189076D01*
X195276D01*
X195504Y189304D01*
Y189626D01*
X195027Y190103D01*
Y190425D01*
X195255Y190653D01*
X195577D01*
X196054Y190176D01*
X196376D01*
X196604Y190404D01*
Y190726D01*
X196127Y191203D01*
Y191525D01*
X196355Y191753D01*
X196677D01*
X197154Y191276D01*
X197476D01*
X197704Y191504D01*
Y191826D01*
X197227Y192303D01*
Y192625D01*
X197455Y192853D01*
X197777D01*
X198254Y192376D01*
X198576D01*
X198804Y192604D01*
Y192926D01*
X198327Y193403D01*
Y193725D01*
X198555Y193953D01*
X198877D01*
X199354Y193476D01*
X199676D01*
X199904Y193704D01*
Y194026D01*
X199427Y194503D01*
Y194825D01*
X199655Y195053D01*
X199977D01*
X200454Y194576D01*
X200776D01*
X204700Y198500D01*
X214000D01*
X217424Y201924D01*
Y202246D01*
X215596Y204074D01*
Y204396D01*
X215824Y204624D01*
X216146D01*
X217974Y202796D01*
X218296D01*
X218524Y203024D01*
Y203346D01*
X216696Y205174D01*
Y205496D01*
X216924Y205724D01*
X217246D01*
X219074Y203896D01*
X219396D01*
X219624Y204124D01*
Y204446D01*
X217796Y206274D01*
Y206596D01*
X218024Y206824D01*
X218346D01*
X220174Y204996D01*
X220496D01*
X221700Y206200D01*
X224800D01*
X227700Y209100D01*
Y237300D01*
X230100Y239700D01*
Y241300D01*
X233983Y245183D01*
Y245505D01*
X233006Y246482D01*
Y246804D01*
X233234Y247032D01*
X233556D01*
X234533Y246055D01*
X234855D01*
X235083Y246283D01*
Y246605D01*
X234106Y247582D01*
Y247904D01*
X234334Y248132D01*
X234656D01*
X235633Y247155D01*
X235955D01*
X236183Y247383D01*
Y247705D01*
X235206Y248682D01*
Y249004D01*
X235434Y249232D01*
X235756D01*
X236733Y248255D01*
X237055D01*
X237283Y248483D01*
Y248805D01*
X236306Y249782D01*
Y250104D01*
X236534Y250332D01*
X236856D01*
X237833Y249355D01*
X238155D01*
X238383Y249583D01*
Y249905D01*
X237406Y250882D01*
Y251204D01*
X237634Y251432D01*
X237956D01*
X238933Y250455D01*
X239255D01*
X239483Y250683D01*
Y251005D01*
X238506Y251982D01*
Y252304D01*
X238734Y252532D01*
X239056D01*
X240033Y251555D01*
X240355D01*
X240583Y251783D01*
Y252105D01*
X239606Y253082D01*
Y253404D01*
X239834Y253632D01*
X240156D01*
X241133Y252655D01*
X241455D01*
X241683Y252883D01*
Y253205D01*
X240706Y254182D01*
Y254504D01*
X240934Y254732D01*
X241256D01*
X242233Y253755D01*
X242555D01*
X242783Y253983D01*
Y254305D01*
X241806Y255282D01*
Y255604D01*
X242034Y255832D01*
X242356D01*
X243333Y254855D01*
X243655D01*
X243883Y255083D01*
Y255405D01*
X242906Y256382D01*
Y256704D01*
X243134Y256932D01*
X243456D01*
X244433Y255955D01*
X244755D01*
X244983Y256183D01*
Y256505D01*
X244006Y257482D01*
Y257804D01*
X244234Y258032D01*
X244556D01*
X245533Y257055D01*
X245855D01*
X246083Y257283D01*
Y257605D01*
X245106Y258582D01*
Y258904D01*
X245334Y259132D01*
X245656D01*
X246633Y258155D01*
X246955D01*
X247183Y258383D01*
Y258705D01*
X246206Y259682D01*
Y260004D01*
X246434Y260232D01*
X246756D01*
X247733Y259255D01*
X248055D01*
X251000Y262200D01*
X254000D01*
X257079Y265279D01*
Y265601D01*
X255552Y267128D01*
Y267450D01*
X255780Y267678D01*
X256102D01*
X257629Y266151D01*
X257951D01*
X258179Y266379D01*
Y266701D01*
X256652Y268228D01*
Y268550D01*
X256880Y268778D01*
X257202D01*
X258729Y267251D01*
X259051D01*
X259279Y267479D01*
Y267801D01*
X257752Y269328D01*
Y269650D01*
X257980Y269878D01*
X258302D01*
X259829Y268351D01*
X260151D01*
X260379Y268579D01*
Y268901D01*
X258852Y270428D01*
Y270750D01*
X259080Y270978D01*
X259402D01*
X260929Y269451D01*
X261251D01*
X261479Y269679D01*
Y270001D01*
X259952Y271528D01*
Y271850D01*
X260180Y272078D01*
X260502D01*
X262029Y270551D01*
X262351D01*
X262579Y270779D01*
Y271101D01*
X261052Y272628D01*
Y272950D01*
X261280Y273178D01*
X261602D01*
X263129Y271651D01*
X263451D01*
X263679Y271879D01*
Y272201D01*
X262152Y273728D01*
Y274050D01*
X262380Y274278D01*
X262702D01*
X264229Y272751D01*
X264551D01*
X264779Y272979D01*
Y273301D01*
X263252Y274828D01*
Y275150D01*
X263480Y275378D01*
X263802D01*
X265329Y273851D01*
X265651D01*
X265879Y274079D01*
Y274401D01*
X264352Y275928D01*
Y276250D01*
X264580Y276478D01*
X264902D01*
X266429Y274951D01*
X266751D01*
X266979Y275179D01*
Y275501D01*
X265452Y277028D01*
Y277350D01*
X265680Y277578D01*
X266002D01*
X267529Y276051D01*
X267851D01*
X268079Y276279D01*
Y276601D01*
X266552Y278128D01*
Y278450D01*
X266780Y278678D01*
X267102D01*
X268629Y277151D01*
X268951D01*
X269179Y277379D01*
Y277701D01*
X267652Y279228D01*
Y279550D01*
X267880Y279778D01*
X268202D01*
X269729Y278251D01*
X270051D01*
X270279Y278479D01*
Y278801D01*
X268752Y280328D01*
Y280650D01*
X268980Y280878D01*
X269302D01*
X270829Y279351D01*
X271151D01*
X271379Y279579D01*
Y279901D01*
X269852Y281428D01*
Y281750D01*
X270080Y281978D01*
X270402D01*
X271929Y280451D01*
X272251D01*
X272479Y280679D01*
Y281001D01*
X270952Y282528D01*
Y282850D01*
X271180Y283078D01*
X271502D01*
X273029Y281551D01*
X273351D01*
X273579Y281779D01*
Y282101D01*
X272052Y283628D01*
Y283950D01*
X272280Y284178D01*
X272602D01*
X274129Y282651D01*
X274451D01*
X274679Y282879D01*
Y283201D01*
X273152Y284728D01*
Y285050D01*
X273380Y285278D01*
X273702D01*
X275229Y283751D01*
X275551D01*
X275779Y283979D01*
Y284301D01*
X274252Y285828D01*
Y286150D01*
X274480Y286378D01*
X274802D01*
X276329Y284851D01*
X276651D01*
X276879Y285079D01*
Y285401D01*
X275352Y286928D01*
Y287250D01*
X275580Y287478D01*
X275902D01*
X277429Y285951D01*
X277751D01*
X277979Y286179D01*
Y286501D01*
X276452Y288028D01*
Y288350D01*
X276680Y288578D01*
X277002D01*
X278529Y287051D01*
X278851D01*
X279079Y287279D01*
Y287601D01*
X277552Y289128D01*
Y289450D01*
X277780Y289678D01*
X278102D01*
X279629Y288151D01*
X279951D01*
X280179Y288379D01*
Y288701D01*
X278652Y290228D01*
Y290550D01*
X278880Y290778D01*
X279202D01*
X280729Y289251D01*
X281051D01*
X281279Y289479D01*
Y289801D01*
X279752Y291328D01*
Y291650D01*
X279980Y291878D01*
X280302D01*
X281829Y290351D01*
X282151D01*
X282379Y290579D01*
Y290901D01*
X280852Y292428D01*
Y292750D01*
X281080Y292978D01*
X281402D01*
X282929Y291451D01*
X283251D01*
X287500Y295700D01*
Y301359D01*
X291473Y305332D01*
X316632D01*
X317600Y306300D01*
Y307800D01*
X318400Y308600D01*
X319300D01*
X321460Y310760D01*
X323256D01*
G01X100100Y167200D02*
X108801D01*
X113061Y162940D01*
X113167D01*
X113607Y162500D01*
X134200D01*
X135324Y163624D01*
Y163946D01*
X133596Y165674D01*
Y165996D01*
X133824Y166224D01*
X134146D01*
X135874Y164496D01*
X136196D01*
X136424Y164724D01*
Y165046D01*
X134696Y166774D01*
Y167096D01*
X134924Y167324D01*
X135246D01*
X136974Y165596D01*
X137296D01*
X137524Y165824D01*
Y166146D01*
X135796Y167874D01*
Y168196D01*
X136024Y168424D01*
X136346D01*
X138074Y166696D01*
X138396D01*
X138624Y166924D01*
Y167246D01*
X136896Y168974D01*
Y169296D01*
X137124Y169524D01*
X137446D01*
X139174Y167796D01*
X139496D01*
X139724Y168024D01*
Y168346D01*
X137996Y170074D01*
Y170396D01*
X138224Y170624D01*
X138546D01*
X140274Y168896D01*
X140596D01*
X140824Y169124D01*
Y169446D01*
X139096Y171174D01*
Y171496D01*
X139324Y171724D01*
X139646D01*
X141374Y169996D01*
X141696D01*
X147590Y175890D01*
Y178110D01*
X147362Y178338D01*
X145028D01*
X144800Y178566D01*
Y178887D01*
X145028Y179115D01*
X147362D01*
X147590Y179343D01*
Y179664D01*
X147362Y179892D01*
X145028D01*
X144800Y180120D01*
Y180441D01*
X145028Y180669D01*
X147362D01*
X147590Y180897D01*
Y181218D01*
X147362Y181446D01*
X145028D01*
X144800Y181674D01*
Y181995D01*
X145028Y182223D01*
X147362D01*
X147590Y182451D01*
Y182772D01*
X147362Y183000D01*
X145028D01*
X144800Y183228D01*
Y183549D01*
X145028Y183777D01*
X147362D01*
X147590Y184005D01*
Y184326D01*
X147362Y184554D01*
X145028D01*
X144800Y184782D01*
Y185103D01*
X145028Y185331D01*
X147362D01*
X147590Y185559D01*
Y185880D01*
X147362Y186108D01*
X145028D01*
X144800Y186336D01*
Y186657D01*
X145028Y186885D01*
X147362D01*
X147590Y187113D01*
Y187434D01*
X147362Y187662D01*
X145028D01*
X144800Y187890D01*
Y188211D01*
X145028Y188439D01*
X147362D01*
X147590Y188667D01*
Y188988D01*
X147362Y189216D01*
X145028D01*
X144800Y189444D01*
Y189765D01*
X145028Y189993D01*
X147362D01*
X147590Y190221D01*
Y190542D01*
X147362Y190770D01*
X145028D01*
X144800Y190998D01*
Y191319D01*
X145028Y191547D01*
X147362D01*
X147590Y191775D01*
Y192096D01*
X147362Y192324D01*
X145028D01*
X144800Y192552D01*
Y192873D01*
X145028Y193101D01*
X147362D01*
X147590Y193329D01*
Y202290D01*
X156785Y211485D01*
X160292D01*
X163008Y214201D01*
X170481D01*
X179003Y222723D01*
X190127D01*
X190137Y222733D01*
X191733D01*
X198823Y229823D01*
Y237223D01*
X212856Y251256D01*
Y251578D01*
X209979Y254456D01*
Y254778D01*
X210207Y255006D01*
X210529D01*
X213406Y252128D01*
X213728D01*
X213956Y252356D01*
Y252678D01*
X211079Y255556D01*
Y255878D01*
X211307Y256106D01*
X211629D01*
X214506Y253228D01*
X214828D01*
X215056Y253456D01*
Y253778D01*
X212179Y256656D01*
Y256978D01*
X212407Y257206D01*
X212729D01*
X215606Y254328D01*
X215928D01*
X216156Y254556D01*
Y254878D01*
X213279Y257756D01*
Y258078D01*
X213507Y258306D01*
X213829D01*
X216706Y255428D01*
X217028D01*
X217256Y255656D01*
Y255978D01*
X214379Y258856D01*
Y259178D01*
X214607Y259406D01*
X214929D01*
X217806Y256528D01*
X218128D01*
X218356Y256756D01*
Y257078D01*
X215479Y259956D01*
Y260278D01*
X215707Y260506D01*
X216029D01*
X218906Y257628D01*
X219228D01*
X219456Y257856D01*
Y258178D01*
X216579Y261056D01*
Y261378D01*
X216807Y261606D01*
X217129D01*
X220006Y258728D01*
X220328D01*
X220556Y258956D01*
Y259278D01*
X217679Y262156D01*
Y262478D01*
X217907Y262706D01*
X218229D01*
X221106Y259828D01*
X221428D01*
X221656Y260056D01*
Y260378D01*
X218779Y263256D01*
Y263578D01*
X219007Y263806D01*
X219329D01*
X222206Y260928D01*
X222528D01*
X222756Y261156D01*
Y261478D01*
X219879Y264356D01*
Y264678D01*
X220107Y264906D01*
X220429D01*
X223306Y262028D01*
X223628D01*
X223856Y262256D01*
Y262578D01*
X220979Y265456D01*
Y265778D01*
X221207Y266006D01*
X221529D01*
X224406Y263128D01*
X224728D01*
X224956Y263356D01*
Y263678D01*
X222079Y266556D01*
Y266878D01*
X222307Y267106D01*
X222629D01*
X225506Y264228D01*
X225828D01*
X226056Y264456D01*
Y264778D01*
X223179Y267656D01*
Y267978D01*
X223407Y268206D01*
X223729D01*
X226606Y265328D01*
X226928D01*
X227156Y265556D01*
Y265878D01*
X224279Y268756D01*
Y269078D01*
X224507Y269306D01*
X224829D01*
X227706Y266428D01*
X228028D01*
X230900Y269300D01*
X232100D01*
X238000Y275200D01*
Y275300D01*
X272200Y309500D01*
X279200D01*
X286844Y317144D01*
X312062D01*
X313552Y318634D01*
X315382D01*
G01X100070Y187430D02*
X113830D01*
X116410Y190010D01*
Y233010D01*
X124100Y240700D01*
X124300D01*
X134100Y250500D01*
X138300D01*
X140380Y252580D01*
Y252717D01*
X141153Y253490D01*
X149322D01*
X150377Y252435D01*
X171235D01*
X183611Y264811D01*
Y265133D01*
X181183Y267561D01*
Y267883D01*
X181411Y268111D01*
X181733D01*
X184161Y265683D01*
X184483D01*
X184711Y265911D01*
Y266233D01*
X182283Y268661D01*
Y268983D01*
X182511Y269211D01*
X182833D01*
X185261Y266783D01*
X185583D01*
X185811Y267011D01*
Y267333D01*
X183383Y269761D01*
Y270083D01*
X183611Y270311D01*
X183933D01*
X186361Y267883D01*
X186683D01*
X186911Y268111D01*
Y268433D01*
X184483Y270861D01*
Y271183D01*
X184711Y271411D01*
X185033D01*
X187461Y268983D01*
X187783D01*
X188011Y269211D01*
Y269533D01*
X185583Y271961D01*
Y272283D01*
X185811Y272511D01*
X186133D01*
X188561Y270083D01*
X188883D01*
X189111Y270311D01*
Y270633D01*
X186683Y273061D01*
Y273383D01*
X186911Y273611D01*
X187233D01*
X189661Y271183D01*
X189983D01*
X190211Y271411D01*
Y271733D01*
X187783Y274161D01*
Y274483D01*
X188011Y274711D01*
X188333D01*
X190761Y272283D01*
X191083D01*
X191311Y272511D01*
Y272833D01*
X188883Y275261D01*
Y275583D01*
X189111Y275811D01*
X189433D01*
X191861Y273383D01*
X192183D01*
X192411Y273611D01*
Y273933D01*
X189983Y276361D01*
Y276683D01*
X190211Y276911D01*
X190533D01*
X192961Y274483D01*
X193283D01*
X193511Y274711D01*
Y275033D01*
X191083Y277461D01*
Y277783D01*
X191311Y278011D01*
X191633D01*
X194061Y275583D01*
X194383D01*
X194611Y275811D01*
Y276133D01*
X192183Y278561D01*
Y278883D01*
X192411Y279111D01*
X192733D01*
X195161Y276683D01*
X195483D01*
X195711Y276911D01*
Y277233D01*
X193283Y279661D01*
Y279983D01*
X193511Y280211D01*
X193833D01*
X196261Y277783D01*
X196583D01*
X196811Y278011D01*
Y278333D01*
X194383Y280761D01*
Y281083D01*
X194611Y281311D01*
X194933D01*
X197361Y278883D01*
X197683D01*
X197911Y279111D01*
Y279433D01*
X195483Y281861D01*
Y282183D01*
X195711Y282411D01*
X196033D01*
X198461Y279983D01*
X198783D01*
X199011Y280211D01*
Y280533D01*
X196583Y282961D01*
Y283283D01*
X196811Y283511D01*
X197133D01*
X199561Y281083D01*
X199883D01*
X200111Y281311D01*
Y281633D01*
X197683Y284061D01*
Y284383D01*
X197911Y284611D01*
X198233D01*
X200661Y282183D01*
X200983D01*
X201211Y282411D01*
Y282733D01*
X198783Y285161D01*
Y285483D01*
X199011Y285711D01*
X199333D01*
X201761Y283283D01*
X202083D01*
X202311Y283511D01*
Y283833D01*
X199883Y286261D01*
Y286583D01*
X200111Y286811D01*
X200433D01*
X202861Y284383D01*
X203183D01*
X203411Y284611D01*
Y284933D01*
X200983Y287361D01*
Y287683D01*
X201211Y287911D01*
X201533D01*
X203961Y285483D01*
X204283D01*
X204511Y285711D01*
Y286033D01*
X202083Y288461D01*
Y288783D01*
X202311Y289011D01*
X202633D01*
X205061Y286583D01*
X205383D01*
X205611Y286811D01*
Y287133D01*
X203183Y289561D01*
Y289883D01*
X203411Y290111D01*
X203733D01*
X206161Y287683D01*
X206483D01*
X206711Y287911D01*
Y288233D01*
X204283Y290661D01*
Y290983D01*
X204511Y291211D01*
X204833D01*
X207261Y288783D01*
X207583D01*
X207811Y289011D01*
Y289333D01*
X205383Y291761D01*
Y292083D01*
X205611Y292311D01*
X205933D01*
X208361Y289883D01*
X208683D01*
X208911Y290111D01*
Y290433D01*
X206483Y292861D01*
Y293183D01*
X206711Y293411D01*
X207033D01*
X209461Y290983D01*
X209783D01*
X210011Y291211D01*
Y291533D01*
X207583Y293961D01*
Y294283D01*
X207811Y294511D01*
X208133D01*
X210561Y292083D01*
X210883D01*
X211111Y292311D01*
Y292633D01*
X208683Y295061D01*
Y295383D01*
X208911Y295611D01*
X209233D01*
X211661Y293183D01*
X211983D01*
X212211Y293411D01*
Y293733D01*
X209783Y296161D01*
Y296483D01*
X210011Y296711D01*
X210333D01*
X212761Y294283D01*
X213083D01*
X213311Y294511D01*
Y294833D01*
X210883Y297261D01*
Y297583D01*
X211111Y297811D01*
X211433D01*
X213861Y295383D01*
X214183D01*
X221400Y302600D01*
X243400D01*
X271800Y331000D01*
X280700D01*
X286245Y336545D01*
X290245D01*
X290528Y336828D01*
X308124D01*
X309615Y338319D01*
X311445D01*
G01X390207Y334382D02*
Y332552D01*
X388717Y331062D01*
Y330785D01*
X386886Y328954D01*
X362031D01*
X358805Y332180D01*
Y361094D01*
X347449Y372450D01*
X290950D01*
X289000Y370500D01*
X255000D01*
X234000Y349500D01*
X205500D01*
X198900Y342900D01*
Y318200D01*
X197300Y316600D01*
X193300D01*
X181300Y304600D01*
X161507D01*
X160292Y305815D01*
X157450D01*
X157222Y306043D01*
Y307972D01*
X156994Y308200D01*
X156673D01*
X156445Y307972D01*
Y303658D01*
X156217Y303430D01*
X155896D01*
X155668Y303658D01*
Y307972D01*
X155440Y308200D01*
X155119D01*
X154891Y307972D01*
Y303658D01*
X154663Y303430D01*
X154342D01*
X154114Y303658D01*
Y307972D01*
X153886Y308200D01*
X153565D01*
X153337Y307972D01*
Y303658D01*
X153109Y303430D01*
X152788D01*
X152560Y303658D01*
Y307972D01*
X152332Y308200D01*
X152011D01*
X151783Y307972D01*
Y303658D01*
X151555Y303430D01*
X151234D01*
X151006Y303658D01*
Y307972D01*
X150778Y308200D01*
X150457D01*
X150229Y307972D01*
Y303658D01*
X150001Y303430D01*
X149680D01*
X149452Y303658D01*
Y307972D01*
X149224Y308200D01*
X148903D01*
X148675Y307972D01*
Y303658D01*
X148447Y303430D01*
X148126D01*
X147898Y303658D01*
Y307972D01*
X147670Y308200D01*
X147349D01*
X147121Y307972D01*
Y303658D01*
X146893Y303430D01*
X146572D01*
X146344Y303658D01*
Y307972D01*
X146116Y308200D01*
X145795D01*
X145567Y307972D01*
Y303658D01*
X145339Y303430D01*
X145018D01*
X144790Y303658D01*
Y307972D01*
X144562Y308200D01*
X144241D01*
X144013Y307972D01*
Y303658D01*
X143785Y303430D01*
X143464D01*
X143236Y303658D01*
Y307972D01*
X143008Y308200D01*
X142687D01*
X142459Y307972D01*
Y303658D01*
X142231Y303430D01*
X141910D01*
X141682Y303658D01*
Y307972D01*
X141454Y308200D01*
X141133D01*
X140905Y307972D01*
Y303658D01*
X140677Y303430D01*
X140356D01*
X140128Y303658D01*
Y307972D01*
X139900Y308200D01*
X139579D01*
X139351Y307972D01*
Y303658D01*
X139123Y303430D01*
X138802D01*
X138574Y303658D01*
Y307972D01*
X138346Y308200D01*
X138025D01*
X137797Y307972D01*
Y303658D01*
X137569Y303430D01*
X137248D01*
X137020Y303658D01*
Y307972D01*
X136792Y308200D01*
X136471D01*
X136243Y307972D01*
Y306043D01*
X136015Y305815D01*
X135015D01*
X132035Y302835D01*
X116829D01*
X115471Y301477D01*
X103623D01*
X98900Y306200D01*
X96200D01*
G01X97200Y318400D02*
X104500D01*
X108200Y322100D01*
X116700D01*
X123950Y329350D01*
X172350D01*
X182500Y339500D01*
Y354900D01*
X192400Y364800D01*
X195600D01*
X195828Y365028D01*
Y367872D01*
X196056Y368100D01*
X196377D01*
X196605Y367872D01*
Y365028D01*
X196833Y364800D01*
X197154D01*
X197382Y365028D01*
Y367872D01*
X197610Y368100D01*
X197931D01*
X198159Y367872D01*
Y365028D01*
X198387Y364800D01*
X198708D01*
X198936Y365028D01*
Y367872D01*
X199164Y368100D01*
X199485D01*
X199713Y367872D01*
Y365028D01*
X199941Y364800D01*
X200262D01*
X200490Y365028D01*
Y367872D01*
X200718Y368100D01*
X201039D01*
X201267Y367872D01*
Y365028D01*
X201495Y364800D01*
X201816D01*
X202044Y365028D01*
Y367872D01*
X202272Y368100D01*
X202593D01*
X202821Y367872D01*
Y365028D01*
X203049Y364800D01*
X203370D01*
X203598Y365028D01*
Y367872D01*
X203826Y368100D01*
X204147D01*
X204375Y367872D01*
Y365028D01*
X204603Y364800D01*
X204924D01*
X205152Y365028D01*
Y367872D01*
X205380Y368100D01*
X205701D01*
X205929Y367872D01*
Y365028D01*
X206157Y364800D01*
X206478D01*
X206706Y365028D01*
Y367872D01*
X206934Y368100D01*
X207255D01*
X207483Y367872D01*
Y365028D01*
X207711Y364800D01*
X208032D01*
X208260Y365028D01*
Y367872D01*
X208488Y368100D01*
X208809D01*
X209037Y367872D01*
Y365028D01*
X209265Y364800D01*
X209586D01*
X209814Y365028D01*
Y367872D01*
X210042Y368100D01*
X210363D01*
X210591Y367872D01*
Y365028D01*
X210819Y364800D01*
X211140D01*
X211368Y365028D01*
Y367872D01*
X211596Y368100D01*
X211917D01*
X212145Y367872D01*
Y365028D01*
X212373Y364800D01*
X212694D01*
X212922Y365028D01*
Y367872D01*
X213150Y368100D01*
X213471D01*
X213699Y367872D01*
Y365028D01*
X213927Y364800D01*
X214248D01*
X214476Y365028D01*
Y367872D01*
X214704Y368100D01*
X215025D01*
X215253Y367872D01*
Y365028D01*
X215481Y364800D01*
X215802D01*
X216030Y365028D01*
Y367872D01*
X216258Y368100D01*
X216579D01*
X216807Y367872D01*
Y365028D01*
X217035Y364800D01*
X217356D01*
X217584Y365028D01*
Y367872D01*
X217812Y368100D01*
X218133D01*
X218361Y367872D01*
Y365028D01*
X218589Y364800D01*
X218910D01*
X219138Y365028D01*
Y367872D01*
X219366Y368100D01*
X219687D01*
X219915Y367872D01*
Y365028D01*
X220143Y364800D01*
X220464D01*
X220692Y365028D01*
Y367872D01*
X220920Y368100D01*
X221241D01*
X221469Y367872D01*
Y365028D01*
X221697Y364800D01*
X222018D01*
X222246Y365028D01*
Y367872D01*
X222474Y368100D01*
X222795D01*
X223023Y367872D01*
Y365028D01*
X223251Y364800D01*
X223572D01*
X223800Y365028D01*
Y367872D01*
X224028Y368100D01*
X224349D01*
X224577Y367872D01*
Y365028D01*
X224805Y364800D01*
X225126D01*
X225354Y365028D01*
Y367872D01*
X225582Y368100D01*
X225903D01*
X226131Y367872D01*
Y365028D01*
X226359Y364800D01*
X226680D01*
X226908Y365028D01*
Y367872D01*
X227136Y368100D01*
X227457D01*
X227685Y367872D01*
Y365028D01*
X227913Y364800D01*
X228234D01*
X228462Y365028D01*
Y367872D01*
X228690Y368100D01*
X229011D01*
X229239Y367872D01*
Y365028D01*
X229467Y364800D01*
X229788D01*
X230016Y365028D01*
Y367872D01*
X230244Y368100D01*
X230565D01*
X230793Y367872D01*
Y365028D01*
X231021Y364800D01*
X232799D01*
X240996Y372997D01*
X247437D01*
X247440Y373000D01*
X247442D01*
X254142Y379700D01*
X354100D01*
X364355Y369445D01*
Y366278D01*
X368075Y362558D01*
Y345433D01*
X369583Y343925D01*
X384733D01*
X385331Y344523D01*
X391177D01*
X392638Y343062D01*
Y341655D01*
X394144Y340149D01*
Y338319D01*
G01X246727Y19727D02*
X243677Y16677D01*
Y13919D01*
X234858Y5100D01*
X171763D01*
X165863Y11000D01*
X124000D01*
G01Y36000D02*
X148379D01*
X149279Y35100D01*
X175882D01*
X178982Y38200D01*
X187018D01*
X188542Y36677D01*
X247535D01*
X248677Y35535D01*
Y32777D01*
X251727Y29727D01*
G01X319319Y338319D02*
X320809Y336829D01*
Y333765D01*
X319778Y332734D01*
X314434D01*
X313093Y331393D01*
Y329986D01*
X312061Y328954D01*
X291011D01*
X290765Y329200D01*
X286500D01*
X285800Y328500D01*
X284200D01*
X280200Y324500D01*
X273900D01*
X272762Y323364D01*
Y322213D01*
X273575Y321400D01*
Y321080D01*
X273345Y320850D01*
X273025D01*
X270664Y323211D01*
X269514D01*
X268701Y322398D01*
Y321248D01*
X271062Y318887D01*
Y318567D01*
X270832Y318337D01*
X270512D01*
X269699Y319150D01*
X268549D01*
X266556Y317156D01*
X266264Y316864D01*
Y316776D01*
X249288Y299800D01*
X247500D01*
X235800Y288100D01*
X232767D01*
X232539Y288328D01*
Y292387D01*
X231726Y293200D01*
X230577D01*
X229764Y292387D01*
Y283228D01*
X229536Y283000D01*
X229215D01*
X228987Y283228D01*
Y292387D01*
X228174Y293200D01*
X227025D01*
X226212Y292387D01*
Y288328D01*
X225984Y288100D01*
X224087D01*
X222219Y286232D01*
Y285082D01*
X223276Y284025D01*
Y283705D01*
X223046Y283475D01*
X222726D01*
X219877Y286324D01*
X218727D01*
X217914Y285511D01*
Y284361D01*
X220763Y281512D01*
Y281192D01*
X220533Y280962D01*
X220213D01*
X217364Y283811D01*
X216214D01*
X215401Y282998D01*
Y281848D01*
X218250Y278999D01*
Y278679D01*
X218020Y278449D01*
X217700D01*
X214851Y281298D01*
X213701D01*
X212888Y280485D01*
Y279335D01*
X215737Y276486D01*
Y276166D01*
X215507Y275936D01*
X215187D01*
X214130Y276993D01*
X212980D01*
X208186Y272199D01*
Y271049D01*
X209243Y269992D01*
Y269672D01*
X209013Y269442D01*
X208693D01*
X205844Y272291D01*
X204694D01*
X203881Y271478D01*
Y270328D01*
X206730Y267479D01*
Y267159D01*
X206500Y266929D01*
X206180D01*
X203331Y269778D01*
X202181D01*
X201368Y268965D01*
Y267815D01*
X204217Y264966D01*
Y264646D01*
X203987Y264416D01*
X203667D01*
X200818Y267265D01*
X199668D01*
X198855Y266452D01*
Y265302D01*
X201704Y262453D01*
Y262133D01*
X201474Y261903D01*
X201154D01*
X198305Y264752D01*
X197155D01*
X196342Y263939D01*
Y262789D01*
X199191Y259940D01*
Y259620D01*
X198961Y259390D01*
X198641D01*
X195792Y262239D01*
X194642D01*
X193829Y261426D01*
Y260276D01*
X196678Y257427D01*
Y257107D01*
X196448Y256877D01*
X196128D01*
X193279Y259726D01*
X192129D01*
X191316Y258913D01*
Y257763D01*
X194165Y254914D01*
Y254594D01*
X193935Y254364D01*
X193615D01*
X190766Y257213D01*
X189616D01*
X188803Y256400D01*
Y255250D01*
X191652Y252401D01*
Y252081D01*
X191422Y251851D01*
X191102D01*
X188253Y254700D01*
X187103D01*
X186290Y253887D01*
Y252737D01*
X189139Y249888D01*
Y249568D01*
X188909Y249338D01*
X188589D01*
X185740Y252187D01*
X184590D01*
X183777Y251374D01*
Y250224D01*
X184834Y249167D01*
Y248847D01*
X182187Y246200D01*
X140400D01*
X130600Y236400D01*
Y233395D01*
X131413Y232582D01*
X132473D01*
X132701Y232354D01*
Y232033D01*
X132473Y231805D01*
X129312D01*
X128499Y230992D01*
Y229843D01*
X129312Y229030D01*
X132473D01*
X132701Y228802D01*
Y228481D01*
X132473Y228253D01*
X129312D01*
X128499Y227440D01*
Y226291D01*
X129312Y225478D01*
X132473D01*
X132701Y225250D01*
Y224929D01*
X132473Y224701D01*
X129312D01*
X128499Y223888D01*
Y222739D01*
X129312Y221926D01*
X132473D01*
X132701Y221698D01*
Y221377D01*
X132473Y221149D01*
X129312D01*
X128499Y220336D01*
Y219187D01*
X129312Y218374D01*
X132473D01*
X132701Y218146D01*
Y217825D01*
X132473Y217597D01*
X129312D01*
X128499Y216784D01*
Y215635D01*
X129312Y214822D01*
X130372D01*
X130600Y214594D01*
Y178900D01*
X124900Y173200D01*
X122900D01*
X120100Y176000D01*
Y177500D01*
X117935Y179665D01*
X115703D01*
X114750Y180618D01*
G01X323256Y334382D02*
X321973Y335665D01*
X321731D01*
X321608Y335542D01*
Y333434D01*
X320109Y331935D01*
X314765D01*
X313892Y331062D01*
Y329655D01*
X312392Y328155D01*
X290811D01*
X290765Y328201D01*
X286914D01*
X286314Y327601D01*
X284714D01*
X280614Y323501D01*
X274314D01*
X273761Y322949D01*
Y322627D01*
X274574Y321814D01*
Y320666D01*
X273759Y319851D01*
X272611D01*
X270250Y322212D01*
X269928D01*
X269700Y321984D01*
Y321662D01*
X272061Y319301D01*
Y318153D01*
X271246Y317338D01*
X270098D01*
X269285Y318151D01*
X268963D01*
X267263Y316450D01*
Y316362D01*
X249702Y298801D01*
X247914D01*
X236214Y287101D01*
X232353D01*
X231540Y287914D01*
Y291973D01*
X231312Y292201D01*
X230991D01*
X230763Y291973D01*
Y282814D01*
X229950Y282001D01*
X228801D01*
X227988Y282814D01*
Y291973D01*
X227760Y292201D01*
X227439D01*
X227211Y291973D01*
Y287914D01*
X226398Y287101D01*
X224501D01*
X223218Y285818D01*
Y285496D01*
X224275Y284439D01*
Y283291D01*
X223460Y282476D01*
X222312D01*
X219463Y285325D01*
X219141D01*
X218913Y285097D01*
Y284775D01*
X221762Y281926D01*
Y280778D01*
X220947Y279963D01*
X219799D01*
X216950Y282812D01*
X216628D01*
X216400Y282584D01*
Y282262D01*
X219249Y279413D01*
Y278265D01*
X218434Y277450D01*
X217286D01*
X214437Y280299D01*
X214115D01*
X213887Y280071D01*
Y279749D01*
X216736Y276900D01*
Y275752D01*
X215921Y274937D01*
X214773D01*
X213716Y275994D01*
X213394D01*
X209185Y271785D01*
Y271463D01*
X210242Y270406D01*
Y269258D01*
X209427Y268443D01*
X208279D01*
X205430Y271292D01*
X205108D01*
X204880Y271064D01*
Y270742D01*
X207729Y267893D01*
Y266745D01*
X206914Y265930D01*
X205766D01*
X202917Y268779D01*
X202595D01*
X202367Y268551D01*
Y268229D01*
X205216Y265380D01*
Y264232D01*
X204401Y263417D01*
X203253D01*
X200404Y266266D01*
X200082D01*
X199854Y266038D01*
Y265716D01*
X202703Y262867D01*
Y261719D01*
X201888Y260904D01*
X200740D01*
X197891Y263753D01*
X197569D01*
X197341Y263525D01*
Y263203D01*
X200190Y260354D01*
Y259206D01*
X199375Y258391D01*
X198227D01*
X195378Y261240D01*
X195056D01*
X194828Y261012D01*
Y260690D01*
X197677Y257841D01*
Y256693D01*
X196862Y255878D01*
X195714D01*
X192865Y258727D01*
X192543D01*
X192315Y258499D01*
Y258177D01*
X195164Y255328D01*
Y254180D01*
X194349Y253365D01*
X193201D01*
X190352Y256214D01*
X190030D01*
X189802Y255986D01*
Y255664D01*
X192651Y252815D01*
Y251667D01*
X191836Y250852D01*
X190688D01*
X187839Y253701D01*
X187517D01*
X187289Y253473D01*
Y253151D01*
X190138Y250302D01*
Y249154D01*
X189323Y248339D01*
X188175D01*
X185326Y251188D01*
X185004D01*
X184776Y250960D01*
Y250638D01*
X185833Y249581D01*
Y248433D01*
X182601Y245201D01*
X140814D01*
X131599Y235986D01*
Y233809D01*
X131827Y233581D01*
X132887D01*
X133700Y232768D01*
Y231619D01*
X132887Y230806D01*
X129726D01*
X129498Y230578D01*
Y230257D01*
X129726Y230029D01*
X132887D01*
X133700Y229216D01*
Y228067D01*
X132887Y227254D01*
X129726D01*
X129498Y227026D01*
Y226705D01*
X129726Y226477D01*
X132887D01*
X133700Y225664D01*
Y224515D01*
X132887Y223702D01*
X129726D01*
X129498Y223474D01*
Y223153D01*
X129726Y222925D01*
X132887D01*
X133700Y222112D01*
Y220963D01*
X132887Y220150D01*
X129726D01*
X129498Y219922D01*
Y219601D01*
X129726Y219373D01*
X132887D01*
X133700Y218560D01*
Y217411D01*
X132887Y216598D01*
X129726D01*
X129498Y216370D01*
Y216049D01*
X129726Y215821D01*
X130786D01*
X131599Y215008D01*
Y178486D01*
X125314Y172201D01*
X122486D01*
X119101Y175586D01*
Y177086D01*
X117521Y178666D01*
X115703D01*
X114750Y177713D01*
G01X114300Y170900D02*
X117500D01*
X118800Y169600D01*
X131200D01*
X137900Y176300D01*
Y177631D01*
X137672Y177859D01*
X136428D01*
X136200Y178087D01*
Y178408D01*
X136428Y178636D01*
X137672D01*
X137900Y178864D01*
Y179185D01*
X137672Y179413D01*
X136428D01*
X136200Y179641D01*
Y179962D01*
X136428Y180190D01*
X137672D01*
X137900Y180418D01*
Y180739D01*
X137672Y180967D01*
X136428D01*
X136200Y181195D01*
Y181516D01*
X136428Y181744D01*
X137672D01*
X137900Y181972D01*
Y182293D01*
X137672Y182521D01*
X136428D01*
X136200Y182749D01*
Y183070D01*
X136428Y183298D01*
X137672D01*
X137900Y183526D01*
Y183847D01*
X137672Y184075D01*
X136428D01*
X136200Y184303D01*
Y184624D01*
X136428Y184852D01*
X137672D01*
X137900Y185080D01*
Y185401D01*
X137672Y185629D01*
X136428D01*
X136200Y185857D01*
Y186178D01*
X136428Y186406D01*
X137672D01*
X137900Y186634D01*
Y186955D01*
X137672Y187183D01*
X136428D01*
X136200Y187411D01*
Y187732D01*
X136428Y187960D01*
X137672D01*
X137900Y188188D01*
Y188509D01*
X137672Y188737D01*
X136428D01*
X136200Y188965D01*
Y189286D01*
X136428Y189514D01*
X137672D01*
X137900Y189742D01*
Y190063D01*
X137672Y190291D01*
X136428D01*
X136200Y190519D01*
Y190840D01*
X136428Y191068D01*
X137672D01*
X137900Y191296D01*
Y191617D01*
X137672Y191845D01*
X136428D01*
X136200Y192073D01*
Y192394D01*
X136428Y192622D01*
X137672D01*
X137900Y192850D01*
Y193171D01*
X137672Y193399D01*
X136428D01*
X136200Y193627D01*
Y193948D01*
X136428Y194176D01*
X137672D01*
X137900Y194404D01*
Y194725D01*
X137672Y194953D01*
X136428D01*
X136200Y195181D01*
Y195502D01*
X136428Y195730D01*
X137672D01*
X137900Y195958D01*
Y196279D01*
X137672Y196507D01*
X136428D01*
X136200Y196735D01*
Y197056D01*
X136428Y197284D01*
X137672D01*
X137900Y197512D01*
Y197833D01*
X137672Y198061D01*
X136428D01*
X136200Y198289D01*
Y198610D01*
X136428Y198838D01*
X137672D01*
X137900Y199066D01*
Y199387D01*
X137672Y199615D01*
X136428D01*
X136200Y199843D01*
Y200164D01*
X136428Y200392D01*
X137672D01*
X137900Y200620D01*
Y200941D01*
X137672Y201169D01*
X136428D01*
X136200Y201397D01*
Y201718D01*
X136428Y201946D01*
X137672D01*
X137900Y202174D01*
Y202495D01*
X137672Y202723D01*
X136428D01*
X136200Y202951D01*
Y203272D01*
X136428Y203500D01*
X137672D01*
X137900Y203728D01*
Y204049D01*
X137672Y204277D01*
X136428D01*
X136200Y204505D01*
Y204826D01*
X136428Y205054D01*
X137672D01*
X137900Y205282D01*
Y205603D01*
X137672Y205831D01*
X136428D01*
X136200Y206059D01*
Y206380D01*
X136428Y206608D01*
X137672D01*
X137900Y206836D01*
Y207157D01*
X137672Y207385D01*
X136428D01*
X136200Y207613D01*
Y207934D01*
X136428Y208162D01*
X137672D01*
X137900Y208390D01*
Y208711D01*
X137672Y208939D01*
X136428D01*
X136200Y209167D01*
Y209488D01*
X136428Y209716D01*
X137672D01*
X137900Y209944D01*
Y210265D01*
X137672Y210493D01*
X136428D01*
X136200Y210721D01*
Y211042D01*
X136428Y211270D01*
X137672D01*
X137900Y211498D01*
Y211819D01*
X137672Y212047D01*
X136428D01*
X136200Y212275D01*
Y212596D01*
X136428Y212824D01*
X137672D01*
X137900Y213052D01*
Y213373D01*
X137672Y213601D01*
X136428D01*
X136200Y213829D01*
Y214150D01*
X136428Y214378D01*
X137672D01*
X137900Y214606D01*
Y214927D01*
X137672Y215155D01*
X136428D01*
X136200Y215383D01*
Y215704D01*
X136428Y215932D01*
X137672D01*
X137900Y216160D01*
Y216481D01*
X137672Y216709D01*
X136428D01*
X136200Y216937D01*
Y217258D01*
X136428Y217486D01*
X137672D01*
X137900Y217714D01*
Y218035D01*
X137672Y218263D01*
X136428D01*
X136200Y218491D01*
Y218812D01*
X136428Y219040D01*
X137672D01*
X137900Y219268D01*
Y219589D01*
X137672Y219817D01*
X136428D01*
X136200Y220045D01*
Y220366D01*
X136428Y220594D01*
X137672D01*
X137900Y220822D01*
Y221143D01*
X137672Y221371D01*
X136428D01*
X136200Y221599D01*
Y221920D01*
X136428Y222148D01*
X137672D01*
X137900Y222376D01*
Y222697D01*
X137672Y222925D01*
X136428D01*
X136200Y223153D01*
Y223474D01*
X136428Y223702D01*
X137672D01*
X137900Y223930D01*
Y224251D01*
X137672Y224479D01*
X136428D01*
X136200Y224707D01*
Y225028D01*
X136428Y225256D01*
X137672D01*
X137900Y225484D01*
Y225805D01*
X137672Y226033D01*
X136428D01*
X136200Y226261D01*
Y226582D01*
X136428Y226810D01*
X137672D01*
X137900Y227038D01*
Y227359D01*
X137672Y227587D01*
X136428D01*
X136200Y227815D01*
Y228136D01*
X136428Y228364D01*
X137672D01*
X137900Y228592D01*
Y229700D01*
X144900Y236700D01*
X148048D01*
X148276Y236928D01*
Y242672D01*
X148504Y242900D01*
X148825D01*
X149053Y242672D01*
Y236928D01*
X149281Y236700D01*
X149602D01*
X149830Y236928D01*
Y242672D01*
X150058Y242900D01*
X150379D01*
X150607Y242672D01*
Y236928D01*
X150835Y236700D01*
X151156D01*
X151384Y236928D01*
Y242672D01*
X151612Y242900D01*
X151933D01*
X152161Y242672D01*
Y236928D01*
X152389Y236700D01*
X152710D01*
X152938Y236928D01*
Y242672D01*
X153166Y242900D01*
X153487D01*
X153715Y242672D01*
Y236928D01*
X153943Y236700D01*
X154264D01*
X154492Y236928D01*
Y242672D01*
X154720Y242900D01*
X155041D01*
X155269Y242672D01*
Y236928D01*
X155497Y236700D01*
X155818D01*
X156046Y236928D01*
Y242672D01*
X156274Y242900D01*
X156595D01*
X156823Y242672D01*
Y236928D01*
X157051Y236700D01*
X161193D01*
X161883Y236010D01*
X164790D01*
X167224Y233576D01*
X172949D01*
X173177Y233804D01*
Y237172D01*
X173405Y237400D01*
X173726D01*
X173954Y237172D01*
Y233804D01*
X174182Y233576D01*
X174503D01*
X174731Y233804D01*
Y237172D01*
X174959Y237400D01*
X175280D01*
X175508Y237172D01*
Y233804D01*
X175736Y233576D01*
X176057D01*
X176285Y233804D01*
Y237172D01*
X176513Y237400D01*
X176834D01*
X177062Y237172D01*
Y233804D01*
X177290Y233576D01*
X177611D01*
X177839Y233804D01*
Y237172D01*
X178067Y237400D01*
X178388D01*
X178616Y237172D01*
Y233804D01*
X179527Y232893D01*
X188993D01*
X197100Y241000D01*
Y248300D01*
X222600Y273800D01*
X231907D01*
X270607Y312500D01*
X276700D01*
X287200Y323000D01*
X290082D01*
X291282Y324200D01*
X314600D01*
X315382Y324982D01*
Y326508D01*
G01Y330445D02*
Y328615D01*
X313892Y327125D01*
Y326592D01*
X312318Y325018D01*
X290425D01*
X289517Y324110D01*
X286510D01*
X275900Y313500D01*
X265500D01*
X249400Y297400D01*
Y297300D01*
X232800Y280700D01*
X224000D01*
X187200Y243900D01*
X184549D01*
X184321Y243672D01*
Y238828D01*
X184093Y238600D01*
X183772D01*
X183544Y238828D01*
Y243672D01*
X183316Y243900D01*
X182995D01*
X182767Y243672D01*
Y238828D01*
X182539Y238600D01*
X182218D01*
X181990Y238828D01*
Y243672D01*
X181762Y243900D01*
X181441D01*
X181213Y243672D01*
Y238828D01*
X180985Y238600D01*
X180664D01*
X180436Y238828D01*
Y243672D01*
X180208Y243900D01*
X179887D01*
X179659Y243672D01*
Y238828D01*
X179431Y238600D01*
X179110D01*
X178882Y238828D01*
Y243672D01*
X178654Y243900D01*
X178333D01*
X178105Y243672D01*
Y238828D01*
X177877Y238600D01*
X177556D01*
X177328Y238828D01*
Y243672D01*
X177100Y243900D01*
X176779D01*
X176551Y243672D01*
Y238828D01*
X176323Y238600D01*
X176002D01*
X175774Y238828D01*
Y243672D01*
X175546Y243900D01*
X175225D01*
X174997Y243672D01*
Y238828D01*
X174769Y238600D01*
X174448D01*
X174220Y238828D01*
Y243672D01*
X173992Y243900D01*
X145100D01*
X142615Y241415D01*
X142293D01*
X140372Y243336D01*
X140050D01*
X139822Y243108D01*
Y242786D01*
X141743Y240865D01*
Y240543D01*
X141515Y240315D01*
X141193D01*
X139272Y242236D01*
X138950D01*
X138722Y242008D01*
Y241686D01*
X140643Y239765D01*
Y239443D01*
X140415Y239215D01*
X140093D01*
X138172Y241136D01*
X137850D01*
X137622Y240908D01*
Y240586D01*
X139543Y238665D01*
Y238343D01*
X139315Y238115D01*
X138993D01*
X137072Y240036D01*
X136750D01*
X136522Y239808D01*
Y239486D01*
X138443Y237565D01*
Y237243D01*
X138215Y237015D01*
X137893D01*
X135972Y238936D01*
X135650D01*
X135422Y238708D01*
Y238386D01*
X137343Y236465D01*
Y236143D01*
X137115Y235915D01*
X136793D01*
X134872Y237836D01*
X134550D01*
X134322Y237608D01*
Y237286D01*
X136243Y235365D01*
Y235043D01*
X135400Y234200D01*
Y233183D01*
X135172Y232955D01*
X134828D01*
X134600Y232727D01*
Y232406D01*
X134828Y232178D01*
X135172D01*
X135400Y231950D01*
Y231629D01*
X135172Y231401D01*
X134828D01*
X134600Y231173D01*
Y230852D01*
X134828Y230624D01*
X135172D01*
X135400Y230396D01*
Y230075D01*
X135172Y229847D01*
X134828D01*
X134600Y229619D01*
Y229298D01*
X134828Y229070D01*
X135172D01*
X135400Y228842D01*
Y228521D01*
X135172Y228293D01*
X134828D01*
X134600Y228065D01*
Y227744D01*
X134828Y227516D01*
X135172D01*
X135400Y227288D01*
Y226967D01*
X135172Y226739D01*
X134828D01*
X134600Y226511D01*
Y226190D01*
X134828Y225962D01*
X135172D01*
X135400Y225734D01*
Y225413D01*
X135172Y225185D01*
X134828D01*
X134600Y224957D01*
Y224636D01*
X134828Y224408D01*
X135172D01*
X135400Y224180D01*
Y223859D01*
X135172Y223631D01*
X134828D01*
X134600Y223403D01*
Y223082D01*
X134828Y222854D01*
X135172D01*
X135400Y222626D01*
Y222305D01*
X135172Y222077D01*
X134828D01*
X134600Y221849D01*
Y221528D01*
X134828Y221300D01*
X135172D01*
X135400Y221072D01*
Y220751D01*
X135172Y220523D01*
X134828D01*
X134600Y220295D01*
Y219974D01*
X134828Y219746D01*
X135172D01*
X135400Y219518D01*
Y219197D01*
X135172Y218969D01*
X134828D01*
X134600Y218741D01*
Y218420D01*
X134828Y218192D01*
X135172D01*
X135400Y217964D01*
Y217643D01*
X135172Y217415D01*
X134828D01*
X134600Y217187D01*
Y216866D01*
X134828Y216638D01*
X135172D01*
X135400Y216410D01*
Y215029D01*
X135172Y214801D01*
X133428D01*
X133200Y214573D01*
Y214252D01*
X133428Y214024D01*
X135172D01*
X135400Y213796D01*
Y213475D01*
X135172Y213247D01*
X133428D01*
X133200Y213019D01*
Y212698D01*
X133428Y212470D01*
X135172D01*
X135400Y212242D01*
Y211921D01*
X135172Y211693D01*
X133428D01*
X133200Y211465D01*
Y211144D01*
X133428Y210916D01*
X135172D01*
X135400Y210688D01*
Y210367D01*
X135172Y210139D01*
X133428D01*
X133200Y209911D01*
Y209590D01*
X133428Y209362D01*
X135172D01*
X135400Y209134D01*
Y208813D01*
X135172Y208585D01*
X133428D01*
X133200Y208357D01*
Y208036D01*
X133428Y207808D01*
X135172D01*
X135400Y207580D01*
Y207259D01*
X135172Y207031D01*
X133428D01*
X133200Y206803D01*
Y206482D01*
X133428Y206254D01*
X135172D01*
X135400Y206026D01*
Y205705D01*
X135172Y205477D01*
X133428D01*
X133200Y205249D01*
Y204928D01*
X133428Y204700D01*
X135172D01*
X135400Y204472D01*
Y204151D01*
X135172Y203923D01*
X133428D01*
X133200Y203695D01*
Y203374D01*
X133428Y203146D01*
X135172D01*
X135400Y202918D01*
Y202597D01*
X135172Y202369D01*
X133428D01*
X133200Y202141D01*
Y201820D01*
X133428Y201592D01*
X135172D01*
X135400Y201364D01*
Y201043D01*
X135172Y200815D01*
X133428D01*
X133200Y200587D01*
Y200266D01*
X133428Y200038D01*
X135172D01*
X135400Y199810D01*
Y199489D01*
X135172Y199261D01*
X133428D01*
X133200Y199033D01*
Y198712D01*
X133428Y198484D01*
X135172D01*
X135400Y198256D01*
Y197935D01*
X135172Y197707D01*
X133428D01*
X133200Y197479D01*
Y197158D01*
X133428Y196930D01*
X135172D01*
X135400Y196702D01*
Y196381D01*
X135172Y196153D01*
X133428D01*
X133200Y195925D01*
Y195604D01*
X133428Y195376D01*
X135172D01*
X135400Y195148D01*
Y194827D01*
X135172Y194599D01*
X133428D01*
X133200Y194371D01*
Y194050D01*
X133428Y193822D01*
X135172D01*
X135400Y193594D01*
Y193273D01*
X135172Y193045D01*
X133428D01*
X133200Y192817D01*
Y192496D01*
X133428Y192268D01*
X135172D01*
X135400Y192040D01*
Y191719D01*
X135172Y191491D01*
X133428D01*
X133200Y191263D01*
Y190942D01*
X133428Y190714D01*
X135172D01*
X135400Y190486D01*
Y190165D01*
X135172Y189937D01*
X133428D01*
X133200Y189709D01*
Y189388D01*
X133428Y189160D01*
X135172D01*
X135400Y188932D01*
Y188611D01*
X135172Y188383D01*
X133428D01*
X133200Y188155D01*
Y187834D01*
X133428Y187606D01*
X135172D01*
X135400Y187378D01*
Y187057D01*
X135172Y186829D01*
X133428D01*
X133200Y186601D01*
Y186280D01*
X133428Y186052D01*
X135172D01*
X135400Y185824D01*
Y185503D01*
X135172Y185275D01*
X133428D01*
X133200Y185047D01*
Y184726D01*
X133428Y184498D01*
X135172D01*
X135400Y184270D01*
Y183949D01*
X135172Y183721D01*
X133428D01*
X133200Y183493D01*
Y183172D01*
X133428Y182944D01*
X135172D01*
X135400Y182716D01*
Y178100D01*
X128400Y171100D01*
X119600D01*
X117440Y173260D01*
X112240D01*
G01X113830Y185070D02*
Y185130D01*
X121800Y193100D01*
Y235800D01*
X135300Y249300D01*
X174300D01*
X180973Y255973D01*
Y256295D01*
X178845Y258423D01*
Y258745D01*
X179073Y258973D01*
X179395D01*
X181523Y256845D01*
X181845D01*
X182073Y257073D01*
Y257395D01*
X179945Y259523D01*
Y259845D01*
X180173Y260073D01*
X180495D01*
X182623Y257945D01*
X182945D01*
X183173Y258173D01*
Y258495D01*
X181045Y260623D01*
Y260945D01*
X181273Y261173D01*
X181595D01*
X183723Y259045D01*
X184045D01*
X184273Y259273D01*
Y259595D01*
X182145Y261723D01*
Y262045D01*
X182373Y262273D01*
X182695D01*
X184823Y260145D01*
X185145D01*
X185373Y260373D01*
Y260695D01*
X183245Y262823D01*
Y263145D01*
X183473Y263373D01*
X183795D01*
X185923Y261245D01*
X186245D01*
X186473Y261473D01*
Y261795D01*
X184345Y263923D01*
Y264245D01*
X184573Y264473D01*
X184895D01*
X187023Y262345D01*
X187345D01*
X187573Y262573D01*
Y262895D01*
X185445Y265023D01*
Y265345D01*
X185673Y265573D01*
X185995D01*
X188123Y263445D01*
X188445D01*
X188673Y263673D01*
Y263995D01*
X186545Y266123D01*
Y266445D01*
X186773Y266673D01*
X187095D01*
X189223Y264545D01*
X189545D01*
X189773Y264773D01*
Y265095D01*
X187645Y267223D01*
Y267545D01*
X187873Y267773D01*
X188195D01*
X190323Y265645D01*
X190645D01*
X190873Y265873D01*
Y266195D01*
X188745Y268323D01*
Y268645D01*
X188973Y268873D01*
X189295D01*
X191423Y266745D01*
X191745D01*
X191973Y266973D01*
Y267295D01*
X189845Y269423D01*
Y269745D01*
X190073Y269973D01*
X190395D01*
X192523Y267845D01*
X192845D01*
X193073Y268073D01*
Y268395D01*
X190945Y270523D01*
Y270845D01*
X191173Y271073D01*
X191495D01*
X193623Y268945D01*
X193945D01*
X194173Y269173D01*
Y269495D01*
X192045Y271623D01*
Y271945D01*
X192273Y272173D01*
X192595D01*
X194723Y270045D01*
X195045D01*
X195273Y270273D01*
Y270595D01*
X193145Y272723D01*
Y273045D01*
X193373Y273273D01*
X193695D01*
X195823Y271145D01*
X196145D01*
X196373Y271373D01*
Y271695D01*
X194245Y273823D01*
Y274145D01*
X194473Y274373D01*
X194795D01*
X196923Y272245D01*
X197245D01*
X197473Y272473D01*
Y272795D01*
X195345Y274923D01*
Y275245D01*
X195573Y275473D01*
X195895D01*
X198023Y273345D01*
X198345D01*
X198573Y273573D01*
Y273895D01*
X196445Y276023D01*
Y276345D01*
X196673Y276573D01*
X196995D01*
X199123Y274445D01*
X199445D01*
X199673Y274673D01*
Y274995D01*
X197545Y277123D01*
Y277445D01*
X197773Y277673D01*
X198095D01*
X200223Y275545D01*
X200545D01*
X200773Y275773D01*
Y276095D01*
X198645Y278223D01*
Y278545D01*
X198873Y278773D01*
X199195D01*
X201323Y276645D01*
X201645D01*
X201873Y276873D01*
Y277195D01*
X199745Y279323D01*
Y279645D01*
X199973Y279873D01*
X200295D01*
X202423Y277745D01*
X202745D01*
X202973Y277973D01*
Y278295D01*
X200845Y280423D01*
Y280745D01*
X201073Y280973D01*
X201395D01*
X203523Y278845D01*
X203845D01*
X204073Y279073D01*
Y279395D01*
X201945Y281523D01*
Y281845D01*
X202173Y282073D01*
X202495D01*
X204623Y279945D01*
X204945D01*
X205173Y280173D01*
Y280495D01*
X203045Y282623D01*
Y282945D01*
X203273Y283173D01*
X203595D01*
X205723Y281045D01*
X206045D01*
X206273Y281273D01*
Y281595D01*
X204145Y283723D01*
Y284045D01*
X204373Y284273D01*
X204695D01*
X206823Y282145D01*
X207145D01*
X207373Y282373D01*
Y282695D01*
X205245Y284823D01*
Y285145D01*
X205473Y285373D01*
X205795D01*
X207923Y283245D01*
X208245D01*
X208473Y283473D01*
Y283795D01*
X206345Y285923D01*
Y286245D01*
X206573Y286473D01*
X206895D01*
X209023Y284345D01*
X209345D01*
X209573Y284573D01*
Y284895D01*
X207445Y287023D01*
Y287345D01*
X207673Y287573D01*
X207995D01*
X210123Y285445D01*
X210445D01*
X210673Y285673D01*
Y285995D01*
X208545Y288123D01*
Y288445D01*
X208773Y288673D01*
X209095D01*
X211223Y286545D01*
X211545D01*
X211773Y286773D01*
Y287095D01*
X209645Y289223D01*
Y289545D01*
X209873Y289773D01*
X210195D01*
X212323Y287645D01*
X212645D01*
X212873Y287873D01*
Y288195D01*
X210745Y290323D01*
Y290645D01*
X210973Y290873D01*
X211295D01*
X213423Y288745D01*
X213745D01*
X213973Y288973D01*
Y289295D01*
X211845Y291423D01*
Y291745D01*
X212073Y291973D01*
X212395D01*
X214523Y289845D01*
X214845D01*
X215073Y290073D01*
Y290395D01*
X212945Y292523D01*
Y292845D01*
X213173Y293073D01*
X213495D01*
X215623Y290945D01*
X215945D01*
X225600Y300600D01*
X243100D01*
X272500Y330000D01*
X282000D01*
X284300Y332300D01*
X288900D01*
X290269Y333669D01*
Y334999D01*
X291142Y335872D01*
X310827D01*
X311783Y336828D01*
X315999D01*
X317052Y337881D01*
Y339258D01*
X319319Y341525D01*
Y342256D01*
G01X114550Y309548D02*
X115503Y310501D01*
X118214D01*
X123514Y315801D01*
X138014D01*
X139614Y317401D01*
X146379D01*
X146607Y317173D01*
Y313513D01*
X147420Y312700D01*
X148569D01*
X149382Y313513D01*
Y321874D01*
X149610Y322102D01*
X149931D01*
X150159Y321874D01*
Y313513D01*
X150972Y312700D01*
X152121D01*
X152934Y313513D01*
Y321874D01*
X153162Y322102D01*
X153483D01*
X153711Y321874D01*
Y313513D01*
X154524Y312700D01*
X155673D01*
X156486Y313513D01*
Y321874D01*
X156714Y322102D01*
X157035D01*
X157263Y321874D01*
Y318214D01*
X158076Y317401D01*
X161820D01*
X162048Y317173D01*
Y313713D01*
X162861Y312900D01*
X164010D01*
X164823Y313713D01*
Y321674D01*
X165051Y321902D01*
X165372D01*
X165600Y321674D01*
Y313713D01*
X166413Y312900D01*
X167562D01*
X168375Y313713D01*
Y321674D01*
X168603Y321902D01*
X168924D01*
X169152Y321674D01*
Y313713D01*
X169965Y312900D01*
X171114D01*
X171927Y313713D01*
Y321674D01*
X172155Y321902D01*
X172476D01*
X172704Y321674D01*
Y313713D01*
X173517Y312900D01*
X174666D01*
X175479Y313713D01*
Y321674D01*
X175707Y321902D01*
X176028D01*
X176256Y321674D01*
Y313713D01*
X177069Y312900D01*
X178218D01*
X179031Y313713D01*
Y321674D01*
X179259Y321902D01*
X179580D01*
X179808Y321674D01*
Y318214D01*
X180621Y317401D01*
X186002D01*
X187479Y318878D01*
X192591D01*
X194407Y320693D01*
X194999Y321285D01*
Y326086D01*
X196799Y327886D01*
Y348099D01*
X199601Y350901D01*
X222714D01*
X224914Y353101D01*
X235601D01*
X253036Y370536D01*
Y370924D01*
X254623Y372511D01*
X289245D01*
X290706Y373972D01*
X347515D01*
X357581Y363905D01*
X357865D01*
X359582Y362188D01*
Y344922D01*
X360301Y344203D01*
Y333492D01*
X361700Y332093D01*
X387323D01*
X388717Y333487D01*
Y334999D01*
X389590Y335872D01*
X400528D01*
X402018Y334382D01*
G01X114550Y312453D02*
X115503Y311500D01*
X117800D01*
X123100Y316800D01*
X137600D01*
X139200Y318400D01*
X146793D01*
X147606Y317587D01*
Y313927D01*
X147834Y313699D01*
X148155D01*
X148383Y313927D01*
Y322288D01*
X149196Y323101D01*
X150345D01*
X151158Y322288D01*
Y313927D01*
X151386Y313699D01*
X151707D01*
X151935Y313927D01*
Y322288D01*
X152748Y323101D01*
X153897D01*
X154710Y322288D01*
Y313927D01*
X154938Y313699D01*
X155259D01*
X155487Y313927D01*
Y322288D01*
X156300Y323101D01*
X157449D01*
X158262Y322288D01*
Y318628D01*
X158490Y318400D01*
X162234D01*
X163047Y317587D01*
Y314127D01*
X163275Y313899D01*
X163596D01*
X163824Y314127D01*
Y322088D01*
X164637Y322901D01*
X165786D01*
X166599Y322088D01*
Y314127D01*
X166827Y313899D01*
X167148D01*
X167376Y314127D01*
Y322088D01*
X168189Y322901D01*
X169338D01*
X170151Y322088D01*
Y314127D01*
X170379Y313899D01*
X170700D01*
X170928Y314127D01*
Y322088D01*
X171741Y322901D01*
X172890D01*
X173703Y322088D01*
Y314127D01*
X173931Y313899D01*
X174252D01*
X174480Y314127D01*
Y322088D01*
X175293Y322901D01*
X176442D01*
X177255Y322088D01*
Y314127D01*
X177483Y313899D01*
X177804D01*
X178032Y314127D01*
Y322088D01*
X178845Y322901D01*
X179994D01*
X180807Y322088D01*
Y318628D01*
X181035Y318400D01*
X185588D01*
X187065Y319877D01*
X192177D01*
X194000Y321700D01*
Y326500D01*
X195800Y328300D01*
Y348513D01*
X199187Y351900D01*
X222300D01*
X224500Y354100D01*
X235187D01*
X252037Y370950D01*
Y371338D01*
X254209Y373510D01*
X288831D01*
X290292Y374971D01*
X347929D01*
X360381Y362519D01*
Y345253D01*
X361100Y344534D01*
Y333823D01*
X362031Y332892D01*
X386992D01*
X387918Y333818D01*
Y335330D01*
X389259Y336671D01*
X400370D01*
X402018Y338319D01*
G01X386270Y334382D02*
X384546D01*
X382100Y336828D01*
X365968D01*
X364318Y338478D01*
Y342693D01*
X362309Y344702D01*
X362031D01*
X361158Y345575D01*
Y367442D01*
X352110Y376490D01*
X255490D01*
X251700Y372700D01*
X250799D01*
X236099Y358000D01*
X226000D01*
X221600Y353600D01*
X216776D01*
X216548Y353828D01*
Y358272D01*
X216320Y358500D01*
X215999D01*
X215771Y358272D01*
Y353828D01*
X215543Y353600D01*
X215222D01*
X214994Y353828D01*
Y358272D01*
X214766Y358500D01*
X214445D01*
X214217Y358272D01*
Y353828D01*
X213989Y353600D01*
X213668D01*
X213440Y353828D01*
Y358272D01*
X213212Y358500D01*
X212891D01*
X212663Y358272D01*
Y353828D01*
X212435Y353600D01*
X212114D01*
X211886Y353828D01*
Y358272D01*
X211658Y358500D01*
X211337D01*
X211109Y358272D01*
Y353828D01*
X210881Y353600D01*
X210560D01*
X210332Y353828D01*
Y358272D01*
X210104Y358500D01*
X209783D01*
X209555Y358272D01*
Y353828D01*
X209327Y353600D01*
X209006D01*
X208778Y353828D01*
Y358272D01*
X208550Y358500D01*
X208229D01*
X208001Y358272D01*
Y353828D01*
X207773Y353600D01*
X207452D01*
X207224Y353828D01*
Y358272D01*
X206996Y358500D01*
X206675D01*
X206447Y358272D01*
Y353828D01*
X206219Y353600D01*
X205898D01*
X205670Y353828D01*
Y358272D01*
X205442Y358500D01*
X205121D01*
X204893Y358272D01*
Y353828D01*
X204665Y353600D01*
X200336D01*
X200108Y353828D01*
Y358472D01*
X199880Y358700D01*
X199559D01*
X199331Y358472D01*
Y353828D01*
X199103Y353600D01*
X198782D01*
X198554Y353828D01*
Y358472D01*
X198326Y358700D01*
X198005D01*
X197777Y358472D01*
Y353828D01*
X197549Y353600D01*
X197228D01*
X197000Y353828D01*
Y358472D01*
X196772Y358700D01*
X196451D01*
X196223Y358472D01*
Y353828D01*
X195995Y353600D01*
X195674D01*
X195446Y353828D01*
Y358472D01*
X195218Y358700D01*
X194897D01*
X194669Y358472D01*
Y353828D01*
X194441Y353600D01*
X193600D01*
X190463Y350463D01*
Y349409D01*
X190235Y349181D01*
X188628D01*
X188400Y348953D01*
Y348632D01*
X188628Y348404D01*
X190235D01*
X190463Y348176D01*
Y347855D01*
X190235Y347627D01*
X188628D01*
X188400Y347399D01*
Y347078D01*
X188628Y346850D01*
X190235D01*
X190463Y346622D01*
Y346301D01*
X190235Y346073D01*
X188628D01*
X188400Y345845D01*
Y345524D01*
X188628Y345296D01*
X190235D01*
X190463Y345068D01*
Y344747D01*
X190235Y344519D01*
X188628D01*
X188400Y344291D01*
Y343970D01*
X188628Y343742D01*
X190235D01*
X190463Y343514D01*
Y343193D01*
X190235Y342965D01*
X188628D01*
X188400Y342737D01*
Y342416D01*
X188628Y342188D01*
X190235D01*
X190463Y341960D01*
Y341639D01*
X190235Y341411D01*
X188628D01*
X188400Y341183D01*
Y340862D01*
X188628Y340634D01*
X190235D01*
X190463Y340406D01*
Y340085D01*
X190235Y339857D01*
X188628D01*
X188400Y339629D01*
Y339308D01*
X188628Y339080D01*
X190235D01*
X190463Y338852D01*
Y338531D01*
X190235Y338303D01*
X188628D01*
X188400Y338075D01*
Y337754D01*
X188628Y337526D01*
X190235D01*
X190463Y337298D01*
Y336977D01*
X190235Y336749D01*
X188628D01*
X188400Y336521D01*
Y336200D01*
X188628Y335972D01*
X190235D01*
X190463Y335744D01*
Y331017D01*
X183346Y323900D01*
X142500D01*
X137000Y318400D01*
X119600D01*
X117600Y316400D01*
X116300D01*
X113060Y313160D01*
Y309867D01*
X111710Y308517D01*
Y307283D01*
X113400Y305593D01*
Y303660D01*
X113880Y303180D01*
G01X111350Y320150D02*
X118650D01*
X126300Y327800D01*
X127599D01*
X127827Y327572D01*
Y325928D01*
X128055Y325700D01*
X128376D01*
X128604Y325928D01*
Y327572D01*
X128832Y327800D01*
X129153D01*
X129381Y327572D01*
Y325928D01*
X129609Y325700D01*
X129930D01*
X130158Y325928D01*
Y327572D01*
X130386Y327800D01*
X130707D01*
X130935Y327572D01*
Y325928D01*
X131163Y325700D01*
X131484D01*
X131712Y325928D01*
Y327572D01*
X131940Y327800D01*
X132261D01*
X132489Y327572D01*
Y325928D01*
X132717Y325700D01*
X133038D01*
X133266Y325928D01*
Y327572D01*
X133494Y327800D01*
X133815D01*
X134043Y327572D01*
Y325928D01*
X134271Y325700D01*
X134592D01*
X134820Y325928D01*
Y327572D01*
X135048Y327800D01*
X135369D01*
X135597Y327572D01*
Y325928D01*
X135825Y325700D01*
X136146D01*
X136374Y325928D01*
Y327572D01*
X136602Y327800D01*
X136923D01*
X137151Y327572D01*
Y325928D01*
X137379Y325700D01*
X137700D01*
X137928Y325928D01*
Y327572D01*
X138156Y327800D01*
X138477D01*
X138705Y327572D01*
Y325928D01*
X138933Y325700D01*
X139254D01*
X139482Y325928D01*
Y327572D01*
X139710Y327800D01*
X140031D01*
X140259Y327572D01*
Y325928D01*
X140487Y325700D01*
X140808D01*
X141036Y325928D01*
Y327572D01*
X141264Y327800D01*
X141585D01*
X141813Y327572D01*
Y325928D01*
X142041Y325700D01*
X142362D01*
X142590Y325928D01*
Y327572D01*
X142818Y327800D01*
X143139D01*
X143367Y327572D01*
Y325928D01*
X143595Y325700D01*
X143916D01*
X144144Y325928D01*
Y327572D01*
X144372Y327800D01*
X144693D01*
X144921Y327572D01*
Y325928D01*
X145149Y325700D01*
X145470D01*
X145698Y325928D01*
Y327572D01*
X145926Y327800D01*
X146247D01*
X146475Y327572D01*
Y325928D01*
X146703Y325700D01*
X147024D01*
X147252Y325928D01*
Y327572D01*
X147480Y327800D01*
X147801D01*
X148029Y327572D01*
Y325928D01*
X148257Y325700D01*
X148578D01*
X148806Y325928D01*
Y327572D01*
X149034Y327800D01*
X149355D01*
X149583Y327572D01*
Y325928D01*
X149811Y325700D01*
X150132D01*
X150360Y325928D01*
Y327572D01*
X150588Y327800D01*
X150909D01*
X151137Y327572D01*
Y325928D01*
X151365Y325700D01*
X151686D01*
X151914Y325928D01*
Y327572D01*
X152142Y327800D01*
X152463D01*
X152691Y327572D01*
Y325928D01*
X152919Y325700D01*
X153240D01*
X153468Y325928D01*
Y327572D01*
X153696Y327800D01*
X154017D01*
X154245Y327572D01*
Y325928D01*
X154473Y325700D01*
X154794D01*
X155022Y325928D01*
Y327572D01*
X155250Y327800D01*
X155571D01*
X155799Y327572D01*
Y325928D01*
X156027Y325700D01*
X156348D01*
X156576Y325928D01*
Y327572D01*
X156804Y327800D01*
X157125D01*
X157353Y327572D01*
Y325928D01*
X157581Y325700D01*
X157902D01*
X158130Y325928D01*
Y327572D01*
X158358Y327800D01*
X158679D01*
X158907Y327572D01*
Y325928D01*
X159135Y325700D01*
X159456D01*
X159684Y325928D01*
Y327572D01*
X159912Y327800D01*
X160233D01*
X160461Y327572D01*
Y325928D01*
X160689Y325700D01*
X161010D01*
X161238Y325928D01*
Y327572D01*
X161466Y327800D01*
X173500D01*
X185700Y340000D01*
Y356400D01*
X191400Y362100D01*
X192700D01*
X192928Y362328D01*
Y363772D01*
X193156Y364000D01*
X193477D01*
X193705Y363772D01*
Y362328D01*
X193933Y362100D01*
X194254D01*
X194482Y362328D01*
Y363772D01*
X194710Y364000D01*
X195031D01*
X195259Y363772D01*
Y362328D01*
X195487Y362100D01*
X195808D01*
X196036Y362328D01*
Y363772D01*
X196264Y364000D01*
X196585D01*
X196813Y363772D01*
Y362328D01*
X197041Y362100D01*
X197362D01*
X197590Y362328D01*
Y363772D01*
X197818Y364000D01*
X198139D01*
X198367Y363772D01*
Y362328D01*
X198595Y362100D01*
X198916D01*
X199144Y362328D01*
Y363772D01*
X199372Y364000D01*
X199693D01*
X199921Y363772D01*
Y362328D01*
X200149Y362100D01*
X200470D01*
X200698Y362328D01*
Y363772D01*
X200926Y364000D01*
X201247D01*
X201475Y363772D01*
Y362328D01*
X201703Y362100D01*
X202024D01*
X202252Y362328D01*
Y363772D01*
X202480Y364000D01*
X202801D01*
X203029Y363772D01*
Y362328D01*
X203257Y362100D01*
X203578D01*
X203806Y362328D01*
Y363772D01*
X204034Y364000D01*
X204355D01*
X204583Y363772D01*
Y362328D01*
X204811Y362100D01*
X205132D01*
X205360Y362328D01*
Y363772D01*
X205588Y364000D01*
X205909D01*
X206137Y363772D01*
Y362328D01*
X206365Y362100D01*
X206686D01*
X206914Y362328D01*
Y363772D01*
X207142Y364000D01*
X207463D01*
X207691Y363772D01*
Y362328D01*
X207919Y362100D01*
X208240D01*
X208468Y362328D01*
Y363772D01*
X208696Y364000D01*
X209017D01*
X209245Y363772D01*
Y362328D01*
X209473Y362100D01*
X209794D01*
X210022Y362328D01*
Y363772D01*
X210250Y364000D01*
X210571D01*
X210799Y363772D01*
Y362328D01*
X211027Y362100D01*
X211348D01*
X211576Y362328D01*
Y363772D01*
X211804Y364000D01*
X212125D01*
X212353Y363772D01*
Y362328D01*
X212581Y362100D01*
X212902D01*
X213130Y362328D01*
Y363772D01*
X213358Y364000D01*
X213679D01*
X213907Y363772D01*
Y362328D01*
X214135Y362100D01*
X214456D01*
X214684Y362328D01*
Y363772D01*
X214912Y364000D01*
X215233D01*
X215461Y363772D01*
Y362328D01*
X215689Y362100D01*
X216010D01*
X216238Y362328D01*
Y363772D01*
X216466Y364000D01*
X216787D01*
X217015Y363772D01*
Y362328D01*
X217243Y362100D01*
X217564D01*
X217792Y362328D01*
Y363772D01*
X218020Y364000D01*
X218341D01*
X218569Y363772D01*
Y362328D01*
X218797Y362100D01*
X219118D01*
X219346Y362328D01*
Y363772D01*
X219574Y364000D01*
X219895D01*
X220123Y363772D01*
Y362328D01*
X220351Y362100D01*
X220672D01*
X220900Y362328D01*
Y363772D01*
X221128Y364000D01*
X221449D01*
X221677Y363772D01*
Y362328D01*
X221905Y362100D01*
X222226D01*
X222454Y362328D01*
Y363772D01*
X222682Y364000D01*
X223003D01*
X223231Y363772D01*
Y362328D01*
X223459Y362100D01*
X223780D01*
X224008Y362328D01*
Y363772D01*
X224236Y364000D01*
X224557D01*
X224785Y363772D01*
Y362328D01*
X225013Y362100D01*
X225334D01*
X225562Y362328D01*
Y363772D01*
X225790Y364000D01*
X226111D01*
X226339Y363772D01*
Y362328D01*
X226567Y362100D01*
X226888D01*
X227116Y362328D01*
Y363772D01*
X227344Y364000D01*
X227665D01*
X227893Y363772D01*
Y362328D01*
X228121Y362100D01*
X231600D01*
X241000Y371500D01*
X247041D01*
X254091Y378550D01*
X353550D01*
X363578Y368522D01*
Y365123D01*
X365095Y363606D01*
Y345575D01*
X365968Y344702D01*
X366246D01*
X368075Y342873D01*
Y342596D01*
X369905Y340766D01*
X382951D01*
X384780Y342595D01*
Y342873D01*
X385653Y343746D01*
X390824D01*
X391697Y342873D01*
Y341639D01*
X390207Y340149D01*
Y338319D01*
G01X370522Y251682D02*
X367984Y249144D01*
X366006D01*
X365186Y248324D01*
Y247166D01*
X363228Y245208D01*
X362068D01*
X360200Y243340D01*
Y224400D01*
X357200Y221400D01*
Y220800D01*
X355800Y219400D01*
Y173700D01*
X359600Y169900D01*
X374900D01*
X376196Y171196D01*
Y183750D01*
X377596Y185150D01*
Y187108D01*
G01X382334Y255618D02*
X380300Y253584D01*
Y226100D01*
X376200Y222000D01*
X375100D01*
X370886Y217786D01*
X369031D01*
X368211Y216966D01*
Y215111D01*
X366000Y212900D01*
X362600D01*
X360000Y210300D01*
Y182600D01*
X361848Y180752D01*
Y179234D01*
G01X474700Y262300D02*
Y270300D01*
X470900Y274100D01*
X444700D01*
X429400Y289400D01*
Y293200D01*
X425600Y297000D01*
X393500D01*
X392400Y298100D01*
Y300693D01*
X390208Y302885D01*
G54D12*
X147500Y337500D03*
Y357500D03*
Y347500D03*
Y367500D03*
Y377500D03*
X157500Y337500D03*
Y357500D03*
Y347500D03*
Y367500D03*
Y377500D03*
X167500Y337500D03*
Y357500D03*
Y347500D03*
Y367500D03*
Y377500D03*
G54D13*
X174000Y10500D03*
X342000D03*
X375000Y10000D03*
X543000D03*
G54D14*
G01X61000Y353000D02*
X39400Y331400D01*
X33100D01*
X29218Y327518D01*
Y326575D01*
X19350Y316707D01*
Y202943D01*
X20900Y201393D01*
Y141700D01*
X246727Y19727D03*
X261727Y29727D03*
X251727D03*
X370600Y386000D03*
G54D15*
X274000Y183000D03*
X284000D03*
X459500Y188000D03*
X449500D03*
X492500Y275000D03*
X502500D03*
X525000D03*
X744000Y236400D03*
Y246400D03*
G54D16*
G01X255000Y-52500D02*
X490000D01*
Y-135000D01*
X255000D01*
G01Y-52500D02*
Y-135000D01*
G01X490000Y-107500D02*
X255000D01*
G01Y-80000D02*
X490000D01*
G01X335000D02*
Y-107500D01*
G01X405000D02*
Y-135000D01*
G54D17*
G01X261727Y29727D02*
X259980D01*
X257680Y32027D01*
X255774D01*
X254027Y30280D01*
Y28774D01*
X252680Y27427D01*
X250774D01*
X249027Y29174D01*
Y30680D01*
X247680Y32027D01*
X240774D01*
X239027Y30280D01*
Y28774D01*
X237280Y27027D01*
X235774D01*
X234027Y25280D01*
Y23774D01*
X232280Y22027D01*
X190741D01*
X187164Y18450D01*
X129050D01*
X124000Y23500D01*
G54D18*
G01X223500Y167500D02*
X225500Y169500D01*
X238000D01*
X242500Y165000D01*
X253000D01*
X257000Y169000D01*
X266500D01*
X273000Y162500D01*
X292500D01*
X297500Y157500D01*
Y131000D01*
X306000Y122500D01*
X363441D01*
X365785Y120156D01*
G01X247764Y167500D02*
X236200Y179064D01*
Y180300D01*
X234000Y182500D01*
Y197500D01*
G01X346078Y171359D02*
X345760D01*
X343313Y168912D01*
X337586D01*
X336714Y168040D01*
Y166314D01*
X335374Y164974D01*
X333649D01*
X333476Y164801D01*
X330993D01*
X330910Y164884D01*
X329750D01*
X329667Y164801D01*
X327182D01*
X327009Y164974D01*
X325775D01*
X325602Y164801D01*
X323246D01*
X323073Y164974D01*
X321839D01*
X321666Y164801D01*
X319181D01*
X319098Y164884D01*
X317938D01*
X317855Y164801D01*
X315372D01*
X315199Y164974D01*
X313965D01*
X313792Y164801D01*
X311307D01*
X311224Y164884D01*
X310064D01*
X309981Y164801D01*
X307371D01*
X307288Y164884D01*
X306128D01*
X306045Y164801D01*
X281607D01*
X252818Y193590D01*
X251810D01*
X240100Y205300D01*
G01X342141Y175296D02*
X343700Y173737D01*
Y170400D01*
X343300Y170000D01*
X342890D01*
X342759Y169869D01*
X336331D01*
X336200Y170000D01*
X335756Y170443D01*
Y176144D01*
X334156Y177744D01*
X305956D01*
X301400Y182300D01*
Y187400D01*
X298400Y190400D01*
X273700D01*
X268500Y195600D01*
X259100D01*
G01X346078Y175296D02*
X343900Y177474D01*
Y195400D01*
X341872Y197428D01*
X341523D01*
X340651Y198300D01*
Y198649D01*
X337844Y201456D01*
X337450D01*
X335756Y203150D01*
Y203474D01*
X334884Y204346D01*
X283046D01*
X278282Y199582D01*
Y199018D01*
X282300Y195000D01*
Y192000D01*
G01X342141Y171359D02*
X339694Y173806D01*
Y196206D01*
X338472Y197428D01*
X306090D01*
X305518Y198000D01*
X281800D01*
G01X487400Y210800D02*
X486690Y211510D01*
X485882D01*
X485010Y212382D01*
Y213618D01*
X487090Y215698D01*
Y227718D01*
X486100Y228708D01*
Y235900D01*
X491600Y241400D01*
Y248300D01*
X490100Y249800D01*
X477200D01*
X459900Y267100D01*
X451100D01*
X450890Y267310D01*
X442789D01*
X437021Y273078D01*
X435921D01*
X431799Y277200D01*
X429500D01*
X427131Y279569D01*
Y279859D01*
X426259Y280731D01*
X402358D01*
X400529Y282560D01*
Y283847D01*
X398662Y285714D01*
X397502D01*
X396682Y286534D01*
Y287694D01*
X394814Y289562D01*
X393526D01*
X391700Y291388D01*
Y292100D01*
X387700Y296100D01*
X365100D01*
X363742Y297458D01*
X362030D01*
X357496Y301992D01*
Y314296D01*
X357096Y314696D01*
X356860D01*
X355370Y316186D01*
X342323D01*
X340833Y314696D01*
X339004D01*
G01X386271Y267429D02*
X385542D01*
X383275Y265162D01*
X381896D01*
X380844Y264110D01*
Y255958D01*
X378058Y253172D01*
X377778D01*
X376906Y252300D01*
Y226106D01*
X374200Y223400D01*
X369600D01*
X363400Y217200D01*
X360200D01*
X358444Y215444D01*
Y178457D01*
X359000Y177900D01*
X359900Y177000D01*
X359935Y176966D01*
X369562D01*
X371212Y178616D01*
Y179852D01*
X369722Y181342D01*
Y183170D01*
G01X373659Y191044D02*
Y189216D01*
X375149Y187726D01*
Y186490D01*
X374800Y186141D01*
Y184009D01*
X375149Y183660D01*
Y174449D01*
X373700Y173000D01*
X357800D01*
X356800Y174000D01*
Y218700D01*
X364669Y226569D01*
X371269D01*
X372969Y228269D01*
Y260174D01*
X373841Y261046D01*
X375446D01*
X376128Y261728D01*
Y264529D01*
X376761Y265162D01*
X379337D01*
X380844Y266669D01*
Y268048D01*
X381716Y268920D01*
X383900D01*
X384677Y269697D01*
X390048D01*
X392316Y267429D01*
X394145D01*
G01X390208D02*
X388379D01*
X386889Y268919D01*
X385653D01*
X383824Y267090D01*
Y266812D01*
X382952Y265940D01*
X381264D01*
X379886Y264562D01*
Y262874D01*
X379014Y262002D01*
X378734D01*
X376906Y260174D01*
Y253706D01*
X375949Y252749D01*
Y227441D01*
X375077Y226569D01*
X373969D01*
X371579Y224179D01*
X366779D01*
X360700Y218100D01*
X359300D01*
X357666Y216466D01*
Y176535D01*
X358000Y176200D01*
X360394Y173806D01*
X370340D01*
X371990Y175456D01*
Y180175D01*
X371800Y180365D01*
Y181800D01*
X372259Y182259D01*
Y183750D01*
X373659Y185150D01*
Y187108D01*
G01X365785D02*
X367454Y188777D01*
Y207733D01*
X369421Y209700D01*
X379498D01*
X384054Y214256D01*
X393456D01*
X404066Y224866D01*
Y224900D01*
X404466Y225300D01*
Y248362D01*
X405956Y249852D01*
Y251681D01*
G01X361848Y183170D02*
X364295Y185617D01*
Y209095D01*
X366400Y211200D01*
X379897D01*
X383731Y215034D01*
X392134D01*
X399572Y222472D01*
Y251272D01*
X402518Y254218D01*
X402599D01*
X404466Y256085D01*
Y256236D01*
X405730Y257500D01*
X410900D01*
X412000Y256400D01*
Y249000D01*
X410744Y247744D01*
X409893D01*
G01Y255618D02*
Y253789D01*
X407622Y251518D01*
Y248422D01*
X407600Y248400D01*
Y225500D01*
X406222Y224122D01*
X405722D01*
X395078Y213478D01*
X384377D01*
X379181Y208282D01*
X369104D01*
X368232Y207410D01*
Y185617D01*
X365785Y183170D01*
G01X370522Y267429D02*
X372352D01*
X373841Y265940D01*
X379014D01*
X380066Y266992D01*
Y268371D01*
X381393Y269698D01*
X382774D01*
X383783Y270707D01*
Y270858D01*
X385691Y272766D01*
X390788D01*
X392654Y270900D01*
Y270748D01*
X393526Y269876D01*
X395754D01*
X396700Y268930D01*
X398670D01*
X400528Y267072D01*
Y266812D01*
X401400Y265940D01*
X415660D01*
X416276Y265324D01*
Y254728D01*
X417832Y253172D01*
X418384D01*
X419256Y252300D01*
Y231378D01*
X417753Y229875D01*
X417474D01*
X416276Y228677D01*
Y228076D01*
X407500Y219300D01*
Y215200D01*
X398682Y206382D01*
Y206212D01*
X397862Y205392D01*
X397692D01*
X394744Y202444D01*
Y202276D01*
X393924Y201456D01*
X393756D01*
X390898Y198598D01*
Y198300D01*
X390026Y197428D01*
X389728D01*
X386960Y194660D01*
Y194364D01*
X386088Y193492D01*
X385792D01*
X383024Y190724D01*
Y190426D01*
X381248Y188650D01*
X376950D01*
X375149Y190451D01*
Y191662D01*
X374277Y192534D01*
X372734D01*
X371212Y191012D01*
Y186490D01*
X370340Y185618D01*
X369334D01*
X368232Y184516D01*
Y181731D01*
X369722Y180241D01*
Y179234D01*
G01X409893Y251681D02*
Y250493D01*
X408400Y249000D01*
Y225199D01*
X406545Y223344D01*
Y223145D01*
X396100Y212700D01*
X384700D01*
X378996Y206996D01*
Y206212D01*
X378176Y205392D01*
X377392D01*
X377100Y205100D01*
X371900D01*
X371122Y204322D01*
Y192444D01*
X369722Y191044D01*
G01X382334Y263492D02*
X383226Y264384D01*
X383598D01*
X384536Y265322D01*
X399778D01*
X400118Y264982D01*
X410510D01*
X411382Y264110D01*
Y262618D01*
X412300Y261700D01*
Y259105D01*
X413437Y257968D01*
X413460D01*
X415230Y256198D01*
Y252970D01*
X415514Y252686D01*
Y230214D01*
X414849Y229549D01*
X413212D01*
X412340Y228677D01*
Y226748D01*
X394744Y209152D01*
Y206212D01*
X393924Y205392D01*
X392816D01*
X390898Y203474D01*
Y202238D01*
X390026Y201366D01*
X388790D01*
X386960Y199536D01*
Y198300D01*
X386088Y197428D01*
X384852D01*
X382934Y195510D01*
Y194402D01*
X382114Y193582D01*
X380134D01*
X377596Y191044D01*
G01X374459Y267430D02*
X376275D01*
X378554Y269709D01*
X379202D01*
X380066Y270573D01*
Y272307D01*
X381573Y273814D01*
X383794D01*
X384780Y274800D01*
Y275922D01*
X385652Y276794D01*
X394635D01*
X395545Y275884D01*
Y275883D01*
X396682Y274746D01*
Y274724D01*
X397502Y273904D01*
X405248D01*
X405952Y273200D01*
X415500D01*
X416100Y272600D01*
Y270021D01*
X416412Y269709D01*
X431891D01*
X432500Y269100D01*
X433100D01*
X434700Y267500D01*
G01X451300Y264300D02*
X449067Y266532D01*
X442466D01*
X436698Y272300D01*
X426828D01*
X425314Y273814D01*
X425023D01*
X424151Y274686D01*
Y274977D01*
X421528Y277600D01*
X390492D01*
X390292Y277800D01*
X382722D01*
X379886Y274964D01*
Y274686D01*
X379288Y274088D01*
Y272258D01*
X378396Y271366D01*
G01X441600Y262100D02*
X440300Y263400D01*
X431600D01*
X427141Y267859D01*
Y268051D01*
X426261Y268931D01*
X416089D01*
X415144Y269876D01*
X413212D01*
X413122Y269966D01*
X397502D01*
X396682Y270786D01*
Y271910D01*
X395048Y273544D01*
X385368D01*
X384680Y272856D01*
X381716D01*
X380844Y271984D01*
Y270250D01*
X379288Y268694D01*
Y268322D01*
X378396Y267430D01*
G01X488000Y276900D02*
X456379Y308521D01*
X430000D01*
X426262Y312259D01*
X382649D01*
X381713Y313196D01*
X380834Y314075D01*
Y314966D01*
X378396Y317404D01*
Y318634D01*
G01X439900Y312300D02*
X439800Y312400D01*
Y316900D01*
X435500Y321200D01*
X426392D01*
X426262Y321070D01*
X385649D01*
X385519Y321200D01*
X384200D01*
X382334Y319334D01*
Y318634D01*
G01X441400Y310800D02*
X438521D01*
X438121Y310400D01*
X436879D01*
X436000Y311279D01*
Y312521D01*
X436500Y313021D01*
Y313500D01*
X433200Y316800D01*
X385500D01*
X383396Y314696D01*
X382334D01*
G01X432400Y290800D02*
X432600Y291000D01*
Y296700D01*
X427141Y302158D01*
Y303506D01*
X426262Y304385D01*
X388414D01*
X387478Y305322D01*
X385649D01*
X384770Y306201D01*
Y308029D01*
X383700Y309100D01*
X382300D01*
X382141Y309259D01*
X381713D01*
X380834Y310138D01*
Y310566D01*
X378396Y313004D01*
Y314696D01*
G01X437200Y302300D02*
X435000Y304500D01*
X432800D01*
X431700Y305600D01*
X426540D01*
X426262Y305322D01*
X398978D01*
X398082Y306218D01*
Y306822D01*
G01X515500Y315600D02*
X511900Y312000D01*
X444721D01*
X442021Y309300D01*
X433700D01*
X429962Y313038D01*
X409429D01*
X407771Y314696D01*
X405956D01*
G01X486500Y243000D02*
X479300Y235800D01*
X474279D01*
X473400Y234921D01*
Y190100D01*
X479100Y184400D01*
Y182900D01*
G01X488000Y276900D02*
X488800Y276100D01*
Y273467D01*
X507000Y255267D01*
Y249121D01*
X505800Y247921D01*
Y243200D01*
X510349Y238651D01*
Y222778D01*
X509470Y221899D01*
X508377D01*
X507349Y220871D01*
Y219779D01*
X506320Y218750D01*
X501929D01*
X498929Y221750D01*
X492480D01*
X490980Y220250D01*
X489951D01*
G01X529809Y195762D02*
X528960D01*
X527309Y197412D01*
X526039D01*
X525160Y198291D01*
Y202532D01*
X524131Y203561D01*
X523039D01*
X522010Y204590D01*
Y208981D01*
X523039Y210010D01*
X524131D01*
X525010Y210889D01*
Y211981D01*
X526189Y213160D01*
X527281D01*
X528160Y214039D01*
Y215132D01*
X529809Y216781D01*
Y217809D01*
G01X526660Y205211D02*
Y206239D01*
X528309Y207888D01*
Y212131D01*
X529188Y213010D01*
X530280D01*
X531500Y214230D01*
Y255681D01*
X556594Y280775D01*
X557686D01*
X558565Y281654D01*
Y281786D01*
X614379Y337600D01*
X636900D01*
X655516Y356216D01*
G01X673232Y356068D02*
X670300Y359000D01*
Y359621D01*
X668421Y361500D01*
X596459D01*
X518700Y283741D01*
Y273467D01*
X518500Y273267D01*
Y230229D01*
X523038Y225691D01*
X524131D01*
X525631Y224191D01*
X526660D01*
G01X529809Y217809D02*
Y224191D01*
G01D02*
Y225219D01*
X528309Y226719D01*
Y243709D01*
X529809Y245209D01*
Y246238D01*
G01X621483Y343417D02*
X579478D01*
X521300Y285239D01*
Y270221D01*
X521500Y270021D01*
Y239828D01*
X523039Y238289D01*
X524131D01*
X525010Y237410D01*
Y235290D01*
X526660Y233640D01*
G01X529809Y246238D02*
X524400Y251647D01*
Y261221D01*
X525000Y261821D01*
Y275000D01*
G01X607500Y186000D02*
X606021D01*
X593146Y198875D01*
X592054D01*
X580489Y210440D01*
Y210617D01*
X579617Y211489D01*
X579440D01*
X570029Y220900D01*
X542631D01*
X539340Y224191D01*
G01Y230490D02*
X540990Y232140D01*
X543111D01*
X547496Y236525D01*
X569974D01*
X592024Y214475D01*
X593296D01*
X605201Y202570D01*
Y201178D01*
X607500Y198879D01*
Y198500D01*
G01X542490Y227340D02*
X556329D01*
X556444Y227225D01*
X570004D01*
X592054Y205175D01*
X593146D01*
X607321Y191000D01*
X607500D01*
G01X542490Y230490D02*
X543341Y231341D01*
X543442D01*
X545476Y233375D01*
X570154D01*
X592054Y211475D01*
X593146D01*
X597400Y207221D01*
Y206479D01*
X607500Y196379D01*
Y196000D01*
G01X542490Y224191D02*
X542756Y223925D01*
X570154D01*
X592054Y202025D01*
X593146D01*
X606671Y188500D01*
X607500D01*
G01X539340Y227340D02*
X540990Y228990D01*
X548211D01*
X549446Y230225D01*
X570154D01*
X592054Y208325D01*
X593146D01*
X594175Y207296D01*
Y206825D01*
X607500Y193500D01*
G01Y221000D02*
X603000Y225500D01*
Y233433D01*
X587933Y248500D01*
X544752D01*
X542490Y246238D01*
G01X539340Y236789D02*
X540990Y238439D01*
X543111D01*
X544313Y239641D01*
X591282D01*
X596300Y234623D01*
Y220600D01*
X606000Y210900D01*
Y210379D01*
X607500Y208879D01*
Y208500D01*
G01X539340Y246238D02*
X542202Y249100D01*
X542721D01*
X542900Y249279D01*
X588256D01*
X604800Y232735D01*
Y226200D01*
X607500Y223500D01*
G01X539340Y239939D02*
X540840Y241439D01*
X591688D01*
X599100Y234027D01*
Y222279D01*
X607500Y213879D01*
Y213500D01*
G01Y218500D02*
X601200Y224800D01*
Y234131D01*
X590743Y244588D01*
X540840D01*
X539340Y243088D01*
G01X607500Y203500D02*
Y203879D01*
X606000Y205379D01*
Y206600D01*
X594175Y218425D01*
Y219896D01*
X593296Y220775D01*
X589624D01*
X572316Y238083D01*
X545905D01*
X543111Y235289D01*
X540989D01*
X539340Y233640D01*
G01X607500Y201000D02*
Y201379D01*
X605201Y203678D01*
Y205719D01*
X595100Y215821D01*
X593296Y217625D01*
X591274D01*
X571595Y237304D01*
X546256D01*
X543442Y234490D01*
X543340D01*
X542490Y233640D01*
G01Y236789D02*
X543341Y237640D01*
X543442D01*
X544664Y238862D01*
X590959D01*
X594900Y234921D01*
Y220400D01*
X597000Y218300D01*
Y216879D01*
X607500Y206379D01*
Y206000D01*
G01X542490Y239939D02*
X542971Y240420D01*
X591605D01*
X598100Y233925D01*
Y220779D01*
X607500Y211379D01*
Y211000D01*
G01X542490Y243088D02*
X591141D01*
X599900Y234329D01*
Y223800D01*
X607500Y216200D01*
Y216000D01*
G01X619700Y315100D02*
X620927Y316327D01*
X622094D01*
X629099Y323332D01*
Y326322D01*
X631677Y328900D01*
X670500D01*
X689000Y347400D01*
G54D19*
G01X260667Y-86500D02*
Y-92500D01*
X264333D01*
G01X266708D02*
X269000Y-86500D01*
X271292Y-92500D01*
G01X270467Y-90400D02*
X267533D01*
G01X275500Y-92500D02*
Y-89800D01*
X273667Y-86500D01*
G01X277333D02*
X275500Y-89800D01*
G01X283833Y-92500D02*
X280167D01*
Y-86500D01*
X283833D01*
G01X282367Y-89400D02*
X280167D01*
G01X286667Y-92500D02*
Y-86500D01*
X288958D01*
X289692Y-86800D01*
X290150Y-87200D01*
X290333Y-88000D01*
X290150Y-88800D01*
X289600Y-89300D01*
X288958Y-89600D01*
X286667D01*
G01X288958D02*
X290333Y-92500D01*
G01X301500D02*
Y-86500D01*
X300400Y-87700D01*
G01Y-92500D02*
X302600D01*
G01X306258Y-87500D02*
X306808Y-86900D01*
X307450Y-86600D01*
X308183Y-86500D01*
X309100Y-86700D01*
X309742Y-87200D01*
X309925Y-87800D01*
X309833Y-88400D01*
X309467Y-88900D01*
X307633Y-89900D01*
X306808Y-90600D01*
X306258Y-91600D01*
X306075Y-92500D01*
X309925D01*
G01X312850Y-92700D02*
X316150Y-86500D01*
G01X319258Y-87500D02*
X319808Y-86900D01*
X320450Y-86600D01*
X321183Y-86500D01*
X322100Y-86700D01*
X322742Y-87200D01*
X322925Y-87800D01*
X322833Y-88400D01*
X322467Y-88900D01*
X320633Y-89900D01*
X319808Y-90600D01*
X319258Y-91600D01*
X319075Y-92500D01*
X322925D01*
G01X327500Y-86500D02*
X326767Y-86700D01*
X326217Y-87200D01*
X325850Y-87800D01*
X325575Y-88600D01*
X325483Y-89500D01*
X325575Y-90400D01*
X325850Y-91200D01*
X326217Y-91800D01*
X326767Y-92300D01*
X327500Y-92500D01*
X328233Y-92300D01*
X328783Y-91800D01*
X329150Y-91200D01*
X329425Y-90400D01*
X329517Y-89500D01*
X329425Y-88600D01*
X329150Y-87800D01*
X328783Y-87200D01*
X328233Y-86700D01*
X327500Y-86500D01*
G01X270325Y-101700D02*
X271058Y-102200D01*
X271883Y-102500D01*
X272617D01*
X273350Y-102200D01*
X273900Y-101700D01*
X274175Y-101000D01*
X273992Y-100300D01*
X273533Y-99700D01*
X272708Y-99300D01*
X271608Y-99100D01*
X270967Y-98700D01*
X270692Y-98000D01*
X270875Y-97300D01*
X271333Y-96800D01*
X271975Y-96500D01*
X272617D01*
X273258Y-96700D01*
X273808Y-97200D01*
G01X277650Y-96500D02*
X279850D01*
G01X278750D02*
Y-102500D01*
G01X277650D02*
X279850D01*
G01X285800Y-99500D02*
X287633D01*
Y-101300D01*
X287083Y-101900D01*
X286442Y-102300D01*
X285525Y-102500D01*
X284608Y-102300D01*
X283967Y-101900D01*
X283417Y-101300D01*
X283050Y-100600D01*
X282867Y-99800D01*
Y-99100D01*
X283050Y-98500D01*
X283417Y-97800D01*
X283967Y-97200D01*
X284517Y-96800D01*
X285250Y-96500D01*
X285892D01*
X286625Y-96700D01*
X287175Y-97100D01*
G01X289642Y-102500D02*
Y-96500D01*
X293858Y-102500D01*
Y-96500D01*
G01X295958Y-102500D02*
X298250Y-96500D01*
X300542Y-102500D01*
G01X299717Y-100400D02*
X296783D01*
G01X302917Y-96500D02*
Y-102500D01*
X306583D01*
G01X315733Y-101600D02*
X316283Y-102100D01*
X316925Y-102400D01*
X317750Y-102500D01*
X318575Y-102300D01*
X319217Y-101900D01*
X319675Y-101200D01*
X319767Y-100400D01*
X319583Y-99600D01*
X319125Y-99100D01*
X318483Y-98700D01*
X317842Y-98600D01*
X317200Y-98700D01*
X316375Y-99100D01*
X316650Y-96500D01*
X319125D01*
G01X364983Y-97500D02*
Y-91500D01*
X366817D01*
X367550Y-91800D01*
X368100Y-92200D01*
X368558Y-92800D01*
X368925Y-93500D01*
X369017Y-94500D01*
X368925Y-95500D01*
X368558Y-96200D01*
X368100Y-96800D01*
X367550Y-97200D01*
X366817Y-97500D01*
X364983D01*
G01X374600D02*
Y-91500D01*
X371208Y-95800D01*
X375792D01*
G01X380000Y-97500D02*
Y-91500D01*
X378900Y-92700D01*
G01Y-97500D02*
X381100D01*
G01X386500Y-91500D02*
X385767Y-91700D01*
X385217Y-92200D01*
X384850Y-92800D01*
X384575Y-93600D01*
X384483Y-94500D01*
X384575Y-95400D01*
X384850Y-96200D01*
X385217Y-96800D01*
X385767Y-97300D01*
X386500Y-97500D01*
X387233Y-97300D01*
X387783Y-96800D01*
X388150Y-96200D01*
X388425Y-95400D01*
X388517Y-94500D01*
X388425Y-93600D01*
X388150Y-92800D01*
X387783Y-92200D01*
X387233Y-91700D01*
X386500Y-91500D01*
G01X393000D02*
X392267Y-91700D01*
X391717Y-92200D01*
X391350Y-92800D01*
X391075Y-93600D01*
X390983Y-94500D01*
X391075Y-95400D01*
X391350Y-96200D01*
X391717Y-96800D01*
X392267Y-97300D01*
X393000Y-97500D01*
X393733Y-97300D01*
X394283Y-96800D01*
X394650Y-96200D01*
X394925Y-95400D01*
X395017Y-94500D01*
X394925Y-93600D01*
X394650Y-92800D01*
X394283Y-92200D01*
X393733Y-91700D01*
X393000Y-91500D01*
G01X405542Y-99500D02*
X404625Y-98500D01*
X404167Y-97500D01*
Y-93500D01*
X404625Y-92500D01*
X405542Y-91500D01*
G01X410758Y-92500D02*
X411308Y-91900D01*
X411950Y-91600D01*
X412683Y-91500D01*
X413600Y-91700D01*
X414242Y-92200D01*
X414425Y-92800D01*
X414333Y-93400D01*
X413967Y-93900D01*
X412133Y-94900D01*
X411308Y-95600D01*
X410758Y-96600D01*
X410575Y-97500D01*
X414425D01*
G01X416983Y-96600D02*
X417533Y-97100D01*
X418175Y-97400D01*
X419000Y-97500D01*
X419825Y-97300D01*
X420467Y-96900D01*
X420925Y-96200D01*
X421017Y-95400D01*
X420833Y-94600D01*
X420375Y-94100D01*
X419733Y-93700D01*
X419092Y-93600D01*
X418450Y-93700D01*
X417625Y-94100D01*
X417900Y-91500D01*
X420375D01*
G01X425500Y-97500D02*
Y-91500D01*
X424400Y-92700D01*
G01Y-97500D02*
X426600D01*
G01X432000Y-91500D02*
X431267Y-91700D01*
X430717Y-92200D01*
X430350Y-92800D01*
X430075Y-93600D01*
X429983Y-94500D01*
X430075Y-95400D01*
X430350Y-96200D01*
X430717Y-96800D01*
X431267Y-97300D01*
X432000Y-97500D01*
X432733Y-97300D01*
X433283Y-96800D01*
X433650Y-96200D01*
X433925Y-95400D01*
X434017Y-94500D01*
X433925Y-93600D01*
X433650Y-92800D01*
X433283Y-92200D01*
X432733Y-91700D01*
X432000Y-91500D01*
G01X436483Y-96300D02*
X437033Y-97000D01*
X437767Y-97400D01*
X438592Y-97500D01*
X439325Y-97400D01*
X440058Y-96900D01*
X440517Y-96300D01*
X440608Y-95700D01*
X440425Y-95000D01*
X439783Y-94500D01*
X439142Y-94300D01*
X438317D01*
G01X439142D02*
X439692Y-94000D01*
X440150Y-93500D01*
X440333Y-92900D01*
X440150Y-92300D01*
X439692Y-91800D01*
X438867Y-91500D01*
X438042Y-91600D01*
X437217Y-92000D01*
G01X445000Y-91500D02*
X444267Y-91700D01*
X443717Y-92200D01*
X443350Y-92800D01*
X443075Y-93600D01*
X442983Y-94500D01*
X443075Y-95400D01*
X443350Y-96200D01*
X443717Y-96800D01*
X444267Y-97300D01*
X445000Y-97500D01*
X445733Y-97300D01*
X446283Y-96800D01*
X446650Y-96200D01*
X446925Y-95400D01*
X447017Y-94500D01*
X446925Y-93600D01*
X446650Y-92800D01*
X446283Y-92200D01*
X445733Y-91700D01*
X445000Y-91500D01*
G01X451500D02*
X450767Y-91700D01*
X450217Y-92200D01*
X449850Y-92800D01*
X449575Y-93600D01*
X449483Y-94500D01*
X449575Y-95400D01*
X449850Y-96200D01*
X450217Y-96800D01*
X450767Y-97300D01*
X451500Y-97500D01*
X452233Y-97300D01*
X452783Y-96800D01*
X453150Y-96200D01*
X453425Y-95400D01*
X453517Y-94500D01*
X453425Y-93600D01*
X453150Y-92800D01*
X452783Y-92200D01*
X452233Y-91700D01*
X451500Y-91500D01*
G01X458458Y-99500D02*
X459375Y-98500D01*
X459833Y-97500D01*
Y-93500D01*
X459375Y-92500D01*
X458458Y-91500D01*
M02*
