G04 ================== begin FILE IDENTIFICATION RECORD ==================*
G04 Layout Name:  2510300_REV-D.brd*
G04 Film Name:    L14_sig5.gbr*
G04 File Format:  Gerber RS274X*
G04 File Origin:  Cadence Allegro 16.6-2015-S051*
G04 Origin Date:  Tue Apr 12 06:53:57 2016*
G04 *
G04 Layer:  VIA CLASS/L14_SIG6*
G04 Layer:  PIN/L14_SIG6*
G04 Layer:  ETCH/L14_SIG6*
G04 Layer:  DRAWING FORMAT/TITLE_BLOCK*
G04 *
G04 Offset:    (0.00 0.00)*
G04 Mirror:    No*
G04 Mode:      Positive*
G04 Rotation:  0*
G04 FullContactRelief:  No*
G04 UndefLineWidth:     0.00*
G04 ================== end FILE IDENTIFICATION RECORD ====================*
%FSLAX25Y25*MOIN*%
%IR0*IPPOS*OFA0.00000B0.00000*MIA0B0*SFA1.00000B1.00000*%
%ADD14C,.02*%
%ADD16C,.06*%
%ADD15C,.025*%
%ADD11C,.07*%
%ADD10C,.016*%
%ADD12C,.055*%
%ADD13C,.094*%
%ADD17C,.01*%
%ADD18C,.011*%
%ADD19C,.012*%
%ADD20C,.004*%
%ADD21C,.006*%
%ADD22C,.008*%
%ADD23C,.00399*%
%ADD24C,.02604*%
G75*
%LPD*%
G75*
G36*
G01X213000Y128500D02*
X209500Y132000D01*
Y162500D01*
X212500Y165500D01*
X254500D01*
X258000Y162000D01*
Y131000D01*
X255500Y128500D01*
X254204D01*
X254169Y128513D01*
G03X253231I-469J-1214D01*
G01X253196Y128500D01*
X213000D01*
G37*
G36*
G01X340606Y321978D02*
X340288Y322334D01*
X340298Y322423D01*
G03X337710Y322426I-1294J147D01*
G01X337720Y322337D01*
X337401Y321981D01*
X336667Y321983D01*
X336350Y322338D01*
X336360Y322427D01*
G03X333771Y322433I-1294J143D01*
G01X333781Y322344D01*
X333462Y321991D01*
X332733Y321993D01*
X332415Y322346D01*
X332425Y322434D01*
G03X329835Y322441I-1295J137D01*
G01X329843Y322352D01*
X329525Y322001D01*
X324861Y322012D01*
X324544Y322361D01*
X324552Y322449D01*
G03X321959Y322456I-1296J122D01*
G01X321967Y322368D01*
X321648Y322020D01*
X320926Y322022D01*
X320608Y322369D01*
X320616Y322457D01*
G03X318021Y322463I-1297J113D01*
G01X318029Y322376D01*
X317710Y322030D01*
X316990Y322032D01*
X316673Y322377D01*
X316680Y322464D01*
G03X314084Y322470I-1298J106D01*
G01X314091Y322383D01*
X313772Y322040D01*
X313054Y322041D01*
X312737Y322385D01*
X312743Y322472D01*
G03X310146Y322478I-1298J99D01*
G01X310153Y322391D01*
X309834Y322049D01*
X309118Y322051D01*
X308801Y322392D01*
X308807Y322479D01*
G03X306209Y322486I-1299J92D01*
G01X306215Y322399D01*
X305896Y322059D01*
X305182Y322061D01*
X304865Y322400D01*
X304870Y322487D01*
G03X302271Y322493I-1299J84D01*
G01X302277Y322407D01*
X301958Y322069D01*
X301246Y322071D01*
X300929Y322408D01*
X300934Y322494D01*
G03X298334Y322500I-1300J76D01*
G01X298338Y322414D01*
X298020Y322079D01*
X297309Y322080D01*
X296992Y322416D01*
X296996Y322501D01*
G03X294395Y322508I-1300J68D01*
G01X294400Y322422D01*
X294081Y322088D01*
X293373Y322090D01*
X293056Y322423D01*
X293060Y322509D01*
G03X290458Y322515I-1301J61D01*
G01X290462Y322430D01*
X290143Y322098D01*
X289400Y322100D01*
X285900Y325600D01*
Y338500D01*
X289871Y342471D01*
X290451Y342262D01*
X290463Y342136D01*
G03X291879Y343552I1296J120D01*
G01X291753Y343564D01*
X291544Y344144D01*
X292588Y345188D01*
X292595Y345194D01*
G03X292763Y345363I-835J999D01*
G01X293300Y345900D01*
Y355800D01*
X292570Y356530D01*
X292579Y356989D01*
X292642Y357047D01*
G03X290802Y358887I-883J957D01*
G01X290744Y358824D01*
X290285Y358815D01*
X289700Y359400D01*
X284000D01*
X282600Y360800D01*
Y363900D01*
X283500Y364800D01*
X283800D01*
X284000Y364600D01*
X289000D01*
X290100Y363500D01*
X290644D01*
X290895Y362924D01*
X290806Y362828D01*
G03X292712I953J-887D01*
G01X292623Y362924D01*
X292874Y363500D01*
X294581D01*
X294832Y362924D01*
X294743Y362828D01*
G03X296649I953J-887D01*
G01X296560Y362924D01*
X296811Y363500D01*
X298519D01*
X298770Y362924D01*
X298681Y362828D01*
G03X300924Y361767I953J-887D01*
G01X300941Y361890D01*
X301516Y362084D01*
X303714Y359886D01*
X303520Y359311D01*
X303397Y359294D01*
G03X304870Y357929I173J-1290D01*
G01X304877Y358045D01*
X305395Y358303D01*
X306230Y357744D01*
X306249Y357671D01*
G03X307682Y356714I1259J333D01*
G01X307757Y356724D01*
X310446Y354925D01*
X310343Y354760D01*
G03X312507Y353313I1101J-695D01*
G01X312619Y353472D01*
X314939Y351921D01*
X314903Y351346D01*
X314800Y351295D01*
G03X316681Y350037I582J-1165D01*
G01X316689Y350152D01*
X317206Y350405D01*
X318046Y349844D01*
X318066Y349773D01*
G03X319467Y348837I1252J357D01*
G01X319540Y348845D01*
X322245Y347036D01*
X322145Y346872D01*
G03X324308Y345426I1111J-679D01*
G01X324421Y345581D01*
X326729Y344037D01*
X326697Y343465D01*
X326596Y343413D01*
G03X328490Y342146I597J-1157D01*
G01X328500Y342260D01*
X329016Y342508D01*
X329865Y341941D01*
X329886Y341873D01*
G03X331252Y340960I1244J383D01*
G01X331322Y340966D01*
X334044Y339146D01*
X333947Y338983D01*
G03X336109Y337538I1119J-665D01*
G01X336222Y337690D01*
X338600Y336100D01*
X371398D01*
Y335885D01*
X371541Y335743D01*
X371282Y335439D01*
G03X371821Y334470I-760J-1057D01*
G01X371812Y334609D01*
X372405Y334878D01*
X373188Y334095D01*
X373202Y334044D01*
G03X374797Y335639I1257J338D01*
G01X374746Y335653D01*
X374546Y335853D01*
X374648Y336100D01*
X392500D01*
X393252Y335348D01*
X393137Y335208D01*
G03X394562Y333149I1007J-826D01*
G01X394659Y333182D01*
X395090Y332873D01*
Y325269D01*
X396200Y324160D01*
Y323400D01*
X395844Y323044D01*
X395331Y323116D01*
X395282Y323203D01*
G03X392850Y322423I-1138J-632D01*
G01X392861Y322334D01*
X392543Y321978D01*
X391808D01*
X391490Y322334D01*
X391501Y322423D01*
G03X388913I-1294J148D01*
G01X388924Y322334D01*
X388606Y321978D01*
X387871D01*
X387553Y322334D01*
X387564Y322423D01*
G03X384976I-1294J148D01*
G01X384987Y322334D01*
X384669Y321978D01*
X383934D01*
X383616Y322334D01*
X383627Y322423D01*
G03X381039I-1294J148D01*
G01X381050Y322334D01*
X380732Y321978D01*
X379998D01*
X379680Y322334D01*
X379690Y322423D01*
G03X377102I-1294J147D01*
G01X377112Y322334D01*
X376794Y321978D01*
X376060D01*
X375742Y322334D01*
X375753Y322423D01*
G03X373165I-1294J148D01*
G01X373176Y322334D01*
X372858Y321978D01*
X372122D01*
X371804Y322334D01*
X371815Y322423D01*
G03X369227I-1294J148D01*
G01X369238Y322334D01*
X368920Y321978D01*
X368186D01*
X367868Y322334D01*
X367879Y322423D01*
G03X365291I-1294J148D01*
G01X365302Y322334D01*
X364984Y321978D01*
X364250D01*
X363932Y322334D01*
X363942Y322423D01*
G03X361354I-1294J147D01*
G01X361364Y322334D01*
X361046Y321978D01*
X356354D01*
X356036Y322334D01*
X356046Y322423D01*
G03X353458I-1294J147D01*
G01X353468Y322334D01*
X353150Y321978D01*
X352416D01*
X352098Y322334D01*
X352109Y322423D01*
G03X349521I-1294J148D01*
G01X349532Y322334D01*
X349214Y321978D01*
X348480D01*
X348162Y322334D01*
X348173Y322423D01*
G03X345585I-1294J148D01*
G01X345596Y322334D01*
X345278Y321978D01*
X344542D01*
X344224Y322334D01*
X344235Y322423D01*
G03X341647I-1294J148D01*
G01X341658Y322334D01*
X341340Y321978D01*
X340606D01*
G37*
G36*
G01X468500Y162500D02*
X471500Y165500D01*
X513500D01*
X517000Y162000D01*
Y131000D01*
X514500Y128500D01*
X472000D01*
X468500Y132000D01*
Y162500D01*
G37*
%LPC*%
G75*
G36*
G01X315381Y343558D02*
X315382D01*
G02Y340954I0J-1302D01*
G02X315381Y343558I-1J1302D01*
G37*
G36*
G01X302268Y338318D02*
G02X304872I1302J1D01*
G02X302268I-1302J0D01*
G37*
G36*
G01X318016Y330444D02*
G02X320620I1302J1D01*
G02X318016I-1302J0D01*
G37*
G54D24*
X295696D03*
X307508Y326508D03*
X291759D03*
X303571Y330445D03*
X307508Y342256D03*
Y334382D03*
X299634Y330444D03*
X291759Y334382D03*
X295696Y342256D03*
X307508Y338319D03*
X291759Y330444D03*
X295696Y326508D03*
X303571Y334382D03*
Y326508D03*
X307508Y330445D03*
X303571Y342256D03*
X295696Y338318D03*
Y334382D03*
X299634D03*
Y326508D03*
Y338318D03*
X291759D03*
X299634Y342256D03*
X307508Y350130D03*
X303570D03*
X307508Y354066D03*
X303570D03*
X295696D03*
X299634D03*
X295696Y350130D03*
Y358004D03*
X303571Y346193D03*
X299634Y358004D03*
X307508Y346192D03*
X299634Y350130D03*
X295696Y346192D03*
X299634D03*
X319319Y338319D03*
X311445Y342256D03*
X323255Y326507D03*
X323256Y334382D03*
Y330445D03*
Y342256D03*
X315382Y326508D03*
X311445Y338319D03*
X319319Y342256D03*
X315382Y330445D03*
X311444Y334382D03*
X323256Y338318D03*
X311445Y330445D03*
Y326508D03*
X315382Y334382D03*
X319319D03*
Y326508D03*
X311444Y350130D03*
X311445Y346193D03*
X315382D03*
X319319D03*
X342941Y326508D03*
X339005D03*
X335067Y330445D03*
Y326508D03*
X327193Y330445D03*
X331130Y338318D03*
X335066Y334382D03*
X342941D03*
Y330444D03*
X339004Y334382D03*
X327193D03*
X331130Y330445D03*
Y326508D03*
X327193Y338319D03*
X331130Y334382D03*
X327192Y326508D03*
X339004Y330444D03*
X350815Y326508D03*
X354752Y334382D03*
Y330444D03*
X354753Y326508D03*
X346878Y334382D03*
X350815Y330444D03*
X346878D03*
Y326508D03*
X350815Y334382D03*
X378395Y330445D03*
Y326508D03*
X366585Y330445D03*
Y334382D03*
X362648D03*
X362647Y326508D03*
X378396Y334382D03*
X374459Y330444D03*
X370522D03*
Y326508D03*
X362648Y330444D03*
X374459Y326508D03*
X382333D03*
X386270Y330445D03*
Y334382D03*
Y326508D03*
X390207Y330445D03*
Y334382D03*
X390208Y326508D03*
X382334Y330444D03*
Y334382D03*
%LPD*%
G75*
G54D10*
X20900Y141700D03*
X34600Y122500D03*
X26668Y327632D03*
X27347Y332553D03*
X45600Y118900D03*
X82810Y264210D03*
X80070Y266570D03*
X81790Y271290D03*
X84440Y280740D03*
X82120Y278380D03*
X99530Y274830D03*
X98670Y272470D03*
X100650Y267750D03*
X111690Y265390D03*
X118300Y283400D03*
X117200Y285400D03*
X155700Y23100D03*
X160225Y313775D03*
X211900Y106000D03*
X199100Y146600D03*
X197600Y166100D03*
X205800Y185800D03*
X211850Y212402D03*
X208701Y231299D03*
X205551Y228150D03*
Y215551D03*
X208701Y221850D03*
X211850Y215551D03*
Y234449D03*
Y237598D03*
X206600Y373100D03*
X221700Y114100D03*
X222000Y124800D03*
X225000Y138000D03*
X217000D03*
X225000Y130000D03*
X217000D03*
X225000Y154500D03*
X217000D03*
X225000Y162000D03*
X217000D03*
Y146000D03*
X225000D03*
X217200Y167500D03*
X215900Y191300D03*
X218150Y234449D03*
X221000Y357300D03*
X238000Y126600D03*
X241000Y138000D03*
X249000D03*
X233000D03*
X241000Y130000D03*
X249000D03*
X233000D03*
X241000Y154500D03*
X249000D03*
X233000D03*
X241000Y162000D03*
X249000D03*
X233000D03*
X249000Y146000D03*
X241000D03*
X233000D03*
X249500Y199000D03*
X247900Y250700D03*
X252900Y208400D03*
X253000Y264000D03*
X282300Y192000D03*
X281800Y198000D03*
X279100Y207100D03*
X275900Y270400D03*
X288400Y334400D03*
X288900Y325600D03*
X291759Y350129D03*
X318518Y104408D03*
X314582Y108344D03*
Y104408D03*
Y143778D03*
Y147715D03*
X318518Y179234D03*
Y175296D03*
Y183170D03*
X315381Y243807D03*
X311444D03*
X307507Y259555D03*
X311444Y263492D03*
X307507Y267429D03*
X311444D03*
X315381Y263492D03*
Y267429D03*
Y271366D03*
Y275304D03*
X319318Y271366D03*
Y275304D03*
X311444D03*
X307507Y271366D03*
X315382Y338318D03*
X322456Y104408D03*
Y175296D03*
X326392Y183170D03*
X330330D03*
Y191044D03*
Y187108D03*
X326392Y202856D03*
X322456D03*
X331130Y283179D03*
Y287115D03*
X327192Y322570D03*
X350015Y120156D03*
Y116218D03*
X342141Y206792D03*
X350015Y198918D03*
X346078Y202856D03*
Y198918D03*
X338204Y202856D03*
X342141D03*
X350815Y263493D03*
Y259556D03*
X338600Y369400D03*
X366000Y88000D03*
X365785Y120156D03*
X361848Y124092D03*
Y202856D03*
Y198918D03*
X366585Y326508D03*
X370522Y346192D03*
X381534Y120156D03*
X377596Y128030D03*
X381534Y159548D03*
X389408D03*
X381534Y151652D03*
X385470D03*
X389408D03*
X381534Y202856D03*
X377596Y198918D03*
X389408D03*
Y202856D03*
X390208Y259555D03*
Y255618D03*
X386271Y259555D03*
X386270Y314696D03*
X390207Y310760D03*
X386270D03*
X390207Y314696D03*
X386270Y306822D03*
X374459Y334382D03*
X405000Y82000D03*
X393344Y159548D03*
X401218Y194982D03*
Y198918D03*
Y206792D03*
X397282D03*
X405956Y243807D03*
Y247744D03*
Y263492D03*
Y267429D03*
X402019Y263492D03*
Y259555D03*
X394145D03*
X398082Y271366D03*
Y275304D03*
X402018Y318634D03*
Y314696D03*
X398081Y310760D03*
X394144D03*
X405956Y330444D03*
Y334382D03*
Y322570D03*
Y326508D03*
X394144D03*
Y330444D03*
X402018Y342256D03*
Y346193D03*
X405956Y346192D03*
Y342256D03*
X418500Y71200D03*
X413830Y243807D03*
Y247744D03*
Y255618D03*
Y259555D03*
X409892Y318634D03*
Y334382D03*
Y322570D03*
Y330444D03*
X413830D03*
Y342256D03*
Y346192D03*
X409892Y342256D03*
X413830Y338318D03*
X409892D03*
X459500Y160764D03*
X475500Y130000D03*
Y138000D03*
Y146000D03*
Y162000D03*
Y154500D03*
X477500Y178800D03*
X468400Y180300D03*
X468900Y216500D03*
X491500Y138000D03*
Y130000D03*
X483500Y138000D03*
Y130000D03*
X491500Y154500D03*
Y162000D03*
Y146000D03*
X483500Y154500D03*
Y162000D03*
Y146000D03*
X494953Y167500D03*
X481173Y177627D03*
X479100Y182900D03*
X489951Y207651D03*
X499500Y138000D03*
Y130000D03*
X507500D03*
Y138000D03*
Y146000D03*
X499500Y154500D03*
Y162000D03*
Y146000D03*
X507500Y162000D03*
Y154500D03*
X524100Y160764D03*
X523510Y211510D03*
X526660Y217809D03*
X514100Y247600D03*
X539340Y224191D03*
Y230490D03*
X542490Y227340D03*
Y230490D03*
Y224191D03*
X539340Y227340D03*
X542490Y246238D03*
X539340Y236789D03*
Y246238D03*
Y239939D03*
Y243088D03*
Y233640D03*
X542490D03*
Y236789D03*
Y239939D03*
Y243088D03*
X618500Y285600D03*
X621795Y294205D03*
X619600Y306016D03*
X643000Y354300D03*
X640600Y355900D03*
X702000Y264300D03*
X698100Y300900D03*
X694383Y343417D03*
X708500Y255400D03*
G54D20*
G01X26668Y327632D02*
X54036Y355000D01*
X57061D01*
X59260Y357199D01*
X62740D01*
X64939Y355000D01*
X72061D01*
X73061Y356000D01*
X87264D01*
X88344Y357080D01*
X91576D01*
X92656Y356000D01*
X106340D01*
X111801Y361461D01*
Y370469D01*
X119531Y378199D01*
X143321D01*
X146071Y380949D01*
X148929D01*
X149578Y380300D01*
X155422D01*
X156071Y380949D01*
X158929D01*
X159578Y380300D01*
X165422D01*
X166071Y380949D01*
X168929D01*
X169578Y380300D01*
X176462D01*
X177717Y381555D01*
X615865D01*
X640600Y356820D01*
Y355900D01*
G01X27347Y332553D02*
X52794Y358000D01*
X72000D01*
X96775Y382775D01*
X110000D01*
X113800Y378975D01*
X142999D01*
X145749Y381725D01*
X149251D01*
X149576Y381400D01*
X155424D01*
X155749Y381725D01*
X159251D01*
X159576Y381400D01*
X165424D01*
X165749Y381725D01*
X169251D01*
X169576Y381400D01*
X176464D01*
X177395Y382331D01*
X616290D01*
X643000Y355621D01*
Y354300D01*
G01X211850Y212402D02*
X210809D01*
X209319Y210912D01*
X202880D01*
X193490Y220302D01*
Y229618D01*
X192598Y230510D01*
X190382D01*
X171002Y249890D01*
X119082D01*
X118902Y249710D01*
X82482D01*
X77132Y255060D01*
Y276149D01*
X92051Y291068D01*
X122390D01*
X123223Y290235D01*
X152927D01*
X159057Y296365D01*
X163765D01*
X172700Y305300D01*
X188101D01*
X220590Y337789D01*
Y356890D01*
X221000Y357300D01*
G01X291759Y350129D02*
X282088Y359800D01*
X203000D01*
X201274Y358074D01*
X200504D01*
X199626Y357196D01*
Y317926D01*
X195475Y313775D01*
X160225D01*
G01X205800Y185800D02*
X208292D01*
X215282Y192790D01*
X250782D01*
X251582Y193590D01*
X262502D01*
X267082Y189010D01*
X267990D01*
X274000Y183000D01*
G01X211850Y215551D02*
Y214510D01*
X213340Y213020D01*
Y211784D01*
X211850Y210294D01*
Y191850D01*
X205800Y185800D01*
G01X249500Y199000D02*
X225939Y222561D01*
Y228768D01*
X225067Y229640D01*
X224000D01*
X222959Y230681D01*
Y231747D01*
X221917Y232789D01*
X220681D01*
X219809Y231917D01*
Y230850D01*
X218768Y229809D01*
X217532D01*
X214552Y232789D01*
X211232D01*
X209742Y231299D01*
X208701D01*
G01X279100Y207100D02*
X242154Y244046D01*
X209891D01*
X204061Y238216D01*
Y230681D01*
X205551Y229191D01*
Y228150D01*
G01X253000Y264000D02*
X251500D01*
X236510Y249010D01*
X226700D01*
X226010Y249700D01*
X222090D01*
X221400Y249010D01*
X213754D01*
X203283Y238539D01*
Y217819D01*
X205551Y215551D01*
G01X208701Y221850D02*
Y220809D01*
X210191Y219319D01*
Y218083D01*
X209149Y217041D01*
X208083D01*
X207041Y215999D01*
Y214933D01*
X206169Y214061D01*
X204933D01*
X202505Y216489D01*
Y238862D01*
X222643Y259000D01*
X228300D01*
X237700Y268400D01*
X257200D01*
X261890Y263710D01*
X272818D01*
X275900Y266792D01*
Y270400D01*
G01X252900Y208400D02*
X250608D01*
X226049Y232959D01*
X223831D01*
X222959Y233831D01*
Y234897D01*
X221917Y235939D01*
X220681D01*
X219809Y235067D01*
Y234000D01*
X218768Y232959D01*
X217532D01*
X216042Y234449D01*
X211850D01*
G01X282300Y192000D02*
X283290Y192990D01*
Y199318D01*
X239340Y243268D01*
X214769D01*
X211850Y240349D01*
Y237598D01*
G01X206600Y373100D02*
X207850Y374350D01*
X229783D01*
X230323Y373811D01*
X332081D01*
X338582Y367310D01*
X390883D01*
X396592Y361601D01*
Y361323D01*
X397464Y360451D01*
X470741D01*
X472032Y359160D01*
X473268D01*
X474248Y360140D01*
X494468D01*
X560111Y294497D01*
Y240212D01*
X543980Y224081D01*
Y223573D01*
X543108Y222701D01*
X526294D01*
X509754Y206161D01*
X491440D01*
X489951Y207651D01*
G01X221700Y114100D02*
X224100Y116500D01*
X250600D01*
X253000Y114100D01*
X293501D01*
X306239Y101362D01*
X349077D01*
X351505Y103790D01*
Y118666D01*
X350015Y120156D01*
G01Y116218D02*
X347568Y113771D01*
Y111664D01*
X346696Y110792D01*
X342481D01*
X340651Y108962D01*
Y104747D01*
X338822Y102918D01*
X325774D01*
X323946Y104746D01*
Y105026D01*
X323074Y105898D01*
X321838D01*
X320966Y105026D01*
Y104748D01*
X319136Y102918D01*
X313964D01*
X312044Y104838D01*
Y104988D01*
X310866Y106166D01*
X304032D01*
X288930Y121268D01*
X227132D01*
X223600Y124800D01*
X222000D01*
G01X217200Y167500D02*
X221700Y172000D01*
X274000D01*
X277700Y168300D01*
Y134700D01*
X302656Y109744D01*
X313182D01*
X314582Y108344D01*
G01X218150Y234449D02*
Y234650D01*
X216660Y236140D01*
Y240768D01*
X218382Y242490D01*
X235518D01*
X269710Y208298D01*
Y207882D01*
X272282Y205310D01*
X274490D01*
X281800Y198000D01*
G01X314582Y104408D02*
X312046Y106944D01*
X304355D01*
X289253Y122046D01*
X245546D01*
X240992Y126600D01*
X238000D01*
G01X619600Y306016D02*
X547417Y378199D01*
X519531D01*
X511932Y370600D01*
X342279D01*
X341079Y369400D01*
X338600D01*
G01X366000Y88000D02*
X363338Y90662D01*
Y116836D01*
X361881Y118293D01*
X361603D01*
X360358Y119538D01*
Y120774D01*
X361848Y122264D01*
Y124092D01*
G01X365785Y120156D02*
X366886D01*
X369334Y117708D01*
X370340D01*
X371990Y116058D01*
Y111843D01*
X373041Y110792D01*
X374420D01*
X375927Y109285D01*
Y107905D01*
X376978Y106854D01*
X378359D01*
X380044Y105169D01*
Y103790D01*
X401834Y82000D01*
X405000D01*
G01X468400Y180300D02*
X458000D01*
X456810Y181490D01*
X442382D01*
X429178Y168286D01*
Y166798D01*
X415432Y153052D01*
X408512D01*
X407692Y152232D01*
Y152208D01*
X404599Y149115D01*
X404576D01*
X403756Y148295D01*
Y148145D01*
X400789Y145178D01*
X400638D01*
X399818Y144358D01*
Y144334D01*
X396815Y141331D01*
X396664D01*
X395792Y140459D01*
Y140309D01*
X392787Y137304D01*
X392764D01*
X391944Y136484D01*
Y136460D01*
X388850Y133366D01*
X388828D01*
X388008Y132546D01*
Y132523D01*
X384915Y129430D01*
X384890D01*
X384070Y128610D01*
Y128458D01*
X381712Y126100D01*
X363856D01*
X361848Y124092D01*
G01X381534Y120156D02*
X383362D01*
X384852Y121646D01*
X404690D01*
X407602Y124558D01*
Y124710D01*
X408474Y125582D01*
X411582D01*
X462000Y176000D01*
X474700D01*
X477500Y178800D01*
G01X481173Y177627D02*
X476546Y173000D01*
X461000D01*
X450500Y162500D01*
Y157000D01*
X411800Y118300D01*
Y98300D01*
X405000Y91500D01*
Y82000D01*
G01X539340Y236789D02*
X537840Y238289D01*
X535733D01*
X534000Y240022D01*
Y244700D01*
X532900Y245800D01*
Y255708D01*
X521008Y267600D01*
X518600D01*
X516900Y269300D01*
X491866D01*
X436158Y325008D01*
X413222D01*
X412330Y325900D01*
Y326178D01*
X409564Y328944D01*
X409271D01*
X407771Y330444D01*
X405956D01*
G01Y334382D02*
X407771D01*
X409271Y332882D01*
X410817D01*
X411200Y332500D01*
X411598Y332102D01*
X440396D01*
X493019Y279479D01*
X535753D01*
X539340Y275892D01*
Y246238D01*
G01X405956Y322570D02*
X407771D01*
X410207Y320134D01*
X418374D01*
X420204Y318304D01*
Y318026D01*
X421096Y317134D01*
X437174D01*
X442900Y311408D01*
Y309275D01*
X459592Y292583D01*
X471700Y280474D01*
Y277092D01*
X485692Y263100D01*
X508756D01*
X525160Y246696D01*
Y242480D01*
X526201Y241439D01*
X527268D01*
X528160Y240547D01*
Y233181D01*
X529351Y231990D01*
X530430D01*
X533430Y228990D01*
X537110D01*
X538760Y227340D01*
X539340D01*
G01Y233640D02*
X539260D01*
X537760Y235140D01*
X535732D01*
X532600Y238272D01*
Y244100D01*
X531309Y245391D01*
Y250300D01*
X514310Y267299D01*
X487093D01*
X446100Y308292D01*
Y310410D01*
X432439Y324071D01*
X410209D01*
X409271Y325008D01*
X407771Y326508D01*
X405956D01*
G01X542490Y227340D02*
Y228369D01*
X546232Y232111D01*
Y232341D01*
X558555Y244664D01*
Y286043D01*
X557523Y287075D01*
X550325D01*
X547610Y289790D01*
X535190D01*
X533910Y288510D01*
X530690D01*
X479779Y339421D01*
X459198D01*
X455619Y343000D01*
X440000D01*
X438308Y344692D01*
X413222D01*
X411451Y346463D01*
Y346743D01*
X410511Y347683D01*
X409262D01*
X407771Y346192D01*
X405956D01*
G01Y342256D02*
X407771D01*
X409494Y340533D01*
X410051Y339977D01*
X437323D01*
X441700Y335600D01*
X452500D01*
X461900Y326200D01*
X474579D01*
X516878Y283901D01*
X537609D01*
X549990Y271520D01*
Y244290D01*
X542490Y236790D01*
Y236789D01*
G01X418500Y71200D02*
Y69521D01*
X424677Y63344D01*
Y39660D01*
X428160Y36177D01*
X428394D01*
X429677Y34894D01*
Y34660D01*
X433160Y31177D01*
X433394D01*
X434677Y29894D01*
Y29533D01*
X438033Y26177D01*
X438394D01*
X439677Y24894D01*
Y22277D01*
X442727Y19227D01*
G01X539340Y224191D02*
X539109D01*
X537609Y225691D01*
X533579D01*
X530280Y228990D01*
X529201D01*
X528160Y230031D01*
Y231098D01*
X527118Y232140D01*
X526052D01*
X525010Y233182D01*
Y240547D01*
X523969Y241588D01*
X522889D01*
X502577Y261900D01*
X485379D01*
X430924Y316355D01*
X413988D01*
X411709Y318634D01*
X409892D01*
G01X542490Y246238D02*
Y248869D01*
X543590Y249969D01*
Y251231D01*
X542400Y252421D01*
Y273933D01*
X535511Y280822D01*
X494646D01*
X442587Y332881D01*
X413209D01*
X411708Y334382D01*
X409892D01*
G01X539340Y230490D02*
X537690Y232140D01*
X535583D01*
X531801Y235922D01*
Y240055D01*
X530268Y241588D01*
X529201D01*
X528319Y242470D01*
Y248998D01*
X529290Y249969D01*
Y251218D01*
X514008Y266500D01*
X486791D01*
X445300Y307991D01*
Y310109D01*
X434339Y321070D01*
X413209D01*
X411709Y322570D01*
X409892D01*
G01X539340Y239939D02*
X537691Y241588D01*
Y243696D01*
X536649Y244738D01*
X535583D01*
X533990Y246331D01*
Y257518D01*
X520618Y270890D01*
X517225D01*
X516858Y270523D01*
X491745D01*
X434103Y328165D01*
X413735D01*
X411456Y330444D01*
X409892D01*
G01X413830D02*
X415645D01*
X417145Y328944D01*
X442452D01*
X492696Y278700D01*
X504033D01*
X511432Y271301D01*
X516534D01*
X516901Y271668D01*
X520941D01*
X537691Y254918D01*
Y245766D01*
X539340Y244117D01*
Y243088D01*
G01X542490Y239939D02*
X546168Y243617D01*
Y274241D01*
X538009Y282400D01*
X501200D01*
X448779Y334821D01*
X441377D01*
X439380Y336818D01*
X417145D01*
X415645Y338318D01*
X413830D01*
G01X409892D02*
X411709D01*
X413988Y336039D01*
X434540D01*
X436879Y333700D01*
X442870D01*
X494969Y281601D01*
X537707D01*
X545390Y273918D01*
Y246190D01*
X542490Y243290D01*
Y243088D01*
G01Y230490D02*
Y231519D01*
X555565Y244594D01*
Y254546D01*
X555590Y254571D01*
Y256429D01*
X555565Y256454D01*
Y272043D01*
X541208Y286400D01*
X524600D01*
X476100Y334900D01*
X458600D01*
X452200Y341300D01*
X439012D01*
X436566Y343746D01*
X417135D01*
X415645Y342256D01*
X413830D01*
G01X542490Y224191D02*
X547010Y228711D01*
Y232018D01*
X559333Y244341D01*
Y287225D01*
X498876Y347682D01*
X417135D01*
X415645Y346192D01*
X413830D01*
G01X409892Y342256D02*
X411709D01*
X413209Y340756D01*
X438454D01*
X440910Y338300D01*
X454098D01*
X458277Y334121D01*
X473900D01*
X523321Y284700D01*
X537911D01*
X550768Y271843D01*
Y242946D01*
X542490Y234668D01*
Y233640D01*
G01X479100Y182900D02*
X471000D01*
X468400Y180300D01*
G01X468900Y216500D02*
X500908D01*
X504057Y219649D01*
Y231965D01*
X514100Y242008D01*
Y247600D01*
G01X621795Y294205D02*
X623400Y292600D01*
Y277893D01*
X622464Y276957D01*
X615878D01*
X594496Y255575D01*
X583275D01*
X558000Y230300D01*
X556519D01*
X544000Y217781D01*
Y214049D01*
X543051Y213100D01*
X526129D01*
X524539Y211510D01*
X523510D01*
G01X526660Y217809D02*
X527688D01*
X529188Y219309D01*
X540817D01*
X544758Y223250D01*
Y223758D01*
X554500Y233500D01*
X557661D01*
X575600Y251439D01*
Y252721D01*
X581604Y258725D01*
X593296D01*
X614900Y280329D01*
Y282000D01*
X618500Y285600D01*
G01X702000Y264300D02*
Y261900D01*
X708500Y255400D01*
G01X698100Y300900D02*
X694489Y304511D01*
Y343311D01*
X694383Y343417D01*
G54D11*
X61000Y353000D03*
G54D21*
G01X260667Y-86500D02*
Y-92500D01*
X264333D01*
G01X266708D02*
X269000Y-86500D01*
X271292Y-92500D01*
G01X270467Y-90400D02*
X267533D01*
G01X275500Y-92500D02*
Y-89800D01*
X273667Y-86500D01*
G01X277333D02*
X275500Y-89800D01*
G01X283833Y-92500D02*
X280167D01*
Y-86500D01*
X283833D01*
G01X282367Y-89400D02*
X280167D01*
G01X286667Y-92500D02*
Y-86500D01*
X288958D01*
X289692Y-86800D01*
X290150Y-87200D01*
X290333Y-88000D01*
X290150Y-88800D01*
X289600Y-89300D01*
X288958Y-89600D01*
X286667D01*
G01X288958D02*
X290333Y-92500D01*
G01X301500D02*
Y-86500D01*
X300400Y-87700D01*
G01Y-92500D02*
X302600D01*
G01X309100D02*
Y-86500D01*
X305708Y-90800D01*
X310292D01*
G01X312850Y-92700D02*
X316150Y-86500D01*
G01X319258Y-87500D02*
X319808Y-86900D01*
X320450Y-86600D01*
X321183Y-86500D01*
X322100Y-86700D01*
X322742Y-87200D01*
X322925Y-87800D01*
X322833Y-88400D01*
X322467Y-88900D01*
X320633Y-89900D01*
X319808Y-90600D01*
X319258Y-91600D01*
X319075Y-92500D01*
X322925D01*
G01X327500Y-86500D02*
X326767Y-86700D01*
X326217Y-87200D01*
X325850Y-87800D01*
X325575Y-88600D01*
X325483Y-89500D01*
X325575Y-90400D01*
X325850Y-91200D01*
X326217Y-91800D01*
X326767Y-92300D01*
X327500Y-92500D01*
X328233Y-92300D01*
X328783Y-91800D01*
X329150Y-91200D01*
X329425Y-90400D01*
X329517Y-89500D01*
X329425Y-88600D01*
X329150Y-87800D01*
X328783Y-87200D01*
X328233Y-86700D01*
X327500Y-86500D01*
G01X270325Y-101700D02*
X271058Y-102200D01*
X271883Y-102500D01*
X272617D01*
X273350Y-102200D01*
X273900Y-101700D01*
X274175Y-101000D01*
X273992Y-100300D01*
X273533Y-99700D01*
X272708Y-99300D01*
X271608Y-99100D01*
X270967Y-98700D01*
X270692Y-98000D01*
X270875Y-97300D01*
X271333Y-96800D01*
X271975Y-96500D01*
X272617D01*
X273258Y-96700D01*
X273808Y-97200D01*
G01X277650Y-96500D02*
X279850D01*
G01X278750D02*
Y-102500D01*
G01X277650D02*
X279850D01*
G01X285800Y-99500D02*
X287633D01*
Y-101300D01*
X287083Y-101900D01*
X286442Y-102300D01*
X285525Y-102500D01*
X284608Y-102300D01*
X283967Y-101900D01*
X283417Y-101300D01*
X283050Y-100600D01*
X282867Y-99800D01*
Y-99100D01*
X283050Y-98500D01*
X283417Y-97800D01*
X283967Y-97200D01*
X284517Y-96800D01*
X285250Y-96500D01*
X285892D01*
X286625Y-96700D01*
X287175Y-97100D01*
G01X289642Y-102500D02*
Y-96500D01*
X293858Y-102500D01*
Y-96500D01*
G01X295958Y-102500D02*
X298250Y-96500D01*
X300542Y-102500D01*
G01X299717Y-100400D02*
X296783D01*
G01X302917Y-96500D02*
Y-102500D01*
X306583D01*
G01X316008Y-100000D02*
X316650Y-99300D01*
X317200Y-98900D01*
X317933Y-98700D01*
X318575Y-98900D01*
X319033Y-99300D01*
X319400Y-99900D01*
X319492Y-100600D01*
X319400Y-101200D01*
X319033Y-101800D01*
X318483Y-102300D01*
X317842Y-102500D01*
X317108Y-102300D01*
X316467Y-101700D01*
X316100Y-100800D01*
X316008Y-99800D01*
X316192Y-98500D01*
X316467Y-97800D01*
X316925Y-97100D01*
X317567Y-96600D01*
X318208Y-96500D01*
X318850Y-96700D01*
X319308Y-97200D01*
G01X364983Y-97500D02*
Y-91500D01*
X366817D01*
X367550Y-91800D01*
X368100Y-92200D01*
X368558Y-92800D01*
X368925Y-93500D01*
X369017Y-94500D01*
X368925Y-95500D01*
X368558Y-96200D01*
X368100Y-96800D01*
X367550Y-97200D01*
X366817Y-97500D01*
X364983D01*
G01X374600D02*
Y-91500D01*
X371208Y-95800D01*
X375792D01*
G01X380000Y-97500D02*
Y-91500D01*
X378900Y-92700D01*
G01Y-97500D02*
X381100D01*
G01X386500Y-91500D02*
X385767Y-91700D01*
X385217Y-92200D01*
X384850Y-92800D01*
X384575Y-93600D01*
X384483Y-94500D01*
X384575Y-95400D01*
X384850Y-96200D01*
X385217Y-96800D01*
X385767Y-97300D01*
X386500Y-97500D01*
X387233Y-97300D01*
X387783Y-96800D01*
X388150Y-96200D01*
X388425Y-95400D01*
X388517Y-94500D01*
X388425Y-93600D01*
X388150Y-92800D01*
X387783Y-92200D01*
X387233Y-91700D01*
X386500Y-91500D01*
G01X393000D02*
X392267Y-91700D01*
X391717Y-92200D01*
X391350Y-92800D01*
X391075Y-93600D01*
X390983Y-94500D01*
X391075Y-95400D01*
X391350Y-96200D01*
X391717Y-96800D01*
X392267Y-97300D01*
X393000Y-97500D01*
X393733Y-97300D01*
X394283Y-96800D01*
X394650Y-96200D01*
X394925Y-95400D01*
X395017Y-94500D01*
X394925Y-93600D01*
X394650Y-92800D01*
X394283Y-92200D01*
X393733Y-91700D01*
X393000Y-91500D01*
G01X405542Y-99500D02*
X404625Y-98500D01*
X404167Y-97500D01*
Y-93500D01*
X404625Y-92500D01*
X405542Y-91500D01*
G01X410758Y-92500D02*
X411308Y-91900D01*
X411950Y-91600D01*
X412683Y-91500D01*
X413600Y-91700D01*
X414242Y-92200D01*
X414425Y-92800D01*
X414333Y-93400D01*
X413967Y-93900D01*
X412133Y-94900D01*
X411308Y-95600D01*
X410758Y-96600D01*
X410575Y-97500D01*
X414425D01*
G01X416983Y-96600D02*
X417533Y-97100D01*
X418175Y-97400D01*
X419000Y-97500D01*
X419825Y-97300D01*
X420467Y-96900D01*
X420925Y-96200D01*
X421017Y-95400D01*
X420833Y-94600D01*
X420375Y-94100D01*
X419733Y-93700D01*
X419092Y-93600D01*
X418450Y-93700D01*
X417625Y-94100D01*
X417900Y-91500D01*
X420375D01*
G01X425500Y-97500D02*
Y-91500D01*
X424400Y-92700D01*
G01Y-97500D02*
X426600D01*
G01X432000Y-91500D02*
X431267Y-91700D01*
X430717Y-92200D01*
X430350Y-92800D01*
X430075Y-93600D01*
X429983Y-94500D01*
X430075Y-95400D01*
X430350Y-96200D01*
X430717Y-96800D01*
X431267Y-97300D01*
X432000Y-97500D01*
X432733Y-97300D01*
X433283Y-96800D01*
X433650Y-96200D01*
X433925Y-95400D01*
X434017Y-94500D01*
X433925Y-93600D01*
X433650Y-92800D01*
X433283Y-92200D01*
X432733Y-91700D01*
X432000Y-91500D01*
G01X436483Y-96300D02*
X437033Y-97000D01*
X437767Y-97400D01*
X438592Y-97500D01*
X439325Y-97400D01*
X440058Y-96900D01*
X440517Y-96300D01*
X440608Y-95700D01*
X440425Y-95000D01*
X439783Y-94500D01*
X439142Y-94300D01*
X438317D01*
G01X439142D02*
X439692Y-94000D01*
X440150Y-93500D01*
X440333Y-92900D01*
X440150Y-92300D01*
X439692Y-91800D01*
X438867Y-91500D01*
X438042Y-91600D01*
X437217Y-92000D01*
G01X445000Y-91500D02*
X444267Y-91700D01*
X443717Y-92200D01*
X443350Y-92800D01*
X443075Y-93600D01*
X442983Y-94500D01*
X443075Y-95400D01*
X443350Y-96200D01*
X443717Y-96800D01*
X444267Y-97300D01*
X445000Y-97500D01*
X445733Y-97300D01*
X446283Y-96800D01*
X446650Y-96200D01*
X446925Y-95400D01*
X447017Y-94500D01*
X446925Y-93600D01*
X446650Y-92800D01*
X446283Y-92200D01*
X445733Y-91700D01*
X445000Y-91500D01*
G01X451500D02*
X450767Y-91700D01*
X450217Y-92200D01*
X449850Y-92800D01*
X449575Y-93600D01*
X449483Y-94500D01*
X449575Y-95400D01*
X449850Y-96200D01*
X450217Y-96800D01*
X450767Y-97300D01*
X451500Y-97500D01*
X452233Y-97300D01*
X452783Y-96800D01*
X453150Y-96200D01*
X453425Y-95400D01*
X453517Y-94500D01*
X453425Y-93600D01*
X453150Y-92800D01*
X452783Y-92200D01*
X452233Y-91700D01*
X451500Y-91500D01*
G01X458458Y-99500D02*
X459375Y-98500D01*
X459833Y-97500D01*
Y-93500D01*
X459375Y-92500D01*
X458458Y-91500D01*
G54D12*
X147500Y337500D03*
Y357500D03*
Y347500D03*
Y367500D03*
Y377500D03*
X157500Y337500D03*
Y357500D03*
Y347500D03*
Y367500D03*
Y377500D03*
X167500Y337500D03*
Y357500D03*
Y347500D03*
Y367500D03*
Y377500D03*
G54D22*
G01X258500Y-125000D02*
Y-117000D01*
X261000D01*
X262000Y-117400D01*
X262750Y-117933D01*
X263375Y-118733D01*
X263875Y-119667D01*
X264000Y-121000D01*
X263875Y-122333D01*
X263375Y-123267D01*
X262750Y-124067D01*
X262000Y-124600D01*
X261000Y-125000D01*
X258500D01*
G01X266625D02*
X269750Y-117000D01*
X272875Y-125000D01*
G01X271750Y-122200D02*
X267750D01*
G01X278250Y-117000D02*
Y-125000D01*
G01X275375Y-117000D02*
X281125D01*
G01X289250Y-125000D02*
X284250D01*
Y-117000D01*
X289250D01*
G01X287250Y-120867D02*
X284250D01*
G01X295250Y-125267D02*
X295000Y-125133D01*
Y-124867D01*
X295250Y-124733D01*
X295500Y-124867D01*
Y-125133D01*
X295250Y-125267D01*
G01Y-121667D02*
X295000Y-121533D01*
Y-121267D01*
X295250Y-121133D01*
X295500Y-121267D01*
Y-121533D01*
X295250Y-121667D01*
G01X267750Y-70000D02*
Y-62000D01*
X270250D01*
X271250Y-62400D01*
X272000Y-62933D01*
X272625Y-63733D01*
X273125Y-64667D01*
X273250Y-66000D01*
X273125Y-67333D01*
X272625Y-68267D01*
X272000Y-69067D01*
X271250Y-69600D01*
X270250Y-70000D01*
X267750D01*
G01X277500Y-62000D02*
X280500D01*
G01X279000D02*
Y-70000D01*
G01X277500D02*
X280500D01*
G01X288250Y-66000D02*
X290750D01*
Y-68400D01*
X290000Y-69200D01*
X289125Y-69733D01*
X287875Y-70000D01*
X286625Y-69733D01*
X285750Y-69200D01*
X285000Y-68400D01*
X284500Y-67467D01*
X284250Y-66400D01*
Y-65467D01*
X284500Y-64667D01*
X285000Y-63733D01*
X285750Y-62933D01*
X286500Y-62400D01*
X287500Y-62000D01*
X288375D01*
X289375Y-62267D01*
X290125Y-62800D01*
G01X294500Y-62000D02*
X297500D01*
G01X296000D02*
Y-70000D01*
G01X294500D02*
X297500D01*
G01X304500Y-62000D02*
Y-70000D01*
G01X301625Y-62000D02*
X307375D01*
G01X309875Y-70000D02*
X313000Y-62000D01*
X316125Y-70000D01*
G01X315000Y-67200D02*
X311000D01*
G01X319000Y-62000D02*
Y-70000D01*
X324000D01*
G01X336000Y-62000D02*
Y-70000D01*
X341000D01*
G01X345500Y-62000D02*
X348500D01*
G01X347000D02*
Y-70000D01*
G01X345500D02*
X348500D01*
G01X356250Y-66000D02*
X358750D01*
Y-68400D01*
X358000Y-69200D01*
X357125Y-69733D01*
X355875Y-70000D01*
X354625Y-69733D01*
X353750Y-69200D01*
X353000Y-68400D01*
X352500Y-67467D01*
X352250Y-66400D01*
Y-65467D01*
X352500Y-64667D01*
X353000Y-63733D01*
X353750Y-62933D01*
X354500Y-62400D01*
X355500Y-62000D01*
X356375D01*
X357375Y-62267D01*
X358125Y-62800D01*
G01X361375Y-70000D02*
Y-62000D01*
G01X366625D02*
Y-70000D01*
G01Y-66000D02*
X361375D01*
G01X372500Y-62000D02*
Y-70000D01*
G01X369625Y-62000D02*
X375375D01*
G01X388000D02*
X391000D01*
G01X389500D02*
Y-70000D01*
G01X388000D02*
X391000D01*
G01X395125D02*
Y-62000D01*
X400875Y-70000D01*
Y-62000D01*
G01X403625Y-70000D02*
Y-62000D01*
X409375Y-70000D01*
Y-62000D01*
G01X415000Y-70000D02*
X414000Y-69867D01*
X413125Y-69333D01*
X412375Y-68533D01*
X411875Y-67600D01*
X411625Y-66533D01*
Y-65467D01*
X411875Y-64400D01*
X412375Y-63467D01*
X413125Y-62667D01*
X414000Y-62133D01*
X415000Y-62000D01*
X416000Y-62133D01*
X416875Y-62667D01*
X417625Y-63467D01*
X418125Y-64400D01*
X418375Y-65467D01*
Y-66533D01*
X418125Y-67600D01*
X417625Y-68533D01*
X416875Y-69333D01*
X416000Y-69867D01*
X415000Y-70000D01*
G01X420375Y-62000D02*
X423500Y-70000D01*
X426625Y-62000D01*
G01X428875Y-70000D02*
X432000Y-62000D01*
X435125Y-70000D01*
G01X434000Y-67200D02*
X430000D01*
G01X440500Y-62000D02*
Y-70000D01*
G01X437625Y-62000D02*
X443375D01*
G01X447500D02*
X450500D01*
G01X449000D02*
Y-70000D01*
G01X447500D02*
X450500D01*
G01X457500D02*
X456500Y-69867D01*
X455625Y-69333D01*
X454875Y-68533D01*
X454375Y-67600D01*
X454125Y-66533D01*
Y-65467D01*
X454375Y-64400D01*
X454875Y-63467D01*
X455625Y-62667D01*
X456500Y-62133D01*
X457500Y-62000D01*
X458500Y-62133D01*
X459375Y-62667D01*
X460125Y-63467D01*
X460625Y-64400D01*
X460875Y-65467D01*
Y-66533D01*
X460625Y-67600D01*
X460125Y-68533D01*
X459375Y-69333D01*
X458500Y-69867D01*
X457500Y-70000D01*
G01X463125D02*
Y-62000D01*
X468875Y-70000D01*
Y-62000D01*
G01X471875Y-68934D02*
X472875Y-69600D01*
X474000Y-70000D01*
X475000D01*
X476000Y-69600D01*
X476750Y-68934D01*
X477125Y-68000D01*
X476875Y-67067D01*
X476250Y-66267D01*
X475125Y-65733D01*
X473625Y-65467D01*
X472750Y-64933D01*
X472375Y-64000D01*
X472625Y-63067D01*
X473250Y-62400D01*
X474125Y-62000D01*
X475000D01*
X475875Y-62267D01*
X476625Y-62933D01*
G01X316250Y-117000D02*
X315250Y-117267D01*
X314500Y-117933D01*
X314000Y-118733D01*
X313625Y-119800D01*
X313500Y-121000D01*
X313625Y-122200D01*
X314000Y-123267D01*
X314500Y-124067D01*
X315250Y-124733D01*
X316250Y-125000D01*
X317250Y-124733D01*
X318000Y-124067D01*
X318500Y-123267D01*
X318875Y-122200D01*
X319000Y-121000D01*
X318875Y-119800D01*
X318500Y-118733D01*
X318000Y-117933D01*
X317250Y-117267D01*
X316250Y-117000D01*
G01X326250Y-125000D02*
Y-117000D01*
X321625Y-122733D01*
X327875D01*
G01X331000Y-125267D02*
X335500Y-117000D01*
G01X341750Y-125000D02*
Y-117000D01*
X340250Y-118600D01*
G01Y-125000D02*
X343250D01*
G01X347875Y-118333D02*
X348625Y-117533D01*
X349500Y-117133D01*
X350500Y-117000D01*
X351750Y-117267D01*
X352625Y-117933D01*
X352875Y-118733D01*
X352750Y-119534D01*
X352250Y-120200D01*
X349750Y-121533D01*
X348625Y-122467D01*
X347875Y-123800D01*
X347625Y-125000D01*
X352875D01*
G01X356500Y-125267D02*
X361000Y-117000D01*
G01X364875Y-118333D02*
X365625Y-117533D01*
X366500Y-117133D01*
X367500Y-117000D01*
X368750Y-117267D01*
X369625Y-117933D01*
X369875Y-118733D01*
X369750Y-119534D01*
X369250Y-120200D01*
X366750Y-121533D01*
X365625Y-122467D01*
X364875Y-123800D01*
X364625Y-125000D01*
X369875D01*
G01X375750Y-117000D02*
X374750Y-117267D01*
X374000Y-117933D01*
X373500Y-118733D01*
X373125Y-119800D01*
X373000Y-121000D01*
X373125Y-122200D01*
X373500Y-123267D01*
X374000Y-124067D01*
X374750Y-124733D01*
X375750Y-125000D01*
X376750Y-124733D01*
X377500Y-124067D01*
X378000Y-123267D01*
X378375Y-122200D01*
X378500Y-121000D01*
X378375Y-119800D01*
X378000Y-118733D01*
X377500Y-117933D01*
X376750Y-117267D01*
X375750Y-117000D01*
G01X384250Y-125000D02*
Y-117000D01*
X382750Y-118600D01*
G01Y-125000D02*
X385750D01*
G01X390375Y-121667D02*
X391250Y-120733D01*
X392000Y-120200D01*
X393000Y-119933D01*
X393875Y-120200D01*
X394500Y-120733D01*
X395000Y-121533D01*
X395125Y-122467D01*
X395000Y-123267D01*
X394500Y-124067D01*
X393750Y-124733D01*
X392875Y-125000D01*
X391875Y-124733D01*
X391000Y-123934D01*
X390500Y-122733D01*
X390375Y-121400D01*
X390625Y-119667D01*
X391000Y-118733D01*
X391625Y-117800D01*
X392500Y-117133D01*
X393375Y-117000D01*
X394250Y-117267D01*
X394875Y-117933D01*
G01X408750Y-125000D02*
Y-117000D01*
X411875D01*
X412875Y-117400D01*
X413500Y-117933D01*
X413750Y-119000D01*
X413500Y-120067D01*
X412750Y-120733D01*
X411875Y-121133D01*
X408750D01*
G01X411875D02*
X413750Y-125000D01*
G01X422250D02*
X417250D01*
Y-117000D01*
X422250D01*
G01X420250Y-120867D02*
X417250D01*
G01X425125Y-117000D02*
X428250Y-125000D01*
X431375Y-117000D01*
G01X436750Y-125267D02*
X436500Y-125133D01*
Y-124867D01*
X436750Y-124733D01*
X437000Y-124867D01*
Y-125133D01*
X436750Y-125267D01*
G01Y-121667D02*
X436500Y-121533D01*
Y-121267D01*
X436750Y-121133D01*
X437000Y-121267D01*
Y-121533D01*
X436750Y-121667D01*
G01X459750Y-125000D02*
Y-117000D01*
X462250D01*
X463250Y-117400D01*
X464000Y-117933D01*
X464625Y-118733D01*
X465125Y-119667D01*
X465250Y-121000D01*
X465125Y-122333D01*
X464625Y-123267D01*
X464000Y-124067D01*
X463250Y-124600D01*
X462250Y-125000D01*
X459750D01*
G54D13*
X174000Y10500D03*
X342000D03*
X375000Y10000D03*
X543000D03*
G54D23*
G01X82810Y264210D02*
X99763D01*
X100063Y264510D01*
X110463D01*
X113088Y261885D01*
X146185D01*
X153500Y269200D01*
X159744D01*
X161536Y267408D01*
X163414D01*
X167312Y263510D01*
X180599D01*
X180827Y263282D01*
Y258928D01*
X181055Y258700D01*
X181376D01*
X181604Y258928D01*
Y263282D01*
X181832Y263510D01*
X182153D01*
X182381Y263282D01*
Y258928D01*
X182609Y258700D01*
X182930D01*
X183158Y258928D01*
Y263282D01*
X183386Y263510D01*
X183707D01*
X183935Y263282D01*
Y258928D01*
X184163Y258700D01*
X184484D01*
X184712Y258928D01*
Y263282D01*
X184940Y263510D01*
X185261D01*
X185489Y263282D01*
Y258928D01*
X185717Y258700D01*
X186038D01*
X186266Y258928D01*
Y263282D01*
X186494Y263510D01*
X186815D01*
X187043Y263282D01*
Y258928D01*
X187271Y258700D01*
X187592D01*
X187820Y258928D01*
Y263282D01*
X188048Y263510D01*
X188369D01*
X188597Y263282D01*
Y258928D01*
X188825Y258700D01*
X189146D01*
X189374Y258928D01*
Y263282D01*
X189602Y263510D01*
X189923D01*
X190151Y263282D01*
Y258928D01*
X190379Y258700D01*
X190700D01*
X190928Y258928D01*
Y263282D01*
X191156Y263510D01*
X191477D01*
X191705Y263282D01*
Y258928D01*
X191933Y258700D01*
X192254D01*
X192482Y258928D01*
Y263282D01*
X192710Y263510D01*
X193031D01*
X193259Y263282D01*
Y258928D01*
X193487Y258700D01*
X193808D01*
X194036Y258928D01*
Y263282D01*
X194264Y263510D01*
X194585D01*
X194813Y263282D01*
Y258928D01*
X195041Y258700D01*
X195362D01*
X195590Y258928D01*
Y263282D01*
X195818Y263510D01*
X196139D01*
X196367Y263282D01*
Y258928D01*
X196595Y258700D01*
X196916D01*
X197144Y258928D01*
Y263282D01*
X197372Y263510D01*
X197693D01*
X197921Y263282D01*
Y258928D01*
X198149Y258700D01*
X198470D01*
X198698Y258928D01*
Y263282D01*
X198926Y263510D01*
X199247D01*
X199475Y263282D01*
Y258928D01*
X199703Y258700D01*
X200024D01*
X200252Y258928D01*
Y263282D01*
X200480Y263510D01*
X200801D01*
X201029Y263282D01*
Y258928D01*
X201257Y258700D01*
X201578D01*
X201806Y258928D01*
Y263282D01*
X202034Y263510D01*
X202355D01*
X202583Y263282D01*
Y258928D01*
X202811Y258700D01*
X203132D01*
X203360Y258928D01*
Y263282D01*
X203588Y263510D01*
X203909D01*
X204137Y263282D01*
Y258928D01*
X204365Y258700D01*
X204686D01*
X204914Y258928D01*
Y263282D01*
X205142Y263510D01*
X205463D01*
X205691Y263282D01*
Y258928D01*
X205919Y258700D01*
X206240D01*
X206468Y258928D01*
Y263282D01*
X206696Y263510D01*
X207843D01*
X218600Y274267D01*
Y275300D01*
X231300Y288000D01*
X279200D01*
X289300Y298100D01*
Y300900D01*
X289795Y301395D01*
X390995D01*
X392654Y303054D01*
Y303503D01*
X393527Y304376D01*
Y305332D01*
X392654Y306205D01*
Y307439D01*
X393527Y308312D01*
X393803D01*
X396251Y310760D01*
X398081D01*
G01X81790Y271290D02*
X82700Y272200D01*
X89100D01*
X93310Y276410D01*
X96410D01*
X101000Y281000D01*
X123233D01*
X123448Y280785D01*
X148385D01*
X151535Y283935D01*
X165158D01*
X165386Y284163D01*
Y285172D01*
X165614Y285400D01*
X165935D01*
X166163Y285172D01*
Y284163D01*
X166391Y283935D01*
X166712D01*
X166940Y284163D01*
Y285172D01*
X167168Y285400D01*
X167489D01*
X167717Y285172D01*
Y284163D01*
X167945Y283935D01*
X168266D01*
X168494Y284163D01*
Y285172D01*
X168722Y285400D01*
X169043D01*
X169271Y285172D01*
Y284163D01*
X169499Y283935D01*
X169820D01*
X170048Y284163D01*
Y285172D01*
X170276Y285400D01*
X170597D01*
X170825Y285172D01*
Y284163D01*
X171053Y283935D01*
X171374D01*
X171602Y284163D01*
Y285172D01*
X171830Y285400D01*
X172151D01*
X172379Y285172D01*
Y284163D01*
X172607Y283935D01*
X172928D01*
X173156Y284163D01*
Y285172D01*
X173384Y285400D01*
X173705D01*
X173933Y285172D01*
Y284163D01*
X174161Y283935D01*
X174482D01*
X174710Y284163D01*
Y285172D01*
X174938Y285400D01*
X175259D01*
X175487Y285172D01*
Y284163D01*
X175715Y283935D01*
X176036D01*
X176264Y284163D01*
Y285172D01*
X176492Y285400D01*
X176813D01*
X177041Y285172D01*
Y284163D01*
X177269Y283935D01*
X177590D01*
X177818Y284163D01*
Y285172D01*
X178046Y285400D01*
X178367D01*
X178595Y285172D01*
Y284163D01*
X178823Y283935D01*
X179144D01*
X179372Y284163D01*
Y285172D01*
X179600Y285400D01*
X179921D01*
X180149Y285172D01*
Y284163D01*
X180377Y283935D01*
X180698D01*
X180926Y284163D01*
Y285172D01*
X181154Y285400D01*
X181475D01*
X181703Y285172D01*
Y284163D01*
X181931Y283935D01*
X182252D01*
X182480Y284163D01*
Y285172D01*
X182708Y285400D01*
X183029D01*
X183257Y285172D01*
Y284163D01*
X183485Y283935D01*
X183806D01*
X184034Y284163D01*
Y285172D01*
X184262Y285400D01*
X184583D01*
X184811Y285172D01*
Y284163D01*
X185039Y283935D01*
X185360D01*
X185588Y284163D01*
Y285172D01*
X185816Y285400D01*
X186137D01*
X186365Y285172D01*
Y284163D01*
X186593Y283935D01*
X186914D01*
X187142Y284163D01*
Y285172D01*
X187370Y285400D01*
X187691D01*
X187919Y285172D01*
Y284163D01*
X188147Y283935D01*
X207035D01*
X208524Y285424D01*
Y285746D01*
X207046Y287224D01*
Y287546D01*
X207274Y287774D01*
X207596D01*
X209074Y286296D01*
X209396D01*
X209624Y286524D01*
Y286846D01*
X208146Y288324D01*
Y288646D01*
X208374Y288874D01*
X208696D01*
X210174Y287396D01*
X210496D01*
X210724Y287624D01*
Y287946D01*
X209246Y289424D01*
Y289746D01*
X209474Y289974D01*
X209796D01*
X211274Y288496D01*
X211596D01*
X211824Y288724D01*
Y289046D01*
X210346Y290524D01*
Y290846D01*
X210574Y291074D01*
X210896D01*
X212374Y289596D01*
X212696D01*
X212924Y289824D01*
Y290146D01*
X211446Y291624D01*
Y291946D01*
X211674Y292174D01*
X211996D01*
X213474Y290696D01*
X213796D01*
X214024Y290924D01*
Y291246D01*
X212546Y292724D01*
Y293046D01*
X212774Y293274D01*
X213096D01*
X214574Y291796D01*
X214896D01*
X215124Y292024D01*
Y292346D01*
X213646Y293824D01*
Y294146D01*
X213874Y294374D01*
X214196D01*
X215674Y292896D01*
X215996D01*
X216224Y293124D01*
Y293446D01*
X214746Y294924D01*
Y295246D01*
X214974Y295474D01*
X215296D01*
X216774Y293996D01*
X217096D01*
X217324Y294224D01*
Y294546D01*
X215846Y296024D01*
Y296346D01*
X216074Y296574D01*
X216396D01*
X217874Y295096D01*
X218196D01*
X218424Y295324D01*
Y295646D01*
X216946Y297124D01*
Y297446D01*
X217174Y297674D01*
X217496D01*
X218974Y296196D01*
X219296D01*
X219524Y296424D01*
Y296746D01*
X218046Y298224D01*
Y298546D01*
X218274Y298774D01*
X218596D01*
X220074Y297296D01*
X220396D01*
X220624Y297524D01*
Y297846D01*
X219146Y299324D01*
Y299646D01*
X219374Y299874D01*
X219696D01*
X221174Y298396D01*
X221496D01*
X221724Y298624D01*
Y298946D01*
X220246Y300424D01*
Y300746D01*
X220474Y300974D01*
X220796D01*
X222274Y299496D01*
X222596D01*
X222824Y299724D01*
Y300046D01*
X221346Y301524D01*
Y301846D01*
X221574Y302074D01*
X221896D01*
X223374Y300596D01*
X223696D01*
X223924Y300824D01*
Y301146D01*
X222446Y302624D01*
Y302946D01*
X222674Y303174D01*
X222996D01*
X224474Y301696D01*
X224796D01*
X225024Y301924D01*
Y302246D01*
X223546Y303724D01*
Y304046D01*
X223774Y304274D01*
X224096D01*
X225574Y302796D01*
X225896D01*
X226124Y303024D01*
Y303346D01*
X224646Y304824D01*
Y305146D01*
X224874Y305374D01*
X225196D01*
X226674Y303896D01*
X226996D01*
X227224Y304124D01*
Y304446D01*
X225746Y305924D01*
Y306246D01*
X225974Y306474D01*
X226296D01*
X227774Y304996D01*
X228096D01*
X228324Y305224D01*
Y305546D01*
X226846Y307024D01*
Y307346D01*
X227074Y307574D01*
X227396D01*
X228874Y306096D01*
X229196D01*
X230600Y307500D01*
X240000D01*
X240228Y307728D01*
Y308772D01*
X240456Y309000D01*
X240777D01*
X241005Y308772D01*
Y307728D01*
X241233Y307500D01*
X241554D01*
X241782Y307728D01*
Y308772D01*
X242010Y309000D01*
X242331D01*
X242559Y308772D01*
Y307728D01*
X242787Y307500D01*
X243108D01*
X243336Y307728D01*
Y308772D01*
X243564Y309000D01*
X243885D01*
X244113Y308772D01*
Y307728D01*
X244341Y307500D01*
X244662D01*
X244890Y307728D01*
Y308772D01*
X245118Y309000D01*
X245439D01*
X245667Y308772D01*
Y307728D01*
X245895Y307500D01*
X246216D01*
X246444Y307728D01*
Y308772D01*
X246672Y309000D01*
X246993D01*
X247221Y308772D01*
Y307728D01*
X247449Y307500D01*
X247770D01*
X247998Y307728D01*
Y308772D01*
X248226Y309000D01*
X248547D01*
X248775Y308772D01*
Y307728D01*
X249003Y307500D01*
X249324D01*
X249552Y307728D01*
Y308772D01*
X249780Y309000D01*
X250101D01*
X250329Y308772D01*
Y307728D01*
X250557Y307500D01*
X250878D01*
X251106Y307728D01*
Y308772D01*
X251334Y309000D01*
X251655D01*
X251883Y308772D01*
Y307728D01*
X252111Y307500D01*
X252432D01*
X252660Y307728D01*
Y308772D01*
X252888Y309000D01*
X253209D01*
X253437Y308772D01*
Y307728D01*
X253665Y307500D01*
X253986D01*
X254214Y307728D01*
Y308772D01*
X254442Y309000D01*
X254763D01*
X254991Y308772D01*
Y307728D01*
X255219Y307500D01*
X255540D01*
X255768Y307728D01*
Y308772D01*
X255996Y309000D01*
X256317D01*
X256545Y308772D01*
Y307728D01*
X256773Y307500D01*
X257094D01*
X257322Y307728D01*
Y308772D01*
X257550Y309000D01*
X257871D01*
X258099Y308772D01*
Y307728D01*
X258327Y307500D01*
X258648D01*
X258876Y307728D01*
Y308772D01*
X259104Y309000D01*
X259425D01*
X259653Y308772D01*
Y307728D01*
X259881Y307500D01*
X260202D01*
X260430Y307728D01*
Y308772D01*
X260658Y309000D01*
X260979D01*
X261207Y308772D01*
Y307728D01*
X261435Y307500D01*
X261756D01*
X261984Y307728D01*
Y308772D01*
X262212Y309000D01*
X262533D01*
X262761Y308772D01*
Y307728D01*
X262989Y307500D01*
X263310D01*
X263538Y307728D01*
Y308772D01*
X263766Y309000D01*
X264087D01*
X264315Y308772D01*
Y307728D01*
X264543Y307500D01*
X264864D01*
X265092Y307728D01*
Y308772D01*
X265320Y309000D01*
X265641D01*
X265869Y308772D01*
Y307728D01*
X266097Y307500D01*
X266418D01*
X266646Y307728D01*
Y308772D01*
X266874Y309000D01*
X267195D01*
X267423Y308772D01*
Y307728D01*
X267651Y307500D01*
X267972D01*
X268200Y307728D01*
Y308772D01*
X268428Y309000D01*
X268749D01*
X268977Y308772D01*
Y307728D01*
X269205Y307500D01*
X269526D01*
X269754Y307728D01*
Y308772D01*
X269982Y309000D01*
X270303D01*
X270531Y308772D01*
Y307728D01*
X270759Y307500D01*
X271080D01*
X271308Y307728D01*
Y308772D01*
X271536Y309000D01*
X271857D01*
X272085Y308772D01*
Y307728D01*
X272313Y307500D01*
X272634D01*
X272862Y307728D01*
Y308772D01*
X273090Y309000D01*
X273411D01*
X273639Y308772D01*
Y307728D01*
X273867Y307500D01*
X275500D01*
X284186Y316186D01*
X385114D01*
X386270Y315030D01*
Y314696D01*
G01X84440Y280740D02*
X95940D01*
X104300Y289100D01*
X113993D01*
X115183Y290290D01*
X122067D01*
X123257Y289100D01*
X153700D01*
X157815Y293215D01*
X167593D01*
X167821Y293443D01*
Y298072D01*
X168049Y298300D01*
X168370D01*
X168598Y298072D01*
Y293443D01*
X168826Y293215D01*
X169147D01*
X169375Y293443D01*
Y298072D01*
X169603Y298300D01*
X169924D01*
X170152Y298072D01*
Y293443D01*
X170380Y293215D01*
X170701D01*
X170929Y293443D01*
Y298072D01*
X171157Y298300D01*
X171478D01*
X171706Y298072D01*
Y293443D01*
X171934Y293215D01*
X172255D01*
X172483Y293443D01*
Y298072D01*
X172711Y298300D01*
X173032D01*
X173260Y298072D01*
Y293443D01*
X173488Y293215D01*
X173809D01*
X174037Y293443D01*
Y298072D01*
X174265Y298300D01*
X174586D01*
X174814Y298072D01*
Y293443D01*
X175042Y293215D01*
X175363D01*
X175591Y293443D01*
Y298072D01*
X175819Y298300D01*
X176140D01*
X176368Y298072D01*
Y293443D01*
X176596Y293215D01*
X176917D01*
X177145Y293443D01*
Y298072D01*
X177373Y298300D01*
X177694D01*
X177922Y298072D01*
Y293443D01*
X178150Y293215D01*
X178471D01*
X178699Y293443D01*
Y298072D01*
X178927Y298300D01*
X179248D01*
X179476Y298072D01*
Y293443D01*
X179704Y293215D01*
X180025D01*
X180253Y293443D01*
Y298072D01*
X180481Y298300D01*
X180802D01*
X181030Y298072D01*
Y293443D01*
X181258Y293215D01*
X181579D01*
X181807Y293443D01*
Y298072D01*
X182035Y298300D01*
X182356D01*
X182584Y298072D01*
Y293443D01*
X182812Y293215D01*
X183133D01*
X183361Y293443D01*
Y298072D01*
X183589Y298300D01*
X183910D01*
X184138Y298072D01*
Y293443D01*
X184366Y293215D01*
X184687D01*
X184915Y293443D01*
Y298072D01*
X185143Y298300D01*
X185464D01*
X185692Y298072D01*
Y293443D01*
X185920Y293215D01*
X186241D01*
X186469Y293443D01*
Y298072D01*
X186697Y298300D01*
X187018D01*
X187246Y298072D01*
Y293443D01*
X187474Y293215D01*
X187795D01*
X188023Y293443D01*
Y298072D01*
X188251Y298300D01*
X188572D01*
X188800Y298072D01*
Y293443D01*
X189028Y293215D01*
X189349D01*
X189577Y293443D01*
Y298072D01*
X189805Y298300D01*
X190126D01*
X190354Y298072D01*
Y293443D01*
X190582Y293215D01*
X190903D01*
X191131Y293443D01*
Y298072D01*
X191359Y298300D01*
X191680D01*
X191908Y298072D01*
Y293443D01*
X192136Y293215D01*
X192457D01*
X192685Y293443D01*
Y298072D01*
X192913Y298300D01*
X193234D01*
X193462Y298072D01*
Y293443D01*
X193690Y293215D01*
X204715D01*
X225000Y313500D01*
X276000D01*
X283401Y320901D01*
X397922D01*
X400189Y318634D01*
X402018D01*
G01X386270Y310760D02*
X384442D01*
X382951Y309269D01*
X291142D01*
X291134Y309277D01*
X282977D01*
X282353Y308653D01*
Y308331D01*
X284231Y306453D01*
Y306131D01*
X284003Y305903D01*
X283681D01*
X281803Y307781D01*
X281481D01*
X281253Y307553D01*
Y307231D01*
X283131Y305353D01*
Y305031D01*
X282903Y304803D01*
X282581D01*
X280703Y306681D01*
X280381D01*
X280153Y306453D01*
Y306131D01*
X282031Y304253D01*
Y303931D01*
X281803Y303703D01*
X281481D01*
X279603Y305581D01*
X279281D01*
X279053Y305353D01*
Y305031D01*
X280931Y303153D01*
Y302831D01*
X280703Y302603D01*
X280381D01*
X278503Y304481D01*
X278181D01*
X277953Y304253D01*
Y303931D01*
X279831Y302053D01*
Y301731D01*
X279603Y301503D01*
X279281D01*
X277403Y303381D01*
X277081D01*
X273900Y300200D01*
X271780D01*
X271552Y300428D01*
Y301072D01*
X271324Y301300D01*
X271003D01*
X270775Y301072D01*
Y300428D01*
X270547Y300200D01*
X270226D01*
X269998Y300428D01*
Y301072D01*
X269770Y301300D01*
X269449D01*
X269221Y301072D01*
Y300428D01*
X268993Y300200D01*
X268672D01*
X268444Y300428D01*
Y301072D01*
X268216Y301300D01*
X267895D01*
X267667Y301072D01*
Y300428D01*
X267439Y300200D01*
X267118D01*
X266890Y300428D01*
Y301072D01*
X266662Y301300D01*
X266341D01*
X266113Y301072D01*
Y300428D01*
X265885Y300200D01*
X265564D01*
X265336Y300428D01*
Y301072D01*
X265108Y301300D01*
X264787D01*
X264559Y301072D01*
Y300428D01*
X264331Y300200D01*
X264010D01*
X263782Y300428D01*
Y301072D01*
X263554Y301300D01*
X263233D01*
X263005Y301072D01*
Y300428D01*
X262777Y300200D01*
X262456D01*
X262228Y300428D01*
Y301072D01*
X262000Y301300D01*
X261679D01*
X261451Y301072D01*
Y300428D01*
X261223Y300200D01*
X260902D01*
X260674Y300428D01*
Y301072D01*
X260446Y301300D01*
X260125D01*
X259897Y301072D01*
Y300428D01*
X259669Y300200D01*
X259348D01*
X259120Y300428D01*
Y301072D01*
X258892Y301300D01*
X258571D01*
X258343Y301072D01*
Y300428D01*
X258115Y300200D01*
X257794D01*
X257566Y300428D01*
Y301072D01*
X257338Y301300D01*
X257017D01*
X256789Y301072D01*
Y300428D01*
X256561Y300200D01*
X256240D01*
X256012Y300428D01*
Y301072D01*
X255784Y301300D01*
X255463D01*
X255235Y301072D01*
Y300428D01*
X255007Y300200D01*
X254686D01*
X254458Y300428D01*
Y301072D01*
X254230Y301300D01*
X253909D01*
X253681Y301072D01*
Y300428D01*
X253453Y300200D01*
X253132D01*
X252904Y300428D01*
Y301072D01*
X252676Y301300D01*
X252355D01*
X252127Y301072D01*
Y300428D01*
X251899Y300200D01*
X251578D01*
X251350Y300428D01*
Y301072D01*
X251122Y301300D01*
X250801D01*
X250573Y301072D01*
Y300428D01*
X250345Y300200D01*
X250024D01*
X249796Y300428D01*
Y301072D01*
X249568Y301300D01*
X249247D01*
X249019Y301072D01*
Y300428D01*
X248791Y300200D01*
X248470D01*
X248242Y300428D01*
Y301072D01*
X248014Y301300D01*
X247693D01*
X247465Y301072D01*
Y300428D01*
X247237Y300200D01*
X246916D01*
X246688Y300428D01*
Y301072D01*
X246460Y301300D01*
X246139D01*
X245911Y301072D01*
Y300428D01*
X245683Y300200D01*
X245362D01*
X245134Y300428D01*
Y301072D01*
X244906Y301300D01*
X244585D01*
X244357Y301072D01*
Y300428D01*
X244129Y300200D01*
X243808D01*
X243580Y300428D01*
Y301072D01*
X243352Y301300D01*
X243031D01*
X242803Y301072D01*
Y300428D01*
X242575Y300200D01*
X242254D01*
X242026Y300428D01*
Y301072D01*
X241798Y301300D01*
X241477D01*
X241249Y301072D01*
Y300428D01*
X241021Y300200D01*
X240700D01*
X240472Y300428D01*
Y301072D01*
X240244Y301300D01*
X239923D01*
X239695Y301072D01*
Y300428D01*
X239467Y300200D01*
X239146D01*
X238918Y300428D01*
Y301072D01*
X238690Y301300D01*
X238369D01*
X238141Y301072D01*
Y300428D01*
X237913Y300200D01*
X236100D01*
X213400Y277500D01*
X211549D01*
X211321Y277728D01*
Y279272D01*
X211093Y279500D01*
X210772D01*
X210544Y279272D01*
Y277728D01*
X210316Y277500D01*
X209995D01*
X209767Y277728D01*
Y279272D01*
X209539Y279500D01*
X209218D01*
X208990Y279272D01*
Y277728D01*
X208762Y277500D01*
X208441D01*
X208213Y277728D01*
Y279272D01*
X207985Y279500D01*
X207664D01*
X207436Y279272D01*
Y277728D01*
X207208Y277500D01*
X206887D01*
X206659Y277728D01*
Y279272D01*
X206431Y279500D01*
X206110D01*
X205882Y279272D01*
Y277728D01*
X205654Y277500D01*
X205333D01*
X205105Y277728D01*
Y279272D01*
X204877Y279500D01*
X204556D01*
X204328Y279272D01*
Y277728D01*
X204100Y277500D01*
X203779D01*
X203551Y277728D01*
Y279272D01*
X203323Y279500D01*
X203002D01*
X202774Y279272D01*
Y277728D01*
X202546Y277500D01*
X202225D01*
X201997Y277728D01*
Y279272D01*
X201769Y279500D01*
X201448D01*
X201220Y279272D01*
Y277728D01*
X200992Y277500D01*
X200671D01*
X200443Y277728D01*
Y279272D01*
X200215Y279500D01*
X199894D01*
X199666Y279272D01*
Y277728D01*
X199438Y277500D01*
X199117D01*
X198889Y277728D01*
Y279272D01*
X198661Y279500D01*
X198340D01*
X198112Y279272D01*
Y277728D01*
X197884Y277500D01*
X197563D01*
X197335Y277728D01*
Y279272D01*
X197107Y279500D01*
X196786D01*
X196558Y279272D01*
Y277728D01*
X196330Y277500D01*
X196009D01*
X195781Y277728D01*
Y279272D01*
X195553Y279500D01*
X195232D01*
X195004Y279272D01*
Y277728D01*
X194776Y277500D01*
X194455D01*
X194227Y277728D01*
Y279272D01*
X193999Y279500D01*
X193678D01*
X193450Y279272D01*
Y277728D01*
X193222Y277500D01*
X192901D01*
X192673Y277728D01*
Y279272D01*
X192445Y279500D01*
X192124D01*
X191896Y279272D01*
Y277728D01*
X191668Y277500D01*
X191347D01*
X191119Y277728D01*
Y279272D01*
X190891Y279500D01*
X190570D01*
X190342Y279272D01*
Y277728D01*
X190114Y277500D01*
X189793D01*
X189565Y277728D01*
Y279272D01*
X189337Y279500D01*
X189016D01*
X188788Y279272D01*
Y277728D01*
X188560Y277500D01*
X188239D01*
X188011Y277728D01*
Y279272D01*
X187783Y279500D01*
X187462D01*
X187234Y279272D01*
Y277728D01*
X187006Y277500D01*
X186685D01*
X186457Y277728D01*
Y279272D01*
X186229Y279500D01*
X185908D01*
X185680Y279272D01*
Y277728D01*
X185452Y277500D01*
X185131D01*
X184903Y277728D01*
Y279272D01*
X184675Y279500D01*
X184354D01*
X184126Y279272D01*
Y277728D01*
X183898Y277500D01*
X183577D01*
X183349Y277728D01*
Y279272D01*
X183121Y279500D01*
X182800D01*
X182572Y279272D01*
Y277728D01*
X182344Y277500D01*
X182023D01*
X181795Y277728D01*
Y279272D01*
X181567Y279500D01*
X181246D01*
X181018Y279272D01*
Y277728D01*
X180790Y277500D01*
X180469D01*
X180241Y277728D01*
Y279272D01*
X180013Y279500D01*
X179692D01*
X179464Y279272D01*
Y277728D01*
X179236Y277500D01*
X178915D01*
X178687Y277728D01*
Y279272D01*
X178459Y279500D01*
X178138D01*
X177910Y279272D01*
Y277728D01*
X177682Y277500D01*
X177361D01*
X177133Y277728D01*
Y279272D01*
X176905Y279500D01*
X176584D01*
X176356Y279272D01*
Y277728D01*
X176128Y277500D01*
X175807D01*
X175579Y277728D01*
Y279272D01*
X175351Y279500D01*
X175030D01*
X174802Y279272D01*
Y277728D01*
X174574Y277500D01*
X174253D01*
X174025Y277728D01*
Y279272D01*
X173797Y279500D01*
X173476D01*
X173248Y279272D01*
Y277728D01*
X173020Y277500D01*
X172699D01*
X172471Y277728D01*
Y279272D01*
X172243Y279500D01*
X171922D01*
X171694Y279272D01*
Y277728D01*
X171466Y277500D01*
X171145D01*
X170917Y277728D01*
Y279272D01*
X170689Y279500D01*
X170368D01*
X170140Y279272D01*
Y277728D01*
X169912Y277500D01*
X169591D01*
X169363Y277728D01*
Y279272D01*
X169135Y279500D01*
X168814D01*
X168586Y279272D01*
Y277728D01*
X168358Y277500D01*
X157200D01*
X154185Y274485D01*
X143949D01*
X143721Y274713D01*
Y275372D01*
X143493Y275600D01*
X143172D01*
X142944Y275372D01*
Y274713D01*
X142716Y274485D01*
X142395D01*
X142167Y274713D01*
Y275372D01*
X141939Y275600D01*
X141618D01*
X141390Y275372D01*
Y274713D01*
X141162Y274485D01*
X115278D01*
X110033Y269240D01*
X98740D01*
X96940Y267440D01*
X81960D01*
X77910Y271490D01*
Y275017D01*
X78783Y275890D01*
Y276700D01*
X80463Y278380D01*
X82120D01*
G01X80070Y266570D02*
X99723D01*
X100093Y266200D01*
X110393D01*
X111073Y266880D01*
X112307D01*
X112617Y266570D01*
X119670D01*
X122400Y269300D01*
X133643D01*
X134843Y268100D01*
X140823D01*
X143792Y271069D01*
Y271117D01*
X143840Y271165D01*
X161965D01*
X162310Y271510D01*
X172809D01*
X173037Y271282D01*
Y269328D01*
X173265Y269100D01*
X173586D01*
X173814Y269328D01*
Y271282D01*
X174042Y271510D01*
X174363D01*
X174591Y271282D01*
Y269328D01*
X174819Y269100D01*
X175140D01*
X175368Y269328D01*
Y271282D01*
X175596Y271510D01*
X175917D01*
X176145Y271282D01*
Y269328D01*
X176373Y269100D01*
X176694D01*
X176922Y269328D01*
Y271282D01*
X177150Y271510D01*
X177471D01*
X177699Y271282D01*
Y269328D01*
X177927Y269100D01*
X178248D01*
X178476Y269328D01*
Y271282D01*
X178704Y271510D01*
X179025D01*
X179253Y271282D01*
Y269328D01*
X179481Y269100D01*
X179802D01*
X180030Y269328D01*
Y271282D01*
X180258Y271510D01*
X180579D01*
X180807Y271282D01*
Y269328D01*
X181035Y269100D01*
X181356D01*
X181584Y269328D01*
Y271282D01*
X181812Y271510D01*
X209710D01*
X213100Y274900D01*
X215500D01*
X235100Y294500D01*
X242504D01*
X242732Y294728D01*
Y297872D01*
X242960Y298100D01*
X243281D01*
X243509Y297872D01*
Y294728D01*
X243737Y294500D01*
X244058D01*
X244286Y294728D01*
Y297872D01*
X244514Y298100D01*
X244835D01*
X245063Y297872D01*
Y294728D01*
X245291Y294500D01*
X245612D01*
X245840Y294728D01*
Y297872D01*
X246068Y298100D01*
X246389D01*
X246617Y297872D01*
Y294728D01*
X246845Y294500D01*
X247166D01*
X247394Y294728D01*
Y297872D01*
X247622Y298100D01*
X247943D01*
X248171Y297872D01*
Y294728D01*
X248399Y294500D01*
X248720D01*
X248948Y294728D01*
Y297872D01*
X249176Y298100D01*
X249497D01*
X249725Y297872D01*
Y294728D01*
X249953Y294500D01*
X250274D01*
X250502Y294728D01*
Y297872D01*
X250730Y298100D01*
X251051D01*
X251279Y297872D01*
Y294728D01*
X251507Y294500D01*
X251828D01*
X252056Y294728D01*
Y297872D01*
X252284Y298100D01*
X252605D01*
X252833Y297872D01*
Y294728D01*
X253061Y294500D01*
X253382D01*
X253610Y294728D01*
Y297872D01*
X253838Y298100D01*
X254159D01*
X254387Y297872D01*
Y294728D01*
X254615Y294500D01*
X254936D01*
X255164Y294728D01*
Y297872D01*
X255392Y298100D01*
X255713D01*
X255941Y297872D01*
Y294728D01*
X256169Y294500D01*
X256490D01*
X256718Y294728D01*
Y297872D01*
X256946Y298100D01*
X257267D01*
X257495Y297872D01*
Y294728D01*
X257723Y294500D01*
X258044D01*
X258272Y294728D01*
Y297872D01*
X258500Y298100D01*
X258821D01*
X259049Y297872D01*
Y294728D01*
X259277Y294500D01*
X259598D01*
X259826Y294728D01*
Y297872D01*
X260054Y298100D01*
X260375D01*
X260603Y297872D01*
Y294728D01*
X260831Y294500D01*
X261152D01*
X261380Y294728D01*
Y297872D01*
X261608Y298100D01*
X261929D01*
X262157Y297872D01*
Y294728D01*
X262385Y294500D01*
X262706D01*
X262934Y294728D01*
Y297872D01*
X263162Y298100D01*
X263483D01*
X263711Y297872D01*
Y294728D01*
X263939Y294500D01*
X264260D01*
X264488Y294728D01*
Y297872D01*
X264716Y298100D01*
X265037D01*
X265265Y297872D01*
Y294728D01*
X265493Y294500D01*
X265814D01*
X266042Y294728D01*
Y297872D01*
X266270Y298100D01*
X266591D01*
X266819Y297872D01*
Y294728D01*
X267047Y294500D01*
X267368D01*
X267596Y294728D01*
Y297872D01*
X267824Y298100D01*
X268145D01*
X268373Y297872D01*
Y294728D01*
X268601Y294500D01*
X268922D01*
X269150Y294728D01*
Y297872D01*
X269378Y298100D01*
X269699D01*
X269927Y297872D01*
Y294728D01*
X270155Y294500D01*
X270476D01*
X270704Y294728D01*
Y297872D01*
X270932Y298100D01*
X271253D01*
X271481Y297872D01*
Y294728D01*
X271709Y294500D01*
X272030D01*
X272258Y294728D01*
Y297872D01*
X272486Y298100D01*
X272807D01*
X273035Y297872D01*
Y294728D01*
X273263Y294500D01*
X273584D01*
X273812Y294728D01*
Y297872D01*
X274040Y298100D01*
X274361D01*
X274589Y297872D01*
Y294728D01*
X274817Y294500D01*
X275138D01*
X275366Y294728D01*
Y297872D01*
X275594Y298100D01*
X275915D01*
X276143Y297872D01*
Y294728D01*
X276371Y294500D01*
X276692D01*
X276920Y294728D01*
Y297872D01*
X277148Y298100D01*
X277469D01*
X277697Y297872D01*
Y294728D01*
X277925Y294500D01*
X281000D01*
X285300Y298800D01*
Y301700D01*
X288932Y305332D01*
X382951D01*
X384441Y306822D01*
X386270D01*
G01X99530Y274830D02*
X99505Y274839D01*
X99109Y275235D01*
X94235D01*
X92600Y273600D01*
Y271900D01*
X94200Y270300D01*
X106700D01*
X113600Y277200D01*
X122400D01*
X124100Y278900D01*
X160000D01*
X161600Y280500D01*
X162668D01*
X162783Y280615D01*
X164017D01*
X164132Y280500D01*
X211300D01*
X214790Y283990D01*
Y285138D01*
X213526Y286402D01*
Y286724D01*
X213754Y286952D01*
X214076D01*
X217339Y283689D01*
X218487D01*
X219302Y284504D01*
Y285652D01*
X216039Y288915D01*
Y289237D01*
X216267Y289465D01*
X216589D01*
X219852Y286202D01*
X221000D01*
X221815Y287017D01*
Y288165D01*
X218552Y291428D01*
Y291750D01*
X218780Y291978D01*
X219102D01*
X222365Y288715D01*
X223513D01*
X224328Y289530D01*
Y290678D01*
X221065Y293941D01*
Y294263D01*
X221293Y294491D01*
X221615D01*
X224878Y291228D01*
X226026D01*
X226841Y292043D01*
Y293191D01*
X223578Y296454D01*
Y296776D01*
X223806Y297004D01*
X224128D01*
X227391Y293741D01*
X228539D01*
X229354Y294556D01*
Y295704D01*
X226091Y298967D01*
Y299289D01*
X226319Y299517D01*
X226641D01*
X229904Y296254D01*
X231052D01*
X231867Y297069D01*
Y298217D01*
X228604Y301480D01*
Y301802D01*
X228832Y302030D01*
X229154D01*
X232417Y298767D01*
X233565D01*
X234380Y299582D01*
Y300730D01*
X233116Y301994D01*
Y302316D01*
X234701Y303901D01*
X237774D01*
X238002Y303673D01*
Y302913D01*
X238815Y302100D01*
X239964D01*
X240777Y302913D01*
Y305474D01*
X241005Y305702D01*
X241326D01*
X241554Y305474D01*
Y302913D01*
X242367Y302100D01*
X243516D01*
X244329Y302913D01*
Y305474D01*
X244557Y305702D01*
X244878D01*
X245106Y305474D01*
Y302913D01*
X245919Y302100D01*
X247068D01*
X247881Y302913D01*
Y305474D01*
X248109Y305702D01*
X248430D01*
X248658Y305474D01*
Y302913D01*
X249471Y302100D01*
X250620D01*
X251433Y302913D01*
Y305474D01*
X251661Y305702D01*
X251982D01*
X252210Y305474D01*
Y302913D01*
X253023Y302100D01*
X254172D01*
X254985Y302913D01*
Y305474D01*
X255213Y305702D01*
X255534D01*
X255762Y305474D01*
Y302913D01*
X256575Y302100D01*
X257724D01*
X258537Y302913D01*
Y305474D01*
X258765Y305702D01*
X259086D01*
X259314Y305474D01*
Y302913D01*
X260127Y302100D01*
X261276D01*
X262089Y302913D01*
Y305474D01*
X262317Y305702D01*
X262638D01*
X262866Y305474D01*
Y302913D01*
X263679Y302100D01*
X264828D01*
X265641Y302913D01*
Y305474D01*
X265869Y305702D01*
X266190D01*
X266418Y305474D01*
Y302913D01*
X267231Y302100D01*
X268380D01*
X269193Y302913D01*
Y303673D01*
X269421Y303901D01*
X270878D01*
X271691Y304714D01*
Y305373D01*
X271919Y305601D01*
X272240D01*
X272468Y305373D01*
Y304714D01*
X273281Y303901D01*
X275201D01*
X283701Y312401D01*
X403331D01*
X404466Y313536D01*
Y323664D01*
X403231Y324899D01*
X397583D01*
X396591Y325891D01*
Y342872D01*
X397465Y343746D01*
X400528D01*
X402018Y342256D01*
G01X98670Y272470D02*
X98215Y272636D01*
X96950Y273901D01*
X96032Y274236D01*
X94649D01*
X93599Y273186D01*
Y272314D01*
X94614Y271299D01*
X106286D01*
X113186Y278199D01*
X121986D01*
X123686Y279899D01*
X159586D01*
X161186Y281499D01*
X162254D01*
X162369Y281614D01*
X164431D01*
X164546Y281499D01*
X210886D01*
X213791Y284404D01*
Y284724D01*
X212527Y285988D01*
Y287138D01*
X213340Y287951D01*
X214490D01*
X217753Y284688D01*
X218073D01*
X218303Y284918D01*
Y285238D01*
X215040Y288501D01*
Y289651D01*
X215853Y290464D01*
X217003D01*
X220266Y287201D01*
X220586D01*
X220816Y287431D01*
Y287751D01*
X217553Y291014D01*
Y292164D01*
X218366Y292977D01*
X219516D01*
X222779Y289714D01*
X223099D01*
X223329Y289944D01*
Y290264D01*
X220066Y293527D01*
Y294677D01*
X220879Y295490D01*
X222029D01*
X225292Y292227D01*
X225612D01*
X225842Y292457D01*
Y292777D01*
X222579Y296040D01*
Y297190D01*
X223392Y298003D01*
X224542D01*
X227805Y294740D01*
X228125D01*
X228355Y294970D01*
Y295290D01*
X225092Y298553D01*
Y299703D01*
X225905Y300516D01*
X227055D01*
X230318Y297253D01*
X230638D01*
X230868Y297483D01*
Y297803D01*
X227605Y301066D01*
Y302216D01*
X228418Y303029D01*
X229568D01*
X232831Y299766D01*
X233151D01*
X233381Y299996D01*
Y300316D01*
X232117Y301580D01*
Y302730D01*
X234287Y304900D01*
X238188D01*
X239001Y304087D01*
Y303327D01*
X239229Y303099D01*
X239550D01*
X239778Y303327D01*
Y305888D01*
X240591Y306701D01*
X241740D01*
X242553Y305888D01*
Y303327D01*
X242781Y303099D01*
X243102D01*
X243330Y303327D01*
Y305888D01*
X244143Y306701D01*
X245292D01*
X246105Y305888D01*
Y303327D01*
X246333Y303099D01*
X246654D01*
X246882Y303327D01*
Y305888D01*
X247695Y306701D01*
X248844D01*
X249657Y305888D01*
Y303327D01*
X249885Y303099D01*
X250206D01*
X250434Y303327D01*
Y305888D01*
X251247Y306701D01*
X252396D01*
X253209Y305888D01*
Y303327D01*
X253437Y303099D01*
X253758D01*
X253986Y303327D01*
Y305888D01*
X254799Y306701D01*
X255948D01*
X256761Y305888D01*
Y303327D01*
X256989Y303099D01*
X257310D01*
X257538Y303327D01*
Y305888D01*
X258351Y306701D01*
X259500D01*
X260313Y305888D01*
Y303327D01*
X260541Y303099D01*
X260862D01*
X261090Y303327D01*
Y305888D01*
X261903Y306701D01*
X263052D01*
X263865Y305888D01*
Y303327D01*
X264093Y303099D01*
X264414D01*
X264642Y303327D01*
Y305888D01*
X265455Y306701D01*
X266604D01*
X267417Y305888D01*
Y303327D01*
X267645Y303099D01*
X267966D01*
X268194Y303327D01*
Y304087D01*
X269007Y304900D01*
X270464D01*
X270692Y305128D01*
Y305787D01*
X271505Y306600D01*
X272654D01*
X273467Y305787D01*
Y305128D01*
X273695Y304900D01*
X274787D01*
X282994Y313108D01*
X283086Y313200D01*
X403000D01*
X403667Y313867D01*
Y323333D01*
X402900Y324100D01*
X397252D01*
X395792Y325560D01*
Y343203D01*
X397134Y344545D01*
X400370D01*
X402018Y346193D01*
G01X100650Y267750D02*
X116850D01*
X120100Y271000D01*
X126486D01*
X126714Y271228D01*
Y273272D01*
X126942Y273500D01*
X127263D01*
X127491Y273272D01*
Y271228D01*
X127719Y271000D01*
X128040D01*
X128268Y271228D01*
Y273272D01*
X128496Y273500D01*
X128817D01*
X129045Y273272D01*
Y271228D01*
X129273Y271000D01*
X129594D01*
X129822Y271228D01*
Y273272D01*
X130050Y273500D01*
X130371D01*
X130599Y273272D01*
Y271228D01*
X130827Y271000D01*
X133100D01*
X135300Y273200D01*
X145892D01*
X146120Y272972D01*
Y272828D01*
X146348Y272600D01*
X146669D01*
X146897Y272828D01*
Y272972D01*
X147125Y273200D01*
X147446D01*
X147674Y272972D01*
Y272828D01*
X147902Y272600D01*
X148223D01*
X148451Y272828D01*
Y272972D01*
X148679Y273200D01*
X149000D01*
X149228Y272972D01*
Y272828D01*
X149456Y272600D01*
X149777D01*
X150005Y272828D01*
Y272972D01*
X150233Y273200D01*
X150554D01*
X150782Y272972D01*
Y272828D01*
X151010Y272600D01*
X151331D01*
X151559Y272828D01*
Y272972D01*
X151787Y273200D01*
X157600D01*
X158885Y274485D01*
X167485D01*
X169500Y276500D01*
X173157D01*
X173385Y276272D01*
Y272728D01*
X173613Y272500D01*
X173934D01*
X174162Y272728D01*
Y276272D01*
X174390Y276500D01*
X174711D01*
X174939Y276272D01*
Y272728D01*
X175167Y272500D01*
X175488D01*
X175716Y272728D01*
Y276272D01*
X175944Y276500D01*
X176265D01*
X176493Y276272D01*
Y272728D01*
X176721Y272500D01*
X177042D01*
X177270Y272728D01*
Y276272D01*
X177498Y276500D01*
X177819D01*
X178047Y276272D01*
Y272728D01*
X178275Y272500D01*
X178596D01*
X178824Y272728D01*
Y276272D01*
X179052Y276500D01*
X179373D01*
X179601Y276272D01*
Y272728D01*
X179829Y272500D01*
X180150D01*
X180378Y272728D01*
Y276272D01*
X180606Y276500D01*
X180927D01*
X181155Y276272D01*
Y272728D01*
X181383Y272500D01*
X181704D01*
X181932Y272728D01*
Y276272D01*
X182160Y276500D01*
X182481D01*
X182709Y276272D01*
Y272728D01*
X182937Y272500D01*
X183258D01*
X183486Y272728D01*
Y276272D01*
X183714Y276500D01*
X184035D01*
X184263Y276272D01*
Y272728D01*
X184491Y272500D01*
X184812D01*
X185040Y272728D01*
Y276272D01*
X185268Y276500D01*
X185589D01*
X185817Y276272D01*
Y272728D01*
X186045Y272500D01*
X186366D01*
X186594Y272728D01*
Y276272D01*
X186822Y276500D01*
X187143D01*
X187371Y276272D01*
Y272728D01*
X187599Y272500D01*
X187920D01*
X188148Y272728D01*
Y276272D01*
X188376Y276500D01*
X188697D01*
X188925Y276272D01*
Y272728D01*
X189153Y272500D01*
X189474D01*
X189702Y272728D01*
Y276272D01*
X189930Y276500D01*
X190251D01*
X190479Y276272D01*
Y272728D01*
X190707Y272500D01*
X191028D01*
X191256Y272728D01*
Y276272D01*
X191484Y276500D01*
X191805D01*
X192033Y276272D01*
Y272728D01*
X192261Y272500D01*
X192582D01*
X192810Y272728D01*
Y276272D01*
X193038Y276500D01*
X193359D01*
X193587Y276272D01*
Y272728D01*
X193815Y272500D01*
X194136D01*
X194364Y272728D01*
Y276272D01*
X194592Y276500D01*
X194913D01*
X195141Y276272D01*
Y272728D01*
X195369Y272500D01*
X195690D01*
X195918Y272728D01*
Y276272D01*
X196146Y276500D01*
X196467D01*
X196695Y276272D01*
Y272728D01*
X196923Y272500D01*
X197244D01*
X197472Y272728D01*
Y276272D01*
X197700Y276500D01*
X198021D01*
X198249Y276272D01*
Y272728D01*
X198477Y272500D01*
X198798D01*
X199026Y272728D01*
Y276272D01*
X199254Y276500D01*
X203490D01*
X203718Y276272D01*
Y272528D01*
X203946Y272300D01*
X204267D01*
X204495Y272528D01*
Y276272D01*
X204723Y276500D01*
X205044D01*
X205272Y276272D01*
Y272528D01*
X205500Y272300D01*
X205821D01*
X206049Y272528D01*
Y276272D01*
X206277Y276500D01*
X206598D01*
X206826Y276272D01*
Y272528D01*
X207054Y272300D01*
X207375D01*
X207603Y272528D01*
Y276272D01*
X207831Y276500D01*
X208152D01*
X208380Y276272D01*
Y272528D01*
X208608Y272300D01*
X208929D01*
X209157Y272528D01*
Y276272D01*
X209385Y276500D01*
X215100D01*
X216326Y277726D01*
Y278048D01*
X215998Y278376D01*
Y278698D01*
X216226Y278926D01*
X216548D01*
X216876Y278598D01*
X217198D01*
X217426Y278826D01*
Y279148D01*
X217098Y279476D01*
Y279798D01*
X217326Y280026D01*
X217648D01*
X217976Y279698D01*
X218298D01*
X218526Y279926D01*
Y280248D01*
X218198Y280576D01*
Y280898D01*
X218426Y281126D01*
X218748D01*
X219076Y280798D01*
X219398D01*
X219626Y281026D01*
Y281348D01*
X219298Y281676D01*
Y281998D01*
X219526Y282226D01*
X219848D01*
X220176Y281898D01*
X220498D01*
X220726Y282126D01*
Y282448D01*
X220398Y282776D01*
Y283098D01*
X220626Y283326D01*
X220948D01*
X221276Y282998D01*
X221598D01*
X221826Y283226D01*
Y283548D01*
X221498Y283876D01*
Y284198D01*
X221726Y284426D01*
X222048D01*
X222376Y284098D01*
X222698D01*
X222926Y284326D01*
Y284648D01*
X222598Y284976D01*
Y285298D01*
X222826Y285526D01*
X223148D01*
X223476Y285198D01*
X223798D01*
X224026Y285426D01*
Y285748D01*
X223698Y286076D01*
Y286398D01*
X223926Y286626D01*
X224248D01*
X224576Y286298D01*
X224898D01*
X225126Y286526D01*
Y286848D01*
X224798Y287176D01*
Y287498D01*
X225026Y287726D01*
X225348D01*
X225676Y287398D01*
X225998D01*
X226226Y287626D01*
Y287948D01*
X225898Y288276D01*
Y288598D01*
X226126Y288826D01*
X226448D01*
X226776Y288498D01*
X227098D01*
X227326Y288726D01*
Y289048D01*
X226998Y289376D01*
Y289698D01*
X227226Y289926D01*
X227548D01*
X227876Y289598D01*
X228198D01*
X228426Y289826D01*
Y290148D01*
X228098Y290476D01*
Y290798D01*
X228326Y291026D01*
X228648D01*
X228976Y290698D01*
X229298D01*
X229526Y290926D01*
Y291248D01*
X229198Y291576D01*
Y291898D01*
X229426Y292126D01*
X229748D01*
X230076Y291798D01*
X230398D01*
X230626Y292026D01*
Y292348D01*
X230298Y292676D01*
Y292998D01*
X230526Y293226D01*
X230848D01*
X231176Y292898D01*
X231498D01*
X231726Y293126D01*
Y293448D01*
X231398Y293776D01*
Y294098D01*
X231626Y294326D01*
X231948D01*
X232276Y293998D01*
X232598D01*
X232826Y294226D01*
Y294548D01*
X232498Y294876D01*
Y295198D01*
X232726Y295426D01*
X233048D01*
X233376Y295098D01*
X233698D01*
X233926Y295326D01*
Y295648D01*
X233598Y295976D01*
Y296298D01*
X233826Y296526D01*
X234148D01*
X234476Y296198D01*
X234798D01*
X237600Y299000D01*
X279000D01*
X288500Y308500D01*
X290812D01*
X290820Y308492D01*
X387092D01*
X389360Y310760D01*
X390207D01*
G01X111690Y265390D02*
X112698D01*
X112858Y265550D01*
X122933D01*
X123448Y265035D01*
X148236D01*
X153178Y269977D01*
X160066D01*
X161858Y268185D01*
X163736D01*
X165721Y266200D01*
X176593D01*
X176883Y266490D01*
X178117D01*
X178407Y266200D01*
X184216D01*
X184444Y266428D01*
Y270272D01*
X184672Y270500D01*
X184993D01*
X185221Y270272D01*
Y266428D01*
X185449Y266200D01*
X185770D01*
X185998Y266428D01*
Y270272D01*
X186226Y270500D01*
X186547D01*
X186775Y270272D01*
Y266428D01*
X187003Y266200D01*
X187324D01*
X187552Y266428D01*
Y270272D01*
X187780Y270500D01*
X188101D01*
X188329Y270272D01*
Y266428D01*
X188557Y266200D01*
X188878D01*
X189106Y266428D01*
Y270272D01*
X189334Y270500D01*
X189655D01*
X189883Y270272D01*
Y266428D01*
X190111Y266200D01*
X190432D01*
X190660Y266428D01*
Y270272D01*
X190888Y270500D01*
X191209D01*
X191437Y270272D01*
Y266428D01*
X191665Y266200D01*
X191986D01*
X192214Y266428D01*
Y270272D01*
X192442Y270500D01*
X192763D01*
X192991Y270272D01*
Y266428D01*
X193219Y266200D01*
X193540D01*
X193768Y266428D01*
Y270272D01*
X193996Y270500D01*
X194317D01*
X194545Y270272D01*
Y266428D01*
X194773Y266200D01*
X195094D01*
X195322Y266428D01*
Y270272D01*
X195550Y270500D01*
X195871D01*
X196099Y270272D01*
Y266428D01*
X196327Y266200D01*
X196648D01*
X196876Y266428D01*
Y270272D01*
X197104Y270500D01*
X197425D01*
X197653Y270272D01*
Y266428D01*
X197881Y266200D01*
X198202D01*
X198430Y266428D01*
Y270272D01*
X198658Y270500D01*
X198979D01*
X199207Y270272D01*
Y266428D01*
X199435Y266200D01*
X199756D01*
X199984Y266428D01*
Y270272D01*
X200212Y270500D01*
X200533D01*
X200761Y270272D01*
Y266428D01*
X200989Y266200D01*
X201310D01*
X201538Y266428D01*
Y270272D01*
X201766Y270500D01*
X202087D01*
X202315Y270272D01*
Y266428D01*
X202543Y266200D01*
X202864D01*
X203092Y266428D01*
Y270272D01*
X203320Y270500D01*
X203641D01*
X203869Y270272D01*
Y266428D01*
X204097Y266200D01*
X204418D01*
X204646Y266428D01*
Y270272D01*
X204874Y270500D01*
X205195D01*
X205423Y270272D01*
Y266428D01*
X205651Y266200D01*
X205972D01*
X206200Y266428D01*
Y270272D01*
X206428Y270500D01*
X206749D01*
X206977Y270272D01*
Y266428D01*
X207205Y266200D01*
X209200D01*
X214510Y271510D01*
X214517D01*
X215390Y272383D01*
Y273189D01*
X235201Y293000D01*
X237704D01*
X237932Y292772D01*
Y289428D01*
X238160Y289200D01*
X238481D01*
X238709Y289428D01*
Y292772D01*
X238937Y293000D01*
X239258D01*
X239486Y292772D01*
Y289428D01*
X239714Y289200D01*
X240035D01*
X240263Y289428D01*
Y292772D01*
X240491Y293000D01*
X240812D01*
X241040Y292772D01*
Y289428D01*
X241268Y289200D01*
X241589D01*
X241817Y289428D01*
Y292772D01*
X242045Y293000D01*
X242366D01*
X242594Y292772D01*
Y289428D01*
X242822Y289200D01*
X243143D01*
X243371Y289428D01*
Y292772D01*
X243599Y293000D01*
X243920D01*
X244148Y292772D01*
Y289428D01*
X244376Y289200D01*
X244697D01*
X244925Y289428D01*
Y292772D01*
X245153Y293000D01*
X245474D01*
X245702Y292772D01*
Y289428D01*
X245930Y289200D01*
X246251D01*
X246479Y289428D01*
Y292772D01*
X246707Y293000D01*
X247028D01*
X247256Y292772D01*
Y289428D01*
X247484Y289200D01*
X247805D01*
X248033Y289428D01*
Y292772D01*
X248261Y293000D01*
X248582D01*
X248810Y292772D01*
Y289428D01*
X249038Y289200D01*
X249359D01*
X249587Y289428D01*
Y292772D01*
X249815Y293000D01*
X250136D01*
X250364Y292772D01*
Y289428D01*
X250592Y289200D01*
X250913D01*
X251141Y289428D01*
Y292772D01*
X251369Y293000D01*
X251690D01*
X251918Y292772D01*
Y289428D01*
X252146Y289200D01*
X252467D01*
X252695Y289428D01*
Y292772D01*
X252923Y293000D01*
X253244D01*
X253472Y292772D01*
Y289428D01*
X253700Y289200D01*
X254021D01*
X254249Y289428D01*
Y292772D01*
X254477Y293000D01*
X283000D01*
X287700Y297700D01*
Y301800D01*
X290455Y304555D01*
X387655D01*
X388718Y305618D01*
Y307439D01*
X389591Y308312D01*
X389866D01*
X392314Y310760D01*
X394144D01*
G01X118300Y283400D02*
X123083D01*
X123448Y283765D01*
X124682D01*
X125047Y283400D01*
X127181D01*
X127409Y283172D01*
Y281928D01*
X127637Y281700D01*
X127958D01*
X128186Y281928D01*
Y283172D01*
X128414Y283400D01*
X128735D01*
X128963Y283172D01*
Y281928D01*
X129191Y281700D01*
X129512D01*
X129740Y281928D01*
Y283172D01*
X129968Y283400D01*
X130289D01*
X130517Y283172D01*
Y281928D01*
X130745Y281700D01*
X131066D01*
X131294Y281928D01*
Y283172D01*
X131522Y283400D01*
X131843D01*
X132071Y283172D01*
Y281928D01*
X132299Y281700D01*
X132620D01*
X132848Y281928D01*
Y283172D01*
X133076Y283400D01*
X133397D01*
X133625Y283172D01*
Y281928D01*
X133853Y281700D01*
X134174D01*
X134402Y281928D01*
Y283172D01*
X134630Y283400D01*
X134951D01*
X135179Y283172D01*
Y281928D01*
X135407Y281700D01*
X135728D01*
X135956Y281928D01*
Y283172D01*
X136184Y283400D01*
X136505D01*
X136733Y283172D01*
Y281928D01*
X136961Y281700D01*
X137282D01*
X137510Y281928D01*
Y283172D01*
X137738Y283400D01*
X138059D01*
X138287Y283172D01*
Y281928D01*
X138515Y281700D01*
X138836D01*
X139064Y281928D01*
Y283172D01*
X139292Y283400D01*
X143600D01*
X147115Y286915D01*
X148048D01*
X148276Y286687D01*
Y284940D01*
X148504Y284712D01*
X148825D01*
X149053Y284940D01*
Y286687D01*
X149281Y286915D01*
X149602D01*
X149830Y286687D01*
Y284940D01*
X150058Y284712D01*
X150379D01*
X150607Y284940D01*
Y286687D01*
X150835Y286915D01*
X151156D01*
X151384Y286687D01*
Y284940D01*
X151612Y284712D01*
X151933D01*
X152161Y284940D01*
Y286687D01*
X152389Y286915D01*
X152710D01*
X152938Y286687D01*
Y284940D01*
X153166Y284712D01*
X153487D01*
X153715Y284940D01*
Y286687D01*
X153943Y286915D01*
X154264D01*
X154492Y286687D01*
Y284940D01*
X154720Y284712D01*
X155041D01*
X155269Y284940D01*
Y286687D01*
X155497Y286915D01*
X160292D01*
X160307Y286900D01*
X162446D01*
X162674Y287128D01*
Y289295D01*
X162902Y289523D01*
X163223D01*
X163451Y289295D01*
Y287128D01*
X163679Y286900D01*
X164000D01*
X164228Y287128D01*
Y289295D01*
X164456Y289523D01*
X164777D01*
X165005Y289295D01*
Y287128D01*
X165233Y286900D01*
X165554D01*
X165782Y287128D01*
Y289295D01*
X166010Y289523D01*
X166331D01*
X166559Y289295D01*
Y287128D01*
X166787Y286900D01*
X167108D01*
X167336Y287128D01*
Y289295D01*
X167564Y289523D01*
X167885D01*
X168113Y289295D01*
Y287128D01*
X168341Y286900D01*
X168662D01*
X168890Y287128D01*
Y289295D01*
X169118Y289523D01*
X169439D01*
X169667Y289295D01*
Y287128D01*
X169895Y286900D01*
X170216D01*
X170444Y287128D01*
Y289295D01*
X170672Y289523D01*
X170993D01*
X171221Y289295D01*
Y287128D01*
X171449Y286900D01*
X171770D01*
X171998Y287128D01*
Y289295D01*
X172226Y289523D01*
X172547D01*
X172775Y289295D01*
Y287128D01*
X173003Y286900D01*
X173324D01*
X173552Y287128D01*
Y289295D01*
X173780Y289523D01*
X174101D01*
X174329Y289295D01*
Y287128D01*
X174557Y286900D01*
X174878D01*
X175106Y287128D01*
Y289295D01*
X175334Y289523D01*
X175655D01*
X175883Y289295D01*
Y287128D01*
X176111Y286900D01*
X183382D01*
X183610Y287128D01*
Y289272D01*
X183838Y289500D01*
X184159D01*
X184387Y289272D01*
Y287128D01*
X184615Y286900D01*
X184936D01*
X185164Y287128D01*
Y289272D01*
X185392Y289500D01*
X185713D01*
X185941Y289272D01*
Y287128D01*
X186169Y286900D01*
X186490D01*
X186718Y287128D01*
Y289272D01*
X186946Y289500D01*
X187267D01*
X187495Y289272D01*
Y287128D01*
X187723Y286900D01*
X188044D01*
X188272Y287128D01*
Y289272D01*
X188500Y289500D01*
X188821D01*
X189049Y289272D01*
Y287128D01*
X189277Y286900D01*
X189598D01*
X189826Y287128D01*
Y289272D01*
X190054Y289500D01*
X190375D01*
X190603Y289272D01*
Y287128D01*
X190831Y286900D01*
X191152D01*
X191380Y287128D01*
Y289272D01*
X191608Y289500D01*
X191929D01*
X192157Y289272D01*
Y287128D01*
X192385Y286900D01*
X192706D01*
X192934Y287128D01*
Y289272D01*
X193162Y289500D01*
X193483D01*
X193711Y289272D01*
Y287128D01*
X193939Y286900D01*
X194260D01*
X194488Y287128D01*
Y289272D01*
X194716Y289500D01*
X195037D01*
X195265Y289272D01*
Y287128D01*
X195493Y286900D01*
X195814D01*
X196042Y287128D01*
Y289272D01*
X196270Y289500D01*
X196591D01*
X196819Y289272D01*
Y287128D01*
X197047Y286900D01*
X197368D01*
X197596Y287128D01*
Y289272D01*
X197824Y289500D01*
X198145D01*
X198373Y289272D01*
Y287128D01*
X198601Y286900D01*
X198922D01*
X199150Y287128D01*
Y289272D01*
X199378Y289500D01*
X199699D01*
X199927Y289272D01*
Y287128D01*
X200155Y286900D01*
X200476D01*
X200704Y287128D01*
Y289272D01*
X200932Y289500D01*
X201253D01*
X201481Y289272D01*
Y287128D01*
X201709Y286900D01*
X204900D01*
X206130Y288130D01*
Y288452D01*
X205252Y289330D01*
Y289652D01*
X205480Y289880D01*
X205802D01*
X206680Y289002D01*
X207002D01*
X207230Y289230D01*
Y289552D01*
X206352Y290430D01*
Y290752D01*
X206580Y290980D01*
X206902D01*
X207780Y290102D01*
X208102D01*
X208330Y290330D01*
Y290652D01*
X207452Y291530D01*
Y291852D01*
X207680Y292080D01*
X208002D01*
X208880Y291202D01*
X209202D01*
X209430Y291430D01*
Y291752D01*
X208552Y292630D01*
Y292952D01*
X208780Y293180D01*
X209102D01*
X209980Y292302D01*
X210302D01*
X210530Y292530D01*
Y292852D01*
X209652Y293730D01*
Y294052D01*
X209880Y294280D01*
X210202D01*
X211080Y293402D01*
X211402D01*
X211630Y293630D01*
Y293952D01*
X210752Y294830D01*
Y295152D01*
X210980Y295380D01*
X211302D01*
X212180Y294502D01*
X212502D01*
X212730Y294730D01*
Y295052D01*
X211852Y295930D01*
Y296252D01*
X212080Y296480D01*
X212402D01*
X213280Y295602D01*
X213602D01*
X213830Y295830D01*
Y296152D01*
X212952Y297030D01*
Y297352D01*
X213180Y297580D01*
X213502D01*
X214380Y296702D01*
X214702D01*
X214930Y296930D01*
Y297252D01*
X214052Y298130D01*
Y298452D01*
X214280Y298680D01*
X214602D01*
X215480Y297802D01*
X215802D01*
X216030Y298030D01*
Y298352D01*
X215152Y299230D01*
Y299552D01*
X215380Y299780D01*
X215702D01*
X216580Y298902D01*
X216902D01*
X217130Y299130D01*
Y299452D01*
X216252Y300330D01*
Y300652D01*
X216480Y300880D01*
X216802D01*
X217680Y300002D01*
X218002D01*
X218230Y300230D01*
Y300552D01*
X217352Y301430D01*
Y301752D01*
X217580Y301980D01*
X217902D01*
X218780Y301102D01*
X219102D01*
X219330Y301330D01*
Y301652D01*
X218452Y302530D01*
Y302852D01*
X218680Y303080D01*
X219002D01*
X219880Y302202D01*
X220202D01*
X220430Y302430D01*
Y302752D01*
X219552Y303630D01*
Y303952D01*
X219780Y304180D01*
X220102D01*
X220980Y303302D01*
X221302D01*
X221530Y303530D01*
Y303852D01*
X220652Y304730D01*
Y305052D01*
X220880Y305280D01*
X221202D01*
X222080Y304402D01*
X222402D01*
X222630Y304630D01*
Y304952D01*
X221752Y305830D01*
Y306152D01*
X221980Y306380D01*
X222302D01*
X223180Y305502D01*
X223502D01*
X223730Y305730D01*
Y306052D01*
X222852Y306930D01*
Y307252D01*
X223080Y307480D01*
X223402D01*
X224280Y306602D01*
X224602D01*
X224830Y306830D01*
Y307152D01*
X223952Y308030D01*
Y308352D01*
X224180Y308580D01*
X224502D01*
X225380Y307702D01*
X225702D01*
X225930Y307930D01*
Y308252D01*
X225052Y309130D01*
Y309452D01*
X225280Y309680D01*
X225602D01*
X226480Y308802D01*
X226802D01*
X228000Y310000D01*
X230471D01*
X230699Y309772D01*
Y308728D01*
X230927Y308500D01*
X231248D01*
X231476Y308728D01*
Y309772D01*
X231704Y310000D01*
X232025D01*
X232253Y309772D01*
Y308728D01*
X232481Y308500D01*
X232802D01*
X233030Y308728D01*
Y309772D01*
X233258Y310000D01*
X233579D01*
X233807Y309772D01*
Y308728D01*
X234035Y308500D01*
X234356D01*
X234584Y308728D01*
Y309772D01*
X234812Y310000D01*
X235133D01*
X235361Y309772D01*
Y308728D01*
X235589Y308500D01*
X235910D01*
X236138Y308728D01*
Y309772D01*
X236366Y310000D01*
X236687D01*
X236915Y309772D01*
Y308728D01*
X237143Y308500D01*
X237464D01*
X237692Y308728D01*
Y309772D01*
X237920Y310000D01*
X275500D01*
X282600Y317100D01*
X389500D01*
X390207Y316393D01*
Y314696D01*
G01X117200Y285400D02*
X121933D01*
X123448Y286915D01*
X124715D01*
X125500Y287700D01*
X126764D01*
X126992Y287472D01*
Y284928D01*
X127220Y284700D01*
X127541D01*
X127769Y284928D01*
Y287472D01*
X127997Y287700D01*
X128318D01*
X128546Y287472D01*
Y284928D01*
X128774Y284700D01*
X129095D01*
X129323Y284928D01*
Y287472D01*
X129551Y287700D01*
X129872D01*
X130100Y287472D01*
Y284928D01*
X130328Y284700D01*
X130649D01*
X130877Y284928D01*
Y287472D01*
X131105Y287700D01*
X131426D01*
X131654Y287472D01*
Y284928D01*
X131882Y284700D01*
X132203D01*
X132431Y284928D01*
Y287472D01*
X132659Y287700D01*
X132980D01*
X133208Y287472D01*
Y284928D01*
X133436Y284700D01*
X133757D01*
X133985Y284928D01*
Y287472D01*
X134213Y287700D01*
X134534D01*
X134762Y287472D01*
Y284928D01*
X134990Y284700D01*
X135311D01*
X135539Y284928D01*
Y287472D01*
X135767Y287700D01*
X136088D01*
X136316Y287472D01*
Y284928D01*
X136544Y284700D01*
X136865D01*
X137093Y284928D01*
Y287472D01*
X137321Y287700D01*
X137642D01*
X137870Y287472D01*
Y284928D01*
X138098Y284700D01*
X138419D01*
X138647Y284928D01*
Y287472D01*
X138875Y287700D01*
X154700D01*
X157300Y290300D01*
X158993D01*
X159058Y290235D01*
X160292D01*
X160357Y290300D01*
X162932D01*
X163160Y290528D01*
Y292072D01*
X163388Y292300D01*
X163709D01*
X163937Y292072D01*
Y290528D01*
X164165Y290300D01*
X164486D01*
X164714Y290528D01*
Y292072D01*
X164942Y292300D01*
X165263D01*
X165491Y292072D01*
Y290528D01*
X165719Y290300D01*
X166040D01*
X166268Y290528D01*
Y292072D01*
X166496Y292300D01*
X166817D01*
X167045Y292072D01*
Y290528D01*
X167273Y290300D01*
X167594D01*
X167822Y290528D01*
Y292072D01*
X168050Y292300D01*
X168371D01*
X168599Y292072D01*
Y290528D01*
X168827Y290300D01*
X169148D01*
X169376Y290528D01*
Y292072D01*
X169604Y292300D01*
X169925D01*
X170153Y292072D01*
Y290528D01*
X170381Y290300D01*
X170702D01*
X170930Y290528D01*
Y292072D01*
X171158Y292300D01*
X171479D01*
X171707Y292072D01*
Y290528D01*
X171935Y290300D01*
X172256D01*
X172484Y290528D01*
Y292072D01*
X172712Y292300D01*
X173033D01*
X173261Y292072D01*
Y290528D01*
X173489Y290300D01*
X173810D01*
X174038Y290528D01*
Y292072D01*
X174266Y292300D01*
X174587D01*
X174815Y292072D01*
Y290528D01*
X175043Y290300D01*
X175364D01*
X175592Y290528D01*
Y292072D01*
X175820Y292300D01*
X176141D01*
X176369Y292072D01*
Y290528D01*
X176597Y290300D01*
X178293D01*
X179733Y288860D01*
X180967D01*
X182407Y290300D01*
X184773D01*
X185001Y290528D01*
Y292172D01*
X185229Y292400D01*
X185550D01*
X185778Y292172D01*
Y290528D01*
X186006Y290300D01*
X186327D01*
X186555Y290528D01*
Y292172D01*
X186783Y292400D01*
X187104D01*
X187332Y292172D01*
Y290528D01*
X187560Y290300D01*
X187881D01*
X188109Y290528D01*
Y292172D01*
X188337Y292400D01*
X188658D01*
X188886Y292172D01*
Y290528D01*
X189114Y290300D01*
X189435D01*
X189663Y290528D01*
Y292172D01*
X189891Y292400D01*
X190212D01*
X190440Y292172D01*
Y290528D01*
X190668Y290300D01*
X190989D01*
X191217Y290528D01*
Y292172D01*
X191445Y292400D01*
X191766D01*
X191994Y292172D01*
Y290528D01*
X192222Y290300D01*
X192543D01*
X192771Y290528D01*
Y292172D01*
X192999Y292400D01*
X193320D01*
X193548Y292172D01*
Y290528D01*
X193776Y290300D01*
X194097D01*
X194325Y290528D01*
Y292172D01*
X194553Y292400D01*
X194874D01*
X195102Y292172D01*
Y290528D01*
X195330Y290300D01*
X195651D01*
X195879Y290528D01*
Y292172D01*
X196107Y292400D01*
X196428D01*
X196656Y292172D01*
Y290528D01*
X196884Y290300D01*
X197205D01*
X197433Y290528D01*
Y292172D01*
X197661Y292400D01*
X197982D01*
X198210Y292172D01*
Y290528D01*
X198438Y290300D01*
X198759D01*
X198987Y290528D01*
Y292172D01*
X199215Y292400D01*
X199536D01*
X199764Y292172D01*
Y290528D01*
X199992Y290300D01*
X200313D01*
X200541Y290528D01*
Y292172D01*
X200769Y292400D01*
X201090D01*
X201318Y292172D01*
Y290528D01*
X201546Y290300D01*
X204700D01*
X206555Y292155D01*
Y292477D01*
X205977Y293055D01*
Y293377D01*
X206205Y293605D01*
X206527D01*
X207105Y293027D01*
X207427D01*
X207655Y293255D01*
Y293577D01*
X207077Y294155D01*
Y294477D01*
X207305Y294705D01*
X207627D01*
X208205Y294127D01*
X208527D01*
X208755Y294355D01*
Y294677D01*
X208177Y295255D01*
Y295577D01*
X208405Y295805D01*
X208727D01*
X209305Y295227D01*
X209627D01*
X209855Y295455D01*
Y295777D01*
X209277Y296355D01*
Y296677D01*
X209505Y296905D01*
X209827D01*
X210405Y296327D01*
X210727D01*
X210955Y296555D01*
Y296877D01*
X210377Y297455D01*
Y297777D01*
X210605Y298005D01*
X210927D01*
X211505Y297427D01*
X211827D01*
X212055Y297655D01*
Y297977D01*
X211477Y298555D01*
Y298877D01*
X211705Y299105D01*
X212027D01*
X212605Y298527D01*
X212927D01*
X213155Y298755D01*
Y299077D01*
X212577Y299655D01*
Y299977D01*
X212805Y300205D01*
X213127D01*
X213705Y299627D01*
X214027D01*
X214255Y299855D01*
Y300177D01*
X213677Y300755D01*
Y301077D01*
X213905Y301305D01*
X214227D01*
X214805Y300727D01*
X215127D01*
X215355Y300955D01*
Y301277D01*
X214777Y301855D01*
Y302177D01*
X215005Y302405D01*
X215327D01*
X215905Y301827D01*
X216227D01*
X216455Y302055D01*
Y302377D01*
X215877Y302955D01*
Y303277D01*
X216105Y303505D01*
X216427D01*
X217005Y302927D01*
X217327D01*
X217555Y303155D01*
Y303477D01*
X216977Y304055D01*
Y304377D01*
X217205Y304605D01*
X217527D01*
X218105Y304027D01*
X218427D01*
X218655Y304255D01*
Y304577D01*
X218077Y305155D01*
Y305477D01*
X218305Y305705D01*
X218627D01*
X219205Y305127D01*
X219527D01*
X219755Y305355D01*
Y305677D01*
X219177Y306255D01*
Y306577D01*
X219405Y306805D01*
X219727D01*
X220305Y306227D01*
X220627D01*
X220855Y306455D01*
Y306777D01*
X220277Y307355D01*
Y307677D01*
X220505Y307905D01*
X220827D01*
X221405Y307327D01*
X221727D01*
X221955Y307555D01*
Y307877D01*
X221377Y308455D01*
Y308777D01*
X221605Y309005D01*
X221927D01*
X222505Y308427D01*
X222827D01*
X225700Y311300D01*
X226784D01*
X227012Y311528D01*
Y312372D01*
X227240Y312600D01*
X227561D01*
X227789Y312372D01*
Y311528D01*
X228017Y311300D01*
X228338D01*
X228566Y311528D01*
Y312372D01*
X228794Y312600D01*
X229115D01*
X229343Y312372D01*
Y311528D01*
X229571Y311300D01*
X229892D01*
X230120Y311528D01*
Y312372D01*
X230348Y312600D01*
X230669D01*
X230897Y312372D01*
Y311528D01*
X231125Y311300D01*
X231446D01*
X231674Y311528D01*
Y312372D01*
X231902Y312600D01*
X232223D01*
X232451Y312372D01*
Y311528D01*
X232679Y311300D01*
X233000D01*
X233228Y311528D01*
Y312372D01*
X233456Y312600D01*
X233777D01*
X234005Y312372D01*
Y311528D01*
X234233Y311300D01*
X234554D01*
X234782Y311528D01*
Y312372D01*
X235010Y312600D01*
X235331D01*
X235559Y312372D01*
Y311528D01*
X235787Y311300D01*
X236108D01*
X236336Y311528D01*
Y312372D01*
X236564Y312600D01*
X236885D01*
X237113Y312372D01*
Y311528D01*
X237341Y311300D01*
X237662D01*
X237890Y311528D01*
Y312372D01*
X238118Y312600D01*
X238439D01*
X238667Y312372D01*
Y311528D01*
X238895Y311300D01*
X239216D01*
X239444Y311528D01*
Y312372D01*
X239672Y312600D01*
X239993D01*
X240221Y312372D01*
Y311528D01*
X240449Y311300D01*
X240770D01*
X240998Y311528D01*
Y312372D01*
X241226Y312600D01*
X241547D01*
X241775Y312372D01*
Y311528D01*
X242003Y311300D01*
X242324D01*
X242552Y311528D01*
Y312372D01*
X242780Y312600D01*
X243101D01*
X243329Y312372D01*
Y311528D01*
X243557Y311300D01*
X243878D01*
X244106Y311528D01*
Y312372D01*
X244334Y312600D01*
X244655D01*
X244883Y312372D01*
Y311528D01*
X245111Y311300D01*
X245432D01*
X245660Y311528D01*
Y312372D01*
X245888Y312600D01*
X246209D01*
X246437Y312372D01*
Y311528D01*
X246665Y311300D01*
X246986D01*
X247214Y311528D01*
Y312372D01*
X247442Y312600D01*
X247763D01*
X247991Y312372D01*
Y311528D01*
X248219Y311300D01*
X248540D01*
X248768Y311528D01*
Y312372D01*
X248996Y312600D01*
X249317D01*
X249545Y312372D01*
Y311528D01*
X249773Y311300D01*
X250094D01*
X250322Y311528D01*
Y312372D01*
X250550Y312600D01*
X250871D01*
X251099Y312372D01*
Y311528D01*
X251327Y311300D01*
X251648D01*
X251876Y311528D01*
Y312372D01*
X252104Y312600D01*
X252425D01*
X252653Y312372D01*
Y311528D01*
X252881Y311300D01*
X253202D01*
X253430Y311528D01*
Y312372D01*
X253658Y312600D01*
X253979D01*
X254207Y312372D01*
Y311528D01*
X254435Y311300D01*
X254756D01*
X254984Y311528D01*
Y312372D01*
X255212Y312600D01*
X255533D01*
X255761Y312372D01*
Y311528D01*
X255989Y311300D01*
X256310D01*
X256538Y311528D01*
Y312372D01*
X256766Y312600D01*
X257087D01*
X257315Y312372D01*
Y311528D01*
X257543Y311300D01*
X257864D01*
X258092Y311528D01*
Y312372D01*
X258320Y312600D01*
X258641D01*
X258869Y312372D01*
Y311528D01*
X259097Y311300D01*
X259418D01*
X259646Y311528D01*
Y312372D01*
X259874Y312600D01*
X260195D01*
X260423Y312372D01*
Y311528D01*
X260651Y311300D01*
X275300D01*
X284124Y320124D01*
X390824D01*
X391697Y319251D01*
Y317303D01*
X392700Y316300D01*
X398100D01*
X398214Y316186D01*
X398699D01*
X400189Y314696D01*
X402018D01*
G01X322456Y104408D02*
X320188Y102140D01*
X306869D01*
X293865Y115144D01*
X254500D01*
X251144Y118500D01*
X219000D01*
X211900Y111400D01*
Y106000D01*
G01X318518Y104408D02*
X316072Y106853D01*
Y108961D01*
X314241Y110792D01*
X304015D01*
X279403Y135404D01*
Y170597D01*
X268000Y182000D01*
X249500D01*
X240200Y191300D01*
X215900D01*
G01X247900Y250700D02*
X248600Y250000D01*
Y245000D01*
X284800Y208800D01*
Y191700D01*
X293700Y182800D01*
Y175600D01*
X297000Y172300D01*
Y161600D01*
X302400Y156200D01*
X311000D01*
X312700Y154500D01*
Y135400D01*
X314100Y134000D01*
X374600D01*
X375700Y132900D01*
Y129926D01*
X377596Y128030D01*
G01X311444Y275304D02*
X310044Y273904D01*
X298504D01*
X297235Y272635D01*
X297096Y272497D01*
Y226800D01*
X294601Y224305D01*
Y221894D01*
X294373Y221666D01*
X289613D01*
X288800Y220853D01*
Y219704D01*
X289613Y218891D01*
X294373D01*
X294601Y218663D01*
Y218342D01*
X294373Y218114D01*
X289613D01*
X288800Y217301D01*
Y216152D01*
X289613Y215339D01*
X294373D01*
X294601Y215111D01*
Y214790D01*
X294373Y214562D01*
X289613D01*
X288800Y213749D01*
Y212600D01*
X289613Y211787D01*
X294373D01*
X294601Y211559D01*
Y211238D01*
X294373Y211010D01*
X289613D01*
X288800Y210197D01*
Y209048D01*
X289613Y208235D01*
X294373D01*
X294601Y208007D01*
Y207686D01*
X294373Y207458D01*
X289613D01*
X288800Y206645D01*
Y205496D01*
X288830Y205466D01*
X288886D01*
X289109Y205467D01*
X289695Y204881D01*
X294455D01*
X296199Y203137D01*
Y200834D01*
X295971Y200606D01*
X291697D01*
X291000Y199909D01*
Y198922D01*
X291697Y198225D01*
X295971D01*
X297000Y197196D01*
Y188800D01*
X300900Y184900D01*
Y178100D01*
X304161Y174839D01*
Y171677D01*
X304209Y171282D01*
X304266Y171238D01*
X304309Y170891D01*
Y170365D01*
X305714Y168960D01*
X319512D01*
X320987Y170435D01*
Y173827D01*
X322456Y175296D01*
G01X307507Y267429D02*
X308976Y265960D01*
Y262980D01*
X308088Y262092D01*
X306649D01*
X305000Y260443D01*
Y223991D01*
X304772Y223763D01*
X297613D01*
X296800Y222950D01*
Y221801D01*
X297613Y220988D01*
X304772D01*
X305000Y220760D01*
Y220439D01*
X304772Y220211D01*
X297613D01*
X296800Y219398D01*
Y218249D01*
X297613Y217436D01*
X304772D01*
X305000Y217208D01*
Y216887D01*
X304772Y216659D01*
X297613D01*
X296800Y215846D01*
Y214697D01*
X297613Y213884D01*
X298962D01*
X299190Y213656D01*
Y190163D01*
X300003Y189350D01*
X301152D01*
X301965Y190163D01*
Y200393D01*
X302193Y200621D01*
X303787D01*
X304600Y201434D01*
Y202583D01*
X303787Y203396D01*
X302193D01*
X301965Y203624D01*
Y203945D01*
X302193Y204173D01*
X303787D01*
X304600Y204986D01*
Y206135D01*
X303787Y206948D01*
X302193D01*
X301965Y207176D01*
Y207497D01*
X302193Y207725D01*
X303787D01*
X304600Y208538D01*
Y209687D01*
X303787Y210500D01*
X302193D01*
X301965Y210728D01*
Y213656D01*
X302193Y213884D01*
X304772D01*
X305000Y213656D01*
Y211428D01*
X308108Y208320D01*
Y182176D01*
X309581Y180703D01*
X317049D01*
X318518Y179234D01*
G01X311444Y267429D02*
X309975Y265960D01*
Y262566D01*
X308502Y261093D01*
X307063D01*
X305999Y260029D01*
Y223577D01*
X305186Y222764D01*
X298027D01*
X297799Y222536D01*
Y222215D01*
X298027Y221987D01*
X305186D01*
X305999Y221174D01*
Y220025D01*
X305186Y219212D01*
X298027D01*
X297799Y218984D01*
Y218663D01*
X298027Y218435D01*
X305186D01*
X305999Y217622D01*
Y216473D01*
X305186Y215660D01*
X298027D01*
X297799Y215432D01*
Y215111D01*
X298027Y214883D01*
X299376D01*
X300189Y214070D01*
Y190577D01*
X300417Y190349D01*
X300738D01*
X300966Y190577D01*
Y200807D01*
X301779Y201620D01*
X303373D01*
X303601Y201848D01*
Y202169D01*
X303373Y202397D01*
X301779D01*
X300966Y203210D01*
Y204359D01*
X301779Y205172D01*
X303373D01*
X303601Y205400D01*
Y205721D01*
X303373Y205949D01*
X301779D01*
X300966Y206762D01*
Y207911D01*
X301779Y208724D01*
X303373D01*
X303601Y208952D01*
Y209273D01*
X303373Y209501D01*
X301779D01*
X300966Y210314D01*
Y214070D01*
X301779Y214883D01*
X305186D01*
X305999Y214070D01*
Y211842D01*
X309107Y208734D01*
Y182590D01*
X309995Y181702D01*
X317050D01*
X318518Y183170D01*
G01X307507Y271366D02*
X308737Y272596D01*
Y272802D01*
X308634Y272905D01*
X298918D01*
X298095Y272082D01*
Y226386D01*
X295600Y223891D01*
Y221480D01*
X294787Y220667D01*
X290027D01*
X289799Y220439D01*
Y220118D01*
X290027Y219890D01*
X294787D01*
X295600Y219077D01*
Y217928D01*
X294787Y217115D01*
X290027D01*
X289799Y216887D01*
Y216566D01*
X290027Y216338D01*
X294787D01*
X295600Y215525D01*
Y214376D01*
X294787Y213563D01*
X290027D01*
X289799Y213335D01*
Y213014D01*
X290027Y212786D01*
X294787D01*
X295600Y211973D01*
Y210824D01*
X294787Y210011D01*
X290027D01*
X289799Y209783D01*
Y209462D01*
X290027Y209234D01*
X294787D01*
X295600Y208421D01*
Y207272D01*
X294787Y206459D01*
X290027D01*
X289799Y206231D01*
Y205910D01*
X290027Y205682D01*
X294787D01*
X297000Y203469D01*
Y200502D01*
X296303Y199805D01*
X292029D01*
X291801Y199577D01*
Y199254D01*
X292029Y199026D01*
X296303D01*
X297801Y197528D01*
Y189412D01*
X301899Y185314D01*
Y183214D01*
X302127Y182986D01*
X303772D01*
X304000Y182758D01*
Y182435D01*
X303772Y182207D01*
X302127D01*
X301899Y181979D01*
Y178514D01*
X305160Y175253D01*
Y171738D01*
X305189Y171506D01*
X305201Y171402D01*
X305157Y171347D01*
X305200Y170999D01*
X305308Y170891D01*
Y170779D01*
X306128Y169959D01*
X319098D01*
X319988Y170849D01*
Y173826D01*
X318518Y175296D01*
G01X350015Y198918D02*
X348546Y200387D01*
Y220754D01*
X347307Y221993D01*
X347007D01*
X341519Y227481D01*
Y280257D01*
X339998Y281778D01*
X330235D01*
X329592Y282421D01*
Y288278D01*
X329829Y288515D01*
X339860D01*
X341541Y290196D01*
Y291632D01*
X342361Y292452D01*
X342362D01*
X342946Y293036D01*
Y296000D01*
X341947Y296999D01*
X310219D01*
X309406Y296186D01*
Y295027D01*
X309178Y294799D01*
X308857D01*
X308629Y295027D01*
Y296186D01*
X307816Y296999D01*
X306667D01*
X305854Y296186D01*
Y295027D01*
X305626Y294799D01*
X305305D01*
X305077Y295027D01*
Y296186D01*
X304264Y296999D01*
X301986D01*
X301034Y296047D01*
Y282184D01*
X302577Y280641D01*
X315962D01*
X316850Y279753D01*
Y276773D01*
X315381Y275304D01*
G01X331130Y283179D02*
X332599Y284648D01*
X355639D01*
X356301Y283986D01*
Y159514D01*
X354393Y157607D01*
X353386Y156600D01*
X353300D01*
X351400Y154700D01*
X347577D01*
X347349Y154928D01*
Y155772D01*
X347121Y156000D01*
X346798D01*
X346570Y155772D01*
Y154928D01*
X346342Y154700D01*
X344600D01*
X343679Y153779D01*
Y148560D01*
X343620Y148251D01*
X343541Y147837D01*
Y147135D01*
X342652Y146246D01*
X316051D01*
X314582Y147715D01*
G01X331130Y287115D02*
X332598Y285647D01*
X356053D01*
X357300Y284400D01*
Y159100D01*
X354093Y155893D01*
X354007D01*
X351814Y153701D01*
X345014D01*
X344678Y153365D01*
Y148465D01*
X344602Y148064D01*
X344540Y147742D01*
Y146721D01*
X343066Y145247D01*
X316051D01*
X314582Y143778D01*
G01X315381Y243807D02*
X313912Y242338D01*
Y225275D01*
X313099Y224462D01*
X308627D01*
X308399Y224234D01*
Y223913D01*
X308627Y223685D01*
X313099D01*
X313912Y222872D01*
Y221723D01*
X313099Y220910D01*
X308627D01*
X308399Y220682D01*
Y220361D01*
X308627Y220133D01*
X313099D01*
X313912Y219320D01*
Y218098D01*
X314140Y217870D01*
X320087D01*
X320900Y217057D01*
Y215908D01*
X320087Y215095D01*
X314140D01*
X313912Y214867D01*
Y214866D01*
X313913Y214865D01*
X312501Y213453D01*
Y212273D01*
X313899Y210874D01*
Y210871D01*
X316981Y207786D01*
Y194402D01*
X317940Y193443D01*
X319512D01*
X320917Y192038D01*
Y178793D01*
X322015Y177695D01*
X323450D01*
X324855Y176290D01*
Y170779D01*
X325813Y169821D01*
X342721D01*
X343612Y170712D01*
Y180488D01*
X343329Y180771D01*
X325398D01*
X323993Y182176D01*
Y195562D01*
X323055Y196500D01*
X320800D01*
X320057Y197243D01*
Y207786D01*
X321462Y209191D01*
X323450D01*
X324924Y207717D01*
Y204324D01*
X326392Y202856D01*
G01X311444Y243807D02*
X312913Y242338D01*
Y225689D01*
X312685Y225461D01*
X308213D01*
X307400Y224648D01*
Y223499D01*
X308213Y222686D01*
X312685D01*
X312913Y222458D01*
Y222137D01*
X312685Y221909D01*
X308213D01*
X307400Y221096D01*
Y219947D01*
X308213Y219134D01*
X312685D01*
X312913Y218906D01*
Y217684D01*
X313726Y216871D01*
X319673D01*
X319901Y216643D01*
Y216322D01*
X319673Y216094D01*
X313726D01*
X311500Y213868D01*
Y211858D01*
X315982Y207372D01*
Y193988D01*
X317526Y192444D01*
X319098D01*
X319918Y191624D01*
Y178379D01*
X321601Y176696D01*
X323036D01*
X323856Y175876D01*
Y170365D01*
X325399Y168822D01*
X343135D01*
X344611Y170298D01*
Y180902D01*
X343743Y181770D01*
X325812D01*
X324992Y182590D01*
Y195976D01*
X323469Y197499D01*
X321214D01*
X321056Y197657D01*
Y207372D01*
X321876Y208192D01*
X323036D01*
X323925Y207303D01*
Y204325D01*
X322456Y202856D01*
G01X326392Y183170D02*
X327862Y184640D01*
Y208025D01*
X326786Y209101D01*
X325186D01*
X324186Y210101D01*
X316786D01*
X315901Y210986D01*
Y212314D01*
X316885Y213298D01*
X327115D01*
X330914Y209499D01*
X333486D01*
X333801Y209814D01*
Y210702D01*
X333402Y211101D01*
X330686D01*
X327536Y214251D01*
X323112D01*
X321959Y215404D01*
Y216796D01*
X322874Y217711D01*
X325996D01*
X326982Y218697D01*
Y219586D01*
X326417Y220151D01*
X318713D01*
X318485Y219923D01*
Y219228D01*
X318257Y219000D01*
X317934D01*
X317706Y219228D01*
Y219923D01*
X317478Y220151D01*
X315924D01*
X314689Y221386D01*
Y222827D01*
X315673Y223811D01*
X322498D01*
X322782Y224095D01*
Y224657D01*
X322499Y224940D01*
X317885D01*
X316901Y225924D01*
Y227065D01*
X316919D01*
Y227066D01*
X316901Y227084D01*
Y229912D01*
X317585Y230596D01*
X319898D01*
X320718Y231416D01*
Y232715D01*
X319932Y233501D01*
X317785D01*
X316801Y234485D01*
Y237214D01*
X317986Y238399D01*
X319827D01*
X320801Y239373D01*
Y240886D01*
X320386Y241301D01*
X318286D01*
X316801Y242786D01*
Y244759D01*
X318386Y246344D01*
X319898D01*
X320718Y247164D01*
Y248324D01*
X319898Y249144D01*
X319887D01*
X319829Y249202D01*
X318066D01*
X316782Y250486D01*
Y260136D01*
X315962Y260956D01*
X314686D01*
X313699Y259969D01*
Y246605D01*
X313607Y246513D01*
X312438Y245345D01*
X310450D01*
X309001Y246794D01*
Y258386D01*
X308801Y258586D01*
Y260293D01*
X308063Y259555D01*
X307507D01*
G01X330330Y183170D02*
X328861Y184639D01*
Y208439D01*
X327200Y210100D01*
X325600D01*
X324600Y211100D01*
X317200D01*
X316900Y211400D01*
Y211900D01*
X317299Y212299D01*
X326701D01*
X330500Y208500D01*
X333900D01*
X334800Y209400D01*
Y211116D01*
X333816Y212100D01*
X331100D01*
X327950Y215250D01*
X323526D01*
X322958Y215818D01*
Y216382D01*
X323488Y216912D01*
X326327D01*
X327781Y218366D01*
Y219586D01*
X327689Y220293D01*
X326831Y221150D01*
X316338D01*
X315688Y221800D01*
Y222413D01*
X316087Y222812D01*
X322912D01*
X323781Y223681D01*
Y225071D01*
X322913Y225939D01*
X318299D01*
X317900Y226338D01*
Y227461D01*
X317918Y227479D01*
Y227480D01*
X317900Y227498D01*
Y229498D01*
X317999Y229597D01*
X320312D01*
X321717Y231002D01*
Y233129D01*
X320346Y234500D01*
X318199D01*
X317800Y234899D01*
Y236800D01*
X318400Y237400D01*
X320241D01*
X321800Y238959D01*
Y241300D01*
X320800Y242300D01*
X318700D01*
X317800Y243200D01*
Y244345D01*
X318800Y245345D01*
X320312D01*
X321717Y246750D01*
Y248727D01*
X320243Y250201D01*
X318480D01*
X317781Y250900D01*
Y260550D01*
X316376Y261955D01*
X314555D01*
X312900Y260300D01*
Y247220D01*
X312024Y246344D01*
X310864D01*
X310000Y247208D01*
Y258800D01*
X309800Y259000D01*
Y260706D01*
X310409Y261315D01*
X310408Y261900D01*
X311444Y262936D01*
Y263492D01*
G01X338204Y202856D02*
X339673Y204325D01*
Y207717D01*
X341132Y209176D01*
X341162D01*
X341177Y209191D01*
X341178D01*
X341193Y209207D01*
X341477Y209491D01*
Y210410D01*
X341078Y210809D01*
X336206D01*
X335209Y211808D01*
X334101Y212916D01*
X331571D01*
X328683Y215804D01*
Y217196D01*
X329554Y218067D01*
X330946D01*
X333014Y215999D01*
X335314D01*
X337414Y213899D01*
X340784D01*
Y215503D01*
X337586Y218701D01*
X330385D01*
X329401Y219685D01*
Y221501D01*
X330200Y222300D01*
X332987D01*
X333701Y223014D01*
Y224402D01*
X333302Y224801D01*
X330195D01*
X329967Y224573D01*
Y223890D01*
X329154Y223077D01*
X328005D01*
X327192Y223890D01*
Y224573D01*
X326964Y224801D01*
X325300D01*
X324701Y225400D01*
Y229114D01*
X326183Y230596D01*
X331710D01*
X332530Y231416D01*
Y232576D01*
X331605Y233501D01*
X325786D01*
X324701Y234586D01*
Y237114D01*
X325920Y238333D01*
X331573D01*
X332530Y239290D01*
Y240485D01*
X331606Y241409D01*
X326198D01*
X324793Y242814D01*
Y244802D01*
X326335Y246344D01*
X331710D01*
X332530Y247164D01*
Y248371D01*
X331619Y249282D01*
X322261D01*
X320856Y250687D01*
Y252675D01*
X322261Y254080D01*
X327076D01*
X327095Y254099D01*
X332258D01*
X332529Y254370D01*
Y256198D01*
X331709Y257018D01*
X322399D01*
X320856Y258561D01*
Y260549D01*
X322270Y261963D01*
X332216D01*
X332555Y262302D01*
Y264046D01*
X331709Y264892D01*
X316781D01*
X315381Y263492D01*
G01X342141Y202856D02*
X340672Y204325D01*
Y207303D01*
X341838Y208469D01*
X341869D01*
X342476Y209076D01*
Y210824D01*
X341492Y211808D01*
X336621D01*
X335916Y212514D01*
X334515Y213915D01*
X331985D01*
X329682Y216218D01*
Y216782D01*
X329968Y217068D01*
X330532D01*
X332600Y215000D01*
X334900D01*
X337000Y212900D01*
X341500D01*
X341783Y213183D01*
Y215917D01*
X338000Y219700D01*
X330799D01*
X330400Y220099D01*
Y221087D01*
X330614Y221301D01*
X333401D01*
X334700Y222600D01*
Y224816D01*
X333716Y225800D01*
X329781D01*
X328968Y224987D01*
Y224304D01*
X328740Y224076D01*
X328419D01*
X328191Y224304D01*
Y224987D01*
X327378Y225800D01*
X325714D01*
X325700Y225814D01*
Y228700D01*
X326597Y229597D01*
X332124D01*
X333529Y231002D01*
Y232990D01*
X332019Y234500D01*
X326200D01*
X325700Y235000D01*
Y236700D01*
X326334Y237334D01*
X331988D01*
X332124Y237471D01*
X333529Y238876D01*
Y240899D01*
X332020Y242408D01*
X326612D01*
X325792Y243228D01*
Y244388D01*
X326749Y245345D01*
X332124D01*
X333529Y246750D01*
Y248785D01*
X332033Y250281D01*
X322675D01*
X321855Y251101D01*
Y252261D01*
X322675Y253081D01*
X327076D01*
X327095Y253100D01*
X332388D01*
X332800Y253511D01*
X333528Y254239D01*
Y256612D01*
X332123Y258017D01*
X322813D01*
X321855Y258975D01*
Y260135D01*
X322684Y260964D01*
X332630D01*
X333554Y261888D01*
Y264460D01*
X332123Y265891D01*
X316919D01*
X315381Y267429D01*
G01X342141Y206792D02*
X343370Y205563D01*
X343576D01*
X343679Y205666D01*
Y213928D01*
X342601Y215006D01*
Y216486D01*
X341816Y217271D01*
Y218421D01*
X343331Y219936D01*
Y220256D01*
X343101Y220486D01*
X342781D01*
X341266Y218971D01*
X340116D01*
X339303Y219784D01*
Y220934D01*
X340818Y222449D01*
Y222769D01*
X340588Y222999D01*
X340268D01*
X338753Y221484D01*
X337603D01*
X336466Y222621D01*
Y268147D01*
X335645Y268968D01*
X331711D01*
X331710Y268967D01*
X326200D01*
X324656Y270511D01*
Y272669D01*
X324948Y272962D01*
X325203Y273217D01*
X325891Y273904D01*
X335646D01*
X336606Y274864D01*
Y276299D01*
X336063Y276842D01*
X326199D01*
X324656Y278385D01*
Y293631D01*
X324063Y294224D01*
X321849D01*
X321621Y293996D01*
Y293266D01*
X320808Y292453D01*
X319659D01*
X318846Y293266D01*
Y293996D01*
X318618Y294224D01*
X318297D01*
X318069Y293996D01*
Y293266D01*
X317256Y292453D01*
X316107D01*
X315294Y293266D01*
Y293996D01*
X315066Y294224D01*
X314214D01*
X313843Y293853D01*
Y290058D01*
X312300Y288515D01*
X306928D01*
X306108Y287695D01*
Y286422D01*
X306952Y285578D01*
X320313D01*
X321718Y284173D01*
Y270805D01*
X319914Y269001D01*
X318417D01*
G02X316850Y270568I0J1567D01*
G01Y270967D01*
G03X316451Y271366I-399J0D01*
G01X315381D01*
G01X346078Y202856D02*
X344678Y204256D01*
Y214342D01*
X343600Y215420D01*
Y216900D01*
X342815Y217685D01*
Y218007D01*
X344330Y219522D01*
Y220670D01*
X343515Y221485D01*
X342367D01*
X340852Y219970D01*
X340530D01*
X340302Y220198D01*
Y220520D01*
X341817Y222035D01*
Y223183D01*
X341002Y223998D01*
X339854D01*
X338339Y222483D01*
X338017D01*
X337465Y223035D01*
Y268561D01*
X336060Y269966D01*
X334486D01*
X334485Y269967D01*
X331711D01*
X331710Y269966D01*
X326857D01*
X326856Y269967D01*
X326613D01*
X325655Y270925D01*
Y272255D01*
X326505Y273105D01*
X336261D01*
X337605Y274450D01*
Y276713D01*
X336477Y277841D01*
X326613D01*
X325655Y278799D01*
Y294045D01*
X324477Y295223D01*
X321435D01*
X320622Y294410D01*
Y293680D01*
X320394Y293452D01*
X320073D01*
X319845Y293680D01*
Y294410D01*
X319032Y295223D01*
X317883D01*
X317070Y294410D01*
Y293680D01*
X316842Y293452D01*
X316521D01*
X316293Y293680D01*
Y294410D01*
X315480Y295223D01*
X313800D01*
X312844Y294267D01*
Y290472D01*
X311886Y289514D01*
X306514D01*
X305109Y288109D01*
Y286291D01*
X306821Y284579D01*
X319899D01*
X320719Y283759D01*
Y271219D01*
X319500Y270000D01*
X318417D01*
G02X317849Y270568I0J568D01*
G01Y270967D01*
G02X318248Y271366I399J0D01*
G01X319318D01*
G01X346078Y198918D02*
X347547Y200387D01*
Y220340D01*
X346893Y220994D01*
X346593D01*
X340520Y227067D01*
Y280126D01*
X339867Y280779D01*
X329821D01*
X328593Y282007D01*
Y288692D01*
X329415Y289514D01*
X339446D01*
X340542Y290610D01*
Y292046D01*
X341947Y293451D01*
Y295586D01*
X341533Y296000D01*
X310633D01*
X310405Y295772D01*
Y294613D01*
X309592Y293800D01*
X308443D01*
X307630Y294613D01*
Y295772D01*
X307402Y296000D01*
X307081D01*
X306853Y295772D01*
Y294613D01*
X306040Y293800D01*
X304891D01*
X304078Y294613D01*
Y295772D01*
X303850Y296000D01*
X302400D01*
X302033Y295633D01*
Y282598D01*
X302991Y281640D01*
X316376D01*
X317849Y280167D01*
Y276773D01*
X319318Y275304D01*
G01X350815Y263493D02*
Y262323D01*
G02X350416Y261924I-399J0D01*
G01X350017D01*
G02X349400Y262541I0J617D01*
G01Y268300D01*
X349930Y268830D01*
X351516D01*
X353104Y270418D01*
Y280796D01*
X352353Y281547D01*
X345947D01*
X344589Y280189D01*
Y278011D01*
X345700Y276900D01*
X347700D01*
X348526Y276074D01*
Y274514D01*
X347826Y273814D01*
X345914D01*
X344425Y272325D01*
X344590Y262602D01*
Y258608D01*
X344659Y258538D01*
X344660D01*
X345931Y257267D01*
X352033D01*
X352316Y256984D01*
Y255012D01*
X351432Y254128D01*
X346087D01*
X344589Y252630D01*
Y250734D01*
X345930Y249393D01*
X351273D01*
X352305Y248361D01*
Y246905D01*
X351600Y246200D01*
X346033D01*
X344589Y244756D01*
Y242860D01*
X345930Y241519D01*
X351431D01*
X352463Y240487D01*
Y239411D01*
X351432Y238380D01*
X346087D01*
X344589Y236882D01*
Y234911D01*
X345855Y233645D01*
X351431D01*
X352463Y232613D01*
Y231163D01*
X351800Y230500D01*
X346082D01*
X344476Y228894D01*
Y226701D01*
X344568Y226609D01*
X346601Y224577D01*
Y224099D01*
X351593Y219107D01*
Y208240D01*
X351463Y208110D01*
Y198014D01*
X351553Y197924D01*
Y189730D01*
X351398Y189575D01*
X350999D01*
X350978Y189554D01*
X349398D01*
X349355Y189597D01*
X346738D01*
X346695Y189554D01*
X333649D01*
X333606Y189597D01*
X331777D01*
X330330Y191044D01*
G01X350815Y259556D02*
Y260726D01*
G03X350416Y261125I-399J0D01*
G01X350017D01*
G02X348601Y262541I0J1416D01*
G01Y268631D01*
X349599Y269629D01*
X351185D01*
X352305Y270749D01*
Y280465D01*
X352022Y280748D01*
X346278D01*
X345388Y279858D01*
Y278342D01*
X346031Y277699D01*
X348031D01*
X349325Y276405D01*
Y274183D01*
X348157Y273015D01*
X346245D01*
X345230Y272000D01*
X345389Y262609D01*
Y258939D01*
X346262Y258066D01*
X352364D01*
X353115Y257315D01*
Y254681D01*
X351763Y253329D01*
X346418D01*
X345388Y252299D01*
Y251065D01*
X346261Y250192D01*
X351604D01*
X353104Y248692D01*
Y246574D01*
X351931Y245401D01*
X346364D01*
X345388Y244425D01*
Y243191D01*
X346261Y242318D01*
X351762D01*
X353262Y240818D01*
Y239080D01*
X351763Y237581D01*
X346418D01*
X345388Y236551D01*
Y235242D01*
X346186Y234444D01*
X351762D01*
X353262Y232944D01*
Y230832D01*
X352131Y229701D01*
X346413D01*
X345275Y228563D01*
Y227316D01*
X347600Y224991D01*
Y224513D01*
X352592Y219521D01*
Y207826D01*
X352462Y207696D01*
Y198014D01*
X352552Y197924D01*
Y195689D01*
X352462Y195599D01*
Y194365D01*
X352552Y194275D01*
Y191751D01*
X352462Y191661D01*
Y190427D01*
X352552Y190337D01*
Y189316D01*
X351812Y188576D01*
X350999D01*
X350977Y188598D01*
X331820D01*
X330330Y187108D01*
G01X390208Y259555D02*
X391677Y258086D01*
Y223805D01*
X392490Y222992D01*
X393073D01*
X393301Y222764D01*
Y222443D01*
X393073Y222215D01*
X390866D01*
X390053Y221402D01*
Y220253D01*
X390866Y219440D01*
X393073D01*
X393301Y219212D01*
Y218891D01*
X393073Y218663D01*
X392490D01*
X391677Y217850D01*
Y210190D01*
X390679Y209191D01*
X388414D01*
X387009Y207786D01*
Y206351D01*
X386050Y205392D01*
X384613D01*
X382934Y203713D01*
Y190447D01*
X382086Y189599D01*
X372386D01*
X371122Y188335D01*
Y174302D01*
X372623Y172801D01*
X386714D01*
X388008Y174095D01*
Y183750D01*
X388828Y184570D01*
X402212D01*
X403617Y185975D01*
Y188102D01*
X402212Y189507D01*
X388965D01*
X388008Y190464D01*
Y203436D01*
X388828Y204256D01*
X389988D01*
X390544Y203700D01*
X392208D01*
X392764Y204256D01*
X393924D01*
X394883Y203297D01*
Y197924D01*
X396356Y196451D01*
X399749D01*
X401218Y194982D01*
G01X361848Y202856D02*
X360378Y201386D01*
X359979D01*
X359580Y201785D01*
Y213070D01*
X359808Y213298D01*
X360272D01*
X360500Y213526D01*
Y213847D01*
X360272Y214075D01*
X359808D01*
X359580Y214303D01*
Y214624D01*
X359808Y214852D01*
X360272D01*
X360500Y215080D01*
Y215401D01*
X360272Y215629D01*
X359808D01*
X359580Y215857D01*
Y271367D01*
X360707Y272493D01*
X360709D01*
X360982Y272766D01*
X365433D01*
X365500Y272699D01*
X365524D01*
X365591Y272766D01*
X367166D01*
X367986Y271946D01*
Y270502D01*
X369657Y268830D01*
X380043D01*
X380934Y269721D01*
Y291632D01*
X381754Y292452D01*
X383535D01*
X383801Y292186D01*
Y269986D01*
X384886Y268901D01*
X387514D01*
X388808Y270195D01*
Y291632D01*
X389628Y292452D01*
X390788D01*
X391608Y291632D01*
Y274310D01*
X393082Y272836D01*
X396612D01*
X398082Y271366D01*
G01Y275304D02*
X396613Y273835D01*
X393496D01*
X392607Y274724D01*
Y292046D01*
X391202Y293451D01*
X389214D01*
X387809Y292046D01*
Y270609D01*
X387100Y269900D01*
X385300D01*
X384800Y270400D01*
Y292600D01*
X383949Y293451D01*
X381340D01*
X379935Y292046D01*
Y270140D01*
X379626Y269831D01*
X370072D01*
X369124Y270780D01*
X368987Y270917D01*
Y272361D01*
X367581Y273767D01*
X360567D01*
X358581Y271781D01*
Y201371D01*
X359565Y200387D01*
X360379D01*
X361848Y198918D01*
G01X402019Y263492D02*
X400550Y262023D01*
X397852D01*
X397541Y262053D01*
X396682Y262912D01*
Y264486D01*
X395139Y266029D01*
X381478D01*
X379935Y264486D01*
Y226408D01*
X379707Y226180D01*
X362113D01*
X361300Y225367D01*
Y224218D01*
X362113Y223405D01*
X379707D01*
X379935Y223177D01*
Y222856D01*
X379707Y222628D01*
X362113D01*
X361300Y221815D01*
Y220666D01*
X362113Y219853D01*
X363517D01*
X363745Y219625D01*
Y209313D01*
X364558Y208500D01*
X365707D01*
X366520Y209313D01*
Y219625D01*
X366748Y219853D01*
X366749D01*
X366751Y219851D01*
X374446D01*
X375059Y219238D01*
Y218377D01*
X375873Y217563D01*
X379171D01*
X379399Y217335D01*
Y217012D01*
X379171Y216784D01*
X375873D01*
X375059Y215970D01*
Y198338D01*
X374982Y196061D01*
X375033Y195608D01*
X375032D01*
X375033Y195607D01*
X375077Y195208D01*
X375116Y194812D01*
X375162Y194775D01*
X375197Y194418D01*
Y193988D01*
X376602Y192583D01*
X378590D01*
X379995Y193988D01*
Y199906D01*
X380134Y200045D01*
Y201456D01*
X381534Y202856D01*
G01X402019Y259555D02*
X400550Y261024D01*
X397803D01*
X397088Y261093D01*
X395683Y262498D01*
Y264072D01*
X394725Y265030D01*
X381892D01*
X380934Y264072D01*
Y225994D01*
X380121Y225181D01*
X362527D01*
X362299Y224953D01*
Y224632D01*
X362527Y224404D01*
X380121D01*
X380934Y223591D01*
Y222442D01*
X380121Y221629D01*
X378730D01*
X378502Y221401D01*
Y220728D01*
X378274Y220500D01*
X377951D01*
X377723Y220728D01*
Y221401D01*
X377495Y221629D01*
X362527D01*
X362299Y221401D01*
Y221080D01*
X362527Y220852D01*
X363931D01*
X364744Y220039D01*
Y209727D01*
X364972Y209499D01*
X365293D01*
X365521Y209727D01*
Y220039D01*
X366334Y220852D01*
X374861D01*
X376060Y219653D01*
Y218792D01*
X376288Y218564D01*
X379586D01*
X380400Y217750D01*
Y216597D01*
X379586Y215783D01*
X376288D01*
X376060Y215555D01*
Y198338D01*
X375983Y198261D01*
Y196118D01*
X376028Y195721D01*
X376030D01*
X376076Y195322D01*
X376116Y195291D01*
X376196Y194467D01*
Y194402D01*
X377016Y193582D01*
X378176D01*
X378996Y194402D01*
Y200063D01*
X378911Y200148D01*
X378826D01*
X377596Y198918D01*
G01X381534Y159548D02*
Y156499D01*
X381135Y156100D01*
X378568D01*
X376058Y158610D01*
Y160128D01*
X377016Y161086D01*
X386464D01*
X387869Y162491D01*
Y164470D01*
X387900Y164501D01*
Y168400D01*
X388460Y168960D01*
X394752D01*
X395882Y170090D01*
Y176452D01*
X396265Y176835D01*
X402212D01*
X403756Y178379D01*
Y179814D01*
X404576Y180634D01*
X406011D01*
X406148Y180771D01*
X406150D01*
X407555Y182176D01*
Y182177D01*
X407692Y182314D01*
Y183750D01*
X408651Y184709D01*
X410776D01*
X414768Y180717D01*
X415916D01*
X416731Y181532D01*
Y182680D01*
X412556Y186855D01*
Y187177D01*
X412784Y187405D01*
X413106D01*
X417281Y183230D01*
X418429D01*
X419244Y184045D01*
Y185193D01*
X415069Y189368D01*
Y189690D01*
X415297Y189918D01*
X415619D01*
X419794Y185743D01*
X420942D01*
X421757Y186558D01*
Y187706D01*
X417582Y191881D01*
Y192203D01*
X418400Y193021D01*
Y195310D01*
X418628Y195538D01*
X421287D01*
X422100Y196351D01*
Y197500D01*
X421287Y198313D01*
X418628D01*
X418400Y198541D01*
Y206708D01*
X421300Y209608D01*
Y214539D01*
X420487Y215352D01*
X420027D01*
X419799Y215580D01*
Y215901D01*
X420027Y216129D01*
X420487D01*
X421300Y216942D01*
Y218091D01*
X420487Y218904D01*
X420027D01*
X419799Y219132D01*
Y219453D01*
X420027Y219681D01*
X420487D01*
X421300Y220494D01*
Y222100D01*
X417033Y226367D01*
X411232D01*
X410940Y226659D01*
X409312D01*
X408492Y227479D01*
Y255788D01*
X408493Y255789D01*
Y256198D01*
X409382Y257087D01*
X412361D01*
X413830Y255618D01*
G01X389408Y159548D02*
X390877Y161017D01*
Y164939D01*
X391861Y165923D01*
X398402D01*
X398801Y166322D01*
Y172815D01*
X399785Y173799D01*
X411388D01*
X412201Y172986D01*
Y166727D01*
X412429Y166499D01*
X412750D01*
X412978Y166727D01*
Y172986D01*
X413791Y173799D01*
X415419D01*
X416320Y174700D01*
X417609D01*
X418510Y173799D01*
X419489D01*
X424701Y179019D01*
Y183223D01*
X424473Y183451D01*
X424228D01*
X424000Y183679D01*
Y184002D01*
X424228Y184230D01*
X424473D01*
X424701Y184458D01*
Y189061D01*
X424473Y189289D01*
X423913D01*
X423100Y190102D01*
Y191251D01*
X423913Y192064D01*
X424473D01*
X424701Y192292D01*
Y192613D01*
X424473Y192841D01*
X423913D01*
X423100Y193654D01*
Y194803D01*
X423913Y195616D01*
X424473D01*
X424701Y195844D01*
Y196165D01*
X424473Y196393D01*
X423913D01*
X423100Y197206D01*
Y198355D01*
X423913Y199168D01*
X424473D01*
X424701Y199396D01*
Y199717D01*
X424473Y199945D01*
X423913D01*
X423100Y200758D01*
Y201907D01*
X423913Y202720D01*
X424473D01*
X424701Y202948D01*
Y203269D01*
X424473Y203497D01*
X423913D01*
X423100Y204310D01*
Y205459D01*
X423913Y206272D01*
X424473D01*
X424701Y206500D01*
Y206821D01*
X424473Y207049D01*
X423913D01*
X423100Y207862D01*
Y209011D01*
X423913Y209824D01*
X424473D01*
X424701Y210052D01*
Y210373D01*
X424473Y210601D01*
X423913D01*
X423100Y211414D01*
Y212563D01*
X423913Y213376D01*
X424473D01*
X424701Y213604D01*
Y213925D01*
X424473Y214153D01*
X423913D01*
X423100Y214966D01*
Y216115D01*
X423913Y216928D01*
X424473D01*
X424701Y217156D01*
Y217477D01*
X424473Y217705D01*
X423913D01*
X423100Y218518D01*
Y219667D01*
X423913Y220480D01*
X424473D01*
X424701Y220708D01*
Y221486D01*
X419166Y227021D01*
Y236514D01*
X418346Y237334D01*
X418345D01*
X418208Y237471D01*
X416772D01*
X415367Y238876D01*
Y240312D01*
X414272Y241408D01*
X412836D01*
X411431Y242813D01*
Y248738D01*
X412836Y250143D01*
X414271D01*
X415230Y251102D01*
Y268009D01*
X414272Y268967D01*
X401575D01*
X400618Y268010D01*
Y266850D01*
X401508Y265960D01*
X404487D01*
X405956Y267429D01*
G01X381534Y151652D02*
Y154702D01*
X381135Y155101D01*
X378154D01*
X375059Y158196D01*
Y160542D01*
X376602Y162085D01*
X386050D01*
X386870Y162905D01*
Y164884D01*
X386901Y164915D01*
Y168814D01*
X388046Y169959D01*
X394338D01*
X394883Y170504D01*
Y176583D01*
X396134Y177834D01*
X401798D01*
X402757Y178793D01*
Y180228D01*
X404162Y181633D01*
X405597D01*
X405734Y181770D01*
X405736D01*
X406556Y182590D01*
Y182591D01*
X406693Y182728D01*
Y184164D01*
X408237Y185708D01*
X411190D01*
X415182Y181716D01*
X415502D01*
X415732Y181946D01*
Y182266D01*
X411557Y186441D01*
Y187591D01*
X412370Y188404D01*
X413520D01*
X417695Y184229D01*
X418015D01*
X418245Y184459D01*
Y184779D01*
X414070Y188954D01*
Y190104D01*
X414883Y190917D01*
X416033D01*
X420208Y186742D01*
X420528D01*
X420758Y186972D01*
Y187292D01*
X416583Y191467D01*
Y192617D01*
X417401Y193435D01*
Y195724D01*
X418214Y196537D01*
X420873D01*
X421101Y196765D01*
Y197086D01*
X420873Y197314D01*
X418214D01*
X417401Y198127D01*
Y207122D01*
X420301Y210022D01*
Y214125D01*
X420073Y214353D01*
X419613D01*
X418800Y215166D01*
Y216315D01*
X419613Y217128D01*
X420073D01*
X420301Y217356D01*
Y217677D01*
X420073Y217905D01*
X419613D01*
X418800Y218718D01*
Y219867D01*
X419613Y220680D01*
X420073D01*
X420301Y220908D01*
Y221686D01*
X416619Y225368D01*
X410818D01*
X410526Y225660D01*
X408898D01*
X407493Y227065D01*
Y255919D01*
X407694Y256120D01*
Y256529D01*
X409251Y258086D01*
X412361D01*
X413830Y259555D01*
G01X385470Y151652D02*
X386940Y153122D01*
Y154753D01*
X388311Y156124D01*
X415991D01*
X427401Y167534D01*
Y182535D01*
X428214Y183348D01*
X430573D01*
X430801Y183576D01*
Y183897D01*
X430573Y184125D01*
X428214D01*
X427401Y184938D01*
Y186087D01*
X428214Y186900D01*
X430573D01*
X430801Y187128D01*
Y187449D01*
X430573Y187677D01*
X428214D01*
X427401Y188490D01*
Y189639D01*
X428214Y190452D01*
X430573D01*
X430801Y190680D01*
Y191001D01*
X430573Y191229D01*
X428214D01*
X427401Y192042D01*
Y193191D01*
X428214Y194004D01*
X430573D01*
X430801Y194232D01*
Y194553D01*
X430573Y194781D01*
X428214D01*
X427401Y195594D01*
Y196743D01*
X428214Y197556D01*
X430573D01*
X430801Y197784D01*
Y198105D01*
X430573Y198333D01*
X428214D01*
X427401Y199146D01*
Y200295D01*
X428214Y201108D01*
X430573D01*
X430801Y201336D01*
Y201657D01*
X430573Y201885D01*
X428214D01*
X427401Y202698D01*
Y203847D01*
X428214Y204660D01*
X430573D01*
X430801Y204888D01*
Y205209D01*
X430573Y205437D01*
X428214D01*
X427401Y206250D01*
Y207399D01*
X428214Y208212D01*
X430573D01*
X430801Y208440D01*
Y208761D01*
X430573Y208989D01*
X428214D01*
X427401Y209802D01*
Y210951D01*
X428214Y211764D01*
X430573D01*
X430801Y211992D01*
Y212313D01*
X430573Y212541D01*
X428214D01*
X427401Y213354D01*
Y214503D01*
X428214Y215316D01*
X430573D01*
X430801Y215544D01*
Y215865D01*
X430573Y216093D01*
X428214D01*
X427401Y216906D01*
Y218055D01*
X428214Y218868D01*
X430573D01*
X430801Y219096D01*
Y219417D01*
X430573Y219645D01*
X428214D01*
X427401Y220458D01*
Y221607D01*
X428214Y222420D01*
X430573D01*
X430801Y222648D01*
Y222969D01*
X430573Y223197D01*
X428214D01*
X427401Y224010D01*
Y225086D01*
X423242Y229245D01*
Y244250D01*
X422284Y245208D01*
X415231D01*
X413830Y243807D01*
G01X389408Y151652D02*
X387939Y153121D01*
Y154339D01*
X388725Y155125D01*
X416405D01*
X428400Y167120D01*
Y182121D01*
X428628Y182349D01*
X430987D01*
X431800Y183162D01*
Y184311D01*
X430987Y185124D01*
X428628D01*
X428400Y185352D01*
Y185673D01*
X428628Y185901D01*
X430987D01*
X431800Y186714D01*
Y187863D01*
X430987Y188676D01*
X428628D01*
X428400Y188904D01*
Y189225D01*
X428628Y189453D01*
X430987D01*
X431800Y190266D01*
Y191415D01*
X430987Y192228D01*
X428628D01*
X428400Y192456D01*
Y192777D01*
X428628Y193005D01*
X430987D01*
X431800Y193818D01*
Y194967D01*
X430987Y195780D01*
X428628D01*
X428400Y196008D01*
Y196329D01*
X428628Y196557D01*
X430987D01*
X431800Y197370D01*
Y198519D01*
X430987Y199332D01*
X428628D01*
X428400Y199560D01*
Y199881D01*
X428628Y200109D01*
X430987D01*
X431800Y200922D01*
Y202071D01*
X430987Y202884D01*
X428628D01*
X428400Y203112D01*
Y203433D01*
X428628Y203661D01*
X430987D01*
X431800Y204474D01*
Y205623D01*
X430987Y206436D01*
X428628D01*
X428400Y206664D01*
Y206985D01*
X428628Y207213D01*
X430987D01*
X431800Y208026D01*
Y209175D01*
X430987Y209988D01*
X428628D01*
X428400Y210216D01*
Y210537D01*
X428628Y210765D01*
X430987D01*
X431800Y211578D01*
Y212727D01*
X430987Y213540D01*
X428628D01*
X428400Y213768D01*
Y214089D01*
X428628Y214317D01*
X430987D01*
X431800Y215130D01*
Y216279D01*
X430987Y217092D01*
X428628D01*
X428400Y217320D01*
Y217641D01*
X428628Y217869D01*
X430987D01*
X431800Y218682D01*
Y219831D01*
X430987Y220644D01*
X428628D01*
X428400Y220872D01*
Y221193D01*
X428628Y221421D01*
X430987D01*
X431800Y222234D01*
Y223383D01*
X430987Y224196D01*
X428628D01*
X428400Y224424D01*
Y225500D01*
X424241Y229659D01*
Y244664D01*
X422698Y246207D01*
X415367D01*
X413830Y247744D01*
G01X394145Y259555D02*
X392676Y258086D01*
Y224219D01*
X392904Y223991D01*
X393487D01*
X394300Y223178D01*
Y222029D01*
X393487Y221216D01*
X391280D01*
X391052Y220988D01*
Y220667D01*
X391280Y220439D01*
X393487D01*
X394300Y219626D01*
Y218477D01*
X393487Y217664D01*
X392904D01*
X392676Y217436D01*
Y209776D01*
X391094Y208192D01*
X388828D01*
X388008Y207372D01*
Y205937D01*
X386464Y204393D01*
X385027D01*
X383933Y203299D01*
Y190033D01*
X382500Y188600D01*
X372800D01*
X372121Y187921D01*
Y174716D01*
X373037Y173800D01*
X386300D01*
X387009Y174509D01*
Y184164D01*
X388414Y185569D01*
X401798D01*
X402618Y186389D01*
Y187688D01*
X401798Y188508D01*
X388551D01*
X387009Y190050D01*
Y203850D01*
X388414Y205255D01*
X390402D01*
X390958Y204699D01*
X391794D01*
X392350Y205255D01*
X394338D01*
X395882Y203711D01*
Y198338D01*
X396770Y197450D01*
X399750D01*
X401218Y198918D01*
G01X390208Y255618D02*
X388669Y254079D01*
Y227065D01*
X388600Y226996D01*
Y223463D01*
X387787Y222650D01*
X386627D01*
X386399Y222422D01*
Y222101D01*
X386627Y221873D01*
X387787D01*
X388600Y221060D01*
Y219911D01*
X387787Y219098D01*
X386627D01*
X386399Y218870D01*
Y218549D01*
X386627Y218321D01*
X387787D01*
X388600Y217508D01*
Y216359D01*
X387787Y215546D01*
X386627D01*
X386399Y215318D01*
Y214997D01*
X386627Y214769D01*
X387787D01*
X388600Y213956D01*
Y211187D01*
X385813Y208400D01*
X378500D01*
X377600Y209300D01*
Y212500D01*
X379000Y213900D01*
X381400D01*
X382300Y214800D01*
Y224500D01*
X383936Y226136D01*
Y226264D01*
X383871Y226329D01*
Y260686D01*
X385277Y262092D01*
X394990D01*
X396544Y260538D01*
Y226369D01*
X397122Y225792D01*
Y224522D01*
X397350Y224294D01*
X399210D01*
X400023Y223481D01*
Y222332D01*
X399210Y221519D01*
X397350D01*
X397122Y221291D01*
Y220970D01*
X397350Y220742D01*
X399210D01*
X400023Y219929D01*
Y218780D01*
X399210Y217967D01*
X397350D01*
X397122Y217739D01*
Y217418D01*
X397350Y217190D01*
X399210D01*
X400023Y216377D01*
Y215228D01*
X399210Y214415D01*
X397350D01*
X397122Y214187D01*
Y212691D01*
X399750Y210063D01*
Y208260D01*
X401218Y206792D01*
G01X386271Y259555D02*
X387670Y258156D01*
X387667Y256819D01*
X388549Y255937D01*
Y255373D01*
X387670Y254493D01*
Y227479D01*
X387601Y227410D01*
Y223877D01*
X387373Y223649D01*
X386213D01*
X385400Y222836D01*
Y221687D01*
X386213Y220874D01*
X387373D01*
X387601Y220646D01*
Y220325D01*
X387373Y220097D01*
X386213D01*
X385400Y219284D01*
Y218135D01*
X386213Y217322D01*
X387373D01*
X387601Y217094D01*
Y216773D01*
X387373Y216545D01*
X386213D01*
X385400Y215732D01*
Y214583D01*
X386213Y213770D01*
X387373D01*
X387601Y213542D01*
Y211601D01*
X385399Y209399D01*
X378914D01*
X378599Y209714D01*
Y212086D01*
X379414Y212901D01*
X381814D01*
X383299Y214386D01*
Y224086D01*
X384935Y225722D01*
Y226678D01*
X384870Y226743D01*
Y260272D01*
X385691Y261093D01*
X394576D01*
X394714Y260955D01*
X394725D01*
X395545Y260135D01*
Y225954D01*
X396123Y225377D01*
Y224108D01*
X396936Y223295D01*
X398796D01*
X399024Y223067D01*
Y222746D01*
X398796Y222518D01*
X396936D01*
X396123Y221705D01*
Y220556D01*
X396936Y219743D01*
X398796D01*
X399024Y219515D01*
Y219194D01*
X398796Y218966D01*
X396936D01*
X396123Y218153D01*
Y217004D01*
X396936Y216191D01*
X398796D01*
X399024Y215963D01*
Y215642D01*
X398796Y215414D01*
X396936D01*
X396123Y214601D01*
Y212277D01*
X398751Y209649D01*
Y208261D01*
X397282Y206792D01*
G01X405956Y243807D02*
X404508Y245255D01*
X401401D01*
X400582Y244436D01*
Y240541D01*
X400528Y240487D01*
Y227442D01*
X400619Y227351D01*
Y226931D01*
X401251Y226299D01*
X406314D01*
X408013Y224600D01*
X410487D01*
X410496Y224591D01*
X415422D01*
X418023Y221990D01*
Y220384D01*
X417210Y219571D01*
X402027D01*
X401799Y219343D01*
Y219022D01*
X402027Y218794D01*
X405710D01*
X406523Y217981D01*
Y211127D01*
X406751Y210899D01*
X407072D01*
X407300Y211127D01*
Y217981D01*
X408113Y218794D01*
X409262D01*
X410075Y217981D01*
Y211127D01*
X410303Y210899D01*
X410624D01*
X410852Y211127D01*
Y217981D01*
X411665Y218794D01*
X412814D01*
X413627Y217981D01*
Y211127D01*
X413855Y210899D01*
X414176D01*
X414404Y211127D01*
Y217981D01*
X415217Y218794D01*
X417210D01*
X418023Y217981D01*
Y209710D01*
X416199Y207886D01*
Y207018D01*
X415386Y206205D01*
X412327D01*
X412099Y205977D01*
Y205656D01*
X412327Y205428D01*
X415386D01*
X416199Y204615D01*
Y203466D01*
X415386Y202653D01*
X412327D01*
X412099Y202425D01*
Y202104D01*
X412327Y201876D01*
X415386D01*
X416199Y201063D01*
Y199914D01*
X415386Y199101D01*
X412327D01*
X412099Y198873D01*
Y198552D01*
X412327Y198324D01*
X415386D01*
X416199Y197511D01*
Y193986D01*
X414653Y192440D01*
X410535D01*
X410282Y192693D01*
X392396D01*
X391001Y194088D01*
Y199693D01*
G03X390206Y200488I-795J0D01*
G01X389807D01*
G03X389408Y200089I0J-399D01*
G01Y198918D01*
G01X405956Y247744D02*
X404466Y246254D01*
X400987D01*
X399583Y244850D01*
Y226317D01*
X400600Y225300D01*
X405900D01*
X407599Y223601D01*
X410073D01*
X410082Y223592D01*
X415008D01*
X417024Y221576D01*
Y220798D01*
X416796Y220570D01*
X401613D01*
X400800Y219757D01*
Y218608D01*
X401613Y217795D01*
X405296D01*
X405524Y217567D01*
Y210713D01*
X406337Y209900D01*
X407486D01*
X408299Y210713D01*
Y217567D01*
X408527Y217795D01*
X408848D01*
X409076Y217567D01*
Y210713D01*
X409889Y209900D01*
X411038D01*
X411851Y210713D01*
Y217567D01*
X412079Y217795D01*
X412400D01*
X412628Y217567D01*
Y210713D01*
X413441Y209900D01*
X414590D01*
X415403Y210713D01*
Y217567D01*
X415631Y217795D01*
X416796D01*
X417024Y217567D01*
Y210124D01*
X415200Y208300D01*
Y207432D01*
X414972Y207204D01*
X411913D01*
X411100Y206391D01*
Y205242D01*
X411913Y204429D01*
X414972D01*
X415200Y204201D01*
Y203880D01*
X414972Y203652D01*
X411913D01*
X411100Y202839D01*
Y201690D01*
X411913Y200877D01*
X414972D01*
X415200Y200649D01*
Y200328D01*
X414972Y200100D01*
X411913D01*
X411100Y199287D01*
Y198138D01*
X411913Y197325D01*
X414972D01*
X415200Y197097D01*
Y194400D01*
X414239Y193439D01*
X410611D01*
X410558Y193492D01*
X392727D01*
X391800Y194419D01*
Y199693D01*
G03X390206Y201287I-1594J0D01*
G01X389807D01*
G02X389408Y201686I0J399D01*
G01Y202856D01*
G01X393344Y159548D02*
X391876Y161016D01*
Y164525D01*
X392275Y164924D01*
X398816D01*
X399800Y165908D01*
Y172401D01*
X400199Y172800D01*
X410974D01*
X411202Y172572D01*
Y166313D01*
X412015Y165500D01*
X413164D01*
X413977Y166313D01*
Y172572D01*
X414205Y172800D01*
X415833D01*
X416734Y173701D01*
X417195D01*
X418096Y172800D01*
X419904D01*
X425700Y178605D01*
Y189475D01*
X424887Y190288D01*
X424327D01*
X424099Y190516D01*
Y190837D01*
X424327Y191065D01*
X424887D01*
X425700Y191878D01*
Y193027D01*
X424887Y193840D01*
X424327D01*
X424099Y194068D01*
Y194389D01*
X424327Y194617D01*
X424887D01*
X425700Y195430D01*
Y196579D01*
X424887Y197392D01*
X424327D01*
X424099Y197620D01*
Y197941D01*
X424327Y198169D01*
X424887D01*
X425700Y198982D01*
Y200131D01*
X424887Y200944D01*
X424327D01*
X424099Y201172D01*
Y201493D01*
X424327Y201721D01*
X424887D01*
X425700Y202534D01*
Y203683D01*
X424887Y204496D01*
X424327D01*
X424099Y204724D01*
Y205045D01*
X424327Y205273D01*
X424887D01*
X425700Y206086D01*
Y207235D01*
X424887Y208048D01*
X424327D01*
X424099Y208276D01*
Y208597D01*
X424327Y208825D01*
X424887D01*
X425700Y209638D01*
Y210787D01*
X424887Y211600D01*
X424327D01*
X424099Y211828D01*
Y212149D01*
X424327Y212377D01*
X424887D01*
X425700Y213190D01*
Y214339D01*
X424887Y215152D01*
X424327D01*
X424099Y215380D01*
Y215701D01*
X424327Y215929D01*
X424887D01*
X425700Y216742D01*
Y217891D01*
X424887Y218704D01*
X424327D01*
X424099Y218932D01*
Y219253D01*
X424327Y219481D01*
X424887D01*
X425700Y220294D01*
Y221900D01*
X420165Y227435D01*
Y236928D01*
X418760Y238333D01*
X418759D01*
X418622Y238470D01*
X417186D01*
X416366Y239290D01*
Y240726D01*
X416074Y241018D01*
X414686Y242407D01*
X413250D01*
X412430Y243227D01*
Y248324D01*
X413250Y249144D01*
X414686D01*
X415327Y249785D01*
Y249786D01*
X416229Y250688D01*
Y268423D01*
X414686Y269966D01*
X401161D01*
X399619Y268424D01*
Y266436D01*
X401094Y264961D01*
X404487D01*
X405956Y263492D01*
G54D14*
G01X255000Y-52500D02*
X490000D01*
Y-135000D01*
X255000D01*
G01Y-52500D02*
Y-135000D01*
G01X490000Y-107500D02*
X255000D01*
G01Y-80000D02*
X490000D01*
G01X335000D02*
Y-107500D01*
G01X405000D02*
Y-135000D01*
X178800Y109200D03*
X175600Y109600D03*
X182000Y109000D03*
X196000Y106000D03*
X188000Y109000D03*
X271000Y105000D03*
X436000Y106000D03*
X437000Y103000D03*
X434000Y108000D03*
X432000Y110000D03*
X431000Y120000D03*
X430000Y113000D03*
G54D15*
G01X20900Y141700D02*
Y136200D01*
X34600Y122500D01*
G01D02*
X42000D01*
X45600Y118900D01*
G01X285200Y362000D02*
X282940Y364259D01*
Y366653D01*
X280193Y369400D01*
X277200D01*
X271500Y363700D01*
X258191D01*
X256007Y365884D01*
X202084D01*
X172000Y335800D01*
Y335635D01*
X162265Y325900D01*
X145100D01*
X127150Y343850D01*
X116343D01*
X114303Y345890D01*
X90249D01*
X83139Y353000D01*
X61000D01*
X196727Y19727D03*
Y24727D03*
X266727Y19727D03*
X261727Y14727D03*
X251727Y19727D03*
X266727Y39727D03*
X261727Y29727D03*
X271727Y19727D03*
X442727Y19227D03*
X452727Y34227D03*
X462727Y14227D03*
X472727Y19227D03*
Y14227D03*
X467727Y19227D03*
Y39227D03*
G54D16*
X274000Y183000D03*
X284000D03*
X459500Y188000D03*
X449500D03*
X492500Y275000D03*
X502500D03*
X744000Y236400D03*
Y246400D03*
G54D17*
G01X196727Y19727D02*
X194500Y17500D01*
X172400D01*
X166800Y23100D01*
X155700D01*
G01X196727Y24727D02*
Y19727D01*
G01X197600Y166100D02*
Y148100D01*
X199100Y146600D01*
G01X494953Y167500D02*
X490953Y171500D01*
X470236D01*
X459500Y160764D01*
G01X524100D02*
X521736D01*
X511500Y171000D01*
X498453D01*
X494953Y167500D01*
G54D18*
G01X175600Y109600D02*
Y93966D01*
X229427Y40139D01*
Y38788D01*
X231188Y37027D01*
X232539D01*
X234027Y35539D01*
Y29188D01*
X236188Y27027D01*
X237539D01*
X239027Y25539D01*
Y24188D01*
X241188Y22027D01*
X242666D01*
X244027Y20666D01*
Y19188D01*
X246188Y17027D01*
X247666D01*
X249027Y15666D01*
Y14188D01*
X252256Y10959D01*
X271198D01*
X274017Y13778D01*
Y20676D01*
X272666Y22027D01*
X271188D01*
X269027Y24188D01*
Y25666D01*
X267666Y27027D01*
X261188D01*
X259437Y28778D01*
Y35676D01*
X260788Y37027D01*
X264027D01*
X266727Y39727D01*
G01Y19727D02*
X264026Y22427D01*
X260788D01*
X259427Y23788D01*
Y25266D01*
X257266Y27427D01*
X255788D01*
X254427Y28788D01*
Y61967D01*
X213994Y102400D01*
X210622D01*
X200304Y112718D01*
X182818D01*
X179300Y109200D01*
X178800D01*
G01X182000Y109000D02*
X182100D01*
X184340Y111240D01*
X199660D01*
X211100Y99800D01*
X214503D01*
X243472Y70831D01*
Y53627D01*
X249427Y47673D01*
Y28788D01*
X251188Y27027D01*
X252666D01*
X254027Y25666D01*
Y24188D01*
X256188Y22027D01*
X257666D01*
X259027Y20666D01*
Y17426D01*
X261727Y14727D01*
G01X196000Y106000D02*
X236150Y65850D01*
Y53450D01*
X244427Y45173D01*
Y28788D01*
X246188Y27027D01*
X247666D01*
X249427Y25266D01*
Y23774D01*
X251727Y21474D01*
Y19727D01*
G01X188000Y109000D02*
X233199Y63801D01*
Y46508D01*
X239427Y40280D01*
Y28915D01*
X241315Y27027D01*
X242666D01*
X244427Y25266D01*
Y23788D01*
X246188Y22027D01*
X247666D01*
X249427Y20266D01*
Y18788D01*
X251188Y17027D01*
X252666D01*
X254427Y15266D01*
Y13788D01*
X255778Y12437D01*
X267676D01*
X269027Y13788D01*
Y17027D01*
X271727Y19727D01*
G01X271000Y105000D02*
Y69700D01*
X274040Y66660D01*
Y38801D01*
X272666Y37427D01*
X271315D01*
X269027Y35139D01*
Y33788D01*
X267666Y32427D01*
X264427D01*
X261727Y29727D01*
G01X462727Y14227D02*
X458959Y10459D01*
X403379D01*
X400437Y13401D01*
Y46437D01*
X409800Y55800D01*
Y87800D01*
X432000Y110000D01*
G01X467727Y19227D02*
Y17480D01*
X470017Y15190D01*
Y13278D01*
X465720Y8981D01*
X399734D01*
X395437Y13278D01*
Y44620D01*
X407100Y56283D01*
Y90100D01*
X430000Y113000D01*
G01X434000Y108000D02*
Y106900D01*
X411700Y84600D01*
Y41453D01*
X410437Y40190D01*
Y18405D01*
X412315Y16527D01*
X443666D01*
X445427Y14766D01*
Y13288D01*
X446778Y11937D01*
X453676D01*
X455427Y13688D01*
Y15166D01*
X457188Y16927D01*
X458666D01*
X460017Y18278D01*
Y25176D01*
X458266Y26927D01*
X456788D01*
X455427Y28288D01*
Y31526D01*
X452727Y34227D01*
G01X436000Y106000D02*
X436885D01*
X465437Y77448D01*
Y38278D01*
X466788Y36927D01*
X468266D01*
X470027Y35166D01*
Y23674D01*
X472727Y20974D01*
Y19227D01*
G01X437000Y103000D02*
X460437Y79563D01*
Y38278D01*
X461788Y36927D01*
X463266D01*
X465027Y35166D01*
Y23688D01*
X466788Y21927D01*
X468266D01*
X470427Y19766D01*
Y18274D01*
X472727Y15974D01*
Y14227D01*
G01X467727Y39227D02*
Y95058D01*
X442785Y120000D01*
X431000D01*
G54D19*
G01X370522Y346192D02*
Y344928D01*
X372411Y343039D01*
Y342758D01*
X372500Y342669D01*
Y336341D01*
X374459Y334382D01*
M02*
