G04 ================== begin FILE IDENTIFICATION RECORD ==================*
G04 Layout Name:  2510300_REV-D.brd*
G04 Film Name:    L15_gnd5.gbr*
G04 File Format:  Gerber RS274X*
G04 File Origin:  Cadence Allegro 16.6-2015-S051*
G04 Origin Date:  Tue Apr 12 06:53:57 2016*
G04 *
G04 Layer:  VIA CLASS/L15_GND5*
G04 Layer:  PIN/L15_GND5*
G04 Layer:  ETCH/L15_GND5*
G04 Layer:  DRAWING FORMAT/TITLE_BLOCK*
G04 *
G04 Offset:    (0.00 0.00)*
G04 Mirror:    No*
G04 Mode:      Positive*
G04 Rotation:  0*
G04 FullContactRelief:  No*
G04 UndefLineWidth:     0.00*
G04 ================== end FILE IDENTIFICATION RECORD ====================*
%FSLAX25Y25*MOIN*%
%IR0*IPPOS*OFA0.00000B0.00000*MIA0B0*SFA1.00000B1.00000*%
%ADD19O,.07X.11*%
%ADD18O,.11X.07*%
%ADD20O,.13X.066*%
%ADD17C,.06*%
%ADD12C,.07*%
%ADD11C,.025*%
%ADD10C,.016*%
%ADD16C,.072*%
%ADD14C,.055*%
%ADD15C,.094*%
%ADD13C,.25*%
%ADD21C,.02*%
%ADD22C,.006*%
%ADD23C,.008*%
%ADD25O,.12004X.08004*%
%ADD38C,.03004*%
%ADD24O,.12004X.07704*%
%ADD40C,.02404*%
%ADD37C,.03304*%
%ADD26C,.07004*%
%ADD32C,.03504*%
%ADD29C,.08004*%
%ADD28C,.02604*%
%ADD30C,.05404*%
%ADD33C,.06504*%
%ADD31C,.07404*%
%ADD39C,.04904*%
%ADD34C,.10404*%
%ADD36C,.10504*%
%ADD35C,.19004*%
%ADD27C,.11784*%
G75*
%LPD*%
G75*
G36*
G01X2500Y2500D02*
Y385500D01*
X338854D01*
X338906Y385380D01*
G03X341294I1194J520D01*
G01X341346Y385500D01*
X368915D01*
X368965Y385372D01*
G03X372235I1635J628D01*
G01X372285Y385500D01*
X407631D01*
X407948Y385183D01*
Y385100D01*
G03X411452I1752J0D01*
G01Y385183D01*
X411769Y385500D01*
X747500D01*
Y277071D01*
X746939Y276811D01*
X746842Y276894D01*
G03Y274906I-842J-994D01*
G01X746939Y274989D01*
X747500Y274729D01*
Y248626D01*
X746869Y248413D01*
X746782Y248527D01*
G03Y244273I-2782J-2127D01*
G01X746869Y244387D01*
X747500Y244174D01*
Y238626D01*
X746869Y238413D01*
X746782Y238527D01*
G03Y234273I-2782J-2127D01*
G01X746869Y234387D01*
X747500Y234174D01*
Y228092D01*
X746913Y227847D01*
X746818Y227941D01*
G03Y222259I-2818J-2841D01*
G01X746913Y222353D01*
X747500Y222108D01*
Y215992D01*
X746913Y215747D01*
X746818Y215841D01*
G03Y210159I-2818J-2841D01*
G01X746913Y210253D01*
X747500Y210008D01*
Y203992D01*
X746913Y203747D01*
X746818Y203841D01*
G03Y198159I-2818J-2841D01*
G01X746913Y198253D01*
X747500Y198008D01*
Y105673D01*
X746913Y105429D01*
X746818Y105523D01*
G03Y103677I-918J-923D01*
G01X746913Y103771D01*
X747500Y103527D01*
Y31889D01*
X747012Y31596D01*
X746912Y31649D01*
G03X745174Y31154I-612J-1149D01*
G01X744626D01*
G03Y29846I-1126J-654D01*
G01X745174D01*
G03X746912Y29351I1126J654D01*
G01X747012Y29404D01*
X747500Y29111D01*
Y2500D01*
X657613D01*
X657295Y2837D01*
X657300Y2923D01*
G03X655765Y4281I-1300J77D01*
G01X655679Y4265D01*
X655304Y4546D01*
X655295Y4633D01*
G03X655277Y4753I-1295J-133D01*
G01X655257Y4858D01*
X655642Y5243D01*
X655747Y5223D01*
G03X655765Y7781I253J1277D01*
G01X655679Y7765D01*
X655304Y8046D01*
X655295Y8133D01*
G03X655277Y8253I-1295J-133D01*
G01X655257Y8358D01*
X655642Y8743D01*
X655747Y8723D01*
G03X654723Y9747I253J1277D01*
G01X654743Y9642D01*
X654358Y9257D01*
X654253Y9277D01*
G03X653747I-253J-1277D01*
G01X653642Y9257D01*
X653257Y9642D01*
X653277Y9747D01*
G03X652253Y8723I-1277J253D01*
G01X652358Y8743D01*
X652743Y8358D01*
X652723Y8253D01*
G03X652705Y8133I1277J-253D01*
G01X652696Y8046D01*
X652321Y7765D01*
X652235Y7781D01*
G03X652253Y5223I-235J-1281D01*
G01X652358Y5243D01*
X652743Y4858D01*
X652723Y4753D01*
G03X652705Y4633I1277J-253D01*
G01X652696Y4546D01*
X652321Y4265D01*
X652235Y4281D01*
G03X650700Y2923I-235J-1281D01*
G01X650705Y2837D01*
X650387Y2500D01*
X2500D01*
G37*
%LPC*%
G75*
G36*
G01X219285Y357289D02*
G03X219732Y357594I57J396D01*
G02X220815Y356011I1268J-294D01*
G03X220368Y355706I-57J-396D01*
G02X219285Y357289I-1268J294D01*
G37*
G36*
G01X408972Y347113D02*
G02X410813Y345272I921J-920D01*
G02X408972Y347113I-921J920D01*
G37*
G36*
G01X315381Y343558D02*
X315382D01*
G02Y340954I0J-1302D01*
G02X315381Y343558I-1J1302D01*
G37*
G36*
G01X396780Y342256D02*
G02X399384I1302J0D01*
G02X396780I-1302J-1D01*
G37*
G36*
G01X302268Y338318D02*
G02X304872I1302J1D01*
G02X302268I-1302J0D01*
G37*
G36*
G01X278258Y335001D02*
G03X277689Y334820I-204J-344D01*
G02X277163Y336471I-1189J530D01*
G03X277732Y336652I204J344D01*
G02X278258Y335001I1189J-530D01*
G37*
G36*
G01X412528Y334382D02*
G02X415132I1302J0D01*
G02X412528I-1302J-1D01*
G37*
G36*
G01X318016Y330444D02*
G02X320620I1302J1D01*
G02X318016I-1302J0D01*
G37*
G36*
G01X416846Y323491D02*
G02X418687Y321650I921J-920D01*
G02X416846Y323491I-921J920D01*
G37*
G36*
G01X404654Y318634D02*
G02X407258I1302J0D01*
G02X404654I-1302J-1D01*
G37*
G36*
G01X441202Y312302D02*
G03X441402Y312102I200J0D01*
G02X440098Y310798I-2J-1302D01*
G03X439898Y310998I-200J0D01*
G02X441202Y312302I2J1302D01*
G37*
G36*
G01X621241Y306688D02*
G03X620885Y306226I39J-398D01*
G02X619475Y307312I-1285J-210D01*
G03X619831Y307774I-39J398D01*
G02X621241Y306688I1285J210D01*
G37*
G36*
G01X314080Y302886D02*
G02X316684I1302J0D01*
G02X314080I-1302J-1D01*
G37*
G36*
G01X303570Y300250D02*
X303571D01*
G02X303570Y297646I0J-1302D01*
G02Y300250I0J1302D01*
G37*
G36*
G01X241680Y284718D02*
G03X241218Y284483I-93J-389D01*
G02X240320Y286250I-1202J501D01*
G03X240782Y286485I93J389D01*
G02X241680Y284718I1202J-501D01*
G37*
G36*
G01X117033Y283700D02*
G03X116774Y284170I-389J92D01*
G02X118467Y285100I426J1230D01*
G03X118726Y284630I389J-92D01*
G02X117033Y283700I-426J-1230D01*
G37*
G36*
G01X240103Y272054D02*
X239697D01*
X239641Y272006D01*
G02X238432Y274249I-841J994D01*
G01X238504Y274270D01*
X238726Y274621D01*
X238714Y274695D01*
G02X241277Y274644I1286J204D01*
G01X241263Y274574D01*
X241446Y274225D01*
X241512Y274197D01*
G02X240159Y272006I-512J-1197D01*
G01X240103Y272054D01*
G37*
G36*
G01X100027Y273626D02*
G03X99825Y273072I152J-369D01*
G02X98173Y273674I-1155J-602D01*
G03X98375Y274228I-152J369D01*
G02X100027Y273626I1155J602D01*
G37*
G36*
G01X649179Y259580D02*
G03X648592Y259556I-282J-283D01*
G02X648521Y261320I-992J844D01*
G03X649108Y261344I282J283D01*
G02X649179Y259580I992J-844D01*
G37*
G36*
G01X672818Y258996D02*
X672456Y258836D01*
X672424Y258773D01*
G02X670004Y259035I-1160J591D01*
G01X669984Y259111D01*
X669619Y259342D01*
X669542Y259327D01*
G02X670555Y260934I-247J1278D01*
G01X670575Y260858D01*
X670940Y260627D01*
X671017Y260642D01*
G02X671610Y260619I247J-1278D01*
G01X671678Y260600D01*
X672040Y260760D01*
X672072Y260823D01*
G02X672886Y258977I1160J-591D01*
G01X672818Y258996D01*
G37*
G36*
G01X707056Y256383D02*
G03X707620Y256360I294J272D01*
G02X707544Y254517I880J-959D01*
G03X706980Y254540I-294J-272D01*
G02X707056Y256383I-880J959D01*
G37*
G36*
G01X247774Y249404D02*
G03X247336Y249030I-39J-398D01*
G02X246162Y250402I-1300J76D01*
G03X246600Y250776I39J398D01*
G02X247774Y249404I1300J-76D01*
G37*
G36*
G01X99715Y245057D02*
G03X99729Y245611I-281J284D01*
G02X101605Y245563I961J879D01*
G03X101591Y245009I281J-284D01*
G02X99715Y245057I-961J-879D01*
G37*
G36*
G01X67779Y226271D02*
G03X67943Y225683I331J-225D01*
G02X66321Y225229I-543J-1183D01*
G03X66157Y225817I-331J225D01*
G02X67779Y226271I543J1183D01*
G37*
G36*
G01X64240Y211780D02*
G03X64217Y212344I-295J270D01*
G02X66060Y212420I884J956D01*
G03X66083Y211856I295J-270D01*
G02X64240Y211780I-884J-956D01*
G37*
G36*
G01X487707Y212511D02*
G03X487918Y211994I371J-150D01*
G02X486193Y211289I-518J-1194D01*
G03X485982Y211806I-371J150D01*
G02X487707Y212511I518J1194D01*
G37*
G36*
G01X187719Y207488D02*
Y207012D01*
G02X186081I-819J-1012D01*
G01Y207488D01*
G02X186056Y209492I819J1012D01*
G01X186123Y209548D01*
X186142Y210017D01*
X186080Y210079D01*
G02X187844Y210008I920J921D01*
G01X187777Y209952D01*
X187758Y209483D01*
X187820Y209421D01*
G02X187719Y207488I-920J-921D01*
G37*
G36*
G01X80192Y199417D02*
X80168Y198977D01*
X80222Y198915D01*
G02X78358Y199018I-982J-855D01*
G01X78418Y199073D01*
X78442Y199513D01*
X78388Y199575D01*
G02X78368Y201262I982J855D01*
G01X78420Y201324D01*
X78386Y201762D01*
X78326Y201816D01*
G02X80192Y201958I864J974D01*
G01X80140Y201896D01*
X80174Y201458D01*
X80234Y201404D01*
G02X80252Y199472I-864J-974D01*
G01X80192Y199417D01*
G37*
G36*
G01X628319Y194988D02*
Y194512D01*
G02X626681I-819J-1012D01*
G01Y194988D01*
G02Y197012I819J1012D01*
G01Y197488D01*
G02Y199512I819J1012D01*
G01Y199988D01*
G02Y202012I819J1012D01*
G01Y202488D01*
G02Y204512I819J1012D01*
G01Y204988D01*
G02Y207012I819J1012D01*
G01Y207488D01*
G02Y209512I819J1012D01*
G01Y209988D01*
G02Y212012I819J1012D01*
G01Y212488D01*
G02Y214512I819J1012D01*
G01Y214988D01*
G02Y217012I819J1012D01*
G01Y217488D01*
G02Y219512I819J1012D01*
G01Y219988D01*
G02Y222012I819J1012D01*
G01Y222488D01*
G02X628319I819J1012D01*
G01Y222012D01*
G02Y219988I-819J-1012D01*
G01Y219512D01*
G02Y217488I-819J-1012D01*
G01Y217012D01*
G02Y214988I-819J-1012D01*
G01Y214512D01*
G02Y212488I-819J-1012D01*
G01Y212012D01*
G02Y209988I-819J-1012D01*
G01Y209512D01*
G02Y207488I-819J-1012D01*
G01Y207012D01*
G02Y204988I-819J-1012D01*
G01Y204512D01*
G02Y202488I-819J-1012D01*
G01Y202012D01*
G02Y199988I-819J-1012D01*
G01Y199512D01*
G02Y197488I-819J-1012D01*
G01Y197012D01*
G02Y194988I-819J-1012D01*
G37*
G36*
G01X608319Y187488D02*
Y187012D01*
G02X606681I-819J-1012D01*
G01Y187488D01*
G02Y189512I819J1012D01*
G01Y189988D01*
G02Y192012I819J1012D01*
G01Y192488D01*
G02Y194512I819J1012D01*
G01Y194988D01*
G02Y197012I819J1012D01*
G01Y197488D01*
G02Y199512I819J1012D01*
G01Y199988D01*
G02Y202012I819J1012D01*
G01Y202488D01*
G02Y204512I819J1012D01*
G01Y204988D01*
G02Y207012I819J1012D01*
G01Y207488D01*
G02Y209512I819J1012D01*
G01Y209988D01*
G02Y212012I819J1012D01*
G01Y212488D01*
G02Y214512I819J1012D01*
G01Y214988D01*
G02Y217012I819J1012D01*
G01Y217488D01*
G02Y219512I819J1012D01*
G01Y219988D01*
G02Y222012I819J1012D01*
G01Y222488D01*
G02Y224512I819J1012D01*
G01Y224988D01*
G02X608319I819J1012D01*
G01Y224512D01*
G02Y222488I-819J-1012D01*
G01Y222012D01*
G02Y219988I-819J-1012D01*
G01Y219512D01*
G02Y217488I-819J-1012D01*
G01Y217012D01*
G02Y214988I-819J-1012D01*
G01Y214512D01*
G02Y212488I-819J-1012D01*
G01Y212012D01*
G02Y209988I-819J-1012D01*
G01Y209512D01*
G02Y207488I-819J-1012D01*
G01Y207012D01*
G02Y204988I-819J-1012D01*
G01Y204512D01*
G02Y202488I-819J-1012D01*
G01Y202012D01*
G02Y199988I-819J-1012D01*
G01Y199512D01*
G02Y197488I-819J-1012D01*
G01Y197012D01*
G02Y194988I-819J-1012D01*
G01Y194512D01*
G02Y192488I-819J-1012D01*
G01Y192012D01*
G02Y189988I-819J-1012D01*
G01Y189512D01*
G02Y187488I-819J-1012D01*
G37*
G36*
G01X41831Y182690D02*
G03Y182410I143J-140D01*
G02X39969I-931J-910D01*
G03Y182690I-143J140D01*
G02X41831I931J910D01*
G37*
G36*
G01X476280Y179987D02*
G03X476805Y179901I311J252D01*
G02X476488Y177981I695J-1101D01*
G03X475963Y178067I-311J-252D01*
G02X476280Y179987I-695J1101D01*
G37*
G36*
G01X504004Y178896D02*
G03X504474Y178661I370J152D01*
G02X503596Y176904I326J-1261D01*
G03X503126Y177139I-370J-152D01*
G02X504004Y178896I-326J1261D01*
G37*
G36*
G01X80716Y174179D02*
G03X81082Y173699I392J-81D01*
G02X79724Y172661I-83J-1299D01*
G03X79358Y173141I-392J81D01*
G02X80716Y174179I83J1299D01*
G37*
G36*
G01X80983Y166122D02*
G03X80757Y165567I132J-377D01*
G02X79157Y166218I-1167J-577D01*
G03X79383Y166773I-132J377D01*
G02X80983Y166122I1167J577D01*
G37*
G36*
G01X674302Y166002D02*
G03X674702Y165602I400J0D01*
G02X673398Y164298I-2J-1302D01*
G03X672998Y164698I-400J0D01*
G02X674302Y166002I2J1302D01*
G37*
G36*
G01X98225Y156159D02*
G03X98516Y155632I376J-136D01*
G02X97015Y154801I-276J-1272D01*
G03X96724Y155328I-376J136D01*
G02X98225Y156159I276J1272D01*
G37*
G36*
G01X101045Y127407D02*
G03X101005Y126850I266J-299D01*
G02X99145Y126983I-995J-840D01*
G03X99185Y127540I-266J299D01*
G02X101045Y127407I995J840D01*
G37*
G36*
G01X100197Y108924D02*
G03X100446Y108369I362J-171D01*
G02X98903Y107676I-366J-1249D01*
G03X98654Y108231I-362J171D01*
G02X100197Y108924I366J1249D01*
G37*
G36*
G01X271846Y106759D02*
Y106241D01*
G02X270154I-846J-1241D01*
G01Y106759D01*
G02X272241Y108846I846J1241D01*
G01X272759D01*
G02Y107154I1241J-846D01*
G01X272241D01*
G02X271846Y106759I-1241J846D01*
G37*
G36*
G01X622971Y45633D02*
Y45367D01*
G02X621029I-971J-867D01*
G01Y45633D01*
G02Y47367I971J867D01*
G01Y47633D01*
G02X622971I971J867D01*
G01Y47367D01*
G02Y45633I-971J-867D01*
G37*
G36*
G01X669633Y23529D02*
G03X669367I-133J-150D01*
G02Y25471I-867J971D01*
G03X669633I133J150D01*
G02Y23529I867J-971D01*
G37*
G36*
G01X79615Y379147D02*
G02X78385I-615J-1147D01*
G03Y379853I-189J353D01*
G02X79615I615J1147D01*
G03Y379147I189J-353D01*
G37*
G36*
G01X208465Y372787D02*
G02X207699Y371560I535J-1187D01*
G03X207135Y371913I-400J-12D01*
G02X207901Y373140I-535J1187D01*
G03X208465Y372787I400J12D01*
G37*
G36*
G01X710115Y358147D02*
G02X708885I-615J-1147D01*
G03Y358853I-189J353D01*
G02X710115I615J1147D01*
G03Y358147I189J-353D01*
G37*
G36*
G01X644170Y353730D02*
G02X641699Y354337I-1170J571D01*
G01X641702Y354447D01*
X641235Y354758D01*
X641135Y354713D01*
G02X641901Y355863I-535J1187D01*
G01X641898Y355753D01*
X642365Y355442D01*
X642465Y355487D01*
G02X643545Y355482I535J-1187D01*
G01X643809Y355576D01*
G02X644434Y353824I1170J-570D01*
G01X644170Y353730D01*
G37*
G36*
G01X672515Y354414D02*
X672537Y354309D01*
G02X670017Y354412I-1273J-273D01*
G01X670050Y354520D01*
X669666Y354942D01*
X669555Y354919D01*
G02X669064Y354914I-259J1276D01*
G01X668960Y354932D01*
X668580Y354543D01*
X668602Y354438D01*
G02X667558Y355454I-1275J-265D01*
G01X667662Y355436D01*
X668042Y355825D01*
X668020Y355930D01*
G02X668404Y357144I1275J264D01*
G01X668482Y357218D01*
X668387Y357761D01*
X668287Y357803D01*
G02X669691Y358051I512J1197D01*
G01X669613Y357977D01*
X669708Y357434D01*
X669808Y357392D01*
G02X670542Y355819I-513J-1197D01*
G01X670509Y355711D01*
X670893Y355289D01*
X671004Y355312D01*
G02X671497Y355317I259J-1276D01*
G01X671602Y355298D01*
X671981Y355690D01*
X671959Y355795D01*
G02X672999Y354787I1273J273D01*
G01X672894Y354806D01*
X672515Y354414D01*
G37*
G36*
G01X635591Y355249D02*
G02X634565Y354272I240J-1280D01*
G03X634102Y354758I-389J93D01*
G02X635128Y355735I-240J1280D01*
G03X635591Y355249I389J-93D01*
G37*
G36*
G01X650172Y353232D02*
G02X649562Y354974I-1172J567D01*
G01X649828Y355068D01*
G02X651084Y355799I1171J-568D01*
G01X651163Y355794D01*
X651498Y356073D01*
X651507Y356152D01*
G02X653777Y356861I1293J-152D01*
G01X653843Y356786D01*
X654362Y356827D01*
X654415Y356911D01*
G02X654539Y355355I1101J-695D01*
G01X654473Y355430D01*
X653954Y355389D01*
X653901Y355305D01*
G02X652716Y354701I-1101J695D01*
G01X652637Y354706D01*
X652302Y354427D01*
X652293Y354348D01*
G02X650438Y353326I-1293J152D01*
G01X650172Y353232D01*
G37*
G36*
G01X290180Y325361D02*
G02X289807Y326534I-1280J239D01*
G03X290479Y326747I279J287D01*
G02X290852Y325574I1280J-239D01*
G03X290180Y325361I-279J-287D01*
G37*
G36*
G01X621516Y322930D02*
G02X620022Y322691I-580J-1166D01*
G03X619920Y323334I-280J285D01*
G02X621414Y323573I580J1166D01*
G03X621516Y322930I280J-285D01*
G37*
G36*
G01X222147Y314385D02*
G02Y315615I-1147J615D01*
G03X222853I353J189D01*
G02Y314385I1147J-615D01*
G03X222147I-353J-189D01*
G37*
G36*
G01X115229Y310659D02*
G02X113871I-679J-1111D01*
G03Y311342I-208J341D01*
G02X115229I679J1111D01*
G03Y310659I208J-341D01*
G37*
G36*
G01X82529Y309929D02*
G02X81171I-679J-1111D01*
G03Y310612I-208J341D01*
G02X82529I679J1111D01*
G03Y309929I208J-341D01*
G37*
G36*
G01X291016Y288184D02*
G02X290544Y286646I743J-1069D01*
G03X289943Y286831I-373J-144D01*
G02X290415Y288369I-743J1069D01*
G03X291016Y288184I373J144D01*
G37*
G36*
G01X622297Y287523D02*
X622360Y287491D01*
G02X620514Y286677I-591J-1160D01*
G01X620533Y286745D01*
X620373Y287107D01*
X620310Y287139D01*
G02X620399Y289501I591J1160D01*
G01X620467Y289529D01*
X620651Y289892D01*
X620634Y289963D01*
G02X620614Y290472I1266J305D01*
G01X620629Y290563D01*
X620307Y290935D01*
X620215Y290934D01*
G02X620135Y293536I-15J1302D01*
G01X620224Y293541D01*
X620524Y293911D01*
X620509Y293999D01*
G02Y294409I1286J205D01*
G01X620524Y294501D01*
X620198Y294874D01*
X620104Y294871D01*
G02X620231Y297465I-31J1302D01*
G01X620330Y297453D01*
X620690Y297829D01*
X620674Y297928D01*
G02X621800Y296850I1284J214D01*
G01X621701Y296862D01*
X621341Y296486D01*
X621357Y296387D01*
G02X621359Y295969I-1284J-215D01*
G01X621344Y295877D01*
X621670Y295504D01*
X621764Y295507D01*
G02X621860Y292905I31J-1302D01*
G01X621771Y292900D01*
X621471Y292530D01*
X621486Y292442D01*
G02Y292032I-1286J-205D01*
G01X621471Y291941D01*
X621793Y291569D01*
X621885Y291570D01*
G02X622402Y289066I16J-1302D01*
G01X622334Y289038D01*
X622150Y288675D01*
X622167Y288604D01*
G02X622156Y287953I-1266J-304D01*
G01X622137Y287885D01*
X622297Y287523D01*
G37*
G36*
G01X622116Y279730D02*
G02X620562Y278689I-273J-1273D01*
G03X620252Y279152I-394J72D01*
G02X619588Y281329I273J1273D01*
G01X619663Y281407D01*
X619542Y281943D01*
X619441Y281981D01*
G02X618715Y283739I459J1219D01*
G01X618758Y283833D01*
X618489Y284294D01*
X618386Y284303D01*
G02X619685Y285061I114J1297D01*
G01X619642Y284967D01*
X619911Y284506D01*
X620014Y284497D01*
G02X620837Y282296I-114J-1297D01*
G01X620762Y282218D01*
X620883Y281682D01*
X620984Y281644D01*
G02X621806Y280193I-459J-1218D01*
G03X622116Y279730I394J-72D01*
G37*
G36*
G01X489865Y277307D02*
G02X489009Y275279I2635J-2307D01*
G03X488467Y275685I-399J33D01*
G02X489197Y277413I-467J1215D01*
G03X489865Y277307I367J158D01*
G37*
G36*
G01X282149Y271088D02*
G02X281840Y272695I-1149J612D01*
G03X282451Y272812I258J305D01*
G02X282760Y271205I1149J-612D01*
G03X282149Y271088I-258J-305D01*
G37*
G36*
G01X593945Y266811D02*
G02X592648Y267827I-1270J-286D01*
G03X593030Y268314I-8J400D01*
G02X594327Y267298I1270J286D01*
G03X593945Y266811I8J-400D01*
G37*
G36*
G01X271709Y264716D02*
G02X271204Y266296I-1209J484D01*
G03X271791Y266484I216J336D01*
G02X272296Y264904I1209J-484D01*
G03X271709Y264716I-216J-336D01*
G37*
G36*
G01X702380Y265545D02*
G02X700931Y265044I-381J-1245D01*
G03X700720Y265655I-328J229D01*
G02X702169Y266156I381J1245D01*
G03X702380Y265545I328J-229D01*
G37*
G36*
G01X740204Y254490D02*
X740147Y254385D01*
G02X738385Y256147I-1147J615D01*
G01X738490Y256204D01*
Y256796D01*
X738385Y256853D01*
G02X740147Y258615I615J1147D01*
G01X740204Y258510D01*
X740796D01*
X740853Y258615D01*
G02X742615Y256853I1147J-615D01*
G01X742510Y256796D01*
Y256204D01*
X742615Y256147D01*
G02X740853Y254385I-615J-1147D01*
G01X740796Y254490D01*
X740204D01*
G37*
G36*
G01X85102Y252146D02*
X85179Y252058D01*
G02X83985Y252484I-979J-858D01*
G01X84101Y252504D01*
X84298Y253054D01*
X84221Y253142D01*
G02X83911Y253820I979J858D01*
G01X83895Y253928D01*
X83392Y254161D01*
X83300Y254102D01*
G02X82116Y256409I-699J1098D01*
G01X82204Y256444D01*
X82355Y256917D01*
X82304Y256996D01*
G02X82558Y258693I1096J703D01*
G01X82639Y258762D01*
X82581Y259301D01*
X82487Y259351D01*
G02X83942Y259507I613J1149D01*
G01X83861Y259438D01*
X83919Y258899D01*
X84013Y258849D01*
G02X83884Y256491I-613J-1149D01*
G01X83796Y256456D01*
X83645Y255983D01*
X83696Y255904D01*
G02X83889Y255380I-1097J-702D01*
G01X83905Y255272D01*
X84408Y255039D01*
X84500Y255098D01*
G02X85415Y252716I700J-1098D01*
G01X85299Y252696D01*
X85102Y252146D01*
G37*
G36*
G01X290751Y248568D02*
G02X290580Y247192I1008J-824D01*
G03X289908Y247276I-362J-169D01*
G02X290079Y248652I-1008J824D01*
G03X290751Y248568I362J169D01*
G37*
G36*
G01X671370Y249621D02*
G02X669630I-870J-1521D01*
G01Y250179D01*
G02X669375Y253043I870J1521D01*
G03Y253657I-256J307D01*
G02X668752Y254888I1125J1343D01*
G01X668744Y255009D01*
X668200Y255251D01*
X668105Y255177D01*
G02X665999Y256142I-805J1023D01*
G03X665529Y256518I-399J-17D01*
G02X666601Y257858I-229J1282D01*
G03X667071Y257482I399J17D01*
G02X668579Y256442I229J-1282D01*
G01X668602Y256323D01*
X669171Y256148D01*
X669256Y256234D01*
G02X671625Y253657I1243J-1234D01*
G03Y253043I256J-307D01*
G02X671370Y250179I-1125J-1343D01*
G01Y249621D01*
G37*
G36*
G01X81983Y244249D02*
X82078Y244232D01*
G02X80658Y243474I-228J-1282D01*
G01X80697Y243562D01*
X80457Y244011D01*
X80362Y244028D01*
G02X80810Y246593I228J1282D01*
G01X80920Y246574D01*
X81292Y247001D01*
X81258Y247108D01*
G02X82280Y246217I1242J392D01*
G01X82170Y246236D01*
X81798Y245809D01*
X81832Y245702D01*
G02X81782Y244786I-1242J-392D01*
G01X81743Y244698D01*
X81983Y244249D01*
G37*
G36*
G01X284770Y237668D02*
G02X283289Y237997I-970J-868D01*
G03X283430Y238632I-157J368D01*
G02X284911Y238303I970J868D01*
G03X284770Y237668I157J-368D01*
G37*
G36*
G01X476003Y232814D02*
G02X474463Y232501I-563J-1174D01*
G03X474337Y233126I-300J265D01*
G02X475877Y233439I563J1174D01*
G03X476003Y232814I300J-265D01*
G37*
G36*
G01X163510Y228204D02*
X163615Y228147D01*
G02X162385I-615J-1147D01*
G01X162490Y228204D01*
Y228796D01*
X162385Y228853D01*
G02Y231147I615J1147D01*
G01X162490Y231204D01*
Y231796D01*
X162385Y231853D01*
G02X163615I615J1147D01*
G01X163510Y231796D01*
Y231204D01*
X163615Y231147D01*
G02Y228853I-615J-1147D01*
G01X163510Y228796D01*
Y228204D01*
G37*
G36*
G01X100861Y223728D02*
X100952Y223663D01*
G02X99601Y223756I-752J-1063D01*
G01X99700Y223808D01*
X99739Y224372D01*
X99648Y224437D01*
G02X99570Y226503I752J1063D01*
G01X99646Y226566D01*
X99627Y227081D01*
X99547Y227138D01*
G02X101130Y227197I753J1062D01*
G01X101054Y227134D01*
X101073Y226619D01*
X101153Y226562D01*
G02X100999Y224344I-753J-1062D01*
G01X100900Y224292D01*
X100861Y223728D01*
G37*
G36*
G01X147420Y219421D02*
G02X145656Y219492I-920J-921D01*
G03X145680Y220079I-259J305D01*
G02X145320Y221240I920J922D01*
G01X145339Y221340D01*
X144975Y221723D01*
X144874Y221710D01*
G02X144418Y224271I-174J1290D01*
G03X144724Y224741I-86J391D01*
G02X146282Y223729I1276J259D01*
G03X145976Y223259I86J-391D01*
G02X145980Y222760I-1276J-260D01*
G01X145961Y222660D01*
X146325Y222277D01*
X146426Y222290D01*
G02X147444Y220008I174J-1290D01*
G03X147420Y219421I259J-305D01*
G37*
G36*
G01X370653Y215787D02*
G02Y216985I-1042J599D01*
G03X371347I347J199D01*
G02Y215787I1042J-599D01*
G03X370653I-347J-199D01*
G37*
G36*
G01X68789Y215135D02*
G02X67394Y215252I-789J-1035D01*
G03X67451Y215925I-186J355D01*
G02X68846Y215808I789J1035D01*
G03X68789Y215135I186J-355D01*
G37*
G36*
G01X146271Y214900D02*
G02X144982Y214059I-71J-1300D01*
G03X144629Y214600I-374J141D01*
G02X145918Y215441I71J1300D01*
G03X146271Y214900I374J-141D01*
G37*
G36*
G01X101343Y214339D02*
G02X99467Y214307I-923J-919D01*
G03X99457Y214861I-293J272D01*
G02X99699Y216890I923J919D01*
G01X99789Y216945D01*
X99813Y217489D01*
X99727Y217552D01*
G02X101181Y217490I773J1048D01*
G01X101091Y217435D01*
X101067Y216891D01*
X101153Y216828D01*
G02X101333Y214893I-773J-1048D01*
G03X101343Y214339I293J-272D01*
G37*
G36*
G01X222756Y211101D02*
G02X221695Y210489I44J-1301D01*
G03X221343Y211101I-339J212D01*
G02X222404Y211713I-44J1301D01*
G03X222756Y211101I339J-212D01*
G37*
G36*
G01X80487Y208408D02*
G02X79001Y208035I-487J-1208D01*
G03X78843Y208662I-307J256D01*
G02X80329Y209035I487J1208D01*
G03X80487Y208408I307J-256D01*
G37*
G36*
G01X83212Y203590D02*
G02X81596Y203437I-712J-1090D01*
G03X81538Y204060I-277J288D01*
G02X83154Y204213I712J1090D01*
G03X83212Y203590I277J-288D01*
G37*
G36*
G01X66940Y199794D02*
G02X65260I-840J-994D01*
G03Y200406I-258J306D01*
G02X65347Y202462I840J994D01*
G01X65427Y202519D01*
X65446Y203034D01*
X65370Y203097D01*
G02X65240Y204980I830J1003D01*
G03X65217Y205544I-295J270D01*
G02X67060Y205620I884J956D01*
G03X67083Y205056I295J-270D01*
G02X66953Y203038I-883J-956D01*
G01X66873Y202981D01*
X66854Y202466D01*
X66930Y202403D01*
G02X66940Y200406I-830J-1003D01*
G03Y199794I258J-306D01*
G37*
G36*
G01X100747Y198175D02*
G02X99682Y197390I133J-1295D01*
G03X99273Y197945I-368J157D01*
G02X100338Y198730I-133J1295D01*
G03X100747Y198175I368J-157D01*
G37*
G36*
G01X146533Y196613D02*
X146595Y196540D01*
G02X144988Y196849I-995J-840D01*
G01X145072Y196894D01*
X145167Y197387D01*
X145105Y197460D01*
G02X145057Y199079I995J840D01*
G01X145125Y199170D01*
X144910Y199696D01*
X144798Y199714D01*
G02X144742Y202276I202J1286D01*
G01X144838Y202296D01*
X145066Y202752D01*
X145024Y202840D01*
G02X145102Y204100I1176J560D01*
G01X145161Y204192D01*
X144928Y204695D01*
X144820Y204711D01*
G02X146098Y205300I181J1289D01*
G01X146039Y205208D01*
X146272Y204705D01*
X146380Y204689D01*
G02X146458Y202124I-181J-1289D01*
G01X146362Y202104D01*
X146134Y201648D01*
X146176Y201560D01*
G02X146043Y200221I-1176J-559D01*
G01X145975Y200130D01*
X146190Y199604D01*
X146302Y199586D01*
G02X146712Y197151I-202J-1286D01*
G01X146628Y197106D01*
X146533Y196613D01*
G37*
G36*
G01X54773Y190619D02*
X54853Y190562D01*
G02X53270Y190503I-753J-1062D01*
G01X53346Y190566D01*
X53327Y191081D01*
X53247Y191138D01*
G02X53342Y193323I753J1062D01*
G01X53433Y193377D01*
X53471Y193916D01*
X53389Y193981D01*
G02X54858Y193877I810J1019D01*
G01X54767Y193823D01*
X54729Y193284D01*
X54811Y193219D01*
G02X54830Y191197I-811J-1019D01*
G01X54754Y191134D01*
X54773Y190619D01*
G37*
G36*
G01X297913Y179653D02*
G02X296715I-599J-1042D01*
G03Y180347I-199J347D01*
G02X297913I599J1042D01*
G03Y179653I199J-347D01*
G37*
G36*
G01X115429Y178824D02*
G02X114071I-679J-1111D01*
G03Y179507I-208J341D01*
G02X115429I679J1111D01*
G03Y178824I208J-341D01*
G37*
G36*
G01X56191Y172397D02*
X56287Y172449D01*
G02X55600Y171222I613J-1149D01*
G01X55594Y171331D01*
X55109Y171603D01*
X55013Y171551D01*
G02X53370Y173497I-613J1149D01*
G03X53323Y174037I-316J245D01*
G02X55230Y174203I877J963D01*
G03X55277Y173663I316J-245D01*
G02X55700Y172778I-877J-963D01*
G01X55706Y172669D01*
X56191Y172397D01*
G37*
G36*
G01X100390Y165345D02*
G02X98945Y165720I-990J-845D01*
G03X99110Y166355I-139J375D01*
G02X100555Y165980I990J845D01*
G03X100390Y165345I139J-375D01*
G37*
G36*
G01X55954Y161702D02*
X56042Y161779D01*
G02X55616Y160585I858J-979D01*
G01X55596Y160701D01*
X55046Y160898D01*
X54958Y160821D01*
G02X53514Y162962I-859J978D01*
G01Y163538D01*
G02X54686I586J1162D01*
G01Y162962D01*
G02X55384Y162015I-586J-1163D01*
G01X55404Y161899D01*
X55954Y161702D01*
G37*
G36*
G01X67879Y158759D02*
G02X66521I-679J-1111D01*
G03Y159442I-208J342D01*
G02X67879I679J1111D01*
G03Y158759I208J-341D01*
G37*
G36*
G01X85670Y137488D02*
G02X84330I-670J-1117D01*
G03Y138173I-206J343D01*
G02X85670I670J1117D01*
G03Y137488I206J-343D01*
G37*
G36*
G01X116109Y133937D02*
G02X114769I-670J-1117D01*
G03Y134622I-206J343D01*
G02X116109I670J1117D01*
G03Y133937I206J-342D01*
G37*
G36*
G01X250872Y126882D02*
G02X249875Y125160I228J-1282D01*
G03X249428Y125418I-376J-136D01*
G02X248221Y125842I-228J1282D01*
G01X248144Y125929D01*
X247575Y125812D01*
X247539Y125701D01*
G02X245435Y125126I-1240J399D01*
G03X244854Y125073I-266J-299D01*
G02X244692Y126847I-1027J801D01*
G03X245273Y126900I266J299D01*
G02X247279Y126958I1027J-800D01*
G01X247356Y126871D01*
X247925Y126988D01*
X247961Y127099D01*
G02X250425Y127140I1239J-399D01*
G03X250872Y126882I376J136D01*
G37*
G36*
G01X82152Y126363D02*
G02X80801Y126456I-752J-1063D01*
G03X80848Y127137I-184J355D01*
G02X82199Y127044I752J1063D01*
G03X82152Y126363I184J-355D01*
G37*
G36*
G01X501926Y125096D02*
X501983Y124997D01*
G02X500836Y125644I-1125J-655D01*
G01X500950Y125646D01*
X501232Y126146D01*
X501175Y126245D01*
G02X503559Y126567I1125J655D01*
G01X503530Y126459D01*
X503919Y126050D01*
X504029Y126073D01*
G02X504319Y126102I274J-1273D01*
G01X504413Y126101D01*
X504735Y126479D01*
X504718Y126572D01*
G02X507284Y127017I1282J228D01*
G01X507300Y126924D01*
X507736Y126677D01*
X507824Y126712D01*
G02X507016Y125283I476J-1212D01*
G01X507000Y125376D01*
X506564Y125623D01*
X506476Y125588D01*
G02X505981Y125498I-476J1212D01*
G01X505887Y125499D01*
X505565Y125121D01*
X505582Y125028D01*
G02X503041Y125133I-1282J-228D01*
G01X503070Y125241D01*
X502681Y125650D01*
X502571Y125627D01*
G02X502322Y125598I-274J1273D01*
G01X502208Y125596D01*
X501926Y125096D01*
G37*
G36*
G01X218061Y123954D02*
X218020Y123846D01*
G02X217798Y125136I-1220J454D01*
G01X217872Y125048D01*
X218439Y125146D01*
X218480Y125254D01*
G02X220580Y125760I1220J-454D01*
G03X221120I270J295D01*
G02Y123840I880J-960D01*
G03X220580I-270J-295D01*
G02X218702Y123964I-880J960D01*
G01X218628Y124052D01*
X218061Y123954D01*
G37*
G36*
G01X526185Y112077D02*
G02Y113923I-1185J923D01*
G03X526815I315J246D01*
G02X529213Y113886I1185J-923D01*
G01X529278Y113797D01*
X529833Y113832D01*
X529886Y113928D01*
G02X532378Y114132I1314J-728D01*
G01X532432Y114063D01*
X532903Y114029D01*
X532967Y114090D01*
G02X535241Y113846I1033J-1090D01*
G01X535759D01*
G02Y112154I1241J-846D01*
G01X535241D01*
G02X532822Y112068I-1241J846D01*
G01X532768Y112137D01*
X532297Y112171D01*
X532233Y112110D01*
G02X529987Y112314I-1033J1090D01*
G01X529922Y112403D01*
X529367Y112368D01*
X529314Y112272D01*
G02X526815Y112077I-1314J728D01*
G03X526185I-315J-246D01*
G37*
G36*
G01X546038Y113158D02*
X546118Y113242D01*
G02X545755Y111790I1082J-1042D01*
G01X545723Y111901D01*
X545162Y112042D01*
X545082Y111958D01*
G02X542686Y112272I-1082J1042D01*
G01X542633Y112368D01*
X542078Y112403D01*
X542013Y112314D01*
G02X542114Y113928I-1213J886D01*
G01X542167Y113832D01*
X542722Y113797D01*
X542787Y113886D01*
G02X545445Y113410I1213J-886D01*
G01X545477Y113299D01*
X546038Y113158D01*
G37*
G36*
G01X183367Y108368D02*
X183314Y108272D01*
G02X180686I-1314J728D01*
G01X180633Y108368D01*
X180078Y108403D01*
X180013Y108314D01*
G02X177438Y108568I-1213J886D01*
G01X177391Y108668D01*
X176835Y108738D01*
X176765Y108652D01*
G02X176962Y110232I-1165J948D01*
G01X177009Y110132D01*
X177565Y110062D01*
X177635Y110148D01*
G02X180114Y109928I1165J-948D01*
G01X180167Y109832D01*
X180722Y109797D01*
X180787Y109886D01*
G02X183213I1213J-886D01*
G01X183278Y109797D01*
X183833Y109832D01*
X183886Y109928D01*
G02X186378Y110132I1314J-728D01*
G01X186432Y110063D01*
X186903Y110029D01*
X186967Y110090D01*
G02X189241Y109846I1033J-1090D01*
G01X189759D01*
G02Y108154I1241J-846D01*
G01X189241D01*
G02X186822Y108068I-1241J846D01*
G01X186768Y108137D01*
X186297Y108171D01*
X186233Y108110D01*
G02X183987Y108314I-1033J1090D01*
G01X183922Y108403D01*
X183367Y108368D01*
G37*
G36*
G01X282923Y107185D02*
G02X281077I-923J-1185D01*
G03Y107815I-246J315D01*
G02X282921Y110187I922J1186D01*
G01X283005Y110121D01*
X283523Y110294D01*
X283551Y110397D01*
G02X286500Y109920I1449J-396D01*
G03X286920Y109500I399J-21D01*
G02X285500Y108080I80J-1500D01*
G03X285080Y108500I-399J21D01*
G02X284079Y108813I-80J1500D01*
G01X283995Y108879D01*
X283477Y108706D01*
X283449Y108603D01*
G02X282923Y107815I-1449J397D01*
G03Y107185I246J-315D01*
G37*
G36*
G01X437294Y104477D02*
X437397Y104449D01*
G02X435813Y103921I-397J-1449D01*
G01X435879Y104005D01*
X435706Y104523D01*
X435603Y104551D01*
G02X434500Y106080I397J1449D01*
G01X434505Y106169D01*
X434169Y106505D01*
X434080Y106500D01*
G02X432500Y108080I-80J1500D01*
G01X432505Y108169D01*
X432169Y108505D01*
X432080Y108500D01*
G02X433500Y109920I-80J1500D01*
G01X433495Y109831D01*
X433831Y109495D01*
X433920Y109500D01*
G02X435500Y107920I80J-1500D01*
G01X435495Y107831D01*
X435831Y107495D01*
X435920Y107500D01*
G02X437187Y105079I80J-1500D01*
G01X437121Y104995D01*
X437294Y104477D01*
G37*
G36*
G01X123859Y100861D02*
G02X122768Y99686I206J-1286D01*
G03X122306Y100114I-399J33D01*
G02X123397Y101289I-206J1286D01*
G03X123859Y100861I399J-33D01*
G37*
G36*
G01X690397Y79115D02*
G02X689639Y80185I-1297J-115D01*
G03X690203Y80585I166J364D01*
G02X690961Y79515I1297J115D01*
G03X690397Y79115I-166J-364D01*
G37*
G36*
G01X685715Y77147D02*
G02X684485I-615J-1147D01*
G03Y77853I-189J353D01*
G02X685715I615J1147D01*
G03Y77147I189J-353D01*
G37*
G36*
G01X689715Y73147D02*
G02X688485I-615J-1147D01*
G03Y73853I-189J353D01*
G02X689715I615J1147D01*
G03Y73147I189J-353D01*
G37*
G36*
G01X654510Y15204D02*
X654615Y15147D01*
G02X653385I-615J-1147D01*
G01X653490Y15204D01*
Y15796D01*
X653385Y15853D01*
G02Y18147I615J1147D01*
G01X653490Y18204D01*
Y18796D01*
X653385Y18853D01*
G02X654615I615J1147D01*
G01X654510Y18796D01*
Y18204D01*
X654615Y18147D01*
G02Y15853I-615J-1147D01*
G01X654510Y15796D01*
Y15204D01*
G37*
G36*
G01X658147Y12885D02*
G02Y14115I-1147J615D01*
G03X658853I353J189D01*
G02Y12885I1147J-615D01*
G03X658147I-353J-189D01*
G37*
G54D25*
X709587Y145492D03*
G54D38*
X196000Y106000D03*
X200000Y108000D03*
X296000D03*
X431000Y120000D03*
X430000Y113000D03*
X448100Y108000D03*
X452100Y107800D03*
G54D24*
X734452Y374370D03*
Y345630D03*
X716736Y374370D03*
Y345630D03*
G54D40*
X303570Y247744D03*
Y267429D03*
Y259555D03*
Y263492D03*
Y251681D03*
X303571Y279241D03*
X303570Y271366D03*
X306708Y108344D03*
X310644D03*
Y104408D03*
X306708Y112282D03*
Y116218D03*
Y120156D03*
X310644Y116218D03*
Y120156D03*
Y124092D03*
X318518D03*
X314582Y116218D03*
X318518Y112282D03*
X314582D03*
X318518Y116218D03*
Y120156D03*
X314582Y124092D03*
X306708Y131966D03*
X314582Y143778D03*
X310644Y139841D03*
X306708D03*
X318518Y135904D03*
X310644D03*
X314582Y128030D03*
Y135904D03*
X306708D03*
X310644Y128030D03*
X318518Y143778D03*
Y139841D03*
X314582Y131966D03*
X310644Y143778D03*
X318518Y131966D03*
X306708Y128030D03*
X318518Y151652D03*
X314582Y147715D03*
Y159548D03*
Y151652D03*
X318518Y159548D03*
X310644D03*
Y147715D03*
X306708Y159548D03*
Y147715D03*
Y151652D03*
X318518Y179234D03*
Y175296D03*
Y163485D03*
X306708Y179234D03*
Y175296D03*
Y171359D03*
X314582Y179234D03*
X310644Y171359D03*
Y163485D03*
X314582Y175296D03*
Y171359D03*
X310644Y167422D03*
X306708Y163485D03*
X310644Y179234D03*
X318518Y194982D03*
Y183170D03*
X314582Y194982D03*
X318518Y187108D03*
X310644D03*
Y183170D03*
X306708D03*
Y202856D03*
X310644D03*
Y198918D03*
X314582Y206792D03*
X318518Y198918D03*
X314582D03*
X318518Y202856D03*
X310644Y206792D03*
X315381Y247744D03*
Y243807D03*
X311444D03*
X319318D03*
X311444Y247744D03*
X307507Y259555D03*
X311444Y263492D03*
X307507Y267429D03*
X311444D03*
X315381Y263492D03*
Y267429D03*
X319318Y263492D03*
Y259555D03*
X311444Y255618D03*
Y259555D03*
X315381Y251681D03*
Y255618D03*
Y271366D03*
Y275304D03*
X319318Y271366D03*
Y275304D03*
X311444D03*
X307507Y271366D03*
Y275304D03*
X319319Y283179D03*
X315382D03*
X311445D03*
X319319Y279241D03*
X315382Y291053D03*
X307507Y291052D03*
X307508Y287115D03*
X319319Y291053D03*
X315382Y287115D03*
X311445D03*
X322456Y108344D03*
X326392D03*
Y120156D03*
X322456D03*
Y124092D03*
X330330Y120156D03*
Y124092D03*
X326392Y116218D03*
X322456Y112282D03*
X326392D03*
Y139841D03*
X322456Y131966D03*
X330330Y128030D03*
Y139841D03*
X322456Y128030D03*
X326392Y131966D03*
X322456Y139841D03*
Y143778D03*
X326392Y128030D03*
X330330Y143778D03*
Y135904D03*
X326392D03*
Y147715D03*
X330330D03*
X326392Y151652D03*
X322456Y147715D03*
X326392Y159548D03*
X330330D03*
X322456Y151652D03*
X330330Y179234D03*
X326392Y171359D03*
X322456Y175296D03*
X326392D03*
X330330Y171359D03*
X326392Y179234D03*
X330330Y163485D03*
Y167422D03*
X326392Y183170D03*
X330330D03*
X338204Y194982D03*
X322456Y183170D03*
Y194982D03*
X326392D03*
X322456Y187108D03*
Y191044D03*
X326392D03*
X338204Y198918D03*
X326392D03*
Y202856D03*
X322456D03*
X330330Y198918D03*
X338204Y202856D03*
X334266Y206792D03*
X338204D03*
X323255Y247744D03*
Y243807D03*
X331129Y255618D03*
Y259555D03*
X327192D03*
X323255D03*
X327192Y267429D03*
X323255Y263492D03*
Y251681D03*
X327192Y255618D03*
X323256Y283179D03*
X331130D03*
X327193Y271367D03*
Y279241D03*
X331130D03*
Y275305D03*
X323256Y279241D03*
X327193Y275305D03*
X323256Y287115D03*
X327193Y291053D03*
Y287115D03*
X331130D03*
X323256Y291053D03*
X346078Y194982D03*
X342141D03*
Y206792D03*
X350015Y198918D03*
X346078Y202856D03*
Y198918D03*
X342141Y202856D03*
X353952Y206792D03*
Y198918D03*
X350015Y206792D03*
Y202856D03*
X339004Y255618D03*
X350815Y267430D03*
X369722Y194982D03*
X373659Y183170D03*
Y202856D03*
X369722Y198918D03*
X361848Y202856D03*
X365785D03*
X361848Y206792D03*
X365785D03*
X369722Y202856D03*
X361848Y198918D03*
X373659Y206792D03*
Y198918D03*
X370522Y251682D03*
X362648Y259556D03*
X366586Y267429D03*
X381534Y116218D03*
Y112282D03*
Y124092D03*
X385470D03*
X389408Y120156D03*
Y116218D03*
X385470Y143778D03*
X389408Y128030D03*
Y131966D03*
X381534Y143778D03*
X385470Y139841D03*
X381534Y131966D03*
X389408Y139841D03*
X381534Y135904D03*
Y139841D03*
X385471Y131966D03*
X389408Y135904D03*
X385470Y128030D03*
X381534Y159548D03*
X389408D03*
X381534Y151652D03*
X385470D03*
X389408D03*
X385470Y147715D03*
X389408D03*
X381534Y179234D03*
Y175296D03*
Y163485D03*
X389408Y179234D03*
X385470Y163485D03*
Y175296D03*
X389408Y163485D03*
Y175296D03*
X377596Y179234D03*
Y187108D03*
X385470Y183170D03*
Y187108D03*
X377596Y194982D03*
X381534D03*
X389408Y191044D03*
X385470D03*
X389408Y183170D03*
X381534Y206792D03*
X377596D03*
X385470Y202856D03*
X381534D03*
X377596Y198918D03*
X381534D03*
X385470Y206792D03*
X390208Y247744D03*
Y259555D03*
Y255618D03*
Y251681D03*
X386271Y259555D03*
X374460Y263492D03*
X386271Y283178D03*
X390208Y279240D03*
Y275304D03*
X386271Y279240D03*
Y271366D03*
X390208D03*
Y287114D03*
Y291052D03*
X386271Y287114D03*
Y291052D03*
X397282Y116218D03*
X393344D03*
X405156Y124092D03*
X401218Y116218D03*
X397282Y124092D03*
X393344D03*
X401218D03*
X393344Y120156D03*
X401218D03*
X405156D03*
X401218Y131966D03*
X405156Y139841D03*
X401218D03*
Y143778D03*
X393344D03*
X397282D03*
X393344Y128030D03*
X397282Y135904D03*
X393344Y139841D03*
X397282Y128030D03*
X401218Y135904D03*
X397282Y131966D03*
X393344Y135904D03*
X405156Y128030D03*
Y143778D03*
Y131966D03*
Y147715D03*
X401218Y159548D03*
Y151652D03*
X405156D03*
X397282D03*
X393344Y159548D03*
X397282D03*
X393344Y163485D03*
X397282Y171359D03*
X401218Y175296D03*
X397282Y179234D03*
X393344Y171359D03*
X405156Y163485D03*
X401218Y179234D03*
X397282Y175296D03*
X405156D03*
X401218Y163485D03*
Y167422D03*
X405156D03*
X393344Y179234D03*
X405156Y171359D03*
Y183170D03*
X393344D03*
X397282Y191044D03*
X393344Y187108D03*
Y191044D03*
X401218Y183170D03*
Y194982D03*
X397282Y187108D03*
X393344Y202856D03*
X401218Y198918D03*
Y206792D03*
X405156Y202856D03*
X401218D03*
X397282Y198918D03*
X393344Y206792D03*
X397282D03*
X405156D03*
X394145Y247744D03*
X402019Y243807D03*
X398082D03*
X405956Y259555D03*
Y263492D03*
Y267429D03*
X402019Y251681D03*
X398082Y267429D03*
X402019Y255618D03*
Y263492D03*
Y259555D03*
X398082Y251681D03*
X394145Y259555D03*
X398082Y263492D03*
Y255618D03*
X394145D03*
Y263492D03*
X405956Y279240D03*
X394145Y283178D03*
X405956Y271366D03*
X398082Y283178D03*
X402019Y271366D03*
X394145Y275304D03*
X398082Y271366D03*
X394145Y279240D03*
X398082Y275304D03*
X402019D03*
Y279240D03*
X398082Y291052D03*
X405956Y287114D03*
X398082D03*
X394145D03*
X405956Y291052D03*
X402019D03*
X409092Y116218D03*
Y120156D03*
Y131966D03*
Y128030D03*
Y139841D03*
Y135904D03*
Y151652D03*
Y159548D03*
Y147715D03*
Y171359D03*
Y163485D03*
Y175296D03*
Y179234D03*
Y183170D03*
Y198918D03*
Y202856D03*
X413830Y243807D03*
Y247744D03*
X409893Y267429D03*
X413830Y263492D03*
Y267429D03*
X409893Y259555D03*
X413830Y255618D03*
Y259555D03*
X409893Y271366D03*
Y279240D03*
X413830Y283178D03*
X409893Y275304D03*
X413830Y287114D03*
X409893Y291052D03*
Y287114D03*
G54D37*
X196727Y34727D03*
Y39727D03*
X201700Y14700D03*
X211727Y19727D03*
Y14727D03*
X206727Y19727D03*
X201727D03*
Y34727D03*
X211727D03*
X201727Y29727D03*
X206727Y34727D03*
Y24727D03*
Y39727D03*
X211727Y29727D03*
X231727Y19727D03*
Y14727D03*
X221727D03*
Y19727D03*
X216727D03*
X226727D03*
Y24727D03*
X216727Y39727D03*
X226727Y34727D03*
Y39727D03*
X216727Y24727D03*
X231727Y34727D03*
Y29727D03*
X216727Y34727D03*
X221727D03*
Y29727D03*
X236727Y19727D03*
Y24727D03*
Y39727D03*
Y34727D03*
X241727D03*
Y29727D03*
X281727Y19727D03*
X276727D03*
X281727Y14727D03*
Y29727D03*
Y34727D03*
X271727D03*
X276727Y39727D03*
Y24727D03*
X271727Y29727D03*
X276727Y34727D03*
X291727Y14727D03*
Y19727D03*
X301727Y14727D03*
X286727Y19727D03*
X296727D03*
X301727D03*
Y29727D03*
X286727Y39727D03*
Y24727D03*
X296727D03*
X301727Y34727D03*
X296727Y39727D03*
X286727Y34727D03*
X296727D03*
X291727Y29727D03*
Y34727D03*
X311727Y14727D03*
Y19727D03*
X316727D03*
X306727D03*
X311727Y34727D03*
X316727Y24727D03*
X306727Y34727D03*
X311727Y29727D03*
X306727Y39727D03*
Y24727D03*
X402727Y19227D03*
X407727D03*
X402750Y14200D03*
X397727Y34227D03*
X402727D03*
Y29227D03*
X397727Y39227D03*
X407727Y24227D03*
Y39227D03*
Y34227D03*
X412727Y19227D03*
X422727D03*
X412727Y14227D03*
X417727Y19227D03*
X422727Y14227D03*
X412727Y29227D03*
X417727Y34227D03*
X422727Y29227D03*
X417727Y24227D03*
Y39227D03*
X422727Y34227D03*
X412727D03*
X432727Y14227D03*
Y19227D03*
X437727D03*
X427727D03*
X437727Y34227D03*
Y39227D03*
X442727Y34227D03*
Y29227D03*
X432727Y34227D03*
X427727Y24227D03*
X437727D03*
X427727Y39227D03*
X432727Y29227D03*
X427727Y34227D03*
X477727Y19227D03*
X472727Y29227D03*
X477727Y39227D03*
Y24227D03*
Y34227D03*
X472727D03*
X492727Y14227D03*
X482727Y19227D03*
X487727D03*
X492727D03*
X482727Y14227D03*
X487727Y24227D03*
Y34227D03*
X492727Y29227D03*
X487727Y39227D03*
X482727Y34227D03*
X492727D03*
X482727Y29227D03*
X512727Y19227D03*
X502727D03*
X497727D03*
X512727Y14227D03*
X502727D03*
X507727Y19227D03*
Y24227D03*
X497727D03*
X512727Y29227D03*
X507727Y39227D03*
X497727D03*
X507727Y34227D03*
X512727D03*
X497727D03*
X502727Y29227D03*
Y34227D03*
X517727Y19227D03*
Y24227D03*
G54D26*
X722900Y154800D03*
Y190200D03*
X274000Y183000D03*
X284000D03*
X459500Y188000D03*
X449500D03*
X502500Y275000D03*
X525000D03*
X535000D03*
X726600Y166600D03*
Y178400D03*
G54D32*
X111200Y353600D03*
X196727Y19727D03*
Y24727D03*
X246727Y19727D03*
X241727Y14727D03*
Y19727D03*
X246727Y24727D03*
Y39727D03*
Y34727D03*
X261727Y19727D03*
X266727D03*
X261727Y14727D03*
X251727D03*
Y19727D03*
X256727D03*
Y14727D03*
Y39727D03*
X261727Y34727D03*
X266727D03*
X256727D03*
Y24727D03*
X251727Y34727D03*
X266727Y24727D03*
Y39727D03*
X261727Y29727D03*
X251727D03*
X271727Y14727D03*
Y19727D03*
X316727Y39727D03*
Y34727D03*
X397727Y19227D03*
Y24227D03*
X442727Y19227D03*
Y14227D03*
X457727Y19227D03*
Y14227D03*
X447727Y19227D03*
X452727D03*
Y14227D03*
Y29227D03*
X457727Y34227D03*
Y24227D03*
X452727Y34227D03*
X457727Y39227D03*
X447727Y24227D03*
Y39227D03*
Y34227D03*
X462727Y19227D03*
Y14227D03*
X472727Y19227D03*
Y14227D03*
X467727Y19227D03*
Y24227D03*
Y34227D03*
X462727D03*
Y29227D03*
X467727Y39227D03*
X517727Y34227D03*
Y39227D03*
X579200Y375100D03*
X617000Y21500D03*
X612500D03*
X607500D03*
X617000Y25500D03*
Y29500D03*
X612500D03*
Y25500D03*
X607500D03*
Y29500D03*
X626900Y156800D03*
X672000Y111000D03*
Y107000D03*
X688500Y162500D03*
X684500D03*
X690500Y166000D03*
X686500D03*
X696500Y162500D03*
X692500D03*
X699500Y166000D03*
X694500D03*
X725500Y246000D03*
X720000D03*
X731000D03*
G54D29*
X41500Y42000D03*
X59500Y53800D03*
X61000Y353000D03*
X80800Y42000D03*
X124000Y11000D03*
Y23500D03*
Y36000D03*
X234000Y197500D03*
X222000D03*
X255600Y330500D03*
X255500Y343000D03*
Y355500D03*
X287000Y156000D03*
Y169000D03*
X486500Y243000D03*
X526000Y186000D03*
X537000Y160500D03*
X581500Y79500D03*
X599000Y10000D03*
Y22000D03*
X593500Y67500D03*
Y79500D03*
X605500D03*
X592000Y167000D03*
X617500Y67500D03*
Y79500D03*
X644900Y7000D03*
G54D28*
X11100Y43100D03*
X20900Y141700D03*
X10550Y152200D03*
Y162700D03*
Y172300D03*
Y182400D03*
Y192700D03*
Y212700D03*
Y202400D03*
X35100Y127500D03*
X34600Y122500D03*
X31400Y160000D03*
Y175000D03*
Y167500D03*
Y190000D03*
Y182500D03*
X31100Y215000D03*
X32100Y207500D03*
X31400Y200000D03*
X38600Y210900D03*
X38800Y214100D03*
X40100Y232300D03*
X40000Y222700D03*
X32400Y232500D03*
X30900Y225000D03*
X28100Y244300D03*
X31500Y240000D03*
X34500Y295500D03*
X26668Y327632D03*
X26574Y337474D03*
X27347Y332553D03*
X26405Y342395D03*
X25084Y347316D03*
X25763Y352237D03*
X26100Y367000D03*
X24942Y357158D03*
X24379Y362079D03*
X45600Y118900D03*
X56800Y130600D03*
X52500Y154000D03*
X56900Y151100D03*
X53900Y169600D03*
X41000Y172300D03*
X53900Y184100D03*
X53700Y180900D03*
X56900Y191400D03*
Y181700D03*
X41000Y192700D03*
X54000Y204200D03*
X53700Y199500D03*
X56900Y201300D03*
Y210700D03*
X40900Y202300D03*
X53900Y220500D03*
Y228000D03*
X56900Y221100D03*
X53600Y237700D03*
X53500Y240900D03*
X53600Y244100D03*
Y247300D03*
X43932Y250132D03*
X40500Y237700D03*
X41100Y247300D03*
X43900Y259200D03*
X43200Y262800D03*
X43347Y255053D03*
X54500Y263100D03*
X43400Y267500D03*
X42079Y284579D03*
X43600Y271200D03*
X42037Y274737D03*
X42242Y279658D03*
X53900Y283100D03*
X56300Y298100D03*
X54200Y313100D03*
X53000Y338000D03*
X48000Y336000D03*
X55000Y341000D03*
X71400Y9200D03*
X71000Y16200D03*
X70600Y24200D03*
X70900Y34100D03*
X69700Y77500D03*
X63500Y87500D03*
X66550Y117750D03*
X62426Y115374D03*
X66400Y195700D03*
X68300Y211100D03*
X68100Y220600D03*
X66520Y238220D03*
X63350Y245350D03*
X61600Y266900D03*
X75000Y296000D03*
X62000Y300000D03*
X66000Y329000D03*
X61050Y322050D03*
X62000Y342000D03*
X81000Y61300D03*
X84000Y109800D03*
X80300Y104200D03*
X81100Y107300D03*
X83000Y93000D03*
X84800Y113293D03*
X82200Y120900D03*
X90800Y136400D03*
X81730Y143730D03*
X80020Y131920D03*
X81480Y153180D03*
X80300Y146500D03*
X84000Y157000D03*
X79620Y150820D03*
X84600Y163500D03*
X86400Y178000D03*
X84500Y195700D03*
X82500Y182500D03*
Y192500D03*
X81850Y186250D03*
X79590Y183890D03*
X82500Y210000D03*
Y225000D03*
Y232500D03*
Y217500D03*
X81470Y228770D03*
X80550Y220950D03*
X79170Y231130D03*
X82500Y240000D03*
X83440Y235860D03*
X79800Y234100D03*
X82810Y264210D03*
X80070Y266570D03*
X81790Y271290D03*
X79400Y274400D03*
X84600Y274900D03*
X84440Y280740D03*
X82120Y278380D03*
X79900Y302000D03*
X83800Y296200D03*
X85470Y316170D03*
X85800Y319200D03*
X90760Y304360D03*
X81270Y335070D03*
X83626Y325027D03*
X82850Y330350D03*
X86600Y328300D03*
X88900Y335100D03*
X85200Y339800D03*
X81840Y342160D03*
X79000Y374000D03*
X106000Y9900D03*
X103100Y11400D03*
X109000Y21900D03*
X105300Y38800D03*
X110100Y31100D03*
X107200Y61200D03*
X98600Y90000D03*
X103000Y84000D03*
X99000Y96500D03*
X99970Y100030D03*
X99510Y121290D03*
X97130Y118930D03*
X100200Y114200D03*
X94000Y140000D03*
X100610Y144910D03*
X95000Y149600D03*
X100300Y152000D03*
X100070Y187430D03*
X99400Y206900D03*
X100470Y203970D03*
X100500Y231700D03*
X100930Y253570D03*
X100650Y267750D03*
X101000Y258300D03*
X93600Y277900D03*
X102000Y293000D03*
X97200Y318400D03*
X96200Y306200D03*
X97870Y331530D03*
X97900Y334700D03*
X96260Y324440D03*
X100100Y326800D03*
X100210Y338610D03*
X94000Y335000D03*
X111850Y42450D03*
X124065Y109025D03*
Y96425D03*
X114100Y108900D03*
X124065Y105875D03*
X117800Y96300D03*
X124065Y118475D03*
Y124775D03*
Y115325D03*
Y127925D03*
X123625Y121625D03*
X124065Y134225D03*
Y137375D03*
Y143675D03*
X122625Y140525D03*
X124065Y156275D03*
Y153125D03*
Y146825D03*
X124575Y149975D03*
X117500Y145900D03*
X124065Y175175D03*
Y178325D03*
X120000Y165000D03*
X114300Y170900D03*
X112240Y173260D03*
X124065Y197225D03*
Y194075D03*
Y187775D03*
Y184625D03*
X112550Y194520D03*
X113830Y185070D03*
X111400Y205500D03*
X124065Y203525D03*
Y206675D03*
Y212975D03*
X117900Y199100D03*
X112550Y211050D03*
Y201610D03*
X124065Y216125D03*
Y231875D03*
X112050Y229950D03*
X112300Y220500D03*
X124065Y225575D03*
Y222425D03*
Y235025D03*
X119700Y248400D03*
X112240Y237040D03*
X111690Y265390D03*
X111260Y260660D03*
X124065Y266525D03*
Y253925D03*
Y257075D03*
Y263375D03*
Y285425D03*
Y282275D03*
Y272825D03*
Y275975D03*
Y301175D03*
Y294875D03*
Y291725D03*
X113880Y303180D03*
X111000Y287000D03*
X121675Y288575D03*
X120425Y298025D03*
X111350Y320150D03*
X124065Y304325D03*
Y310625D03*
Y313775D03*
X124025Y307475D03*
X119000Y314900D03*
X117400Y346400D03*
X112500Y345700D03*
X140250Y27350D03*
X137225Y112175D03*
X136600Y130200D03*
X130590Y149975D03*
X144600Y211000D03*
X138000Y253000D03*
X137275Y260225D03*
X138100Y276400D03*
X137325Y269675D03*
X155700Y23100D03*
X155100Y40500D03*
X146200Y56100D03*
X159675Y105875D03*
Y99575D03*
X159525Y96425D03*
X159675Y109025D03*
X160825Y102725D03*
X159675Y127925D03*
Y118475D03*
Y124775D03*
Y115325D03*
X160875Y121625D03*
X159275Y112175D03*
X159675Y134225D03*
Y137375D03*
Y143675D03*
X160225Y140525D03*
X160925Y131075D03*
X159675Y156275D03*
Y146825D03*
Y153125D03*
X160675Y149975D03*
X159675Y175175D03*
Y178325D03*
Y184625D03*
Y197225D03*
Y187775D03*
Y194075D03*
Y212975D03*
Y203525D03*
Y206675D03*
X146900Y208400D03*
X159675Y225575D03*
Y216125D03*
Y231875D03*
Y222425D03*
X146500Y228500D03*
X159675Y235025D03*
X162500Y237500D03*
X160000Y242000D03*
X159675Y263375D03*
Y253925D03*
Y266525D03*
Y257075D03*
Y260225D03*
Y285425D03*
Y275975D03*
Y282275D03*
Y272825D03*
X162475Y269675D03*
X159675Y294875D03*
Y301175D03*
Y291725D03*
X160225Y298025D03*
X159375Y288575D03*
X159675Y304325D03*
X160225Y313775D03*
X159675Y310625D03*
X160225Y307475D03*
X170000Y77000D03*
X171700Y93000D03*
X165300Y103000D03*
X165700Y131500D03*
X170400Y147800D03*
X177500Y213500D03*
Y218500D03*
X170000Y274700D03*
X163400Y279125D03*
X166900Y306400D03*
X192300Y52300D03*
X185000Y72100D03*
X184700Y80900D03*
X197600Y166100D03*
X186900Y196000D03*
X195000Y229200D03*
X186000Y216000D03*
X186500Y228500D03*
X192000Y229000D03*
X187000Y225000D03*
X191000Y232000D03*
X187000Y221000D03*
X191000Y239000D03*
X188000Y242000D03*
Y235000D03*
X186500Y238500D03*
X197000Y324000D03*
X194000Y343000D03*
X211900Y106000D03*
X200950Y121050D03*
X205900Y114200D03*
X200500Y141079D03*
Y131236D03*
X199100Y146600D03*
X200500Y160764D03*
Y150921D03*
X200900Y180600D03*
X205800Y185800D03*
X208701Y215551D03*
Y212402D03*
X203500Y204600D03*
X205551Y215551D03*
X211850Y212402D03*
Y215551D03*
X205551Y231299D03*
X208701Y228150D03*
X211850D03*
Y231299D03*
Y221850D03*
X208701Y218701D03*
X211850D03*
X205551Y221850D03*
X199800Y219300D03*
X208701Y231299D03*
X205551Y228150D03*
X208701Y221850D03*
X205551Y234449D03*
X208701D03*
X211850D03*
Y237598D03*
X209000Y253000D03*
X202000Y273000D03*
X201200Y340000D03*
X210000Y342000D03*
X203000Y356000D03*
X223600Y70200D03*
X224900Y84900D03*
X230047Y124753D03*
X221700Y114100D03*
X233000Y138000D03*
X225000D03*
X217000D03*
X233000Y130000D03*
X225000D03*
X217000D03*
X233000Y154500D03*
X225000D03*
X217000D03*
X233000Y162000D03*
X225000D03*
X217000D03*
X233000Y146000D03*
X217000D03*
X225000D03*
X217200Y167500D03*
X223500D03*
X220205Y167505D03*
X215900Y191300D03*
X226000Y182000D03*
X224449Y215551D03*
X221299D03*
X224449Y212402D03*
X218150Y215551D03*
X221299Y221850D03*
Y228150D03*
Y231299D03*
X218150Y228150D03*
Y231299D03*
Y221850D03*
Y218701D03*
X224449Y228150D03*
Y231299D03*
Y221850D03*
X221299Y234449D03*
Y237598D03*
X224449D03*
X218150D03*
X227700Y239700D03*
X224500Y247800D03*
X218150Y234449D03*
X228000Y264000D03*
X225500Y256000D03*
X223000Y277000D03*
X219500Y311300D03*
X228100Y330900D03*
X233100Y371600D03*
X240200Y56900D03*
X238800Y72900D03*
X233984Y124984D03*
X238000Y126600D03*
X241000Y138000D03*
X249000D03*
X241000Y130000D03*
X249000D03*
X241000Y154500D03*
X249000D03*
X241000Y162000D03*
X249000D03*
Y146000D03*
X241000D03*
X233984Y179000D03*
X235953Y167800D03*
X247764Y167500D03*
X237700Y183900D03*
X249500Y199000D03*
X240100Y205300D03*
X246400Y263900D03*
X240000Y264000D03*
X237900Y296900D03*
X247500Y341100D03*
X244000Y345000D03*
X238634Y363334D03*
X237100Y375300D03*
X267000Y63500D03*
X258550Y117550D03*
X253700Y127299D03*
X265900Y141100D03*
X267500Y130900D03*
X265716Y146984D03*
X265900Y160764D03*
Y150921D03*
X265200Y166300D03*
X255500Y177000D03*
X252200Y192100D03*
X266100Y187000D03*
X267700Y190500D03*
X259100Y195600D03*
X252900Y208400D03*
X255000Y244000D03*
X253000Y264000D03*
X263400Y333500D03*
X272200Y62800D03*
X286000Y66000D03*
X270000Y168500D03*
X272900Y194900D03*
X282300Y192000D03*
X281800Y198000D03*
X272900Y206800D03*
X279100Y207100D03*
X278950Y249850D03*
X275900Y270400D03*
X274200Y290100D03*
X277000Y317300D03*
X280400Y365600D03*
X277050Y357850D03*
X298000Y73000D03*
X301400Y145100D03*
X297000Y206900D03*
X303570Y228059D03*
Y231996D03*
X295696D03*
X299634D03*
X295696Y228059D03*
X303570Y243807D03*
Y239870D03*
X295696Y247744D03*
Y243808D03*
X299634Y239870D03*
X291759D03*
Y235934D03*
X295696D03*
X299634Y243808D03*
Y235934D03*
X291759Y243808D03*
X295696Y251682D03*
X291759Y259556D03*
Y255618D03*
X299634Y263492D03*
Y259556D03*
X295696Y267430D03*
Y255618D03*
X291759Y263492D03*
X295696D03*
X299634Y251682D03*
X288800Y256900D03*
X303570Y255618D03*
X299634Y267430D03*
X291759D03*
X299634Y255618D03*
X295696Y271366D03*
X299634Y283178D03*
X291759Y279241D03*
Y275304D03*
X299634Y279241D03*
X295696Y283178D03*
X291759D03*
X299634Y275304D03*
Y271366D03*
X295696Y275304D03*
X303571Y283179D03*
Y302886D03*
X295696Y298948D03*
X299634Y291052D03*
X303570D03*
X299634Y298948D03*
X291759D03*
X295696Y291052D03*
Y287115D03*
X299634Y302885D03*
X289100Y291900D03*
X291759Y302885D03*
X303571Y287115D03*
X299634Y314696D03*
X291759Y318634D03*
X303571Y314696D03*
X299634Y318634D03*
X303571Y306822D03*
Y310760D03*
X299634Y310759D03*
X291759Y306822D03*
X295696Y310759D03*
X299634Y306822D03*
X295696D03*
X291759Y310759D03*
X295696Y314696D03*
Y318634D03*
X303571Y322571D03*
X291759Y322570D03*
X295696Y330444D03*
X288400Y334400D03*
X303571Y330445D03*
X291759Y330444D03*
X295696Y326508D03*
X303571Y334382D03*
Y326508D03*
X295696Y338318D03*
Y334382D03*
X299634D03*
Y322570D03*
Y326508D03*
Y338318D03*
X291759D03*
X303570Y350130D03*
Y354066D03*
X295696D03*
X291759Y350129D03*
X299634Y354066D03*
X295696Y350130D03*
X303571Y346193D03*
Y342256D03*
X291759D03*
X295696Y346192D03*
X291759D03*
X299634Y342256D03*
Y346192D03*
X303570Y361941D03*
X299634D03*
X295696Y358004D03*
X291759D03*
X299634D03*
X318000Y86000D03*
X318518Y104408D03*
X314582Y108344D03*
Y104408D03*
Y120156D03*
X310644Y131966D03*
X303900Y152500D03*
X318518Y147715D03*
X310644Y175296D03*
X314582Y167422D03*
X318518D03*
Y191044D03*
X314582Y187108D03*
X306708Y194982D03*
Y191044D03*
X310644D03*
X314582D03*
X306708Y198918D03*
X318518Y206792D03*
X315382Y228059D03*
X311444D03*
X307508D03*
X319318Y231996D03*
X315382D03*
X307508D03*
X311444D03*
X307507Y247744D03*
X319318Y235934D03*
X315382D03*
X311444D03*
X307508D03*
X319318Y239870D03*
X311444D03*
X307508D03*
Y243808D03*
X319318Y247744D03*
X307507Y255618D03*
Y251681D03*
X315382Y259556D03*
X319318Y255618D03*
Y251681D03*
X311444Y271366D03*
X307508Y283178D03*
Y279241D03*
X311445D03*
X307508Y298948D03*
X319319Y302886D03*
X315382Y298948D03*
X319319D03*
X311445Y302886D03*
Y298948D03*
X307508Y302886D03*
X319318Y287115D03*
X307508Y310760D03*
Y314696D03*
X311445Y310760D03*
X311444Y314696D03*
X315382Y306822D03*
X311445Y318634D03*
X315382Y310760D03*
X311445Y306822D03*
X319319Y314696D03*
X315382D03*
X319319Y318634D03*
X315382D03*
X307508D03*
X319319Y306822D03*
X307508Y322571D03*
X319319Y338319D03*
X307508Y326508D03*
X315382Y338318D03*
Y326508D03*
X311445Y338319D03*
X315382Y330445D03*
X307508Y334382D03*
X311445Y330445D03*
X307508Y338319D03*
X311445Y322571D03*
Y326508D03*
X307508Y330445D03*
X315382Y334382D03*
X319319D03*
Y326508D03*
Y322571D03*
X315382Y350130D03*
X311444D03*
X307508D03*
X319318Y354066D03*
X315382D03*
X307508D03*
X311445Y346193D03*
Y342256D03*
X315382Y346193D03*
X319319Y342256D03*
Y346193D03*
X307508Y342256D03*
X311444Y354066D03*
X319318Y361941D03*
X311444D03*
X319318Y358004D03*
X315382D03*
X311444D03*
X307508D03*
Y361941D03*
X314900Y369300D03*
X306150Y369250D03*
X332300Y71700D03*
X324000Y86000D03*
X322456Y104408D03*
X334266Y108344D03*
X330330D03*
Y104408D03*
X334266D03*
X338204D03*
X326392Y124092D03*
X330330Y112282D03*
X334266Y116218D03*
X330330D03*
X334266Y124092D03*
X338204D03*
Y120156D03*
X334266Y112282D03*
X338204Y116218D03*
Y112282D03*
X334266Y139841D03*
Y131966D03*
X338204Y128030D03*
X322456Y135904D03*
X334266Y128030D03*
X338204Y143778D03*
Y135904D03*
X334266Y159548D03*
Y147715D03*
X338204Y151652D03*
X334266Y175296D03*
Y167422D03*
X322456Y179234D03*
X326392Y167422D03*
X334266Y179234D03*
X338204D03*
X322456Y163485D03*
X326392D03*
X322456Y167422D03*
Y171359D03*
X338204D03*
Y163485D03*
X334266Y183170D03*
X330330Y194982D03*
X338204Y183170D03*
X334266Y191044D03*
X338204Y187108D03*
X334266D03*
Y194982D03*
X330330Y191044D03*
Y187108D03*
X322456Y206792D03*
X334266Y198918D03*
X330330Y202856D03*
Y206792D03*
X335066Y228059D03*
X331130D03*
X327192D03*
X323256D03*
X335066Y231996D03*
X327192D03*
X323256D03*
X335066Y235934D03*
X331130D03*
X327192D03*
X331130Y239870D03*
X327192D03*
X323256D03*
X335066Y243808D03*
X331130D03*
X335066Y247744D03*
X331130D03*
X327192D03*
X335066Y239870D03*
X323256Y235934D03*
X335066Y263492D03*
Y255618D03*
Y251682D03*
X331129Y267429D03*
X327192Y251681D03*
X331129Y263492D03*
X331130Y251682D03*
X323255Y267429D03*
X335066Y271366D03*
Y279241D03*
X323256Y275304D03*
Y271367D03*
X327193Y302886D03*
X331130Y298948D03*
X323256Y302886D03*
X331130Y291052D03*
X335066Y287115D03*
Y298948D03*
X327193D03*
X331130Y302886D03*
Y306822D03*
Y318634D03*
X327193D03*
Y314696D03*
X335066Y306822D03*
Y314696D03*
X331130Y310760D03*
X323256Y314696D03*
Y310760D03*
Y306822D03*
X327193Y310760D03*
X335067Y330445D03*
Y326508D03*
X327193Y330445D03*
X335066Y338318D03*
X331130D03*
X323256Y322571D03*
X323255Y326507D03*
X323256Y334382D03*
X335066D03*
X327192Y322570D03*
X323256Y330445D03*
X331130Y322571D03*
X327193Y334382D03*
X331130Y330445D03*
Y326508D03*
X327193Y338319D03*
X335066Y322570D03*
Y346192D03*
X331130D03*
X335066Y350130D03*
X331130D03*
X327192D03*
X323256D03*
X335066Y354066D03*
X327192D03*
X323256D03*
X331130Y342256D03*
X327193D03*
X323256D03*
Y346193D03*
X327192Y346192D03*
X338600Y369400D03*
X331130Y361941D03*
X327192D03*
X323256D03*
X335066Y358004D03*
X331130D03*
X327192D03*
X332400Y369700D03*
X323256Y358004D03*
X346000Y85000D03*
X342141Y108344D03*
Y104408D03*
X346078Y108344D03*
X350015D03*
X353952D03*
X350015Y104408D03*
X353952D03*
Y112282D03*
Y124092D03*
Y120156D03*
X342141Y116218D03*
X350015Y124092D03*
X346078Y112282D03*
X342141D03*
Y120156D03*
Y124092D03*
X346078Y116218D03*
Y120156D03*
X350015D03*
Y116218D03*
X353952D03*
Y128030D03*
X350015Y131966D03*
Y128030D03*
X346078D03*
X342141D03*
Y131966D03*
X350015Y135904D03*
X346078Y139841D03*
Y135904D03*
Y143778D03*
X353952D03*
X342141Y139841D03*
X350015D03*
X353952Y135904D03*
X346078Y131966D03*
X353952Y147715D03*
X342141Y159548D03*
X350015D03*
X346078Y151652D03*
X342141Y147715D03*
X350015D03*
X353952Y179234D03*
X350015D03*
X346078D03*
X342141Y175296D03*
X346078D03*
X342141Y171359D03*
X346078D03*
X350015Y175296D03*
X353952Y171359D03*
X342141Y167422D03*
X350015D03*
X346078Y163485D03*
X350015Y191044D03*
X353952Y194982D03*
Y191044D03*
Y187108D03*
X346078D03*
X350015Y183170D03*
Y187108D03*
X346078Y191044D03*
Y183170D03*
X342141Y187108D03*
Y191044D03*
Y183170D03*
Y198918D03*
X354752Y228059D03*
X350815D03*
X346878D03*
X342941D03*
X354752Y231996D03*
X346878D03*
X342941D03*
X339004D03*
X345000Y216000D03*
X350815Y231996D03*
X354752Y235934D03*
X350815D03*
X346878D03*
X339004D03*
X350815Y239870D03*
X346878D03*
X342941D03*
X339004D03*
X354752Y243808D03*
X350815D03*
X342941D03*
X339004D03*
X354752Y247744D03*
X350815D03*
X346878D03*
X342941D03*
X346878Y243808D03*
X342941Y263493D03*
X339004Y259556D03*
X354752Y255618D03*
X350815D03*
X354752Y251682D03*
X346878D03*
X342941D03*
X339004D03*
X342941Y267430D03*
X339005Y263493D03*
X346879Y259556D03*
Y267430D03*
X342941Y255618D03*
X354752Y259556D03*
X339004Y267430D03*
X346878Y255618D03*
X342941Y259556D03*
X354752Y267430D03*
X350815Y263493D03*
Y259556D03*
X354753Y263493D03*
X346879Y271367D03*
X350815Y271366D03*
X354752Y275304D03*
X346878D03*
X350815Y279241D03*
X342941D03*
X354752Y283178D03*
X346878D03*
X339004D03*
X339005Y275305D03*
Y279241D03*
Y271367D03*
X342941D03*
X354752Y287115D03*
X346878Y302885D03*
X339004D03*
X350815Y287115D03*
X342941D03*
X346878Y291052D03*
X339004D03*
X350815Y298948D03*
X342941D03*
X339004Y314696D03*
X342941D03*
X339004Y318634D03*
X350815Y306822D03*
X342941D03*
X354752Y310759D03*
X346878D03*
X339004D03*
X350815Y314696D03*
X354752Y318634D03*
X346878D03*
X346879Y322571D03*
X342941D03*
Y326508D03*
X339005D03*
X350815Y322571D03*
Y326508D03*
X354752Y334382D03*
Y338318D03*
X350815D03*
X346878D03*
X354752Y330444D03*
X354753Y326508D03*
X342941Y338318D03*
X339004Y322570D03*
X342941Y334382D03*
X346878D03*
X342941Y330444D03*
X339004Y334382D03*
X350815Y330444D03*
X346878D03*
X339004Y338318D03*
X354752Y346192D03*
X350815D03*
X342941D03*
X339004D03*
X354752Y350130D03*
X350815D03*
X346878D03*
X342941D03*
X354752Y354066D03*
X346878D03*
X342941D03*
X339004D03*
X350815Y342256D03*
X346878D03*
X342941D03*
X339004D03*
Y350130D03*
X354752Y342256D03*
X350815Y354066D03*
X342941Y361941D03*
X339004D03*
X354752Y358004D03*
X350815D03*
X346878D03*
X339004D03*
X350815Y361941D03*
X346878D03*
X360900Y58200D03*
X370000Y75000D03*
X367600Y73100D03*
X366000Y88000D03*
X361848Y104408D03*
X365785Y108344D03*
Y104408D03*
X369722Y108344D03*
X373659D03*
Y104408D03*
Y116218D03*
X369722Y120156D03*
X373659D03*
Y124092D03*
X369722Y116218D03*
Y124092D03*
X373659Y112282D03*
X361848D03*
Y120156D03*
X365785Y124092D03*
Y120156D03*
X361848Y124092D03*
X365785Y112282D03*
X369722D03*
X361848Y116218D03*
X373659Y143778D03*
Y135904D03*
X369722Y131966D03*
X365785Y143778D03*
X361848Y139841D03*
X369722D03*
X365785Y135904D03*
X361848Y131966D03*
X365785Y128030D03*
X373659D03*
Y151652D03*
X361848Y147715D03*
X369722Y159548D03*
X365785Y151652D03*
X369722Y147715D03*
X361848Y179234D03*
X373659D03*
X369722D03*
X373659Y171359D03*
Y163485D03*
X365785Y179234D03*
X361848Y175296D03*
X369722D03*
X365785Y171359D03*
X361848Y167422D03*
X369722D03*
X365785Y163485D03*
Y187108D03*
Y191044D03*
Y194982D03*
X361848Y183170D03*
X369722D03*
X365785D03*
X373659Y191044D03*
X361848Y187108D03*
Y194982D03*
X373659Y187108D03*
Y194982D03*
X361848Y191044D03*
X369722D03*
X370522Y228059D03*
X366585D03*
X370522Y231996D03*
X366585D03*
X362648D03*
X370522Y235934D03*
X362648D03*
X370522Y239870D03*
X366585D03*
X362648D03*
Y243808D03*
X370522Y247744D03*
X366586D03*
Y243807D03*
X362648Y247744D03*
X366585Y235934D03*
Y259556D03*
X370522Y255618D03*
X366585Y251682D03*
X370522Y259556D03*
X362648Y251682D03*
Y255618D03*
Y263492D03*
X370522Y267429D03*
X366586Y263492D03*
X362648Y271366D03*
X366585Y275304D03*
X370522Y279241D03*
X362648D03*
X366585Y283178D03*
X370522Y271366D03*
X366586D03*
X362648Y287115D03*
X366585Y302885D03*
X370522Y287115D03*
X366585Y291052D03*
X370522Y298948D03*
Y306822D03*
X362648D03*
X366585Y310759D03*
X370522Y314696D03*
X362648D03*
X366585Y318634D03*
Y330445D03*
X362648Y338318D03*
X370522Y334382D03*
X366585D03*
X362648D03*
X366585Y322571D03*
X362647Y326508D03*
X370521Y322571D03*
X366585Y326508D03*
X370522Y338318D03*
Y330444D03*
X362648Y322570D03*
X366585Y346192D03*
X362648D03*
X370522Y350130D03*
X366585D03*
X370522Y354066D03*
X366585D03*
X362648D03*
X366585Y342256D03*
X362648D03*
X370522Y346192D03*
Y342256D03*
Y358004D03*
X362648D03*
X370522Y361941D03*
X366585D03*
X362648D03*
X369500Y368800D03*
X366585Y358004D03*
X376100Y58300D03*
X385000Y78000D03*
X385470Y104408D03*
X381534D03*
X377596Y108344D03*
Y104408D03*
X389408Y108344D03*
X385470D03*
X377596Y124092D03*
Y116218D03*
Y112282D03*
X381534Y120156D03*
X385470D03*
Y116218D03*
X389408Y112282D03*
X385470D03*
X389408Y143778D03*
X377596Y128030D03*
Y131966D03*
Y135904D03*
X385470Y159548D03*
X377596D03*
Y151652D03*
Y175296D03*
X381534Y167422D03*
X385470D03*
X389408Y171359D03*
X385470D03*
X377596D03*
Y167422D03*
X381534Y183170D03*
Y187108D03*
X389408D03*
X377596Y191044D03*
X385470Y194982D03*
X389408D03*
X385470Y198918D03*
X389408D03*
Y202856D03*
X390208Y228059D03*
X386270D03*
X378396D03*
X374459D03*
X390208Y231996D03*
X386270D03*
X382334D03*
X378396D03*
X390208Y235934D03*
X382334D03*
X378396D03*
X374459D03*
X390208Y239870D03*
X386270D03*
X382334D03*
X374459D03*
X386270Y243808D03*
X382334D03*
X378396D03*
X374459D03*
X386270Y247744D03*
X378396D03*
X374459D03*
X390208Y243808D03*
X378396Y239870D03*
X382334Y255618D03*
Y259555D03*
X374459Y259556D03*
X386271Y263492D03*
X386270Y251682D03*
X382334D03*
X378396D03*
X386271Y267429D03*
X378396Y263492D03*
X374459Y267430D03*
X390208Y267429D03*
X378396Y267430D03*
X386270Y255618D03*
X382334Y267430D03*
X374459Y251681D03*
Y255618D03*
X382334Y263492D03*
X378396Y255618D03*
X382334Y271366D03*
Y275304D03*
X378396Y271366D03*
X382334Y283178D03*
X374459Y275304D03*
X378396Y279241D03*
X374459Y283178D03*
X390207Y298948D03*
X390208Y302885D03*
X382334D03*
Y291052D03*
X386270Y298948D03*
Y302886D03*
X374459Y302885D03*
X378396Y287115D03*
X374459Y291052D03*
X378396Y298948D03*
X386270Y314696D03*
X378396Y310759D03*
Y318634D03*
X390207D03*
X382334D03*
Y314696D03*
X390207Y310760D03*
X386270D03*
X390207Y314696D03*
X386270Y306822D03*
X382334Y310759D03*
X378396Y314696D03*
Y306822D03*
X374459Y310759D03*
Y318634D03*
X382333Y326508D03*
Y322571D03*
X378395Y330445D03*
Y326508D03*
X386270Y330445D03*
X382334Y338318D03*
X374459Y322571D03*
Y334382D03*
X386270D03*
X390207Y338319D03*
Y322571D03*
X386270Y326508D03*
X378396Y334382D03*
X390207Y330445D03*
X386270Y322571D03*
X390207Y334382D03*
X378396Y338318D03*
X374459D03*
Y330444D03*
X386270Y338318D03*
X382334Y334382D03*
X374459Y326508D03*
X390207Y342256D03*
X374459Y346192D03*
X390208Y350130D03*
X386270D03*
X378396D03*
X374459D03*
X390208Y354066D03*
X386270D03*
X382334D03*
X378396D03*
X386270Y342256D03*
X382334D03*
X374459D03*
X386270Y346192D03*
X382334D03*
X378396D03*
X382334Y350130D03*
X390208Y358004D03*
X382334D03*
X378396D03*
X374459D03*
X390208Y361941D03*
X386270D03*
X382334D03*
X374459D03*
X392900Y85700D03*
X405000Y82000D03*
X393000Y94000D03*
X404100Y96100D03*
X397282Y108344D03*
Y104408D03*
X405156Y108344D03*
Y104408D03*
X401218Y108344D03*
Y104408D03*
X393344Y108344D03*
Y104408D03*
X405156Y112282D03*
X397282Y120156D03*
Y112282D03*
X401218D03*
X405156Y135904D03*
X393344Y131966D03*
X401218Y147715D03*
X393344D03*
X397282D03*
X405156Y179234D03*
X393344Y175296D03*
X397282Y163485D03*
Y167422D03*
X393344D03*
X401218Y191044D03*
X405156Y194982D03*
X401218Y187108D03*
X405156Y191044D03*
Y187108D03*
X397282Y194982D03*
Y202856D03*
X393344Y198918D03*
X405956Y228059D03*
X398082D03*
X394144D03*
X405956Y231996D03*
X402018D03*
X398082D03*
X403700Y216000D03*
X402018Y235934D03*
X398082D03*
X394144D03*
X405956Y239870D03*
X402018D03*
X394144D03*
X402018Y247744D03*
X405956Y235934D03*
X398082Y247744D03*
X394145Y243807D03*
X405956D03*
Y247744D03*
Y251681D03*
X394145Y267429D03*
X398082Y259556D03*
X405956Y275304D03*
Y283178D03*
X402019D03*
X394144Y298948D03*
X402018Y302885D03*
Y298948D03*
X398082D03*
X405956Y302885D03*
X402018Y287115D03*
X394144Y302886D03*
Y306822D03*
X398082D03*
X405956D03*
X402018D03*
X405956Y314696D03*
X394144Y318634D03*
X402018D03*
Y314696D03*
X398081Y310760D03*
X394144D03*
X398082Y318634D03*
Y314696D03*
X405955Y310760D03*
X398081Y338319D03*
X402018Y334382D03*
X398081D03*
X402018Y338319D03*
X405956Y330444D03*
Y334382D03*
Y322570D03*
Y326508D03*
X398081Y330445D03*
X394144Y338319D03*
X398081Y326508D03*
X402018D03*
X394144Y322571D03*
X402018D03*
X394144Y326508D03*
Y330444D03*
X405956Y350130D03*
X398082D03*
X394144D03*
X405956Y354066D03*
X402018D03*
X398082D03*
X402018Y342256D03*
Y346193D03*
X405956Y346192D03*
Y342256D03*
X394144D03*
Y354066D03*
X398081Y346193D03*
X394144D03*
X402018Y358004D03*
X398082D03*
X394144D03*
X405956Y361941D03*
X402018D03*
X394144D03*
X405956Y358004D03*
X397000Y372500D03*
X418500Y71200D03*
X420900Y79100D03*
X409092Y108344D03*
Y112282D03*
X415700Y135400D03*
X419000Y144000D03*
Y138000D03*
Y148000D03*
X414000Y158000D03*
X419000Y169600D03*
X421000Y179000D03*
X422000Y172000D03*
X414000Y164000D03*
X409092Y191044D03*
Y194982D03*
X419800Y200100D03*
X420200Y206200D03*
X413830Y228059D03*
X409892D03*
Y231996D03*
X425641D03*
X421704D03*
X417766Y228059D03*
Y231996D03*
X413830Y235934D03*
X409892D03*
X413830Y239870D03*
X409892D03*
X421704Y243808D03*
X425641Y239870D03*
Y247744D03*
Y243808D03*
X417766D03*
X421704Y239870D03*
X417766Y247744D03*
X421704Y235934D03*
X417766D03*
X409893Y247744D03*
X417766Y239870D03*
Y263492D03*
Y267430D03*
X425641Y259556D03*
Y267430D03*
X421704Y263492D03*
X417766Y251682D03*
X421704Y259556D03*
X425641Y251682D03*
X417766Y255618D03*
X425641Y263492D03*
X421704Y255618D03*
Y251682D03*
X409893Y255618D03*
X421704Y267430D03*
X413830Y251682D03*
X409892Y263492D03*
X409893Y251681D03*
X421704Y279241D03*
Y275304D03*
X417766Y283178D03*
Y275304D03*
X425641Y271366D03*
X421704Y283178D03*
X425641D03*
X417766Y271366D03*
X421704D03*
X425641Y279241D03*
X417766D03*
X413830Y275304D03*
Y279240D03*
X417766Y291052D03*
Y287115D03*
X421704Y291052D03*
X425641Y302885D03*
Y287115D03*
X409892Y298948D03*
X425641Y291052D03*
X421704Y298948D03*
X413830Y291052D03*
X417766Y298948D03*
X409892Y302885D03*
X413830D03*
Y298948D03*
X421704Y302885D03*
X417766Y310759D03*
X409892Y318634D03*
X417766Y314696D03*
X413830Y310759D03*
Y306822D03*
X409892D03*
X421704Y310759D03*
X413830Y318634D03*
X409892Y310759D03*
Y314696D03*
X425641Y306822D03*
X421704D03*
X417766D03*
X425641Y314696D03*
Y310759D03*
X421704Y314696D03*
Y318634D03*
X417766D03*
X409892Y334382D03*
Y322570D03*
X413830D03*
X409892Y330444D03*
X413830Y326508D03*
Y330444D03*
Y338318D03*
X409892D03*
X417766D03*
Y334382D03*
X421704Y338318D03*
Y326508D03*
X417766D03*
X425641Y334382D03*
Y330444D03*
Y322570D03*
Y326508D03*
X417766Y330444D03*
X421704Y334382D03*
Y322570D03*
X413830Y350130D03*
X409892D03*
Y354066D03*
X417766Y346192D03*
Y354066D03*
X413830Y342256D03*
Y346192D03*
X409892Y342256D03*
X421704Y346192D03*
X425641Y350130D03*
Y346192D03*
X417766Y350130D03*
X425641Y354066D03*
X421704Y342256D03*
Y354066D03*
X425641Y342256D03*
X413830Y358004D03*
X409892D03*
X413830Y361941D03*
X409892D03*
X421704D03*
X417766Y358004D03*
X421704D03*
X431100Y141000D03*
X435000Y172000D03*
X434900Y202000D03*
X437100Y226400D03*
X434700Y267500D03*
X441600Y262100D03*
X442900Y257500D03*
X429550Y251450D03*
X437200Y302300D03*
X437500Y288700D03*
X443700Y287500D03*
X432400Y290800D03*
X437500Y335200D03*
X441900Y339800D03*
X459500Y141079D03*
Y131236D03*
Y146000D03*
Y160764D03*
Y150921D03*
X457600Y175000D03*
X459500Y164701D03*
X454300Y180000D03*
X461500Y194600D03*
X451300Y264300D03*
X458400Y299800D03*
X448100Y331200D03*
X453100Y344500D03*
X448750Y362850D03*
X470500Y125000D03*
X475268D03*
X478500D03*
X477236Y115164D03*
X475500Y130000D03*
Y138000D03*
Y146000D03*
Y162000D03*
Y154500D03*
X470800Y169000D03*
X468400Y180300D03*
X477400Y192000D03*
X467900Y189400D03*
X479100Y182900D03*
X468900Y216500D03*
X479100Y238000D03*
X465100Y243700D03*
X474700Y262300D03*
X469400Y267800D03*
X473900Y277000D03*
X467000Y300700D03*
X478900Y307500D03*
X464400Y303800D03*
X477500Y336300D03*
X462850Y344250D03*
X472650Y360650D03*
X486000Y125000D03*
X492984Y125016D03*
X482500Y125000D03*
X491500Y138000D03*
Y130000D03*
X483500Y138000D03*
Y130000D03*
X491500Y154500D03*
Y162000D03*
Y146000D03*
X483500Y154500D03*
Y162000D03*
Y146000D03*
X494953Y167500D03*
X495000Y178000D03*
X481173Y177627D03*
X493101Y207651D03*
X496250Y210801D03*
X493101D03*
X496250Y213950D03*
Y207651D03*
X489951Y213950D03*
X493101Y204502D03*
Y213950D03*
X496250Y204501D03*
X489951Y207651D03*
X496250Y223399D03*
Y220250D03*
X493101D03*
X489951Y223399D03*
Y220250D03*
Y226549D03*
X496250Y229698D03*
X493101Y223399D03*
X496250Y226549D03*
X493101D03*
X489400Y232800D03*
X495400Y260200D03*
X481600Y251400D03*
X494500Y256100D03*
X492100Y293800D03*
X487700Y317800D03*
X481800Y304400D03*
X496900Y124500D03*
X499500Y138000D03*
Y130000D03*
X507500D03*
Y138000D03*
Y146000D03*
X499500Y154500D03*
Y162000D03*
Y146000D03*
X507500Y162000D03*
Y154500D03*
X508732Y167700D03*
X500000Y195000D03*
X502550Y210801D03*
Y213950D03*
X505699D03*
Y204502D03*
X502550Y207651D03*
X508849D03*
Y204502D03*
X505699Y207651D03*
X508849Y213950D03*
X502550Y223399D03*
Y220250D03*
Y229698D03*
X508849D03*
X505699D03*
Y226549D03*
Y223399D03*
Y220250D03*
X502550Y226549D03*
X508849Y223399D03*
Y220250D03*
X514100Y247600D03*
X499900Y246300D03*
X500000Y240500D03*
X500100Y264900D03*
X500200Y259300D03*
X505500Y254100D03*
X512300Y290600D03*
X528200Y100300D03*
X516800Y107400D03*
X520500Y123500D03*
X524100Y131236D03*
Y141079D03*
Y145900D03*
Y160764D03*
Y150921D03*
X518476Y168000D03*
X528900Y170000D03*
X522900Y180400D03*
X529809Y195762D03*
X517100Y190100D03*
X526660Y195762D03*
X523510D03*
Y211510D03*
X526660D03*
Y214660D03*
X523510D03*
X526660Y208360D03*
X523510D03*
X526660Y202061D03*
X523510D03*
X526660Y205211D03*
Y198912D03*
X523510D03*
Y205211D03*
X529809Y211510D03*
Y202061D03*
X526660Y224191D03*
X523510Y227340D03*
X526660Y230490D03*
Y227340D03*
X523510Y230490D03*
Y224191D03*
X526660Y217809D03*
X523510D03*
X529809Y224191D03*
Y217809D03*
Y230490D03*
X523510Y236789D03*
X526660Y233640D03*
X523510Y239939D03*
X526660Y243088D03*
Y236789D03*
X523510Y243088D03*
X526660Y239939D03*
X523510Y233640D03*
Y246238D03*
X526660D03*
X529809D03*
Y239939D03*
X525900Y260600D03*
X520000Y269400D03*
X515500Y315600D03*
X521400Y314700D03*
X537400Y101800D03*
X537200Y105000D03*
X544200Y99100D03*
X544900Y153100D03*
X536191Y195762D03*
X532900Y189300D03*
X542490Y195762D03*
X539340D03*
X542490Y205211D03*
Y202061D03*
X539340Y214660D03*
Y202061D03*
X542490Y211510D03*
Y208360D03*
Y214660D03*
X539340Y208360D03*
X542490Y198912D03*
X539340D03*
Y205211D03*
Y211510D03*
X536191D03*
Y202061D03*
Y217809D03*
Y224191D03*
X539340D03*
Y230490D03*
X542490Y227340D03*
Y217809D03*
Y230490D03*
X539340Y217809D03*
X542490Y224191D03*
X539340Y227340D03*
X536191Y230490D03*
Y246238D03*
X542490D03*
X539340Y236789D03*
Y246238D03*
Y239939D03*
Y243088D03*
Y233640D03*
X542490D03*
Y236789D03*
Y239939D03*
Y243088D03*
X542100Y250600D03*
X548500Y247000D03*
X536191Y239939D03*
X543900Y273300D03*
X548600Y276900D03*
X533100Y290000D03*
X549500Y333800D03*
X538900Y342900D03*
X557500Y9500D03*
X555000Y6000D03*
Y13500D03*
X559500D03*
X559700Y6200D03*
X558800Y31400D03*
X559300Y37500D03*
X559400Y44100D03*
X557065Y109025D03*
Y96425D03*
Y99575D03*
Y105875D03*
Y124775D03*
Y115325D03*
Y127925D03*
Y118475D03*
Y134225D03*
Y137375D03*
Y143675D03*
X557275Y140525D03*
X557065Y153125D03*
Y156275D03*
Y146825D03*
X562000Y160000D03*
X557125Y149975D03*
X557065Y175175D03*
Y178325D03*
Y194075D03*
Y197225D03*
Y184625D03*
Y187775D03*
X552000Y185000D03*
X557065Y212975D03*
Y206675D03*
Y203525D03*
X552500Y210300D03*
X557065Y231875D03*
Y216125D03*
Y225575D03*
Y222425D03*
Y235025D03*
Y266525D03*
Y263375D03*
Y257075D03*
Y253925D03*
X554000Y261900D03*
X557065Y285425D03*
Y282275D03*
Y275975D03*
Y272825D03*
Y301175D03*
Y294875D03*
Y291725D03*
X555875Y288575D03*
X554300Y298200D03*
X557065Y304325D03*
Y310625D03*
Y313775D03*
X557475Y307475D03*
X559900Y338000D03*
X556100Y326800D03*
X549900Y340900D03*
X576100Y23500D03*
X568300Y66600D03*
X574000Y83000D03*
X569625Y102725D03*
X570275Y121625D03*
X570000Y111200D03*
X570400Y129600D03*
X578000Y192000D03*
X571000Y186000D03*
X570900Y191100D03*
X579000Y210000D03*
X570000Y212000D03*
X571000Y264000D03*
X577300Y259700D03*
X570600Y278500D03*
X571100Y268800D03*
X582000Y320000D03*
X570900Y315100D03*
X587800Y89800D03*
X592675Y99575D03*
Y109025D03*
Y96425D03*
Y105875D03*
X601600Y105200D03*
X593275Y102725D03*
X592675Y124775D03*
Y115325D03*
Y118475D03*
Y127925D03*
X594975Y121625D03*
X600800Y110600D03*
X594700Y111300D03*
X592675Y137375D03*
Y143675D03*
Y134225D03*
X592875Y140525D03*
X595525Y131075D03*
X592675Y146825D03*
Y153125D03*
Y156275D03*
X593225Y149975D03*
X592675Y178325D03*
Y175175D03*
Y194075D03*
Y197225D03*
Y184625D03*
Y187775D03*
Y212975D03*
Y206675D03*
Y203525D03*
Y216125D03*
Y225575D03*
Y222425D03*
Y231875D03*
Y235025D03*
Y263375D03*
Y257075D03*
Y253925D03*
Y285425D03*
Y282275D03*
Y272825D03*
Y275975D03*
X592225Y279125D03*
X592675Y301175D03*
Y294875D03*
Y291725D03*
X594900Y298900D03*
X595400Y287500D03*
X592675Y313775D03*
Y310625D03*
Y304325D03*
X596000Y304000D03*
X595000Y345100D03*
X613400Y184600D03*
X607500Y231000D03*
X619700Y315100D03*
X619000Y336100D03*
X606700Y323800D03*
X619151Y341449D03*
X607900Y345800D03*
X633500Y114500D03*
Y111000D03*
X625100Y173300D03*
X636800Y204700D03*
X622900Y199100D03*
X627500Y231000D03*
X621949Y272551D03*
X630612Y276488D03*
X631894Y269094D03*
X621679Y302079D03*
X636000Y288000D03*
X631200Y305600D03*
X630994Y331606D03*
X621362Y329638D03*
X631200Y321300D03*
X621483Y343417D03*
X631894Y353706D03*
X624100Y355500D03*
X629880Y339480D03*
X650500Y24500D03*
X647100Y26000D03*
X651807Y30693D03*
X638000Y26700D03*
X640600Y186100D03*
X652000Y181700D03*
X653500Y214300D03*
X650500Y205800D03*
X645129Y206329D03*
X642200Y258700D03*
X653600Y259600D03*
X645600Y257900D03*
X651800Y283700D03*
Y271600D03*
X650800Y303300D03*
X643800Y298200D03*
X651200Y318600D03*
X649900Y310700D03*
X653400Y333100D03*
X638400Y326400D03*
X647642Y344058D03*
X638400Y342300D03*
X652900D03*
X648200Y360000D03*
X637799Y357500D03*
X656500Y22500D03*
X660000D03*
X665000Y24500D03*
X662900Y41000D03*
X665020Y178500D03*
X672300Y241500D03*
X662100Y259100D03*
X663400Y283500D03*
X663900Y277500D03*
X659453Y269347D03*
X662100Y296600D03*
X667200Y289900D03*
X671886Y378186D03*
X686000Y13000D03*
X675300Y30700D03*
X685100Y72000D03*
X690000Y191000D03*
X686000D03*
X689000Y195000D03*
X685000D03*
X683100Y258000D03*
X688900Y263700D03*
X682500Y338400D03*
X682325Y333575D03*
X689000Y347400D03*
X679900Y355100D03*
X684900Y378100D03*
X693250Y52050D03*
X698900Y62900D03*
X701500Y80700D03*
X696500D03*
X691500Y113900D03*
X696500D03*
X701500D03*
X706500D03*
X694000Y191000D03*
X693000Y195000D03*
X707500Y248000D03*
X694100Y257000D03*
X694300Y262800D03*
X694100Y271500D03*
X691805Y294205D03*
X698100Y300900D03*
X696100Y290400D03*
X692000Y334500D03*
X693000Y331000D03*
X699950Y339450D03*
X694383Y343417D03*
X699200Y375500D03*
X711761Y37239D03*
X710000Y54000D03*
X716700Y87600D03*
X710100Y240400D03*
X709500Y353000D03*
X740300Y30500D03*
X736300Y30700D03*
X737900Y48400D03*
X733700Y261300D03*
X729000Y281500D03*
X728700Y278400D03*
X739200Y288800D03*
X743100Y285100D03*
G54D30*
X89960Y90190D03*
X131370Y85150D03*
Y321900D03*
X564370Y85150D03*
Y321900D03*
G54D33*
X147500Y337500D03*
Y357500D03*
Y347500D03*
Y367500D03*
Y377500D03*
X157500Y337500D03*
Y357500D03*
Y347500D03*
Y367500D03*
Y377500D03*
X167500Y337500D03*
Y357500D03*
Y347500D03*
Y367500D03*
Y377500D03*
G54D31*
X89960Y353180D03*
G54D39*
X189315Y371700D03*
X228685D03*
G54D34*
X174000Y10500D03*
X342000D03*
X375000Y10000D03*
X543000D03*
G54D36*
X168700Y173500D03*
X617500Y253500D03*
G54D35*
X183000Y28500D03*
X333000D03*
X384000Y28000D03*
X534000D03*
G54D27*
X734390Y132500D03*
%LPD*%
G75*
G54D10*
X18300Y160000D03*
X27926Y67126D03*
X36326D03*
X31300Y99626D03*
X24400Y118400D03*
X27100Y150800D03*
X21900Y204000D03*
Y211000D03*
Y220800D03*
Y228700D03*
Y243600D03*
X37200Y240100D03*
X27400Y267500D03*
X34500Y317300D03*
X48100Y126500D03*
X39400Y126300D03*
Y110400D03*
X50400Y141700D03*
X48500Y254200D03*
X46300Y276900D03*
X54200Y291900D03*
X54600Y306900D03*
X54400Y328100D03*
X66800Y41700D03*
X74200Y72200D03*
X60400Y93700D03*
X67650Y98850D03*
X67700Y108300D03*
X67030Y122470D03*
X67860Y129560D03*
X63100Y153600D03*
X68440Y148460D03*
X63100Y163100D03*
Y172600D03*
X67300Y164100D03*
X63100Y182300D03*
Y192600D03*
X61600Y227800D03*
X66000Y262000D03*
X61100Y275400D03*
X66100Y300600D03*
X87000Y20600D03*
X90800Y98000D03*
X80110Y96490D03*
X80610Y101210D03*
X82800Y116300D03*
X83230Y141370D03*
X81980Y134280D03*
X80260Y155540D03*
X81200Y176800D03*
X79420Y169720D03*
X80590Y188610D03*
X81800Y180000D03*
X79770Y247670D03*
X80800Y238000D03*
X80500Y253800D03*
Y262300D03*
X87700Y284200D03*
X81800Y275000D03*
X84370Y268930D03*
X79900Y318520D03*
Y313790D03*
Y306700D03*
X86250Y322050D03*
X79900Y337410D03*
Y332690D03*
Y325600D03*
Y344500D03*
X88000Y360000D03*
Y368000D03*
X90000Y364000D03*
X97400Y140300D03*
X97000Y172500D03*
X97400Y192500D03*
X96900Y182500D03*
X97900Y210000D03*
X97100Y202500D03*
X97400Y225000D03*
X96700Y217500D03*
X96900Y247500D03*
X97100Y240000D03*
Y232500D03*
X100300Y239900D03*
X97300Y257500D03*
X100680Y263020D03*
X100800Y277200D03*
X100300Y296000D03*
X99700Y314100D03*
X100060Y329160D03*
X100240Y343340D03*
X92000Y360000D03*
Y368000D03*
X111000Y49900D03*
X117500Y83800D03*
X111800Y90000D03*
X112550Y104760D03*
Y123650D03*
Y116570D03*
Y111840D03*
Y142550D03*
Y137830D03*
Y130740D03*
X117500Y159800D03*
X112550Y161450D03*
Y156720D03*
Y149640D03*
Y175620D03*
Y168530D03*
X124065Y190925D03*
Y181475D03*
X112550Y189790D03*
Y182710D03*
X117900Y186700D03*
X124065Y209825D03*
Y200375D03*
X114700Y199100D03*
X124065Y228725D03*
Y219275D03*
X121000Y242200D03*
X112340Y255940D03*
X114200Y252000D03*
X117500Y272900D03*
X113010Y270110D03*
X115800Y288800D03*
X117500Y300300D03*
X112000Y296500D03*
X113200Y307900D03*
X112750Y336250D03*
X112500Y323800D03*
X138200Y15500D03*
X143050Y62150D03*
X141870Y94600D03*
Y113850D03*
Y138850D03*
Y158100D03*
Y173350D03*
Y192600D03*
Y217600D03*
Y236850D03*
X141770Y252000D03*
X141870Y271350D03*
Y296350D03*
Y315600D03*
X149900Y36600D03*
X146200Y40900D03*
X159675Y190925D03*
Y181475D03*
Y200375D03*
Y209825D03*
Y219275D03*
Y228725D03*
X172100Y71300D03*
X166000Y72400D03*
X166700Y112000D03*
X177200Y151900D03*
X177500Y265000D03*
X173100Y308000D03*
X178334Y380066D03*
X181900Y101700D03*
X180200Y164000D03*
X193800Y196900D03*
X186900Y198500D03*
X195000Y243000D03*
X180350Y290350D03*
X197000Y319000D03*
X184000Y343000D03*
X191953Y337953D03*
X212000Y119000D03*
X211624Y172476D03*
X207100Y180000D03*
X205551Y212402D03*
X214600Y201500D03*
X205551Y218701D03*
X199200Y216700D03*
X214804Y241195D03*
X208701Y237598D03*
X205551D03*
X213900Y273000D03*
X209000Y347000D03*
X217600Y70300D03*
X232350Y90050D03*
X226110Y124890D03*
X225800Y178400D03*
X226000Y187000D03*
X218150Y212402D03*
X224449Y218701D03*
X221299D03*
X224449Y234449D03*
X227400Y250500D03*
X228000Y279000D03*
X238000Y56300D03*
X241000Y114000D03*
X241858Y168042D03*
X246000Y210900D03*
X233400Y231900D03*
X262300Y59300D03*
X263000Y78000D03*
X253000Y124000D03*
X265900Y136500D03*
X256800Y173900D03*
X259800Y175900D03*
X253100Y184200D03*
X262400Y213500D03*
X255900Y272900D03*
X258300Y291500D03*
X275100Y73000D03*
X271200Y209300D03*
X281600Y226200D03*
X279050Y260550D03*
X276900Y300800D03*
X281400Y298100D03*
X278500Y326000D03*
X277150Y347150D03*
X285000Y344000D03*
X269650Y367850D03*
X302300Y123600D03*
X293600Y169100D03*
X297000Y184700D03*
X299634Y228059D03*
X291759Y231996D03*
X288700Y241900D03*
X295696Y239870D03*
X299634Y247744D03*
X288800Y263100D03*
X291759Y251682D03*
X295696Y259556D03*
X288800Y279400D03*
X291759Y271366D03*
X295696Y279241D03*
X299634Y287115D03*
X291759Y291052D03*
X295696Y302885D03*
X291759Y314696D03*
X295696Y322570D03*
X299634Y330444D03*
X291759Y334382D03*
X295696Y342256D03*
X299634Y350130D03*
X291759Y354066D03*
X295696Y361941D03*
X291759D03*
X318518Y108344D03*
X306708Y104408D03*
X303000Y101000D03*
X306708Y124092D03*
X310644Y112282D03*
X306708Y143778D03*
X314582Y139841D03*
X318518Y128030D03*
X310644Y151652D03*
X318518Y171359D03*
X306708Y167422D03*
X314582Y163485D03*
X310644Y194982D03*
X306708Y187108D03*
X314582Y183170D03*
X306708Y206792D03*
X314582Y202856D03*
X319318Y228059D03*
X308000Y216000D03*
X303570Y235934D03*
X315382Y239870D03*
X311444Y251682D03*
X307508Y263492D03*
X319318Y267430D03*
X303570Y275304D03*
X315382Y279241D03*
X311444Y291052D03*
X307508Y306822D03*
X319318Y310759D03*
X303570Y318634D03*
X315382Y322570D03*
X311444Y334382D03*
X307508Y346192D03*
X319318Y350130D03*
X303570Y358004D03*
X315382Y361941D03*
X334700Y75100D03*
X326392Y104408D03*
X334266Y120156D03*
X322456Y116218D03*
X326392Y143778D03*
X334266D03*
Y135904D03*
X330330Y131966D03*
X322456Y159548D03*
X330330Y151652D03*
X334266D03*
X330330Y175296D03*
X334266Y171359D03*
Y163485D03*
X326392Y187108D03*
Y206792D03*
X334266Y202856D03*
X322456Y198918D03*
X331130Y231996D03*
X327192Y243808D03*
X323256Y255618D03*
X335066Y259556D03*
X327192Y263492D03*
X335066Y267430D03*
X331130Y271366D03*
X335066Y275304D03*
Y283178D03*
X327192D03*
X335066Y291052D03*
X323256Y298948D03*
X331130Y314696D03*
X335066Y302885D03*
X327192Y306822D03*
X335066Y310759D03*
Y318634D03*
X323256D03*
X331130Y334382D03*
X327192Y326508D03*
X331130Y354066D03*
X323256Y338318D03*
X335066Y342256D03*
Y361941D03*
X338204Y108344D03*
X346078Y104408D03*
Y124092D03*
X350015Y112282D03*
X342141Y143778D03*
X350015D03*
X338204Y139841D03*
X353952D03*
X342141Y135904D03*
X338204Y131966D03*
X353952D03*
X338204Y159548D03*
X346078D03*
X353952D03*
X342141Y151652D03*
X350015D03*
X353952D03*
X338204Y147715D03*
X346078D03*
X342141Y179234D03*
X338204Y175296D03*
X353952D03*
X350015Y171359D03*
X338204Y167422D03*
X346078D03*
X353952D03*
X342141Y163485D03*
X350015D03*
X353952D03*
X350015Y194982D03*
X338204Y191044D03*
X353952Y183170D03*
X346078Y206792D03*
X353952Y202856D03*
X339004Y228059D03*
Y247744D03*
X342941Y235934D03*
X354752Y239870D03*
X350815Y251682D03*
X346878Y263492D03*
X354752Y271366D03*
X350815Y275304D03*
X342941D03*
X354752Y279241D03*
X346878D03*
X350815Y283178D03*
X342941D03*
X346878Y287115D03*
X339004D03*
X354752Y291052D03*
X350815D03*
X342941D03*
X354752Y298948D03*
X346878D03*
X339004D03*
X354752Y302885D03*
X350815D03*
X342941D03*
X354752Y306822D03*
X346878D03*
X339004D03*
X350815Y310759D03*
X342941D03*
X354752Y314696D03*
X346878D03*
X350815Y318634D03*
X342941D03*
X354752Y322570D03*
X346878Y326508D03*
X339004Y330444D03*
X350815Y334382D03*
X346878Y346192D03*
X342900Y369100D03*
X342941Y358004D03*
X354752Y361941D03*
X359900Y74300D03*
X368500Y59200D03*
X360000Y91000D03*
X361848Y108344D03*
X369722Y104408D03*
X365785Y116218D03*
X361848Y143778D03*
X369722D03*
X365785Y139841D03*
X361848Y135904D03*
X369722D03*
X365785Y131966D03*
X361848Y128030D03*
X369722D03*
X361848Y159548D03*
X365785D03*
X361848Y151652D03*
X369722D03*
X365785Y147715D03*
Y175296D03*
X361848Y171359D03*
X369722D03*
X365785Y167422D03*
X361848Y163485D03*
X369722D03*
Y187108D03*
Y206792D03*
X365785Y198918D03*
X362648Y228059D03*
X370522Y243808D03*
X366585Y255618D03*
X370522Y263492D03*
X362648Y267430D03*
X370522Y275304D03*
X362648D03*
X366585Y279241D03*
X370522Y283178D03*
X362648D03*
X366585Y287115D03*
X370522Y291052D03*
X362648D03*
X366585Y298948D03*
X362648D03*
X370522Y302885D03*
X362648D03*
X366585Y306822D03*
X370522Y310759D03*
X362648D03*
X366585Y314696D03*
X370522Y318634D03*
X362648D03*
X370522Y326508D03*
X362648Y330444D03*
X366585Y338318D03*
X362648Y350130D03*
X367000Y376900D03*
X373000Y82000D03*
X381534Y108344D03*
X389408Y104408D03*
Y124092D03*
X377596Y120156D03*
Y143778D03*
X373659Y139841D03*
X377596D03*
X385470Y135904D03*
X373659Y131966D03*
X381534Y128030D03*
X373659Y159548D03*
Y147715D03*
X377596D03*
X381534D03*
X385470Y179234D03*
X373659Y175296D03*
X381534Y171359D03*
X373659Y167422D03*
X389408D03*
X377596Y163485D03*
X381534Y191044D03*
X377596Y183170D03*
X389408Y206792D03*
X377596Y202856D03*
X382334Y228059D03*
X374459Y231996D03*
X382334Y247744D03*
X386270Y235934D03*
X378396Y259556D03*
X390208Y263492D03*
X374459Y271366D03*
X386270Y275304D03*
X378396D03*
X382334Y279241D03*
X374459D03*
X390208Y283178D03*
X378396D03*
X382334Y287115D03*
X374459D03*
X378396Y291052D03*
X382334Y298948D03*
X374459D03*
X378396Y302885D03*
X390208Y306822D03*
X382334D03*
X374459D03*
Y314696D03*
X386270Y318634D03*
X378396Y322570D03*
X390208Y326508D03*
X382334Y330444D03*
X378396Y342256D03*
X390208Y346192D03*
X374459Y354066D03*
X386270Y358004D03*
X378396Y361941D03*
X394600Y71100D03*
X405156Y116218D03*
X393344Y112282D03*
X397282Y139841D03*
X401218Y128030D03*
X405156Y159548D03*
X393344Y151652D03*
X401218Y171359D03*
X393344Y194982D03*
X397282Y183170D03*
X405156Y198918D03*
X394144Y231996D03*
X402018Y228059D03*
X398082Y239870D03*
X394144Y251682D03*
X405956Y255618D03*
X402018Y267430D03*
X394144Y271366D03*
X398082Y279241D03*
X394144Y291052D03*
X405956Y298948D03*
X398082Y302885D03*
X402018Y310759D03*
X394144Y314696D03*
X398082Y322570D03*
X402018Y330444D03*
X394144Y334382D03*
X405956Y338318D03*
X402018Y350130D03*
X398082Y361941D03*
X409092Y104408D03*
X414000Y100000D03*
X409092Y124092D03*
X418700Y112600D03*
X409092Y143778D03*
X415400Y148300D03*
X409092Y167422D03*
Y187108D03*
Y206792D03*
X421704Y228059D03*
X413830Y231996D03*
X425641Y235934D03*
X409892Y243808D03*
X421704Y247744D03*
X425641Y255618D03*
X417766Y259556D03*
X413830Y271366D03*
X425641Y275304D03*
X409892Y283178D03*
X421704Y287115D03*
X425641Y298948D03*
X417766Y302885D03*
X413830Y314696D03*
X425641Y318634D03*
X409892Y326508D03*
X421704Y330444D03*
X425641Y338318D03*
X417766Y342256D03*
X421704Y350130D03*
X413830Y354066D03*
X422200Y368900D03*
X410700Y368600D03*
X425641Y358004D03*
X417766Y361941D03*
X436000Y158000D03*
X435400Y182000D03*
X434900Y209000D03*
X429350Y240750D03*
X437500Y267300D03*
Y311900D03*
X453300Y100000D03*
X459200Y169000D03*
X447600Y170500D03*
X455294Y200194D03*
X453100Y254000D03*
X456700Y278600D03*
X448100Y268800D03*
X447600Y310500D03*
X451800Y327400D03*
X469600Y113900D03*
X473299Y167099D03*
X462640Y217760D03*
X477800Y259000D03*
X462650Y293850D03*
X470350Y319650D03*
X461650Y352150D03*
X490800Y78500D03*
X493000Y108000D03*
X487079Y167479D03*
X486100Y189100D03*
X489951Y210801D03*
Y204502D03*
Y229698D03*
X493101D03*
X485600Y227100D03*
X487700Y234800D03*
X490800Y315100D03*
X483350Y358650D03*
X506500Y93400D03*
X498890Y126390D03*
X510701Y127101D03*
X500858Y167642D03*
X506200Y185400D03*
X496000Y192000D03*
X505699Y210801D03*
X508849D03*
X502550Y204502D03*
X508849Y226549D03*
X495900Y250000D03*
X509300Y265000D03*
X505100Y264700D03*
X511700Y284400D03*
X513000Y319000D03*
X530600Y96400D03*
X514200Y176200D03*
X519800Y182900D03*
X515900Y195000D03*
X529809Y198912D03*
Y205211D03*
Y208360D03*
Y214660D03*
Y227340D03*
X514700Y240500D03*
X529809Y233640D03*
Y236789D03*
Y243088D03*
X527800Y250600D03*
X514300Y255400D03*
X529150Y299350D03*
X538100Y74400D03*
X543300Y84500D03*
X543800Y104800D03*
X541900Y150500D03*
X546100Y189300D03*
X536191Y198912D03*
Y205211D03*
Y208360D03*
Y214660D03*
X548500Y231400D03*
X536191Y227340D03*
Y233640D03*
Y236789D03*
Y243088D03*
X539900Y295000D03*
X545000Y288300D03*
X564100Y25300D03*
X563500Y59500D03*
X557065Y190925D03*
Y181475D03*
Y209825D03*
Y200375D03*
X551400Y201300D03*
X557065Y228725D03*
Y219275D03*
X554100Y255600D03*
X575700Y6200D03*
X583100Y20900D03*
X575900Y44100D03*
X583600Y40900D03*
X572700Y40800D03*
X574870Y94600D03*
Y113850D03*
X576650Y138850D03*
X576400Y152000D03*
X576600Y170600D03*
X574870Y192600D03*
X573300Y211600D03*
X574870Y266670D03*
X577100Y252100D03*
X576600Y295300D03*
X574870Y310570D03*
X584500Y10900D03*
X585500Y32800D03*
X597500Y150900D03*
X592675Y181475D03*
Y190925D03*
Y200375D03*
Y209825D03*
Y219275D03*
Y228725D03*
X615950Y98500D03*
X602100Y96900D03*
X612850Y123950D03*
X607500Y228500D03*
X608800Y281700D03*
X605600Y302300D03*
X609500Y318400D03*
X601500Y345200D03*
X610800Y355500D03*
X630000Y26500D03*
Y29500D03*
X626500D03*
X635900Y45200D03*
X627900Y268300D03*
X630790Y300110D03*
X630599Y325701D03*
X648000Y37000D03*
X644000D03*
X638600Y23000D03*
X644000Y43500D03*
X648000D03*
X646000Y40000D03*
X645200Y75200D03*
X638750Y97750D03*
X652200Y197000D03*
X638400Y211000D03*
X639400Y257800D03*
X643705Y269495D03*
X640200Y315100D03*
X640400Y308300D03*
X644600Y326700D03*
X640400Y320900D03*
X644600Y342600D03*
X659500Y51200D03*
X657100Y204100D03*
X669300Y217050D03*
X656800Y277600D03*
X657000Y283500D03*
X663200Y270000D03*
X657100Y289700D03*
X656900Y296200D03*
X664100Y339500D03*
X657500Y354300D03*
X656600Y359000D03*
X655114Y378014D03*
X671500Y49500D03*
X677500Y192000D03*
X676900Y258500D03*
X686000Y266000D03*
X681100Y293700D03*
X675201Y343601D03*
X688400Y372000D03*
X691475Y280425D03*
X691895Y319795D03*
X692084Y306016D03*
X692300Y315500D03*
X701500Y346500D03*
X692300Y338800D03*
X692500Y370300D03*
X703500Y368000D03*
X719800Y17100D03*
X718500Y7200D03*
X718300Y33400D03*
X710000Y281500D03*
X716600Y273200D03*
X710050Y338250D03*
X709500Y366299D03*
X734900Y3100D03*
X741400D03*
X734800Y9000D03*
X741300Y8700D03*
X738600Y5400D03*
X735000Y95000D03*
X727150Y255050D03*
X726600Y250900D03*
X735300Y255500D03*
X740000Y274500D03*
X734000Y275500D03*
X744300Y5600D03*
X743300Y48200D03*
G54D11*
X42000Y362000D03*
X44000Y378000D03*
X70000Y382000D03*
X196727Y14727D03*
Y29727D03*
X206727Y14727D03*
X211727Y39727D03*
X201727D03*
X206727Y29727D03*
X211727Y24727D03*
X201727D03*
X226727Y14727D03*
X216727D03*
X231727Y39727D03*
X221727D03*
X226727Y29727D03*
X216727D03*
X231727Y24727D03*
X221727D03*
X246727Y14727D03*
X236727D03*
X241727Y39727D03*
X246727Y29727D03*
X236727D03*
X241727Y24727D03*
X266727Y14727D03*
X261727Y39727D03*
X251727D03*
X266727Y29727D03*
X256727D03*
X261727Y24727D03*
X251727D03*
X276727Y14727D03*
X281727Y39727D03*
X271727D03*
X276727Y29727D03*
X281727Y24727D03*
X271727D03*
X296727Y14727D03*
X286727D03*
X301727Y39727D03*
X291727D03*
X296727Y29727D03*
X286727D03*
X301727Y24727D03*
X291727D03*
X316727Y14727D03*
X306727D03*
X311727Y39727D03*
X316727Y29727D03*
X306727D03*
X311727Y24727D03*
X309100Y385400D03*
X397727Y14227D03*
X407727D03*
X397727Y29227D03*
X402727Y39227D03*
X407727Y29227D03*
X402727Y24227D03*
X397000Y384500D03*
X417727Y14227D03*
X422727Y39227D03*
X412727D03*
X417727Y29227D03*
X422727Y24227D03*
X412727D03*
X437727Y14227D03*
X427727D03*
X442727Y39227D03*
X432727D03*
X437727Y29227D03*
X427727D03*
X442727Y24227D03*
X432727D03*
X440500Y385000D03*
X447727Y14227D03*
X452727Y39227D03*
X457727Y29227D03*
X447727D03*
X452727Y24227D03*
X477727Y14227D03*
X467727D03*
X472727Y39227D03*
X462727D03*
X477727Y29227D03*
X467727D03*
X472727Y24227D03*
X462727D03*
X487727Y14227D03*
X492727Y39227D03*
X482727D03*
X487727Y29227D03*
X492727Y24227D03*
X482727D03*
X507727Y14227D03*
X497727D03*
X512727Y39227D03*
X502727D03*
X507727Y29227D03*
X497727D03*
X512727Y24227D03*
X502727D03*
X517727Y14227D03*
Y29227D03*
X652000Y132500D03*
X651500Y160500D03*
X663500Y118000D03*
Y123000D03*
X658000Y132500D03*
X655000Y139500D03*
X658500Y161000D03*
X655000Y156000D03*
Y147500D03*
X683500Y118500D03*
X673500Y118000D03*
Y123500D03*
X683500D03*
X687000Y216500D03*
X686500Y244500D03*
X690000Y118500D03*
X692500Y123500D03*
X706500Y206000D03*
Y200000D03*
X699500D03*
Y206000D03*
X693500Y216500D03*
X690000Y222000D03*
Y230500D03*
X693500Y244500D03*
X690000Y239000D03*
X720000Y206000D03*
Y200500D03*
X713500Y206000D03*
Y200000D03*
X726500Y203500D03*
G54D20*
X738720Y117933D03*
Y147067D03*
G54D21*
G01X255000Y-52500D02*
X490000D01*
Y-135000D01*
X255000D01*
G01Y-52500D02*
Y-135000D01*
G01X490000Y-107500D02*
X255000D01*
G01Y-80000D02*
X490000D01*
G01X335000D02*
Y-107500D01*
G01X405000D02*
Y-135000D01*
G54D12*
X104000Y378000D03*
X579000Y337000D03*
X605500Y67500D03*
X630000Y79500D03*
G54D22*
G01X260667Y-86500D02*
Y-92500D01*
X264333D01*
G01X266708D02*
X269000Y-86500D01*
X271292Y-92500D01*
G01X270467Y-90400D02*
X267533D01*
G01X275500Y-92500D02*
Y-89800D01*
X273667Y-86500D01*
G01X277333D02*
X275500Y-89800D01*
G01X283833Y-92500D02*
X280167D01*
Y-86500D01*
X283833D01*
G01X282367Y-89400D02*
X280167D01*
G01X286667Y-92500D02*
Y-86500D01*
X288958D01*
X289692Y-86800D01*
X290150Y-87200D01*
X290333Y-88000D01*
X290150Y-88800D01*
X289600Y-89300D01*
X288958Y-89600D01*
X286667D01*
G01X288958D02*
X290333Y-92500D01*
G01X301500D02*
Y-86500D01*
X300400Y-87700D01*
G01Y-92500D02*
X302600D01*
G01X305983Y-91600D02*
X306533Y-92100D01*
X307175Y-92400D01*
X308000Y-92500D01*
X308825Y-92300D01*
X309467Y-91900D01*
X309925Y-91200D01*
X310017Y-90400D01*
X309833Y-89600D01*
X309375Y-89100D01*
X308733Y-88700D01*
X308092Y-88600D01*
X307450Y-88700D01*
X306625Y-89100D01*
X306900Y-86500D01*
X309375D01*
G01X312850Y-92700D02*
X316150Y-86500D01*
G01X319258Y-87500D02*
X319808Y-86900D01*
X320450Y-86600D01*
X321183Y-86500D01*
X322100Y-86700D01*
X322742Y-87200D01*
X322925Y-87800D01*
X322833Y-88400D01*
X322467Y-88900D01*
X320633Y-89900D01*
X319808Y-90600D01*
X319258Y-91600D01*
X319075Y-92500D01*
X322925D01*
G01X327500Y-86500D02*
X326767Y-86700D01*
X326217Y-87200D01*
X325850Y-87800D01*
X325575Y-88600D01*
X325483Y-89500D01*
X325575Y-90400D01*
X325850Y-91200D01*
X326217Y-91800D01*
X326767Y-92300D01*
X327500Y-92500D01*
X328233Y-92300D01*
X328783Y-91800D01*
X329150Y-91200D01*
X329425Y-90400D01*
X329517Y-89500D01*
X329425Y-88600D01*
X329150Y-87800D01*
X328783Y-87200D01*
X328233Y-86700D01*
X327500Y-86500D01*
G01X272800Y-99500D02*
X274633D01*
Y-101300D01*
X274083Y-101900D01*
X273442Y-102300D01*
X272525Y-102500D01*
X271608Y-102300D01*
X270967Y-101900D01*
X270417Y-101300D01*
X270050Y-100600D01*
X269867Y-99800D01*
Y-99100D01*
X270050Y-98500D01*
X270417Y-97800D01*
X270967Y-97200D01*
X271517Y-96800D01*
X272250Y-96500D01*
X272892D01*
X273625Y-96700D01*
X274175Y-97100D01*
G01X276917Y-102500D02*
Y-96500D01*
X279208D01*
X279942Y-96800D01*
X280400Y-97200D01*
X280583Y-98000D01*
X280400Y-98800D01*
X279850Y-99300D01*
X279208Y-99600D01*
X276917D01*
G01X279208D02*
X280583Y-102500D01*
G01X285250D02*
X284517Y-102400D01*
X283875Y-102000D01*
X283325Y-101400D01*
X282958Y-100700D01*
X282775Y-99900D01*
Y-99100D01*
X282958Y-98300D01*
X283325Y-97600D01*
X283875Y-97000D01*
X284517Y-96600D01*
X285250Y-96500D01*
X285983Y-96600D01*
X286625Y-97000D01*
X287175Y-97600D01*
X287542Y-98300D01*
X287725Y-99100D01*
Y-99900D01*
X287542Y-100700D01*
X287175Y-101400D01*
X286625Y-102000D01*
X285983Y-102400D01*
X285250Y-102500D01*
G01X289733Y-96500D02*
Y-100800D01*
X290100Y-101700D01*
X290833Y-102300D01*
X291750Y-102500D01*
X292667Y-102300D01*
X293400Y-101700D01*
X293767Y-100800D01*
Y-96500D01*
G01X296142Y-102500D02*
Y-96500D01*
X300358Y-102500D01*
Y-96500D01*
G01X302733Y-102500D02*
Y-96500D01*
X304567D01*
X305300Y-96800D01*
X305850Y-97200D01*
X306308Y-97800D01*
X306675Y-98500D01*
X306767Y-99500D01*
X306675Y-100500D01*
X306308Y-101200D01*
X305850Y-101800D01*
X305300Y-102200D01*
X304567Y-102500D01*
X302733D01*
G01X315733Y-101600D02*
X316283Y-102100D01*
X316925Y-102400D01*
X317750Y-102500D01*
X318575Y-102300D01*
X319217Y-101900D01*
X319675Y-101200D01*
X319767Y-100400D01*
X319583Y-99600D01*
X319125Y-99100D01*
X318483Y-98700D01*
X317842Y-98600D01*
X317200Y-98700D01*
X316375Y-99100D01*
X316650Y-96500D01*
X319125D01*
G01X364983Y-97500D02*
Y-91500D01*
X366817D01*
X367550Y-91800D01*
X368100Y-92200D01*
X368558Y-92800D01*
X368925Y-93500D01*
X369017Y-94500D01*
X368925Y-95500D01*
X368558Y-96200D01*
X368100Y-96800D01*
X367550Y-97200D01*
X366817Y-97500D01*
X364983D01*
G01X374600D02*
Y-91500D01*
X371208Y-95800D01*
X375792D01*
G01X380000Y-97500D02*
Y-91500D01*
X378900Y-92700D01*
G01Y-97500D02*
X381100D01*
G01X386500Y-91500D02*
X385767Y-91700D01*
X385217Y-92200D01*
X384850Y-92800D01*
X384575Y-93600D01*
X384483Y-94500D01*
X384575Y-95400D01*
X384850Y-96200D01*
X385217Y-96800D01*
X385767Y-97300D01*
X386500Y-97500D01*
X387233Y-97300D01*
X387783Y-96800D01*
X388150Y-96200D01*
X388425Y-95400D01*
X388517Y-94500D01*
X388425Y-93600D01*
X388150Y-92800D01*
X387783Y-92200D01*
X387233Y-91700D01*
X386500Y-91500D01*
G01X393000D02*
X392267Y-91700D01*
X391717Y-92200D01*
X391350Y-92800D01*
X391075Y-93600D01*
X390983Y-94500D01*
X391075Y-95400D01*
X391350Y-96200D01*
X391717Y-96800D01*
X392267Y-97300D01*
X393000Y-97500D01*
X393733Y-97300D01*
X394283Y-96800D01*
X394650Y-96200D01*
X394925Y-95400D01*
X395017Y-94500D01*
X394925Y-93600D01*
X394650Y-92800D01*
X394283Y-92200D01*
X393733Y-91700D01*
X393000Y-91500D01*
G01X405542Y-99500D02*
X404625Y-98500D01*
X404167Y-97500D01*
Y-93500D01*
X404625Y-92500D01*
X405542Y-91500D01*
G01X410758Y-92500D02*
X411308Y-91900D01*
X411950Y-91600D01*
X412683Y-91500D01*
X413600Y-91700D01*
X414242Y-92200D01*
X414425Y-92800D01*
X414333Y-93400D01*
X413967Y-93900D01*
X412133Y-94900D01*
X411308Y-95600D01*
X410758Y-96600D01*
X410575Y-97500D01*
X414425D01*
G01X416983Y-96600D02*
X417533Y-97100D01*
X418175Y-97400D01*
X419000Y-97500D01*
X419825Y-97300D01*
X420467Y-96900D01*
X420925Y-96200D01*
X421017Y-95400D01*
X420833Y-94600D01*
X420375Y-94100D01*
X419733Y-93700D01*
X419092Y-93600D01*
X418450Y-93700D01*
X417625Y-94100D01*
X417900Y-91500D01*
X420375D01*
G01X425500Y-97500D02*
Y-91500D01*
X424400Y-92700D01*
G01Y-97500D02*
X426600D01*
G01X432000Y-91500D02*
X431267Y-91700D01*
X430717Y-92200D01*
X430350Y-92800D01*
X430075Y-93600D01*
X429983Y-94500D01*
X430075Y-95400D01*
X430350Y-96200D01*
X430717Y-96800D01*
X431267Y-97300D01*
X432000Y-97500D01*
X432733Y-97300D01*
X433283Y-96800D01*
X433650Y-96200D01*
X433925Y-95400D01*
X434017Y-94500D01*
X433925Y-93600D01*
X433650Y-92800D01*
X433283Y-92200D01*
X432733Y-91700D01*
X432000Y-91500D01*
G01X436483Y-96300D02*
X437033Y-97000D01*
X437767Y-97400D01*
X438592Y-97500D01*
X439325Y-97400D01*
X440058Y-96900D01*
X440517Y-96300D01*
X440608Y-95700D01*
X440425Y-95000D01*
X439783Y-94500D01*
X439142Y-94300D01*
X438317D01*
G01X439142D02*
X439692Y-94000D01*
X440150Y-93500D01*
X440333Y-92900D01*
X440150Y-92300D01*
X439692Y-91800D01*
X438867Y-91500D01*
X438042Y-91600D01*
X437217Y-92000D01*
G01X445000Y-91500D02*
X444267Y-91700D01*
X443717Y-92200D01*
X443350Y-92800D01*
X443075Y-93600D01*
X442983Y-94500D01*
X443075Y-95400D01*
X443350Y-96200D01*
X443717Y-96800D01*
X444267Y-97300D01*
X445000Y-97500D01*
X445733Y-97300D01*
X446283Y-96800D01*
X446650Y-96200D01*
X446925Y-95400D01*
X447017Y-94500D01*
X446925Y-93600D01*
X446650Y-92800D01*
X446283Y-92200D01*
X445733Y-91700D01*
X445000Y-91500D01*
G01X451500D02*
X450767Y-91700D01*
X450217Y-92200D01*
X449850Y-92800D01*
X449575Y-93600D01*
X449483Y-94500D01*
X449575Y-95400D01*
X449850Y-96200D01*
X450217Y-96800D01*
X450767Y-97300D01*
X451500Y-97500D01*
X452233Y-97300D01*
X452783Y-96800D01*
X453150Y-96200D01*
X453425Y-95400D01*
X453517Y-94500D01*
X453425Y-93600D01*
X453150Y-92800D01*
X452783Y-92200D01*
X452233Y-91700D01*
X451500Y-91500D01*
G01X458458Y-99500D02*
X459375Y-98500D01*
X459833Y-97500D01*
Y-93500D01*
X459375Y-92500D01*
X458458Y-91500D01*
G54D13*
X125000Y65000D03*
Y365000D03*
X525000D03*
X725000Y65000D03*
G54D23*
G01X258500Y-125000D02*
Y-117000D01*
X261000D01*
X262000Y-117400D01*
X262750Y-117933D01*
X263375Y-118733D01*
X263875Y-119667D01*
X264000Y-121000D01*
X263875Y-122333D01*
X263375Y-123267D01*
X262750Y-124067D01*
X262000Y-124600D01*
X261000Y-125000D01*
X258500D01*
G01X266625D02*
X269750Y-117000D01*
X272875Y-125000D01*
G01X271750Y-122200D02*
X267750D01*
G01X278250Y-117000D02*
Y-125000D01*
G01X275375Y-117000D02*
X281125D01*
G01X289250Y-125000D02*
X284250D01*
Y-117000D01*
X289250D01*
G01X287250Y-120867D02*
X284250D01*
G01X295250Y-125267D02*
X295000Y-125133D01*
Y-124867D01*
X295250Y-124733D01*
X295500Y-124867D01*
Y-125133D01*
X295250Y-125267D01*
G01Y-121667D02*
X295000Y-121533D01*
Y-121267D01*
X295250Y-121133D01*
X295500Y-121267D01*
Y-121533D01*
X295250Y-121667D01*
G01X267750Y-70000D02*
Y-62000D01*
X270250D01*
X271250Y-62400D01*
X272000Y-62933D01*
X272625Y-63733D01*
X273125Y-64667D01*
X273250Y-66000D01*
X273125Y-67333D01*
X272625Y-68267D01*
X272000Y-69067D01*
X271250Y-69600D01*
X270250Y-70000D01*
X267750D01*
G01X277500Y-62000D02*
X280500D01*
G01X279000D02*
Y-70000D01*
G01X277500D02*
X280500D01*
G01X288250Y-66000D02*
X290750D01*
Y-68400D01*
X290000Y-69200D01*
X289125Y-69733D01*
X287875Y-70000D01*
X286625Y-69733D01*
X285750Y-69200D01*
X285000Y-68400D01*
X284500Y-67467D01*
X284250Y-66400D01*
Y-65467D01*
X284500Y-64667D01*
X285000Y-63733D01*
X285750Y-62933D01*
X286500Y-62400D01*
X287500Y-62000D01*
X288375D01*
X289375Y-62267D01*
X290125Y-62800D01*
G01X294500Y-62000D02*
X297500D01*
G01X296000D02*
Y-70000D01*
G01X294500D02*
X297500D01*
G01X304500Y-62000D02*
Y-70000D01*
G01X301625Y-62000D02*
X307375D01*
G01X309875Y-70000D02*
X313000Y-62000D01*
X316125Y-70000D01*
G01X315000Y-67200D02*
X311000D01*
G01X319000Y-62000D02*
Y-70000D01*
X324000D01*
G01X336000Y-62000D02*
Y-70000D01*
X341000D01*
G01X345500Y-62000D02*
X348500D01*
G01X347000D02*
Y-70000D01*
G01X345500D02*
X348500D01*
G01X356250Y-66000D02*
X358750D01*
Y-68400D01*
X358000Y-69200D01*
X357125Y-69733D01*
X355875Y-70000D01*
X354625Y-69733D01*
X353750Y-69200D01*
X353000Y-68400D01*
X352500Y-67467D01*
X352250Y-66400D01*
Y-65467D01*
X352500Y-64667D01*
X353000Y-63733D01*
X353750Y-62933D01*
X354500Y-62400D01*
X355500Y-62000D01*
X356375D01*
X357375Y-62267D01*
X358125Y-62800D01*
G01X361375Y-70000D02*
Y-62000D01*
G01X366625D02*
Y-70000D01*
G01Y-66000D02*
X361375D01*
G01X372500Y-62000D02*
Y-70000D01*
G01X369625Y-62000D02*
X375375D01*
G01X388000D02*
X391000D01*
G01X389500D02*
Y-70000D01*
G01X388000D02*
X391000D01*
G01X395125D02*
Y-62000D01*
X400875Y-70000D01*
Y-62000D01*
G01X403625Y-70000D02*
Y-62000D01*
X409375Y-70000D01*
Y-62000D01*
G01X415000Y-70000D02*
X414000Y-69867D01*
X413125Y-69333D01*
X412375Y-68533D01*
X411875Y-67600D01*
X411625Y-66533D01*
Y-65467D01*
X411875Y-64400D01*
X412375Y-63467D01*
X413125Y-62667D01*
X414000Y-62133D01*
X415000Y-62000D01*
X416000Y-62133D01*
X416875Y-62667D01*
X417625Y-63467D01*
X418125Y-64400D01*
X418375Y-65467D01*
Y-66533D01*
X418125Y-67600D01*
X417625Y-68533D01*
X416875Y-69333D01*
X416000Y-69867D01*
X415000Y-70000D01*
G01X420375Y-62000D02*
X423500Y-70000D01*
X426625Y-62000D01*
G01X428875Y-70000D02*
X432000Y-62000D01*
X435125Y-70000D01*
G01X434000Y-67200D02*
X430000D01*
G01X440500Y-62000D02*
Y-70000D01*
G01X437625Y-62000D02*
X443375D01*
G01X447500D02*
X450500D01*
G01X449000D02*
Y-70000D01*
G01X447500D02*
X450500D01*
G01X457500D02*
X456500Y-69867D01*
X455625Y-69333D01*
X454875Y-68533D01*
X454375Y-67600D01*
X454125Y-66533D01*
Y-65467D01*
X454375Y-64400D01*
X454875Y-63467D01*
X455625Y-62667D01*
X456500Y-62133D01*
X457500Y-62000D01*
X458500Y-62133D01*
X459375Y-62667D01*
X460125Y-63467D01*
X460625Y-64400D01*
X460875Y-65467D01*
Y-66533D01*
X460625Y-67600D01*
X460125Y-68533D01*
X459375Y-69333D01*
X458500Y-69867D01*
X457500Y-70000D01*
G01X463125D02*
Y-62000D01*
X468875Y-70000D01*
Y-62000D01*
G01X471875Y-68934D02*
X472875Y-69600D01*
X474000Y-70000D01*
X475000D01*
X476000Y-69600D01*
X476750Y-68934D01*
X477125Y-68000D01*
X476875Y-67067D01*
X476250Y-66267D01*
X475125Y-65733D01*
X473625Y-65467D01*
X472750Y-64933D01*
X472375Y-64000D01*
X472625Y-63067D01*
X473250Y-62400D01*
X474125Y-62000D01*
X475000D01*
X475875Y-62267D01*
X476625Y-62933D01*
G01X316250Y-117000D02*
X315250Y-117267D01*
X314500Y-117933D01*
X314000Y-118733D01*
X313625Y-119800D01*
X313500Y-121000D01*
X313625Y-122200D01*
X314000Y-123267D01*
X314500Y-124067D01*
X315250Y-124733D01*
X316250Y-125000D01*
X317250Y-124733D01*
X318000Y-124067D01*
X318500Y-123267D01*
X318875Y-122200D01*
X319000Y-121000D01*
X318875Y-119800D01*
X318500Y-118733D01*
X318000Y-117933D01*
X317250Y-117267D01*
X316250Y-117000D01*
G01X326250Y-125000D02*
Y-117000D01*
X321625Y-122733D01*
X327875D01*
G01X331000Y-125267D02*
X335500Y-117000D01*
G01X341750Y-125000D02*
Y-117000D01*
X340250Y-118600D01*
G01Y-125000D02*
X343250D01*
G01X347875Y-118333D02*
X348625Y-117533D01*
X349500Y-117133D01*
X350500Y-117000D01*
X351750Y-117267D01*
X352625Y-117933D01*
X352875Y-118733D01*
X352750Y-119534D01*
X352250Y-120200D01*
X349750Y-121533D01*
X348625Y-122467D01*
X347875Y-123800D01*
X347625Y-125000D01*
X352875D01*
G01X356500Y-125267D02*
X361000Y-117000D01*
G01X364875Y-118333D02*
X365625Y-117533D01*
X366500Y-117133D01*
X367500Y-117000D01*
X368750Y-117267D01*
X369625Y-117933D01*
X369875Y-118733D01*
X369750Y-119534D01*
X369250Y-120200D01*
X366750Y-121533D01*
X365625Y-122467D01*
X364875Y-123800D01*
X364625Y-125000D01*
X369875D01*
G01X375750Y-117000D02*
X374750Y-117267D01*
X374000Y-117933D01*
X373500Y-118733D01*
X373125Y-119800D01*
X373000Y-121000D01*
X373125Y-122200D01*
X373500Y-123267D01*
X374000Y-124067D01*
X374750Y-124733D01*
X375750Y-125000D01*
X376750Y-124733D01*
X377500Y-124067D01*
X378000Y-123267D01*
X378375Y-122200D01*
X378500Y-121000D01*
X378375Y-119800D01*
X378000Y-118733D01*
X377500Y-117933D01*
X376750Y-117267D01*
X375750Y-117000D01*
G01X384250Y-125000D02*
Y-117000D01*
X382750Y-118600D01*
G01Y-125000D02*
X385750D01*
G01X390375Y-121667D02*
X391250Y-120733D01*
X392000Y-120200D01*
X393000Y-119933D01*
X393875Y-120200D01*
X394500Y-120733D01*
X395000Y-121533D01*
X395125Y-122467D01*
X395000Y-123267D01*
X394500Y-124067D01*
X393750Y-124733D01*
X392875Y-125000D01*
X391875Y-124733D01*
X391000Y-123934D01*
X390500Y-122733D01*
X390375Y-121400D01*
X390625Y-119667D01*
X391000Y-118733D01*
X391625Y-117800D01*
X392500Y-117133D01*
X393375Y-117000D01*
X394250Y-117267D01*
X394875Y-117933D01*
G01X408750Y-125000D02*
Y-117000D01*
X411875D01*
X412875Y-117400D01*
X413500Y-117933D01*
X413750Y-119000D01*
X413500Y-120067D01*
X412750Y-120733D01*
X411875Y-121133D01*
X408750D01*
G01X411875D02*
X413750Y-125000D01*
G01X422250D02*
X417250D01*
Y-117000D01*
X422250D01*
G01X420250Y-120867D02*
X417250D01*
G01X425125Y-117000D02*
X428250Y-125000D01*
X431375Y-117000D01*
G01X436750Y-125267D02*
X436500Y-125133D01*
Y-124867D01*
X436750Y-124733D01*
X437000Y-124867D01*
Y-125133D01*
X436750Y-125267D01*
G01Y-121667D02*
X436500Y-121533D01*
Y-121267D01*
X436750Y-121133D01*
X437000Y-121267D01*
Y-121533D01*
X436750Y-121667D01*
G01X459750Y-125000D02*
Y-117000D01*
X462250D01*
X463250Y-117400D01*
X464000Y-117933D01*
X464625Y-118733D01*
X465125Y-119667D01*
X465250Y-121000D01*
X465125Y-122333D01*
X464625Y-123267D01*
X464000Y-124067D01*
X463250Y-124600D01*
X462250Y-125000D01*
X459750D01*
G54D14*
X147500Y337500D03*
Y357500D03*
Y347500D03*
Y367500D03*
Y377500D03*
X157500Y337500D03*
Y357500D03*
Y347500D03*
Y367500D03*
Y377500D03*
X167500Y337500D03*
Y357500D03*
Y347500D03*
Y367500D03*
Y377500D03*
G54D15*
X174000Y10500D03*
X342000D03*
X375000Y10000D03*
X543000D03*
G54D16*
X168700Y198500D03*
Y218500D03*
Y208500D03*
Y228500D03*
Y238500D03*
X617500Y188500D03*
Y198500D03*
Y208500D03*
Y218500D03*
Y228500D03*
G54D17*
X274000Y183000D03*
X284000D03*
X459500Y188000D03*
X449500D03*
X492500Y275000D03*
X515000D03*
X502500D03*
X738400Y166600D03*
Y178400D03*
X744000Y236400D03*
Y246400D03*
G54D18*
X709587Y119508D03*
G54D19*
X718248Y132500D03*
M02*
