G04 ================== begin FILE IDENTIFICATION RECORD ==================*
G04 Layout Name:  2510300_REV-D.brd*
G04 Film Name:    L20_bot.gbr*
G04 File Format:  Gerber RS274X*
G04 File Origin:  Cadence Allegro 16.6-2015-S051*
G04 Origin Date:  Tue Apr 12 06:53:56 2016*
G04 *
G04 Layer:  VIA CLASS/BOTTOM*
G04 Layer:  PIN/BOTTOM*
G04 Layer:  ETCH/BOTTOM*
G04 Layer:  DRAWING FORMAT/TITLE_BLOCK*
G04 *
G04 Offset:    (0.00 0.00)*
G04 Mirror:    No*
G04 Mode:      Positive*
G04 Rotation:  0*
G04 FullContactRelief:  No*
G04 UndefLineWidth:     0.00*
G04 ================== end FILE IDENTIFICATION RECORD ====================*
%FSLAX25Y25*MOIN*%
%IR0*IPPOS*OFA0.00000B0.00000*MIA0B0*SFA1.00000B1.00000*%
%ADD55O,.07X.11*%
%ADD52O,.11X.07*%
%ADD48R,.12X.05*%
%AMMACRO36*
21,1,.025,.02,0.0,0.0,135.*%
%ADD36MACRO36*%
%ADD21R,.017X.1*%
%ADD58O,.11X.067*%
%ADD59O,.13X.066*%
%ADD43R,.083X.102*%
%ADD27C,.02*%
%ADD56C,.04*%
%ADD46R,.06X.009*%
%ADD32C,.06*%
%ADD50R,.124X.077*%
%ADD45R,.009X.06*%
%ADD16C,.025*%
%ADD12C,.07*%
%ADD10C,.016*%
%ADD22R,.017X.185*%
%ADD30C,.072*%
%ADD24C,.065*%
%ADD39R,.06X.06*%
%ADD60C,.096*%
%ADD40C,.01378*%
%ADD19R,.012X.02*%
%ADD14R,.032X.03*%
%ADD44R,.06X.03*%
%AMMACRO37*
21,1,.025,.02,0.0,0.0,45.*%
%ADD37MACRO37*%
%ADD33R,.02X.025*%
%ADD11R,.03X.032*%
%ADD54R,.04X.05*%
%ADD53R,.07X.012*%
%ADD34R,.025X.02*%
%ADD41R,.02X.017*%
%ADD15R,.032X.016*%
%ADD25C,.104*%
%ADD38R,.013X.065*%
%ADD35R,.05X.063*%
%ADD29C,.001*%
%ADD51R,.055X.06*%
%ADD23R,.09X.016*%
%ADD20C,.25*%
%ADD61R,.018X.016*%
%ADD47R,.055X.06*%
%ADD49R,.019X.07*%
%ADD26C,.19*%
%ADD18C,.005*%
%ADD17R,.079X.014*%
%ADD13R,.182X.178*%
%ADD31R,.095X.063*%
%ADD28R,.063X.095*%
%ADD42R,.083X.095*%
%ADD57R,.094X.086*%
%ADD62C,.01*%
%ADD63C,.011*%
%ADD64C,.015*%
%ADD65C,.004*%
%ADD66C,.006*%
%ADD67C,.008*%
%ADD68C,.00399*%
%ADD71C,.07004*%
%ADD72C,.02604*%
%ADD70C,.03504*%
%ADD69C,.08004*%
G75*
%LPD*%
G75*
G36*
G01X253500Y131000D02*
X251000Y128500D01*
X213000D01*
X209500Y132000D01*
Y162500D01*
X212500Y165500D01*
X253000D01*
Y159500D01*
X256000Y156500D01*
Y144500D01*
X257000Y143500D01*
Y137500D01*
X258000Y136500D01*
Y131000D01*
X253500D01*
G37*
G36*
G01X510500Y129000D02*
X473500D01*
X472000Y130500D01*
Y165000D01*
X512000D01*
Y130500D01*
X510500Y129000D01*
G37*
G36*
G01X593200Y1000D02*
X592800Y1400D01*
Y15000D01*
X593400Y15600D01*
Y25000D01*
X600000Y31600D01*
Y40500D01*
X603800Y44300D01*
X603900D01*
X603941Y44400D01*
X617000D01*
X620200Y41200D01*
Y21100D01*
X640800D01*
X640950Y20950D01*
X651950D01*
X655000Y24000D01*
X660000D01*
X661800Y22200D01*
Y2600D01*
X660200Y1000D01*
X593200D01*
G37*
G36*
G01X672000Y69000D02*
X671000Y70000D01*
Y80000D01*
X672000Y81000D01*
X690000D01*
X690199Y80801D01*
X690198Y80717D01*
G03X691517Y79398I1302J-17D01*
G01X691601Y79399D01*
X692000Y79000D01*
Y70000D01*
X691000Y69000D01*
X672000D01*
G37*
G36*
G01X700700Y131300D02*
Y117900D01*
X703800Y114800D01*
X711900D01*
X719400Y107300D01*
Y86100D01*
X718000Y84700D01*
X711100D01*
X711050Y84750D01*
X707950D01*
X676400Y116300D01*
Y133800D01*
X677700Y135100D01*
X696900D01*
X700700Y131300D01*
G37*
G36*
G01X728000Y182200D02*
X732300Y177900D01*
Y153200D01*
X720500Y141400D01*
X716600D01*
X713800Y138600D01*
X702600D01*
X694400Y146800D01*
X681800D01*
Y157000D01*
X683700Y158900D01*
X716800D01*
X721400Y163500D01*
Y179600D01*
X724000Y182200D01*
X728000D01*
G37*
G36*
G01X717500Y165000D02*
X713600Y161100D01*
X683300D01*
Y177300D01*
X688700D01*
Y173800D01*
X717500D01*
Y165000D01*
G37*
G36*
G01X692600Y177400D02*
X692500Y177500D01*
Y180500D01*
X691300Y181700D01*
X683300D01*
Y194041D01*
X683915Y194266D01*
X684005Y194160D01*
G03Y195840I995J840D01*
G01X683915Y195734D01*
X683300Y195959D01*
Y200600D01*
X691000Y208300D01*
X725300D01*
X728500Y205100D01*
Y200400D01*
X721517Y193417D01*
X721483Y193402D01*
G03X719683Y191583I1417J-3202D01*
G01X717300Y189200D01*
Y179000D01*
X716400Y178100D01*
X707500D01*
X706800Y177400D01*
X692600D01*
G37*
%LPC*%
G75*
G36*
G01X653304Y2954D02*
X653295Y2867D01*
G02X652235Y4281I-1295J133D01*
G01X652321Y4265D01*
X652696Y4546D01*
X652705Y4633D01*
G02X652723Y4753I1295J-133D01*
G01X652743Y4858D01*
X652358Y5243D01*
X652253Y5223D01*
G02X652235Y7781I-253J1277D01*
G01X652321Y7765D01*
X652696Y8046D01*
X652705Y8133D01*
G02X652723Y8253I1295J-133D01*
G01X652743Y8358D01*
X652358Y8743D01*
X652253Y8723D01*
G02X653277Y9747I-253J1277D01*
G01X653257Y9642D01*
X653642Y9257D01*
X653747Y9277D01*
G02X654253I253J-1277D01*
G01X654358Y9257D01*
X654743Y9642D01*
X654723Y9747D01*
G02X655747Y8723I1277J253D01*
G01X655642Y8743D01*
X655257Y8358D01*
X655277Y8253D01*
G02X655295Y8133I-1277J-253D01*
G01X655304Y8046D01*
X655679Y7765D01*
X655765Y7781D01*
G02X655747Y5223I235J-1281D01*
G01X655642Y5243D01*
X655257Y4858D01*
X655277Y4753D01*
G02X655295Y4633I-1277J-253D01*
G01X655304Y4546D01*
X655679Y4265D01*
X655765Y4281D01*
G02X654705Y2867I235J-1281D01*
G01X654696Y2954D01*
X654321Y3235D01*
X654235Y3219D01*
G02X653765I-235J1281D01*
G01X653679Y3235D01*
X653304Y2954D01*
G37*
G54D71*
X722900Y154800D03*
G54D72*
X690000Y191000D03*
X686000D03*
X689000Y195000D03*
X694000Y191000D03*
X693000Y195000D03*
G54D70*
X690000Y118500D03*
X683500D03*
Y123500D03*
X692500D03*
G54D69*
X599000Y10000D03*
X644900Y7000D03*
%LPD*%
G75*
G54D10*
X11100Y43100D03*
X20900Y141700D03*
X10550Y152200D03*
X18300Y160000D03*
X10550Y162700D03*
Y172300D03*
Y182400D03*
Y192700D03*
Y212700D03*
Y202400D03*
X27926Y67126D03*
X36326D03*
X31300Y99626D03*
X34600Y122500D03*
X24400Y118400D03*
X35100Y127500D03*
X27100Y150800D03*
X31400Y160000D03*
Y175000D03*
Y167500D03*
Y190000D03*
Y182500D03*
X21900Y204000D03*
Y211000D03*
X32100Y207500D03*
X31400Y200000D03*
X38600Y210900D03*
X38800Y214100D03*
X21900Y220800D03*
Y228700D03*
X30900Y225000D03*
X31100Y215000D03*
X21900Y243600D03*
X37200Y240100D03*
X28100Y244300D03*
X31500Y240000D03*
X32400Y232500D03*
X27400Y267500D03*
X34500Y295500D03*
Y317300D03*
X26668Y327632D03*
X26574Y337474D03*
X27347Y332553D03*
X26405Y342395D03*
X25084Y347316D03*
X25763Y352237D03*
X26100Y367000D03*
X24942Y357158D03*
X24379Y362079D03*
X45600Y118900D03*
X48100Y126500D03*
X39400Y126300D03*
Y110400D03*
X56800Y130600D03*
X50400Y141700D03*
X54100Y161800D03*
X52500Y154000D03*
X53900Y169600D03*
X54200Y175000D03*
X54100Y164700D03*
X54400Y172700D03*
X41000Y172300D03*
X53900Y184100D03*
X54200Y195000D03*
X53700Y180900D03*
X54000Y192200D03*
X54100Y189500D03*
X41000Y192700D03*
X40900Y181500D03*
Y183600D03*
X54000Y204200D03*
X53700Y199500D03*
X40900Y202300D03*
X53900Y220500D03*
Y228000D03*
X40100Y232300D03*
X40000Y222700D03*
X53600Y237700D03*
X53500Y240900D03*
X53600Y244100D03*
Y247300D03*
X40500Y237700D03*
X41100Y247300D03*
X43900Y259200D03*
X43932Y250132D03*
X43200Y262800D03*
X43347Y255053D03*
X54500Y263100D03*
X43400Y267500D03*
X48500Y254200D03*
X42079Y284579D03*
X43600Y271200D03*
X42037Y274737D03*
X42242Y279658D03*
X53900Y283100D03*
X46300Y276900D03*
X56300Y298100D03*
X54200Y291900D03*
Y313100D03*
X54600Y306900D03*
X48000Y336000D03*
X54400Y328100D03*
X53000Y338000D03*
X55000Y341000D03*
X71400Y9200D03*
X71000Y16200D03*
X70600Y24200D03*
X70900Y34100D03*
X66800Y41700D03*
X74200Y72200D03*
X69700Y77500D03*
X63500Y87500D03*
X60400Y93700D03*
X67650Y98850D03*
X67700Y108300D03*
X66550Y117750D03*
X67030Y122470D03*
X62426Y115374D03*
X67860Y129560D03*
X67200Y160553D03*
Y157648D03*
X56900Y151100D03*
Y160800D03*
X63100Y153600D03*
X68440Y148460D03*
X56900Y171300D03*
X63100Y163100D03*
Y172600D03*
X67300Y164100D03*
X66400Y195700D03*
X56900Y191400D03*
Y181700D03*
X63100Y182300D03*
Y192600D03*
X68300Y211100D03*
X68000Y214100D03*
X65100Y213300D03*
X65200Y210900D03*
X66100Y206500D03*
X66200Y204100D03*
X66100Y201400D03*
Y198800D03*
X56900Y201300D03*
Y210700D03*
X68240Y216960D03*
X68100Y220600D03*
X67400Y224500D03*
X66700Y227000D03*
X56900Y221100D03*
X61600Y227800D03*
X66520Y238220D03*
X63350Y245350D03*
X61600Y266900D03*
X66000Y262000D03*
X61100Y275400D03*
X66100Y300600D03*
X62000Y300000D03*
X66000Y329000D03*
X61050Y322050D03*
X62000Y342000D03*
X87000Y20600D03*
X81000Y61300D03*
X80300Y104200D03*
X81100Y107300D03*
X90800Y98000D03*
X80110Y96490D03*
X80610Y101210D03*
X83000Y93000D03*
X84800Y113293D03*
X84000Y109800D03*
X81400Y125300D03*
X82800Y116300D03*
X82200Y120900D03*
X85000Y136371D03*
Y139290D03*
X90800Y136400D03*
X83230Y141370D03*
X81980Y134280D03*
X81730Y143730D03*
X80020Y131920D03*
X81600Y128200D03*
X81480Y153180D03*
X80300Y146500D03*
X80260Y155540D03*
X84000Y157000D03*
X79620Y150820D03*
X84600Y163500D03*
X81000Y172400D03*
X86400Y178000D03*
X79440Y174440D03*
X81200Y176800D03*
X79420Y169720D03*
X79590Y164990D03*
X80550Y167350D03*
X84500Y195700D03*
X82500Y182500D03*
Y192500D03*
X81850Y186250D03*
X79590Y183890D03*
X80590Y188610D03*
X81800Y180000D03*
X80000Y207200D03*
X82250Y205150D03*
X79240Y198060D03*
X79190Y202790D03*
X82500Y202500D03*
Y210000D03*
X79330Y209870D03*
X79370Y200430D03*
X82500Y225000D03*
Y217500D03*
X81470Y228770D03*
X80550Y220950D03*
X79170Y231130D03*
X82500Y247500D03*
Y232500D03*
Y240000D03*
X83440Y235860D03*
X80590Y245310D03*
X81850Y242950D03*
X79770Y247670D03*
X80800Y238000D03*
X79800Y234100D03*
X85200Y254000D03*
X84200Y251200D03*
X83400Y257700D03*
X83100Y260500D03*
X82810Y264210D03*
X82600Y255200D03*
X80070Y266570D03*
X80500Y253800D03*
Y262300D03*
X81790Y271290D03*
X79400Y274400D03*
X84600Y274900D03*
X84440Y280740D03*
X82120Y278380D03*
X87700Y284200D03*
X81800Y275000D03*
X84370Y268930D03*
X79900Y302000D03*
X83800Y296200D03*
X75000Y296000D03*
X85470Y316170D03*
X81850Y308818D03*
Y311723D03*
X85800Y319200D03*
X90760Y304360D03*
X79900Y318520D03*
Y313790D03*
Y306700D03*
X81270Y335070D03*
X83626Y325027D03*
X82850Y330350D03*
X86600Y328300D03*
X88900Y335100D03*
X86250Y322050D03*
X79900Y337410D03*
Y332690D03*
Y325600D03*
X85200Y339800D03*
X81840Y342160D03*
X79900Y344500D03*
X88000Y360000D03*
Y368000D03*
X90000Y364000D03*
X79000Y374000D03*
Y378000D03*
Y381000D03*
X106000Y9900D03*
X103100Y11400D03*
X105300Y38800D03*
X109000Y21900D03*
X107200Y61200D03*
X98600Y90000D03*
X103000Y84000D03*
X99000Y96500D03*
X100080Y107120D03*
X99020Y109480D03*
X99970Y100030D03*
X99510Y121290D03*
X97130Y118930D03*
X100010Y126010D03*
X100200Y114200D03*
X94000Y140000D03*
X97400Y140300D03*
X100180Y128380D03*
X98240Y154360D03*
X95000Y149600D03*
X100610Y144910D03*
X97000Y156600D03*
X100300Y152000D03*
X97000Y172500D03*
X99400Y164500D03*
X100100Y167200D03*
X100880Y196880D03*
X100070Y187430D03*
X97400Y192500D03*
X96900Y182500D03*
X100420Y213420D03*
X99400Y206900D03*
X99140Y199240D03*
X100470Y203970D03*
X97900Y210000D03*
X97100Y202500D03*
X100380Y215780D03*
X100500Y218600D03*
X100200Y222600D03*
X100400Y225500D03*
X100300Y228200D03*
X100500Y231700D03*
X97400Y225000D03*
X96700Y217500D03*
X100630Y244130D03*
X100690Y246490D03*
X96900Y247500D03*
X97100Y240000D03*
Y232500D03*
X100300Y239900D03*
X100930Y253570D03*
X101000Y258300D03*
X97300Y257500D03*
X100680Y263020D03*
X99530Y274830D03*
X98670Y272470D03*
X100650Y267750D03*
X100800Y277200D03*
X93600Y277900D03*
X100300Y296000D03*
X102000Y293000D03*
X97200Y318400D03*
X96200Y306200D03*
X99700Y314100D03*
X97870Y331530D03*
X97900Y334700D03*
X96260Y324440D03*
X100100Y326800D03*
X100060Y329160D03*
X94000Y335000D03*
X100210Y338610D03*
X100240Y343340D03*
X92000Y360000D03*
Y368000D03*
X110100Y31100D03*
X111850Y42450D03*
X111000Y49900D03*
X117500Y83800D03*
X111800Y90000D03*
X124065Y109025D03*
Y96425D03*
Y99575D03*
X114100Y108900D03*
X112550Y104760D03*
X124065Y105875D03*
X122100Y101400D03*
X117800Y96300D03*
X124065Y118475D03*
Y124775D03*
X112550Y123650D03*
Y116570D03*
Y111840D03*
X124065Y115325D03*
X123625Y121625D03*
X124065Y134225D03*
Y137375D03*
X115439Y135739D03*
Y132820D03*
X124065Y143675D03*
X112550Y142550D03*
Y137830D03*
Y130740D03*
X124065Y127925D03*
X122625Y140525D03*
X124065Y156275D03*
Y153125D03*
Y146825D03*
X117500Y159800D03*
X112550Y161450D03*
Y156720D03*
Y149640D03*
X124575Y149975D03*
X117500Y145900D03*
X124065Y175175D03*
Y178325D03*
X114750Y177713D03*
X120000Y165000D03*
X114300Y170900D03*
X112240Y173260D03*
X112550Y175620D03*
Y168530D03*
X124065Y197225D03*
Y194075D03*
X114750Y180618D03*
X124065Y187775D03*
Y184625D03*
X112550Y194520D03*
X113830Y185070D03*
X124065Y190925D03*
Y181475D03*
X112550Y189790D03*
Y182710D03*
X117900Y186700D03*
X111400Y205500D03*
X124065Y203525D03*
Y206675D03*
Y212975D03*
X117900Y199100D03*
X112550Y211050D03*
Y201610D03*
X124065Y209825D03*
Y200375D03*
X114700Y199100D03*
X124065Y216125D03*
Y231875D03*
X112050Y229950D03*
X112300Y220500D03*
X124065Y228725D03*
Y219275D03*
Y225575D03*
Y222425D03*
Y235025D03*
X119700Y248400D03*
X112240Y237040D03*
X121000Y242200D03*
X111690Y265390D03*
X111260Y260660D03*
X112340Y255940D03*
X114200Y252000D03*
X124065Y266525D03*
Y253925D03*
Y257075D03*
Y263375D03*
X118300Y283400D03*
X117500Y272900D03*
X113010Y270110D03*
X124065Y282275D03*
Y272825D03*
Y275975D03*
Y301175D03*
Y294875D03*
Y291725D03*
X117200Y285400D03*
X111000Y287000D03*
X115800Y288800D03*
X117500Y300300D03*
X112000Y296500D03*
X124065Y285425D03*
X121675Y288575D03*
X120425Y298025D03*
X114550Y309548D03*
Y312453D03*
X113880Y303180D03*
X111350Y320150D03*
X124065Y304325D03*
Y310625D03*
Y313775D03*
X113200Y307900D03*
X124025Y307475D03*
X119000Y314900D03*
X112750Y336250D03*
X112500Y323800D03*
X117400Y346400D03*
X112500Y345700D03*
X138200Y15500D03*
X140250Y27350D03*
X143050Y62150D03*
X141870Y94600D03*
Y113850D03*
X137225Y112175D03*
X141870Y138850D03*
X136600Y130200D03*
X141870Y158100D03*
X130590Y149975D03*
X141870Y173350D03*
Y192600D03*
X144600Y211000D03*
X141870Y217600D03*
Y236850D03*
X141770Y252000D03*
X138000Y253000D03*
X137275Y260225D03*
X141870Y271350D03*
X138100Y276400D03*
X137325Y269675D03*
X141870Y296350D03*
Y315600D03*
X149900Y36600D03*
X155700Y23100D03*
X146200Y40900D03*
X155100Y40500D03*
X146200Y56100D03*
X159675Y105875D03*
Y99575D03*
X159525Y96425D03*
X159675Y109025D03*
X160825Y102725D03*
X159675Y118475D03*
Y124775D03*
Y115325D03*
X160875Y121625D03*
X159275Y112175D03*
X159675Y134225D03*
Y127925D03*
Y137375D03*
Y143675D03*
X160225Y140525D03*
X160925Y131075D03*
X159675Y156275D03*
Y146825D03*
Y153125D03*
X160675Y149975D03*
X159675Y175175D03*
Y178325D03*
Y184625D03*
Y197225D03*
Y187775D03*
Y194075D03*
Y190925D03*
Y181475D03*
X145600Y195700D03*
X159675Y212975D03*
Y200375D03*
Y209825D03*
Y203525D03*
Y206675D03*
X146200Y203400D03*
X146100Y198300D03*
X145000Y206000D03*
X146200Y213600D03*
X145000Y201000D03*
X146900Y208400D03*
X159675Y225575D03*
Y216125D03*
Y231875D03*
Y222425D03*
Y219275D03*
Y228725D03*
X146500Y218500D03*
X146600Y221000D03*
X144700Y223000D03*
X146500Y228500D03*
X146000Y225000D03*
X144700Y215900D03*
X159675Y235025D03*
X160000Y242000D03*
X159675Y263375D03*
Y253925D03*
Y266525D03*
Y257075D03*
Y260225D03*
Y275975D03*
Y282275D03*
Y272825D03*
Y294875D03*
Y301175D03*
Y291725D03*
Y285425D03*
X160225Y298025D03*
X159375Y288575D03*
X159675Y304325D03*
X160225Y313775D03*
X159675Y310625D03*
X160225Y307475D03*
X172100Y71300D03*
X166000Y72400D03*
X170000Y77000D03*
X171700Y93000D03*
X165300Y103000D03*
X166700Y112000D03*
X165700Y131500D03*
X177200Y151900D03*
X170400Y147800D03*
X177500Y213500D03*
X163000Y227000D03*
Y230000D03*
X177500Y218500D03*
X162500Y237500D03*
X163000Y233000D03*
X177500Y265000D03*
X170000Y274700D03*
X163400Y279125D03*
X162475Y269675D03*
X173100Y308000D03*
X166900Y306400D03*
X178334Y380066D03*
X192300Y52300D03*
X185000Y72100D03*
X184700Y80900D03*
X181900Y101700D03*
X180200Y164000D03*
X186900Y196000D03*
X193800Y196900D03*
X186900Y198500D03*
X187000Y211000D03*
X186900Y206000D03*
Y208500D03*
X195000Y229200D03*
X186000Y216000D03*
X186500Y228500D03*
X192000Y229000D03*
X187000Y225000D03*
X191000Y232000D03*
X187000Y221000D03*
X195000Y243000D03*
X191000Y239000D03*
X188000Y242000D03*
Y235000D03*
X186500Y238500D03*
X180350Y290350D03*
X197000Y319000D03*
Y324000D03*
X194000Y343000D03*
X184000D03*
X191953Y337953D03*
X211900Y106000D03*
X200950Y121050D03*
X212000Y119000D03*
X205900Y114200D03*
X200500Y141079D03*
Y131236D03*
X199100Y146600D03*
X200500Y160764D03*
Y150921D03*
X197600Y166100D03*
X211624Y172476D03*
X200900Y180600D03*
X207100Y180000D03*
X205800Y185800D03*
X205551Y212402D03*
X214600Y201500D03*
X208701Y212402D03*
X203500Y204600D03*
X211850Y212402D03*
X205551Y231299D03*
X208701Y228150D03*
X211850D03*
Y231299D03*
Y221850D03*
X208701Y218701D03*
X211850D03*
X208701Y215551D03*
X205551Y221850D03*
X199800Y219300D03*
X205551Y218701D03*
X199200Y216700D03*
X208701Y231299D03*
X205551Y228150D03*
Y215551D03*
X208701Y221850D03*
X211850Y215551D03*
X205551Y234449D03*
X214804Y241195D03*
X208701Y237598D03*
X205551D03*
X208701Y234449D03*
X211850D03*
Y237598D03*
X209000Y253000D03*
X202000Y273000D03*
X213900D03*
X201200Y340000D03*
X210000Y342000D03*
X209000Y347000D03*
X203000Y356000D03*
X209000Y371600D03*
X206600Y373100D03*
X217600Y70300D03*
X223600Y70200D03*
X224900Y84900D03*
X232350Y90050D03*
X230047Y124753D03*
X226110Y124890D03*
X216800Y124300D03*
X221700Y114100D03*
X222000Y124800D03*
X219700D03*
X225000Y138000D03*
X217000D03*
X225000Y130000D03*
X217000D03*
X225000Y154500D03*
X217000D03*
X225000Y162000D03*
X217000D03*
Y146000D03*
X225000D03*
X225800Y178400D03*
X217200Y167500D03*
X223500D03*
X220205Y167505D03*
X215900Y191300D03*
X226000Y187000D03*
Y182000D03*
X221299Y212402D03*
X218150D03*
X224449D03*
X222800Y209800D03*
X221299Y221850D03*
Y228150D03*
Y231299D03*
X218150Y228150D03*
Y231299D03*
Y221850D03*
Y218701D03*
X224449Y215551D03*
Y218701D03*
X221299D03*
Y215551D03*
X224449Y228150D03*
Y231299D03*
X218150Y215551D03*
X224449Y221850D03*
X221299Y234449D03*
Y237598D03*
X224449D03*
X218150D03*
X224449Y234449D03*
X227700Y239700D03*
X224500Y247800D03*
X218150Y234449D03*
X228000Y264000D03*
X227400Y250500D03*
X225500Y256000D03*
X223000Y277000D03*
X228000Y279000D03*
X219500Y311300D03*
X221000Y315000D03*
X224000D03*
X228100Y330900D03*
X219100Y356000D03*
X221000Y357300D03*
X238000Y56300D03*
X238800Y72900D03*
X240200Y56900D03*
X233984Y124984D03*
X241000Y114000D03*
X238000Y126600D03*
X243827Y125873D03*
X249200Y126700D03*
X246300Y126100D03*
X241000Y138000D03*
X249000D03*
X233000D03*
X241000Y130000D03*
X249000D03*
X233000D03*
X241000Y154500D03*
X249000D03*
X233000D03*
X241000Y162000D03*
X249000D03*
X233000D03*
X249000Y146000D03*
X241000D03*
X233000D03*
X233984Y179000D03*
X235953Y167800D03*
X247764Y167500D03*
X241858Y168042D03*
X237700Y183900D03*
X246000Y210900D03*
X249500Y199000D03*
X240100Y205300D03*
X233400Y231900D03*
X246036Y249106D03*
X246400Y263900D03*
X240000Y264000D03*
X247900Y250700D03*
X238800Y273000D03*
X241000D03*
X240016Y284984D03*
X240000Y274900D03*
X241984Y285984D03*
X237900Y296900D03*
X247500Y341100D03*
X244000Y345000D03*
X238634Y363334D03*
X233100Y371600D03*
X237100Y375300D03*
X267000Y63500D03*
X262300Y59300D03*
X263000Y78000D03*
X258550Y117550D03*
X253000Y124000D03*
X251100Y125600D03*
X253700Y127299D03*
X265900Y141100D03*
X267500Y130900D03*
X265900Y136500D03*
X265716Y146984D03*
X265900Y160764D03*
Y150921D03*
X265200Y166300D03*
X256800Y173900D03*
X259800Y175900D03*
X255500Y177000D03*
X253100Y184200D03*
X252200Y192100D03*
X266100Y187000D03*
X259100Y195600D03*
X262400Y213500D03*
X252900Y208400D03*
X255000Y244000D03*
X253000Y264000D03*
X255900Y272900D03*
X258300Y291500D03*
X263400Y333500D03*
X272200Y62800D03*
X275100Y73000D03*
X270000Y168500D03*
X272900Y194900D03*
X267700Y190500D03*
X282300Y192000D03*
X271200Y209300D03*
X272900Y206800D03*
X281800Y198000D03*
X279100Y207100D03*
X281600Y226200D03*
X284400Y239500D03*
X278950Y249850D03*
X283800Y236800D03*
X279050Y260550D03*
X270500Y265200D03*
X273000Y266000D03*
X281000Y271700D03*
X283600Y272200D03*
X275900Y270400D03*
X274200Y290100D03*
X276900Y300800D03*
X281400Y298100D03*
X277000Y317300D03*
X276500Y335350D03*
X278500Y326000D03*
X278921Y336122D03*
X277150Y347150D03*
X285000Y344000D03*
X280400Y365600D03*
X269650Y367850D03*
X277050Y357850D03*
X286000Y66000D03*
X298000Y73000D03*
X302300Y123600D03*
X301400Y145100D03*
X297314Y178611D03*
X293600Y169100D03*
X297314Y181389D03*
X297000Y184700D03*
Y206900D03*
X295696Y231996D03*
X299634D03*
Y228059D03*
X291759Y231996D03*
X295696Y228059D03*
Y247744D03*
Y243808D03*
X291759Y247744D03*
X299634Y239870D03*
X291759D03*
Y235934D03*
X295696D03*
X288900Y248100D03*
X288700Y241900D03*
X295696Y239870D03*
X299634Y247744D03*
Y243808D03*
Y235934D03*
X291759Y243808D03*
X295696Y251682D03*
X291759Y259556D03*
Y255618D03*
X299634Y263492D03*
Y259556D03*
X295696Y267430D03*
Y255618D03*
X291759Y263492D03*
X295696D03*
X299634Y251682D03*
X288800Y256900D03*
Y263100D03*
X291759Y251682D03*
X295696Y259556D03*
X299634Y267430D03*
X291759D03*
X299634Y255618D03*
X295696Y271366D03*
X299634Y283178D03*
X291759Y279241D03*
Y275304D03*
X299634Y279241D03*
X295696Y283178D03*
X291759D03*
X299634Y275304D03*
Y271366D03*
X295696Y275304D03*
X288800Y279400D03*
X291759Y271366D03*
X295696Y279241D03*
X291759Y287115D03*
X295696Y298948D03*
X299634Y291052D03*
Y298948D03*
X291759D03*
X295696Y291052D03*
Y287115D03*
X289100Y291900D03*
X299634Y287115D03*
X291759Y291052D03*
X289200Y287900D03*
X299634Y314696D03*
X291759Y318634D03*
X299634Y302885D03*
Y318634D03*
Y310759D03*
X295696Y302885D03*
X291759Y314696D03*
Y306822D03*
X295696Y310759D03*
X299634Y306822D03*
X291759Y302885D03*
X295696Y306822D03*
X291759Y310759D03*
X295696Y314696D03*
Y318634D03*
X291759Y322570D03*
X295696Y330444D03*
X288400Y334400D03*
X288900Y325600D03*
X291759Y326508D03*
X295696Y322570D03*
X299634Y330444D03*
X291759Y334382D03*
Y330444D03*
X295696Y326508D03*
Y334382D03*
X299634D03*
Y322570D03*
Y326508D03*
X295696Y354066D03*
X291759Y350129D03*
X299634Y354066D03*
X295696Y350130D03*
Y342256D03*
X299634Y350130D03*
X291759Y354066D03*
Y342256D03*
X295696Y338318D03*
Y346192D03*
X299634Y338318D03*
X291759D03*
Y346192D03*
X299634Y342256D03*
Y346192D03*
Y361941D03*
X295696Y358004D03*
X291759D03*
X299634D03*
X295696Y361941D03*
X291759D03*
X318000Y86000D03*
X306708Y108344D03*
X310644D03*
Y104408D03*
X318518D03*
Y108344D03*
X306708Y104408D03*
X303000Y101000D03*
X314582Y108344D03*
Y104408D03*
X306708Y112282D03*
Y116218D03*
Y120156D03*
X310644Y116218D03*
Y120156D03*
Y124092D03*
X318518D03*
X314582Y116218D03*
X318518Y112282D03*
X314582D03*
X318518Y116218D03*
Y120156D03*
X314582Y124092D03*
X306708D03*
X310644Y112282D03*
X314582Y120156D03*
X306708Y131966D03*
X314582Y143778D03*
X310644Y139841D03*
X306708D03*
X318518Y135904D03*
X310644D03*
X314582Y128030D03*
Y135904D03*
X306708D03*
X310644Y128030D03*
X318518Y143778D03*
Y139841D03*
X314582Y131966D03*
X310644Y143778D03*
X318518Y131966D03*
X306708Y128030D03*
Y143778D03*
X314582Y139841D03*
X318518Y128030D03*
X310644Y131966D03*
X318518Y151652D03*
X314582Y147715D03*
Y159548D03*
Y151652D03*
X318518Y159548D03*
X310644D03*
Y147715D03*
X306708Y159548D03*
Y147715D03*
Y151652D03*
X310644D03*
X303900Y152500D03*
X318518Y147715D03*
Y179234D03*
Y175296D03*
Y163485D03*
X306708Y179234D03*
Y175296D03*
Y171359D03*
X314582Y179234D03*
X310644Y171359D03*
Y163485D03*
X314582Y175296D03*
Y171359D03*
X310644Y167422D03*
X306708Y163485D03*
X310644Y179234D03*
X318518Y171359D03*
X306708Y167422D03*
X314582Y163485D03*
X310644Y175296D03*
X314582Y167422D03*
X318518D03*
Y194982D03*
Y183170D03*
X314582Y194982D03*
X318518Y187108D03*
X310644D03*
Y183170D03*
X306708D03*
X310644Y194982D03*
X306708Y187108D03*
X314582Y183170D03*
X318518Y191044D03*
X314582Y187108D03*
X306708Y194982D03*
Y191044D03*
X310644D03*
X314582D03*
X306708Y202856D03*
X310644D03*
Y198918D03*
X314582Y206792D03*
X318518Y198918D03*
X314582D03*
X318518Y202856D03*
X310644Y206792D03*
X306708D03*
X314582Y202856D03*
X306708Y198918D03*
X318518Y206792D03*
X315382Y228059D03*
X311444D03*
X307508D03*
X303570D03*
X319318Y231996D03*
X315382D03*
X307508D03*
X303570D03*
X319318Y228059D03*
X308000Y216000D03*
X311444Y231996D03*
X303570Y243807D03*
X307507Y247744D03*
X315381D03*
Y243807D03*
X311444D03*
X319318D03*
X311444Y247744D03*
X303570D03*
X319318Y235934D03*
X315382D03*
X311444D03*
X307508D03*
X319318Y239870D03*
X311444D03*
X307508D03*
X303570D03*
Y235934D03*
X315382Y239870D03*
X307508Y243808D03*
X319318Y247744D03*
X307507Y255618D03*
Y251681D03*
Y259555D03*
X311444Y263492D03*
X303570Y267429D03*
X307507D03*
X311444D03*
X315381Y263492D03*
X303570Y259555D03*
X315381Y267429D03*
X319318Y263492D03*
Y259555D03*
X303570Y263492D03*
Y251681D03*
X311444Y255618D03*
Y259555D03*
X315381Y251681D03*
Y255618D03*
X311444Y251682D03*
X307508Y263492D03*
X319318Y267430D03*
X303570Y255618D03*
X315382Y259556D03*
X319318Y255618D03*
Y251681D03*
X315381Y271366D03*
Y275304D03*
X319318Y271366D03*
Y275304D03*
X303571Y279241D03*
X311444Y275304D03*
X303570Y271366D03*
X307507D03*
Y275304D03*
X319319Y283179D03*
X315382D03*
X311445D03*
X319319Y279241D03*
X303570Y275304D03*
X315382Y279241D03*
X311444Y271366D03*
X307508Y283178D03*
Y279241D03*
X303571Y283179D03*
X311445Y279241D03*
X315382Y291053D03*
X307507Y291052D03*
X307508Y287115D03*
X319319Y291053D03*
X315382Y287115D03*
X307508Y298948D03*
X311445Y287115D03*
X303570Y291052D03*
X315382Y298948D03*
X319319D03*
X311445D03*
X311444Y291052D03*
X319318Y287115D03*
X303570Y298948D03*
X303571D03*
Y287115D03*
X307508Y310760D03*
X303571Y302886D03*
X307508Y314696D03*
X303571D03*
Y306822D03*
Y310760D03*
X311445D03*
X319319Y302886D03*
X311445D03*
X311444Y314696D03*
X315382Y306822D03*
X311445Y318634D03*
X315382Y310760D03*
X307508Y302886D03*
Y306822D03*
X319318Y310759D03*
X303570Y318634D03*
X311445Y306822D03*
X319319Y314696D03*
X315382D03*
X319319Y318634D03*
X315382D03*
X307508D03*
X315382Y302885D03*
Y302886D03*
X319319Y306822D03*
X307508Y322571D03*
X303571D03*
X307508Y326508D03*
X319318Y330445D03*
Y330444D03*
X315382Y326508D03*
Y330445D03*
X303571D03*
X307508Y334382D03*
X315382Y322570D03*
X311444Y334382D03*
X311445Y330445D03*
Y322571D03*
X303571Y334382D03*
X311445Y326508D03*
X303571D03*
X307508Y330445D03*
X315382Y334382D03*
X319319D03*
Y326508D03*
Y322571D03*
X315382Y350130D03*
X311444D03*
X307508D03*
X303570D03*
X319318Y354066D03*
X315382D03*
X307508D03*
X303570D03*
X311445Y346193D03*
X319319Y338319D03*
X311445Y342256D03*
X303570Y338318D03*
Y338319D03*
X315382Y342256D03*
X315381D03*
X315382Y338318D03*
Y346193D03*
X311445Y338319D03*
X319319Y342256D03*
Y346193D03*
X303571D03*
X307508Y342256D03*
Y346192D03*
X319318Y350130D03*
X311444Y354066D03*
X307508Y338319D03*
X303571Y342256D03*
X319318Y361941D03*
X311444D03*
X319318Y358004D03*
X315382D03*
X311444D03*
X307508D03*
Y361941D03*
X303570D03*
Y358004D03*
X315382Y361941D03*
X314900Y369300D03*
X306150Y369250D03*
X332300Y71700D03*
X334700Y75100D03*
X324000Y86000D03*
X322456Y108344D03*
X326392D03*
X322456Y104408D03*
X326392D03*
X334266Y108344D03*
X330330D03*
Y104408D03*
X334266D03*
X326392Y120156D03*
X322456D03*
Y124092D03*
X330330Y120156D03*
Y124092D03*
X326392Y116218D03*
X322456Y112282D03*
X326392D03*
X334266Y120156D03*
X322456Y116218D03*
X326392Y124092D03*
X330330Y112282D03*
X334266Y116218D03*
X330330D03*
X334266Y124092D03*
Y112282D03*
X326392Y139841D03*
X322456Y131966D03*
X330330Y128030D03*
Y139841D03*
X322456Y128030D03*
X326392Y131966D03*
X322456Y139841D03*
Y143778D03*
X326392Y128030D03*
X330330Y143778D03*
Y135904D03*
X326392D03*
Y143778D03*
X334266D03*
Y135904D03*
X330330Y131966D03*
X334266Y139841D03*
Y131966D03*
X322456Y135904D03*
X334266Y128030D03*
X326392Y147715D03*
X330330D03*
X326392Y151652D03*
X322456Y147715D03*
X326392Y159548D03*
X330330D03*
X322456Y151652D03*
Y159548D03*
X330330Y151652D03*
X334266D03*
Y159548D03*
Y147715D03*
X330330Y179234D03*
X326392Y171359D03*
X322456Y175296D03*
X326392D03*
X330330Y171359D03*
X326392Y179234D03*
X330330Y163485D03*
Y167422D03*
Y175296D03*
X334266Y171359D03*
Y163485D03*
Y175296D03*
Y167422D03*
X322456Y179234D03*
X326392Y167422D03*
X334266Y179234D03*
X322456Y163485D03*
X326392D03*
X322456Y167422D03*
Y171359D03*
X326392Y183170D03*
X330330D03*
X322456D03*
Y194982D03*
X326392D03*
X322456Y187108D03*
Y191044D03*
X326392D03*
Y187108D03*
X334266Y183170D03*
X330330Y194982D03*
X334266Y191044D03*
Y187108D03*
Y194982D03*
X330330Y191044D03*
Y187108D03*
X326392Y198918D03*
Y202856D03*
X322456D03*
X330330Y198918D03*
X334266Y206792D03*
X326392D03*
X334266Y202856D03*
X322456Y198918D03*
Y206792D03*
X334266Y198918D03*
X330330Y202856D03*
Y206792D03*
X335066Y228059D03*
X331130D03*
X327192D03*
X323256D03*
X335066Y231996D03*
X327192D03*
X323256D03*
X331130D03*
X323255Y247744D03*
Y243807D03*
X335066Y235934D03*
X331130D03*
X327192D03*
X331130Y239870D03*
X327192D03*
X323256D03*
X335066Y243808D03*
X331130D03*
X335066Y247744D03*
X331130D03*
X327192D03*
Y243808D03*
X335066Y239870D03*
X323256Y235934D03*
X335066Y263492D03*
X331129Y255618D03*
Y259555D03*
X327192D03*
X323255D03*
X327192Y267429D03*
X323255Y263492D03*
Y251681D03*
X327192Y255618D03*
X335066D03*
Y251682D03*
X331129Y267429D03*
X327192Y251681D03*
X331129Y263492D03*
X323256Y255618D03*
X335066Y259556D03*
X327192Y263492D03*
X335066Y267430D03*
X331130Y251682D03*
X323255Y267429D03*
X323256Y283179D03*
X331130D03*
X327193Y271367D03*
Y279241D03*
X331130D03*
Y275305D03*
X323256Y279241D03*
X327193Y275305D03*
X331130Y271366D03*
X335066Y275304D03*
Y283178D03*
X327192D03*
X335066Y271366D03*
Y279241D03*
X323256Y275304D03*
Y271367D03*
Y287115D03*
X327193Y291053D03*
Y287115D03*
X331130D03*
X323256Y291053D03*
X331130Y298948D03*
X335066Y291052D03*
X323256Y298948D03*
X331130Y291052D03*
X335066Y287115D03*
Y298948D03*
X327193D03*
Y302886D03*
X323256D03*
X331130Y306822D03*
Y318634D03*
X327193D03*
Y314696D03*
X331130D03*
X335066Y302885D03*
X327192Y306822D03*
X335066Y310759D03*
Y318634D03*
X323256D03*
X335066Y306822D03*
Y314696D03*
X331130Y310760D03*
X323256Y314696D03*
Y310760D03*
Y306822D03*
X331130Y302886D03*
X327193Y310760D03*
X335067Y330445D03*
Y326508D03*
X327193Y330445D03*
X323256Y322571D03*
X323255Y326507D03*
X323256Y334382D03*
X335066D03*
X327192Y322570D03*
X323256Y330445D03*
X331130Y322571D03*
X327193Y334382D03*
X331130Y330445D03*
Y326508D03*
Y334382D03*
X327192Y326508D03*
X335066Y322570D03*
Y346192D03*
X331130D03*
X335066Y350130D03*
X331130D03*
X327192D03*
X323256D03*
X335066Y354066D03*
X327192D03*
X323256D03*
X335066Y338318D03*
X331130D03*
Y342256D03*
X327193D03*
X323256D03*
Y346193D03*
X327193Y338319D03*
X331130Y354066D03*
X323256Y338318D03*
X335066Y342256D03*
X327192Y346192D03*
X331130Y361941D03*
X327192D03*
X323256D03*
X335066Y358004D03*
X331130D03*
X327192D03*
X332400Y369700D03*
X335066Y361941D03*
X323256Y358004D03*
X346000Y85000D03*
X338204Y108344D03*
X346078Y104408D03*
X338204D03*
X342141Y108344D03*
Y104408D03*
X346078Y108344D03*
X350015D03*
X353952D03*
X350015Y104408D03*
X353952D03*
Y112282D03*
Y124092D03*
X346078D03*
X350015Y112282D03*
X353952Y120156D03*
X342141Y116218D03*
X350015Y124092D03*
X346078Y112282D03*
X342141D03*
Y120156D03*
Y124092D03*
X346078Y116218D03*
Y120156D03*
X338204Y124092D03*
Y120156D03*
Y116218D03*
X350015Y120156D03*
Y116218D03*
X353952D03*
X338204Y112282D03*
X353952Y128030D03*
X342141Y143778D03*
X350015D03*
X338204Y139841D03*
X353952D03*
X342141Y135904D03*
X338204Y131966D03*
X353952D03*
X350015D03*
X338204Y128030D03*
X350015D03*
X346078D03*
X342141D03*
Y131966D03*
X350015Y135904D03*
X346078Y139841D03*
Y135904D03*
X338204Y143778D03*
X346078D03*
X353952D03*
X342141Y139841D03*
X350015D03*
X338204Y135904D03*
X353952D03*
X346078Y131966D03*
X338204Y159548D03*
X346078D03*
X353952D03*
X342141Y151652D03*
X350015D03*
X353952D03*
X338204Y147715D03*
X346078D03*
X353952D03*
X342141Y159548D03*
X350015D03*
X338204Y151652D03*
X346078D03*
X342141Y147715D03*
X350015D03*
X353952Y179234D03*
X342141D03*
X338204Y175296D03*
X353952D03*
X350015Y171359D03*
X338204Y167422D03*
X346078D03*
X353952D03*
X342141Y163485D03*
X350015D03*
X353952D03*
X350015Y179234D03*
X346078D03*
X338204D03*
X342141Y175296D03*
X346078D03*
X342141Y171359D03*
X346078D03*
X350015Y175296D03*
X338204Y171359D03*
X353952D03*
X342141Y167422D03*
X350015D03*
X338204Y163485D03*
X346078D03*
X350015Y191044D03*
X353952Y194982D03*
Y191044D03*
Y187108D03*
X338204Y194982D03*
X346078D03*
X342141D03*
X350015D03*
X338204Y191044D03*
X353952Y183170D03*
X346078Y187108D03*
X350015Y183170D03*
Y187108D03*
X338204Y183170D03*
X346078Y191044D03*
Y183170D03*
X342141Y187108D03*
X338204D03*
X342141Y191044D03*
Y183170D03*
Y206792D03*
X350015Y198918D03*
X346078Y202856D03*
Y198918D03*
X338204D03*
Y202856D03*
X342141D03*
X353952Y206792D03*
Y198918D03*
X350015Y206792D03*
Y202856D03*
X338204Y206792D03*
X346078D03*
X353952Y202856D03*
X342141Y198918D03*
X354752Y228059D03*
X350815D03*
X346878D03*
X342941D03*
X354752Y231996D03*
X346878D03*
X342941D03*
X339004D03*
Y228059D03*
X345000Y216000D03*
X350815Y231996D03*
X354752Y235934D03*
X350815D03*
X346878D03*
X339004D03*
X350815Y239870D03*
X346878D03*
X342941D03*
X339004D03*
X354752Y243808D03*
X350815D03*
X342941D03*
X339004D03*
X354752Y247744D03*
X350815D03*
X346878D03*
X342941D03*
X339004D03*
X342941Y235934D03*
X354752Y239870D03*
X346878Y243808D03*
X342941Y263493D03*
X339004Y259556D03*
X354752Y255618D03*
X350815D03*
X354752Y251682D03*
X346878D03*
X342941D03*
X339004D03*
X342941Y267430D03*
X339005Y263493D03*
X346879Y259556D03*
Y267430D03*
X339004Y255618D03*
X350815Y251682D03*
X346878Y263492D03*
X342941Y255618D03*
X354752Y259556D03*
X339004Y267430D03*
X350815D03*
X346878Y255618D03*
X342941Y259556D03*
X354752Y267430D03*
X350815Y263493D03*
Y259556D03*
X354753Y263493D03*
X346879Y271367D03*
X354752Y271366D03*
X350815Y275304D03*
X342941D03*
X354752Y279241D03*
X346878D03*
X350815Y283178D03*
X342941D03*
X350815Y271366D03*
X354752Y275304D03*
X346878D03*
X350815Y279241D03*
X342941D03*
X354752Y283178D03*
X346878D03*
X339004D03*
X339005Y275305D03*
Y279241D03*
Y271367D03*
X342941D03*
X354752Y287115D03*
X346878D03*
X339004D03*
X354752Y291052D03*
X350815D03*
X342941D03*
X354752Y298948D03*
X346878D03*
X339004D03*
X350815Y287115D03*
X342941D03*
X346878Y291052D03*
X339004D03*
X350815Y298948D03*
X342941D03*
X339004Y314696D03*
X342941D03*
X339004Y318634D03*
X354752Y302885D03*
X350815D03*
X342941D03*
X354752Y306822D03*
X346878D03*
X339004D03*
X350815Y310759D03*
X342941D03*
X354752Y314696D03*
X346878D03*
X350815Y318634D03*
X342941D03*
X346878Y302885D03*
X339004D03*
X350815Y306822D03*
X342941D03*
X354752Y310759D03*
X346878D03*
X339004D03*
X350815Y314696D03*
X354752Y318634D03*
X346878D03*
X346879Y322571D03*
X342941D03*
Y326508D03*
X339005D03*
X350815Y322571D03*
Y326508D03*
X354752Y334382D03*
Y330444D03*
X354753Y326508D03*
X339004Y322570D03*
X342941Y334382D03*
X346878D03*
X342941Y330444D03*
X339004Y334382D03*
X350815Y330444D03*
X346878D03*
X354752Y322570D03*
X346878Y326508D03*
X339004Y330444D03*
X350815Y334382D03*
X354752Y346192D03*
X350815D03*
X342941D03*
X339004D03*
X354752Y350130D03*
X350815D03*
X346878D03*
X342941D03*
X354752Y354066D03*
X346878D03*
X342941D03*
X339004D03*
X354752Y338318D03*
X350815D03*
X346878D03*
X350815Y342256D03*
X346878D03*
X342941D03*
X339004D03*
X342941Y338318D03*
X339004Y350130D03*
X346878Y346192D03*
X354752Y342256D03*
X350815Y354066D03*
X339004Y338318D03*
X338600Y369400D03*
X342941Y361941D03*
X339004D03*
X354752Y358004D03*
X350815D03*
X346878D03*
X339004D03*
X350815Y361941D03*
X346878D03*
X342900Y369100D03*
X342941Y358004D03*
X354752Y361941D03*
X340100Y385900D03*
X360900Y58200D03*
X359900Y74300D03*
X368500Y59200D03*
X367600Y73100D03*
X360000Y91000D03*
X370000Y75000D03*
X366000Y88000D03*
X361848Y108344D03*
X369722Y104408D03*
X361848D03*
X365785Y108344D03*
Y104408D03*
X369722Y108344D03*
Y120156D03*
Y116218D03*
X365785D03*
X369722Y124092D03*
X361848Y112282D03*
Y120156D03*
X365785Y124092D03*
Y120156D03*
X361848Y124092D03*
X365785Y112282D03*
X369722D03*
X361848Y116218D03*
Y143778D03*
X369722D03*
X365785Y139841D03*
X361848Y135904D03*
X369722D03*
X365785Y131966D03*
X361848Y128030D03*
X369722D03*
Y131966D03*
X365785Y143778D03*
X361848Y139841D03*
X369722D03*
X365785Y135904D03*
X361848Y131966D03*
X365785Y128030D03*
X361848Y159548D03*
X365785D03*
X361848Y151652D03*
X369722D03*
X365785Y147715D03*
X361848D03*
X369722Y159548D03*
X365785Y151652D03*
X369722Y147715D03*
X361848Y179234D03*
X369722D03*
X365785Y175296D03*
X361848Y171359D03*
X369722D03*
X365785Y167422D03*
X361848Y163485D03*
X369722D03*
X365785Y179234D03*
X361848Y175296D03*
X369722D03*
X365785Y171359D03*
X361848Y167422D03*
X369722D03*
X365785Y163485D03*
Y187108D03*
Y191044D03*
Y194982D03*
X361848Y183170D03*
X369722D03*
Y194982D03*
X365785Y183170D03*
X361848Y187108D03*
Y194982D03*
X369722Y187108D03*
X361848Y191044D03*
X369722D03*
Y198918D03*
X361848Y202856D03*
X365785D03*
X361848Y206792D03*
X365785D03*
X369722Y202856D03*
X361848Y198918D03*
X369722Y206792D03*
X365785Y198918D03*
X370522Y228059D03*
X366585D03*
X370522Y231996D03*
X366585D03*
X362648D03*
X372389Y216386D03*
X369611D03*
X362648Y228059D03*
X370522Y235934D03*
X362648D03*
X370522Y239870D03*
X366585D03*
X362648D03*
Y243808D03*
X370522Y247744D03*
X366586D03*
Y243807D03*
X370522Y243808D03*
X362648Y247744D03*
X366585Y235934D03*
X370522Y251682D03*
X366585Y259556D03*
X370522Y255618D03*
X366585Y251682D03*
X370522Y259556D03*
X362648Y251682D03*
Y255618D03*
Y263492D03*
X370522Y267429D03*
X362648Y259556D03*
X366585Y255618D03*
X370522Y263492D03*
X362648Y267430D03*
X366586Y267429D03*
Y263492D03*
X370522Y275304D03*
X362648D03*
X366585Y279241D03*
X370522Y283178D03*
X362648D03*
Y271366D03*
X366585Y275304D03*
X370522Y279241D03*
X362648D03*
X366585Y283178D03*
X370522Y271366D03*
X366586D03*
X362648Y287115D03*
X366585D03*
X370522Y291052D03*
X362648D03*
X366585Y298948D03*
X362648D03*
X370522Y287115D03*
X366585Y291052D03*
X370522Y298948D03*
Y302885D03*
X362648D03*
X366585Y306822D03*
X370522Y310759D03*
X362648D03*
X366585Y314696D03*
X370522Y318634D03*
X362648D03*
X366585Y302885D03*
X370522Y306822D03*
X362648D03*
X366585Y310759D03*
X370522Y314696D03*
X362648D03*
X366585Y318634D03*
Y330445D03*
X370522Y334382D03*
X366585D03*
X362648D03*
X366585Y322571D03*
X362647Y326508D03*
X370521Y322571D03*
X366585Y326508D03*
X370522Y330444D03*
Y326508D03*
X362648Y330444D03*
Y322570D03*
X366585Y346192D03*
X362648D03*
X370522Y350130D03*
X366585D03*
X370522Y354066D03*
X366585D03*
X362648D03*
Y338318D03*
X366585Y342256D03*
X362648D03*
X370522Y346192D03*
Y342256D03*
Y338318D03*
X366585D03*
X362648Y350130D03*
X370522Y358004D03*
X362648D03*
X370522Y361941D03*
X366585D03*
X362648D03*
X369500Y368800D03*
X366585Y358004D03*
X367000Y376900D03*
X376100Y58300D03*
X373000Y82000D03*
X385000Y78000D03*
X381534Y108344D03*
X389408Y104408D03*
X373659Y108344D03*
Y104408D03*
X385470D03*
X381534D03*
X377596Y108344D03*
Y104408D03*
X389408Y108344D03*
X385470D03*
X377596Y124092D03*
X373659Y116218D03*
X377596D03*
Y112282D03*
X381534Y116218D03*
Y112282D03*
X373659Y120156D03*
Y124092D03*
X389408D03*
X377596Y120156D03*
X373659Y112282D03*
X381534Y124092D03*
X385470D03*
X381534Y120156D03*
X389408D03*
Y116218D03*
X385470Y120156D03*
Y116218D03*
X389408Y112282D03*
X385470D03*
Y143778D03*
X389408Y128030D03*
Y131966D03*
X381534Y143778D03*
X385470Y139841D03*
X381534Y131966D03*
X389408Y139841D03*
X377596Y143778D03*
X373659Y139841D03*
X377596D03*
X385470Y135904D03*
X373659Y131966D03*
X381534Y128030D03*
Y135904D03*
Y139841D03*
X373659Y143778D03*
X389408D03*
X373659Y135904D03*
X385471Y131966D03*
X389408Y135904D03*
X385470Y128030D03*
X377596D03*
Y131966D03*
X373659Y128030D03*
X377596Y135904D03*
X381534Y159548D03*
X389408D03*
X381534Y151652D03*
X385470D03*
X389408D03*
X385470Y147715D03*
X389408D03*
X373659Y159548D03*
Y147715D03*
X377596D03*
X381534D03*
X385470Y159548D03*
X373659Y151652D03*
X377596Y159548D03*
Y151652D03*
X381534Y179234D03*
Y175296D03*
Y163485D03*
X389408Y179234D03*
X385470Y163485D03*
Y175296D03*
X389408Y163485D03*
Y175296D03*
X373659Y179234D03*
X377596D03*
X385470D03*
X373659Y175296D03*
X381534Y171359D03*
X373659Y167422D03*
X389408D03*
X377596Y163485D03*
X373659Y171359D03*
Y163485D03*
X377596Y175296D03*
X381534Y167422D03*
X385470D03*
X389408Y171359D03*
X385470D03*
X377596D03*
Y167422D03*
X381534Y183170D03*
Y187108D03*
X377596D03*
X385470Y183170D03*
Y187108D03*
X373659Y191044D03*
X377596Y194982D03*
X373659Y187108D03*
X381534Y194982D03*
X373659Y183170D03*
X381534Y191044D03*
X377596Y183170D03*
X373659Y194982D03*
X389408Y187108D03*
Y191044D03*
X385470D03*
X389408Y183170D03*
X377596Y191044D03*
X385470Y194982D03*
X389408D03*
X373659Y202856D03*
X381534Y206792D03*
X373659D03*
X377596D03*
X373659Y198918D03*
X385470Y202856D03*
X381534D03*
X377596Y198918D03*
X381534D03*
X385470Y206792D03*
X389408D03*
X377596Y202856D03*
X385470Y198918D03*
X389408D03*
Y202856D03*
X390208Y228059D03*
X386270D03*
X378396D03*
X374459D03*
X390208Y231996D03*
X386270D03*
X382334D03*
X378396D03*
X382334Y228059D03*
X374459Y231996D03*
X390208Y235934D03*
X382334D03*
X378396D03*
X374459D03*
X390208Y239870D03*
X386270D03*
X382334D03*
X374459D03*
X386270Y243808D03*
X382334D03*
X378396D03*
X374459D03*
X386270Y247744D03*
X378396D03*
X374459D03*
X390208D03*
X382334D03*
X386270Y235934D03*
X390208Y243808D03*
X378396Y239870D03*
X382334Y255618D03*
Y259555D03*
X374459Y259556D03*
X386271Y263492D03*
X386270Y251682D03*
X382334D03*
X378396D03*
X386271Y267429D03*
X378396Y263492D03*
X374459Y267430D03*
X390208Y267429D03*
Y259555D03*
Y255618D03*
Y251681D03*
X386271Y259555D03*
X378396Y259556D03*
X390208Y263492D03*
X378396Y267430D03*
X386270Y255618D03*
X382334Y267430D03*
X374459Y251681D03*
X374460Y263492D03*
X374459Y255618D03*
X382334Y263492D03*
X378396Y255618D03*
X382334Y271366D03*
Y275304D03*
X386271Y283178D03*
X390208Y279240D03*
Y275304D03*
X386271Y279240D03*
Y271366D03*
X390208D03*
X374459D03*
X386270Y275304D03*
X378396D03*
X382334Y279241D03*
X374459D03*
X390208Y283178D03*
X378396D03*
Y271366D03*
X382334Y283178D03*
X374459Y275304D03*
X378396Y279241D03*
X374459Y283178D03*
X390207Y298948D03*
X390208Y287114D03*
Y291052D03*
X382334Y287115D03*
X374459D03*
X378396Y291052D03*
X382334Y298948D03*
X374459D03*
X382334Y291052D03*
X386270Y298948D03*
X386271Y287114D03*
Y291052D03*
X378396Y287115D03*
X374459Y291052D03*
X378396Y298948D03*
X386270Y314696D03*
X378396Y310759D03*
Y318634D03*
X390207D03*
X382334D03*
Y314696D03*
X390207Y310760D03*
X386270D03*
X390207Y314696D03*
X386270Y306822D03*
X390208Y302885D03*
X378396D03*
X390208Y306822D03*
X382334D03*
X374459D03*
Y314696D03*
X386270Y318634D03*
X382334Y302885D03*
Y310759D03*
X378396Y314696D03*
X386270Y302886D03*
X374459Y302885D03*
X378396Y306822D03*
X374459Y310759D03*
Y318634D03*
X382333Y326508D03*
Y322571D03*
X378395Y330445D03*
Y326508D03*
X386270Y330445D03*
X374459Y322571D03*
Y334382D03*
X386270D03*
X390207Y322571D03*
X386270Y326508D03*
X378396Y334382D03*
X390207Y330445D03*
X386270Y322571D03*
X390207Y334382D03*
X374459Y330444D03*
X378396Y322570D03*
X390208Y326508D03*
X382334Y330444D03*
Y334382D03*
X374459Y326508D03*
X390207Y342256D03*
X374459Y346192D03*
X390208Y350130D03*
X386270D03*
X378396D03*
X374459D03*
X390208Y354066D03*
X386270D03*
X382334D03*
X378396D03*
X382334Y338318D03*
X386270Y342256D03*
X382334D03*
X374459D03*
X386270Y346192D03*
X382334D03*
X378396D03*
X390207Y338319D03*
X378396Y338318D03*
X374459D03*
X378396Y342256D03*
X390208Y346192D03*
X374459Y354066D03*
X386270Y338318D03*
X382334Y350130D03*
X390208Y358004D03*
X382334D03*
X378396D03*
X374459D03*
X390208Y361941D03*
X386270D03*
X382334D03*
X374459D03*
X386270Y358004D03*
X378396Y361941D03*
X394600Y71100D03*
X392900Y85700D03*
X405000Y82000D03*
X393000Y94000D03*
X404100Y96100D03*
X397282Y108344D03*
Y104408D03*
X405156Y108344D03*
Y104408D03*
X401218Y108344D03*
Y104408D03*
X393344Y108344D03*
Y104408D03*
X397282Y116218D03*
X393344D03*
X405156Y124092D03*
X401218Y116218D03*
X397282Y124092D03*
X393344D03*
X401218D03*
X393344Y120156D03*
X405156Y116218D03*
X393344Y112282D03*
X401218Y120156D03*
X405156D03*
Y112282D03*
X397282Y120156D03*
Y112282D03*
X401218D03*
Y131966D03*
X405156Y139841D03*
X401218D03*
Y143778D03*
X393344D03*
X397282D03*
X393344Y128030D03*
X397282Y135904D03*
X393344Y139841D03*
X397282Y128030D03*
Y139841D03*
X401218Y128030D03*
Y135904D03*
X397282Y131966D03*
X393344Y135904D03*
X405156D03*
X393344Y131966D03*
X405156Y128030D03*
Y143778D03*
Y131966D03*
Y147715D03*
X401218Y159548D03*
Y151652D03*
X405156D03*
X397282D03*
X393344Y159548D03*
X397282D03*
X405156D03*
X393344Y151652D03*
X401218Y147715D03*
X393344D03*
X397282D03*
X393344Y163485D03*
X397282Y171359D03*
X401218Y175296D03*
X397282Y179234D03*
X393344Y171359D03*
X405156Y163485D03*
X401218Y179234D03*
X397282Y175296D03*
X405156D03*
X401218Y171359D03*
X405156Y179234D03*
X393344Y175296D03*
X397282Y163485D03*
X401218D03*
Y167422D03*
X405156D03*
X393344Y179234D03*
X405156Y171359D03*
X397282Y167422D03*
X393344D03*
X405156Y183170D03*
X393344D03*
X397282Y191044D03*
X393344Y187108D03*
Y191044D03*
X401218Y183170D03*
Y194982D03*
X393344D03*
X397282Y183170D03*
X401218Y191044D03*
X397282Y187108D03*
X405156Y194982D03*
X401218Y187108D03*
X405156Y191044D03*
Y187108D03*
X397282Y194982D03*
X393344Y202856D03*
X401218Y198918D03*
Y206792D03*
X405156Y202856D03*
X401218D03*
X397282Y198918D03*
X393344Y206792D03*
X397282D03*
X405156D03*
Y198918D03*
X397282Y202856D03*
X393344Y198918D03*
X405956Y228059D03*
X398082D03*
X394144D03*
X405956Y231996D03*
X402018D03*
X398082D03*
X394144D03*
X402018Y228059D03*
X403700Y216000D03*
X402018Y235934D03*
X398082D03*
X394144D03*
X405956Y239870D03*
X402018D03*
X394144D03*
X394145Y247744D03*
X402019Y243807D03*
X398082D03*
Y239870D03*
X402018Y247744D03*
X405956Y235934D03*
X398082Y247744D03*
X394145Y243807D03*
X405956D03*
Y247744D03*
Y259555D03*
Y263492D03*
Y267429D03*
Y251681D03*
X402019D03*
X398082Y267429D03*
X402019Y255618D03*
X394145Y267429D03*
X402019Y263492D03*
Y259555D03*
X398082Y251681D03*
X394145Y259555D03*
X398082Y263492D03*
Y255618D03*
X394145D03*
Y263492D03*
X394144Y251682D03*
X405956Y255618D03*
X402018Y267430D03*
X398082Y259556D03*
X405956Y279240D03*
X394145Y283178D03*
X405956Y271366D03*
X398082Y283178D03*
X402019Y271366D03*
X394145Y275304D03*
X398082Y271366D03*
X394145Y279240D03*
X398082Y275304D03*
X402019D03*
Y279240D03*
X394144Y271366D03*
X398082Y279241D03*
X405956Y275304D03*
Y283178D03*
X402019D03*
X394144Y298948D03*
X398082Y291052D03*
X405956Y287114D03*
X398082D03*
X394145D03*
X402018Y298948D03*
X394144Y291052D03*
X405956Y298948D03*
Y291052D03*
X402019D03*
X398082Y298948D03*
X402018Y287115D03*
X394144Y306822D03*
X398082D03*
X405956D03*
X402018D03*
Y302885D03*
X405956Y314696D03*
X394144Y318634D03*
X402018D03*
Y314696D03*
X398081Y310760D03*
X394144D03*
X405956Y318634D03*
Y318633D03*
X398082Y302885D03*
X402018Y310759D03*
X394144Y314696D03*
X405956Y302885D03*
X398082Y318634D03*
Y314696D03*
X405955Y310760D03*
X394144Y302886D03*
X402018Y334382D03*
X398081D03*
X405956Y330444D03*
Y334382D03*
Y322570D03*
Y326508D03*
X398081Y330445D03*
Y326508D03*
X402018D03*
X394144Y322571D03*
X402018D03*
X394144Y326508D03*
Y330444D03*
X398082Y322570D03*
X402018Y330444D03*
X394144Y334382D03*
X405956Y350130D03*
X398082D03*
X394144D03*
X405956Y354066D03*
X402018D03*
X398082D03*
X398081Y338319D03*
X402018Y342256D03*
Y338319D03*
Y346193D03*
X405956Y346192D03*
Y342256D03*
X394144Y338319D03*
Y342256D03*
X398082D03*
Y342255D03*
X405956Y338318D03*
X402018Y350130D03*
X394144Y354066D03*
X398081Y346193D03*
X394144D03*
X402018Y358004D03*
X398082D03*
X394144D03*
X405956Y361941D03*
X402018D03*
X394144D03*
X405956Y358004D03*
X398082Y361941D03*
X397000Y372500D03*
X418500Y71200D03*
X420900Y79100D03*
X409092Y104408D03*
X414000Y100000D03*
X409092Y108344D03*
Y116218D03*
Y124092D03*
X418700Y112600D03*
X409092Y120156D03*
Y112282D03*
Y131966D03*
Y128030D03*
Y143778D03*
X415700Y135400D03*
X409092Y139841D03*
Y135904D03*
X419000Y144000D03*
Y138000D03*
X409092Y151652D03*
X415400Y148300D03*
X409092Y159548D03*
Y147715D03*
X419000Y148000D03*
X414000Y158000D03*
X409092Y171359D03*
Y163485D03*
Y175296D03*
Y179234D03*
Y167422D03*
X419000Y169600D03*
X421000Y179000D03*
X422000Y172000D03*
X414000Y164000D03*
X409092Y183170D03*
Y187108D03*
Y191044D03*
Y194982D03*
Y198918D03*
Y202856D03*
Y206792D03*
X419800Y200100D03*
X420200Y206200D03*
X413830Y228059D03*
X409892D03*
Y231996D03*
X425641D03*
X421704D03*
X417766Y228059D03*
Y231996D03*
X421704Y228059D03*
X413830Y231996D03*
Y235934D03*
X409892D03*
X413830Y239870D03*
X409892D03*
X421704Y243808D03*
X425641Y239870D03*
Y247744D03*
Y243808D03*
X417766D03*
X421704Y239870D03*
X417766Y247744D03*
X421704Y235934D03*
X417766D03*
X409893Y247744D03*
X413830Y243807D03*
Y247744D03*
X425641Y235934D03*
X409892Y243808D03*
X421704Y247744D03*
X417766Y239870D03*
X409893Y267429D03*
X413830Y263492D03*
Y267429D03*
X417766Y263492D03*
Y267430D03*
X425641Y259556D03*
Y267430D03*
X421704Y263492D03*
X417766Y251682D03*
X421704Y259556D03*
X425641Y251682D03*
X417766Y255618D03*
X425641Y263492D03*
X421704Y255618D03*
Y251682D03*
X409893Y259555D03*
X413830Y255618D03*
Y259555D03*
X409893Y255618D03*
X425641D03*
X417766Y259556D03*
X421704Y267430D03*
X413830Y251682D03*
X409892Y263492D03*
X409893Y251681D03*
Y271366D03*
Y279240D03*
X413830Y283178D03*
X409893Y275304D03*
X421704Y279241D03*
Y275304D03*
X417766Y283178D03*
Y275304D03*
X425641Y271366D03*
X421704Y283178D03*
X425641D03*
X417766Y271366D03*
X421704D03*
X425641Y279241D03*
X413830Y271366D03*
X425641Y275304D03*
X409892Y283178D03*
X417766Y279241D03*
X413830Y275304D03*
Y279240D03*
Y287114D03*
X409893Y291052D03*
X417766D03*
Y287115D03*
X421704Y291052D03*
X425641Y287115D03*
X409892Y298948D03*
X425641Y291052D03*
X421704Y298948D03*
X413830Y291052D03*
X417766Y298948D03*
X413830D03*
X421704Y287115D03*
X425641Y298948D03*
X409893Y287114D03*
X425641Y302885D03*
X417766Y310759D03*
X409892Y318634D03*
X417766Y314696D03*
X413830Y310759D03*
Y306822D03*
X409892D03*
X421704Y310759D03*
X413830Y318634D03*
X409892Y310759D03*
Y302885D03*
X413830D03*
X409892Y314696D03*
X417766Y302885D03*
X413830Y314696D03*
X425641Y318634D03*
X421704Y302885D03*
X425641Y306822D03*
X421704D03*
X417766D03*
X425641Y314696D03*
Y310759D03*
X421704Y314696D03*
Y318634D03*
X417766D03*
X409892Y334382D03*
Y322570D03*
X413830D03*
X409892Y330444D03*
X413830Y326508D03*
Y330444D03*
Y334382D03*
Y334381D03*
X417767Y322571D03*
X417766Y322570D03*
Y334382D03*
X409892Y326508D03*
X421704Y330444D03*
Y326508D03*
X417766D03*
X425641Y334382D03*
Y330444D03*
Y322570D03*
Y326508D03*
X417766Y330444D03*
X421704Y334382D03*
Y322570D03*
X413830Y350130D03*
X409892D03*
Y354066D03*
X417766Y346192D03*
Y354066D03*
X413830Y342256D03*
Y346192D03*
X409892Y342256D03*
X413830Y338318D03*
X409892D03*
X409893Y346193D03*
X409892Y346192D03*
X421704D03*
X425641Y350130D03*
Y346192D03*
X417766Y350130D03*
X425641Y354066D03*
X417766Y338318D03*
X425641D03*
X417766Y342256D03*
X421704Y350130D03*
X413830Y354066D03*
X421704Y342256D03*
Y354066D03*
Y338318D03*
X425641Y342256D03*
X413830Y358004D03*
X409892D03*
X413830Y361941D03*
X409892D03*
X421704D03*
X422200Y368900D03*
X410700Y368600D03*
X425641Y358004D03*
X417766Y361941D03*
Y358004D03*
X421704D03*
X431100Y141000D03*
X436000Y158000D03*
X435000Y172000D03*
X435400Y182000D03*
X434900Y209000D03*
Y202000D03*
X437100Y226400D03*
X429350Y240750D03*
X434700Y267500D03*
X437500Y267300D03*
X441600Y262100D03*
X442900Y257500D03*
X429550Y251450D03*
X437200Y302300D03*
X437500Y288700D03*
X432400Y290800D03*
X439900Y312300D03*
X441400Y310800D03*
X437500Y311900D03*
Y335200D03*
X441900Y339800D03*
X453300Y100000D03*
X459500Y141079D03*
Y131236D03*
Y146000D03*
Y160764D03*
Y150921D03*
X457600Y175000D03*
X459500Y164701D03*
X459200Y169000D03*
X447600Y170500D03*
X454300Y180000D03*
X455294Y200194D03*
X453100Y254000D03*
X451300Y264300D03*
X456700Y278600D03*
X448100Y268800D03*
X458400Y299800D03*
X443700Y287500D03*
X447600Y310500D03*
X451800Y327400D03*
X448100Y331200D03*
X453100Y344500D03*
X448750Y362850D03*
X470500Y125000D03*
X469600Y113900D03*
X475268Y125000D03*
X477236Y115164D03*
X475500Y130000D03*
Y138000D03*
Y146000D03*
Y162000D03*
Y154500D03*
X470800Y169000D03*
X475268Y179168D03*
X473299Y167099D03*
X477500Y178800D03*
X477400Y192000D03*
X467900Y189400D03*
X461500Y194600D03*
X468400Y180300D03*
X475440Y231640D03*
X468900Y216500D03*
X462640Y217760D03*
X465100Y243700D03*
X474900Y234300D03*
X474700Y262300D03*
X477800Y259000D03*
X473900Y277000D03*
X469400Y267800D03*
X462650Y293850D03*
X467000Y300700D03*
X464400Y303800D03*
X470350Y319650D03*
X477500Y336300D03*
X462850Y344250D03*
X461650Y352150D03*
X472650Y360650D03*
X490800Y78500D03*
X493000Y108000D03*
X486000Y125000D03*
X492984Y125016D03*
X482500Y125000D03*
X478500D03*
X491500Y138000D03*
Y130000D03*
X483500Y138000D03*
Y130000D03*
X491500Y154500D03*
Y162000D03*
Y146000D03*
X483500Y154500D03*
Y162000D03*
Y146000D03*
X494953Y167500D03*
X495000Y178000D03*
X487079Y167479D03*
X481173Y177627D03*
X486100Y189100D03*
X479100Y182900D03*
X486500Y213000D03*
X493101Y207651D03*
Y210801D03*
X487400Y210800D03*
X489951Y213950D03*
Y210801D03*
Y204502D03*
X493101D03*
Y213950D03*
X489951Y207651D03*
X493101Y220250D03*
X489951Y223399D03*
Y220250D03*
Y226549D03*
X493101Y223399D03*
X489951Y229698D03*
X493101D03*
X485600Y227100D03*
X493101Y226549D03*
X479100Y238000D03*
X487700Y234800D03*
X489400Y232800D03*
X495400Y260200D03*
X481600Y251400D03*
X494500Y256100D03*
X488000Y276900D03*
X492100Y293800D03*
X478900Y307500D03*
X487700Y317800D03*
X490800Y315100D03*
X481800Y304400D03*
X483350Y358650D03*
X506500Y93400D03*
X496900Y124500D03*
X498890Y126390D03*
X510701Y127101D03*
X508300Y125500D03*
X500858Y124342D03*
X502300Y126900D03*
X506000Y126800D03*
X504300Y124800D03*
X499500Y138000D03*
Y130000D03*
X507500D03*
Y138000D03*
Y146000D03*
X499500Y154500D03*
Y162000D03*
Y146000D03*
X507500Y162000D03*
Y154500D03*
X502800Y178400D03*
X504800Y177400D03*
X500858Y167642D03*
X508732Y167700D03*
X500000Y195000D03*
X506200Y185400D03*
X496000Y192000D03*
X502550Y210801D03*
X496250D03*
X502550Y213950D03*
X496250D03*
X505699D03*
Y204502D03*
X496250Y207651D03*
X502550D03*
X508849D03*
Y204502D03*
X505699Y210801D03*
X508849D03*
X502550Y204502D03*
X505699Y207651D03*
X496250Y204501D03*
X508849Y213950D03*
X502550Y223399D03*
X496250D03*
X502550Y220250D03*
X496250D03*
X502550Y229698D03*
X508849D03*
X505699D03*
Y226549D03*
Y223399D03*
Y220250D03*
X502550Y226549D03*
X496250Y229698D03*
Y226549D03*
X508849D03*
Y223399D03*
Y220250D03*
X499900Y246300D03*
X495900Y250000D03*
X500000Y240500D03*
X500100Y264900D03*
X500200Y259300D03*
X509300Y265000D03*
X505100Y264700D03*
X505500Y254100D03*
X511700Y284400D03*
X512300Y290600D03*
X513000Y319000D03*
X528200Y100300D03*
X516800Y107400D03*
X530600Y96400D03*
X520500Y123500D03*
X524100Y131236D03*
Y141079D03*
Y145900D03*
Y160764D03*
Y150921D03*
X518476Y168000D03*
X528900Y170000D03*
X514200Y176200D03*
X529809Y195762D03*
X519800Y182900D03*
X515900Y195000D03*
X517100Y190100D03*
X522900Y180400D03*
X526660Y195762D03*
X523510D03*
Y211510D03*
X526660D03*
Y214660D03*
X523510D03*
X526660Y208360D03*
X523510D03*
X526660Y202061D03*
X523510D03*
X526660Y205211D03*
Y198912D03*
X523510D03*
Y205211D03*
X529809Y211510D03*
Y202061D03*
Y198912D03*
Y205211D03*
Y208360D03*
Y214660D03*
X526660Y224191D03*
X523510Y227340D03*
X526660Y230490D03*
Y227340D03*
X523510Y230490D03*
Y224191D03*
X526660Y217809D03*
X523510D03*
X529809Y224191D03*
Y217809D03*
Y230490D03*
Y227340D03*
X523510Y236789D03*
X526660Y233640D03*
X523510Y239939D03*
X526660Y243088D03*
Y236789D03*
X523510Y243088D03*
X526660Y239939D03*
X523510Y233640D03*
Y246238D03*
X526660D03*
X529809D03*
X514100Y247600D03*
X529809Y239939D03*
X514700Y240500D03*
X529809Y233640D03*
Y236789D03*
Y243088D03*
X525900Y260600D03*
X527800Y250600D03*
X514300Y255400D03*
X520000Y269400D03*
X529150Y299350D03*
X515500Y315600D03*
X521400Y314700D03*
X538100Y74400D03*
X543300Y84500D03*
X537400Y101800D03*
X543800Y104800D03*
X537200Y105000D03*
X544200Y99100D03*
X541900Y150500D03*
X544900Y153100D03*
X536191Y195762D03*
X532900Y189300D03*
X546100D03*
X542490Y195762D03*
X539340D03*
X542490Y205211D03*
Y202061D03*
X539340Y214660D03*
Y202061D03*
X542490Y211510D03*
Y208360D03*
Y214660D03*
X539340Y208360D03*
X542490Y198912D03*
X539340D03*
Y205211D03*
Y211510D03*
X536191D03*
Y202061D03*
Y198912D03*
Y205211D03*
Y208360D03*
Y214660D03*
Y217809D03*
Y224191D03*
X539340D03*
Y230490D03*
X542490Y227340D03*
Y217809D03*
Y230490D03*
X539340Y217809D03*
X542490Y224191D03*
X539340Y227340D03*
X536191Y230490D03*
X548500Y231400D03*
X536191Y227340D03*
Y246238D03*
X542490D03*
X539340Y236789D03*
Y246238D03*
Y239939D03*
Y243088D03*
Y233640D03*
X542490D03*
Y236789D03*
Y239939D03*
Y243088D03*
X548500Y247000D03*
X536191Y239939D03*
Y233640D03*
Y236789D03*
Y243088D03*
X542100Y250600D03*
X543900Y273300D03*
X533100Y290000D03*
X539900Y295000D03*
X545000Y288300D03*
X538900Y342900D03*
X557500Y9500D03*
X555000Y6000D03*
Y13500D03*
X559500D03*
X559700Y6200D03*
X558800Y31400D03*
X559300Y37500D03*
X564100Y25300D03*
X559400Y44100D03*
X563500Y59500D03*
X557065Y109025D03*
Y96425D03*
Y99575D03*
Y105875D03*
Y124775D03*
Y115325D03*
Y118475D03*
Y134225D03*
Y127925D03*
Y137375D03*
Y143675D03*
X557275Y140525D03*
X557065Y153125D03*
Y156275D03*
Y146825D03*
X562000Y160000D03*
X557125Y149975D03*
X557065Y175175D03*
Y178325D03*
Y194075D03*
Y197225D03*
Y184625D03*
Y187775D03*
Y190925D03*
Y181475D03*
X552000Y185000D03*
X557065Y212975D03*
Y206675D03*
Y203525D03*
X552500Y210300D03*
X557065Y209825D03*
Y200375D03*
X551400Y201300D03*
X557065Y231875D03*
Y216125D03*
Y228725D03*
Y219275D03*
Y225575D03*
Y222425D03*
Y235025D03*
X554100Y255600D03*
X557065Y266525D03*
Y263375D03*
Y257075D03*
Y253925D03*
X554000Y261900D03*
X548600Y276900D03*
X557065Y282275D03*
Y275975D03*
Y272825D03*
Y301175D03*
Y294875D03*
Y291725D03*
Y285425D03*
X555875Y288575D03*
X554300Y298200D03*
X557065Y304325D03*
Y310625D03*
Y313775D03*
X557475Y307475D03*
X549500Y333800D03*
X556100Y326800D03*
X549900Y340900D03*
X559900Y338000D03*
X575700Y6200D03*
X583100Y20900D03*
X576100Y23500D03*
X575900Y44100D03*
X583600Y40900D03*
X572700Y40800D03*
X568300Y66600D03*
X574000Y83000D03*
X574870Y94600D03*
X569625Y102725D03*
X574870Y113850D03*
X570275Y121625D03*
X570000Y111200D03*
X576650Y138850D03*
X570400Y129600D03*
X576400Y152000D03*
X576600Y170600D03*
X578000Y192000D03*
X574870Y192600D03*
X571000Y186000D03*
X570900Y191100D03*
X579000Y210000D03*
X573300Y211600D03*
X570000Y212000D03*
X574870Y266670D03*
X577100Y252100D03*
X571000Y264000D03*
X577300Y259700D03*
X570600Y278500D03*
X571100Y268800D03*
X576600Y295300D03*
X582000Y320000D03*
X574870Y310570D03*
X570900Y315100D03*
X584500Y10900D03*
X585500Y32800D03*
X587800Y89800D03*
X592675Y99575D03*
Y109025D03*
Y96425D03*
Y105875D03*
X593275Y102725D03*
X592675Y124775D03*
Y115325D03*
Y118475D03*
X594975Y121625D03*
X600800Y110600D03*
X594700Y111300D03*
X592675Y137375D03*
Y143675D03*
Y134225D03*
Y127925D03*
X592875Y140525D03*
X595525Y131075D03*
X592675Y146825D03*
Y153125D03*
Y156275D03*
X597500Y150900D03*
X593225Y149975D03*
X592675Y178325D03*
Y175175D03*
Y194075D03*
Y197225D03*
Y184625D03*
Y187775D03*
Y181475D03*
Y190925D03*
Y212975D03*
Y200375D03*
Y209825D03*
Y206675D03*
Y203525D03*
Y216125D03*
Y225575D03*
Y222425D03*
Y231875D03*
Y219275D03*
Y228725D03*
Y235025D03*
Y266525D03*
Y263375D03*
Y257075D03*
Y253925D03*
Y282275D03*
Y272825D03*
Y275975D03*
X592225Y279125D03*
X594300Y268600D03*
X592675Y301175D03*
Y294875D03*
Y291725D03*
Y285425D03*
X594900Y298900D03*
X595400Y287500D03*
X592675Y313775D03*
Y310625D03*
Y304325D03*
X596000Y304000D03*
X595000Y345100D03*
X615950Y98500D03*
X602100Y96900D03*
X601600Y105200D03*
X612850Y123950D03*
X607500Y186000D03*
Y191000D03*
Y196000D03*
Y188500D03*
Y193500D03*
X613400Y184600D03*
X607500Y198500D03*
Y208500D03*
Y213500D03*
Y203500D03*
Y201000D03*
Y206000D03*
Y211000D03*
Y231000D03*
Y221000D03*
Y223500D03*
Y218500D03*
Y226000D03*
Y216000D03*
Y228500D03*
X608800Y281700D03*
X618500Y285600D03*
X605600Y302300D03*
X609500Y318400D03*
X606700Y323800D03*
X607900Y345800D03*
X601500Y345200D03*
X610800Y355500D03*
X630000Y26500D03*
Y29500D03*
X626500D03*
X622000Y48500D03*
Y46500D03*
Y44500D03*
X635900Y45200D03*
X633500Y114500D03*
Y111000D03*
X625100Y173300D03*
X627500Y193500D03*
Y196000D03*
Y198500D03*
Y201000D03*
Y211000D03*
Y206000D03*
Y208500D03*
Y203500D03*
Y213500D03*
X622900Y199100D03*
X627500Y231000D03*
Y218500D03*
Y221000D03*
Y223500D03*
Y216000D03*
X621843Y278457D03*
X620525Y280425D03*
X619900Y283200D03*
X621949Y272551D03*
X630612Y276488D03*
X631894Y269094D03*
X627900Y268300D03*
X621795Y294205D03*
X620200Y292236D03*
X620901Y288299D03*
X621900Y290268D03*
X621769Y286331D03*
X620073Y296173D03*
X621958Y298142D03*
X621679Y302079D03*
X630790Y300110D03*
X636000Y288000D03*
X619600Y306016D03*
X621116Y307984D03*
X619700Y315100D03*
X631200Y305600D03*
X619000Y336100D03*
X630994Y331606D03*
X621362Y329638D03*
X630599Y325701D03*
X620936Y321764D03*
X620500Y324500D03*
X631200Y321300D03*
X621483Y343417D03*
X631894Y353706D03*
X635831Y353969D03*
X619151Y341449D03*
X629880Y339480D03*
X633862Y356038D03*
X624100Y355500D03*
X652000Y3000D03*
Y6500D03*
Y10000D03*
X651807Y30693D03*
X647100Y26000D03*
X638000Y26700D03*
X650500Y24500D03*
X648000Y37000D03*
X644000D03*
X638600Y23000D03*
X644000Y43500D03*
X648000D03*
X646000Y40000D03*
X645200Y75200D03*
X638750Y97750D03*
X640600Y186100D03*
X652000Y181700D03*
X652200Y197000D03*
X653500Y214300D03*
X638400Y211000D03*
X636800Y204700D03*
X650500Y205800D03*
X645129Y206329D03*
X642200Y258700D03*
X650100Y260500D03*
X647600Y260400D03*
X653600Y259600D03*
X645600Y257900D03*
X639400Y257800D03*
X651800Y283700D03*
X643705Y269495D03*
X651800Y271600D03*
X643800Y298200D03*
X651200Y318600D03*
X649900Y310700D03*
X650800Y303300D03*
X640200Y315100D03*
X640400Y308300D03*
X653400Y333100D03*
X638400Y326400D03*
X644600Y326700D03*
X640400Y320900D03*
X647642Y344058D03*
X638400Y342300D03*
X652900D03*
X644600Y342600D03*
X644979Y355006D03*
X649000Y353800D03*
X643000Y354300D03*
X651000Y354500D03*
X648200Y360000D03*
X640600Y355900D03*
X652800Y356000D03*
X637799Y357500D03*
X656000Y3000D03*
Y6500D03*
Y10000D03*
X654000Y8000D03*
Y4500D03*
X660000Y13500D03*
X657000D03*
X654000Y14000D03*
Y17000D03*
Y20000D03*
X665000Y24500D03*
X668500D03*
X670500D03*
X660000Y22500D03*
X656500D03*
X662900Y41000D03*
X659500Y51200D03*
X665020Y178500D03*
X657100Y204100D03*
X669300Y217050D03*
X667300Y256200D03*
X665300Y257800D03*
X669295Y260605D03*
X671264Y259364D03*
X662100Y259100D03*
X663400Y283500D03*
X663900Y277500D03*
X659453Y269347D03*
X656800Y277600D03*
X657000Y283500D03*
X663200Y270000D03*
X662100Y296600D03*
X667200Y289900D03*
X657100Y289700D03*
X656900Y296200D03*
X667327Y354173D03*
X671264Y354036D03*
X664100Y339500D03*
X657500Y354300D03*
X669295Y356195D03*
X655516Y356216D03*
X668800Y359000D03*
X656600D03*
X655114Y378014D03*
X686000Y13000D03*
X675300Y30700D03*
X671500Y49500D03*
X685100Y72000D03*
Y76000D03*
Y79000D03*
X673000Y166000D03*
X674700Y164300D03*
X677500Y192000D03*
X686000Y191000D03*
X689000Y195000D03*
X685000D03*
X672300Y241500D03*
X673232Y260232D03*
X683100Y258000D03*
X676900Y258500D03*
X686000Y266000D03*
X688900Y263700D03*
X681100Y293700D03*
X682325Y333575D03*
X682500Y338400D03*
X675201Y343601D03*
X689000Y347400D03*
X679900Y355100D03*
X673232Y356068D03*
X688400Y372000D03*
X671886Y378186D03*
X684900Y378100D03*
X693250Y52050D03*
X698900Y62900D03*
X689100Y72000D03*
X701500Y80700D03*
X696500D03*
X691500D03*
X689100Y79000D03*
Y75000D03*
X691500Y113900D03*
X696500D03*
X701500D03*
X706500D03*
X690000Y191000D03*
X694000D03*
X693000Y195000D03*
X701100Y266900D03*
X694100Y257000D03*
X694300Y262800D03*
X706100Y255500D03*
X702000Y264300D03*
X691475Y280425D03*
X694100Y271500D03*
X691805Y294205D03*
X698100Y300900D03*
X696100Y290400D03*
X691895Y319795D03*
X692084Y306016D03*
X692300Y315500D03*
X692000Y334500D03*
X693000Y331000D03*
X699950Y339450D03*
X701500Y346500D03*
X692300Y338800D03*
X694383Y343417D03*
X692500Y370300D03*
X703500Y368000D03*
X699200Y375500D03*
X719800Y17100D03*
X718500Y7200D03*
X718300Y33400D03*
X711761Y37239D03*
X710000Y54000D03*
X716700Y87600D03*
X707500Y248000D03*
X710100Y240400D03*
X708500Y255400D03*
X710000Y281500D03*
X716600Y273200D03*
X709500Y353000D03*
X710050Y338250D03*
X709500Y366299D03*
Y360000D03*
Y357000D03*
X734900Y3100D03*
X741400D03*
X734800Y9000D03*
X741300Y8700D03*
X738600Y5400D03*
X740300Y30500D03*
X736300Y30700D03*
X737900Y48400D03*
X735000Y95000D03*
X739000Y258000D03*
Y255000D03*
X733700Y261300D03*
X727150Y255050D03*
X726600Y250900D03*
X735300Y255500D03*
X729000Y281500D03*
X728700Y278400D03*
X740000Y274500D03*
X734000Y275500D03*
X739200Y288800D03*
X744300Y5600D03*
X746300Y30500D03*
X743500D03*
X743300Y48200D03*
X745900Y104600D03*
X742000Y258000D03*
Y255000D03*
X746000Y275900D03*
X743100Y285100D03*
G54D20*
X125000Y65000D03*
Y365000D03*
X525000D03*
X725000Y65000D03*
G54D11*
X20900Y146700D03*
X21900Y160000D03*
Y167500D03*
Y175000D03*
Y182500D03*
Y190000D03*
Y200000D03*
Y207500D03*
Y215000D03*
Y225000D03*
Y232500D03*
Y240000D03*
Y247500D03*
X39400Y122500D03*
Y115000D03*
X30600Y122500D03*
X24400D03*
X27100Y146700D03*
X28100Y160000D03*
Y167500D03*
Y175000D03*
Y182500D03*
Y190000D03*
Y200000D03*
Y207500D03*
Y215000D03*
Y225000D03*
Y232500D03*
Y240000D03*
Y247500D03*
X34400Y267500D03*
X45600Y122500D03*
Y115000D03*
X40600Y267500D03*
X73700Y65800D03*
X73900Y76000D03*
X87000Y25000D03*
X79900Y65800D03*
X80100Y76000D03*
X109300Y16400D03*
X103100D03*
X93200Y25000D03*
X106400Y48100D03*
X100200D03*
X171900Y100000D03*
X178100D03*
X166900Y145000D03*
X173100D03*
X166900Y265000D03*
X173100D03*
X166900Y302500D03*
X173100D03*
X192100Y158000D03*
X185900D03*
X192100Y164000D03*
X185900D03*
X191100Y184000D03*
X184900D03*
X205900Y112000D03*
X212100D03*
X200900Y175000D03*
X207100D03*
X200900Y169000D03*
X207100D03*
X232400Y252600D03*
Y258800D03*
X238600Y252600D03*
Y258800D03*
X255700Y140600D03*
X261900D03*
X256900Y132200D03*
X263100D03*
X279400Y312500D03*
Y305000D03*
X285600Y312500D03*
Y305000D03*
X309900Y213000D03*
X316100D03*
X331100Y81600D03*
X337300D03*
X323900Y213000D03*
X330100D03*
X349500Y81600D03*
X343300D03*
X380000Y367800D03*
X373800D03*
Y374300D03*
X380000D03*
X403300Y89500D03*
X399100Y76200D03*
X392900D03*
Y82200D03*
X399100D03*
X409500Y89500D03*
X423900Y195000D03*
X424900Y182000D03*
X423900Y202000D03*
Y209000D03*
X430100Y195000D03*
X431100Y182000D03*
X430100Y202000D03*
Y209000D03*
X453100Y152000D03*
X446900D03*
X468100Y169000D03*
X461900D03*
Y175000D03*
X468100D03*
X472300Y298100D03*
X478500D03*
X472300Y304400D03*
X478500D03*
X472300Y310700D03*
X478500D03*
X494900Y173500D03*
X490800Y298100D03*
X484600D03*
X490800Y310700D03*
X484600D03*
X490800Y304400D03*
X484600D03*
X501100Y173500D03*
X510900Y180000D03*
Y186000D03*
X528400Y141000D03*
Y151000D03*
X517100Y180000D03*
Y186000D03*
X525900Y265000D03*
X526100Y256000D03*
X519900D03*
X520000Y265000D03*
X513800D03*
X545600Y95000D03*
X539400D03*
X534600Y141000D03*
X548100Y147500D03*
X541900D03*
X534600Y151000D03*
X532100Y265000D03*
X538100Y250600D03*
X531900D03*
X543900Y269000D03*
X544400Y295000D03*
X550100Y269000D03*
X550600Y295000D03*
X599400Y267500D03*
Y297500D03*
X605600Y267500D03*
Y297500D03*
X610300Y323300D03*
X616500D03*
X614400Y355500D03*
X620600D03*
X645600Y254500D03*
X639400D03*
X669200Y175300D03*
X669300Y214300D03*
X657100Y208100D03*
X663300D03*
X669300D03*
X657100Y214300D03*
X663300D03*
X665600Y359000D03*
X659400D03*
X680400Y18400D03*
X674200D03*
X674100Y11800D03*
X680300D03*
X675400Y175300D03*
X675500Y214300D03*
Y208100D03*
X683100Y255000D03*
X676900D03*
X688400Y375500D03*
X697600Y254000D03*
X691400D03*
X697600Y260000D03*
X691400D03*
X703900Y252000D03*
X699900Y276500D03*
X706100D03*
X694600Y375500D03*
X710100Y252000D03*
X716900D03*
X723100D03*
X722400Y274000D03*
X735900Y264000D03*
X728600Y274000D03*
X742100Y264000D03*
G54D30*
X168700Y198500D03*
Y218500D03*
Y208500D03*
Y228500D03*
Y238500D03*
X617500Y188500D03*
Y198500D03*
Y208500D03*
Y218500D03*
Y228500D03*
G54D12*
X41500Y42000D03*
X59500Y53800D03*
X61000Y353000D03*
X80800Y42000D03*
X104000Y378000D03*
X124000Y11000D03*
Y23500D03*
Y36000D03*
X234000Y197500D03*
X222000D03*
X255600Y330500D03*
X255500Y343000D03*
Y355500D03*
X287000Y156000D03*
Y169000D03*
X486500Y243000D03*
X526000Y186000D03*
X537000Y160500D03*
X581500Y79500D03*
X579000Y337000D03*
X599000Y10000D03*
Y22000D03*
X593500Y67500D03*
Y79500D03*
X592000Y167000D03*
X605500Y67500D03*
X617500D03*
Y79500D03*
X605500D03*
X630000D03*
X644900Y7000D03*
X744000Y201000D03*
Y213000D03*
Y225100D03*
G54D21*
X141870Y94600D03*
Y158100D03*
Y173350D03*
Y236850D03*
Y252100D03*
Y315600D03*
X574870Y94600D03*
Y158100D03*
Y173350D03*
Y236850D03*
Y252100D03*
Y315600D03*
G54D31*
X170000Y279650D03*
Y290350D03*
X251500Y285250D03*
Y295950D03*
X271100Y249850D03*
Y260550D03*
X269100Y304050D03*
Y314750D03*
X270000Y335350D03*
Y324650D03*
Y357850D03*
Y347150D03*
X274200Y288550D03*
Y277850D03*
X297000Y127650D03*
Y138350D03*
X420000Y129350D03*
Y118650D03*
X421000Y164350D03*
Y153650D03*
X436900Y251450D03*
Y240750D03*
X435200Y284650D03*
Y273950D03*
X437500Y317150D03*
Y327850D03*
X450000Y305350D03*
Y294650D03*
X455000Y352150D03*
Y362850D03*
X477500Y319650D03*
Y330350D03*
X503600Y107650D03*
Y118350D03*
X521400Y299350D03*
Y310050D03*
X602500Y287850D03*
Y277150D03*
G54D13*
X42710Y93530D03*
Y349830D03*
G54D40*
X525126Y197378D03*
X528276D03*
X525126Y200528D03*
X528276D03*
X525126Y203677D03*
X528276D03*
X525126Y206827D03*
X528276D03*
X525126Y209976D03*
X528276D03*
X525126Y213126D03*
X528276D03*
X525126Y216276D03*
X528276D03*
X525126Y219425D03*
X528276D03*
X525126Y222575D03*
X528276D03*
X525126Y225724D03*
X528276D03*
X525126Y228874D03*
X528276D03*
X525126Y232024D03*
X528276D03*
X525126Y235173D03*
X528276D03*
X525126Y238323D03*
X528276D03*
X525126Y241472D03*
X528276D03*
X525126Y244622D03*
X528276D03*
X531425Y197378D03*
X534575D03*
X537724D03*
X540874D03*
X531425Y200528D03*
X534575D03*
X537724D03*
X540874D03*
X531425Y203677D03*
X534575D03*
X537724D03*
X540874D03*
X531425Y206827D03*
X534575D03*
X537724D03*
X540874D03*
X531425Y209976D03*
X534575D03*
X537724D03*
X540874D03*
X531425Y213126D03*
X534575D03*
X537724D03*
X540874D03*
X531425Y216276D03*
X534575D03*
X537724D03*
X540874D03*
X531425Y219425D03*
X534575D03*
X537724D03*
X540874D03*
X531425Y222575D03*
X534575D03*
X537724D03*
X540874D03*
X531425Y225724D03*
X534575D03*
X537724D03*
X540874D03*
X531425Y228874D03*
X534575D03*
X537724D03*
X540874D03*
X531425Y232024D03*
X534575D03*
X537724D03*
X540874D03*
X531425Y235173D03*
X534575D03*
X537724D03*
X540874D03*
X531425Y238323D03*
X534575D03*
X537724D03*
X540874D03*
X531425Y241472D03*
X534575D03*
X537724D03*
X540874D03*
X531425Y244622D03*
X534575D03*
X537724D03*
X540874D03*
G54D22*
X141870Y113850D03*
Y138850D03*
Y192600D03*
Y217600D03*
Y271350D03*
Y296350D03*
X574870Y113850D03*
Y138850D03*
Y192600D03*
Y217600D03*
Y271350D03*
Y296350D03*
G54D23*
X130590Y96425D03*
Y99575D03*
Y102725D03*
Y105875D03*
Y109025D03*
Y112175D03*
Y115325D03*
Y118475D03*
Y121625D03*
Y124775D03*
Y127925D03*
Y131075D03*
Y134225D03*
Y137375D03*
Y140525D03*
Y143675D03*
Y146825D03*
Y149975D03*
Y153125D03*
Y156275D03*
Y175175D03*
Y178325D03*
Y181475D03*
Y184625D03*
Y187775D03*
Y190925D03*
Y194075D03*
Y197225D03*
Y200375D03*
Y203525D03*
Y206675D03*
Y209825D03*
Y212975D03*
Y216125D03*
Y219275D03*
Y222425D03*
Y225575D03*
Y228725D03*
Y231875D03*
Y235025D03*
Y253925D03*
Y257075D03*
Y260225D03*
Y263375D03*
Y266525D03*
Y269675D03*
Y272825D03*
Y275975D03*
Y279125D03*
Y282275D03*
Y285425D03*
Y288575D03*
Y291725D03*
Y294875D03*
Y298025D03*
Y301175D03*
Y304325D03*
Y307475D03*
Y310625D03*
Y313775D03*
X153150Y96425D03*
Y99575D03*
Y102725D03*
Y105875D03*
Y109025D03*
Y112175D03*
Y115325D03*
Y118475D03*
Y121625D03*
Y124775D03*
Y127925D03*
Y131075D03*
Y134225D03*
Y137375D03*
Y140525D03*
Y143675D03*
Y146825D03*
Y149975D03*
Y153125D03*
Y156275D03*
Y175175D03*
Y178325D03*
Y181475D03*
Y184625D03*
Y187775D03*
Y190925D03*
Y194075D03*
Y197225D03*
Y200375D03*
Y203525D03*
Y206675D03*
Y209825D03*
Y212975D03*
Y216125D03*
Y219275D03*
Y222425D03*
Y225575D03*
Y228725D03*
Y231875D03*
Y235025D03*
Y253925D03*
Y257075D03*
Y260225D03*
Y263375D03*
Y266525D03*
Y269675D03*
Y272825D03*
Y275975D03*
Y279125D03*
Y282275D03*
Y285425D03*
Y288575D03*
Y291725D03*
Y294875D03*
Y298025D03*
Y301175D03*
Y304325D03*
Y307475D03*
Y310625D03*
Y313775D03*
X563590Y96425D03*
Y99575D03*
Y102725D03*
Y105875D03*
Y109025D03*
Y112175D03*
Y115325D03*
Y118475D03*
Y121625D03*
Y124775D03*
Y127925D03*
Y131075D03*
Y134225D03*
Y137375D03*
Y140525D03*
Y143675D03*
Y146825D03*
Y149975D03*
Y153125D03*
Y156275D03*
Y175175D03*
Y178325D03*
Y181475D03*
Y184625D03*
Y187775D03*
Y190925D03*
Y194075D03*
Y197225D03*
Y200375D03*
Y203525D03*
Y206675D03*
Y209825D03*
Y212975D03*
Y216125D03*
Y219275D03*
Y222425D03*
Y225575D03*
Y228725D03*
Y231875D03*
Y235025D03*
Y253925D03*
Y257075D03*
Y260225D03*
Y263375D03*
Y266525D03*
Y269675D03*
Y272825D03*
Y275975D03*
Y279125D03*
Y282275D03*
Y285425D03*
Y288575D03*
Y291725D03*
Y294875D03*
Y298025D03*
Y301175D03*
Y304325D03*
Y307475D03*
Y310625D03*
Y313775D03*
X586150Y96425D03*
Y99575D03*
Y102725D03*
Y105875D03*
Y109025D03*
Y112175D03*
Y115325D03*
Y118475D03*
Y121625D03*
Y124775D03*
Y127925D03*
Y131075D03*
Y134225D03*
Y137375D03*
Y140525D03*
Y143675D03*
Y146825D03*
Y149975D03*
Y153125D03*
Y156275D03*
Y175175D03*
Y178325D03*
Y181475D03*
Y184625D03*
Y187775D03*
Y190925D03*
Y194075D03*
Y197225D03*
Y200375D03*
Y203525D03*
Y206675D03*
Y209825D03*
Y212975D03*
Y216125D03*
Y219275D03*
Y222425D03*
Y225575D03*
Y228725D03*
Y231875D03*
Y235025D03*
Y253925D03*
Y257075D03*
Y260225D03*
Y263375D03*
Y266525D03*
Y269675D03*
Y272825D03*
Y275975D03*
Y279125D03*
Y282275D03*
Y285425D03*
Y288575D03*
Y291725D03*
Y294875D03*
Y298025D03*
Y301175D03*
Y304325D03*
Y307475D03*
Y310625D03*
Y313775D03*
G54D41*
X541700Y255750D03*
Y263250D03*
X534700Y259550D03*
G54D14*
X52500Y124400D03*
Y130600D03*
Y144400D03*
Y150600D03*
X50000Y263100D03*
Y256900D03*
Y283100D03*
Y276900D03*
Y298100D03*
Y291900D03*
Y313100D03*
Y306900D03*
Y321900D03*
Y328100D03*
X65000Y140600D03*
Y134400D03*
X60100Y231000D03*
Y237200D03*
X57500Y266900D03*
Y273100D03*
X65700Y313600D03*
Y307400D03*
X117500Y86900D03*
Y93100D03*
Y149400D03*
Y155600D03*
X117900Y195700D03*
Y189500D03*
X115800Y248400D03*
Y242200D03*
X117500Y261900D03*
Y268100D03*
Y310600D03*
Y304400D03*
X222000Y172400D03*
Y178600D03*
X230000Y172400D03*
Y178600D03*
X216000Y172400D03*
Y178600D03*
X241800Y184800D03*
Y191000D03*
X247800Y184800D03*
Y191000D03*
X259600Y151500D03*
Y157700D03*
X285100Y249900D03*
Y243700D03*
X285000Y256900D03*
Y263100D03*
Y279400D03*
Y291900D03*
Y298100D03*
Y285600D03*
Y319400D03*
Y334400D03*
Y325600D03*
Y340600D03*
X301000Y152900D03*
Y159100D03*
Y165900D03*
Y172100D03*
X465100Y231100D03*
Y237300D03*
X493000Y120600D03*
Y114400D03*
X486000Y177900D03*
Y184100D03*
X496000Y182400D03*
Y188600D03*
X488900Y262300D03*
Y256100D03*
X482800D03*
Y262300D03*
X502000Y182400D03*
Y188600D03*
X524000Y164400D03*
Y170600D03*
X518500Y249900D03*
Y243700D03*
X548500Y242100D03*
Y235900D03*
X550000Y261800D03*
Y255600D03*
X597500Y103100D03*
Y96900D03*
Y141900D03*
Y148100D03*
X609500Y309400D03*
Y315600D03*
X616500Y315100D03*
Y308900D03*
X656000Y181700D03*
Y187900D03*
X680200Y30800D03*
Y24600D03*
X677500Y188100D03*
Y181900D03*
X706300Y172400D03*
Y178600D03*
X700000Y172400D03*
Y178600D03*
X693900Y172400D03*
Y178600D03*
X700400Y284200D03*
Y290400D03*
X702000Y317100D03*
Y310900D03*
Y323900D03*
Y330100D03*
X707400Y297200D03*
Y291000D03*
X737900Y319400D03*
Y313200D03*
X744400Y319400D03*
Y313200D03*
G54D50*
X688000Y131350D03*
Y150650D03*
G54D32*
X274000Y183000D03*
X284000D03*
X459500Y188000D03*
X449500D03*
X492500Y275000D03*
X502500D03*
X525000D03*
X535000D03*
X726600Y166600D03*
Y178400D03*
X738400Y166600D03*
Y178400D03*
X744000Y236400D03*
Y246400D03*
G54D42*
X592150Y37000D03*
X611850D03*
G54D51*
X686000Y174450D03*
Y184550D03*
X714800Y170950D03*
Y181050D03*
G54D15*
X44200Y162700D03*
Y165900D03*
Y169100D03*
Y172300D03*
X50600Y162700D03*
Y165900D03*
Y169100D03*
Y172300D03*
X44200Y177700D03*
X50600D03*
X44200Y180900D03*
Y184100D03*
Y187300D03*
X50600Y180900D03*
Y184100D03*
Y187300D03*
X44200Y192700D03*
Y195900D03*
X50600Y192700D03*
Y195900D03*
X44200Y207700D03*
Y210900D03*
Y214100D03*
X50600Y207700D03*
Y210900D03*
Y214100D03*
X44200Y199100D03*
Y202300D03*
X50600Y199100D03*
Y202300D03*
X44200Y217300D03*
X50600D03*
X44200Y222700D03*
Y225900D03*
Y229100D03*
X50600Y222700D03*
Y225900D03*
Y229100D03*
X44200Y232300D03*
X50600D03*
X44200Y237700D03*
Y240900D03*
Y244100D03*
Y247300D03*
X50600Y237700D03*
Y240900D03*
Y244100D03*
Y247300D03*
G54D33*
X314600Y143200D03*
X318600Y159000D03*
X314500Y153300D03*
Y158300D03*
X314600Y148200D03*
X302700Y177500D03*
X318500Y178700D03*
X318600Y164000D03*
X302700Y182500D03*
X318500Y183700D03*
X318600Y198400D03*
Y203400D03*
X322600Y172000D03*
Y167000D03*
X330200Y167800D03*
Y162800D03*
X330400Y186500D03*
Y191500D03*
X334400Y194400D03*
Y199400D03*
X330400Y202400D03*
Y207400D03*
X338400Y194400D03*
Y199400D03*
X369800Y194300D03*
X357500Y198200D03*
Y203200D03*
X361900Y198300D03*
Y203300D03*
X369800Y199300D03*
X381400Y153100D03*
Y158100D03*
X381600Y174800D03*
X381400Y194400D03*
X385400Y182600D03*
Y187600D03*
X381600Y179800D03*
X373700Y202400D03*
Y207400D03*
X385600Y207300D03*
Y202300D03*
X381400Y199400D03*
X389500Y198500D03*
Y203500D03*
X397400Y153000D03*
Y158000D03*
X397300Y174900D03*
X401200Y194600D03*
X397300Y179900D03*
X405300Y202200D03*
Y207200D03*
X393500Y202200D03*
Y207200D03*
X401200Y199600D03*
X409200Y203300D03*
Y198300D03*
X703500Y370500D03*
Y375500D03*
X706500Y353000D03*
Y348000D03*
G54D60*
X734390Y132500D03*
G54D24*
X147500Y337500D03*
Y357500D03*
Y347500D03*
Y367500D03*
Y377500D03*
X157500Y337500D03*
Y357500D03*
Y347500D03*
Y367500D03*
Y377500D03*
X167500Y337500D03*
Y357500D03*
Y347500D03*
Y367500D03*
Y377500D03*
G54D61*
X736900Y325300D03*
Y328700D03*
X743100Y325300D03*
Y328700D03*
G54D25*
X174000Y10500D03*
X342000D03*
X375000Y10000D03*
X543000D03*
G54D34*
X318000Y151600D03*
X317900Y175400D03*
X319100Y167500D03*
X314100D03*
X314000Y194900D03*
X319000D03*
X317900Y187000D03*
X310200Y198900D03*
X315200D03*
X306300Y202800D03*
X311300D03*
X310200Y206800D03*
X315200D03*
X330700Y159300D03*
X325700D03*
X323000Y151600D03*
X326800Y147600D03*
X321800D03*
X322900Y175400D03*
X326000Y171300D03*
X331000D03*
X322000Y194900D03*
X327000D03*
X322900Y187000D03*
X327000Y190900D03*
X322000D03*
X325900Y183100D03*
X330900D03*
X325900Y198900D03*
X330900D03*
X337800Y202800D03*
X322000Y202900D03*
X327000D03*
X333900Y206900D03*
X334500Y283000D03*
Y311000D03*
X346700Y194900D03*
X341700D03*
X354600Y206900D03*
X349600D03*
X345600Y198900D03*
X350600D03*
X348000Y211100D03*
X343000D03*
X342800Y202800D03*
X338900Y206900D03*
X339500Y283000D03*
X351500Y287000D03*
X346500D03*
X351500Y299000D03*
X346500D03*
X339500Y311000D03*
X368500Y211300D03*
X361400Y206800D03*
X366400D03*
X365400Y202800D03*
X370400D03*
X371000Y299000D03*
X366000D03*
X370000Y318500D03*
X388900Y159500D03*
X389900Y151800D03*
X384900D03*
X385900Y163500D03*
X380900D03*
X388800Y179200D03*
X390000Y175300D03*
X385000D03*
X388900Y163500D03*
X385900Y167500D03*
X380900D03*
X389800Y171400D03*
X384800D03*
X389900Y191100D03*
X384900D03*
X388900Y183100D03*
X389900Y195000D03*
X384900D03*
X373500Y211300D03*
X377200Y207200D03*
X382200D03*
X381800Y211300D03*
X376800D03*
X379000Y279000D03*
X374000D03*
X375000Y318500D03*
X393900Y159500D03*
X397800Y171400D03*
X392800D03*
X393800Y179200D03*
X393900Y163500D03*
X392900Y191100D03*
X397900D03*
X392900Y187100D03*
X397900D03*
X393900Y183100D03*
X396900Y206700D03*
X401900D03*
X400500Y211000D03*
X395500D03*
X484000Y230500D03*
X479000D03*
X479300Y234800D03*
X484300D03*
X633400Y207900D03*
X638400D03*
X693500Y346500D03*
X698500D03*
G54D16*
G01X20900Y146700D02*
Y141700D01*
G01X21900Y160000D02*
X18300D01*
G01X30600Y122500D02*
X34600D01*
G01X28100Y160000D02*
X31400D01*
G01X28100Y175000D02*
X31400D01*
G01X28100Y167500D02*
X31400D01*
G01X28100Y190000D02*
X28600Y190500D01*
X30900D01*
X31400Y190000D01*
G01X28100Y182500D02*
X31400D01*
G01X28100Y207500D02*
X32100D01*
G01X28100Y200000D02*
X31400D01*
G01X44200Y210900D02*
X38600D01*
G01X44200Y214100D02*
X38800D01*
G01X28100Y225000D02*
X30900D01*
G01X28100Y215000D02*
X31100D01*
G01X28100Y247500D02*
Y244300D01*
G01Y240000D02*
X31500D01*
G01X28100Y232500D02*
X32400D01*
G01X45600Y118900D02*
Y122500D01*
G01Y115000D02*
Y118900D01*
G01X52500Y130600D02*
X56800D01*
G01X52500Y150600D02*
Y154000D01*
G01X44200Y165900D02*
Y162700D01*
G01Y169100D02*
Y165900D01*
G01Y172300D02*
X41000D01*
G01X44200Y169100D02*
Y172300D01*
G01Y177700D02*
X43800Y178100D01*
Y180500D01*
X44200Y180900D01*
G01D02*
X43978Y181122D01*
X41900Y181500D01*
X40900D01*
G01X44200Y184100D02*
X43986Y183886D01*
X42100Y183600D01*
X40900D01*
G01X44200Y184100D02*
Y187300D01*
G01Y180900D02*
Y184100D01*
G01Y192700D02*
X41000D01*
G01X44200D02*
Y195900D01*
G01D02*
Y199100D01*
G01D02*
Y202300D01*
G01D02*
X40900D01*
G01X44200Y210900D02*
X43800Y210500D01*
Y208100D01*
X44200Y207700D01*
G01Y214100D02*
Y210900D01*
G01Y217300D02*
Y214100D01*
G01Y232300D02*
Y237700D01*
G01Y229100D02*
Y232300D01*
G01Y225900D02*
Y229100D01*
G01Y222700D02*
Y225900D01*
G01Y222700D02*
X40000D01*
G01X44200Y232300D02*
X40100D01*
G01X44200Y247300D02*
X44000Y247500D01*
X42900D01*
X42500Y247900D01*
X41700D01*
X41100Y247300D01*
G01X44200Y244100D02*
X44000D01*
X41100Y247000D01*
Y247300D01*
G01X44200Y240900D02*
Y244100D01*
G01Y237700D02*
Y240900D01*
G01Y237700D02*
X40500D01*
G01X50000Y263100D02*
X54500D01*
G01X40600Y267500D02*
X43400D01*
G01X50000Y283100D02*
X53900D01*
G01X50000Y298100D02*
X56300D01*
G01X50000Y313100D02*
X54200D01*
G01X50000Y321900D02*
Y321000D01*
X54200Y316800D01*
Y313100D01*
G01X57500Y266900D02*
X61600D01*
G01X87000Y25000D02*
Y20600D01*
G01X106400Y48100D02*
X109200D01*
X111000Y49900D01*
G01X184900Y184000D02*
X179100D01*
X176750Y181650D01*
Y158450D01*
X188101Y147099D01*
Y118638D01*
X193739Y113000D01*
Y107629D01*
X192300Y106190D01*
Y52300D01*
G01X219950Y379700D02*
X178700D01*
X178334Y380066D01*
G01X200950Y121050D02*
X195500Y126500D01*
Y143000D01*
X199100Y146600D01*
G01X200900Y180600D02*
Y175000D01*
G01D02*
Y169000D01*
G01X230650Y379700D02*
X232700D01*
X237100Y375300D01*
G01X251500Y285250D02*
X252050D01*
X258300Y291500D01*
G01X285100Y249900D02*
X287200D01*
X288900Y248200D01*
Y248100D01*
G01X285000Y256900D02*
X288800D01*
G01X274200Y288550D02*
Y290100D01*
G01X285000Y291900D02*
X289100D01*
G01X285000Y285600D02*
Y288394D01*
X287824Y291218D01*
X288418D01*
X289100Y291900D01*
G01X269100Y314750D02*
X275050Y315350D01*
X277000Y317300D01*
G01X279400Y312500D02*
Y314900D01*
X277000Y317300D01*
G01X270000Y335350D02*
X276500D01*
G01X285000Y334400D02*
X288400D01*
G01X285000Y325600D02*
X288900D01*
G01X280350Y375000D02*
X280400Y365600D01*
G01X373800Y367800D02*
Y368725D01*
X370550Y371975D01*
Y373350D01*
X367000Y376900D01*
G01X455294Y200194D02*
X460800Y205700D01*
X464015D01*
X465040Y204675D01*
Y200860D01*
X465200Y200700D01*
G01X450000Y305350D02*
X452850D01*
X458400Y299800D01*
G01X462640Y223300D02*
Y217760D01*
G01X465100Y237300D02*
Y243700D01*
G01X463750Y270600D02*
X466600D01*
X469400Y267800D01*
G01X472300Y298100D02*
X469600D01*
X467000Y300700D01*
G01X472300Y304400D02*
Y298100D01*
G01D02*
Y287650D01*
X473350Y286600D01*
G01X467800Y319000D02*
X466800Y320000D01*
X462850D01*
G01X472300Y310700D02*
Y304400D01*
G01X477500Y330350D02*
Y336300D01*
G01X462850Y337500D02*
Y344250D01*
G01X490800Y304400D02*
Y298100D01*
G01Y310700D02*
Y304400D01*
G01Y310700D02*
Y315100D01*
G01X521400Y310050D02*
Y314700D01*
G01X563590Y228725D02*
X569825D01*
X572325Y231225D01*
Y234305D01*
X574870Y236850D01*
G01Y138850D02*
X576650D01*
G01X574870Y158100D02*
Y153530D01*
X576400Y152000D01*
G01X574870Y173350D02*
Y172330D01*
X576600Y170600D01*
G01X574870Y217600D02*
Y213170D01*
X573300Y211600D01*
G01X574870Y271350D02*
Y266670D01*
G01Y252100D02*
X577100D01*
G01X574870Y296350D02*
X575920Y295300D01*
X576600D01*
G01X574870Y315600D02*
Y310570D01*
G01X628400Y166000D02*
Y158300D01*
X626900Y156800D01*
G01X654400Y75200D02*
X645200D01*
G01X652000Y181700D02*
X656000D01*
G01X657100Y214300D02*
X653500D01*
G01X665000Y24500D02*
X668500D01*
G01X655114Y370500D02*
Y378014D01*
G01X671886Y370500D02*
Y378186D01*
G01X696000Y363600D02*
X692500Y370300D01*
G01X694600Y375500D02*
X699200D01*
G01X712100Y17100D02*
X719800D01*
G01X734900D02*
Y29300D01*
X736300Y30700D01*
G01X728700Y278400D02*
Y278132D01*
X728600Y278032D01*
Y274000D01*
X42000Y362000D03*
X44000Y378000D03*
X70000Y382000D03*
X111200Y353600D03*
X196727Y14727D03*
Y19727D03*
Y34727D03*
Y39727D03*
Y29727D03*
Y24727D03*
X201700Y14700D03*
X211727Y19727D03*
Y14727D03*
X206727Y19727D03*
X201727D03*
X206727Y14727D03*
X201727Y34727D03*
X211727D03*
X201727Y29727D03*
X206727Y34727D03*
Y24727D03*
Y39727D03*
X211727Y29727D03*
Y39727D03*
X201727D03*
X206727Y29727D03*
X211727Y24727D03*
X201727D03*
X231727Y19727D03*
Y14727D03*
X221727D03*
Y19727D03*
X216727D03*
X226727D03*
Y14727D03*
X216727D03*
X226727Y24727D03*
X216727Y39727D03*
X226727Y34727D03*
Y39727D03*
X216727Y24727D03*
X231727Y34727D03*
Y29727D03*
X216727Y34727D03*
X221727D03*
Y29727D03*
X231727Y39727D03*
X221727D03*
X226727Y29727D03*
X216727D03*
X231727Y24727D03*
X221727D03*
X236727Y19727D03*
X246727D03*
Y14727D03*
X236727D03*
X241727D03*
Y19727D03*
X236727Y24727D03*
Y39727D03*
Y34727D03*
X241727D03*
Y29727D03*
Y39727D03*
X246727Y29727D03*
X236727D03*
X241727Y24727D03*
X246727D03*
Y39727D03*
Y34727D03*
X261727Y19727D03*
X266727D03*
X261727Y14727D03*
X251727D03*
Y19727D03*
X256727D03*
Y14727D03*
X266727D03*
X256727Y39727D03*
X261727Y34727D03*
X266727D03*
X256727D03*
Y24727D03*
X251727Y34727D03*
X266727Y24727D03*
Y39727D03*
X261727Y29727D03*
X251727D03*
X261727Y39727D03*
X251727D03*
X266727Y29727D03*
X256727D03*
X261727Y24727D03*
X251727D03*
X281727Y19727D03*
X276727D03*
X281727Y14727D03*
X271727D03*
Y19727D03*
X276727Y14727D03*
X281727Y29727D03*
Y34727D03*
X271727D03*
X276727Y39727D03*
Y24727D03*
X271727Y29727D03*
X276727Y34727D03*
X281727Y39727D03*
X271727D03*
X276727Y29727D03*
X281727Y24727D03*
X271727D03*
X291727Y14727D03*
Y19727D03*
X301727Y14727D03*
X286727Y19727D03*
X296727D03*
X301727D03*
X296727Y14727D03*
X286727D03*
X301727Y29727D03*
X286727Y39727D03*
Y24727D03*
X296727D03*
X301727Y34727D03*
X296727Y39727D03*
X286727Y34727D03*
X296727D03*
X291727Y29727D03*
Y34727D03*
X301727Y39727D03*
X291727D03*
X296727Y29727D03*
X286727D03*
X301727Y24727D03*
X291727D03*
X311727Y14727D03*
Y19727D03*
X316727D03*
X306727D03*
X316727Y14727D03*
X306727D03*
X311727Y34727D03*
X316727Y24727D03*
X306727Y34727D03*
X311727Y29727D03*
X306727Y39727D03*
Y24727D03*
X316727Y39727D03*
Y34727D03*
X311727Y39727D03*
X316727Y29727D03*
X306727D03*
X311727Y24727D03*
X309100Y385400D03*
X370600Y386000D03*
X397727Y19227D03*
X402727D03*
X407727D03*
X397727Y14227D03*
X407727D03*
X402750Y14200D03*
X397727Y34227D03*
X402727D03*
Y29227D03*
X397727Y39227D03*
Y24227D03*
X407727D03*
X397727Y29227D03*
X402727Y39227D03*
X407727Y29227D03*
X402727Y24227D03*
X407727Y39227D03*
Y34227D03*
X397000Y384500D03*
X412727Y19227D03*
X422727D03*
X412727Y14227D03*
X417727Y19227D03*
Y14227D03*
X422727D03*
X412727Y29227D03*
X417727Y34227D03*
X422727Y29227D03*
X417727Y24227D03*
X422727Y39227D03*
X412727D03*
X417727Y29227D03*
X422727Y24227D03*
X412727D03*
X417727Y39227D03*
X422727Y34227D03*
X412727D03*
X409700Y385100D03*
X432727Y14227D03*
Y19227D03*
X437727D03*
Y14227D03*
X427727D03*
Y19227D03*
X442727D03*
Y14227D03*
X437727Y34227D03*
Y39227D03*
X442727Y34227D03*
Y29227D03*
X432727Y34227D03*
X427727Y24227D03*
X437727D03*
X442727Y39227D03*
X432727D03*
X437727Y29227D03*
X427727D03*
X442727Y24227D03*
X432727D03*
X427727Y39227D03*
X432727Y29227D03*
X427727Y34227D03*
X440500Y385000D03*
X457727Y19227D03*
Y14227D03*
X447727Y19227D03*
Y14227D03*
X452727Y19227D03*
Y14227D03*
Y29227D03*
Y39227D03*
X457727Y29227D03*
X447727D03*
X452727Y24227D03*
X457727Y34227D03*
Y24227D03*
X452727Y34227D03*
X457727Y39227D03*
X447727Y24227D03*
Y39227D03*
Y34227D03*
X462727Y19227D03*
Y14227D03*
X472727Y19227D03*
Y14227D03*
X477727D03*
X467727D03*
X477727Y19227D03*
X467727D03*
X472727Y29227D03*
X477727Y39227D03*
Y24227D03*
X467727D03*
Y34227D03*
X462727D03*
X472727Y39227D03*
X462727D03*
X477727Y29227D03*
X467727D03*
X472727Y24227D03*
X462727D03*
Y29227D03*
X477727Y34227D03*
X472727D03*
X467727Y39227D03*
X492727Y14227D03*
X482727Y19227D03*
X487727D03*
Y14227D03*
X492727Y19227D03*
X482727Y14227D03*
X487727Y24227D03*
Y34227D03*
X492727Y29227D03*
Y39227D03*
X482727D03*
X487727Y29227D03*
X492727Y24227D03*
X482727D03*
X487727Y39227D03*
X482727Y34227D03*
X492727D03*
X482727Y29227D03*
X512727Y19227D03*
X502727D03*
X497727D03*
X512727Y14227D03*
X507727D03*
X497727D03*
X502727D03*
X507727Y19227D03*
Y24227D03*
X497727D03*
X512727Y29227D03*
X507727Y39227D03*
X497727D03*
X507727Y34227D03*
X512727D03*
X497727D03*
X512727Y39227D03*
X502727D03*
X507727Y29227D03*
X497727D03*
X512727Y24227D03*
X502727D03*
Y29227D03*
Y34227D03*
X517727Y19227D03*
Y14227D03*
Y24227D03*
Y34227D03*
Y39227D03*
Y29227D03*
X579200Y375100D03*
X617000Y21500D03*
X607500D03*
X612500D03*
X617000Y25500D03*
Y29500D03*
X612500D03*
X607500D03*
X612500Y25500D03*
X607500D03*
X626900Y156800D03*
X652000Y132500D03*
X651500Y160500D03*
X672000Y107000D03*
Y111000D03*
X663500Y118000D03*
Y123000D03*
X658000Y132500D03*
X655000Y139500D03*
X658500Y161000D03*
X655000Y156000D03*
Y147500D03*
X670500Y248100D03*
Y255000D03*
Y251700D03*
X683500Y118500D03*
X673500Y118000D03*
Y123500D03*
X683500D03*
X688500Y162500D03*
X684500D03*
X686500Y166000D03*
X687000Y216500D03*
X686500Y244500D03*
X690000Y118500D03*
X692500Y123500D03*
X696500Y162500D03*
X692500D03*
X699500Y166000D03*
X694500D03*
X690500D03*
X706500Y206000D03*
Y200000D03*
X699500D03*
Y206000D03*
X693500Y216500D03*
X690000Y222000D03*
Y230500D03*
X693500Y244500D03*
X690000Y239000D03*
X720000Y206000D03*
Y200500D03*
X713500Y206000D03*
Y200000D03*
X720000Y246000D03*
X726500Y203500D03*
X731000Y246000D03*
X725500D03*
G54D43*
X605600Y166000D03*
X628400D03*
X654400Y75200D03*
X677200D03*
X712100Y17100D03*
X734900D03*
G54D52*
X709587Y119508D03*
Y145492D03*
G54D62*
G01X24400Y122500D02*
Y118400D01*
G01X21900Y160000D02*
Y167500D01*
G01Y175000D02*
Y182500D01*
G01Y175000D02*
Y167500D01*
G01Y182500D02*
Y190000D01*
G01Y211000D02*
Y207500D01*
G01Y200000D02*
Y204000D01*
G01Y207500D02*
Y204000D01*
G01Y215000D02*
Y211000D01*
G01Y228700D02*
Y225000D01*
G01Y220800D02*
Y215000D01*
G01Y225000D02*
Y220800D01*
G01Y232500D02*
Y228700D01*
G01Y243600D02*
Y247500D01*
G01Y232500D02*
Y240000D01*
G01D02*
Y243600D01*
G01X73820Y108300D02*
X67700D01*
G01X73820Y122470D02*
X67030D01*
G01X73820Y129560D02*
X67860D01*
G01X73820Y148460D02*
X68440D01*
G01X73820Y162630D02*
X68770D01*
X67300Y164100D01*
G01X60100Y231000D02*
Y229300D01*
X61600Y227800D01*
G01X73820Y299640D02*
X67060D01*
X66100Y300600D01*
G01X73820Y101210D02*
X80610D01*
G01X73820Y115390D02*
X81890D01*
X82800Y116300D01*
G01X73820Y141370D02*
X83230D01*
G01X73820Y134280D02*
X81980D01*
G01X73820Y155540D02*
X80260D01*
G01X73820Y176800D02*
X81200D01*
G01X73820Y169720D02*
X79420D01*
G01X73820Y193340D02*
X81660D01*
X82500Y192500D01*
G01X73820Y188610D02*
X80590D01*
G01X73820Y181530D02*
X80270D01*
X81800Y180000D01*
G01X73820Y209870D02*
X79330D01*
G01X73820Y200430D02*
X79370D01*
G01X73820Y228770D02*
X81470D01*
G01X80550Y220950D02*
X78920Y219320D01*
X73820D01*
G01Y235860D02*
X79028D01*
X79058Y235890D01*
X80542D01*
X80572Y235860D01*
X83440D01*
G01X73820Y247670D02*
X79770D01*
G01X73820Y240580D02*
X78220D01*
X80800Y238000D01*
G01X73820Y254760D02*
X79540D01*
X80500Y253800D01*
G01X73820Y261840D02*
X80040D01*
X80500Y262300D01*
G01X73820Y283100D02*
X86600D01*
X87700Y284200D01*
G01X73820Y268930D02*
X84370D01*
G01X81800Y275000D02*
X80610Y276190D01*
X78658D01*
X78488Y276020D01*
X73820D01*
G01Y318540D02*
X79900Y318520D01*
G01X73820Y313810D02*
X79900Y313790D01*
G01X73820Y306720D02*
X79900Y306700D01*
G01X73820Y332710D02*
X79900Y332690D01*
G01X73820Y325620D02*
X79900Y325600D01*
G01X73820Y344520D02*
X79900Y344500D01*
G01X73820Y337430D02*
X79900Y337410D01*
G01X103100Y16400D02*
Y11400D01*
G01X106100Y104760D02*
X112550D01*
G01X106100Y123650D02*
X112550D01*
G01X106100Y116570D02*
X112550D01*
G01X106100Y111840D02*
X112550D01*
G01X106100Y142550D02*
X112550D01*
G01X106100Y137830D02*
X112550D01*
G01X106100Y130740D02*
X112550D01*
G01X106100Y161450D02*
X112550D01*
G01X106100Y156720D02*
X112550D01*
G01X106100Y149640D02*
X112550D01*
G01X106100Y175620D02*
X112550D01*
G01X106100Y168530D02*
X112550D01*
G01X106100Y194520D02*
X112550D01*
G01X106100Y189790D02*
X112550D01*
G01X106100Y182710D02*
X112550D01*
G01X106100Y211050D02*
X112550D01*
G01X106100Y201610D02*
X112550D01*
G01X106100Y229950D02*
X112050D01*
G01X106100Y220500D02*
X112300D01*
G01X106100Y237040D02*
X112240D01*
G01X106100Y248850D02*
X111050D01*
X114200Y252000D01*
G01X106100Y241760D02*
X102160D01*
X100300Y239900D01*
G01X106100Y263020D02*
X100680D01*
G01X106100Y255940D02*
X112340D01*
G01X106100Y284280D02*
X111280D01*
X115800Y288800D01*
G01X106100Y277200D02*
X100800D01*
G01X106100Y270110D02*
X113010D01*
G01X106100Y300820D02*
X107680D01*
X112000Y296500D01*
G01X106100Y307900D02*
X113200D01*
G01X106100Y314990D02*
X100590D01*
X99700Y314100D01*
G01X106100Y336250D02*
X112750D01*
G01X106100Y329160D02*
X100060D01*
G01X106100Y322080D02*
X110780D01*
X112500Y323800D01*
G01X106100Y345700D02*
X112500D01*
G01X106100Y343340D02*
X100240D01*
G01X117500Y86900D02*
Y83800D01*
G01Y155600D02*
Y159800D01*
G01X130590Y190925D02*
X124065D01*
G01X130590Y181475D02*
X124065D01*
G01X117900Y189500D02*
Y186700D01*
G01X130590Y209825D02*
X124065D01*
G01X130590Y200375D02*
X124065D01*
G01X130590Y228725D02*
X124065D01*
G01X130590Y219275D02*
X124065D01*
G01X115800Y242200D02*
X121000D01*
G01X117500Y268100D02*
Y272900D01*
G01Y304400D02*
Y300300D01*
G01X153150Y190925D02*
X159675D01*
G01X153150Y181475D02*
X159675D01*
G01X153150Y200375D02*
X159675D01*
G01X153150Y209825D02*
X159675D01*
G01X153150Y219275D02*
X159675D01*
G01X153150Y228725D02*
X159675D01*
G01X178100Y100000D02*
X180200D01*
X181900Y101700D01*
G01X177850Y125000D02*
Y140250D01*
X173100Y145000D01*
G01X177200Y151900D02*
X173100Y147800D01*
Y145000D01*
G01Y265000D02*
X177500D01*
G01X170000Y290350D02*
X180350D01*
G01X173100Y302500D02*
Y308000D01*
G01X185900Y158000D02*
Y164000D01*
G01X180200D02*
X185900D01*
G01X181650Y174000D02*
X185900Y169750D01*
Y164000D01*
G01X205900Y112000D02*
Y114200D01*
G01X207100Y175000D02*
Y180000D01*
G01X241800Y191000D02*
X247800D01*
G01D02*
X249900Y190100D01*
X253100Y186900D01*
Y184200D01*
G01X267500Y130900D02*
X268800Y132200D01*
Y138200D01*
X265900Y141100D01*
G01Y150921D02*
X268700Y148121D01*
Y143900D01*
X265900Y141100D01*
G01Y160764D02*
Y150921D01*
G01X259600Y151500D02*
X260179Y150921D01*
X265900D01*
G01X271100Y260550D02*
X279050D01*
G01X271100Y249850D02*
X278950D01*
G01X274200Y277850D02*
X280582Y282150D01*
X282882Y279850D01*
X284550D01*
X285000Y279400D01*
G01X269100Y304050D02*
X273050Y304650D01*
X276900Y300800D01*
G01X279400Y305000D02*
Y303300D01*
X276900Y300800D01*
G01X285000Y298100D02*
X281400D01*
G01X278500Y326000D02*
X282150Y322350D01*
Y321642D01*
X283942Y319850D01*
X284550D01*
X285000Y319400D01*
G01X270000Y324650D02*
X277150D01*
X278500Y326000D01*
G01X270000Y347150D02*
X277150D01*
G01X269650Y375000D02*
Y367850D01*
G01X270000Y357850D02*
X277050D01*
G01X285100Y243700D02*
X286500Y242300D01*
X287300Y241900D01*
X288700D01*
G01X285000Y263100D02*
X288800D01*
G01Y279400D02*
X285000D01*
G01Y340600D02*
Y344000D01*
G01X323256Y275304D02*
X321252Y273300D01*
X313800D01*
X311866Y271366D01*
X311444D01*
G01X307508Y283178D02*
Y281787D01*
X309308Y279987D01*
Y273502D01*
X311444Y271366D01*
G01X303570Y298948D02*
X305370Y300748D01*
X313245D01*
X315382Y302885D01*
G01X334700Y75100D02*
Y77332D01*
X336850Y79482D01*
Y81150D01*
X337300Y81600D01*
G01X349500D02*
Y84222D01*
X348722Y85000D01*
X346000D01*
G01X344200Y89500D02*
Y86800D01*
X346000Y85000D01*
G01X337300Y81600D02*
X343300D01*
G01X349650Y372500D02*
X346300D01*
X342900Y369100D01*
G01X360350Y372500D02*
X365800D01*
X369500Y368800D01*
G01X392900Y76200D02*
Y72800D01*
X394600Y71100D01*
G01X402850Y372500D02*
X406800D01*
X410700Y368600D01*
G01X427150Y372500D02*
X425800D01*
X422200Y368900D01*
G01X447600Y170500D02*
X442650Y165550D01*
Y162000D01*
G01D02*
X446900Y157750D01*
Y152000D01*
G01X436900Y240750D02*
X429350D01*
G01X436900Y251450D02*
X429550D01*
G01X435200Y273950D02*
X437103Y272047D01*
X437500Y270900D01*
Y267300D01*
G01X435200Y284650D02*
Y287100D01*
X436109Y288700D01*
X437500D01*
G01Y317150D02*
Y311900D01*
G01Y327850D02*
Y335200D01*
G01X437850Y372500D02*
X439100D01*
X448750Y362850D01*
G01X453100Y141079D02*
Y152000D01*
G01X459500Y141079D02*
X453100D01*
G01D02*
Y131236D01*
X459500D01*
G01X453100Y152000D02*
Y161750D01*
X453350Y162000D01*
G01D02*
X454586Y160764D01*
X459500D01*
G01X453100Y152000D02*
X454179Y150921D01*
X459500D01*
G01X461900Y175000D02*
X457600D01*
G01X461900Y169000D02*
X459200D01*
G01X453050Y270600D02*
X452366Y269916D01*
X450072Y268800D01*
X448100D01*
G01X450000Y294650D02*
X461850D01*
X462650Y293850D01*
G01X452150Y320000D02*
Y327050D01*
X451800Y327400D01*
G01X452150Y337500D02*
Y327750D01*
X451800Y327400D01*
G01X455000Y352150D02*
X461650D01*
G01X455000Y362850D02*
X448750D01*
G01X468100Y169000D02*
X470800D01*
G01X462640Y200700D02*
Y195740D01*
X461500Y194600D01*
G01X462650Y286600D02*
Y293850D01*
G01X464400Y303800D02*
X467800Y307200D01*
Y319000D01*
G01X477500Y319650D02*
X470350D01*
G01X480560Y223300D02*
X481800D01*
X485600Y227100D01*
G01X484000Y230500D02*
X487100D01*
X489400Y232800D01*
G01X484300Y234800D02*
X487700D01*
G01X482800Y262300D02*
X481100D01*
X477800Y259000D01*
G01X488900Y256100D02*
X494500D01*
G01X513800Y265000D02*
X509300D01*
G01X512300Y290600D02*
X532500D01*
X533100Y290000D01*
G01X524100Y141079D02*
Y131236D01*
G01X528400Y141000D02*
X528321Y141079D01*
X524100D01*
G01X528400Y151000D02*
Y141000D01*
G01Y151000D02*
Y156464D01*
X524100Y160764D01*
G01X528400Y151000D02*
X528321Y150921D01*
X524100D01*
G01X519800Y182900D02*
X517100Y180000D01*
G01X531425Y213126D02*
X529809Y211510D01*
G01X531425Y203677D02*
X529809Y202061D01*
G01X531425Y200528D02*
X529809Y198912D01*
G01X531425Y206827D02*
X529809Y205211D01*
G01X531425Y209976D02*
X529809Y208360D01*
G01X531425Y228874D02*
X529809Y230490D01*
G01X531425Y216276D02*
X529809Y214660D01*
G01X531425Y225724D02*
X529809Y227340D01*
G01X531425Y238323D02*
X529809Y239939D01*
G01X531425Y232024D02*
X529809Y233640D01*
G01X531425Y235173D02*
X529809Y236789D01*
G01X531425Y241472D02*
X529809Y243088D01*
G01X525900Y265000D02*
Y260600D01*
G01X531900Y250600D02*
X527800D01*
G01X521400Y299350D02*
X529150D01*
G01X539400Y95000D02*
Y88400D01*
X543300Y84500D01*
G01X534575Y213126D02*
X536191Y211510D01*
G01X534575Y203677D02*
X536191Y202061D01*
G01X534575Y200528D02*
X536191Y198912D01*
G01X534575Y206827D02*
X536191Y205211D01*
G01X534575Y209976D02*
X536191Y208360D01*
G01X534575Y228874D02*
X536191Y230490D01*
G01X534575Y216276D02*
X536191Y214660D01*
G01X534575Y225724D02*
X536191Y227340D01*
G01X534575Y238323D02*
X536191Y239939D01*
G01X534575Y232024D02*
X536191Y233640D01*
G01X534575Y235173D02*
X536191Y236789D01*
G01X534575Y241472D02*
X536191Y243088D01*
G01X538100Y250600D02*
X542100D01*
G01X550000Y255600D02*
X541850D01*
X541700Y255750D01*
G01X544400Y295000D02*
X539900D01*
G01X563590Y190925D02*
X557065D01*
G01X563590Y181475D02*
X557065D01*
G01X563590Y209825D02*
X557065D01*
G01X563590Y200375D02*
X557065D01*
G01X563590Y228725D02*
X557065D01*
G01X563590Y219275D02*
X557065D01*
G01X548500Y235900D02*
Y231400D01*
G01Y242100D02*
Y247000D01*
G01X554100Y255600D02*
X550000D01*
G01X586150Y134225D02*
X592675D01*
G01X597500Y148100D02*
Y150900D01*
G01X586150Y181475D02*
X592675D01*
G01X586150Y190925D02*
X592675D01*
G01X586150Y200375D02*
X592675D01*
G01X586150Y209825D02*
X592675D01*
G01X586150Y219275D02*
X592675D01*
G01X586150Y228725D02*
X592675D01*
G01X612850Y117500D02*
Y123950D01*
G01X605600Y267500D02*
Y274050D01*
X602500Y277150D01*
G01D02*
X604250D01*
X608800Y281700D01*
G01X605600Y297500D02*
Y302300D01*
G01X609500Y315600D02*
Y318400D01*
G01X614400Y355500D02*
X610800D01*
G01X636800Y204700D02*
X635466D01*
X634688Y205478D01*
Y206382D01*
X633400Y207670D01*
Y207900D01*
G01X631894Y264630D02*
Y269094D01*
G01X625941Y276488D02*
X630612D01*
G01X625941Y270583D02*
Y270259D01*
X627900Y268300D01*
G01X625941Y300110D02*
X630790D01*
G01X625941Y302079D02*
X621679D01*
G01X625941Y339480D02*
X629880D01*
G01X620600Y355500D02*
X624100D01*
G01X650500Y24500D02*
X662900Y36900D01*
Y41000D01*
G01X645129Y194860D02*
X650060D01*
X652200Y197000D01*
G01X638400Y207900D02*
Y211000D01*
G01X636271Y202340D02*
Y204171D01*
X636800Y204700D01*
G01X645600Y254500D02*
Y257900D01*
G01X639400Y254500D02*
Y257800D01*
G01X643705Y264630D02*
Y269495D01*
G01X639768Y349370D02*
Y343668D01*
X638400Y342300D01*
G01X656000Y181700D02*
X660861D01*
X662461Y183300D01*
G01Y200300D02*
Y195639D01*
X666300Y191800D01*
G01X656000Y187900D02*
X662400D01*
X666300Y191800D01*
G01X657100Y208100D02*
Y204100D01*
G01D02*
X660900Y200300D01*
X662461D01*
G01X669300Y214300D02*
Y217050D01*
G01X663390Y264630D02*
Y260390D01*
X662100Y259100D01*
G01X661421Y264630D02*
Y268221D01*
X663200Y270000D01*
G01X657484Y349370D02*
X657500Y349386D01*
Y354300D01*
G01X665600Y359000D02*
X668800D01*
G01X659400D02*
X656600D01*
G01X673232Y264630D02*
Y260232D01*
G01X683100Y255000D02*
Y258000D01*
G01X676900Y255000D02*
Y258500D01*
G01X687059Y280425D02*
X691475D01*
G01X687059Y294205D02*
X691805D01*
G01X687059Y292236D02*
X682564D01*
X681100Y293700D01*
G01X687059Y306016D02*
X692084D01*
G01X687059Y319795D02*
X691895D01*
G01X687059Y341449D02*
X697951D01*
X699950Y339450D01*
G01X675201Y349370D02*
Y343601D01*
G01X691400Y254000D02*
Y254608D01*
X692892Y256100D01*
X693200D01*
X694100Y257000D01*
G01X691400Y260000D02*
X692600Y261200D01*
Y261808D01*
X692892Y262100D01*
X693600D01*
X694300Y262800D01*
G01X703900Y252000D02*
Y253300D01*
X706100Y255500D01*
G01X706850Y266900D02*
X701100D01*
G01X702000Y310900D02*
X696900D01*
X692300Y315500D01*
G01X702000Y330100D02*
Y330200D01*
X710050Y338250D01*
G01X700000Y358400D02*
Y353000D01*
X701000Y352000D01*
G01X698500Y346500D02*
X701500D01*
G01X689000Y347400D02*
X689900Y346500D01*
X693500D01*
G01D02*
X693000Y347000D01*
Y352000D01*
G01X688400Y375500D02*
Y372000D01*
G01X706100Y276500D02*
Y277600D01*
X710000Y281500D01*
G01X722400Y274000D02*
X717400D01*
X716600Y273200D01*
G01X706500Y348000D02*
Y341800D01*
X710050Y338250D01*
G01X727150Y259100D02*
Y255050D01*
G01Y261700D02*
Y259100D01*
G01X728600Y274000D02*
X728150Y273550D01*
Y271882D01*
X727150Y270882D01*
Y266900D01*
G54D17*
X73820Y96490D03*
Y98850D03*
Y101210D03*
Y103580D03*
Y105940D03*
Y108300D03*
Y110660D03*
Y113020D03*
Y115390D03*
Y117750D03*
Y120110D03*
Y122470D03*
Y124830D03*
Y127200D03*
Y129560D03*
Y131920D03*
Y134280D03*
Y136650D03*
Y139010D03*
Y141370D03*
Y143730D03*
Y146090D03*
Y148460D03*
Y150820D03*
Y153180D03*
Y155540D03*
Y157910D03*
Y160270D03*
Y162630D03*
Y164990D03*
Y167350D03*
Y169720D03*
Y172080D03*
Y174440D03*
Y176800D03*
Y179170D03*
Y181530D03*
Y183890D03*
Y186250D03*
Y188610D03*
Y190980D03*
Y193340D03*
Y195700D03*
Y198060D03*
Y200430D03*
Y202790D03*
Y205150D03*
Y207510D03*
Y209870D03*
Y212240D03*
Y214600D03*
Y216960D03*
Y219320D03*
Y221690D03*
Y224050D03*
Y226410D03*
Y228770D03*
Y231130D03*
Y233500D03*
Y235860D03*
Y238220D03*
Y240580D03*
Y242950D03*
Y245310D03*
Y247670D03*
Y250030D03*
Y252390D03*
Y254760D03*
Y257120D03*
Y259480D03*
Y261840D03*
Y264210D03*
Y266570D03*
Y268930D03*
Y271290D03*
Y273650D03*
Y276020D03*
Y278380D03*
Y280740D03*
Y283100D03*
Y299640D03*
Y302000D03*
Y304360D03*
Y306720D03*
Y309090D03*
Y311450D03*
Y313810D03*
Y316170D03*
Y318540D03*
Y320900D03*
Y323260D03*
Y325620D03*
Y327980D03*
Y330350D03*
Y332710D03*
Y335070D03*
Y337430D03*
Y339800D03*
Y342160D03*
Y344520D03*
X106100Y97670D03*
Y100030D03*
Y102390D03*
Y104760D03*
Y107120D03*
Y109480D03*
Y111840D03*
Y114200D03*
Y116570D03*
Y118930D03*
Y121290D03*
Y123650D03*
Y126010D03*
Y128380D03*
Y130740D03*
Y133100D03*
Y135460D03*
Y137830D03*
Y140190D03*
Y142550D03*
Y144910D03*
Y147270D03*
Y149640D03*
Y152000D03*
Y154360D03*
Y156720D03*
Y159090D03*
Y161450D03*
Y163810D03*
Y166170D03*
Y168530D03*
Y170900D03*
Y173260D03*
Y175620D03*
Y177980D03*
Y180350D03*
Y182710D03*
Y185070D03*
Y187430D03*
Y189790D03*
Y192160D03*
Y194520D03*
Y196880D03*
Y199240D03*
Y201610D03*
Y203970D03*
Y206330D03*
Y208690D03*
Y211050D03*
Y213420D03*
Y215780D03*
Y218140D03*
Y220500D03*
Y222870D03*
Y225230D03*
Y227590D03*
Y229950D03*
Y232310D03*
Y234680D03*
Y237040D03*
Y239400D03*
Y241760D03*
Y244130D03*
Y246490D03*
Y248850D03*
Y251210D03*
Y253570D03*
Y255940D03*
Y258300D03*
Y260660D03*
Y263020D03*
Y265390D03*
Y267750D03*
Y270110D03*
Y272470D03*
Y274830D03*
Y277200D03*
Y279560D03*
Y281920D03*
Y284280D03*
Y300820D03*
Y303180D03*
Y305540D03*
Y307900D03*
Y310270D03*
Y312630D03*
Y314990D03*
Y317350D03*
Y319720D03*
Y322080D03*
Y324440D03*
Y326800D03*
Y329160D03*
Y331530D03*
Y333890D03*
Y336250D03*
Y338610D03*
Y340980D03*
Y343340D03*
Y345700D03*
G54D26*
X183000Y28500D03*
X333000D03*
X384000Y28000D03*
X534000D03*
G54D35*
X332200Y89500D03*
X344200D03*
G54D53*
X706850Y259100D03*
Y261700D03*
Y264300D03*
Y266900D03*
X727150Y259100D03*
Y261700D03*
Y264300D03*
Y266900D03*
G54D44*
X636271Y194860D03*
Y202340D03*
X645129Y194860D03*
Y202340D03*
Y198600D03*
G54D63*
G01X331100Y81600D02*
Y72900D01*
X332300Y71700D01*
G01X332200Y89500D02*
Y82700D01*
X331100Y81600D01*
G01X397727Y24227D02*
X394550Y27404D01*
Y32370D01*
X388370Y38550D01*
X383404D01*
X363754Y58200D01*
X360900D01*
G01X397727Y19227D02*
Y24227D01*
G01X517727Y39227D02*
Y34227D01*
G01X559400Y44100D02*
X522600D01*
X517727Y39227D01*
G54D18*
G01X534217Y82500D02*
Y88800D01*
X532337D01*
X531710Y88485D01*
X531240Y87750D01*
X531083Y86910D01*
X531240Y86070D01*
X531632Y85440D01*
X532337Y85125D01*
X534217D01*
G01X528700Y88800D02*
X527603Y82500D01*
X526350Y88800D01*
X525097Y82500D01*
X524000Y88800D01*
G01X519423Y85860D02*
X519110Y86175D01*
X518875Y86700D01*
X518718Y87435D01*
X518875Y88065D01*
X519188Y88485D01*
X519737Y88800D01*
X521852D01*
Y82500D01*
X519267D01*
X518718Y82920D01*
X518405Y83550D01*
X518248Y84285D01*
X518405Y85020D01*
X518875Y85650D01*
X519423Y85860D01*
X521852D01*
G01X508938Y87750D02*
X508468Y88380D01*
X507920Y88695D01*
X507293Y88800D01*
X506510Y88590D01*
X505962Y88065D01*
X505805Y87435D01*
X505883Y86805D01*
X506197Y86280D01*
X507763Y85230D01*
X508468Y84495D01*
X508938Y83445D01*
X509095Y82500D01*
X505805D01*
G01X502873Y83445D02*
X502403Y82920D01*
X501855Y82605D01*
X501150Y82500D01*
X500445Y82710D01*
X499897Y83130D01*
X499505Y83865D01*
X499427Y84705D01*
X499583Y85545D01*
X499975Y86070D01*
X500523Y86490D01*
X501072Y86595D01*
X501620Y86490D01*
X502325Y86070D01*
X502090Y88800D01*
X499975D01*
G01X494850Y82500D02*
Y88800D01*
X495790Y87540D01*
G01Y82500D02*
X493910D01*
G01X488550Y88800D02*
X489177Y88590D01*
X489647Y88065D01*
X489960Y87435D01*
X490195Y86595D01*
X490273Y85650D01*
X490195Y84705D01*
X489960Y83865D01*
X489647Y83235D01*
X489177Y82710D01*
X488550Y82500D01*
X487923Y82710D01*
X487453Y83235D01*
X487140Y83865D01*
X486905Y84705D01*
X486827Y85650D01*
X486905Y86595D01*
X487140Y87435D01*
X487453Y88065D01*
X487923Y88590D01*
X488550Y88800D01*
G01X483973Y83760D02*
X483503Y83025D01*
X482877Y82605D01*
X482172Y82500D01*
X481545Y82605D01*
X480918Y83130D01*
X480527Y83760D01*
X480448Y84390D01*
X480605Y85125D01*
X481153Y85650D01*
X481702Y85860D01*
X482407D01*
G01X481702D02*
X481232Y86175D01*
X480840Y86700D01*
X480683Y87330D01*
X480840Y87960D01*
X481232Y88485D01*
X481937Y88800D01*
X482642Y88695D01*
X483347Y88275D01*
G01X475950Y88800D02*
X476577Y88590D01*
X477047Y88065D01*
X477360Y87435D01*
X477595Y86595D01*
X477673Y85650D01*
X477595Y84705D01*
X477360Y83865D01*
X477047Y83235D01*
X476577Y82710D01*
X475950Y82500D01*
X475323Y82710D01*
X474853Y83235D01*
X474540Y83865D01*
X474305Y84705D01*
X474227Y85650D01*
X474305Y86595D01*
X474540Y87435D01*
X474853Y88065D01*
X475323Y88590D01*
X475950Y88800D01*
G01X469650D02*
X470277Y88590D01*
X470747Y88065D01*
X471060Y87435D01*
X471295Y86595D01*
X471373Y85650D01*
X471295Y84705D01*
X471060Y83865D01*
X470747Y83235D01*
X470277Y82710D01*
X469650Y82500D01*
X469023Y82710D01*
X468553Y83235D01*
X468240Y83865D01*
X468005Y84705D01*
X467927Y85650D01*
X468005Y86595D01*
X468240Y87435D01*
X468553Y88065D01*
X469023Y88590D01*
X469650Y88800D01*
G01X458617Y82500D02*
Y88800D01*
X456658D01*
X456032Y88485D01*
X455640Y88065D01*
X455483Y87225D01*
X455640Y86385D01*
X456110Y85860D01*
X456658Y85545D01*
X458617D01*
G01X456658D02*
X455483Y82500D01*
G01X449183D02*
X452317D01*
Y88800D01*
X449183D01*
G01X450437Y85755D02*
X452317D01*
G01X446408Y88800D02*
X444450Y82500D01*
X442492Y88800D01*
G01X433573Y82500D02*
Y88800D01*
X432007D01*
X431380Y88485D01*
X430910Y88065D01*
X430518Y87435D01*
X430205Y86700D01*
X430127Y85650D01*
X430205Y84600D01*
X430518Y83865D01*
X430910Y83235D01*
X431380Y82815D01*
X432007Y82500D01*
X433573D01*
X89960Y90190D03*
Y353180D03*
X131370Y85150D03*
Y321900D03*
X564370Y85150D03*
Y321900D03*
G54D54*
X701000Y352000D03*
X693000D03*
G54D45*
X631894Y264630D03*
X633862D03*
Y349370D03*
X631894D03*
X635831Y264630D03*
X637799D03*
X639768D03*
X641736D03*
X643705D03*
X645673D03*
X647642D03*
X649610D03*
X651579D03*
Y349370D03*
X649610D03*
X647642D03*
X645673D03*
X643705D03*
X641736D03*
X639768D03*
X637799D03*
X635831D03*
X653547Y264630D03*
X655516D03*
X657484D03*
X659453D03*
X661421D03*
X663390D03*
X665358D03*
X667327D03*
X669295D03*
Y349370D03*
X667327D03*
X665358D03*
X663390D03*
X661421D03*
X659453D03*
X657484D03*
X655516D03*
X653547D03*
X671264Y264630D03*
X673232D03*
X675201D03*
X677169D03*
X679138D03*
X681106D03*
Y349370D03*
X679138D03*
X677169D03*
X675201D03*
X673232D03*
X671264D03*
G54D27*
G01X216000Y178600D02*
X214600Y180000D01*
X207100D01*
G01X230000Y178600D02*
X229800Y178400D01*
X225800D01*
G01X222000Y178600D02*
X222200Y178400D01*
X225800D01*
G01X216000Y178600D02*
X222000D01*
G01X249850Y174900D02*
X250850Y173900D01*
X256800D01*
G01X255000Y-52500D02*
X490000D01*
Y-135000D01*
X255000D01*
G01Y-52500D02*
Y-135000D01*
G01X490000Y-107500D02*
X255000D01*
G01Y-80000D02*
X490000D01*
G01X263100Y132200D02*
X265900Y135000D01*
Y136500D01*
G01X261900Y140600D02*
X265900Y136500D01*
G01X256800Y173900D02*
Y171600D01*
X259600Y168800D01*
Y157700D01*
G01X335000Y-80000D02*
Y-107500D01*
G01X405000D02*
Y-135000D01*
G01X503600Y107650D02*
X503250Y108000D01*
X493000D01*
G01X486000Y184100D02*
Y189000D01*
X486100Y189100D01*
G01X501100Y173500D02*
Y167884D01*
X500858Y167642D01*
G01X496000Y188600D02*
Y192000D01*
G01X541900Y147500D02*
Y143900D01*
X539000Y141000D01*
X534600D01*
G01X541900Y147500D02*
Y150500D01*
G01X534600Y151000D02*
X535100Y150500D01*
X541900D01*
G01X680300Y11800D02*
X684800D01*
X686000Y13000D01*
G01X677500Y188100D02*
Y192000D01*
X178800Y109200D03*
X175600Y109600D03*
X182000Y109000D03*
X191000D03*
X196000Y106000D03*
X185200Y109200D03*
X188000Y109000D03*
X200000Y108000D03*
X282000Y109000D03*
Y106000D03*
X274000Y108000D03*
X271000D03*
Y105000D03*
X285000Y110000D03*
X287000Y108000D03*
X296000D03*
X436000Y106000D03*
X437000Y103000D03*
X434000Y108000D03*
X432000Y110000D03*
X431000Y120000D03*
X430000Y113000D03*
X448100Y108000D03*
X452100Y107800D03*
X525000Y113000D03*
X528000D03*
X544000D03*
X547200Y112200D03*
X531200Y113200D03*
X534000Y113000D03*
X540800Y113200D03*
X537000Y113000D03*
G54D36*
X327532Y152168D03*
X331068Y148632D03*
G54D64*
G01X130590Y149975D02*
X124575D01*
G01X171900Y100000D02*
X163550D01*
X160825Y102725D01*
G01X192100Y158000D02*
Y164000D01*
G01D02*
X194500D01*
X197736Y160764D01*
X200500D01*
G01X191100Y184000D02*
Y175250D01*
X192350Y174000D01*
G01D02*
Y164250D01*
X192100Y164000D01*
G01X207100Y169000D02*
Y128700D01*
X214200Y121600D01*
X230600D01*
X233984Y124984D01*
G01X200500Y150921D02*
X203000Y148421D01*
Y143579D01*
X200500Y141079D01*
G01Y131236D02*
Y141079D01*
G01Y150921D02*
Y160764D01*
G01X207100Y169000D02*
X212600D01*
X216000Y172400D01*
G01X222000D02*
X216000D01*
G01X230000D02*
X222000D01*
G01X239150Y174900D02*
Y172400D01*
X230000D01*
G01X241000Y129000D02*
Y123500D01*
X246950Y117550D01*
X258550D01*
G01X239150Y174900D02*
Y179000D01*
X233984D01*
G01X486000Y177900D02*
X483100Y175000D01*
X468100D01*
G01X493000Y114400D02*
Y108000D01*
G01Y120600D02*
Y125000D01*
X492984Y125016D01*
G01X503600Y118350D02*
X501350Y120600D01*
X493000D01*
G01X495000Y178000D02*
X494900Y177900D01*
X486000D01*
G01X494900Y173500D02*
X495000Y173600D01*
Y178000D01*
G01X502000Y188600D02*
X503500Y190100D01*
X517100D01*
G01X524000Y164400D02*
Y160764D01*
X524100D01*
G01X524000Y170600D02*
Y170000D01*
X528900D01*
G01X517100Y186000D02*
Y190100D01*
G01X592150Y37000D02*
X589700D01*
X585500Y32800D01*
G01X674100Y11800D02*
Y18300D01*
X674200Y18400D01*
G01X706500Y353000D02*
X702000D01*
X701000Y352000D01*
G01X703500Y370500D02*
Y368000D01*
G01Y375500D02*
X699200D01*
G01X703500D02*
X707500D01*
X708630Y374370D01*
X716736D01*
G01X706500Y353000D02*
X709500D01*
G54D28*
X167150Y125000D03*
X177850D03*
X181650Y174000D03*
X192350D03*
X230650Y379700D03*
X219950D03*
X239150Y174900D03*
X249850D03*
X269650Y375000D03*
X287650Y214000D03*
X280350Y375000D03*
X298350Y214000D03*
X320350Y93000D03*
X309650D03*
X349650Y372500D03*
X374650Y94000D03*
X360350Y372500D03*
X385350Y94000D03*
X392150Y372500D03*
X402850D03*
X427150D03*
X442650Y162000D03*
X437850Y372500D03*
X453350Y162000D03*
X463750Y270600D03*
X453050D03*
X462650Y286600D03*
X462850Y320000D03*
X452150D03*
X462850Y337500D03*
X452150D03*
X473350Y286600D03*
X602150Y117500D03*
X612850D03*
G54D37*
X326732Y175532D03*
X330268Y179068D03*
G54D19*
X103500Y33400D03*
X101300Y28200D03*
X105700D03*
X700000Y363600D03*
X696000D03*
Y358400D03*
X698000D03*
X700000D03*
G54D46*
X625941Y284362D03*
Y282394D03*
Y280425D03*
Y278457D03*
Y276488D03*
Y274520D03*
Y272551D03*
Y270583D03*
Y300110D03*
Y298142D03*
Y296173D03*
Y294205D03*
Y292236D03*
Y290268D03*
Y288299D03*
Y286331D03*
Y317827D03*
Y315858D03*
Y313890D03*
Y311921D03*
Y309953D03*
Y307984D03*
Y306016D03*
Y304047D03*
Y302079D03*
Y335543D03*
Y333575D03*
Y331606D03*
Y329638D03*
Y327669D03*
Y325701D03*
Y323732D03*
Y321764D03*
Y319795D03*
Y343417D03*
Y341449D03*
Y339480D03*
Y337512D03*
X687059Y270583D03*
Y272551D03*
Y274520D03*
Y276488D03*
Y278457D03*
Y280425D03*
Y282394D03*
Y284362D03*
Y286331D03*
Y288299D03*
Y290268D03*
Y292236D03*
Y294205D03*
Y296173D03*
Y298142D03*
Y300110D03*
Y302079D03*
Y304047D03*
Y306016D03*
Y307984D03*
Y309953D03*
Y311921D03*
Y313890D03*
Y315858D03*
Y317827D03*
Y319795D03*
Y321764D03*
Y323732D03*
Y325701D03*
Y327669D03*
Y329638D03*
Y331606D03*
Y333575D03*
Y335543D03*
Y337512D03*
Y339480D03*
Y341449D03*
Y343417D03*
G54D55*
X718248Y132500D03*
G54D65*
G01X50600Y229100D02*
X48900Y230800D01*
X48710D01*
X48300Y231210D01*
Y233390D01*
X49370Y234460D01*
X72860D01*
X73820Y233500D01*
G01X79170Y231130D02*
X78210Y230170D01*
X69580D01*
X68310Y228900D01*
X65200D01*
X62610Y226310D01*
X59890D01*
X53900Y232300D01*
X50600D01*
G01X73820Y231130D02*
X79170D01*
G01X73820Y233500D02*
X79200D01*
X79800Y234100D01*
G01X73820Y273650D02*
X78650D01*
X79400Y274400D01*
G01X106100Y100030D02*
X99970D01*
G01X130590Y96425D02*
X124065D01*
G01X130590Y99575D02*
X124065D01*
G01X130590Y105875D02*
X124065D01*
G01X130590Y118475D02*
X124065D01*
G01X130590Y109025D02*
X124065D01*
G01X130590Y124775D02*
X124065D01*
G01X130590Y115325D02*
X124065D01*
G01X130590Y134225D02*
X124065D01*
G01X130590Y137375D02*
X124065D01*
G01X130590Y127925D02*
X124065D01*
G01X130590Y156275D02*
X124065D01*
G01X130590Y143675D02*
X124065D01*
G01X130590Y153125D02*
X124065D01*
G01X130590Y146825D02*
X124065D01*
G01X130590Y175175D02*
X124065D01*
G01X130590Y178325D02*
X124065D01*
G01X130590Y194075D02*
X124065D01*
G01X130590Y187775D02*
X124065D01*
G01X130590Y184625D02*
X124065D01*
G01X130590Y197225D02*
X124065D01*
G01X130590Y203525D02*
X124065D01*
G01X130590Y206675D02*
X124065D01*
G01X130590Y212975D02*
X124065D01*
G01X130590Y216125D02*
X124065D01*
G01X130590Y225575D02*
X124065D01*
G01X130590Y222425D02*
X124065D01*
G01X130590Y231875D02*
X124065D01*
G01X130590Y235025D02*
X124065D01*
G01X130590Y266525D02*
X124065D01*
G01X130590Y253925D02*
X124065D01*
G01X130590Y257075D02*
X124065D01*
G01X130590Y263375D02*
X124065D01*
G01X130590Y282275D02*
X124065D01*
G01X130590Y272825D02*
X124065D01*
G01X130590Y275975D02*
X124065D01*
G01X130590Y301175D02*
X124065D01*
G01X130590Y294875D02*
X124065D01*
G01X130590Y291725D02*
X124065D01*
G01X130590Y285425D02*
X124065D01*
G01X130590Y304325D02*
X124065D01*
G01X130590Y310625D02*
X124065D01*
G01X130590Y313775D02*
X124065D01*
G01X241727Y19727D02*
X239777Y17777D01*
X177823D01*
X155100Y40500D01*
G01X153150Y105875D02*
X159675D01*
G01X153150Y99575D02*
X159675D01*
G01X153150Y118475D02*
X159675D01*
G01X153150Y124775D02*
X159675D01*
G01X153150Y109025D02*
X159675D01*
G01X153150Y115325D02*
X159675D01*
G01X153150Y134225D02*
X159675D01*
G01X153150Y127925D02*
X159675D01*
G01X153150Y137375D02*
X159675D01*
G01X153150Y156275D02*
X159675D01*
G01X153150Y143675D02*
X159675D01*
G01X153150Y146825D02*
X159675D01*
G01X153150Y153125D02*
X159675D01*
G01X153150Y175175D02*
X159675D01*
G01X153150Y178325D02*
X159675D01*
G01X153150Y184625D02*
X159675D01*
G01X153150Y187775D02*
X159675D01*
G01X153150Y194075D02*
X159675D01*
G01X153150Y212975D02*
X159675D01*
G01X153150Y197225D02*
X159675D01*
G01X153150Y203525D02*
X159675D01*
G01X153150Y206675D02*
X159675D01*
G01X153150Y225575D02*
X159675D01*
G01X153150Y216125D02*
X159675D01*
G01X153150Y222425D02*
X159675D01*
G01X153150Y235025D02*
X159675D01*
G01X153150Y231875D02*
X159675D01*
G01X153150Y263375D02*
X159675D01*
G01X153150Y253925D02*
X159675D01*
G01X153150Y266525D02*
X159675D01*
G01X153150Y257075D02*
X159675D01*
G01X153150Y275975D02*
X159675D01*
G01X153150Y282275D02*
X159675D01*
G01X153150Y272825D02*
X159675D01*
G01X153150Y294875D02*
X159675D01*
G01X153150Y301175D02*
X159675D01*
G01X153150Y291725D02*
X159675D01*
G01X153150Y285425D02*
X159675D01*
G01X153150Y304325D02*
X159675D01*
G01X153150Y313775D02*
X160225D01*
G01X153150Y310625D02*
X159675D01*
G01X233100Y371600D02*
X232333D01*
X229783Y369050D01*
X219150D01*
X213611Y374589D01*
X205983D01*
X190464Y359070D01*
Y286644D01*
X216500Y260608D01*
Y252700D01*
X223200Y246000D01*
X277206D01*
X280539Y249333D01*
Y265761D01*
X275900Y270400D01*
G01X209000Y371600D02*
X192511Y355111D01*
Y342381D01*
X193443Y341449D01*
Y311451D01*
X239404Y265490D01*
X253618D01*
X253908Y265200D01*
X270500D01*
G01X339005Y279241D02*
X337174D01*
X335684Y277751D01*
X331596D01*
X329730Y275885D01*
Y275862D01*
X326635Y272767D01*
X326613D01*
X325793Y271947D01*
Y271796D01*
X322916Y268919D01*
X322637D01*
X321765Y268047D01*
Y267769D01*
X318888Y264892D01*
X318738D01*
X317918Y264072D01*
Y264049D01*
X314915Y261046D01*
X314764D01*
X313892Y260174D01*
Y260023D01*
X310887Y257018D01*
X310864D01*
X310044Y256198D01*
Y256047D01*
X307168Y253171D01*
X306889D01*
X306017Y252299D01*
Y252148D01*
X303013Y249144D01*
X302990D01*
X302170Y248324D01*
Y248172D01*
X299296Y245298D01*
X299016D01*
X298144Y244426D01*
Y244148D01*
X295356Y241360D01*
X295078D01*
X294206Y240488D01*
Y240209D01*
X291421Y237424D01*
X291141D01*
X289027Y235310D01*
X248110D01*
X239300Y226500D01*
X220692D01*
X216300Y222108D01*
Y216852D01*
X211850Y212402D01*
G01X238800Y273000D02*
X201200Y310600D01*
Y340000D01*
G01X243827Y125873D02*
X248746Y120954D01*
X267654D01*
X277600Y130900D01*
Y165539D01*
X295271Y183210D01*
X299710D01*
X301200Y184700D01*
X312174D01*
X314582Y187108D01*
G01X246300Y126100D02*
X250668Y121732D01*
X266933D01*
X273966Y128765D01*
Y163774D01*
X296382Y186190D01*
X305518D01*
X306090Y185618D01*
X311134D01*
X312044Y186528D01*
Y186678D01*
X314582Y189216D01*
Y191044D01*
G01X247500Y341100D02*
X234859Y328459D01*
Y288033D01*
X241489Y281403D01*
Y273489D01*
X241000Y273000D01*
G01X241984Y285984D02*
Y289516D01*
X236411Y295089D01*
Y326111D01*
X249768Y339468D01*
Y355707D01*
X257761Y363700D01*
X321700D01*
X329189Y371189D01*
X333017D01*
X336555Y367651D01*
Y337699D01*
X335066Y336210D01*
Y334382D01*
G01X378396D02*
X376907Y332893D01*
X362031D01*
X358800Y336124D01*
Y359999D01*
X352599Y366200D01*
X343694D01*
X340100Y369794D01*
Y370006D01*
X329656Y380450D01*
X266210D01*
X248990Y363230D01*
Y339791D01*
X235635Y326436D01*
Y293114D01*
X240016Y288733D01*
Y284984D01*
G01X251100Y125600D02*
X266200D01*
X271100Y130500D01*
Y164912D01*
X277699Y171511D01*
Y181931D01*
X286812Y191044D01*
X306708D01*
G01X249200Y126700D02*
X249610Y126290D01*
Y124982D01*
X252082Y122510D01*
X265310D01*
X272500Y129700D01*
Y163409D01*
X298291Y189200D01*
X308800D01*
X310644Y191044D01*
G01X346878Y255618D02*
X345063Y257433D01*
Y271353D01*
X342602Y273814D01*
X342323D01*
X341451Y274686D01*
Y278903D01*
X339054Y281300D01*
X315281D01*
X313900Y282681D01*
Y282704D01*
X311935Y284669D01*
X302953D01*
X301124Y282840D01*
Y282560D01*
X300252Y281688D01*
X299973D01*
X298144Y279859D01*
Y271706D01*
X296314Y269876D01*
X278532D01*
X276208Y272200D01*
X270960D01*
X260700Y282460D01*
Y325400D01*
X255600Y330500D01*
G01X285600Y312500D02*
X285100D01*
Y313183D01*
X278083Y320200D01*
X265560D01*
X264550Y321210D01*
Y332350D01*
X263400Y333500D01*
G01X354752Y287115D02*
X354625D01*
X353040Y288700D01*
X352187Y289552D01*
X346272D01*
X345378Y290446D01*
Y290721D01*
X338651Y297448D01*
X338398D01*
X337504Y298342D01*
Y298616D01*
X334735Y301385D01*
X334460D01*
X333566Y302279D01*
Y302556D01*
X330800Y305322D01*
X330524D01*
X329630Y306216D01*
Y306490D01*
X326861Y309259D01*
X326588D01*
X325600Y310247D01*
Y310522D01*
X322926Y313196D01*
X322650D01*
X321766Y314080D01*
Y314355D01*
X318977Y317144D01*
X318703D01*
X317828Y318019D01*
Y318294D01*
X315042Y321080D01*
X314766D01*
X312935Y322911D01*
Y323187D01*
X311104Y325018D01*
X310829D01*
X309954Y325893D01*
Y326168D01*
X307168Y328954D01*
X306893D01*
X305070Y330777D01*
Y331052D01*
X304178Y331944D01*
X303903D01*
X301134Y334713D01*
Y334988D01*
X299294Y336828D01*
X299018D01*
X297900Y337946D01*
Y338220D01*
X296312Y339808D01*
X296038D01*
X294000Y341846D01*
Y342121D01*
X292365Y343756D01*
X291844D01*
X290111Y345489D01*
X278289D01*
X275800Y343000D01*
X255500D01*
G01Y355500D02*
X261700Y361700D01*
X285400D01*
X291534Y355566D01*
X296302D01*
X298144Y353724D01*
Y349514D01*
X299018Y348640D01*
X303230D01*
X305400Y346470D01*
Y342258D01*
X306892Y340766D01*
X311104D01*
X313300Y338570D01*
Y334358D01*
X314766Y332892D01*
X318977D01*
X321500Y330369D01*
Y326156D01*
X323256Y324400D01*
X327468D01*
X328682Y323186D01*
Y318976D01*
X331158Y316500D01*
X335368D01*
X336556Y315312D01*
Y310704D01*
X338948Y308312D01*
X339620D01*
X340494Y307438D01*
Y307163D01*
X342335Y305322D01*
X342610D01*
X345378Y302554D01*
Y302279D01*
X346272Y301385D01*
X347355D01*
X348500Y300240D01*
Y298760D01*
X349960Y297300D01*
X352462D01*
X362648Y287115D01*
G01X283600Y272200D02*
X289151Y277751D01*
X292377D01*
X293249Y278623D01*
Y279859D01*
X292377Y280731D01*
X292098D01*
X287710Y285119D01*
Y288518D01*
X288582Y289390D01*
X292205D01*
X293249Y290434D01*
Y293941D01*
X285600Y301590D01*
Y305000D01*
G01X322456Y163485D02*
X319971Y161000D01*
X306180D01*
X304280Y159100D01*
X301000D01*
G01Y165900D02*
X312460D01*
X312560Y165800D01*
X315640D01*
X317028Y167188D01*
Y168668D01*
X317560Y169200D01*
X323640D01*
X324300Y168540D01*
Y165577D01*
X326392Y163485D01*
G01X316100Y213000D02*
Y209210D01*
X318518Y206792D01*
G01X323900Y213000D02*
Y208236D01*
X322456Y206792D01*
G01X332400Y369700D02*
Y362792D01*
X332900Y362292D01*
Y326567D01*
X334667Y324800D01*
X334944D01*
X337500Y322244D01*
Y318030D01*
X338386Y317144D01*
X340256D01*
X342704Y314696D01*
X342941D01*
G01X346878Y255618D02*
X349316Y258056D01*
X351421D01*
X352315Y258950D01*
Y259225D01*
X354135Y261045D01*
X440533D01*
X440968Y260610D01*
X461890D01*
X486200Y236300D01*
X488306D01*
X490889Y233717D01*
Y232183D01*
X490006Y231300D01*
X489447D01*
X488462Y230315D01*
Y222782D01*
X489494Y221750D01*
X503156D01*
X504050Y220856D01*
Y219793D01*
X508393Y215450D01*
X509455D01*
X510349Y214556D01*
Y206817D01*
X526966Y190200D01*
X527739D01*
X551939Y166000D01*
X580500D01*
X586000Y160500D01*
X594500D01*
X600139Y154861D01*
X639862D01*
X656001Y171000D01*
X674499D01*
X675400Y171901D01*
Y175300D01*
G01X493101Y213950D02*
X491611Y215440D01*
X480840D01*
X480410Y215010D01*
X452982D01*
X427860Y240132D01*
Y247633D01*
X425302Y250191D01*
X346261D01*
X344431Y252021D01*
Y252300D01*
X343559Y253172D01*
X343279D01*
X340800Y255651D01*
Y273200D01*
X339005Y274995D01*
Y275305D01*
G01X441900Y339800D02*
X426280D01*
X426272Y339808D01*
X417148D01*
X415320Y337980D01*
Y337700D01*
X413492Y335872D01*
X413212D01*
X411382Y334042D01*
Y333764D01*
X409552Y331934D01*
X409274D01*
X408402Y331062D01*
Y330782D01*
X405618Y327998D01*
X405338D01*
X404466Y327126D01*
Y326848D01*
X401679Y324061D01*
X401400D01*
X400528Y323189D01*
Y315034D01*
X398700Y313206D01*
X397464D01*
X395634Y315036D01*
Y315314D01*
X393814Y317134D01*
X393536D01*
X392700Y317970D01*
Y318249D01*
X390649Y320300D01*
X341700D01*
X339430Y322570D01*
X339004D01*
G01X398082Y318634D02*
Y320448D01*
X396581Y321949D01*
Y345864D01*
X393815Y348630D01*
X393536D01*
X392644Y349522D01*
Y349802D01*
X389880Y352566D01*
X389600D01*
X388708Y353458D01*
Y353736D01*
X385940Y356504D01*
X385662D01*
X384770Y357396D01*
Y357676D01*
X382005Y360441D01*
X381726D01*
X380844Y361323D01*
Y366956D01*
X380000Y367800D01*
G01Y374300D02*
X385060D01*
X388710Y377950D01*
X406290D01*
X412190Y372050D01*
Y362131D01*
X410500Y360441D01*
X410221D01*
X407456Y357676D01*
Y357396D01*
X406564Y356504D01*
X406286D01*
X403518Y353736D01*
Y353458D01*
X402626Y352566D01*
X402346D01*
X399600Y349820D01*
Y316214D01*
X398082Y314696D01*
G01X423900Y195000D02*
Y187900D01*
X413834Y177834D01*
X405715D01*
X403756Y175875D01*
Y171791D01*
X401834Y169869D01*
X399729D01*
X397282Y167422D01*
G01X393344D02*
X394833Y165933D01*
X401708D01*
X403756Y167981D01*
Y168001D01*
X404577Y168822D01*
X404598D01*
X407692Y171916D01*
Y171938D01*
X408513Y172759D01*
X412651D01*
X421892Y182000D01*
X424900D01*
G01X423900Y202000D02*
X421700D01*
X419800Y200100D01*
G01X423900Y209000D02*
X423000D01*
X420200Y206200D01*
G01X470320Y200700D02*
Y196380D01*
X470440Y196500D01*
X500847D01*
X508849Y204502D01*
G01X475440Y200700D02*
X478000D01*
G01X470320D02*
X472880D01*
G01Y223300D02*
X475440D01*
G01D02*
Y231640D01*
G01X467760Y223300D02*
X470320D01*
G01D02*
Y217920D01*
X468900Y216500D01*
G01X465200Y223300D02*
Y231000D01*
X465100Y231100D01*
G01X474900Y234300D02*
X471700Y231100D01*
X465100D01*
G01X478000Y200700D02*
Y204500D01*
X486500Y213000D01*
G01X480560Y200700D02*
Y203960D01*
X487400Y210800D01*
G01X479000Y230500D02*
Y234500D01*
X479300Y234800D01*
G01X478000Y223300D02*
Y229500D01*
X479000Y230500D01*
G01X518500Y243700D02*
X518000D01*
Y241692D01*
X515308Y239000D01*
X512893D01*
X504050Y230157D01*
Y229090D01*
X503009Y228049D01*
X501928D01*
X498778Y224899D01*
X495628D01*
X494128Y223399D01*
X493101D01*
G01X479300Y234800D02*
Y237800D01*
X479100Y238000D01*
G01X492100Y293800D02*
X488717D01*
X486100Y296417D01*
Y296600D01*
X484600Y298100D01*
G01X478500D02*
X478900Y297700D01*
X484200D01*
X484600Y298100D01*
G01Y310700D02*
X485000Y311100D01*
Y315100D01*
X487700Y317800D01*
G01X478500Y310700D02*
X478700Y310900D01*
X484400D01*
X484600Y310700D01*
G01X481800Y304400D02*
X484600D01*
G01X478500D02*
X481800D01*
G01X510900Y180000D02*
X507400D01*
X504800Y177400D01*
G01X510900Y186000D02*
Y180000D01*
G01X496250Y226549D02*
X501490Y231789D01*
Y244698D01*
X513682Y256890D01*
X514932D01*
X515822Y256000D01*
X519900D01*
G01X514100Y247600D02*
Y247300D01*
X514500Y246900D01*
X519900D01*
X520300Y247300D01*
Y248283D01*
X520183Y248400D01*
X520000D01*
X518500Y249900D01*
G01X526100Y256000D02*
X525350D01*
Y255067D01*
X524483Y254200D01*
X522800D01*
X518500Y249900D01*
G01X563590Y96425D02*
X557065D01*
G01X563590Y99575D02*
X557065D01*
G01X563590Y105875D02*
X557065D01*
G01X563590Y124775D02*
X557065D01*
G01X563590Y115325D02*
X557065D01*
G01X563590Y118475D02*
X557065D01*
G01X563590Y109025D02*
X557065D01*
G01X563590Y134225D02*
X557065D01*
G01X563590Y127925D02*
X557065D01*
G01X563590Y137375D02*
X557065D01*
G01X563590Y153125D02*
X557065D01*
G01X563590Y156275D02*
X557065D01*
G01X563590Y146825D02*
X557065D01*
G01X563590Y143675D02*
X557065D01*
G01X563590Y175175D02*
X557065D01*
G01X563590Y178325D02*
X557065D01*
G01X563590Y194075D02*
X557065D01*
G01X563590Y184625D02*
X557065D01*
G01X563590Y187775D02*
X557065D01*
G01X563590Y212975D02*
X557065D01*
G01X563590Y206675D02*
X557065D01*
G01X563590Y197225D02*
X557065D01*
G01X563590Y203525D02*
X557065D01*
G01X563590Y216125D02*
X557065D01*
G01X563590Y225575D02*
X557065D01*
G01X563590Y222425D02*
X557065D01*
G01X563590Y231875D02*
X557065D01*
G01X563590Y235025D02*
X557065D01*
G01X563590Y266525D02*
X557065D01*
G01X563590Y263375D02*
X557065D01*
G01X563590Y257075D02*
X557065D01*
G01X563590Y253925D02*
X557065D01*
G01X563590Y282275D02*
X557065D01*
G01X563590Y275975D02*
X557065D01*
G01X563590Y272825D02*
X557065D01*
G01X563590Y301175D02*
X557065D01*
G01X563590Y294875D02*
X557065D01*
G01X563590Y291725D02*
X557065D01*
G01X563590Y285425D02*
X557065D01*
G01X563590Y304325D02*
X557065D01*
G01X563590Y310625D02*
X557065D01*
G01X563590Y313775D02*
X557065D01*
G01X586150Y99575D02*
X592675D01*
G01X586150Y96425D02*
X592675D01*
G01X586150Y105875D02*
X592675D01*
G01X586150Y124775D02*
X592675D01*
G01X586150Y115325D02*
X592675D01*
G01X586150Y118475D02*
X592675D01*
G01X586150Y109025D02*
X592675D01*
G01X586150Y137375D02*
X592675D01*
G01X586150Y127925D02*
X592675D01*
G01X586150Y146825D02*
X592675D01*
G01X586150Y143675D02*
X592675D01*
G01X586150Y153125D02*
X592675D01*
G01X586150Y156275D02*
X592675D01*
G01X586150Y178325D02*
X592675D01*
G01X586150Y175175D02*
X592675D01*
G01X586150Y194075D02*
X592675D01*
G01X586150Y184625D02*
X592675D01*
G01X586150Y187775D02*
X592675D01*
G01X586150Y212975D02*
X592675D01*
G01X586150Y197225D02*
X592675D01*
G01X586150Y206675D02*
X592675D01*
G01X586150Y203525D02*
X592675D01*
G01X586150Y216125D02*
X592675D01*
G01X586150Y225575D02*
X592675D01*
G01X586150Y222425D02*
X592675D01*
G01X586150Y235025D02*
X592675D01*
G01X586150Y231875D02*
X592675D01*
G01X586150Y266525D02*
X592675D01*
G01X586150Y263375D02*
X592675D01*
G01X586150Y257075D02*
X592675D01*
G01X586150Y253925D02*
X592675D01*
G01X586150Y282275D02*
X592675D01*
G01X586150Y272825D02*
X592675D01*
G01X586150Y275975D02*
X592675D01*
G01X586150Y301175D02*
X592675D01*
G01X586150Y294875D02*
X592675D01*
G01X586150Y291725D02*
X592675D01*
G01X586150Y285425D02*
X592675D01*
G01X586150Y313775D02*
X592675D01*
G01X586150Y310625D02*
X592675D01*
G01X586150Y304325D02*
X592675D01*
G01X609500Y309400D02*
X610000Y308900D01*
X616500D01*
G01D02*
X617553Y309953D01*
X625941D01*
G01X616500Y315100D02*
X619700D01*
G01X616500Y323300D02*
X618400Y321400D01*
Y319100D01*
X619673Y317827D01*
X625941D01*
G01X610300Y323300D02*
X607200D01*
X606700Y323800D01*
G01X636000Y288000D02*
Y300800D01*
X631200Y305600D01*
G01X625941Y306016D02*
X619600D01*
G01X625941Y307984D02*
X621116D01*
G01X625941Y304047D02*
X629647D01*
X631200Y305600D01*
G01X625941Y337512D02*
X620412D01*
X619000Y336100D01*
G01X625941Y331606D02*
X630994D01*
G01X625941Y329638D02*
X621362D01*
G01X625941Y321764D02*
X620936D01*
G01X625941Y323732D02*
X621268D01*
X620500Y324500D01*
G01X625941Y319795D02*
X629695D01*
X631200Y321300D01*
G01X625941Y341449D02*
X619151D01*
G01X636271Y194860D02*
Y190429D01*
X640600Y186100D01*
G01X635831Y349370D02*
Y353969D01*
G01X647642Y349370D02*
Y344058D01*
G01X641736Y349370D02*
Y353443D01*
X641500Y353679D01*
Y354999D01*
X640600Y355900D01*
G01X644979Y355006D02*
Y354321D01*
X645673Y353627D01*
Y349370D01*
G01X649610D02*
Y353190D01*
X649000Y353800D01*
G01X643705Y349370D02*
Y353595D01*
X643000Y354300D01*
G01X651579Y349370D02*
Y353921D01*
X651000Y354500D01*
G01X637799Y349370D02*
Y357500D01*
G01X653547Y349370D02*
Y355253D01*
X652800Y356000D01*
G01X659453Y264630D02*
Y269347D01*
G01X687059Y335543D02*
X690957D01*
X692000Y334500D01*
G01X687059Y333575D02*
X682325D01*
G01X687059Y337512D02*
X683388D01*
X682500Y338400D01*
G01X687059Y343417D02*
X694383D01*
G01X706850Y264300D02*
X702000D01*
G01X727150D02*
X735600D01*
X735900Y264000D01*
G01D02*
Y263500D01*
X733700Y261300D01*
G54D47*
X655114Y370500D03*
X671886D03*
G54D29*
X168700Y173500D03*
X189315Y371700D03*
X228685D03*
X617500Y253500D03*
G54D38*
X462640Y200700D03*
X465200D03*
X467760D03*
X470320D03*
X472880D03*
X475440D03*
Y223300D03*
X472880D03*
X470320D03*
X467760D03*
X465200D03*
X462640D03*
X478000Y200700D03*
X480560D03*
Y223300D03*
X478000D03*
G54D56*
X722900Y154800D03*
Y190200D03*
G54D66*
G01X263233Y-99300D02*
X263600Y-99000D01*
X263875Y-98500D01*
X264058Y-97800D01*
X263875Y-97200D01*
X263508Y-96800D01*
X262867Y-96500D01*
X260392D01*
Y-102500D01*
X263417D01*
X264058Y-102100D01*
X264425Y-101500D01*
X264608Y-100800D01*
X264425Y-100100D01*
X263875Y-99500D01*
X263233Y-99300D01*
X260392D01*
G01X269000Y-102500D02*
X268267Y-102400D01*
X267625Y-102000D01*
X267075Y-101400D01*
X266708Y-100700D01*
X266525Y-99900D01*
Y-99100D01*
X266708Y-98300D01*
X267075Y-97600D01*
X267625Y-97000D01*
X268267Y-96600D01*
X269000Y-96500D01*
X269733Y-96600D01*
X270375Y-97000D01*
X270925Y-97600D01*
X271292Y-98300D01*
X271475Y-99100D01*
Y-99900D01*
X271292Y-100700D01*
X270925Y-101400D01*
X270375Y-102000D01*
X269733Y-102400D01*
X269000Y-102500D01*
G01X275500Y-96500D02*
Y-102500D01*
G01X273392Y-96500D02*
X277608D01*
G01X282000D02*
Y-102500D01*
G01X279892Y-96500D02*
X284108D01*
G01X288500Y-102500D02*
X287767Y-102400D01*
X287125Y-102000D01*
X286575Y-101400D01*
X286208Y-100700D01*
X286025Y-99900D01*
Y-99100D01*
X286208Y-98300D01*
X286575Y-97600D01*
X287125Y-97000D01*
X287767Y-96600D01*
X288500Y-96500D01*
X289233Y-96600D01*
X289875Y-97000D01*
X290425Y-97600D01*
X290792Y-98300D01*
X290975Y-99100D01*
Y-99900D01*
X290792Y-100700D01*
X290425Y-101400D01*
X289875Y-102000D01*
X289233Y-102400D01*
X288500Y-102500D01*
G01X292617D02*
Y-96500D01*
X295000Y-101500D01*
X297383Y-96500D01*
Y-102500D01*
G01X306075Y-101700D02*
X306808Y-102200D01*
X307633Y-102500D01*
X308367D01*
X309100Y-102200D01*
X309650Y-101700D01*
X309925Y-101000D01*
X309742Y-100300D01*
X309283Y-99700D01*
X308458Y-99300D01*
X307358Y-99100D01*
X306717Y-98700D01*
X306442Y-98000D01*
X306625Y-97300D01*
X307083Y-96800D01*
X307725Y-96500D01*
X308367D01*
X309008Y-96700D01*
X309558Y-97200D01*
G01X313400Y-96500D02*
X315600D01*
G01X314500D02*
Y-102500D01*
G01X313400D02*
X315600D01*
G01X318983D02*
Y-96500D01*
X320817D01*
X321550Y-96800D01*
X322100Y-97200D01*
X322558Y-97800D01*
X322925Y-98500D01*
X323017Y-99500D01*
X322925Y-100500D01*
X322558Y-101200D01*
X322100Y-101800D01*
X321550Y-102200D01*
X320817Y-102500D01*
X318983D01*
G01X329333D02*
X325667D01*
Y-96500D01*
X329333D01*
G01X327867Y-99400D02*
X325667D01*
G01X260667Y-86500D02*
Y-92500D01*
X264333D01*
G01X266708D02*
X269000Y-86500D01*
X271292Y-92500D01*
G01X270467Y-90400D02*
X267533D01*
G01X275500Y-92500D02*
Y-89800D01*
X273667Y-86500D01*
G01X277333D02*
X275500Y-89800D01*
G01X283833Y-92500D02*
X280167D01*
Y-86500D01*
X283833D01*
G01X282367Y-89400D02*
X280167D01*
G01X286667Y-92500D02*
Y-86500D01*
X288958D01*
X289692Y-86800D01*
X290150Y-87200D01*
X290333Y-88000D01*
X290150Y-88800D01*
X289600Y-89300D01*
X288958Y-89600D01*
X286667D01*
G01X288958D02*
X290333Y-92500D01*
G01X299758Y-87500D02*
X300308Y-86900D01*
X300950Y-86600D01*
X301683Y-86500D01*
X302600Y-86700D01*
X303242Y-87200D01*
X303425Y-87800D01*
X303333Y-88400D01*
X302967Y-88900D01*
X301133Y-89900D01*
X300308Y-90600D01*
X299758Y-91600D01*
X299575Y-92500D01*
X303425D01*
G01X308000Y-86500D02*
X307267Y-86700D01*
X306717Y-87200D01*
X306350Y-87800D01*
X306075Y-88600D01*
X305983Y-89500D01*
X306075Y-90400D01*
X306350Y-91200D01*
X306717Y-91800D01*
X307267Y-92300D01*
X308000Y-92500D01*
X308733Y-92300D01*
X309283Y-91800D01*
X309650Y-91200D01*
X309925Y-90400D01*
X310017Y-89500D01*
X309925Y-88600D01*
X309650Y-87800D01*
X309283Y-87200D01*
X308733Y-86700D01*
X308000Y-86500D01*
G01X312850Y-92700D02*
X316150Y-86500D01*
G01X319258Y-87500D02*
X319808Y-86900D01*
X320450Y-86600D01*
X321183Y-86500D01*
X322100Y-86700D01*
X322742Y-87200D01*
X322925Y-87800D01*
X322833Y-88400D01*
X322467Y-88900D01*
X320633Y-89900D01*
X319808Y-90600D01*
X319258Y-91600D01*
X319075Y-92500D01*
X322925D01*
G01X327500Y-86500D02*
X326767Y-86700D01*
X326217Y-87200D01*
X325850Y-87800D01*
X325575Y-88600D01*
X325483Y-89500D01*
X325575Y-90400D01*
X325850Y-91200D01*
X326217Y-91800D01*
X326767Y-92300D01*
X327500Y-92500D01*
X328233Y-92300D01*
X328783Y-91800D01*
X329150Y-91200D01*
X329425Y-90400D01*
X329517Y-89500D01*
X329425Y-88600D01*
X329150Y-87800D01*
X328783Y-87200D01*
X328233Y-86700D01*
X327500Y-86500D01*
G01X364983Y-97500D02*
Y-91500D01*
X366817D01*
X367550Y-91800D01*
X368100Y-92200D01*
X368558Y-92800D01*
X368925Y-93500D01*
X369017Y-94500D01*
X368925Y-95500D01*
X368558Y-96200D01*
X368100Y-96800D01*
X367550Y-97200D01*
X366817Y-97500D01*
X364983D01*
G01X374600D02*
Y-91500D01*
X371208Y-95800D01*
X375792D01*
G01X380000Y-97500D02*
Y-91500D01*
X378900Y-92700D01*
G01Y-97500D02*
X381100D01*
G01X386500Y-91500D02*
X385767Y-91700D01*
X385217Y-92200D01*
X384850Y-92800D01*
X384575Y-93600D01*
X384483Y-94500D01*
X384575Y-95400D01*
X384850Y-96200D01*
X385217Y-96800D01*
X385767Y-97300D01*
X386500Y-97500D01*
X387233Y-97300D01*
X387783Y-96800D01*
X388150Y-96200D01*
X388425Y-95400D01*
X388517Y-94500D01*
X388425Y-93600D01*
X388150Y-92800D01*
X387783Y-92200D01*
X387233Y-91700D01*
X386500Y-91500D01*
G01X393000D02*
X392267Y-91700D01*
X391717Y-92200D01*
X391350Y-92800D01*
X391075Y-93600D01*
X390983Y-94500D01*
X391075Y-95400D01*
X391350Y-96200D01*
X391717Y-96800D01*
X392267Y-97300D01*
X393000Y-97500D01*
X393733Y-97300D01*
X394283Y-96800D01*
X394650Y-96200D01*
X394925Y-95400D01*
X395017Y-94500D01*
X394925Y-93600D01*
X394650Y-92800D01*
X394283Y-92200D01*
X393733Y-91700D01*
X393000Y-91500D01*
G01X405542Y-99500D02*
X404625Y-98500D01*
X404167Y-97500D01*
Y-93500D01*
X404625Y-92500D01*
X405542Y-91500D01*
G01X410758Y-92500D02*
X411308Y-91900D01*
X411950Y-91600D01*
X412683Y-91500D01*
X413600Y-91700D01*
X414242Y-92200D01*
X414425Y-92800D01*
X414333Y-93400D01*
X413967Y-93900D01*
X412133Y-94900D01*
X411308Y-95600D01*
X410758Y-96600D01*
X410575Y-97500D01*
X414425D01*
G01X416983Y-96600D02*
X417533Y-97100D01*
X418175Y-97400D01*
X419000Y-97500D01*
X419825Y-97300D01*
X420467Y-96900D01*
X420925Y-96200D01*
X421017Y-95400D01*
X420833Y-94600D01*
X420375Y-94100D01*
X419733Y-93700D01*
X419092Y-93600D01*
X418450Y-93700D01*
X417625Y-94100D01*
X417900Y-91500D01*
X420375D01*
G01X425500Y-97500D02*
Y-91500D01*
X424400Y-92700D01*
G01Y-97500D02*
X426600D01*
G01X432000Y-91500D02*
X431267Y-91700D01*
X430717Y-92200D01*
X430350Y-92800D01*
X430075Y-93600D01*
X429983Y-94500D01*
X430075Y-95400D01*
X430350Y-96200D01*
X430717Y-96800D01*
X431267Y-97300D01*
X432000Y-97500D01*
X432733Y-97300D01*
X433283Y-96800D01*
X433650Y-96200D01*
X433925Y-95400D01*
X434017Y-94500D01*
X433925Y-93600D01*
X433650Y-92800D01*
X433283Y-92200D01*
X432733Y-91700D01*
X432000Y-91500D01*
G01X436483Y-96300D02*
X437033Y-97000D01*
X437767Y-97400D01*
X438592Y-97500D01*
X439325Y-97400D01*
X440058Y-96900D01*
X440517Y-96300D01*
X440608Y-95700D01*
X440425Y-95000D01*
X439783Y-94500D01*
X439142Y-94300D01*
X438317D01*
G01X439142D02*
X439692Y-94000D01*
X440150Y-93500D01*
X440333Y-92900D01*
X440150Y-92300D01*
X439692Y-91800D01*
X438867Y-91500D01*
X438042Y-91600D01*
X437217Y-92000D01*
G01X445000Y-91500D02*
X444267Y-91700D01*
X443717Y-92200D01*
X443350Y-92800D01*
X443075Y-93600D01*
X442983Y-94500D01*
X443075Y-95400D01*
X443350Y-96200D01*
X443717Y-96800D01*
X444267Y-97300D01*
X445000Y-97500D01*
X445733Y-97300D01*
X446283Y-96800D01*
X446650Y-96200D01*
X446925Y-95400D01*
X447017Y-94500D01*
X446925Y-93600D01*
X446650Y-92800D01*
X446283Y-92200D01*
X445733Y-91700D01*
X445000Y-91500D01*
G01X451500D02*
X450767Y-91700D01*
X450217Y-92200D01*
X449850Y-92800D01*
X449575Y-93600D01*
X449483Y-94500D01*
X449575Y-95400D01*
X449850Y-96200D01*
X450217Y-96800D01*
X450767Y-97300D01*
X451500Y-97500D01*
X452233Y-97300D01*
X452783Y-96800D01*
X453150Y-96200D01*
X453425Y-95400D01*
X453517Y-94500D01*
X453425Y-93600D01*
X453150Y-92800D01*
X452783Y-92200D01*
X452233Y-91700D01*
X451500Y-91500D01*
G01X458458Y-99500D02*
X459375Y-98500D01*
X459833Y-97500D01*
Y-93500D01*
X459375Y-92500D01*
X458458Y-91500D01*
G01X531425Y197378D02*
X529809Y195762D01*
G01X528276Y197378D02*
X526660Y195762D01*
G01X525126Y197378D02*
X523510Y195762D01*
G01X525126Y213126D02*
X523510Y211510D01*
G01X528276Y213126D02*
X526660Y211510D01*
G01X528276Y209976D02*
X526660Y208360D01*
G01X525126Y209976D02*
X523510Y208360D01*
G01X528276Y203677D02*
X526660Y202061D01*
G01X525126Y203677D02*
X523510Y202061D01*
G01X528276Y206827D02*
X526660Y205211D01*
G01X528276Y200528D02*
X526660Y198912D01*
G01X525126Y200528D02*
X523510Y198912D01*
G01X525126Y206827D02*
X523510Y205211D01*
G01X528276Y222575D02*
X526660Y224191D01*
G01X525126Y225724D02*
X523510Y227340D01*
G01X528276Y228874D02*
X526660Y230490D01*
G01X528276Y225724D02*
X526660Y227340D01*
G01X525126Y228874D02*
X523510Y230490D01*
G01X525126Y222575D02*
X523510Y224191D01*
G01X528276Y219425D02*
X526660Y217809D01*
G01X528276Y216276D02*
X526660Y214660D01*
G01X525126Y216276D02*
X523510Y214660D01*
G01X525126Y219425D02*
X523510Y217809D01*
G01X531425Y219425D02*
X529809Y217809D01*
G01X531425Y222575D02*
X529809Y224191D01*
G01X525126Y235173D02*
X523510Y236789D01*
G01X528276Y232024D02*
X526660Y233640D01*
G01X525126Y238323D02*
X523510Y239939D01*
G01X528276Y241472D02*
X526660Y243088D01*
G01X528276Y235173D02*
X526660Y236789D01*
G01X525126Y241472D02*
X523510Y243088D01*
G01X528276Y238323D02*
X526660Y239939D01*
G01X525126Y232024D02*
X523510Y233640D01*
G01X525126Y244622D02*
X523510Y246238D01*
G01X528276Y244622D02*
X526660Y246238D01*
G01X531425Y244622D02*
X529809Y246238D01*
G01X520000Y265000D02*
Y269400D01*
G01X534575Y197378D02*
X536191Y195762D01*
G01X540874Y197378D02*
X542490Y195762D01*
G01X537724Y197378D02*
X539340Y195762D01*
G01X540874Y206827D02*
X542490Y205211D01*
G01X540874Y203677D02*
X542490Y202061D01*
G01X537724Y203677D02*
X539340Y202061D01*
G01X540874Y213126D02*
X542490Y211510D01*
G01X540874Y209976D02*
X542490Y208360D01*
G01X537724Y209976D02*
X539340Y208360D01*
G01X540874Y200528D02*
X542490Y198912D01*
G01X537724Y200528D02*
X539340Y198912D01*
G01X537724Y206827D02*
X539340Y205211D01*
G01X537724Y213126D02*
X539340Y211510D01*
G01X534575Y219425D02*
X536191Y217809D01*
G01X534575Y222575D02*
X536191Y224191D01*
G01X537724Y222575D02*
X539340Y224191D01*
G01X537724Y228874D02*
X539340Y230490D01*
G01X537724Y216276D02*
X539340Y214660D01*
G01X540874Y225724D02*
X542490Y227340D01*
G01X540874Y219425D02*
X542490Y217809D01*
G01X540874Y228874D02*
X542490Y230490D01*
G01X537724Y219425D02*
X539340Y217809D01*
G01X540874Y222575D02*
X542490Y224191D01*
G01X540874Y216276D02*
X542490Y214660D01*
G01X537724Y225724D02*
X539340Y227340D01*
G01X534575Y244622D02*
X536191Y246238D01*
G01X540874Y244622D02*
X542490Y246238D01*
G01X537724Y235173D02*
X539340Y236789D01*
G01X537724Y244622D02*
X539340Y246238D01*
G01X537724Y238323D02*
X539340Y239939D01*
G01X537724Y241472D02*
X539340Y243088D01*
G01X537724Y232024D02*
X539340Y233640D01*
G01X540874Y232024D02*
X542490Y233640D01*
G01X540874Y235173D02*
X542490Y236789D01*
G01X540874Y238323D02*
X542490Y239939D01*
G01X540874Y241472D02*
X542490Y243088D01*
G01X535000Y275000D02*
X532100Y272100D01*
Y265000D01*
G01D02*
Y262150D01*
X534700Y259550D01*
G01X541700Y263250D02*
X544550D01*
X548300Y267000D01*
X549000D01*
X550100Y268100D01*
Y269000D01*
G01X543900D02*
Y273300D01*
G01X550100Y269000D02*
Y269900D01*
X549000Y271000D01*
Y276500D01*
X548600Y276900D01*
G01X625941Y278457D02*
X621843D01*
G01X625941Y280425D02*
X620525D01*
G01X625941Y282394D02*
X622000D01*
X620507Y282593D01*
X619900Y283200D01*
G01X625941Y272551D02*
X621949D01*
G01X625941Y284362D02*
X621475D01*
X620612Y285225D01*
X618875D01*
X618500Y285600D01*
G01X625941Y294205D02*
X621795D01*
G01X625941Y292236D02*
X620200D01*
G01X625941Y288299D02*
X620901D01*
G01X625941Y290268D02*
X621900D01*
G01X625941Y286331D02*
X621769D01*
G01X625941Y296173D02*
X620073D01*
G01X625941Y298142D02*
X621958D01*
G01X625941Y343417D02*
X621483D01*
G01X633862Y349370D02*
Y356038D01*
G01X631894Y349370D02*
Y353706D01*
G01X647100Y26000D02*
X638700D01*
X638000Y26700D01*
G01X650500Y205800D02*
X650000Y205300D01*
Y201579D01*
X647221Y198800D01*
X645329D01*
X645129Y198600D01*
G01X650500Y205800D02*
Y214200D01*
X654940Y218640D01*
X674660D01*
X675500Y217800D01*
Y214300D01*
G01X645129Y202340D02*
Y206329D01*
G01X645673Y264630D02*
Y260873D01*
X642200Y258700D01*
G01X649610Y264630D02*
Y261300D01*
X649652Y260948D01*
X650100Y260500D01*
G01X647642Y264630D02*
X647600Y260400D01*
G01X651579Y264630D02*
Y261621D01*
X653600Y259600D01*
G01X669300Y208100D02*
X667580Y206380D01*
Y200300D01*
G01X663300Y214300D02*
Y208100D01*
G01D02*
X665020Y206380D01*
Y200300D01*
G01X667327Y264630D02*
X667300Y256200D01*
G01X665358Y264630D02*
X665300Y257800D01*
G01X669295Y264630D02*
Y260605D01*
G01Y349370D02*
Y356195D01*
G01X667327Y349370D02*
Y354173D01*
G01X655516Y349370D02*
Y356216D01*
G01X674200Y18400D02*
Y29600D01*
X675300Y30700D01*
G01X675500Y208100D02*
Y214300D01*
G01X671264Y264630D02*
Y259364D01*
G01X744400Y313200D02*
X741800Y310600D01*
Y305200D01*
X737800Y301200D01*
X701333D01*
X694549Y307984D01*
X687059D01*
G01X737900Y313200D02*
X740600Y310500D01*
Y305698D01*
X737302Y302400D01*
X701831D01*
X695047Y309184D01*
X691411D01*
X690642Y309953D01*
X687059D01*
G01Y323732D02*
X701832D01*
X702000Y323900D01*
G01X687059Y321764D02*
X697336D01*
X702000Y317100D01*
G01X673232Y349370D02*
Y356068D01*
G01X671264Y349370D02*
Y354036D01*
G01X702000Y317100D02*
X711998D01*
X720000Y309098D01*
G01X702000Y323900D02*
X709998D01*
X720000Y333902D01*
G01X709500Y360000D02*
X706500D01*
X702900Y363600D01*
X700000D01*
G01X709500Y357000D02*
X706000D01*
X702000Y361000D01*
X697500D01*
X696000Y359500D01*
Y358400D01*
G01X709500Y360000D02*
X710856D01*
X711756Y359100D01*
X720598D01*
X726200Y353498D01*
Y342998D01*
X731200Y337998D01*
Y329498D01*
X733098Y327600D01*
X734276D01*
X735376Y328700D01*
X736900D01*
G01X709500Y357000D02*
X710856D01*
X711756Y357900D01*
X720100D01*
X725000Y353000D01*
Y342500D01*
X730000Y337500D01*
Y329000D01*
X732600Y326400D01*
X734276D01*
X735376Y325300D01*
X736900D01*
G01X743100Y328700D02*
X741200D01*
X740500Y328000D01*
Y324000D01*
X737900Y321400D01*
Y319400D01*
G01X744400D02*
Y324000D01*
X743100Y325300D01*
G54D57*
X720000Y309098D03*
Y333902D03*
G54D39*
X515000Y275000D03*
G54D48*
X666300Y191800D03*
G54D67*
G01X27100Y146700D02*
Y150800D01*
G01X34400Y267500D02*
X27400D01*
G01X41500Y42000D02*
X52400Y31100D01*
X91100D01*
X93200Y29000D01*
Y25000D01*
G01X52500Y124400D02*
X50200D01*
X48100Y126500D01*
G01X39400Y122500D02*
Y126300D01*
G01Y115000D02*
Y110400D01*
G01X52500Y144400D02*
Y143800D01*
X50400Y141700D01*
G01X50000Y256900D02*
Y255700D01*
X48500Y254200D01*
G01X50000Y276900D02*
X46300D01*
G01X50000Y291900D02*
X54200D01*
G01X50000Y306900D02*
X54600D01*
G01X50000Y328100D02*
X54400D01*
G01X57500Y273100D02*
X58800D01*
X61100Y275400D01*
G01X79900Y65800D02*
X81000Y64700D01*
Y61300D01*
G01X73900Y76000D02*
X74800Y75100D01*
Y72800D01*
X74200Y72200D01*
G01X109300Y16400D02*
Y18366D01*
X101300Y26366D01*
Y28200D01*
G01X105700D02*
Y36300D01*
X111850Y42450D01*
G01X103500Y33400D02*
Y27104D01*
X105504Y25100D01*
X108600D01*
X118518Y35018D01*
Y40382D01*
X114200Y44700D01*
X102477D01*
X101700Y45477D01*
Y46134D01*
X101500Y46334D01*
Y46800D01*
X100200Y48100D01*
G01D02*
Y54200D01*
X107200Y61200D01*
G01X106100Y97670D02*
X100170D01*
X99000Y96500D01*
G01X130590Y102725D02*
X123425D01*
X122100Y101400D01*
G01X117500Y93100D02*
Y96000D01*
X117800Y96300D01*
G01X130590Y121625D02*
X123625D01*
G01X130590Y140525D02*
X122625D01*
G01X117500Y149400D02*
Y145900D01*
G01X130590Y260225D02*
X130415Y260400D01*
X121200D01*
X119700Y261900D01*
X117500D01*
G01X130590Y288575D02*
X121675D01*
G01X130590Y298025D02*
X120425D01*
G01X130590Y307475D02*
X124025D01*
G01X117500Y310600D02*
Y313400D01*
X119000Y314900D01*
G01X130590Y112175D02*
X137225D01*
G01X130590Y131075D02*
X135725D01*
X136600Y130200D01*
G01X141770Y252000D02*
X141870Y252100D01*
G01X130590Y260225D02*
X137275D01*
G01X130590Y279125D02*
X135375D01*
X138100Y276400D01*
G01X130590Y269675D02*
X137325D01*
G01X153150Y102725D02*
X160825D01*
G01X153150Y121625D02*
X160875D01*
G01X153150Y112175D02*
X159275D01*
G01X153150Y140525D02*
X160225D01*
G01X153150Y131075D02*
X160925D01*
G01X153150Y149975D02*
X160675D01*
G01X153150Y260225D02*
X159675D01*
G01X153150Y279125D02*
X163400D01*
G01X153150Y269675D02*
X162475D01*
G01X153150Y298025D02*
X160225D01*
G01X153150Y288575D02*
X159375D01*
G01X153150Y307475D02*
X160225D01*
G01X167150Y125000D02*
Y130050D01*
X165700Y131500D01*
G01X166900Y145000D02*
X168200Y146300D01*
Y146766D01*
X168434Y147000D01*
X169600D01*
X170400Y147800D01*
G01X166900Y265000D02*
Y271600D01*
X170000Y274700D01*
G01Y279650D02*
Y274700D01*
G01X166900Y302500D02*
Y306400D01*
G01X232400Y252600D02*
X229500D01*
X227400Y250500D01*
G01X240200Y56900D02*
X239690Y56390D01*
Y55599D01*
X239587Y55496D01*
Y38840D01*
X239600Y38827D01*
Y25627D01*
X239587Y25614D01*
Y23840D01*
X240840Y22587D01*
X242614D01*
X242804Y22777D01*
X243677D01*
X246727Y19727D01*
G01X238800Y72900D02*
Y62800D01*
X244900Y56700D01*
Y40927D01*
X244587Y40614D01*
Y33840D01*
X246327Y32100D01*
X247127D01*
X247360Y31867D01*
X247614D01*
X247781Y31700D01*
X249754D01*
X251727Y29727D01*
G01X247800Y184800D02*
X241800D01*
G01D02*
X237700Y183900D01*
G01X238600Y258800D02*
X241300D01*
X246400Y263900D01*
G01X251500Y295950D02*
X238850D01*
X237900Y296900D01*
G01X258500Y-125000D02*
Y-117000D01*
X261000D01*
X262000Y-117400D01*
X262750Y-117933D01*
X263375Y-118733D01*
X263875Y-119667D01*
X264000Y-121000D01*
X263875Y-122333D01*
X263375Y-123267D01*
X262750Y-124067D01*
X262000Y-124600D01*
X261000Y-125000D01*
X258500D01*
G01X266625D02*
X269750Y-117000D01*
X272875Y-125000D01*
G01X271750Y-122200D02*
X267750D01*
G01X278250Y-117000D02*
Y-125000D01*
G01X275375Y-117000D02*
X281125D01*
G01X289250Y-125000D02*
X284250D01*
Y-117000D01*
X289250D01*
G01X287250Y-120867D02*
X284250D01*
G01X295250Y-125267D02*
X295000Y-125133D01*
Y-124867D01*
X295250Y-124733D01*
X295500Y-124867D01*
Y-125133D01*
X295250Y-125267D01*
G01Y-121667D02*
X295000Y-121533D01*
Y-121267D01*
X295250Y-121133D01*
X295500Y-121267D01*
Y-121533D01*
X295250Y-121667D01*
G01X267750Y-70000D02*
Y-62000D01*
X270250D01*
X271250Y-62400D01*
X272000Y-62933D01*
X272625Y-63733D01*
X273125Y-64667D01*
X273250Y-66000D01*
X273125Y-67333D01*
X272625Y-68267D01*
X272000Y-69067D01*
X271250Y-69600D01*
X270250Y-70000D01*
X267750D01*
G01X277500Y-62000D02*
X280500D01*
G01X279000D02*
Y-70000D01*
G01X277500D02*
X280500D01*
G01X288250Y-66000D02*
X290750D01*
Y-68400D01*
X290000Y-69200D01*
X289125Y-69733D01*
X287875Y-70000D01*
X286625Y-69733D01*
X285750Y-69200D01*
X285000Y-68400D01*
X284500Y-67467D01*
X284250Y-66400D01*
Y-65467D01*
X284500Y-64667D01*
X285000Y-63733D01*
X285750Y-62933D01*
X286500Y-62400D01*
X287500Y-62000D01*
X288375D01*
X289375Y-62267D01*
X290125Y-62800D01*
G01X294500Y-62000D02*
X297500D01*
G01X296000D02*
Y-70000D01*
G01X294500D02*
X297500D01*
G01X304500Y-62000D02*
Y-70000D01*
G01X301625Y-62000D02*
X307375D01*
G01X309875Y-70000D02*
X313000Y-62000D01*
X316125Y-70000D01*
G01X315000Y-67200D02*
X311000D01*
G01X319000Y-62000D02*
Y-70000D01*
X324000D01*
G01X336000Y-62000D02*
Y-70000D01*
X341000D01*
G01X345500Y-62000D02*
X348500D01*
G01X347000D02*
Y-70000D01*
G01X345500D02*
X348500D01*
G01X356250Y-66000D02*
X358750D01*
Y-68400D01*
X358000Y-69200D01*
X357125Y-69733D01*
X355875Y-70000D01*
X354625Y-69733D01*
X353750Y-69200D01*
X353000Y-68400D01*
X352500Y-67467D01*
X352250Y-66400D01*
Y-65467D01*
X352500Y-64667D01*
X353000Y-63733D01*
X353750Y-62933D01*
X354500Y-62400D01*
X355500Y-62000D01*
X356375D01*
X357375Y-62267D01*
X358125Y-62800D01*
G01X361375Y-70000D02*
Y-62000D01*
G01X366625D02*
Y-70000D01*
G01Y-66000D02*
X361375D01*
G01X372500Y-62000D02*
Y-70000D01*
G01X369625Y-62000D02*
X375375D01*
G01X388000D02*
X391000D01*
G01X389500D02*
Y-70000D01*
G01X388000D02*
X391000D01*
G01X395125D02*
Y-62000D01*
X400875Y-70000D01*
Y-62000D01*
G01X403625Y-70000D02*
Y-62000D01*
X409375Y-70000D01*
Y-62000D01*
G01X415000Y-70000D02*
X414000Y-69867D01*
X413125Y-69333D01*
X412375Y-68533D01*
X411875Y-67600D01*
X411625Y-66533D01*
Y-65467D01*
X411875Y-64400D01*
X412375Y-63467D01*
X413125Y-62667D01*
X414000Y-62133D01*
X415000Y-62000D01*
X416000Y-62133D01*
X416875Y-62667D01*
X417625Y-63467D01*
X418125Y-64400D01*
X418375Y-65467D01*
Y-66533D01*
X418125Y-67600D01*
X417625Y-68533D01*
X416875Y-69333D01*
X416000Y-69867D01*
X415000Y-70000D01*
G01X420375Y-62000D02*
X423500Y-70000D01*
X426625Y-62000D01*
G01X428875Y-70000D02*
X432000Y-62000D01*
X435125Y-70000D01*
G01X434000Y-67200D02*
X430000D01*
G01X440500Y-62000D02*
Y-70000D01*
G01X437625Y-62000D02*
X443375D01*
G01X447500D02*
X450500D01*
G01X449000D02*
Y-70000D01*
G01X447500D02*
X450500D01*
G01X457500D02*
X456500Y-69867D01*
X455625Y-69333D01*
X454875Y-68533D01*
X454375Y-67600D01*
X454125Y-66533D01*
Y-65467D01*
X454375Y-64400D01*
X454875Y-63467D01*
X455625Y-62667D01*
X456500Y-62133D01*
X457500Y-62000D01*
X458500Y-62133D01*
X459375Y-62667D01*
X460125Y-63467D01*
X460625Y-64400D01*
X460875Y-65467D01*
Y-66533D01*
X460625Y-67600D01*
X460125Y-68533D01*
X459375Y-69333D01*
X458500Y-69867D01*
X457500Y-70000D01*
G01X463125D02*
Y-62000D01*
X468875Y-70000D01*
Y-62000D01*
G01X471875Y-68934D02*
X472875Y-69600D01*
X474000Y-70000D01*
X475000D01*
X476000Y-69600D01*
X476750Y-68934D01*
X477125Y-68000D01*
X476875Y-67067D01*
X476250Y-66267D01*
X475125Y-65733D01*
X473625Y-65467D01*
X472750Y-64933D01*
X472375Y-64000D01*
X472625Y-63067D01*
X473250Y-62400D01*
X474125Y-62000D01*
X475000D01*
X475875Y-62267D01*
X476625Y-62933D01*
G01X281600Y226200D02*
X282987Y224813D01*
G01D02*
X287650Y220150D01*
Y214000D01*
G01X282987Y224813D02*
X326387D01*
X330100Y221100D01*
Y213000D01*
G01X297000Y127650D02*
X298250D01*
X302300Y123600D01*
G01X297000Y138350D02*
Y140700D01*
X301400Y145100D01*
G01X301000Y152900D02*
X303500D01*
X303900Y152500D01*
G01X301000Y172100D02*
X296600D01*
X293600Y169100D01*
G01X298350Y214000D02*
Y208250D01*
G01D02*
X297000Y206900D01*
G01X309900Y213000D02*
X303100D01*
X298350Y208250D01*
G01X288900Y325600D02*
X290276D01*
X291058Y324818D01*
X303713D01*
X305818Y322713D01*
Y321872D01*
X306809Y320881D01*
X309197D01*
X311445Y318634D01*
G01X316250Y-117000D02*
X315250Y-117267D01*
X314500Y-117933D01*
X314000Y-118733D01*
X313625Y-119800D01*
X313500Y-121000D01*
X313625Y-122200D01*
X314000Y-123267D01*
X314500Y-124067D01*
X315250Y-124733D01*
X316250Y-125000D01*
X317250Y-124733D01*
X318000Y-124067D01*
X318500Y-123267D01*
X318875Y-122200D01*
X319000Y-121000D01*
X318875Y-119800D01*
X318500Y-118733D01*
X318000Y-117933D01*
X317250Y-117267D01*
X316250Y-117000D01*
G01X326250Y-125000D02*
Y-117000D01*
X321625Y-122733D01*
X327875D01*
G01X331000Y-125267D02*
X335500Y-117000D01*
G01X341750Y-125000D02*
Y-117000D01*
X340250Y-118600D01*
G01Y-125000D02*
X343250D01*
G01X347875Y-118333D02*
X348625Y-117533D01*
X349500Y-117133D01*
X350500Y-117000D01*
X351750Y-117267D01*
X352625Y-117933D01*
X352875Y-118733D01*
X352750Y-119534D01*
X352250Y-120200D01*
X349750Y-121533D01*
X348625Y-122467D01*
X347875Y-123800D01*
X347625Y-125000D01*
X352875D01*
G01X356500Y-125267D02*
X361000Y-117000D01*
G01X364875Y-118333D02*
X365625Y-117533D01*
X366500Y-117133D01*
X367500Y-117000D01*
X368750Y-117267D01*
X369625Y-117933D01*
X369875Y-118733D01*
X369750Y-119534D01*
X369250Y-120200D01*
X366750Y-121533D01*
X365625Y-122467D01*
X364875Y-123800D01*
X364625Y-125000D01*
X369875D01*
G01X375750Y-117000D02*
X374750Y-117267D01*
X374000Y-117933D01*
X373500Y-118733D01*
X373125Y-119800D01*
X373000Y-121000D01*
X373125Y-122200D01*
X373500Y-123267D01*
X374000Y-124067D01*
X374750Y-124733D01*
X375750Y-125000D01*
X376750Y-124733D01*
X377500Y-124067D01*
X378000Y-123267D01*
X378375Y-122200D01*
X378500Y-121000D01*
X378375Y-119800D01*
X378000Y-118733D01*
X377500Y-117933D01*
X376750Y-117267D01*
X375750Y-117000D01*
G01X384250Y-125000D02*
Y-117000D01*
X382750Y-118600D01*
G01Y-125000D02*
X385750D01*
G01X390375Y-121667D02*
X391250Y-120733D01*
X392000Y-120200D01*
X393000Y-119933D01*
X393875Y-120200D01*
X394500Y-120733D01*
X395000Y-121533D01*
X395125Y-122467D01*
X395000Y-123267D01*
X394500Y-124067D01*
X393750Y-124733D01*
X392875Y-125000D01*
X391875Y-124733D01*
X391000Y-123934D01*
X390500Y-122733D01*
X390375Y-121400D01*
X390625Y-119667D01*
X391000Y-118733D01*
X391625Y-117800D01*
X392500Y-117133D01*
X393375Y-117000D01*
X394250Y-117267D01*
X394875Y-117933D01*
G01X320350Y93000D02*
Y88350D01*
X318000Y86000D01*
G01X309650Y93000D02*
Y94350D01*
X303000Y101000D01*
G01X311445Y318634D02*
Y317086D01*
X313135Y315396D01*
Y309069D01*
X315382Y306822D01*
G01X374650Y94000D02*
X363000D01*
X360000Y91000D01*
G01X385350Y94000D02*
X393000D01*
G01X405956Y358004D02*
X403708Y360252D01*
Y362642D01*
X400250Y366100D01*
X387900D01*
X387179Y366821D01*
X384270D01*
X383901Y367190D01*
X383602D01*
X383221Y367571D01*
Y370779D01*
X382500Y371500D01*
X376500D01*
X375700Y372300D01*
X375334D01*
X373800Y373834D01*
Y374300D01*
G01X447727Y39227D02*
X440700Y46254D01*
Y66521D01*
X436221Y71000D01*
X427600D01*
X422400Y76200D01*
X399100D01*
G01X403300Y89500D02*
X404600Y88200D01*
Y87300D01*
X405700Y86200D01*
X413800D01*
X420900Y79100D01*
G01X409500Y89500D02*
Y90700D01*
X404100Y96100D01*
G01X392150Y372500D02*
X397000D01*
G01X408750Y-125000D02*
Y-117000D01*
X411875D01*
X412875Y-117400D01*
X413500Y-117933D01*
X413750Y-119000D01*
X413500Y-120067D01*
X412750Y-120733D01*
X411875Y-121133D01*
X408750D01*
G01X411875D02*
X413750Y-125000D01*
G01X422250D02*
X417250D01*
Y-117000D01*
X422250D01*
G01X420250Y-120867D02*
X417250D01*
G01X425125Y-117000D02*
X428250Y-125000D01*
X431375Y-117000D01*
G01X436750Y-125267D02*
X436500Y-125133D01*
Y-124867D01*
X436750Y-124733D01*
X437000Y-124867D01*
Y-125133D01*
X436750Y-125267D01*
G01Y-121667D02*
X436500Y-121533D01*
Y-121267D01*
X436750Y-121133D01*
X437000Y-121267D01*
Y-121533D01*
X436750Y-121667D01*
G01X420000Y118650D02*
Y113900D01*
X418700Y112600D01*
G01X420000Y129350D02*
Y131100D01*
X415700Y135400D01*
G01X421000Y153650D02*
X420750D01*
X415400Y148300D01*
G01X421000Y164350D02*
Y167600D01*
X419000Y169600D01*
G01X431100Y182000D02*
X435400D01*
G01X430100Y195000D02*
Y202000D01*
G01Y209000D02*
X434900D01*
G01X430100Y202000D02*
X434900D01*
G01X459750Y-125000D02*
Y-117000D01*
X462250D01*
X463250Y-117400D01*
X464000Y-117933D01*
X464625Y-118733D01*
X465125Y-119667D01*
X465250Y-121000D01*
X465125Y-122333D01*
X464625Y-123267D01*
X464000Y-124067D01*
X463250Y-124600D01*
X462250Y-125000D01*
X459750D01*
G01X447727Y19227D02*
X449867Y21367D01*
X463614D01*
X464867Y20114D01*
Y19060D01*
X467505Y16422D01*
X540622D01*
X555600Y31400D01*
X558800D01*
G01X452727Y29227D02*
X454867Y31367D01*
X483487D01*
X484777Y30077D01*
Y29150D01*
X486840Y27087D01*
X487767D01*
X489777Y25077D01*
Y24150D01*
X491840Y22087D01*
X517767D01*
X522253Y17601D01*
X538701D01*
X558600Y37500D01*
X559300D01*
G01X467760Y200700D02*
Y189540D01*
X467900Y189400D01*
G01X545600Y95000D02*
Y97700D01*
X544200Y99100D01*
G01X548100Y147500D02*
Y149900D01*
X544900Y153100D01*
G01X563590Y102725D02*
X569625D01*
G01X563590Y121625D02*
X570275D01*
G01X563590Y112175D02*
X569025D01*
X570000Y111200D01*
G01X563590Y131075D02*
X568925D01*
X570400Y129600D01*
G01X563590Y140525D02*
X557275D01*
G01X563590Y149975D02*
X557125D01*
G01X550000Y261800D02*
X553900D01*
X554000Y261900D01*
G01X563590Y260225D02*
X555675D01*
X554000Y261900D01*
G01X563590Y279125D02*
X569975D01*
X570600Y278500D01*
G01X563590Y269675D02*
X570225D01*
X571100Y268800D01*
G01X563590Y288575D02*
X555875D01*
G01X563590Y298025D02*
X554475D01*
X554300Y298200D01*
G01X550600Y295000D02*
X551100D01*
X554300Y298200D01*
G01X563590Y307475D02*
X557475D01*
G01X586150Y260225D02*
X577825D01*
X577300Y259700D01*
G01X597500Y96900D02*
X602100D01*
G01X597500Y103100D02*
X599500D01*
X601600Y105200D01*
G01X586150Y102725D02*
X593275D01*
G01X586150Y121625D02*
X594975D01*
G01X586150Y112175D02*
X593825D01*
X594700Y111300D01*
G01X597500Y141900D02*
X594250D01*
X592875Y140525D01*
G01X586150D02*
X592875D01*
G01X586150Y131075D02*
X595525D01*
G01X586150Y149975D02*
X593225D01*
G01X586150Y279125D02*
X592225D01*
G01X599400Y267500D02*
X595400D01*
X594300Y268600D01*
G01X586150Y269675D02*
X593225D01*
X594300Y268600D01*
G01X599400Y297500D02*
Y300600D01*
X596000Y304000D01*
G01X602500Y287850D02*
Y293934D01*
X600700Y295734D01*
Y296200D01*
X599400Y297500D01*
G01X586150Y298025D02*
X594025D01*
X594900Y298900D01*
G01X586150Y288575D02*
X594325D01*
X595400Y287500D01*
G01X586150Y307475D02*
X592525D01*
X596000Y304000D01*
G01X602150Y117500D02*
Y111950D01*
X600800Y110600D01*
G01X617500Y188500D02*
X615090Y186090D01*
Y183899D01*
X607791Y176600D01*
X605600D01*
Y166000D01*
G01X625941Y325701D02*
X626142Y325500D01*
X630398D01*
X630599Y325701D01*
G01X687059Y331606D02*
X664206D01*
X651200Y318600D01*
G01X687059Y329638D02*
X672638D01*
X653700Y310700D01*
X649900D01*
G01X687059Y327669D02*
X677669D01*
X653300Y303300D01*
X650800D01*
G01X665020Y178500D02*
Y183300D01*
G01X669200Y175300D02*
X667580Y176920D01*
Y183300D01*
G01X687059Y286331D02*
X666231D01*
X663400Y283500D01*
G01X687059Y284362D02*
X670762D01*
X663900Y277500D01*
G01X687059Y290268D02*
X682432D01*
X680800Y291900D01*
X666800D01*
X662100Y296600D01*
G01X687059Y288299D02*
X668000D01*
X667200Y289099D01*
Y289900D01*
G01X680400Y18400D02*
Y24400D01*
X680200Y24600D01*
G01X693250Y52050D02*
Y45250D01*
X680200Y32200D01*
Y30800D01*
G01X744000Y225100D02*
X727100Y242000D01*
X719800D01*
X715800Y246000D01*
X702300D01*
X700800Y247500D01*
X690700D01*
X686000Y252200D01*
Y257222D01*
X685000Y258222D01*
Y259000D01*
X682700Y261300D01*
Y270711D01*
X681800D01*
X680811Y271700D01*
Y273100D01*
X681800Y274089D01*
X682700D01*
Y278000D01*
X683157Y278457D01*
X687059D01*
G01X699900Y276500D02*
X699888Y276488D01*
X687059D01*
G01Y282394D02*
X698594D01*
X700400Y284200D01*
G01X687059Y274520D02*
X687179Y274400D01*
X691200D01*
X694100Y271500D01*
G01X688900Y263700D02*
Y267984D01*
X690149Y269233D01*
X690432D01*
X690959Y269760D01*
Y271441D01*
X690000Y272400D01*
X687210D01*
X687059Y272551D01*
G01Y325701D02*
X683701D01*
X681000Y323000D01*
Y315000D01*
X684079Y311921D01*
X687059D01*
G01X693000Y331000D02*
X692000Y330000D01*
Y327251D01*
X691225Y326476D01*
X690959D01*
X690184Y325701D01*
X687059D01*
G01Y339480D02*
X691620D01*
X692300Y338800D01*
G01X706850Y261700D02*
X701400D01*
X699700Y260000D01*
X697600D01*
G01X694100Y271500D02*
X697600Y268000D01*
Y260000D01*
G01Y254000D02*
X697500Y253900D01*
Y253434D01*
X696066Y252000D01*
Y251877D01*
X695289Y251100D01*
X689300D01*
X688900Y251500D01*
Y263700D01*
G01X706850Y259100D02*
X702300D01*
X699600Y256400D01*
Y254777D01*
X698823Y254000D01*
X697600D01*
G01X707400Y297200D02*
X701800D01*
X698100Y300900D01*
G01X707400Y291000D02*
X701000D01*
X700400Y290400D01*
G01D02*
X696100D01*
G01X723100Y252000D02*
X725500D01*
X726600Y250900D01*
G01X710100Y252000D02*
X716900D01*
G01X708500Y255400D02*
Y254917D01*
X709417Y254000D01*
Y252683D01*
X710100Y252000D01*
G01X742100Y264000D02*
Y272400D01*
X740000Y274500D01*
G54D49*
X662461Y183300D03*
X665020D03*
X667580D03*
X670139D03*
X662461Y200300D03*
X665020D03*
X667580D03*
X670139D03*
G54D58*
X716736Y345630D03*
Y374370D03*
X734452Y345630D03*
Y374370D03*
G54D68*
G01X50600Y169100D02*
X51100Y169600D01*
X53900D01*
G01X54200Y175000D02*
X52300Y177700D01*
X50600D01*
G01Y162700D02*
X53200D01*
X54100Y161800D01*
G01Y164700D02*
X53500Y165300D01*
X51200D01*
X50600Y165900D01*
G01Y172300D02*
X54000D01*
X54400Y172700D01*
G01X50600Y184100D02*
X53900D01*
G01X50600Y195900D02*
X53300D01*
X54200Y195000D01*
G01X50600Y180900D02*
X53700D01*
G01X50600Y192700D02*
X53500D01*
X54000Y192200D01*
G01X50600Y187300D02*
X51900D01*
X54100Y189500D01*
G01X68300Y211100D02*
X64900Y207700D01*
X50600D01*
G01Y210900D02*
X54993D01*
X56283Y212190D01*
X61883D01*
X64483Y214790D01*
X67310D01*
X68000Y214100D01*
G01X50600Y202300D02*
X52100D01*
X54000Y204200D01*
G01X50600Y199100D02*
X53300D01*
X53700Y199500D01*
G01X68240Y216960D02*
X67280Y216000D01*
X63300D01*
X61400Y214100D01*
X50600D01*
G01Y217300D02*
X64800D01*
X68100Y220600D01*
G01X50600Y222700D02*
X51700D01*
X53900Y220500D01*
G01X50600Y225900D02*
X51800D01*
X53900Y228000D01*
G01X50600Y237700D02*
X53600D01*
G01X50600Y240900D02*
X53500D01*
G01X50600Y244100D02*
X53600D01*
G01X50600Y247300D02*
X53600D01*
G01X73820Y96490D02*
X73710Y96600D01*
X69300D01*
X68900Y96200D01*
Y91400D01*
X73200Y87100D01*
Y81300D01*
X71300Y79400D01*
Y70700D01*
X73700Y68300D01*
Y65800D01*
G01X73820Y117750D02*
X66550D01*
G01X73820Y136650D02*
X69170D01*
X66920Y134400D01*
X65000D01*
G01X73820Y139010D02*
X66773D01*
X66683Y139100D01*
X66500D01*
X65000Y140600D01*
G01X67200Y160553D02*
X68163Y159590D01*
X68607D01*
X69287Y160270D01*
X73820D01*
G01X67200Y157648D02*
Y157991D01*
X67800Y158591D01*
X68607D01*
X69288Y157910D01*
X73820D01*
G01Y212240D02*
X69440D01*
X68300Y211100D01*
G01X73820Y214600D02*
X68500D01*
X68000Y214100D01*
G01X73820Y216960D02*
X68240D01*
G01X73820Y221690D02*
X69190D01*
X68100Y220600D01*
G01X73820Y224050D02*
X67850D01*
X67400Y224500D01*
G01X73820Y226410D02*
X67290D01*
X66700Y227000D01*
G01X66520Y238220D02*
X73820D01*
G01X60100Y237200D02*
X65500D01*
X66520Y238220D01*
G01X65700Y307400D02*
X66299D01*
X68207Y309308D01*
Y309771D01*
X68606D01*
X69287Y309090D01*
X73820D01*
G01X65700Y313600D02*
X67200Y312100D01*
X67383D01*
X67500Y311983D01*
Y311800D01*
X68530Y310770D01*
X68606D01*
X69286Y311450D01*
X73820D01*
G01X80100Y76000D02*
X85200Y81100D01*
Y96800D01*
X83150Y98850D01*
X73820D01*
G01Y103580D02*
X79680D01*
X80300Y104200D01*
G01X73820Y105940D02*
X79740D01*
X81100Y107300D01*
G01X84800Y113293D02*
X83847Y112340D01*
X79033D01*
X78353Y113020D01*
X73820D01*
G01X84000Y109800D02*
X83847Y111341D01*
X79033D01*
X78352Y110660D01*
X73820D01*
G01Y124830D02*
X80930D01*
X81400Y125300D01*
G01X73820Y120110D02*
X81410D01*
X82200Y120900D01*
G01X85000Y136371D02*
X84040Y137331D01*
X79034D01*
X78353Y136650D01*
X73820D01*
G01X85000Y139290D02*
X84040Y138330D01*
X79034D01*
X78354Y139010D01*
X73820D01*
G01Y131920D02*
X80020D01*
G01X73820Y127200D02*
X80600D01*
X81600Y128200D01*
G01X73820Y153180D02*
X81480D01*
G01X73820Y146090D02*
X79890D01*
X80300Y146500D01*
G01X73820Y150820D02*
X79620D01*
G01X73820Y143730D02*
X81730D01*
G01X73820Y172080D02*
X80680D01*
X81000Y172400D01*
G01X86400Y178000D02*
X82300D01*
X81790Y178510D01*
X81183D01*
X80523Y179170D01*
X73820D01*
G01Y174440D02*
X79440D01*
G01X73820Y164990D02*
X79590D01*
G01X73820Y167350D02*
X80550D01*
G01X73820Y195700D02*
X84500D01*
G01X73820Y186250D02*
X81850D01*
G01X73820Y183890D02*
X79590D01*
G01X73820Y207510D02*
X79690D01*
X80000Y207200D01*
G01X73820Y205150D02*
X82250D01*
G01X73820Y198060D02*
X79240D01*
G01X73820Y202790D02*
X79190D01*
G01X73820Y245310D02*
X80590D01*
G01X73820Y242950D02*
X81850D01*
G01X85200Y254000D02*
X84760D01*
X83000Y252400D01*
X82228D01*
X81538Y251710D01*
X79034D01*
X78354Y252390D01*
X73820D01*
G01X84200Y251200D02*
X83330Y250030D01*
X73820D01*
G01Y259480D02*
X82080D01*
X83100Y260500D01*
G01X73820Y264210D02*
X82810D01*
G01X73820Y257120D02*
X80680D01*
X82600Y255200D01*
G01X73820Y271290D02*
X81790D01*
G01X73820Y280740D02*
X84440D01*
G01X73820Y278380D02*
X82120D01*
G01X73820Y266570D02*
X80070D01*
G01X73820Y316170D02*
X85470D01*
G01X81850Y308818D02*
X80897Y309771D01*
X79033D01*
X78352Y309090D01*
X73820D01*
G01X81850Y311723D02*
X80897Y310770D01*
X79033D01*
X78353Y311450D01*
X73820D01*
G01Y302000D02*
X79900D01*
G01X73820Y320900D02*
X84100D01*
X85800Y319200D01*
G01X73820Y304360D02*
X90760D01*
G01X73820Y335070D02*
X81270D01*
G01X83626Y325027D02*
X83487D01*
X81720Y323260D01*
X73820D01*
G01Y330350D02*
X82850D01*
G01X73820Y327980D02*
X73979Y328139D01*
X80400Y328300D01*
X86600D01*
G01X73820Y339800D02*
X85200D01*
G01X73820Y342160D02*
X81840D01*
G01X114100Y108900D02*
Y103800D01*
X112690Y102390D01*
X106100D01*
G01Y107120D02*
X100080D01*
G01X106100Y121290D02*
X99510D01*
G01X106100Y118930D02*
X97130D01*
G01X106100Y126010D02*
X100010D01*
G01X106100Y109480D02*
X99020D01*
G01X106100Y114200D02*
X100200D01*
G01X115439Y135739D02*
X114479Y134779D01*
X111314D01*
X110633Y135460D01*
X106100D01*
G01X115439Y132820D02*
X114479Y133780D01*
X111314D01*
X110634Y133100D01*
X106100D01*
G01Y128380D02*
X100180D01*
G01X106100Y154360D02*
X98240D01*
G01X106100Y147270D02*
X99300D01*
X96806Y147794D01*
X95000Y149600D01*
G01X106100Y144910D02*
X100610D01*
G01X106100Y159090D02*
X99490D01*
X97000Y156600D01*
G01X106100Y152000D02*
X100300D01*
G01X114750Y177713D02*
X113797Y178666D01*
X111318D01*
X110632Y177980D01*
X106100D01*
G01Y170900D02*
X114300D01*
G01X106100Y173260D02*
X112240D01*
G01X106100Y163810D02*
X100090D01*
X99400Y164500D01*
G01X106100Y166170D02*
X101130D01*
X100100Y167200D01*
G01X114750Y180618D02*
X113797Y179665D01*
X111318D01*
X110633Y180350D01*
X106100D01*
G01Y192160D02*
X106160Y192100D01*
X112500D01*
X116100Y195700D01*
X117900D01*
G01X106100Y187430D02*
X100070D01*
G01X106100Y185070D02*
X113830D01*
G01X106100Y213420D02*
X100420D01*
G01X106100Y208690D02*
X101190D01*
X99400Y206900D01*
G01X106100Y206330D02*
X110570D01*
X111400Y205500D01*
G01X106100Y196880D02*
X100880D01*
G01X106100Y199240D02*
X99140D01*
G01X106100Y203970D02*
X100470D01*
G01X106100Y215780D02*
X100380D01*
G01X106100Y218140D02*
X100960D01*
X100500Y218600D01*
G01X106100Y222870D02*
X100470D01*
X100200Y222600D01*
G01X106100Y225230D02*
X100670D01*
X100400Y225500D01*
G01X106100Y227590D02*
X100910D01*
X100300Y228200D01*
G01X106100Y232310D02*
X101110D01*
X100500Y231700D01*
G01X115800Y248400D02*
X114300Y246900D01*
X114117D01*
X113500Y246283D01*
Y243520D01*
X109580Y239600D01*
X106300D01*
X106100Y239400D01*
G01Y244130D02*
X100630D01*
G01X106100Y246490D02*
X100690D01*
G01X106100Y253570D02*
X100930D01*
G01X106100Y265390D02*
X111690D01*
G01X106100Y258300D02*
X101000D01*
G01X106100Y260660D02*
X111260D01*
G01X106100Y274830D02*
X99530D01*
G01X106100Y272470D02*
X98670D01*
G01X106100Y267750D02*
X100650D01*
G01X106100Y281920D02*
X113720D01*
X117200Y285400D01*
G01X106100Y279560D02*
X114460D01*
X118300Y283400D01*
G01X114550Y309548D02*
X113597Y310501D01*
X112385D01*
X111935Y310951D01*
X111313D01*
X110632Y310270D01*
X106100D01*
G01X114550Y312453D02*
X113597Y311500D01*
X112799D01*
X112349Y311950D01*
X111313D01*
X110633Y312630D01*
X106100D01*
G01Y303180D02*
X113880D01*
G01X106100Y317350D02*
X98250D01*
X97200Y318400D01*
G01X106100Y305540D02*
X96860D01*
X96200Y306200D01*
G01X106100Y331530D02*
X97870D01*
G01X106100Y333890D02*
X98710D01*
X97900Y334700D01*
G01X106100Y324440D02*
X96260D01*
G01X111350Y320150D02*
X110920Y319720D01*
X106100D01*
G01Y326800D02*
X100100D01*
G01X106100Y340980D02*
X111980D01*
X117400Y346400D01*
G01X106100Y338610D02*
X100210D01*
G01X117900Y195700D02*
Y199100D01*
G01X115800Y248400D02*
X119700D01*
G01X153150Y96425D02*
X159525D01*
G01X212100Y112000D02*
X213775D01*
X211900Y110125D01*
Y106000D01*
G01X225500Y256000D02*
X228300Y258800D01*
X232400D01*
G01X246036Y249106D02*
X242542Y252600D01*
X238600D01*
G01X297314Y178611D02*
X298203Y179500D01*
X300419D01*
X300818Y179101D01*
Y177899D01*
X301217Y177500D01*
X302700D01*
G01X297314Y181389D02*
X298204Y180499D01*
X300419D01*
X300818Y180898D01*
Y182101D01*
X301217Y182500D01*
X302700D01*
G01X314582Y159548D02*
Y158382D01*
X314500Y158300D01*
G01X314582Y151652D02*
Y153218D01*
X314500Y153300D01*
G01X331068Y148632D02*
X330330Y147894D01*
Y147715D01*
G01X327532Y152168D02*
X326908D01*
X326392Y151652D01*
G01X343000Y211100D02*
Y207651D01*
X342141Y206792D01*
G01X348000Y211100D02*
Y208792D01*
X347750Y208542D01*
Y204528D01*
X346078Y202856D01*
G01X357500Y198200D02*
X354670D01*
X353952Y198918D01*
G01X357500Y203200D02*
X355588D01*
X354532Y204256D01*
X353372D01*
X352316Y203200D01*
X350359D01*
X350015Y202856D01*
G01X350815Y267430D02*
X352772D01*
X354172Y268830D01*
X367166D01*
X368302Y267694D01*
Y267669D01*
X369942Y266029D01*
X371922D01*
X374460Y263492D01*
G01X372389Y216386D02*
X371499Y215496D01*
Y213581D01*
X371898Y213182D01*
X373101D01*
X373500Y212783D01*
Y211300D01*
G01X369611Y216386D02*
X370500Y215497D01*
Y213581D01*
X370101Y213182D01*
X368899D01*
X368500Y212783D01*
Y211300D01*
G01X381400Y158100D02*
Y159414D01*
X381534Y159548D01*
G01X381400Y153100D02*
X381534Y152966D01*
Y151652D01*
G01X381800Y211300D02*
Y209898D01*
X379950Y208048D01*
Y204440D01*
X381534Y202856D01*
G01X376800Y211300D02*
Y209898D01*
X375350Y208448D01*
Y205952D01*
X376196Y205106D01*
Y202276D01*
X376800Y201672D01*
Y199714D01*
X377596Y198918D01*
G01X399100Y82200D02*
Y76200D01*
G01X392900Y82200D02*
Y85700D01*
G01X397400Y153000D02*
X397282Y152882D01*
Y151652D01*
G01X397400Y158000D02*
Y159430D01*
X397282Y159548D01*
G01X400500Y211000D02*
Y208398D01*
X399818Y207716D01*
Y205684D01*
X400500Y205002D01*
Y203574D01*
X401218Y202856D01*
G01X395500Y211000D02*
X397450Y209050D01*
X397648D01*
X398900Y207798D01*
Y200536D01*
X397282Y198918D01*
G01X495400Y260200D02*
X493300Y262300D01*
X488900D01*
G01X482800Y256100D02*
Y252600D01*
X481600Y251400D01*
G01X502000Y182400D02*
X502800Y181600D01*
Y178400D01*
G01X496000Y182400D02*
X502000D01*
G01X677500Y181900D02*
Y177400D01*
X675400Y175300D01*
G54D59*
X738720Y117933D03*
Y147067D03*
M02*
