G04 ================== begin FILE IDENTIFICATION RECORD ==================*
G04 Layout Name:  2510300_REV-D.brd*
G04 Film Name:    Mask_top.gbr*
G04 File Format:  Gerber RS274X*
G04 File Origin:  Cadence Allegro 16.6-2015-S051*
G04 Origin Date:  Tue Apr 12 06:53:55 2016*
G04 *
G04 Layer:  VIA CLASS/SOLDERMASK_TOP*
G04 Layer:  PIN/SOLDERMASK_TOP*
G04 Layer:  PACKAGE GEOMETRY/SOLDERMASK_TOP*
G04 Layer:  DRAWING FORMAT/TITLE_BLOCK*
G04 Layer:  BOARD GEOMETRY/SOLDERMASK_TOP*
G04 *
G04 Offset:    (0.00 0.00)*
G04 Mirror:    No*
G04 Mode:      Positive*
G04 Rotation:  0*
G04 FullContactRelief:  No*
G04 UndefLineWidth:     0.00*
G04 ================== end FILE IDENTIFICATION RECORD ====================*
%FSLAX25Y25*MOIN*%
%IR0*IPPOS*OFA0.00000B0.00000*MIA0B0*SFA1.00000B1.00000*%
%ADD84O,.114X.071*%
%ADD86O,.134X.07*%
%ADD72R,.063X.21*%
%ADD81O,.074X.114*%
%ADD29R,.102X.083*%
%ADD78O,.114X.074*%
%ADD66R,.14X.055*%
%ADD63R,.083X.102*%
%ADD12C,.01*%
%ADD43R,.055X.14*%
%ADD30R,.076X.12*%
%ADD21C,.03*%
%ADD15R,.12X.086*%
%ADD13R,.122X.039*%
%ADD82R,.145X.065*%
%ADD67R,.164X.064*%
%ADD39C,.025*%
%ADD17C,.07*%
%ADD79R,.065X.145*%
%ADD71R,.075X.181*%
%ADD62C,.026*%
%ADD47R,.039X.108*%
%ADD33C,.08*%
%ADD28C,.044*%
%ADD75R,.162X.077*%
%ADD50C,.018*%
%ADD42C,.072*%
%ADD88C,.064*%
%ADD65C,.065*%
%ADD60C,.075*%
%ADD46C,.039*%
%ADD41C,.095*%
%ADD64R,.065X.065*%
%AMMACRO69*
4,1,21,-.01949,.00827,
.01122,.00827,
.012656,.008144,
.014049,.007771,
.015355,.007162,
.016536,.006335,
.017555,.005316,
.018382,.004135,
.018991,.002829,
.019364,.001436,
.01949,0.0,
.019364,-.001436,
.018991,-.002829,
.018382,-.004135,
.017555,-.005316,
.016536,-.006335,
.015355,-.007162,
.014049,-.007771,
.012656,-.008144,
.01122,-.00827,
-.01949,-.00827,
-.01949,.00827,
0.0*
%
%ADD69MACRO69*%
%ADD74R,.115X.11*%
%AMMACRO70*
4,1,20,-.03248,.04724,
-.03248,-.04724,
-.01535,-.04724,
-.01535,-.0748,
-.00433,-.0748,
-.00433,-.04724,
.00433,-.04724,
.00433,-.0748,
.01535,-.0748,
.01535,-.04724,
.03248,-.04724,
.03248,.04724,
.01535,.04724,
.01535,.0748,
.00433,.0748,
.00433,.04724,
-.00433,.04724,
-.00433,.0748,
-.01535,.0748,
-.01535,.04724,
-.03248,.04724,
0.0*
%
%ADD70MACRO70*%
%ADD25R,.032X.03*%
%ADD80R,.06X.03*%
%ADD44R,.02X.025*%
%ADD16R,.03X.032*%
%ADD87C,.1*%
%ADD56R,.04X.05*%
%ADD31R,.07X.012*%
%ADD11R,.025X.02*%
%ADD49R,.07X.013*%
%ADD37C,.2*%
%ADD48R,.013X.07*%
%ADD36C,.12*%
%ADD83R,.016X.06*%
%ADD73R,.06X.015*%
%ADD35R,.05X.017*%
%ADD76R,.06X.016*%
%ADD19R,.063X.05*%
%ADD51R,.014X.054*%
%ADD20R,.05X.063*%
%ADD54R,.035X.035*%
%ADD32C,.25*%
%ADD23R,.055X.06*%
%ADD57R,.034X.054*%
%ADD45R,.014X.029*%
%ADD40R,.018X.034*%
%ADD38R,.055X.06*%
%ADD27R,.035X.035*%
%ADD24R,.06X.055*%
%ADD85R,.093X.024*%
%ADD77R,.024X.085*%
%ADD18R,.098X.04*%
%ADD55R,.085X.054*%
%ADD10R,.064X.048*%
%ADD61R,.095X.063*%
%ADD14R,.096X.044*%
%ADD53R,.35X.35*%
%ADD52R,.063X.095*%
%ADD34R,.095X.083*%
%ADD58R,.083X.095*%
%ADD26R,.098X.038*%
%ADD22R,.038X.098*%
%ADD59R,.087X.079*%
%AMMACRO68*
4,1,21,.01949,-.00827,
-.01122,-.00827,
-.012656,-.008144,
-.014049,-.007771,
-.015355,-.007162,
-.016536,-.006335,
-.017555,-.005316,
-.018382,-.004135,
-.018991,-.002829,
-.019364,-.001436,
-.01949,0.0,
-.019364,.001436,
-.018991,.002829,
-.018382,.004135,
-.017555,.005316,
-.016536,.006335,
-.015355,.007162,
-.014049,.007771,
-.012656,.008144,
-.01122,.00827,
.01949,.00827,
.01949,-.00827,
0.0*
%
%ADD68MACRO68*%
%ADD89C,.02*%
%ADD90C,.006*%
%ADD91C,.008*%
G75*
%LPD*%
G75*
G36*
G01X158000Y500D02*
Y51500D01*
G02X163000Y56500I4998J2D01*
G01X353000D01*
G02X358000Y51500I2J-4998D01*
G01Y500D01*
X158000D01*
G37*
G36*
G01X359000Y0D02*
Y51000D01*
G02X364000Y56000I4998J2D01*
G01X554000D01*
G02X559000Y51000I2J-4998D01*
G01Y0D01*
X359000D01*
G37*
G54D10*
X12480Y17500D03*
X47520D03*
G54D20*
X47000Y366000D03*
X59000D03*
X137400Y23100D03*
X132000Y165000D03*
X144000D03*
X131000Y245000D03*
X143000D03*
X149400Y23100D03*
X564200Y51800D03*
X566000Y164000D03*
X576200Y51800D03*
X578000Y164000D03*
X576000Y246000D03*
X588000D03*
X651100Y252900D03*
X661600Y7000D03*
X671000Y18000D03*
X659000D03*
X663100Y252900D03*
X673600Y7000D03*
G54D11*
X11100Y38000D03*
X16100D03*
X49500Y359000D03*
X44500D03*
X205500Y203000D03*
X210500D03*
X214500Y277000D03*
Y343000D03*
X219500Y277000D03*
Y343000D03*
X500100Y266700D03*
X505100D03*
X643500Y286000D03*
X638500D03*
G54D21*
X42000Y362000D03*
X44000Y378000D03*
X70000Y382000D03*
X111200Y353600D03*
X309100Y385400D03*
X370600Y386000D03*
X397000Y384500D03*
X409700Y385100D03*
X440500Y385000D03*
X579200Y375100D03*
X617000Y21500D03*
X607500D03*
X612500D03*
X617000Y25500D03*
Y29500D03*
X612500D03*
X607500D03*
X612500Y25500D03*
X607500D03*
X626900Y156800D03*
X652000Y132500D03*
X651500Y160500D03*
X672000Y107000D03*
Y111000D03*
X663500Y118000D03*
Y123000D03*
X658000Y132500D03*
X655000Y139500D03*
X658500Y161000D03*
X655000Y156000D03*
Y147500D03*
X670500Y248100D03*
Y255000D03*
Y251700D03*
X683500Y118500D03*
X673500Y118000D03*
Y123500D03*
X683500D03*
X688500Y162500D03*
X684500D03*
X686500Y166000D03*
X687000Y216500D03*
X686500Y244500D03*
X690000Y118500D03*
X692500Y123500D03*
X696500Y162500D03*
X692500D03*
X699500Y166000D03*
X694500D03*
X690500D03*
X706500Y206000D03*
Y200000D03*
X699500D03*
Y206000D03*
X693500Y216500D03*
X690000Y222000D03*
Y230500D03*
X693500Y244500D03*
X690000Y239000D03*
X720000Y206000D03*
Y200500D03*
X713500Y206000D03*
Y200000D03*
X720000Y246000D03*
X726500Y203500D03*
X731000Y246000D03*
X725500D03*
G54D30*
X90000Y364000D03*
G54D12*
X11100Y43100D03*
X20900Y141700D03*
X10550Y152200D03*
X18300Y160000D03*
X10550Y162700D03*
Y172300D03*
Y182400D03*
Y192700D03*
Y212700D03*
Y202400D03*
X27926Y67126D03*
X36326D03*
X31300Y99626D03*
X34600Y122500D03*
X24400Y118400D03*
X35100Y127500D03*
X27100Y150800D03*
X31400Y160000D03*
Y175000D03*
Y167500D03*
Y190000D03*
Y182500D03*
X21900Y204000D03*
Y211000D03*
X32100Y207500D03*
X31400Y200000D03*
X38600Y210900D03*
X38800Y214100D03*
X21900Y220800D03*
Y228700D03*
X30900Y225000D03*
X31100Y215000D03*
X21900Y243600D03*
X37200Y240100D03*
X28100Y244300D03*
X31500Y240000D03*
X32400Y232500D03*
X27400Y267500D03*
X34500Y295500D03*
Y317300D03*
X26668Y327632D03*
X26574Y337474D03*
X27347Y332553D03*
X26405Y342395D03*
X25084Y347316D03*
X25763Y352237D03*
X26100Y367000D03*
X24942Y357158D03*
X24379Y362079D03*
X45600Y118900D03*
X48100Y126500D03*
X39400Y126300D03*
Y110400D03*
X56800Y130600D03*
X50400Y141700D03*
X54100Y161800D03*
X52500Y154000D03*
X53900Y169600D03*
X54200Y175000D03*
X54100Y164700D03*
X54400Y172700D03*
X41000Y172300D03*
X53900Y184100D03*
X54200Y195000D03*
X53700Y180900D03*
X54000Y192200D03*
X54100Y189500D03*
X41000Y192700D03*
X40900Y181500D03*
Y183600D03*
X54000Y204200D03*
X53700Y199500D03*
X40900Y202300D03*
X53900Y220500D03*
Y228000D03*
X40100Y232300D03*
X40000Y222700D03*
X53600Y237700D03*
X53500Y240900D03*
X53600Y244100D03*
Y247300D03*
X40500Y237700D03*
X41100Y247300D03*
X43900Y259200D03*
X43932Y250132D03*
X43200Y262800D03*
X43347Y255053D03*
X54500Y263100D03*
X43400Y267500D03*
X48500Y254200D03*
X42079Y284579D03*
X43600Y271200D03*
X42037Y274737D03*
X42242Y279658D03*
X53900Y283100D03*
X46300Y276900D03*
X56300Y298100D03*
X54200Y291900D03*
Y313100D03*
X54600Y306900D03*
X48000Y336000D03*
X54400Y328100D03*
X53000Y338000D03*
X55000Y341000D03*
X71400Y9200D03*
X71000Y16200D03*
X70600Y24200D03*
X70900Y34100D03*
X66800Y41700D03*
X74200Y72200D03*
X69700Y77500D03*
X63500Y87500D03*
X60400Y93700D03*
X67650Y98850D03*
X67700Y108300D03*
X66550Y117750D03*
X67030Y122470D03*
X62426Y115374D03*
X67860Y129560D03*
X67200Y160553D03*
Y157648D03*
X56900Y151100D03*
Y160800D03*
X63100Y153600D03*
X68440Y148460D03*
X56900Y171300D03*
X63100Y163100D03*
Y172600D03*
X67300Y164100D03*
X66400Y195700D03*
X56900Y191400D03*
Y181700D03*
X63100Y182300D03*
Y192600D03*
X68300Y211100D03*
X68000Y214100D03*
X65100Y213300D03*
X65200Y210900D03*
X66100Y206500D03*
X66200Y204100D03*
X66100Y201400D03*
Y198800D03*
X56900Y201300D03*
Y210700D03*
X68240Y216960D03*
X68100Y220600D03*
X67400Y224500D03*
X66700Y227000D03*
X56900Y221100D03*
X61600Y227800D03*
X66520Y238220D03*
X63350Y245350D03*
X61600Y266900D03*
X66000Y262000D03*
X61100Y275400D03*
X66100Y300600D03*
X62000Y300000D03*
X66000Y329000D03*
X61050Y322050D03*
X62000Y342000D03*
X87000Y20600D03*
X81000Y61300D03*
X80300Y104200D03*
X81100Y107300D03*
X90800Y98000D03*
X80110Y96490D03*
X80610Y101210D03*
X83000Y93000D03*
X84800Y113293D03*
X84000Y109800D03*
X81400Y125300D03*
X82800Y116300D03*
X82200Y120900D03*
X85000Y136371D03*
Y139290D03*
X90800Y136400D03*
X83230Y141370D03*
X81980Y134280D03*
X81730Y143730D03*
X80020Y131920D03*
X81600Y128200D03*
X81480Y153180D03*
X80300Y146500D03*
X80260Y155540D03*
X84000Y157000D03*
X79620Y150820D03*
X84600Y163500D03*
X81000Y172400D03*
X86400Y178000D03*
X79440Y174440D03*
X81200Y176800D03*
X79420Y169720D03*
X79590Y164990D03*
X80550Y167350D03*
X84500Y195700D03*
X82500Y182500D03*
Y192500D03*
X81850Y186250D03*
X79590Y183890D03*
X80590Y188610D03*
X81800Y180000D03*
X80000Y207200D03*
X82250Y205150D03*
X79240Y198060D03*
X79190Y202790D03*
X82500Y202500D03*
Y210000D03*
X79330Y209870D03*
X79370Y200430D03*
X82500Y225000D03*
Y217500D03*
X81470Y228770D03*
X80550Y220950D03*
X79170Y231130D03*
X82500Y247500D03*
Y232500D03*
Y240000D03*
X83440Y235860D03*
X80590Y245310D03*
X81850Y242950D03*
X79770Y247670D03*
X80800Y238000D03*
X79800Y234100D03*
X85200Y254000D03*
X84200Y251200D03*
X83400Y257700D03*
X83100Y260500D03*
X82810Y264210D03*
X82600Y255200D03*
X80070Y266570D03*
X80500Y253800D03*
Y262300D03*
X81790Y271290D03*
X79400Y274400D03*
X84600Y274900D03*
X84440Y280740D03*
X82120Y278380D03*
X87700Y284200D03*
X81800Y275000D03*
X84370Y268930D03*
X79900Y302000D03*
X83800Y296200D03*
X75000Y296000D03*
X85470Y316170D03*
X81850Y308818D03*
Y311723D03*
X85800Y319200D03*
X90760Y304360D03*
X79900Y318520D03*
Y313790D03*
Y306700D03*
X81270Y335070D03*
X83626Y325027D03*
X82850Y330350D03*
X86600Y328300D03*
X88900Y335100D03*
X86250Y322050D03*
X79900Y337410D03*
Y332690D03*
Y325600D03*
X85200Y339800D03*
X81840Y342160D03*
X79900Y344500D03*
X88000Y360000D03*
Y368000D03*
X90000Y364000D03*
X79000Y374000D03*
Y378000D03*
Y381000D03*
X106000Y9900D03*
X103100Y11400D03*
X105300Y38800D03*
X109000Y21900D03*
X107200Y61200D03*
X98600Y90000D03*
X103000Y84000D03*
X99000Y96500D03*
X100080Y107120D03*
X99020Y109480D03*
X99970Y100030D03*
X99510Y121290D03*
X97130Y118930D03*
X100010Y126010D03*
X100200Y114200D03*
X94000Y140000D03*
X97400Y140300D03*
X100180Y128380D03*
X98240Y154360D03*
X95000Y149600D03*
X100610Y144910D03*
X97000Y156600D03*
X100300Y152000D03*
X97000Y172500D03*
X99400Y164500D03*
X100100Y167200D03*
X100880Y196880D03*
X100070Y187430D03*
X97400Y192500D03*
X96900Y182500D03*
X100420Y213420D03*
X99400Y206900D03*
X99140Y199240D03*
X100470Y203970D03*
X97900Y210000D03*
X97100Y202500D03*
X100380Y215780D03*
X100500Y218600D03*
X100200Y222600D03*
X100400Y225500D03*
X100300Y228200D03*
X100500Y231700D03*
X97400Y225000D03*
X96700Y217500D03*
X100630Y244130D03*
X100690Y246490D03*
X96900Y247500D03*
X97100Y240000D03*
Y232500D03*
X100300Y239900D03*
X100930Y253570D03*
X101000Y258300D03*
X97300Y257500D03*
X100680Y263020D03*
X99530Y274830D03*
X98670Y272470D03*
X100650Y267750D03*
X100800Y277200D03*
X93600Y277900D03*
X100300Y296000D03*
X102000Y293000D03*
X97200Y318400D03*
X96200Y306200D03*
X99700Y314100D03*
X97870Y331530D03*
X97900Y334700D03*
X96260Y324440D03*
X100100Y326800D03*
X100060Y329160D03*
X94000Y335000D03*
X100210Y338610D03*
X100240Y343340D03*
X92000Y360000D03*
Y368000D03*
X110100Y31100D03*
X111850Y42450D03*
X111000Y49900D03*
X117500Y83800D03*
X111800Y90000D03*
X124065Y109025D03*
Y96425D03*
Y99575D03*
X114100Y108900D03*
X112550Y104760D03*
X124065Y105875D03*
X122100Y101400D03*
X117800Y96300D03*
X124065Y118475D03*
Y124775D03*
X112550Y123650D03*
Y116570D03*
Y111840D03*
X124065Y115325D03*
X123625Y121625D03*
X124065Y134225D03*
Y137375D03*
X115439Y135739D03*
Y132820D03*
X124065Y143675D03*
X112550Y142550D03*
Y137830D03*
Y130740D03*
X124065Y127925D03*
X122625Y140525D03*
X124065Y156275D03*
Y153125D03*
Y146825D03*
X117500Y159800D03*
X112550Y161450D03*
Y156720D03*
Y149640D03*
X124575Y149975D03*
X117500Y145900D03*
X124065Y175175D03*
Y178325D03*
X114750Y177713D03*
X120000Y165000D03*
X114300Y170900D03*
X112240Y173260D03*
X112550Y175620D03*
Y168530D03*
X124065Y197225D03*
Y194075D03*
X114750Y180618D03*
X124065Y187775D03*
Y184625D03*
X112550Y194520D03*
X113830Y185070D03*
X124065Y190925D03*
Y181475D03*
X112550Y189790D03*
Y182710D03*
X117900Y186700D03*
X111400Y205500D03*
X124065Y203525D03*
Y206675D03*
Y212975D03*
X117900Y199100D03*
X112550Y211050D03*
Y201610D03*
X124065Y209825D03*
Y200375D03*
X114700Y199100D03*
X124065Y216125D03*
Y231875D03*
X112050Y229950D03*
X112300Y220500D03*
X124065Y228725D03*
Y219275D03*
Y225575D03*
Y222425D03*
Y235025D03*
X119700Y248400D03*
X112240Y237040D03*
X121000Y242200D03*
X111690Y265390D03*
X111260Y260660D03*
X112340Y255940D03*
X114200Y252000D03*
X124065Y266525D03*
Y253925D03*
Y257075D03*
Y263375D03*
X118300Y283400D03*
X117500Y272900D03*
X113010Y270110D03*
X124065Y282275D03*
Y272825D03*
Y275975D03*
Y301175D03*
Y294875D03*
Y291725D03*
X117200Y285400D03*
X111000Y287000D03*
X115800Y288800D03*
X117500Y300300D03*
X112000Y296500D03*
X124065Y285425D03*
X121675Y288575D03*
X120425Y298025D03*
X114550Y309548D03*
Y312453D03*
X113880Y303180D03*
X111350Y320150D03*
X124065Y304325D03*
Y310625D03*
Y313775D03*
X113200Y307900D03*
X124025Y307475D03*
X119000Y314900D03*
X112750Y336250D03*
X112500Y323800D03*
X117400Y346400D03*
X112500Y345700D03*
X138200Y15500D03*
X140250Y27350D03*
X143050Y62150D03*
X141870Y94600D03*
Y113850D03*
X137225Y112175D03*
X141870Y138850D03*
X136600Y130200D03*
X141870Y158100D03*
X130590Y149975D03*
X141870Y173350D03*
Y192600D03*
X144600Y211000D03*
X141870Y217600D03*
Y236850D03*
X141770Y252000D03*
X138000Y253000D03*
X137275Y260225D03*
X141870Y271350D03*
X138100Y276400D03*
X137325Y269675D03*
X141870Y296350D03*
Y315600D03*
X149900Y36600D03*
X155700Y23100D03*
X146200Y40900D03*
X155100Y40500D03*
X146200Y56100D03*
X159675Y105875D03*
Y99575D03*
X159525Y96425D03*
X159675Y109025D03*
X160825Y102725D03*
X159675Y118475D03*
Y124775D03*
Y115325D03*
X160875Y121625D03*
X159275Y112175D03*
X159675Y134225D03*
Y127925D03*
Y137375D03*
Y143675D03*
X160225Y140525D03*
X160925Y131075D03*
X159675Y156275D03*
Y146825D03*
Y153125D03*
X160675Y149975D03*
X159675Y175175D03*
Y178325D03*
Y184625D03*
Y197225D03*
Y187775D03*
Y194075D03*
Y190925D03*
Y181475D03*
X145600Y195700D03*
X159675Y212975D03*
Y200375D03*
Y209825D03*
Y203525D03*
Y206675D03*
X146200Y203400D03*
X146100Y198300D03*
X145000Y206000D03*
X146200Y213600D03*
X145000Y201000D03*
X146900Y208400D03*
X159675Y225575D03*
Y216125D03*
Y231875D03*
Y222425D03*
Y219275D03*
Y228725D03*
X146500Y218500D03*
X146600Y221000D03*
X144700Y223000D03*
X146500Y228500D03*
X146000Y225000D03*
X144700Y215900D03*
X159675Y235025D03*
X160000Y242000D03*
X159675Y263375D03*
Y253925D03*
Y266525D03*
Y257075D03*
Y260225D03*
Y275975D03*
Y282275D03*
Y272825D03*
Y294875D03*
Y301175D03*
Y291725D03*
Y285425D03*
X160225Y298025D03*
X159375Y288575D03*
X159675Y304325D03*
X160225Y313775D03*
X159675Y310625D03*
X160225Y307475D03*
X172100Y71300D03*
X166000Y72400D03*
X170000Y77000D03*
X171700Y93000D03*
X165300Y103000D03*
X166700Y112000D03*
X165700Y131500D03*
X177200Y151900D03*
X170400Y147800D03*
X177500Y213500D03*
X163000Y227000D03*
Y230000D03*
X177500Y218500D03*
X162500Y237500D03*
X163000Y233000D03*
X177500Y265000D03*
X170000Y274700D03*
X163400Y279125D03*
X162475Y269675D03*
X173100Y308000D03*
X166900Y306400D03*
X178334Y380066D03*
X192300Y52300D03*
X185000Y72100D03*
X184700Y80900D03*
X181900Y101700D03*
X180200Y164000D03*
X186900Y196000D03*
X193800Y196900D03*
X186900Y198500D03*
X187000Y211000D03*
X186900Y206000D03*
Y208500D03*
X195000Y229200D03*
X186000Y216000D03*
X186500Y228500D03*
X192000Y229000D03*
X187000Y225000D03*
X191000Y232000D03*
X187000Y221000D03*
X195000Y243000D03*
X191000Y239000D03*
X188000Y242000D03*
Y235000D03*
X186500Y238500D03*
X180350Y290350D03*
X197000Y319000D03*
Y324000D03*
X194000Y343000D03*
X184000D03*
X191953Y337953D03*
X211900Y106000D03*
X200950Y121050D03*
X212000Y119000D03*
X205900Y114200D03*
X200500Y141079D03*
Y131236D03*
X199100Y146600D03*
X200500Y160764D03*
Y150921D03*
X197600Y166100D03*
X211624Y172476D03*
X200900Y180600D03*
X207100Y180000D03*
X205800Y185800D03*
X205551Y212402D03*
X214600Y201500D03*
X208701Y212402D03*
X203500Y204600D03*
X211850Y212402D03*
X205551Y231299D03*
X208701Y228150D03*
X211850D03*
Y231299D03*
Y221850D03*
X208701Y218701D03*
X211850D03*
X208701Y215551D03*
X205551Y221850D03*
X199800Y219300D03*
X205551Y218701D03*
X199200Y216700D03*
X208701Y231299D03*
X205551Y228150D03*
Y215551D03*
X208701Y221850D03*
X211850Y215551D03*
X205551Y234449D03*
X214804Y241195D03*
X208701Y237598D03*
X205551D03*
X208701Y234449D03*
X211850D03*
Y237598D03*
X209000Y253000D03*
X202000Y273000D03*
X213900D03*
X201200Y340000D03*
X210000Y342000D03*
X209000Y347000D03*
X203000Y356000D03*
X209000Y371600D03*
X206600Y373100D03*
X217600Y70300D03*
X223600Y70200D03*
X224900Y84900D03*
X232350Y90050D03*
X230047Y124753D03*
X226110Y124890D03*
X216800Y124300D03*
X221700Y114100D03*
X222000Y124800D03*
X219700D03*
X225000Y138000D03*
X217000D03*
X225000Y130000D03*
X217000D03*
X225000Y154500D03*
X217000D03*
X225000Y162000D03*
X217000D03*
Y146000D03*
X225000D03*
X225800Y178400D03*
X217200Y167500D03*
X223500D03*
X220205Y167505D03*
X215900Y191300D03*
X226000Y187000D03*
Y182000D03*
X221299Y212402D03*
X218150D03*
X224449D03*
X222800Y209800D03*
X221299Y221850D03*
Y228150D03*
Y231299D03*
X218150Y228150D03*
Y231299D03*
Y221850D03*
Y218701D03*
X224449Y215551D03*
Y218701D03*
X221299D03*
Y215551D03*
X224449Y228150D03*
Y231299D03*
X218150Y215551D03*
X224449Y221850D03*
X221299Y234449D03*
Y237598D03*
X224449D03*
X218150D03*
X224449Y234449D03*
X227700Y239700D03*
X224500Y247800D03*
X218150Y234449D03*
X228000Y264000D03*
X227400Y250500D03*
X225500Y256000D03*
X223000Y277000D03*
X228000Y279000D03*
X219500Y311300D03*
X221000Y315000D03*
X224000D03*
X228100Y330900D03*
X219100Y356000D03*
X221000Y357300D03*
X238000Y56300D03*
X238800Y72900D03*
X240200Y56900D03*
X233984Y124984D03*
X241000Y114000D03*
X238000Y126600D03*
X243827Y125873D03*
X249200Y126700D03*
X246300Y126100D03*
X241000Y138000D03*
X249000D03*
X233000D03*
X241000Y130000D03*
X249000D03*
X233000D03*
X241000Y154500D03*
X249000D03*
X233000D03*
X241000Y162000D03*
X249000D03*
X233000D03*
X249000Y146000D03*
X241000D03*
X233000D03*
X233984Y179000D03*
X235953Y167800D03*
X247764Y167500D03*
X241858Y168042D03*
X237700Y183900D03*
X246000Y210900D03*
X249500Y199000D03*
X240100Y205300D03*
X233400Y231900D03*
X246036Y249106D03*
X246400Y263900D03*
X240000Y264000D03*
X247900Y250700D03*
X238800Y273000D03*
X241000D03*
X240016Y284984D03*
X240000Y274900D03*
X241984Y285984D03*
X237900Y296900D03*
X247500Y341100D03*
X244000Y345000D03*
X238634Y363334D03*
X233100Y371600D03*
X237100Y375300D03*
X267000Y63500D03*
X262300Y59300D03*
X263000Y78000D03*
X258550Y117550D03*
X253000Y124000D03*
X251100Y125600D03*
X253700Y127299D03*
X265900Y141100D03*
X267500Y130900D03*
X265900Y136500D03*
X265716Y146984D03*
X265900Y160764D03*
Y150921D03*
X265200Y166300D03*
X256800Y173900D03*
X259800Y175900D03*
X255500Y177000D03*
X253100Y184200D03*
X252200Y192100D03*
X266100Y187000D03*
X259100Y195600D03*
X262400Y213500D03*
X252900Y208400D03*
X255000Y244000D03*
X253000Y264000D03*
X255900Y272900D03*
X258300Y291500D03*
X263400Y333500D03*
X272200Y62800D03*
X275100Y73000D03*
X270000Y168500D03*
X272900Y194900D03*
X267700Y190500D03*
X282300Y192000D03*
X271200Y209300D03*
X272900Y206800D03*
X281800Y198000D03*
X279100Y207100D03*
X281600Y226200D03*
X284400Y239500D03*
X278950Y249850D03*
X283800Y236800D03*
X279050Y260550D03*
X270500Y265200D03*
X273000Y266000D03*
X281000Y271700D03*
X283600Y272200D03*
X275900Y270400D03*
X274200Y290100D03*
X276900Y300800D03*
X281400Y298100D03*
X277000Y317300D03*
X276500Y335350D03*
X278500Y326000D03*
X278921Y336122D03*
X277150Y347150D03*
X285000Y344000D03*
X280400Y365600D03*
X269650Y367850D03*
X277050Y357850D03*
X286000Y66000D03*
X298000Y73000D03*
X302300Y123600D03*
X301400Y145100D03*
X297314Y178611D03*
X293600Y169100D03*
X297314Y181389D03*
X297000Y184700D03*
Y206900D03*
X295696Y231996D03*
X299634D03*
Y228059D03*
X291759Y231996D03*
X295696Y228059D03*
Y247744D03*
Y243808D03*
X291759Y247744D03*
X299634Y239870D03*
X291759D03*
Y235934D03*
X295696D03*
X288900Y248100D03*
X288700Y241900D03*
X295696Y239870D03*
X299634Y247744D03*
Y243808D03*
Y235934D03*
X291759Y243808D03*
X295696Y251682D03*
X291759Y259556D03*
Y255618D03*
X299634Y263492D03*
Y259556D03*
X295696Y267430D03*
Y255618D03*
X291759Y263492D03*
X295696D03*
X299634Y251682D03*
X288800Y256900D03*
Y263100D03*
X291759Y251682D03*
X295696Y259556D03*
X299634Y267430D03*
X291759D03*
X299634Y255618D03*
X295696Y271366D03*
X299634Y283178D03*
X291759Y279241D03*
Y275304D03*
X299634Y279241D03*
X295696Y283178D03*
X291759D03*
X299634Y275304D03*
Y271366D03*
X295696Y275304D03*
X288800Y279400D03*
X291759Y271366D03*
X295696Y279241D03*
X291759Y287115D03*
X295696Y298948D03*
X299634Y291052D03*
Y298948D03*
X291759D03*
X295696Y291052D03*
Y287115D03*
X289100Y291900D03*
X299634Y287115D03*
X291759Y291052D03*
X289200Y287900D03*
X299634Y314696D03*
X291759Y318634D03*
X299634Y302885D03*
Y318634D03*
Y310759D03*
X295696Y302885D03*
X291759Y314696D03*
Y306822D03*
X295696Y310759D03*
X299634Y306822D03*
X291759Y302885D03*
X295696Y306822D03*
X291759Y310759D03*
X295696Y314696D03*
Y318634D03*
X291759Y322570D03*
X295696Y330444D03*
X288400Y334400D03*
X288900Y325600D03*
X291759Y326508D03*
X295696Y322570D03*
X299634Y330444D03*
X291759Y334382D03*
Y330444D03*
X295696Y326508D03*
Y334382D03*
X299634D03*
Y322570D03*
Y326508D03*
X295696Y354066D03*
X291759Y350129D03*
X299634Y354066D03*
X295696Y350130D03*
Y342256D03*
X299634Y350130D03*
X291759Y354066D03*
Y342256D03*
X295696Y338318D03*
Y346192D03*
X299634Y338318D03*
X291759D03*
Y346192D03*
X299634Y342256D03*
Y346192D03*
Y361941D03*
X295696Y358004D03*
X291759D03*
X299634D03*
X295696Y361941D03*
X291759D03*
X318000Y86000D03*
X306708Y108344D03*
X310644D03*
Y104408D03*
X318518D03*
Y108344D03*
X306708Y104408D03*
X303000Y101000D03*
X314582Y108344D03*
Y104408D03*
X306708Y112282D03*
Y116218D03*
Y120156D03*
X310644Y116218D03*
Y120156D03*
Y124092D03*
X318518D03*
X314582Y116218D03*
X318518Y112282D03*
X314582D03*
X318518Y116218D03*
Y120156D03*
X314582Y124092D03*
X306708D03*
X310644Y112282D03*
X314582Y120156D03*
X306708Y131966D03*
X314582Y143778D03*
X310644Y139841D03*
X306708D03*
X318518Y135904D03*
X310644D03*
X314582Y128030D03*
Y135904D03*
X306708D03*
X310644Y128030D03*
X318518Y143778D03*
Y139841D03*
X314582Y131966D03*
X310644Y143778D03*
X318518Y131966D03*
X306708Y128030D03*
Y143778D03*
X314582Y139841D03*
X318518Y128030D03*
X310644Y131966D03*
X318518Y151652D03*
X314582Y147715D03*
Y159548D03*
Y151652D03*
X318518Y159548D03*
X310644D03*
Y147715D03*
X306708Y159548D03*
Y147715D03*
Y151652D03*
X310644D03*
X303900Y152500D03*
X318518Y147715D03*
Y179234D03*
Y175296D03*
Y163485D03*
X306708Y179234D03*
Y175296D03*
Y171359D03*
X314582Y179234D03*
X310644Y171359D03*
Y163485D03*
X314582Y175296D03*
Y171359D03*
X310644Y167422D03*
X306708Y163485D03*
X310644Y179234D03*
X318518Y171359D03*
X306708Y167422D03*
X314582Y163485D03*
X310644Y175296D03*
X314582Y167422D03*
X318518D03*
Y194982D03*
Y183170D03*
X314582Y194982D03*
X318518Y187108D03*
X310644D03*
Y183170D03*
X306708D03*
X310644Y194982D03*
X306708Y187108D03*
X314582Y183170D03*
X318518Y191044D03*
X314582Y187108D03*
X306708Y194982D03*
Y191044D03*
X310644D03*
X314582D03*
X306708Y202856D03*
X310644D03*
Y198918D03*
X314582Y206792D03*
X318518Y198918D03*
X314582D03*
X318518Y202856D03*
X310644Y206792D03*
X306708D03*
X314582Y202856D03*
X306708Y198918D03*
X318518Y206792D03*
X315382Y228059D03*
X311444D03*
X307508D03*
X303570D03*
X319318Y231996D03*
X315382D03*
X307508D03*
X303570D03*
X319318Y228059D03*
X308000Y216000D03*
X311444Y231996D03*
X303570Y243807D03*
X307507Y247744D03*
X315381D03*
Y243807D03*
X311444D03*
X319318D03*
X311444Y247744D03*
X303570D03*
X319318Y235934D03*
X315382D03*
X311444D03*
X307508D03*
X319318Y239870D03*
X311444D03*
X307508D03*
X303570D03*
Y235934D03*
X315382Y239870D03*
X307508Y243808D03*
X319318Y247744D03*
X307507Y255618D03*
Y251681D03*
Y259555D03*
X311444Y263492D03*
X303570Y267429D03*
X307507D03*
X311444D03*
X315381Y263492D03*
X303570Y259555D03*
X315381Y267429D03*
X319318Y263492D03*
Y259555D03*
X303570Y263492D03*
Y251681D03*
X311444Y255618D03*
Y259555D03*
X315381Y251681D03*
Y255618D03*
X311444Y251682D03*
X307508Y263492D03*
X319318Y267430D03*
X303570Y255618D03*
X315382Y259556D03*
X319318Y255618D03*
Y251681D03*
X315381Y271366D03*
Y275304D03*
X319318Y271366D03*
Y275304D03*
X303571Y279241D03*
X311444Y275304D03*
X303570Y271366D03*
X307507D03*
Y275304D03*
X319319Y283179D03*
X315382D03*
X311445D03*
X319319Y279241D03*
X303570Y275304D03*
X315382Y279241D03*
X311444Y271366D03*
X307508Y283178D03*
Y279241D03*
X303571Y283179D03*
X311445Y279241D03*
X315382Y291053D03*
X307507Y291052D03*
X307508Y287115D03*
X319319Y291053D03*
X315382Y287115D03*
X307508Y298948D03*
X311445Y287115D03*
X303570Y291052D03*
X315382Y298948D03*
X319319D03*
X311445D03*
X311444Y291052D03*
X319318Y287115D03*
X303570Y298948D03*
X303571D03*
Y287115D03*
X307508Y310760D03*
X303571Y302886D03*
X307508Y314696D03*
X303571D03*
Y306822D03*
Y310760D03*
X311445D03*
X319319Y302886D03*
X311445D03*
X311444Y314696D03*
X315382Y306822D03*
X311445Y318634D03*
X315382Y310760D03*
X307508Y302886D03*
Y306822D03*
X319318Y310759D03*
X303570Y318634D03*
X311445Y306822D03*
X319319Y314696D03*
X315382D03*
X319319Y318634D03*
X315382D03*
X307508D03*
X315382Y302885D03*
Y302886D03*
X319319Y306822D03*
X307508Y322571D03*
X303571D03*
X307508Y326508D03*
X319318Y330445D03*
Y330444D03*
X315382Y326508D03*
Y330445D03*
X303571D03*
X307508Y334382D03*
X315382Y322570D03*
X311444Y334382D03*
X311445Y330445D03*
Y322571D03*
X303571Y334382D03*
X311445Y326508D03*
X303571D03*
X307508Y330445D03*
X315382Y334382D03*
X319319D03*
Y326508D03*
Y322571D03*
X315382Y350130D03*
X311444D03*
X307508D03*
X303570D03*
X319318Y354066D03*
X315382D03*
X307508D03*
X303570D03*
X311445Y346193D03*
X319319Y338319D03*
X311445Y342256D03*
X303570Y338318D03*
Y338319D03*
X315382Y342256D03*
X315381D03*
X315382Y338318D03*
Y346193D03*
X311445Y338319D03*
X319319Y342256D03*
Y346193D03*
X303571D03*
X307508Y342256D03*
Y346192D03*
X319318Y350130D03*
X311444Y354066D03*
X307508Y338319D03*
X303571Y342256D03*
X319318Y361941D03*
X311444D03*
X319318Y358004D03*
X315382D03*
X311444D03*
X307508D03*
Y361941D03*
X303570D03*
Y358004D03*
X315382Y361941D03*
X314900Y369300D03*
X306150Y369250D03*
X332300Y71700D03*
X334700Y75100D03*
X324000Y86000D03*
X322456Y108344D03*
X326392D03*
X322456Y104408D03*
X326392D03*
X334266Y108344D03*
X330330D03*
Y104408D03*
X334266D03*
X326392Y120156D03*
X322456D03*
Y124092D03*
X330330Y120156D03*
Y124092D03*
X326392Y116218D03*
X322456Y112282D03*
X326392D03*
X334266Y120156D03*
X322456Y116218D03*
X326392Y124092D03*
X330330Y112282D03*
X334266Y116218D03*
X330330D03*
X334266Y124092D03*
Y112282D03*
X326392Y139841D03*
X322456Y131966D03*
X330330Y128030D03*
Y139841D03*
X322456Y128030D03*
X326392Y131966D03*
X322456Y139841D03*
Y143778D03*
X326392Y128030D03*
X330330Y143778D03*
Y135904D03*
X326392D03*
Y143778D03*
X334266D03*
Y135904D03*
X330330Y131966D03*
X334266Y139841D03*
Y131966D03*
X322456Y135904D03*
X334266Y128030D03*
X326392Y147715D03*
X330330D03*
X326392Y151652D03*
X322456Y147715D03*
X326392Y159548D03*
X330330D03*
X322456Y151652D03*
Y159548D03*
X330330Y151652D03*
X334266D03*
Y159548D03*
Y147715D03*
X330330Y179234D03*
X326392Y171359D03*
X322456Y175296D03*
X326392D03*
X330330Y171359D03*
X326392Y179234D03*
X330330Y163485D03*
Y167422D03*
Y175296D03*
X334266Y171359D03*
Y163485D03*
Y175296D03*
Y167422D03*
X322456Y179234D03*
X326392Y167422D03*
X334266Y179234D03*
X322456Y163485D03*
X326392D03*
X322456Y167422D03*
Y171359D03*
X326392Y183170D03*
X330330D03*
X322456D03*
Y194982D03*
X326392D03*
X322456Y187108D03*
Y191044D03*
X326392D03*
Y187108D03*
X334266Y183170D03*
X330330Y194982D03*
X334266Y191044D03*
Y187108D03*
Y194982D03*
X330330Y191044D03*
Y187108D03*
X326392Y198918D03*
Y202856D03*
X322456D03*
X330330Y198918D03*
X334266Y206792D03*
X326392D03*
X334266Y202856D03*
X322456Y198918D03*
Y206792D03*
X334266Y198918D03*
X330330Y202856D03*
Y206792D03*
X335066Y228059D03*
X331130D03*
X327192D03*
X323256D03*
X335066Y231996D03*
X327192D03*
X323256D03*
X331130D03*
X323255Y247744D03*
Y243807D03*
X335066Y235934D03*
X331130D03*
X327192D03*
X331130Y239870D03*
X327192D03*
X323256D03*
X335066Y243808D03*
X331130D03*
X335066Y247744D03*
X331130D03*
X327192D03*
Y243808D03*
X335066Y239870D03*
X323256Y235934D03*
X335066Y263492D03*
X331129Y255618D03*
Y259555D03*
X327192D03*
X323255D03*
X327192Y267429D03*
X323255Y263492D03*
Y251681D03*
X327192Y255618D03*
X335066D03*
Y251682D03*
X331129Y267429D03*
X327192Y251681D03*
X331129Y263492D03*
X323256Y255618D03*
X335066Y259556D03*
X327192Y263492D03*
X335066Y267430D03*
X331130Y251682D03*
X323255Y267429D03*
X323256Y283179D03*
X331130D03*
X327193Y271367D03*
Y279241D03*
X331130D03*
Y275305D03*
X323256Y279241D03*
X327193Y275305D03*
X331130Y271366D03*
X335066Y275304D03*
Y283178D03*
X327192D03*
X335066Y271366D03*
Y279241D03*
X323256Y275304D03*
Y271367D03*
Y287115D03*
X327193Y291053D03*
Y287115D03*
X331130D03*
X323256Y291053D03*
X331130Y298948D03*
X335066Y291052D03*
X323256Y298948D03*
X331130Y291052D03*
X335066Y287115D03*
Y298948D03*
X327193D03*
Y302886D03*
X323256D03*
X331130Y306822D03*
Y318634D03*
X327193D03*
Y314696D03*
X331130D03*
X335066Y302885D03*
X327192Y306822D03*
X335066Y310759D03*
Y318634D03*
X323256D03*
X335066Y306822D03*
Y314696D03*
X331130Y310760D03*
X323256Y314696D03*
Y310760D03*
Y306822D03*
X331130Y302886D03*
X327193Y310760D03*
X335067Y330445D03*
Y326508D03*
X327193Y330445D03*
X323256Y322571D03*
X323255Y326507D03*
X323256Y334382D03*
X335066D03*
X327192Y322570D03*
X323256Y330445D03*
X331130Y322571D03*
X327193Y334382D03*
X331130Y330445D03*
Y326508D03*
Y334382D03*
X327192Y326508D03*
X335066Y322570D03*
Y346192D03*
X331130D03*
X335066Y350130D03*
X331130D03*
X327192D03*
X323256D03*
X335066Y354066D03*
X327192D03*
X323256D03*
X335066Y338318D03*
X331130D03*
Y342256D03*
X327193D03*
X323256D03*
Y346193D03*
X327193Y338319D03*
X331130Y354066D03*
X323256Y338318D03*
X335066Y342256D03*
X327192Y346192D03*
X331130Y361941D03*
X327192D03*
X323256D03*
X335066Y358004D03*
X331130D03*
X327192D03*
X332400Y369700D03*
X335066Y361941D03*
X323256Y358004D03*
X346000Y85000D03*
X338204Y108344D03*
X346078Y104408D03*
X338204D03*
X342141Y108344D03*
Y104408D03*
X346078Y108344D03*
X350015D03*
X353952D03*
X350015Y104408D03*
X353952D03*
Y112282D03*
Y124092D03*
X346078D03*
X350015Y112282D03*
X353952Y120156D03*
X342141Y116218D03*
X350015Y124092D03*
X346078Y112282D03*
X342141D03*
Y120156D03*
Y124092D03*
X346078Y116218D03*
Y120156D03*
X338204Y124092D03*
Y120156D03*
Y116218D03*
X350015Y120156D03*
Y116218D03*
X353952D03*
X338204Y112282D03*
X353952Y128030D03*
X342141Y143778D03*
X350015D03*
X338204Y139841D03*
X353952D03*
X342141Y135904D03*
X338204Y131966D03*
X353952D03*
X350015D03*
X338204Y128030D03*
X350015D03*
X346078D03*
X342141D03*
Y131966D03*
X350015Y135904D03*
X346078Y139841D03*
Y135904D03*
X338204Y143778D03*
X346078D03*
X353952D03*
X342141Y139841D03*
X350015D03*
X338204Y135904D03*
X353952D03*
X346078Y131966D03*
X338204Y159548D03*
X346078D03*
X353952D03*
X342141Y151652D03*
X350015D03*
X353952D03*
X338204Y147715D03*
X346078D03*
X353952D03*
X342141Y159548D03*
X350015D03*
X338204Y151652D03*
X346078D03*
X342141Y147715D03*
X350015D03*
X353952Y179234D03*
X342141D03*
X338204Y175296D03*
X353952D03*
X350015Y171359D03*
X338204Y167422D03*
X346078D03*
X353952D03*
X342141Y163485D03*
X350015D03*
X353952D03*
X350015Y179234D03*
X346078D03*
X338204D03*
X342141Y175296D03*
X346078D03*
X342141Y171359D03*
X346078D03*
X350015Y175296D03*
X338204Y171359D03*
X353952D03*
X342141Y167422D03*
X350015D03*
X338204Y163485D03*
X346078D03*
X350015Y191044D03*
X353952Y194982D03*
Y191044D03*
Y187108D03*
X338204Y194982D03*
X346078D03*
X342141D03*
X350015D03*
X338204Y191044D03*
X353952Y183170D03*
X346078Y187108D03*
X350015Y183170D03*
Y187108D03*
X338204Y183170D03*
X346078Y191044D03*
Y183170D03*
X342141Y187108D03*
X338204D03*
X342141Y191044D03*
Y183170D03*
Y206792D03*
X350015Y198918D03*
X346078Y202856D03*
Y198918D03*
X338204D03*
Y202856D03*
X342141D03*
X353952Y206792D03*
Y198918D03*
X350015Y206792D03*
Y202856D03*
X338204Y206792D03*
X346078D03*
X353952Y202856D03*
X342141Y198918D03*
X354752Y228059D03*
X350815D03*
X346878D03*
X342941D03*
X354752Y231996D03*
X346878D03*
X342941D03*
X339004D03*
Y228059D03*
X345000Y216000D03*
X350815Y231996D03*
X354752Y235934D03*
X350815D03*
X346878D03*
X339004D03*
X350815Y239870D03*
X346878D03*
X342941D03*
X339004D03*
X354752Y243808D03*
X350815D03*
X342941D03*
X339004D03*
X354752Y247744D03*
X350815D03*
X346878D03*
X342941D03*
X339004D03*
X342941Y235934D03*
X354752Y239870D03*
X346878Y243808D03*
X342941Y263493D03*
X339004Y259556D03*
X354752Y255618D03*
X350815D03*
X354752Y251682D03*
X346878D03*
X342941D03*
X339004D03*
X342941Y267430D03*
X339005Y263493D03*
X346879Y259556D03*
Y267430D03*
X339004Y255618D03*
X350815Y251682D03*
X346878Y263492D03*
X342941Y255618D03*
X354752Y259556D03*
X339004Y267430D03*
X350815D03*
X346878Y255618D03*
X342941Y259556D03*
X354752Y267430D03*
X350815Y263493D03*
Y259556D03*
X354753Y263493D03*
X346879Y271367D03*
X354752Y271366D03*
X350815Y275304D03*
X342941D03*
X354752Y279241D03*
X346878D03*
X350815Y283178D03*
X342941D03*
X350815Y271366D03*
X354752Y275304D03*
X346878D03*
X350815Y279241D03*
X342941D03*
X354752Y283178D03*
X346878D03*
X339004D03*
X339005Y275305D03*
Y279241D03*
Y271367D03*
X342941D03*
X354752Y287115D03*
X346878D03*
X339004D03*
X354752Y291052D03*
X350815D03*
X342941D03*
X354752Y298948D03*
X346878D03*
X339004D03*
X350815Y287115D03*
X342941D03*
X346878Y291052D03*
X339004D03*
X350815Y298948D03*
X342941D03*
X339004Y314696D03*
X342941D03*
X339004Y318634D03*
X354752Y302885D03*
X350815D03*
X342941D03*
X354752Y306822D03*
X346878D03*
X339004D03*
X350815Y310759D03*
X342941D03*
X354752Y314696D03*
X346878D03*
X350815Y318634D03*
X342941D03*
X346878Y302885D03*
X339004D03*
X350815Y306822D03*
X342941D03*
X354752Y310759D03*
X346878D03*
X339004D03*
X350815Y314696D03*
X354752Y318634D03*
X346878D03*
X346879Y322571D03*
X342941D03*
Y326508D03*
X339005D03*
X350815Y322571D03*
Y326508D03*
X354752Y334382D03*
Y330444D03*
X354753Y326508D03*
X339004Y322570D03*
X342941Y334382D03*
X346878D03*
X342941Y330444D03*
X339004Y334382D03*
X350815Y330444D03*
X346878D03*
X354752Y322570D03*
X346878Y326508D03*
X339004Y330444D03*
X350815Y334382D03*
X354752Y346192D03*
X350815D03*
X342941D03*
X339004D03*
X354752Y350130D03*
X350815D03*
X346878D03*
X342941D03*
X354752Y354066D03*
X346878D03*
X342941D03*
X339004D03*
X354752Y338318D03*
X350815D03*
X346878D03*
X350815Y342256D03*
X346878D03*
X342941D03*
X339004D03*
X342941Y338318D03*
X339004Y350130D03*
X346878Y346192D03*
X354752Y342256D03*
X350815Y354066D03*
X339004Y338318D03*
X338600Y369400D03*
X342941Y361941D03*
X339004D03*
X354752Y358004D03*
X350815D03*
X346878D03*
X339004D03*
X350815Y361941D03*
X346878D03*
X342900Y369100D03*
X342941Y358004D03*
X354752Y361941D03*
X340100Y385900D03*
X360900Y58200D03*
X359900Y74300D03*
X368500Y59200D03*
X367600Y73100D03*
X360000Y91000D03*
X370000Y75000D03*
X366000Y88000D03*
X361848Y108344D03*
X369722Y104408D03*
X361848D03*
X365785Y108344D03*
Y104408D03*
X369722Y108344D03*
Y120156D03*
Y116218D03*
X365785D03*
X369722Y124092D03*
X361848Y112282D03*
Y120156D03*
X365785Y124092D03*
Y120156D03*
X361848Y124092D03*
X365785Y112282D03*
X369722D03*
X361848Y116218D03*
Y143778D03*
X369722D03*
X365785Y139841D03*
X361848Y135904D03*
X369722D03*
X365785Y131966D03*
X361848Y128030D03*
X369722D03*
Y131966D03*
X365785Y143778D03*
X361848Y139841D03*
X369722D03*
X365785Y135904D03*
X361848Y131966D03*
X365785Y128030D03*
X361848Y159548D03*
X365785D03*
X361848Y151652D03*
X369722D03*
X365785Y147715D03*
X361848D03*
X369722Y159548D03*
X365785Y151652D03*
X369722Y147715D03*
X361848Y179234D03*
X369722D03*
X365785Y175296D03*
X361848Y171359D03*
X369722D03*
X365785Y167422D03*
X361848Y163485D03*
X369722D03*
X365785Y179234D03*
X361848Y175296D03*
X369722D03*
X365785Y171359D03*
X361848Y167422D03*
X369722D03*
X365785Y163485D03*
Y187108D03*
Y191044D03*
Y194982D03*
X361848Y183170D03*
X369722D03*
Y194982D03*
X365785Y183170D03*
X361848Y187108D03*
Y194982D03*
X369722Y187108D03*
X361848Y191044D03*
X369722D03*
Y198918D03*
X361848Y202856D03*
X365785D03*
X361848Y206792D03*
X365785D03*
X369722Y202856D03*
X361848Y198918D03*
X369722Y206792D03*
X365785Y198918D03*
X370522Y228059D03*
X366585D03*
X370522Y231996D03*
X366585D03*
X362648D03*
X372389Y216386D03*
X369611D03*
X362648Y228059D03*
X370522Y235934D03*
X362648D03*
X370522Y239870D03*
X366585D03*
X362648D03*
Y243808D03*
X370522Y247744D03*
X366586D03*
Y243807D03*
X370522Y243808D03*
X362648Y247744D03*
X366585Y235934D03*
X370522Y251682D03*
X366585Y259556D03*
X370522Y255618D03*
X366585Y251682D03*
X370522Y259556D03*
X362648Y251682D03*
Y255618D03*
Y263492D03*
X370522Y267429D03*
X362648Y259556D03*
X366585Y255618D03*
X370522Y263492D03*
X362648Y267430D03*
X366586Y267429D03*
Y263492D03*
X370522Y275304D03*
X362648D03*
X366585Y279241D03*
X370522Y283178D03*
X362648D03*
Y271366D03*
X366585Y275304D03*
X370522Y279241D03*
X362648D03*
X366585Y283178D03*
X370522Y271366D03*
X366586D03*
X362648Y287115D03*
X366585D03*
X370522Y291052D03*
X362648D03*
X366585Y298948D03*
X362648D03*
X370522Y287115D03*
X366585Y291052D03*
X370522Y298948D03*
Y302885D03*
X362648D03*
X366585Y306822D03*
X370522Y310759D03*
X362648D03*
X366585Y314696D03*
X370522Y318634D03*
X362648D03*
X366585Y302885D03*
X370522Y306822D03*
X362648D03*
X366585Y310759D03*
X370522Y314696D03*
X362648D03*
X366585Y318634D03*
Y330445D03*
X370522Y334382D03*
X366585D03*
X362648D03*
X366585Y322571D03*
X362647Y326508D03*
X370521Y322571D03*
X366585Y326508D03*
X370522Y330444D03*
Y326508D03*
X362648Y330444D03*
Y322570D03*
X366585Y346192D03*
X362648D03*
X370522Y350130D03*
X366585D03*
X370522Y354066D03*
X366585D03*
X362648D03*
Y338318D03*
X366585Y342256D03*
X362648D03*
X370522Y346192D03*
Y342256D03*
Y338318D03*
X366585D03*
X362648Y350130D03*
X370522Y358004D03*
X362648D03*
X370522Y361941D03*
X366585D03*
X362648D03*
X369500Y368800D03*
X366585Y358004D03*
X367000Y376900D03*
X376100Y58300D03*
X373000Y82000D03*
X385000Y78000D03*
X381534Y108344D03*
X389408Y104408D03*
X373659Y108344D03*
Y104408D03*
X385470D03*
X381534D03*
X377596Y108344D03*
Y104408D03*
X389408Y108344D03*
X385470D03*
X377596Y124092D03*
X373659Y116218D03*
X377596D03*
Y112282D03*
X381534Y116218D03*
Y112282D03*
X373659Y120156D03*
Y124092D03*
X389408D03*
X377596Y120156D03*
X373659Y112282D03*
X381534Y124092D03*
X385470D03*
X381534Y120156D03*
X389408D03*
Y116218D03*
X385470Y120156D03*
Y116218D03*
X389408Y112282D03*
X385470D03*
Y143778D03*
X389408Y128030D03*
Y131966D03*
X381534Y143778D03*
X385470Y139841D03*
X381534Y131966D03*
X389408Y139841D03*
X377596Y143778D03*
X373659Y139841D03*
X377596D03*
X385470Y135904D03*
X373659Y131966D03*
X381534Y128030D03*
Y135904D03*
Y139841D03*
X373659Y143778D03*
X389408D03*
X373659Y135904D03*
X385471Y131966D03*
X389408Y135904D03*
X385470Y128030D03*
X377596D03*
Y131966D03*
X373659Y128030D03*
X377596Y135904D03*
X381534Y159548D03*
X389408D03*
X381534Y151652D03*
X385470D03*
X389408D03*
X385470Y147715D03*
X389408D03*
X373659Y159548D03*
Y147715D03*
X377596D03*
X381534D03*
X385470Y159548D03*
X373659Y151652D03*
X377596Y159548D03*
Y151652D03*
X381534Y179234D03*
Y175296D03*
Y163485D03*
X389408Y179234D03*
X385470Y163485D03*
Y175296D03*
X389408Y163485D03*
Y175296D03*
X373659Y179234D03*
X377596D03*
X385470D03*
X373659Y175296D03*
X381534Y171359D03*
X373659Y167422D03*
X389408D03*
X377596Y163485D03*
X373659Y171359D03*
Y163485D03*
X377596Y175296D03*
X381534Y167422D03*
X385470D03*
X389408Y171359D03*
X385470D03*
X377596D03*
Y167422D03*
X381534Y183170D03*
Y187108D03*
X377596D03*
X385470Y183170D03*
Y187108D03*
X373659Y191044D03*
X377596Y194982D03*
X373659Y187108D03*
X381534Y194982D03*
X373659Y183170D03*
X381534Y191044D03*
X377596Y183170D03*
X373659Y194982D03*
X389408Y187108D03*
Y191044D03*
X385470D03*
X389408Y183170D03*
X377596Y191044D03*
X385470Y194982D03*
X389408D03*
X373659Y202856D03*
X381534Y206792D03*
X373659D03*
X377596D03*
X373659Y198918D03*
X385470Y202856D03*
X381534D03*
X377596Y198918D03*
X381534D03*
X385470Y206792D03*
X389408D03*
X377596Y202856D03*
X385470Y198918D03*
X389408D03*
Y202856D03*
X390208Y228059D03*
X386270D03*
X378396D03*
X374459D03*
X390208Y231996D03*
X386270D03*
X382334D03*
X378396D03*
X382334Y228059D03*
X374459Y231996D03*
X390208Y235934D03*
X382334D03*
X378396D03*
X374459D03*
X390208Y239870D03*
X386270D03*
X382334D03*
X374459D03*
X386270Y243808D03*
X382334D03*
X378396D03*
X374459D03*
X386270Y247744D03*
X378396D03*
X374459D03*
X390208D03*
X382334D03*
X386270Y235934D03*
X390208Y243808D03*
X378396Y239870D03*
X382334Y255618D03*
Y259555D03*
X374459Y259556D03*
X386271Y263492D03*
X386270Y251682D03*
X382334D03*
X378396D03*
X386271Y267429D03*
X378396Y263492D03*
X374459Y267430D03*
X390208Y267429D03*
Y259555D03*
Y255618D03*
Y251681D03*
X386271Y259555D03*
X378396Y259556D03*
X390208Y263492D03*
X378396Y267430D03*
X386270Y255618D03*
X382334Y267430D03*
X374459Y251681D03*
X374460Y263492D03*
X374459Y255618D03*
X382334Y263492D03*
X378396Y255618D03*
X382334Y271366D03*
Y275304D03*
X386271Y283178D03*
X390208Y279240D03*
Y275304D03*
X386271Y279240D03*
Y271366D03*
X390208D03*
X374459D03*
X386270Y275304D03*
X378396D03*
X382334Y279241D03*
X374459D03*
X390208Y283178D03*
X378396D03*
Y271366D03*
X382334Y283178D03*
X374459Y275304D03*
X378396Y279241D03*
X374459Y283178D03*
X390207Y298948D03*
X390208Y287114D03*
Y291052D03*
X382334Y287115D03*
X374459D03*
X378396Y291052D03*
X382334Y298948D03*
X374459D03*
X382334Y291052D03*
X386270Y298948D03*
X386271Y287114D03*
Y291052D03*
X378396Y287115D03*
X374459Y291052D03*
X378396Y298948D03*
X386270Y314696D03*
X378396Y310759D03*
Y318634D03*
X390207D03*
X382334D03*
Y314696D03*
X390207Y310760D03*
X386270D03*
X390207Y314696D03*
X386270Y306822D03*
X390208Y302885D03*
X378396D03*
X390208Y306822D03*
X382334D03*
X374459D03*
Y314696D03*
X386270Y318634D03*
X382334Y302885D03*
Y310759D03*
X378396Y314696D03*
X386270Y302886D03*
X374459Y302885D03*
X378396Y306822D03*
X374459Y310759D03*
Y318634D03*
X382333Y326508D03*
Y322571D03*
X378395Y330445D03*
Y326508D03*
X386270Y330445D03*
X374459Y322571D03*
Y334382D03*
X386270D03*
X390207Y322571D03*
X386270Y326508D03*
X378396Y334382D03*
X390207Y330445D03*
X386270Y322571D03*
X390207Y334382D03*
X374459Y330444D03*
X378396Y322570D03*
X390208Y326508D03*
X382334Y330444D03*
Y334382D03*
X374459Y326508D03*
X390207Y342256D03*
X374459Y346192D03*
X390208Y350130D03*
X386270D03*
X378396D03*
X374459D03*
X390208Y354066D03*
X386270D03*
X382334D03*
X378396D03*
X382334Y338318D03*
X386270Y342256D03*
X382334D03*
X374459D03*
X386270Y346192D03*
X382334D03*
X378396D03*
X390207Y338319D03*
X378396Y338318D03*
X374459D03*
X378396Y342256D03*
X390208Y346192D03*
X374459Y354066D03*
X386270Y338318D03*
X382334Y350130D03*
X390208Y358004D03*
X382334D03*
X378396D03*
X374459D03*
X390208Y361941D03*
X386270D03*
X382334D03*
X374459D03*
X386270Y358004D03*
X378396Y361941D03*
X394600Y71100D03*
X392900Y85700D03*
X405000Y82000D03*
X393000Y94000D03*
X404100Y96100D03*
X397282Y108344D03*
Y104408D03*
X405156Y108344D03*
Y104408D03*
X401218Y108344D03*
Y104408D03*
X393344Y108344D03*
Y104408D03*
X397282Y116218D03*
X393344D03*
X405156Y124092D03*
X401218Y116218D03*
X397282Y124092D03*
X393344D03*
X401218D03*
X393344Y120156D03*
X405156Y116218D03*
X393344Y112282D03*
X401218Y120156D03*
X405156D03*
Y112282D03*
X397282Y120156D03*
Y112282D03*
X401218D03*
Y131966D03*
X405156Y139841D03*
X401218D03*
Y143778D03*
X393344D03*
X397282D03*
X393344Y128030D03*
X397282Y135904D03*
X393344Y139841D03*
X397282Y128030D03*
Y139841D03*
X401218Y128030D03*
Y135904D03*
X397282Y131966D03*
X393344Y135904D03*
X405156D03*
X393344Y131966D03*
X405156Y128030D03*
Y143778D03*
Y131966D03*
Y147715D03*
X401218Y159548D03*
Y151652D03*
X405156D03*
X397282D03*
X393344Y159548D03*
X397282D03*
X405156D03*
X393344Y151652D03*
X401218Y147715D03*
X393344D03*
X397282D03*
X393344Y163485D03*
X397282Y171359D03*
X401218Y175296D03*
X397282Y179234D03*
X393344Y171359D03*
X405156Y163485D03*
X401218Y179234D03*
X397282Y175296D03*
X405156D03*
X401218Y171359D03*
X405156Y179234D03*
X393344Y175296D03*
X397282Y163485D03*
X401218D03*
Y167422D03*
X405156D03*
X393344Y179234D03*
X405156Y171359D03*
X397282Y167422D03*
X393344D03*
X405156Y183170D03*
X393344D03*
X397282Y191044D03*
X393344Y187108D03*
Y191044D03*
X401218Y183170D03*
Y194982D03*
X393344D03*
X397282Y183170D03*
X401218Y191044D03*
X397282Y187108D03*
X405156Y194982D03*
X401218Y187108D03*
X405156Y191044D03*
Y187108D03*
X397282Y194982D03*
X393344Y202856D03*
X401218Y198918D03*
Y206792D03*
X405156Y202856D03*
X401218D03*
X397282Y198918D03*
X393344Y206792D03*
X397282D03*
X405156D03*
Y198918D03*
X397282Y202856D03*
X393344Y198918D03*
X405956Y228059D03*
X398082D03*
X394144D03*
X405956Y231996D03*
X402018D03*
X398082D03*
X394144D03*
X402018Y228059D03*
X403700Y216000D03*
X402018Y235934D03*
X398082D03*
X394144D03*
X405956Y239870D03*
X402018D03*
X394144D03*
X394145Y247744D03*
X402019Y243807D03*
X398082D03*
Y239870D03*
X402018Y247744D03*
X405956Y235934D03*
X398082Y247744D03*
X394145Y243807D03*
X405956D03*
Y247744D03*
Y259555D03*
Y263492D03*
Y267429D03*
Y251681D03*
X402019D03*
X398082Y267429D03*
X402019Y255618D03*
X394145Y267429D03*
X402019Y263492D03*
Y259555D03*
X398082Y251681D03*
X394145Y259555D03*
X398082Y263492D03*
Y255618D03*
X394145D03*
Y263492D03*
X394144Y251682D03*
X405956Y255618D03*
X402018Y267430D03*
X398082Y259556D03*
X405956Y279240D03*
X394145Y283178D03*
X405956Y271366D03*
X398082Y283178D03*
X402019Y271366D03*
X394145Y275304D03*
X398082Y271366D03*
X394145Y279240D03*
X398082Y275304D03*
X402019D03*
Y279240D03*
X394144Y271366D03*
X398082Y279241D03*
X405956Y275304D03*
Y283178D03*
X402019D03*
X394144Y298948D03*
X398082Y291052D03*
X405956Y287114D03*
X398082D03*
X394145D03*
X402018Y298948D03*
X394144Y291052D03*
X405956Y298948D03*
Y291052D03*
X402019D03*
X398082Y298948D03*
X402018Y287115D03*
X394144Y306822D03*
X398082D03*
X405956D03*
X402018D03*
Y302885D03*
X405956Y314696D03*
X394144Y318634D03*
X402018D03*
Y314696D03*
X398081Y310760D03*
X394144D03*
X405956Y318634D03*
Y318633D03*
X398082Y302885D03*
X402018Y310759D03*
X394144Y314696D03*
X405956Y302885D03*
X398082Y318634D03*
Y314696D03*
X405955Y310760D03*
X394144Y302886D03*
X402018Y334382D03*
X398081D03*
X405956Y330444D03*
Y334382D03*
Y322570D03*
Y326508D03*
X398081Y330445D03*
Y326508D03*
X402018D03*
X394144Y322571D03*
X402018D03*
X394144Y326508D03*
Y330444D03*
X398082Y322570D03*
X402018Y330444D03*
X394144Y334382D03*
X405956Y350130D03*
X398082D03*
X394144D03*
X405956Y354066D03*
X402018D03*
X398082D03*
X398081Y338319D03*
X402018Y342256D03*
Y338319D03*
Y346193D03*
X405956Y346192D03*
Y342256D03*
X394144Y338319D03*
Y342256D03*
X398082D03*
Y342255D03*
X405956Y338318D03*
X402018Y350130D03*
X394144Y354066D03*
X398081Y346193D03*
X394144D03*
X402018Y358004D03*
X398082D03*
X394144D03*
X405956Y361941D03*
X402018D03*
X394144D03*
X405956Y358004D03*
X398082Y361941D03*
X397000Y372500D03*
X418500Y71200D03*
X420900Y79100D03*
X409092Y104408D03*
X414000Y100000D03*
X409092Y108344D03*
Y116218D03*
Y124092D03*
X418700Y112600D03*
X409092Y120156D03*
Y112282D03*
Y131966D03*
Y128030D03*
Y143778D03*
X415700Y135400D03*
X409092Y139841D03*
Y135904D03*
X419000Y144000D03*
Y138000D03*
X409092Y151652D03*
X415400Y148300D03*
X409092Y159548D03*
Y147715D03*
X419000Y148000D03*
X414000Y158000D03*
X409092Y171359D03*
Y163485D03*
Y175296D03*
Y179234D03*
Y167422D03*
X419000Y169600D03*
X421000Y179000D03*
X422000Y172000D03*
X414000Y164000D03*
X409092Y183170D03*
Y187108D03*
Y191044D03*
Y194982D03*
Y198918D03*
Y202856D03*
Y206792D03*
X419800Y200100D03*
X420200Y206200D03*
X413830Y228059D03*
X409892D03*
Y231996D03*
X425641D03*
X421704D03*
X417766Y228059D03*
Y231996D03*
X421704Y228059D03*
X413830Y231996D03*
Y235934D03*
X409892D03*
X413830Y239870D03*
X409892D03*
X421704Y243808D03*
X425641Y239870D03*
Y247744D03*
Y243808D03*
X417766D03*
X421704Y239870D03*
X417766Y247744D03*
X421704Y235934D03*
X417766D03*
X409893Y247744D03*
X413830Y243807D03*
Y247744D03*
X425641Y235934D03*
X409892Y243808D03*
X421704Y247744D03*
X417766Y239870D03*
X409893Y267429D03*
X413830Y263492D03*
Y267429D03*
X417766Y263492D03*
Y267430D03*
X425641Y259556D03*
Y267430D03*
X421704Y263492D03*
X417766Y251682D03*
X421704Y259556D03*
X425641Y251682D03*
X417766Y255618D03*
X425641Y263492D03*
X421704Y255618D03*
Y251682D03*
X409893Y259555D03*
X413830Y255618D03*
Y259555D03*
X409893Y255618D03*
X425641D03*
X417766Y259556D03*
X421704Y267430D03*
X413830Y251682D03*
X409892Y263492D03*
X409893Y251681D03*
Y271366D03*
Y279240D03*
X413830Y283178D03*
X409893Y275304D03*
X421704Y279241D03*
Y275304D03*
X417766Y283178D03*
Y275304D03*
X425641Y271366D03*
X421704Y283178D03*
X425641D03*
X417766Y271366D03*
X421704D03*
X425641Y279241D03*
X413830Y271366D03*
X425641Y275304D03*
X409892Y283178D03*
X417766Y279241D03*
X413830Y275304D03*
Y279240D03*
Y287114D03*
X409893Y291052D03*
X417766D03*
Y287115D03*
X421704Y291052D03*
X425641Y287115D03*
X409892Y298948D03*
X425641Y291052D03*
X421704Y298948D03*
X413830Y291052D03*
X417766Y298948D03*
X413830D03*
X421704Y287115D03*
X425641Y298948D03*
X409893Y287114D03*
X425641Y302885D03*
X417766Y310759D03*
X409892Y318634D03*
X417766Y314696D03*
X413830Y310759D03*
Y306822D03*
X409892D03*
X421704Y310759D03*
X413830Y318634D03*
X409892Y310759D03*
Y302885D03*
X413830D03*
X409892Y314696D03*
X417766Y302885D03*
X413830Y314696D03*
X425641Y318634D03*
X421704Y302885D03*
X425641Y306822D03*
X421704D03*
X417766D03*
X425641Y314696D03*
Y310759D03*
X421704Y314696D03*
Y318634D03*
X417766D03*
X409892Y334382D03*
Y322570D03*
X413830D03*
X409892Y330444D03*
X413830Y326508D03*
Y330444D03*
Y334382D03*
Y334381D03*
X417767Y322571D03*
X417766Y322570D03*
Y334382D03*
X409892Y326508D03*
X421704Y330444D03*
Y326508D03*
X417766D03*
X425641Y334382D03*
Y330444D03*
Y322570D03*
Y326508D03*
X417766Y330444D03*
X421704Y334382D03*
Y322570D03*
X413830Y350130D03*
X409892D03*
Y354066D03*
X417766Y346192D03*
Y354066D03*
X413830Y342256D03*
Y346192D03*
X409892Y342256D03*
X413830Y338318D03*
X409892D03*
X409893Y346193D03*
X409892Y346192D03*
X421704D03*
X425641Y350130D03*
Y346192D03*
X417766Y350130D03*
X425641Y354066D03*
X417766Y338318D03*
X425641D03*
X417766Y342256D03*
X421704Y350130D03*
X413830Y354066D03*
X421704Y342256D03*
Y354066D03*
Y338318D03*
X425641Y342256D03*
X413830Y358004D03*
X409892D03*
X413830Y361941D03*
X409892D03*
X421704D03*
X422200Y368900D03*
X410700Y368600D03*
X425641Y358004D03*
X417766Y361941D03*
Y358004D03*
X421704D03*
X431100Y141000D03*
X436000Y158000D03*
X435000Y172000D03*
X435400Y182000D03*
X434900Y209000D03*
Y202000D03*
X437100Y226400D03*
X429350Y240750D03*
X434700Y267500D03*
X437500Y267300D03*
X441600Y262100D03*
X442900Y257500D03*
X429550Y251450D03*
X437200Y302300D03*
X437500Y288700D03*
X432400Y290800D03*
X439900Y312300D03*
X441400Y310800D03*
X437500Y311900D03*
Y335200D03*
X441900Y339800D03*
X453300Y100000D03*
X459500Y141079D03*
Y131236D03*
Y146000D03*
Y160764D03*
Y150921D03*
X457600Y175000D03*
X459500Y164701D03*
X459200Y169000D03*
X447600Y170500D03*
X454300Y180000D03*
X455294Y200194D03*
X453100Y254000D03*
X451300Y264300D03*
X456700Y278600D03*
X448100Y268800D03*
X458400Y299800D03*
X443700Y287500D03*
X447600Y310500D03*
X451800Y327400D03*
X448100Y331200D03*
X453100Y344500D03*
X448750Y362850D03*
X470500Y125000D03*
X469600Y113900D03*
X475268Y125000D03*
X477236Y115164D03*
X475500Y130000D03*
Y138000D03*
Y146000D03*
Y162000D03*
Y154500D03*
X470800Y169000D03*
X475268Y179168D03*
X473299Y167099D03*
X477500Y178800D03*
X477400Y192000D03*
X467900Y189400D03*
X461500Y194600D03*
X468400Y180300D03*
X475440Y231640D03*
X468900Y216500D03*
X462640Y217760D03*
X465100Y243700D03*
X474900Y234300D03*
X474700Y262300D03*
X477800Y259000D03*
X473900Y277000D03*
X469400Y267800D03*
X462650Y293850D03*
X467000Y300700D03*
X464400Y303800D03*
X470350Y319650D03*
X477500Y336300D03*
X462850Y344250D03*
X461650Y352150D03*
X472650Y360650D03*
X490800Y78500D03*
X493000Y108000D03*
X486000Y125000D03*
X492984Y125016D03*
X482500Y125000D03*
X478500D03*
X491500Y138000D03*
Y130000D03*
X483500Y138000D03*
Y130000D03*
X491500Y154500D03*
Y162000D03*
Y146000D03*
X483500Y154500D03*
Y162000D03*
Y146000D03*
X494953Y167500D03*
X495000Y178000D03*
X487079Y167479D03*
X481173Y177627D03*
X486100Y189100D03*
X479100Y182900D03*
X486500Y213000D03*
X493101Y207651D03*
Y210801D03*
X487400Y210800D03*
X489951Y213950D03*
Y210801D03*
Y204502D03*
X493101D03*
Y213950D03*
X489951Y207651D03*
X493101Y220250D03*
X489951Y223399D03*
Y220250D03*
Y226549D03*
X493101Y223399D03*
X489951Y229698D03*
X493101D03*
X485600Y227100D03*
X493101Y226549D03*
X479100Y238000D03*
X487700Y234800D03*
X489400Y232800D03*
X495400Y260200D03*
X481600Y251400D03*
X494500Y256100D03*
X488000Y276900D03*
X492100Y293800D03*
X478900Y307500D03*
X487700Y317800D03*
X490800Y315100D03*
X481800Y304400D03*
X483350Y358650D03*
X506500Y93400D03*
X496900Y124500D03*
X498890Y126390D03*
X510701Y127101D03*
X508300Y125500D03*
X500858Y124342D03*
X502300Y126900D03*
X506000Y126800D03*
X504300Y124800D03*
X499500Y138000D03*
Y130000D03*
X507500D03*
Y138000D03*
Y146000D03*
X499500Y154500D03*
Y162000D03*
Y146000D03*
X507500Y162000D03*
Y154500D03*
X502800Y178400D03*
X504800Y177400D03*
X500858Y167642D03*
X508732Y167700D03*
X500000Y195000D03*
X506200Y185400D03*
X496000Y192000D03*
X502550Y210801D03*
X496250D03*
X502550Y213950D03*
X496250D03*
X505699D03*
Y204502D03*
X496250Y207651D03*
X502550D03*
X508849D03*
Y204502D03*
X505699Y210801D03*
X508849D03*
X502550Y204502D03*
X505699Y207651D03*
X496250Y204501D03*
X508849Y213950D03*
X502550Y223399D03*
X496250D03*
X502550Y220250D03*
X496250D03*
X502550Y229698D03*
X508849D03*
X505699D03*
Y226549D03*
Y223399D03*
Y220250D03*
X502550Y226549D03*
X496250Y229698D03*
Y226549D03*
X508849D03*
Y223399D03*
Y220250D03*
X499900Y246300D03*
X495900Y250000D03*
X500000Y240500D03*
X500100Y264900D03*
X500200Y259300D03*
X509300Y265000D03*
X505100Y264700D03*
X505500Y254100D03*
X511700Y284400D03*
X512300Y290600D03*
X513000Y319000D03*
X528200Y100300D03*
X516800Y107400D03*
X530600Y96400D03*
X520500Y123500D03*
X524100Y131236D03*
Y141079D03*
Y145900D03*
Y160764D03*
Y150921D03*
X518476Y168000D03*
X528900Y170000D03*
X514200Y176200D03*
X519800Y182900D03*
X515900Y195000D03*
X517100Y190100D03*
X522900Y180400D03*
X514100Y247600D03*
X514700Y240500D03*
X525900Y260600D03*
X527800Y250600D03*
X514300Y255400D03*
X520000Y269400D03*
X529150Y299350D03*
X515500Y315600D03*
X521400Y314700D03*
X538100Y74400D03*
X543300Y84500D03*
X537400Y101800D03*
X543800Y104800D03*
X537200Y105000D03*
X544200Y99100D03*
X541900Y150500D03*
X544900Y153100D03*
X532900Y189300D03*
X546100D03*
X548500Y231400D03*
Y247000D03*
X542100Y250600D03*
X543900Y273300D03*
X533100Y290000D03*
X539900Y295000D03*
X545000Y288300D03*
X538900Y342900D03*
X557500Y9500D03*
X555000Y6000D03*
Y13500D03*
X559500D03*
X559700Y6200D03*
X558800Y31400D03*
X559300Y37500D03*
X564100Y25300D03*
X559400Y44100D03*
X563500Y59500D03*
X557065Y109025D03*
Y96425D03*
Y99575D03*
Y105875D03*
Y124775D03*
Y115325D03*
Y118475D03*
Y134225D03*
Y127925D03*
Y137375D03*
Y143675D03*
X557275Y140525D03*
X557065Y153125D03*
Y156275D03*
Y146825D03*
X562000Y160000D03*
X557125Y149975D03*
X557065Y175175D03*
Y178325D03*
Y194075D03*
Y197225D03*
Y184625D03*
Y187775D03*
Y190925D03*
Y181475D03*
X552000Y185000D03*
X557065Y212975D03*
Y206675D03*
Y203525D03*
X552500Y210300D03*
X557065Y209825D03*
Y200375D03*
X551400Y201300D03*
X557065Y231875D03*
Y216125D03*
Y228725D03*
Y219275D03*
Y225575D03*
Y222425D03*
Y235025D03*
X554100Y255600D03*
X557065Y266525D03*
Y263375D03*
Y257075D03*
Y253925D03*
X554000Y261900D03*
X548600Y276900D03*
X557065Y282275D03*
Y275975D03*
Y272825D03*
Y301175D03*
Y294875D03*
Y291725D03*
Y285425D03*
X555875Y288575D03*
X554300Y298200D03*
X557065Y304325D03*
Y310625D03*
Y313775D03*
X557475Y307475D03*
X549500Y333800D03*
X556100Y326800D03*
X549900Y340900D03*
X559900Y338000D03*
X575700Y6200D03*
X583100Y20900D03*
X576100Y23500D03*
X575900Y44100D03*
X583600Y40900D03*
X572700Y40800D03*
X568300Y66600D03*
X574000Y83000D03*
X574870Y94600D03*
X569625Y102725D03*
X574870Y113850D03*
X570275Y121625D03*
X570000Y111200D03*
X576650Y138850D03*
X570400Y129600D03*
X576400Y152000D03*
X576600Y170600D03*
X578000Y192000D03*
X574870Y192600D03*
X571000Y186000D03*
X570900Y191100D03*
X579000Y210000D03*
X573300Y211600D03*
X570000Y212000D03*
X574870Y266670D03*
X577100Y252100D03*
X571000Y264000D03*
X577300Y259700D03*
X570600Y278500D03*
X571100Y268800D03*
X576600Y295300D03*
X582000Y320000D03*
X574870Y310570D03*
X570900Y315100D03*
X584500Y10900D03*
X585500Y32800D03*
X587800Y89800D03*
X592675Y99575D03*
Y109025D03*
Y96425D03*
Y105875D03*
X593275Y102725D03*
X592675Y124775D03*
Y115325D03*
Y118475D03*
X594975Y121625D03*
X600800Y110600D03*
X594700Y111300D03*
X592675Y137375D03*
Y143675D03*
Y134225D03*
Y127925D03*
X592875Y140525D03*
X595525Y131075D03*
X592675Y146825D03*
Y153125D03*
Y156275D03*
X597500Y150900D03*
X593225Y149975D03*
X592675Y178325D03*
Y175175D03*
Y194075D03*
Y197225D03*
Y184625D03*
Y187775D03*
Y181475D03*
Y190925D03*
Y212975D03*
Y200375D03*
Y209825D03*
Y206675D03*
Y203525D03*
Y216125D03*
Y225575D03*
Y222425D03*
Y231875D03*
Y219275D03*
Y228725D03*
Y235025D03*
Y266525D03*
Y263375D03*
Y257075D03*
Y253925D03*
Y282275D03*
Y272825D03*
Y275975D03*
X592225Y279125D03*
X594300Y268600D03*
X592675Y301175D03*
Y294875D03*
Y291725D03*
Y285425D03*
X594900Y298900D03*
X595400Y287500D03*
X592675Y313775D03*
Y310625D03*
Y304325D03*
X596000Y304000D03*
X595000Y345100D03*
X615950Y98500D03*
X602100Y96900D03*
X601600Y105200D03*
X612850Y123950D03*
X607500Y186000D03*
Y191000D03*
Y196000D03*
Y188500D03*
Y193500D03*
X613400Y184600D03*
X607500Y198500D03*
Y208500D03*
Y213500D03*
Y203500D03*
Y201000D03*
Y206000D03*
Y211000D03*
Y231000D03*
Y221000D03*
Y223500D03*
Y218500D03*
Y226000D03*
Y216000D03*
Y228500D03*
X608800Y281700D03*
X618500Y285600D03*
X605600Y302300D03*
X609500Y318400D03*
X606700Y323800D03*
X607900Y345800D03*
X601500Y345200D03*
X610800Y355500D03*
X630000Y26500D03*
Y29500D03*
X626500D03*
X622000Y48500D03*
Y46500D03*
Y44500D03*
X635900Y45200D03*
X633500Y114500D03*
Y111000D03*
X625100Y173300D03*
X627500Y193500D03*
Y196000D03*
Y198500D03*
Y201000D03*
Y211000D03*
Y206000D03*
Y208500D03*
Y203500D03*
Y213500D03*
X622900Y199100D03*
X627500Y231000D03*
Y218500D03*
Y221000D03*
Y223500D03*
Y216000D03*
X621843Y278457D03*
X620525Y280425D03*
X619900Y283200D03*
X621949Y272551D03*
X630612Y276488D03*
X631894Y269094D03*
X627900Y268300D03*
X621795Y294205D03*
X620200Y292236D03*
X620901Y288299D03*
X621900Y290268D03*
X621769Y286331D03*
X620073Y296173D03*
X621958Y298142D03*
X621679Y302079D03*
X630790Y300110D03*
X636000Y288000D03*
X619600Y306016D03*
X621116Y307984D03*
X619700Y315100D03*
X631200Y305600D03*
X619000Y336100D03*
X630994Y331606D03*
X621362Y329638D03*
X630599Y325701D03*
X620936Y321764D03*
X620500Y324500D03*
X631200Y321300D03*
X621483Y343417D03*
X631894Y353706D03*
X635831Y353969D03*
X619151Y341449D03*
X629880Y339480D03*
X633862Y356038D03*
X624100Y355500D03*
X652000Y3000D03*
Y6500D03*
Y10000D03*
X651807Y30693D03*
X647100Y26000D03*
X638000Y26700D03*
X650500Y24500D03*
X648000Y37000D03*
X644000D03*
X638600Y23000D03*
X644000Y43500D03*
X648000D03*
X646000Y40000D03*
X645200Y75200D03*
X638750Y97750D03*
X640600Y186100D03*
X652000Y181700D03*
X652200Y197000D03*
X653500Y214300D03*
X638400Y211000D03*
X636800Y204700D03*
X650500Y205800D03*
X645129Y206329D03*
X642200Y258700D03*
X650100Y260500D03*
X647600Y260400D03*
X653600Y259600D03*
X645600Y257900D03*
X639400Y257800D03*
X651800Y283700D03*
X643705Y269495D03*
X651800Y271600D03*
X643800Y298200D03*
X651200Y318600D03*
X649900Y310700D03*
X650800Y303300D03*
X640200Y315100D03*
X640400Y308300D03*
X653400Y333100D03*
X638400Y326400D03*
X644600Y326700D03*
X640400Y320900D03*
X647642Y344058D03*
X638400Y342300D03*
X652900D03*
X644600Y342600D03*
X644979Y355006D03*
X649000Y353800D03*
X643000Y354300D03*
X651000Y354500D03*
X648200Y360000D03*
X640600Y355900D03*
X652800Y356000D03*
X637799Y357500D03*
X656000Y3000D03*
Y6500D03*
Y10000D03*
X654000Y8000D03*
Y4500D03*
X660000Y13500D03*
X657000D03*
X654000Y14000D03*
Y17000D03*
Y20000D03*
X665000Y24500D03*
X668500D03*
X670500D03*
X660000Y22500D03*
X656500D03*
X662900Y41000D03*
X659500Y51200D03*
X665020Y178500D03*
X657100Y204100D03*
X669300Y217050D03*
X667300Y256200D03*
X665300Y257800D03*
X669295Y260605D03*
X671264Y259364D03*
X662100Y259100D03*
X663400Y283500D03*
X663900Y277500D03*
X659453Y269347D03*
X656800Y277600D03*
X657000Y283500D03*
X663200Y270000D03*
X662100Y296600D03*
X667200Y289900D03*
X657100Y289700D03*
X656900Y296200D03*
X667327Y354173D03*
X671264Y354036D03*
X664100Y339500D03*
X657500Y354300D03*
X669295Y356195D03*
X655516Y356216D03*
X668800Y359000D03*
X656600D03*
X655114Y378014D03*
X686000Y13000D03*
X675300Y30700D03*
X671500Y49500D03*
X685100Y72000D03*
Y76000D03*
Y79000D03*
X673000Y166000D03*
X674700Y164300D03*
X677500Y192000D03*
X686000Y191000D03*
X689000Y195000D03*
X685000D03*
X672300Y241500D03*
X673232Y260232D03*
X683100Y258000D03*
X676900Y258500D03*
X686000Y266000D03*
X688900Y263700D03*
X681100Y293700D03*
X682325Y333575D03*
X682500Y338400D03*
X675201Y343601D03*
X689000Y347400D03*
X679900Y355100D03*
X673232Y356068D03*
X688400Y372000D03*
X671886Y378186D03*
X684900Y378100D03*
X693250Y52050D03*
X698900Y62900D03*
X689100Y72000D03*
X701500Y80700D03*
X696500D03*
X691500D03*
X689100Y79000D03*
Y75000D03*
X691500Y113900D03*
X696500D03*
X701500D03*
X706500D03*
X690000Y191000D03*
X694000D03*
X693000Y195000D03*
X701100Y266900D03*
X694100Y257000D03*
X694300Y262800D03*
X706100Y255500D03*
X702000Y264300D03*
X691475Y280425D03*
X694100Y271500D03*
X691805Y294205D03*
X698100Y300900D03*
X696100Y290400D03*
X691895Y319795D03*
X692084Y306016D03*
X692300Y315500D03*
X692000Y334500D03*
X693000Y331000D03*
X699950Y339450D03*
X701500Y346500D03*
X692300Y338800D03*
X694383Y343417D03*
X692500Y370300D03*
X703500Y368000D03*
X699200Y375500D03*
X719800Y17100D03*
X718500Y7200D03*
X718300Y33400D03*
X711761Y37239D03*
X710000Y54000D03*
X716700Y87600D03*
X707500Y248000D03*
X710100Y240400D03*
X708500Y255400D03*
X710000Y281500D03*
X716600Y273200D03*
X709500Y353000D03*
X710050Y338250D03*
X709500Y366299D03*
Y360000D03*
Y357000D03*
X734900Y3100D03*
X741400D03*
X734800Y9000D03*
X741300Y8700D03*
X738600Y5400D03*
X740300Y30500D03*
X736300Y30700D03*
X737900Y48400D03*
X735000Y95000D03*
X739000Y258000D03*
Y255000D03*
X733700Y261300D03*
X727150Y255050D03*
X726600Y250900D03*
X735300Y255500D03*
X729000Y281500D03*
X728700Y278400D03*
X740000Y274500D03*
X734000Y275500D03*
X739200Y288800D03*
X744300Y5600D03*
X746300Y30500D03*
X743500D03*
X743300Y48200D03*
X745900Y104600D03*
X742000Y258000D03*
Y255000D03*
X746000Y275900D03*
X743100Y285100D03*
G54D22*
X48600Y378000D03*
X59400D03*
X82600Y377000D03*
X93400D03*
X714100Y281500D03*
X724900D03*
G54D40*
X178800Y120700D03*
X175600D03*
X178800Y114300D03*
X175600D03*
X182000Y120700D03*
Y114300D03*
X185200Y120700D03*
Y114300D03*
X188400D03*
X191600D03*
X194800D03*
X188400Y120700D03*
X191600D03*
X194800D03*
X198000Y114300D03*
Y120700D03*
X274900Y119900D03*
X271700D03*
X268500D03*
X274900Y113500D03*
X271700D03*
X268500D03*
X278100Y119900D03*
Y113500D03*
X281300D03*
X284500D03*
X281300Y119900D03*
X284500D03*
X287700Y113500D03*
X290900D03*
X287700Y119900D03*
X290900D03*
X442200Y123100D03*
X439000D03*
X435800D03*
X442200Y116700D03*
X439000D03*
X435800D03*
X445400Y123100D03*
Y116700D03*
X448600D03*
X451800D03*
X455000D03*
X458200D03*
X448600Y123100D03*
X451800D03*
X455000D03*
X458200D03*
X528000D03*
X524800D03*
X528000Y116700D03*
X524800D03*
X531200Y123100D03*
Y116700D03*
X534400Y123100D03*
Y116700D03*
X537600D03*
X540800D03*
X544000D03*
X547200D03*
X537600Y123100D03*
X540800D03*
X544000D03*
X547200D03*
G54D31*
X81500Y367937D03*
Y360063D03*
Y362031D03*
Y364000D03*
Y365969D03*
X98500Y367937D03*
Y360063D03*
Y362031D03*
Y364000D03*
Y365969D03*
G54D13*
X14980Y67126D03*
Y82874D03*
Y99626D03*
Y115374D03*
X50020Y67126D03*
Y82874D03*
Y99626D03*
Y115374D03*
G54D14*
X10550Y157500D03*
Y147500D03*
Y177500D03*
Y167500D03*
Y197500D03*
Y187500D03*
Y207500D03*
Y217500D03*
X44450Y157500D03*
Y147500D03*
Y177500D03*
Y167500D03*
Y197500D03*
Y187500D03*
Y207500D03*
Y217500D03*
G54D23*
X67950Y245350D03*
Y255450D03*
X190000Y315950D03*
Y326050D03*
G54D32*
X125000Y65000D03*
Y365000D03*
X525000D03*
X725000Y65000D03*
G54D41*
X168700Y173500D03*
X617500Y253500D03*
G54D50*
X207126Y213976D03*
X210276D03*
X213425D03*
X207126Y229724D03*
X210276D03*
X213425D03*
X207126Y226575D03*
X210276D03*
X213425D03*
X207126Y223425D03*
X210276D03*
X213425D03*
X207126Y220276D03*
X210276D03*
X213425D03*
X207126Y217126D03*
X210276D03*
X213425D03*
X207126Y236024D03*
X210276D03*
X213425D03*
X207126Y232874D03*
X210276D03*
X213425D03*
X216575Y213976D03*
X219724D03*
X222874D03*
X216575Y229724D03*
X219724D03*
X222874D03*
X216575Y226575D03*
X219724D03*
X222874D03*
X216575Y223425D03*
X219724D03*
X222874D03*
X216575Y220276D03*
X219724D03*
X222874D03*
X216575Y217126D03*
X219724D03*
X222874D03*
X216575Y236024D03*
X219724D03*
X222874D03*
X216575Y232874D03*
X219724D03*
X222874D03*
X491526Y212376D03*
X494676D03*
X491526Y209226D03*
X494676D03*
X491526Y206076D03*
X494676D03*
X491526Y228124D03*
X494676D03*
X491526Y224974D03*
X494676D03*
X491526Y221824D03*
X494676D03*
X491526Y218675D03*
X494676D03*
X491526Y215525D03*
X494676D03*
X497825Y212376D03*
X500975D03*
X504124D03*
X507274D03*
X497825Y209226D03*
X500975D03*
X504124D03*
X507274D03*
X497825Y206076D03*
X500975D03*
X504124D03*
X507274D03*
X497825Y228124D03*
X500975D03*
X504124D03*
X507274D03*
X497825Y224974D03*
X500975D03*
X504124D03*
X507274D03*
X497825Y221824D03*
X500975D03*
X504124D03*
X507274D03*
X497825Y218675D03*
X500975D03*
X504124D03*
X507274D03*
X497825Y215525D03*
X500975D03*
X504124D03*
X507274D03*
G54D24*
X65950Y322050D03*
X76050D03*
X699950Y332750D03*
X710050D03*
G54D51*
X202930Y284100D03*
X205095D03*
X207260D03*
X209425D03*
X211590D03*
X213755D03*
X202930Y335900D03*
X205095D03*
X207260D03*
X209425D03*
X211590D03*
X213755D03*
X215920Y284100D03*
X218085D03*
X220250D03*
X222415D03*
X224580D03*
X226745D03*
X228910D03*
X231075D03*
X215920Y335900D03*
X218085D03*
X220250D03*
X222415D03*
X224580D03*
X226745D03*
X228910D03*
X231075D03*
G54D60*
X274000Y183000D03*
X284000D03*
X459500Y188000D03*
X449500D03*
X492500Y275000D03*
X502500D03*
X744000Y236400D03*
Y246400D03*
G54D42*
X168700Y198500D03*
Y218500D03*
Y208500D03*
Y228500D03*
Y238500D03*
X617500Y188500D03*
Y198500D03*
Y208500D03*
Y218500D03*
Y228500D03*
G54D33*
X147500Y337500D03*
Y357500D03*
Y347500D03*
Y367500D03*
Y377500D03*
X157500Y337500D03*
Y357500D03*
Y347500D03*
Y367500D03*
Y377500D03*
X167500Y337500D03*
Y357500D03*
Y347500D03*
Y367500D03*
Y377500D03*
G54D15*
X22738Y235237D03*
Y299473D03*
Y312737D03*
Y376973D03*
G54D34*
X154000Y62150D03*
Y81850D03*
G54D52*
X221650Y97000D03*
X232350D03*
X290650Y216000D03*
X301350D03*
X298450Y375900D03*
X309150D03*
X350650Y216000D03*
X349450Y377800D03*
X361350Y216000D03*
X360150Y377800D03*
X377650Y378000D03*
X388350D03*
X398650Y94000D03*
X409350D03*
X410650Y216000D03*
X421350D03*
X419550Y377900D03*
X430250D03*
X472650Y365000D03*
X498650Y300000D03*
X483350Y365000D03*
X509350Y300000D03*
G54D61*
X297000Y190650D03*
Y201350D03*
X498000Y73650D03*
Y84350D03*
G54D16*
X33100Y30000D03*
X26900D03*
X24400Y127500D03*
X30600D03*
X53100Y39000D03*
X56900Y147500D03*
Y157500D03*
Y167500D03*
Y177500D03*
Y187500D03*
Y197500D03*
Y207500D03*
Y217500D03*
X59300Y39000D03*
X63500Y83200D03*
X69700D03*
X63100Y147500D03*
Y157500D03*
Y167500D03*
Y177500D03*
Y187500D03*
Y197500D03*
Y207500D03*
Y217500D03*
X62900Y295000D03*
X69100D03*
X76700Y16200D03*
X82900D03*
X76700Y9200D03*
X82900D03*
X76700Y31200D03*
X82900D03*
X76700Y24200D03*
X82900D03*
X89900Y84000D03*
X86900Y145000D03*
X84900Y175000D03*
X91100D03*
X84600Y167600D03*
X90800D03*
X86900Y182500D03*
Y192500D03*
Y202500D03*
Y210000D03*
Y217500D03*
Y225000D03*
Y232500D03*
Y240000D03*
Y247500D03*
Y257500D03*
X87400Y274900D03*
X87100Y297800D03*
X88900Y340000D03*
X101900Y90000D03*
X108100D03*
X96100Y84000D03*
X93100Y145000D03*
Y182500D03*
Y192500D03*
Y202500D03*
Y210000D03*
Y217500D03*
Y225000D03*
Y232500D03*
Y240000D03*
Y247500D03*
Y257500D03*
X93600Y274900D03*
X93300Y297800D03*
X107900Y292000D03*
X95100Y340000D03*
X114100Y292000D03*
X143800Y15500D03*
X143700Y30800D03*
X150000Y15500D03*
X149900Y30800D03*
X152400Y45600D03*
X146200D03*
Y51700D03*
X152400D03*
X152900Y90000D03*
X159100D03*
X173900Y75200D03*
Y81200D03*
X169900Y103000D03*
X176100D03*
X180100Y75200D03*
Y81200D03*
X191100Y350000D03*
X184900D03*
X214900Y181000D03*
Y187000D03*
X204100Y191000D03*
X197900D03*
X202900Y198000D03*
X209100D03*
X209900Y248000D03*
X213900Y270000D03*
X212900Y349000D03*
X222300Y74700D03*
X216100D03*
Y80900D03*
X222300D03*
X226900Y107000D03*
X221100Y181000D03*
Y187000D03*
X216100Y248000D03*
X220100Y270000D03*
X219100Y349000D03*
X234000Y66900D03*
X240200D03*
X234000Y60600D03*
X240200D03*
X233100Y107000D03*
X243900Y187000D03*
X250100D03*
X243900Y181000D03*
X250100D03*
X235900Y209000D03*
X242100D03*
X247100Y231100D03*
X240900D03*
X239100Y344000D03*
X232900D03*
X254000Y79700D03*
X260200D03*
X256900Y113000D03*
X263100D03*
X264900Y173000D03*
X255900Y187000D03*
X262100D03*
X255900Y181000D03*
X262100D03*
X259100Y205000D03*
X252900D03*
X259100Y199000D03*
X252900D03*
X258900Y253000D03*
X265100D03*
X258900Y261000D03*
X265100D03*
X258900Y269000D03*
X265100D03*
X268900Y69000D03*
X275100D03*
X281900D03*
X271100Y173000D03*
X272900Y192000D03*
X279100D03*
X272900Y198000D03*
X279100D03*
X272900Y204000D03*
X279100D03*
X270500Y241000D03*
X276700D03*
X275900Y313000D03*
X282100D03*
Y307000D03*
X275900D03*
X288100Y69000D03*
X301100D03*
X294900D03*
X320300Y374000D03*
X332400D03*
X326500D03*
X344700Y75100D03*
X338500D03*
X338600Y374000D03*
X369900Y63000D03*
Y69000D03*
X376100Y63000D03*
Y69000D03*
X380100Y78000D03*
X373900D03*
X415100Y74500D03*
X408900D03*
X408800Y80700D03*
X415000D03*
X424900Y144000D03*
Y137000D03*
Y158000D03*
Y151000D03*
Y179000D03*
Y172000D03*
Y165000D03*
X431100Y144000D03*
Y137000D03*
Y158000D03*
Y151000D03*
Y179000D03*
Y172000D03*
Y165000D03*
X441400Y305000D03*
X437400Y318500D03*
X441900Y334500D03*
Y344500D03*
X455900Y104000D03*
X458900Y180000D03*
X446900Y257500D03*
X453100D03*
X446900Y287500D03*
X453100D03*
X447600Y305000D03*
X443600Y318500D03*
X448100Y334500D03*
Y344500D03*
X467900Y104000D03*
X474100D03*
X462100D03*
X467900Y110000D03*
X474100D03*
X465100Y180000D03*
X474100Y186000D03*
X467900D03*
Y192000D03*
X474100D03*
X476900Y272500D03*
X473600Y293300D03*
X467400D03*
X479900Y186000D03*
X486100D03*
X483100Y272500D03*
X496900Y92000D03*
X503100D03*
X504400Y195000D03*
X510600D03*
X500000Y188800D03*
X506200D03*
X499700Y181900D03*
X505900D03*
X504300Y240500D03*
X510500D03*
X504100Y250000D03*
X510300D03*
X504000Y259300D03*
X510200D03*
X522900Y177000D03*
X529100D03*
X526900Y285000D03*
X533900Y109000D03*
X540100D03*
X536400Y189300D03*
X542600D03*
X543100Y181000D03*
X536900D03*
X533100Y285000D03*
X543100Y330000D03*
X536900D03*
X543100Y338000D03*
X536900D03*
X564100Y19700D03*
X564000Y6200D03*
X563300Y31400D03*
X563200Y37500D03*
X563500Y44100D03*
X556100Y330000D03*
X549900D03*
X556100Y338000D03*
X549900D03*
X570300Y19700D03*
X570200Y6200D03*
X569500Y31400D03*
X569400Y37500D03*
X569700Y44100D03*
X574300Y59600D03*
X568100D03*
X574700Y89800D03*
X580900D03*
X577100Y176000D03*
X570900D03*
Y200000D03*
X577100D03*
X571100Y217400D03*
X577300D03*
X570900Y319000D03*
X577100D03*
X607900Y335000D03*
X614100D03*
X607900Y341100D03*
X614100D03*
X647100Y17000D03*
X640900D03*
Y29000D03*
X647100D03*
Y23000D03*
X640900D03*
X646600Y305000D03*
X640400D03*
X646600Y311500D03*
X640400D03*
X646600Y318000D03*
X640400D03*
X653400Y330000D03*
X638400D03*
X644600D03*
X652900Y339500D03*
X638400D03*
X644600D03*
X637900Y360000D03*
X644100D03*
X671500Y55300D03*
X663100Y274500D03*
X656900D03*
X663100Y280500D03*
X656900D03*
X663100Y286500D03*
X656900D03*
X663100Y292500D03*
X656900D03*
X659600Y330000D03*
X659100Y339500D03*
X677700Y55300D03*
X683800D03*
Y42600D03*
Y49100D03*
X673400Y161500D03*
X679600D03*
X673400Y155500D03*
X679600D03*
X679900Y365000D03*
X686100D03*
X679900Y359000D03*
X686100D03*
X690000Y55300D03*
Y42600D03*
Y49100D03*
X698900Y58000D03*
X705100D03*
X707900Y237500D03*
X714100D03*
X707900Y243500D03*
X714100D03*
X719600Y323000D03*
X713400D03*
X737100Y36700D03*
Y43000D03*
X743300Y36700D03*
Y43000D03*
G54D25*
X65000Y332900D03*
Y339100D03*
X105800Y205300D03*
Y199100D03*
X106000Y352100D03*
Y345900D03*
Y358900D03*
Y365100D03*
X166000Y83100D03*
Y76900D03*
X170000Y108900D03*
Y115100D03*
X180000Y335900D03*
Y342100D03*
X194000Y225100D03*
Y218900D03*
X205000Y269900D03*
Y276100D03*
Y350100D03*
Y343900D03*
X198000Y350100D03*
Y343900D03*
X228000Y269900D03*
Y276100D03*
X226000Y349100D03*
Y342900D03*
X246900Y224600D03*
Y218400D03*
X240800Y243500D03*
Y237300D03*
X247000Y243500D03*
Y237300D03*
X250000Y279100D03*
Y272900D03*
X239000Y330900D03*
Y337100D03*
X251000Y253200D03*
Y259400D03*
X283500Y248900D03*
Y255100D03*
X283600Y261600D03*
Y267800D03*
X295000Y92900D03*
Y99100D03*
X362000Y62900D03*
Y69100D03*
X367000Y77900D03*
Y84100D03*
X438300Y239600D03*
Y233400D03*
X450000Y103100D03*
Y96900D03*
X473600Y300400D03*
Y306600D03*
X517500Y284400D03*
Y290600D03*
X534000Y72900D03*
Y79100D03*
X546000Y108100D03*
Y101900D03*
X545000Y283100D03*
Y276900D03*
X552000Y108100D03*
Y101900D03*
X549100Y210300D03*
Y204100D03*
X595000Y334900D03*
X601500D03*
X595000Y341100D03*
X601500D03*
X635000Y20400D03*
Y26600D03*
Y39100D03*
Y32900D03*
X636500Y155100D03*
Y148900D03*
X651000Y280100D03*
Y273900D03*
X671000Y231400D03*
Y237600D03*
X677300Y49000D03*
Y42800D03*
X680000Y371900D03*
Y378100D03*
X696700Y42500D03*
Y48700D03*
X734000Y285100D03*
Y278900D03*
X740000Y285100D03*
Y278900D03*
X746000D03*
Y285100D03*
G54D70*
X646000Y40000D03*
G54D43*
X191250Y96000D03*
X212750D03*
X241250Y97000D03*
X262750D03*
X481250Y105000D03*
X502750D03*
G54D26*
X70000Y364600D03*
Y375400D03*
X676500Y144900D03*
Y134100D03*
X711000Y230900D03*
Y220100D03*
X740500Y14400D03*
Y25200D03*
G54D53*
X233000Y146000D03*
X492000D03*
G54D35*
X154800Y196000D03*
Y198500D03*
Y201000D03*
Y203500D03*
Y206000D03*
Y208500D03*
Y211000D03*
Y213500D03*
Y216000D03*
Y218500D03*
Y221000D03*
Y223500D03*
Y226000D03*
Y228500D03*
Y231000D03*
Y233500D03*
Y236000D03*
Y238500D03*
Y241000D03*
X182600Y196000D03*
Y198500D03*
Y201000D03*
Y203500D03*
Y206000D03*
Y208500D03*
Y211000D03*
Y213500D03*
Y216000D03*
Y218500D03*
Y221000D03*
Y223500D03*
Y226000D03*
Y228500D03*
Y231000D03*
Y233500D03*
Y236000D03*
Y238500D03*
Y241000D03*
X603600Y196000D03*
Y193500D03*
Y191000D03*
Y188500D03*
Y186000D03*
Y213500D03*
Y211000D03*
Y208500D03*
Y206000D03*
Y203500D03*
Y201000D03*
Y198500D03*
Y231000D03*
Y228500D03*
Y226000D03*
Y223500D03*
Y221000D03*
Y218500D03*
Y216000D03*
X631400Y196000D03*
Y193500D03*
Y191000D03*
Y188500D03*
Y186000D03*
Y213500D03*
Y211000D03*
Y208500D03*
Y206000D03*
Y203500D03*
Y201000D03*
Y198500D03*
Y231000D03*
Y228500D03*
Y226000D03*
Y223500D03*
Y221000D03*
Y218500D03*
Y216000D03*
G54D44*
X195000Y234500D03*
Y239500D03*
X265000Y192500D03*
Y197500D03*
Y201500D03*
Y206500D03*
X495900Y241400D03*
Y246400D03*
G54D80*
X719571Y91260D03*
Y98740D03*
X728429Y91260D03*
Y95000D03*
Y98740D03*
G54D62*
X301613Y230039D03*
X297676D03*
X301613Y233976D03*
X297676D03*
X293739D03*
X301613Y237913D03*
X297676D03*
X293739D03*
X301613Y241850D03*
X297676D03*
X293739D03*
X301613Y245787D03*
X297676D03*
X293739D03*
X301613Y249724D03*
X297676D03*
X293739D03*
X301613Y253661D03*
X297676D03*
X293739D03*
X301613Y257598D03*
X297676D03*
X293739D03*
X301613Y261535D03*
X297676D03*
X293739D03*
X301613Y265472D03*
X297676D03*
X293739D03*
X301613Y269409D03*
X297676D03*
X293739D03*
X301613Y273346D03*
X297676D03*
X293739D03*
X301613Y277284D03*
X297676D03*
X293739D03*
X301613Y281220D03*
X297676D03*
X293739D03*
X301613Y285158D03*
X297676D03*
X293739D03*
X301613Y289094D03*
X297676D03*
X293739D03*
X301613Y293032D03*
X297676D03*
X293739D03*
X301613Y296968D03*
X297676D03*
X293739D03*
X301613Y300906D03*
X297676D03*
X293739D03*
X301613Y304842D03*
X297676D03*
X293739D03*
X301613Y308780D03*
X297676D03*
X293739D03*
X301613Y312716D03*
X297676D03*
X293739D03*
X301613Y316654D03*
X297676D03*
X293739D03*
X301613Y320591D03*
X297676D03*
X293739D03*
X301613Y324528D03*
X297676D03*
X293739D03*
X301613Y328465D03*
X297676D03*
X293739D03*
X301613Y332402D03*
X297676D03*
X293739D03*
X301613Y336339D03*
X297676D03*
X293739D03*
X301613Y340276D03*
X297676D03*
X293739D03*
X301613Y344213D03*
X297676D03*
X293739D03*
X301613Y348150D03*
X297676D03*
X293739D03*
X301613Y352087D03*
X297676D03*
X293739D03*
X301613Y356024D03*
X297676D03*
X293739D03*
X301613Y359961D03*
X297676D03*
X293739D03*
X316561Y106387D03*
X312624D03*
X308687D03*
X316561Y110324D03*
X312624D03*
X308687D03*
X316561Y114261D03*
X312624D03*
X308687D03*
X316561Y118198D03*
X312624D03*
X308687D03*
X316561Y122135D03*
X312624D03*
X308687D03*
X316561Y126072D03*
X312624D03*
X308687D03*
X316561Y130009D03*
X312624D03*
X308687D03*
X316561Y133946D03*
X312624D03*
X308687D03*
X316561Y137884D03*
X312624D03*
X308687D03*
X316561Y141820D03*
X312624D03*
X308687D03*
X316561Y145758D03*
X312624D03*
X308687D03*
X316561Y149694D03*
X312624D03*
X308687D03*
X316561Y153632D03*
X312624D03*
X308687D03*
X316561Y157568D03*
X312624D03*
X308687D03*
X316561Y161506D03*
X312624D03*
X308687D03*
X316561Y165442D03*
X312624D03*
X308687D03*
X316561Y169380D03*
X312624D03*
X308687D03*
X316561Y173316D03*
X312624D03*
X308687D03*
X316561Y177254D03*
X312624D03*
X308687D03*
X316561Y181191D03*
X312624D03*
X308687D03*
X316561Y185128D03*
X312624D03*
X308687D03*
X316561Y189065D03*
X312624D03*
X308687D03*
X316561Y193002D03*
X312624D03*
X308687D03*
X316561Y196939D03*
X312624D03*
X308687D03*
X316561Y200876D03*
X312624D03*
X308687D03*
X316561Y204813D03*
X312624D03*
X308687D03*
X317361Y230039D03*
X313424D03*
X309487D03*
X305550D03*
X317361Y233976D03*
X313424D03*
X309487D03*
X305550D03*
X317361Y237913D03*
X313424D03*
X309487D03*
X305550D03*
X317361Y241850D03*
X313424D03*
X309487D03*
X305550D03*
X317361Y245787D03*
X313424D03*
X309487D03*
X305550D03*
X317361Y249724D03*
X313424D03*
X309487D03*
X305550D03*
X317361Y253661D03*
X313424D03*
X309487D03*
X305550D03*
X317361Y257598D03*
X313424D03*
X309487D03*
X305550D03*
X317361Y261535D03*
X313424D03*
X309487D03*
X305550D03*
X317361Y265472D03*
X313424D03*
X309487D03*
X305550D03*
X317361Y269409D03*
X313424D03*
X309487D03*
X305550D03*
X317361Y273346D03*
X313424D03*
X309487D03*
X305550D03*
X317361Y277284D03*
X313424D03*
X309487D03*
X305550D03*
X317361Y281220D03*
X313424D03*
X309487D03*
X305550D03*
X317361Y285158D03*
X313424D03*
X309487D03*
X305550D03*
X317361Y289094D03*
X313424D03*
X309487D03*
X305550D03*
X317361Y293032D03*
X313424D03*
X309487D03*
X305550D03*
X317361Y296968D03*
X313424D03*
X309487D03*
X305550D03*
X317361Y300906D03*
X313424D03*
X309487D03*
X305550D03*
X317361Y304842D03*
X313424D03*
X309487D03*
X305550D03*
X317361Y308780D03*
X313424D03*
X309487D03*
X305550D03*
X317361Y312716D03*
X313424D03*
X309487D03*
X305550D03*
X317361Y316654D03*
X313424D03*
X309487D03*
X305550D03*
X317361Y320591D03*
X313424D03*
X309487D03*
X305550D03*
X317361Y324528D03*
X313424D03*
X309487D03*
X305550D03*
X317361Y328465D03*
X313424D03*
X309487D03*
X305550D03*
X317361Y332402D03*
X313424D03*
X309487D03*
X305550D03*
X317361Y336339D03*
X313424D03*
X309487D03*
X305550D03*
X317361Y340276D03*
X313424D03*
X309487D03*
X305550D03*
X317361Y344213D03*
X313424D03*
X309487D03*
X305550D03*
X317361Y348150D03*
X313424D03*
X309487D03*
X305550D03*
X317361Y352087D03*
X313424D03*
X309487D03*
X305550D03*
X317361Y356024D03*
X313424D03*
X309487D03*
X305550D03*
X317361Y359961D03*
X313424D03*
X309487D03*
X305550D03*
X336246Y106387D03*
X332309D03*
X328372D03*
X324435D03*
X320498D03*
X336246Y110324D03*
X332309D03*
X328372D03*
X324435D03*
X320498D03*
X336246Y114261D03*
X332309D03*
X328372D03*
X324435D03*
X320498D03*
X336246Y118198D03*
X332309D03*
X328372D03*
X324435D03*
X320498D03*
X336246Y122135D03*
X332309D03*
X328372D03*
X324435D03*
X320498D03*
X336246Y126072D03*
X332309D03*
X328372D03*
X324435D03*
X320498D03*
X336246Y130009D03*
X332309D03*
X328372D03*
X324435D03*
X320498D03*
X336246Y133946D03*
X332309D03*
X328372D03*
X324435D03*
X320498D03*
X336246Y137884D03*
X332309D03*
X328372D03*
X324435D03*
X320498D03*
X336246Y141820D03*
X332309D03*
X328372D03*
X324435D03*
X320498D03*
X336246Y145758D03*
X332309D03*
X328372D03*
X324435D03*
X320498D03*
X336246Y149694D03*
X332309D03*
X328372D03*
X324435D03*
X320498D03*
X336246Y153632D03*
X332309D03*
X328372D03*
X324435D03*
X320498D03*
X336246Y157568D03*
X332309D03*
X328372D03*
X324435D03*
X320498D03*
X336246Y161506D03*
X332309D03*
X328372D03*
X324435D03*
X320498D03*
X336246Y165442D03*
X332309D03*
X328372D03*
X324435D03*
X320498D03*
X336246Y169380D03*
X332309D03*
X328372D03*
X324435D03*
X320498D03*
X336246Y173316D03*
X332309D03*
X328372D03*
X324435D03*
X320498D03*
X336246Y177254D03*
X332309D03*
X328372D03*
X324435D03*
X320498D03*
X336246Y181191D03*
X332309D03*
X328372D03*
X324435D03*
X320498D03*
X336246Y185128D03*
X332309D03*
X328372D03*
X324435D03*
X320498D03*
X336246Y189065D03*
X332309D03*
X328372D03*
X324435D03*
X320498D03*
X336246Y193002D03*
X332309D03*
X328372D03*
X324435D03*
X320498D03*
X336246Y196939D03*
X332309D03*
X328372D03*
X324435D03*
X320498D03*
X336246Y200876D03*
X332309D03*
X328372D03*
X324435D03*
X320498D03*
X336246Y204813D03*
X332309D03*
X328372D03*
X324435D03*
X320498D03*
X337046Y230039D03*
X333109D03*
X329172D03*
X325235D03*
X321298D03*
X337046Y233976D03*
X333109D03*
X329172D03*
X325235D03*
X321298D03*
X337046Y237913D03*
X333109D03*
X329172D03*
X325235D03*
X321298D03*
X337046Y241850D03*
X333109D03*
X329172D03*
X325235D03*
X321298D03*
X337046Y245787D03*
X333109D03*
X329172D03*
X325235D03*
X321298D03*
X337046Y249724D03*
X333109D03*
X329172D03*
X325235D03*
X321298D03*
X337046Y253661D03*
X333109D03*
X329172D03*
X325235D03*
X321298D03*
X337046Y257598D03*
X333109D03*
X329172D03*
X325235D03*
X321298D03*
X337046Y261535D03*
X333109D03*
X329172D03*
X325235D03*
X321298D03*
X337046Y265472D03*
X333109D03*
X329172D03*
X325235D03*
X321298D03*
X337046Y269409D03*
X333109D03*
X329172D03*
X325235D03*
X321298D03*
X337046Y273346D03*
X333109D03*
X329172D03*
X325235D03*
X321298D03*
X337046Y277284D03*
X333109D03*
X329172D03*
X325235D03*
X321298D03*
X337046Y281220D03*
X333109D03*
X329172D03*
X325235D03*
X321298D03*
X337046Y285158D03*
X333109D03*
X329172D03*
X325235D03*
X321298D03*
X337046Y289094D03*
X333109D03*
X329172D03*
X325235D03*
X321298D03*
X337046Y293032D03*
X333109D03*
X329172D03*
X325235D03*
X321298D03*
X337046Y296968D03*
X333109D03*
X329172D03*
X325235D03*
X321298D03*
X337046Y300906D03*
X333109D03*
X329172D03*
X325235D03*
X321298D03*
X337046Y304842D03*
X333109D03*
X329172D03*
X325235D03*
X321298D03*
X337046Y308780D03*
X333109D03*
X329172D03*
X325235D03*
X321298D03*
X337046Y312716D03*
X333109D03*
X329172D03*
X325235D03*
X321298D03*
X337046Y316654D03*
X333109D03*
X329172D03*
X325235D03*
X321298D03*
X337046Y320591D03*
X333109D03*
X329172D03*
X325235D03*
X321298D03*
X337046Y324528D03*
X333109D03*
X329172D03*
X325235D03*
X321298D03*
X337046Y328465D03*
X333109D03*
X329172D03*
X325235D03*
X321298D03*
X337046Y332402D03*
X333109D03*
X329172D03*
X325235D03*
X321298D03*
X337046Y336339D03*
X333109D03*
X329172D03*
X325235D03*
X321298D03*
X337046Y340276D03*
X333109D03*
X329172D03*
X325235D03*
X321298D03*
X337046Y344213D03*
X333109D03*
X329172D03*
X325235D03*
X321298D03*
X337046Y348150D03*
X333109D03*
X329172D03*
X325235D03*
X321298D03*
X337046Y352087D03*
X333109D03*
X329172D03*
X325235D03*
X321298D03*
X337046Y356024D03*
X333109D03*
X329172D03*
X325235D03*
X321298D03*
X337046Y359961D03*
X333109D03*
X329172D03*
X325235D03*
X321298D03*
X351994Y106387D03*
X348058D03*
X344120D03*
X340184D03*
X351994Y110324D03*
X348058D03*
X344120D03*
X340184D03*
X351994Y114261D03*
X348058D03*
X344120D03*
X340184D03*
X351994Y118198D03*
X348058D03*
X344120D03*
X340184D03*
X351994Y122135D03*
X348058D03*
X344120D03*
X340184D03*
X351994Y126072D03*
X348058D03*
X344120D03*
X340184D03*
X351994Y130009D03*
X348058D03*
X344120D03*
X340184D03*
X351994Y133946D03*
X348058D03*
X344120D03*
X340184D03*
X351994Y137884D03*
X348058D03*
X344120D03*
X340184D03*
X351994Y141820D03*
X348058D03*
X344120D03*
X340184D03*
X351994Y145758D03*
X348058D03*
X344120D03*
X340184D03*
X351994Y149694D03*
X348058D03*
X344120D03*
X340184D03*
X351994Y153632D03*
X348058D03*
X344120D03*
X340184D03*
X351994Y157568D03*
X348058D03*
X344120D03*
X340184D03*
X351994Y161506D03*
X348058D03*
X344120D03*
X340184D03*
X351994Y165442D03*
X348058D03*
X344120D03*
X340184D03*
X351994Y169380D03*
X348058D03*
X344120D03*
X340184D03*
X351994Y173316D03*
X348058D03*
X344120D03*
X340184D03*
X351994Y177254D03*
X348058D03*
X344120D03*
X340184D03*
X351994Y181191D03*
X348058D03*
X344120D03*
X340184D03*
X351994Y185128D03*
X348058D03*
X344120D03*
X340184D03*
X351994Y189065D03*
X348058D03*
X344120D03*
X340184D03*
X351994Y193002D03*
X348058D03*
X344120D03*
X340184D03*
X351994Y196939D03*
X348058D03*
X344120D03*
X340184D03*
X351994Y200876D03*
X348058D03*
X344120D03*
X340184D03*
X351994Y204813D03*
X348058D03*
X344120D03*
X340184D03*
X352794Y230039D03*
X348858D03*
X344920D03*
X340984D03*
X352794Y233976D03*
X348858D03*
X344920D03*
X340984D03*
X352794Y237913D03*
X348858D03*
X344920D03*
X340984D03*
X352794Y241850D03*
X348858D03*
X344920D03*
X340984D03*
X352794Y245787D03*
X348858D03*
X344920D03*
X340984D03*
X352794Y249724D03*
X348858D03*
X344920D03*
X340984D03*
X352794Y253661D03*
X348858D03*
X344920D03*
X340984D03*
X352794Y257598D03*
X348858D03*
X344920D03*
X340984D03*
X352794Y261535D03*
X348858D03*
X344920D03*
X340984D03*
X352794Y265472D03*
X348858D03*
X344920D03*
X340984D03*
X352794Y269409D03*
X348858D03*
X344920D03*
X340984D03*
X352794Y273346D03*
X348858D03*
X344920D03*
X340984D03*
X352794Y277284D03*
X348858D03*
X344920D03*
X340984D03*
X352794Y281220D03*
X348858D03*
X344920D03*
X340984D03*
X352794Y285158D03*
X348858D03*
X344920D03*
X340984D03*
X352794Y289094D03*
X348858D03*
X344920D03*
X340984D03*
X352794Y293032D03*
X348858D03*
X344920D03*
X340984D03*
X352794Y296968D03*
X348858D03*
X344920D03*
X340984D03*
X352794Y300906D03*
X348858D03*
X344920D03*
X340984D03*
X352794Y304842D03*
X348858D03*
X344920D03*
X340984D03*
X352794Y308780D03*
X348858D03*
X344920D03*
X340984D03*
X352794Y312716D03*
X348858D03*
X344920D03*
X340984D03*
X352794Y316654D03*
X348858D03*
X344920D03*
X340984D03*
X352794Y320591D03*
X348858D03*
X344920D03*
X340984D03*
X352794Y324528D03*
X348858D03*
X344920D03*
X340984D03*
X352794Y328465D03*
X348858D03*
X344920D03*
X340984D03*
X352794Y332402D03*
X348858D03*
X344920D03*
X340984D03*
X352794Y336339D03*
X348858D03*
X344920D03*
X340984D03*
X352794Y340276D03*
X348858D03*
X344920D03*
X340984D03*
X352794Y344213D03*
X348858D03*
X344920D03*
X340984D03*
X352794Y348150D03*
X348858D03*
X344920D03*
X340984D03*
X352794Y352087D03*
X348858D03*
X344920D03*
X340984D03*
X352794Y356024D03*
X348858D03*
X344920D03*
X340984D03*
X352794Y359961D03*
X348858D03*
X344920D03*
X340984D03*
X371680Y106387D03*
X367742D03*
X363806D03*
X359868D03*
X355932D03*
X371680Y110324D03*
X367742D03*
X363806D03*
X359868D03*
X355932D03*
X371680Y114261D03*
X367742D03*
X363806D03*
X359868D03*
X355932D03*
X371680Y118198D03*
X367742D03*
X363806D03*
X359868D03*
X355932D03*
X371680Y122135D03*
X367742D03*
X363806D03*
X359868D03*
X355932D03*
X371680Y126072D03*
X367742D03*
X363806D03*
X359868D03*
X355932D03*
X371680Y130009D03*
X367742D03*
X363806D03*
X359868D03*
X355932D03*
X371680Y133946D03*
X367742D03*
X363806D03*
X359868D03*
X355932D03*
X371680Y137884D03*
X367742D03*
X363806D03*
X359868D03*
X355932D03*
X371680Y141820D03*
X367742D03*
X363806D03*
X359868D03*
X355932D03*
X371680Y145758D03*
X367742D03*
X363806D03*
X359868D03*
X355932D03*
X371680Y149694D03*
X367742D03*
X363806D03*
X359868D03*
X355932D03*
X371680Y153632D03*
X367742D03*
X363806D03*
X359868D03*
X355932D03*
X371680Y157568D03*
X367742D03*
X363806D03*
X359868D03*
X355932D03*
X371680Y161506D03*
X367742D03*
X363806D03*
X359868D03*
X355932D03*
X371680Y165442D03*
X367742D03*
X363806D03*
X359868D03*
X355932D03*
X371680Y169380D03*
X367742D03*
X363806D03*
X359868D03*
X355932D03*
X371680Y173316D03*
X367742D03*
X363806D03*
X359868D03*
X355932D03*
X371680Y177254D03*
X367742D03*
X363806D03*
X359868D03*
X355932D03*
X371680Y181191D03*
X367742D03*
X363806D03*
X359868D03*
X355932D03*
X371680Y185128D03*
X367742D03*
X363806D03*
X359868D03*
X355932D03*
X371680Y189065D03*
X367742D03*
X363806D03*
X359868D03*
X355932D03*
X371680Y193002D03*
X367742D03*
X363806D03*
X359868D03*
X355932D03*
X371680Y196939D03*
X367742D03*
X363806D03*
X359868D03*
X355932D03*
X371680Y200876D03*
X367742D03*
X363806D03*
X359868D03*
X355932D03*
X371680Y204813D03*
X367742D03*
X363806D03*
X359868D03*
X355932D03*
X372480Y230039D03*
X368542D03*
X364606D03*
X360668D03*
X356732D03*
X372480Y233976D03*
X368542D03*
X364606D03*
X360668D03*
X356732D03*
X372480Y237913D03*
X368542D03*
X364606D03*
X360668D03*
X356732D03*
X372480Y241850D03*
X368542D03*
X364606D03*
X360668D03*
X356732D03*
X372480Y245787D03*
X368542D03*
X364606D03*
X360668D03*
X356732D03*
X372480Y249724D03*
X368542D03*
X364606D03*
X360668D03*
X356732D03*
X372480Y253661D03*
X368542D03*
X364606D03*
X360668D03*
X356732D03*
X372480Y257598D03*
X368542D03*
X364606D03*
X360668D03*
X356732D03*
X372480Y261535D03*
X368542D03*
X364606D03*
X360668D03*
X356732D03*
X372480Y265472D03*
X368542D03*
X364606D03*
X360668D03*
X356732D03*
X372480Y269409D03*
X368542D03*
X364606D03*
X360668D03*
X356732D03*
X372480Y273346D03*
X368542D03*
X364606D03*
X360668D03*
X356732D03*
X372480Y277284D03*
X368542D03*
X364606D03*
X360668D03*
X356732D03*
X372480Y281220D03*
X368542D03*
X364606D03*
X360668D03*
X356732D03*
X372480Y285158D03*
X368542D03*
X364606D03*
X360668D03*
X356732D03*
X372480Y289094D03*
X368542D03*
X364606D03*
X360668D03*
X356732D03*
X372480Y293032D03*
X368542D03*
X364606D03*
X360668D03*
X356732D03*
X372480Y296968D03*
X368542D03*
X364606D03*
X360668D03*
X356732D03*
X372480Y300906D03*
X368542D03*
X364606D03*
X360668D03*
X356732D03*
X372480Y304842D03*
X368542D03*
X364606D03*
X360668D03*
X356732D03*
X372480Y308780D03*
X368542D03*
X364606D03*
X360668D03*
X356732D03*
X372480Y312716D03*
X368542D03*
X364606D03*
X360668D03*
X356732D03*
X372480Y316654D03*
X368542D03*
X364606D03*
X360668D03*
X356732D03*
X372480Y320591D03*
X368542D03*
X364606D03*
X360668D03*
X356732D03*
X372480Y324528D03*
X368542D03*
X364606D03*
X360668D03*
X356732D03*
X372480Y328465D03*
X368542D03*
X364606D03*
X360668D03*
X356732D03*
X372480Y332402D03*
X368542D03*
X364606D03*
X360668D03*
X356732D03*
X372480Y336339D03*
X368542D03*
X364606D03*
X360668D03*
X356732D03*
X372480Y340276D03*
X368542D03*
X364606D03*
X360668D03*
X356732D03*
X372480Y344213D03*
X368542D03*
X364606D03*
X360668D03*
X356732D03*
X372480Y348150D03*
X368542D03*
X364606D03*
X360668D03*
X356732D03*
X372480Y352087D03*
X368542D03*
X364606D03*
X360668D03*
X356732D03*
X372480Y356024D03*
X368542D03*
X364606D03*
X360668D03*
X356732D03*
X372480Y359961D03*
X368542D03*
X364606D03*
X360668D03*
X356732D03*
X387428Y106387D03*
X383491D03*
X379554D03*
X375616D03*
X387428Y110324D03*
X383491D03*
X379554D03*
X375616D03*
X387428Y114261D03*
X383491D03*
X379554D03*
X375616D03*
X387428Y118198D03*
X383491D03*
X379554D03*
X375616D03*
X387428Y122135D03*
X383491D03*
X379554D03*
X375616D03*
X387428Y126072D03*
X383491D03*
X379554D03*
X375616D03*
X387428Y130009D03*
X383491D03*
X379554D03*
X375616D03*
X387428Y133946D03*
X383491D03*
X379554D03*
X375616D03*
X387428Y137884D03*
X383491D03*
X379554D03*
X375616D03*
X387428Y141820D03*
X383491D03*
X379554D03*
X375616D03*
X387428Y145758D03*
X383491D03*
X379554D03*
X375616D03*
X387428Y149694D03*
X383491D03*
X379554D03*
X375616D03*
X387428Y153632D03*
X383491D03*
X379554D03*
X375616D03*
X387428Y157568D03*
X383491D03*
X379554D03*
X375616D03*
X387428Y161506D03*
X383491D03*
X379554D03*
X375616D03*
X387428Y165442D03*
X383491D03*
X379554D03*
X375616D03*
X387428Y169380D03*
X383491D03*
X379554D03*
X375616D03*
X387428Y173316D03*
X383491D03*
X379554D03*
X375616D03*
X387428Y177254D03*
X383491D03*
X379554D03*
X375616D03*
X387428Y181191D03*
X383491D03*
X379554D03*
X375616D03*
X387428Y185128D03*
X383491D03*
X379554D03*
X375616D03*
X387428Y189065D03*
X383491D03*
X379554D03*
X375616D03*
X387428Y193002D03*
X383491D03*
X379554D03*
X375616D03*
X387428Y196939D03*
X383491D03*
X379554D03*
X375616D03*
X387428Y200876D03*
X383491D03*
X379554D03*
X375616D03*
X387428Y204813D03*
X383491D03*
X379554D03*
X375616D03*
X388228Y230039D03*
X384291D03*
X380354D03*
X376416D03*
X388228Y233976D03*
X384291D03*
X380354D03*
X376416D03*
X388228Y237913D03*
X384291D03*
X380354D03*
X376416D03*
X388228Y241850D03*
X384291D03*
X380354D03*
X376416D03*
X388228Y245787D03*
X384291D03*
X380354D03*
X376416D03*
X388228Y249724D03*
X384291D03*
X380354D03*
X376416D03*
X388228Y253661D03*
X384291D03*
X380354D03*
X376416D03*
X388228Y257598D03*
X384291D03*
X380354D03*
X376416D03*
X388228Y261535D03*
X384291D03*
X380354D03*
X376416D03*
X388228Y265472D03*
X384291D03*
X380354D03*
X376416D03*
X388228Y269409D03*
X384291D03*
X380354D03*
X376416D03*
X388228Y273346D03*
X384291D03*
X380354D03*
X376416D03*
X388228Y277284D03*
X384291D03*
X380354D03*
X376416D03*
X388228Y281220D03*
X384291D03*
X380354D03*
X376416D03*
X388228Y285158D03*
X384291D03*
X380354D03*
X376416D03*
X388228Y289094D03*
X384291D03*
X380354D03*
X376416D03*
X388228Y293032D03*
X384291D03*
X380354D03*
X376416D03*
X388228Y296968D03*
X384291D03*
X380354D03*
X376416D03*
X388228Y300906D03*
X384291D03*
X380354D03*
X376416D03*
X388228Y304842D03*
X384291D03*
X380354D03*
X376416D03*
X388228Y308780D03*
X384291D03*
X380354D03*
X376416D03*
X388228Y312716D03*
X384291D03*
X380354D03*
X376416D03*
X388228Y316654D03*
X384291D03*
X380354D03*
X376416D03*
X388228Y320591D03*
X384291D03*
X380354D03*
X376416D03*
X388228Y324528D03*
X384291D03*
X380354D03*
X376416D03*
X388228Y328465D03*
X384291D03*
X380354D03*
X376416D03*
X388228Y332402D03*
X384291D03*
X380354D03*
X376416D03*
X388228Y336339D03*
X384291D03*
X380354D03*
X376416D03*
X388228Y340276D03*
X384291D03*
X380354D03*
X376416D03*
X388228Y344213D03*
X384291D03*
X380354D03*
X376416D03*
X388228Y348150D03*
X384291D03*
X380354D03*
X376416D03*
X388228Y352087D03*
X384291D03*
X380354D03*
X376416D03*
X388228Y356024D03*
X384291D03*
X380354D03*
X376416D03*
X388228Y359961D03*
X384291D03*
X380354D03*
X376416D03*
X407113Y106387D03*
X403176D03*
X399239D03*
X395302D03*
X391365D03*
X407113Y110324D03*
X403176D03*
X399239D03*
X395302D03*
X391365D03*
X407113Y114261D03*
X403176D03*
X399239D03*
X395302D03*
X391365D03*
X407113Y118198D03*
X403176D03*
X399239D03*
X395302D03*
X391365D03*
X407113Y122135D03*
X403176D03*
X399239D03*
X395302D03*
X391365D03*
X407113Y126072D03*
X403176D03*
X399239D03*
X395302D03*
X391365D03*
X407113Y130009D03*
X403176D03*
X399239D03*
X395302D03*
X391365D03*
X407113Y133946D03*
X403176D03*
X399239D03*
X395302D03*
X391365D03*
X407113Y137884D03*
X403176D03*
X399239D03*
X395302D03*
X391365D03*
X407113Y141820D03*
X403176D03*
X399239D03*
X395302D03*
X391365D03*
X407113Y145758D03*
X403176D03*
X399239D03*
X395302D03*
X391365D03*
X407113Y149694D03*
X403176D03*
X399239D03*
X395302D03*
X391365D03*
X407113Y153632D03*
X403176D03*
X399239D03*
X395302D03*
X391365D03*
X407113Y157568D03*
X403176D03*
X399239D03*
X395302D03*
X391365D03*
X407113Y161506D03*
X403176D03*
X399239D03*
X395302D03*
X391365D03*
X407113Y165442D03*
X403176D03*
X399239D03*
X395302D03*
X391365D03*
X407113Y169380D03*
X403176D03*
X399239D03*
X395302D03*
X391365D03*
X407113Y173316D03*
X403176D03*
X399239D03*
X395302D03*
X391365D03*
X407113Y177254D03*
X403176D03*
X399239D03*
X395302D03*
X391365D03*
X407113Y181191D03*
X403176D03*
X399239D03*
X395302D03*
X391365D03*
X407113Y185128D03*
X403176D03*
X399239D03*
X395302D03*
X391365D03*
X407113Y189065D03*
X403176D03*
X399239D03*
X395302D03*
X391365D03*
X407113Y193002D03*
X403176D03*
X399239D03*
X395302D03*
X391365D03*
X407113Y196939D03*
X403176D03*
X399239D03*
X395302D03*
X391365D03*
X407113Y200876D03*
X403176D03*
X399239D03*
X395302D03*
X391365D03*
X407113Y204813D03*
X403176D03*
X399239D03*
X395302D03*
X391365D03*
X407913Y230039D03*
X403976D03*
X400039D03*
X396102D03*
X392165D03*
X407913Y233976D03*
X403976D03*
X400039D03*
X396102D03*
X392165D03*
X407913Y237913D03*
X403976D03*
X400039D03*
X396102D03*
X392165D03*
X407913Y241850D03*
X403976D03*
X400039D03*
X396102D03*
X392165D03*
X407913Y245787D03*
X403976D03*
X400039D03*
X396102D03*
X392165D03*
X407913Y249724D03*
X403976D03*
X400039D03*
X396102D03*
X392165D03*
X407913Y253661D03*
X403976D03*
X400039D03*
X396102D03*
X392165D03*
X407913Y257598D03*
X403976D03*
X400039D03*
X396102D03*
X392165D03*
X407913Y261535D03*
X403976D03*
X400039D03*
X396102D03*
X392165D03*
X407913Y265472D03*
X403976D03*
X400039D03*
X396102D03*
X392165D03*
X407913Y269409D03*
X403976D03*
X400039D03*
X396102D03*
X392165D03*
X407913Y273346D03*
X403976D03*
X400039D03*
X396102D03*
X392165D03*
X407913Y277284D03*
X403976D03*
X400039D03*
X396102D03*
X392165D03*
X407913Y281220D03*
X403976D03*
X400039D03*
X396102D03*
X392165D03*
X407913Y285158D03*
X403976D03*
X400039D03*
X396102D03*
X392165D03*
X407913Y289094D03*
X403976D03*
X400039D03*
X396102D03*
X392165D03*
X407913Y293032D03*
X403976D03*
X400039D03*
X396102D03*
X392165D03*
X407913Y296968D03*
X403976D03*
X400039D03*
X396102D03*
X392165D03*
X407913Y300906D03*
X403976D03*
X400039D03*
X396102D03*
X392165D03*
X407913Y304842D03*
X403976D03*
X400039D03*
X396102D03*
X392165D03*
X407913Y308780D03*
X403976D03*
X400039D03*
X396102D03*
X392165D03*
X407913Y312716D03*
X403976D03*
X400039D03*
X396102D03*
X392165D03*
X407913Y316654D03*
X403976D03*
X400039D03*
X396102D03*
X392165D03*
X407913Y320591D03*
X403976D03*
X400039D03*
X396102D03*
X392165D03*
X407913Y324528D03*
X403976D03*
X400039D03*
X396102D03*
X392165D03*
X407913Y328465D03*
X403976D03*
X400039D03*
X396102D03*
X392165D03*
X407913Y332402D03*
X403976D03*
X400039D03*
X396102D03*
X392165D03*
X407913Y336339D03*
X403976D03*
X400039D03*
X396102D03*
X392165D03*
X407913Y340276D03*
X403976D03*
X400039D03*
X396102D03*
X392165D03*
X407913Y344213D03*
X403976D03*
X400039D03*
X396102D03*
X392165D03*
X407913Y348150D03*
X403976D03*
X400039D03*
X396102D03*
X392165D03*
X407913Y352087D03*
X403976D03*
X400039D03*
X396102D03*
X392165D03*
X407913Y356024D03*
X403976D03*
X400039D03*
X396102D03*
X392165D03*
X407913Y359961D03*
X403976D03*
X400039D03*
X396102D03*
X392165D03*
X419724Y230039D03*
X415787D03*
X411850D03*
X423661Y233976D03*
X419724D03*
X415787D03*
X411850D03*
X423661Y237913D03*
X419724D03*
X415787D03*
X411850D03*
X423661Y241850D03*
X419724D03*
X415787D03*
X411850D03*
X423661Y245787D03*
X419724D03*
X415787D03*
X411850D03*
X423661Y249724D03*
X419724D03*
X415787D03*
X411850D03*
X423661Y253661D03*
X419724D03*
X415787D03*
X411850D03*
X423661Y257598D03*
X419724D03*
X415787D03*
X411850D03*
X423661Y261535D03*
X419724D03*
X415787D03*
X411850D03*
X423661Y265472D03*
X419724D03*
X415787D03*
X411850D03*
X423661Y269409D03*
X419724D03*
X415787D03*
X411850D03*
X423661Y273346D03*
X419724D03*
X415787D03*
X411850D03*
X423661Y277284D03*
X419724D03*
X415787D03*
X411850D03*
X423661Y281220D03*
X419724D03*
X415787D03*
X411850D03*
X423661Y285158D03*
X419724D03*
X415787D03*
X411850D03*
X423661Y289094D03*
X419724D03*
X415787D03*
X411850D03*
X423661Y293032D03*
X419724D03*
X415787D03*
X411850D03*
X423661Y296968D03*
X419724D03*
X415787D03*
X411850D03*
X423661Y300906D03*
X419724D03*
X415787D03*
X411850D03*
X423661Y304842D03*
X419724D03*
X415787D03*
X411850D03*
X423661Y308780D03*
X419724D03*
X415787D03*
X411850D03*
X423661Y312716D03*
X419724D03*
X415787D03*
X411850D03*
X423661Y316654D03*
X419724D03*
X415787D03*
X411850D03*
X423661Y320591D03*
X419724D03*
X415787D03*
X411850D03*
X423661Y324528D03*
X419724D03*
X415787D03*
X411850D03*
X423661Y328465D03*
X419724D03*
X415787D03*
X411850D03*
X423661Y332402D03*
X419724D03*
X415787D03*
X411850D03*
X423661Y336339D03*
X419724D03*
X415787D03*
X411850D03*
X423661Y340276D03*
X419724D03*
X415787D03*
X411850D03*
X423661Y344213D03*
X419724D03*
X415787D03*
X411850D03*
X423661Y348150D03*
X419724D03*
X415787D03*
X411850D03*
X423661Y352087D03*
X419724D03*
X415787D03*
X411850D03*
X423661Y356024D03*
X419724D03*
X415787D03*
X411850D03*
X419724Y359961D03*
X415787D03*
X411850D03*
G54D71*
X653500Y62000D03*
X640500D03*
G54D17*
X41500Y42000D03*
X59500Y53800D03*
X61000Y353000D03*
X80800Y42000D03*
X104000Y378000D03*
X124000Y11000D03*
Y23500D03*
Y36000D03*
X234000Y197500D03*
X222000D03*
X255600Y330500D03*
X255500Y343000D03*
Y355500D03*
X287000Y156000D03*
Y169000D03*
X486500Y243000D03*
X526000Y186000D03*
X537000Y160500D03*
X581500Y79500D03*
X579000Y337000D03*
X599000Y10000D03*
Y22000D03*
X593500Y67500D03*
Y79500D03*
X592000Y167000D03*
X605500Y67500D03*
X617500D03*
Y79500D03*
X605500D03*
X630000D03*
X644900Y7000D03*
X744000Y201000D03*
Y213000D03*
Y225100D03*
G54D90*
G01X261325Y-91700D02*
X262058Y-92200D01*
X262883Y-92500D01*
X263617D01*
X264350Y-92200D01*
X264900Y-91700D01*
X265175Y-91000D01*
X264992Y-90300D01*
X264533Y-89700D01*
X263708Y-89300D01*
X262608Y-89100D01*
X261967Y-88700D01*
X261692Y-88000D01*
X261875Y-87300D01*
X262333Y-86800D01*
X262975Y-86500D01*
X263617D01*
X264258Y-86700D01*
X264808Y-87200D01*
G01X269750Y-92500D02*
X269017Y-92400D01*
X268375Y-92000D01*
X267825Y-91400D01*
X267458Y-90700D01*
X267275Y-89900D01*
Y-89100D01*
X267458Y-88300D01*
X267825Y-87600D01*
X268375Y-87000D01*
X269017Y-86600D01*
X269750Y-86500D01*
X270483Y-86600D01*
X271125Y-87000D01*
X271675Y-87600D01*
X272042Y-88300D01*
X272225Y-89100D01*
Y-89900D01*
X272042Y-90700D01*
X271675Y-91400D01*
X271125Y-92000D01*
X270483Y-92400D01*
X269750Y-92500D01*
G01X274417Y-86500D02*
Y-92500D01*
X278083D01*
G01X280733D02*
Y-86500D01*
X282567D01*
X283300Y-86800D01*
X283850Y-87200D01*
X284308Y-87800D01*
X284675Y-88500D01*
X284767Y-89500D01*
X284675Y-90500D01*
X284308Y-91200D01*
X283850Y-91800D01*
X283300Y-92200D01*
X282567Y-92500D01*
X280733D01*
G01X291083D02*
X287417D01*
Y-86500D01*
X291083D01*
G01X289617Y-89400D02*
X287417D01*
G01X293917Y-92500D02*
Y-86500D01*
X296208D01*
X296942Y-86800D01*
X297400Y-87200D01*
X297583Y-88000D01*
X297400Y-88800D01*
X296850Y-89300D01*
X296208Y-89600D01*
X293917D01*
G01X296208D02*
X297583Y-92500D01*
G01X299867D02*
Y-86500D01*
X302250Y-91500D01*
X304633Y-86500D01*
Y-92500D01*
G01X306458D02*
X308750Y-86500D01*
X311042Y-92500D01*
G01X310217Y-90400D02*
X307283D01*
G01X313325Y-91700D02*
X314058Y-92200D01*
X314883Y-92500D01*
X315617D01*
X316350Y-92200D01*
X316900Y-91700D01*
X317175Y-91000D01*
X316992Y-90300D01*
X316533Y-89700D01*
X315708Y-89300D01*
X314608Y-89100D01*
X313967Y-88700D01*
X313692Y-88000D01*
X313875Y-87300D01*
X314333Y-86800D01*
X314975Y-86500D01*
X315617D01*
X316258Y-86700D01*
X316808Y-87200D01*
G01X319733Y-92500D02*
Y-86500D01*
G01X323217D02*
X319733Y-90200D01*
G01X323767Y-92500D02*
X321292Y-88500D01*
G01X272250Y-96500D02*
Y-102500D01*
G01X270142Y-96500D02*
X274358D01*
G01X278750Y-102500D02*
X278017Y-102400D01*
X277375Y-102000D01*
X276825Y-101400D01*
X276458Y-100700D01*
X276275Y-99900D01*
Y-99100D01*
X276458Y-98300D01*
X276825Y-97600D01*
X277375Y-97000D01*
X278017Y-96600D01*
X278750Y-96500D01*
X279483Y-96600D01*
X280125Y-97000D01*
X280675Y-97600D01*
X281042Y-98300D01*
X281225Y-99100D01*
Y-99900D01*
X281042Y-100700D01*
X280675Y-101400D01*
X280125Y-102000D01*
X279483Y-102400D01*
X278750Y-102500D01*
G01X283417D02*
Y-96500D01*
X285617D01*
X286350Y-96800D01*
X286900Y-97500D01*
X287083Y-98300D01*
X286900Y-99100D01*
X286442Y-99700D01*
X285617Y-100000D01*
X283417D01*
G01X296325Y-101700D02*
X297058Y-102200D01*
X297883Y-102500D01*
X298617D01*
X299350Y-102200D01*
X299900Y-101700D01*
X300175Y-101000D01*
X299992Y-100300D01*
X299533Y-99700D01*
X298708Y-99300D01*
X297608Y-99100D01*
X296967Y-98700D01*
X296692Y-98000D01*
X296875Y-97300D01*
X297333Y-96800D01*
X297975Y-96500D01*
X298617D01*
X299258Y-96700D01*
X299808Y-97200D01*
G01X303650Y-96500D02*
X305850D01*
G01X304750D02*
Y-102500D01*
G01X303650D02*
X305850D01*
G01X309233D02*
Y-96500D01*
X311067D01*
X311800Y-96800D01*
X312350Y-97200D01*
X312808Y-97800D01*
X313175Y-98500D01*
X313267Y-99500D01*
X313175Y-100500D01*
X312808Y-101200D01*
X312350Y-101800D01*
X311800Y-102200D01*
X311067Y-102500D01*
X309233D01*
G01X319583D02*
X315917D01*
Y-96500D01*
X319583D01*
G01X318117Y-99400D02*
X315917D01*
G01X364983Y-97500D02*
Y-91500D01*
X366817D01*
X367550Y-91800D01*
X368100Y-92200D01*
X368558Y-92800D01*
X368925Y-93500D01*
X369017Y-94500D01*
X368925Y-95500D01*
X368558Y-96200D01*
X368100Y-96800D01*
X367550Y-97200D01*
X366817Y-97500D01*
X364983D01*
G01X374600D02*
Y-91500D01*
X371208Y-95800D01*
X375792D01*
G01X380000Y-97500D02*
Y-91500D01*
X378900Y-92700D01*
G01Y-97500D02*
X381100D01*
G01X386500Y-91500D02*
X385767Y-91700D01*
X385217Y-92200D01*
X384850Y-92800D01*
X384575Y-93600D01*
X384483Y-94500D01*
X384575Y-95400D01*
X384850Y-96200D01*
X385217Y-96800D01*
X385767Y-97300D01*
X386500Y-97500D01*
X387233Y-97300D01*
X387783Y-96800D01*
X388150Y-96200D01*
X388425Y-95400D01*
X388517Y-94500D01*
X388425Y-93600D01*
X388150Y-92800D01*
X387783Y-92200D01*
X387233Y-91700D01*
X386500Y-91500D01*
G01X393000D02*
X392267Y-91700D01*
X391717Y-92200D01*
X391350Y-92800D01*
X391075Y-93600D01*
X390983Y-94500D01*
X391075Y-95400D01*
X391350Y-96200D01*
X391717Y-96800D01*
X392267Y-97300D01*
X393000Y-97500D01*
X393733Y-97300D01*
X394283Y-96800D01*
X394650Y-96200D01*
X394925Y-95400D01*
X395017Y-94500D01*
X394925Y-93600D01*
X394650Y-92800D01*
X394283Y-92200D01*
X393733Y-91700D01*
X393000Y-91500D01*
G01X405542Y-99500D02*
X404625Y-98500D01*
X404167Y-97500D01*
Y-93500D01*
X404625Y-92500D01*
X405542Y-91500D01*
G01X410758Y-92500D02*
X411308Y-91900D01*
X411950Y-91600D01*
X412683Y-91500D01*
X413600Y-91700D01*
X414242Y-92200D01*
X414425Y-92800D01*
X414333Y-93400D01*
X413967Y-93900D01*
X412133Y-94900D01*
X411308Y-95600D01*
X410758Y-96600D01*
X410575Y-97500D01*
X414425D01*
G01X416983Y-96600D02*
X417533Y-97100D01*
X418175Y-97400D01*
X419000Y-97500D01*
X419825Y-97300D01*
X420467Y-96900D01*
X420925Y-96200D01*
X421017Y-95400D01*
X420833Y-94600D01*
X420375Y-94100D01*
X419733Y-93700D01*
X419092Y-93600D01*
X418450Y-93700D01*
X417625Y-94100D01*
X417900Y-91500D01*
X420375D01*
G01X425500Y-97500D02*
Y-91500D01*
X424400Y-92700D01*
G01Y-97500D02*
X426600D01*
G01X432000Y-91500D02*
X431267Y-91700D01*
X430717Y-92200D01*
X430350Y-92800D01*
X430075Y-93600D01*
X429983Y-94500D01*
X430075Y-95400D01*
X430350Y-96200D01*
X430717Y-96800D01*
X431267Y-97300D01*
X432000Y-97500D01*
X432733Y-97300D01*
X433283Y-96800D01*
X433650Y-96200D01*
X433925Y-95400D01*
X434017Y-94500D01*
X433925Y-93600D01*
X433650Y-92800D01*
X433283Y-92200D01*
X432733Y-91700D01*
X432000Y-91500D01*
G01X436483Y-96300D02*
X437033Y-97000D01*
X437767Y-97400D01*
X438592Y-97500D01*
X439325Y-97400D01*
X440058Y-96900D01*
X440517Y-96300D01*
X440608Y-95700D01*
X440425Y-95000D01*
X439783Y-94500D01*
X439142Y-94300D01*
X438317D01*
G01X439142D02*
X439692Y-94000D01*
X440150Y-93500D01*
X440333Y-92900D01*
X440150Y-92300D01*
X439692Y-91800D01*
X438867Y-91500D01*
X438042Y-91600D01*
X437217Y-92000D01*
G01X445000Y-91500D02*
X444267Y-91700D01*
X443717Y-92200D01*
X443350Y-92800D01*
X443075Y-93600D01*
X442983Y-94500D01*
X443075Y-95400D01*
X443350Y-96200D01*
X443717Y-96800D01*
X444267Y-97300D01*
X445000Y-97500D01*
X445733Y-97300D01*
X446283Y-96800D01*
X446650Y-96200D01*
X446925Y-95400D01*
X447017Y-94500D01*
X446925Y-93600D01*
X446650Y-92800D01*
X446283Y-92200D01*
X445733Y-91700D01*
X445000Y-91500D01*
G01X451500D02*
X450767Y-91700D01*
X450217Y-92200D01*
X449850Y-92800D01*
X449575Y-93600D01*
X449483Y-94500D01*
X449575Y-95400D01*
X449850Y-96200D01*
X450217Y-96800D01*
X450767Y-97300D01*
X451500Y-97500D01*
X452233Y-97300D01*
X452783Y-96800D01*
X453150Y-96200D01*
X453425Y-95400D01*
X453517Y-94500D01*
X453425Y-93600D01*
X453150Y-92800D01*
X452783Y-92200D01*
X452233Y-91700D01*
X451500Y-91500D01*
G01X458458Y-99500D02*
X459375Y-98500D01*
X459833Y-97500D01*
Y-93500D01*
X459375Y-92500D01*
X458458Y-91500D01*
G54D18*
X34500Y245211D03*
Y250132D03*
Y255053D03*
Y259974D03*
Y264895D03*
Y269816D03*
Y274737D03*
Y279658D03*
Y284579D03*
Y289500D03*
Y322711D03*
Y327632D03*
Y332553D03*
Y337474D03*
Y342395D03*
Y347316D03*
Y352237D03*
Y357158D03*
Y362079D03*
Y367000D03*
G54D27*
X92247Y9900D03*
Y17000D03*
Y31000D03*
Y24000D03*
X98153Y9900D03*
Y17000D03*
Y31000D03*
Y24000D03*
X640547Y292000D03*
X646453D03*
G54D45*
X186047Y332685D03*
X188016D03*
X189984D03*
X191953D03*
X186047Y343315D03*
X188016D03*
X189984D03*
X191953D03*
X243953Y280315D03*
X241984D03*
X240016D03*
X238047D03*
X243953Y269685D03*
X241984D03*
X240016D03*
X238047D03*
G54D54*
X231500Y252547D03*
Y258453D03*
X239500Y252547D03*
Y258453D03*
X490000Y256047D03*
Y261953D03*
X481500Y256047D03*
Y261953D03*
G54D36*
X174000Y10500D03*
X342000D03*
X375000Y10000D03*
X543000D03*
G54D63*
X331600Y91000D03*
X354400D03*
X675900Y279700D03*
X698700D03*
X716700Y264400D03*
X739500D03*
G54D81*
X718248Y132500D03*
G54D72*
X655000Y147500D03*
X690000Y230500D03*
G54D91*
G01X258500Y-125000D02*
Y-117000D01*
X261000D01*
X262000Y-117400D01*
X262750Y-117933D01*
X263375Y-118733D01*
X263875Y-119667D01*
X264000Y-121000D01*
X263875Y-122333D01*
X263375Y-123267D01*
X262750Y-124067D01*
X262000Y-124600D01*
X261000Y-125000D01*
X258500D01*
G01X266625D02*
X269750Y-117000D01*
X272875Y-125000D01*
G01X271750Y-122200D02*
X267750D01*
G01X278250Y-117000D02*
Y-125000D01*
G01X275375Y-117000D02*
X281125D01*
G01X289250Y-125000D02*
X284250D01*
Y-117000D01*
X289250D01*
G01X287250Y-120867D02*
X284250D01*
G01X295250Y-125267D02*
X295000Y-125133D01*
Y-124867D01*
X295250Y-124733D01*
X295500Y-124867D01*
Y-125133D01*
X295250Y-125267D01*
G01Y-121667D02*
X295000Y-121533D01*
Y-121267D01*
X295250Y-121133D01*
X295500Y-121267D01*
Y-121533D01*
X295250Y-121667D01*
G01X267750Y-70000D02*
Y-62000D01*
X270250D01*
X271250Y-62400D01*
X272000Y-62933D01*
X272625Y-63733D01*
X273125Y-64667D01*
X273250Y-66000D01*
X273125Y-67333D01*
X272625Y-68267D01*
X272000Y-69067D01*
X271250Y-69600D01*
X270250Y-70000D01*
X267750D01*
G01X277500Y-62000D02*
X280500D01*
G01X279000D02*
Y-70000D01*
G01X277500D02*
X280500D01*
G01X288250Y-66000D02*
X290750D01*
Y-68400D01*
X290000Y-69200D01*
X289125Y-69733D01*
X287875Y-70000D01*
X286625Y-69733D01*
X285750Y-69200D01*
X285000Y-68400D01*
X284500Y-67467D01*
X284250Y-66400D01*
Y-65467D01*
X284500Y-64667D01*
X285000Y-63733D01*
X285750Y-62933D01*
X286500Y-62400D01*
X287500Y-62000D01*
X288375D01*
X289375Y-62267D01*
X290125Y-62800D01*
G01X294500Y-62000D02*
X297500D01*
G01X296000D02*
Y-70000D01*
G01X294500D02*
X297500D01*
G01X304500Y-62000D02*
Y-70000D01*
G01X301625Y-62000D02*
X307375D01*
G01X309875Y-70000D02*
X313000Y-62000D01*
X316125Y-70000D01*
G01X315000Y-67200D02*
X311000D01*
G01X319000Y-62000D02*
Y-70000D01*
X324000D01*
G01X336000Y-62000D02*
Y-70000D01*
X341000D01*
G01X345500Y-62000D02*
X348500D01*
G01X347000D02*
Y-70000D01*
G01X345500D02*
X348500D01*
G01X356250Y-66000D02*
X358750D01*
Y-68400D01*
X358000Y-69200D01*
X357125Y-69733D01*
X355875Y-70000D01*
X354625Y-69733D01*
X353750Y-69200D01*
X353000Y-68400D01*
X352500Y-67467D01*
X352250Y-66400D01*
Y-65467D01*
X352500Y-64667D01*
X353000Y-63733D01*
X353750Y-62933D01*
X354500Y-62400D01*
X355500Y-62000D01*
X356375D01*
X357375Y-62267D01*
X358125Y-62800D01*
G01X361375Y-70000D02*
Y-62000D01*
G01X366625D02*
Y-70000D01*
G01Y-66000D02*
X361375D01*
G01X372500Y-62000D02*
Y-70000D01*
G01X369625Y-62000D02*
X375375D01*
G01X388000D02*
X391000D01*
G01X389500D02*
Y-70000D01*
G01X388000D02*
X391000D01*
G01X395125D02*
Y-62000D01*
X400875Y-70000D01*
Y-62000D01*
G01X403625Y-70000D02*
Y-62000D01*
X409375Y-70000D01*
Y-62000D01*
G01X415000Y-70000D02*
X414000Y-69867D01*
X413125Y-69333D01*
X412375Y-68533D01*
X411875Y-67600D01*
X411625Y-66533D01*
Y-65467D01*
X411875Y-64400D01*
X412375Y-63467D01*
X413125Y-62667D01*
X414000Y-62133D01*
X415000Y-62000D01*
X416000Y-62133D01*
X416875Y-62667D01*
X417625Y-63467D01*
X418125Y-64400D01*
X418375Y-65467D01*
Y-66533D01*
X418125Y-67600D01*
X417625Y-68533D01*
X416875Y-69333D01*
X416000Y-69867D01*
X415000Y-70000D01*
G01X420375Y-62000D02*
X423500Y-70000D01*
X426625Y-62000D01*
G01X428875Y-70000D02*
X432000Y-62000D01*
X435125Y-70000D01*
G01X434000Y-67200D02*
X430000D01*
G01X440500Y-62000D02*
Y-70000D01*
G01X437625Y-62000D02*
X443375D01*
G01X447500D02*
X450500D01*
G01X449000D02*
Y-70000D01*
G01X447500D02*
X450500D01*
G01X457500D02*
X456500Y-69867D01*
X455625Y-69333D01*
X454875Y-68533D01*
X454375Y-67600D01*
X454125Y-66533D01*
Y-65467D01*
X454375Y-64400D01*
X454875Y-63467D01*
X455625Y-62667D01*
X456500Y-62133D01*
X457500Y-62000D01*
X458500Y-62133D01*
X459375Y-62667D01*
X460125Y-63467D01*
X460625Y-64400D01*
X460875Y-65467D01*
Y-66533D01*
X460625Y-67600D01*
X460125Y-68533D01*
X459375Y-69333D01*
X458500Y-69867D01*
X457500Y-70000D01*
G01X463125D02*
Y-62000D01*
X468875Y-70000D01*
Y-62000D01*
G01X471875Y-68934D02*
X472875Y-69600D01*
X474000Y-70000D01*
X475000D01*
X476000Y-69600D01*
X476750Y-68934D01*
X477125Y-68000D01*
X476875Y-67067D01*
X476250Y-66267D01*
X475125Y-65733D01*
X473625Y-65467D01*
X472750Y-64933D01*
X472375Y-64000D01*
X472625Y-63067D01*
X473250Y-62400D01*
X474125Y-62000D01*
X475000D01*
X475875Y-62267D01*
X476625Y-62933D01*
G01X316250Y-117000D02*
X315250Y-117267D01*
X314500Y-117933D01*
X314000Y-118733D01*
X313625Y-119800D01*
X313500Y-121000D01*
X313625Y-122200D01*
X314000Y-123267D01*
X314500Y-124067D01*
X315250Y-124733D01*
X316250Y-125000D01*
X317250Y-124733D01*
X318000Y-124067D01*
X318500Y-123267D01*
X318875Y-122200D01*
X319000Y-121000D01*
X318875Y-119800D01*
X318500Y-118733D01*
X318000Y-117933D01*
X317250Y-117267D01*
X316250Y-117000D01*
G01X326250Y-125000D02*
Y-117000D01*
X321625Y-122733D01*
X327875D01*
G01X331000Y-125267D02*
X335500Y-117000D01*
G01X341750Y-125000D02*
Y-117000D01*
X340250Y-118600D01*
G01Y-125000D02*
X343250D01*
G01X347875Y-118333D02*
X348625Y-117533D01*
X349500Y-117133D01*
X350500Y-117000D01*
X351750Y-117267D01*
X352625Y-117933D01*
X352875Y-118733D01*
X352750Y-119534D01*
X352250Y-120200D01*
X349750Y-121533D01*
X348625Y-122467D01*
X347875Y-123800D01*
X347625Y-125000D01*
X352875D01*
G01X356500Y-125267D02*
X361000Y-117000D01*
G01X364875Y-118333D02*
X365625Y-117533D01*
X366500Y-117133D01*
X367500Y-117000D01*
X368750Y-117267D01*
X369625Y-117933D01*
X369875Y-118733D01*
X369750Y-119534D01*
X369250Y-120200D01*
X366750Y-121533D01*
X365625Y-122467D01*
X364875Y-123800D01*
X364625Y-125000D01*
X369875D01*
G01X375750Y-117000D02*
X374750Y-117267D01*
X374000Y-117933D01*
X373500Y-118733D01*
X373125Y-119800D01*
X373000Y-121000D01*
X373125Y-122200D01*
X373500Y-123267D01*
X374000Y-124067D01*
X374750Y-124733D01*
X375750Y-125000D01*
X376750Y-124733D01*
X377500Y-124067D01*
X378000Y-123267D01*
X378375Y-122200D01*
X378500Y-121000D01*
X378375Y-119800D01*
X378000Y-118733D01*
X377500Y-117933D01*
X376750Y-117267D01*
X375750Y-117000D01*
G01X384250Y-125000D02*
Y-117000D01*
X382750Y-118600D01*
G01Y-125000D02*
X385750D01*
G01X390375Y-121667D02*
X391250Y-120733D01*
X392000Y-120200D01*
X393000Y-119933D01*
X393875Y-120200D01*
X394500Y-120733D01*
X395000Y-121533D01*
X395125Y-122467D01*
X395000Y-123267D01*
X394500Y-124067D01*
X393750Y-124733D01*
X392875Y-125000D01*
X391875Y-124733D01*
X391000Y-123934D01*
X390500Y-122733D01*
X390375Y-121400D01*
X390625Y-119667D01*
X391000Y-118733D01*
X391625Y-117800D01*
X392500Y-117133D01*
X393375Y-117000D01*
X394250Y-117267D01*
X394875Y-117933D01*
G01X408750Y-125000D02*
Y-117000D01*
X411875D01*
X412875Y-117400D01*
X413500Y-117933D01*
X413750Y-119000D01*
X413500Y-120067D01*
X412750Y-120733D01*
X411875Y-121133D01*
X408750D01*
G01X411875D02*
X413750Y-125000D01*
G01X422250D02*
X417250D01*
Y-117000D01*
X422250D01*
G01X420250Y-120867D02*
X417250D01*
G01X425125Y-117000D02*
X428250Y-125000D01*
X431375Y-117000D01*
G01X436750Y-125267D02*
X436500Y-125133D01*
Y-124867D01*
X436750Y-124733D01*
X437000Y-124867D01*
Y-125133D01*
X436750Y-125267D01*
G01Y-121667D02*
X436500Y-121533D01*
Y-121267D01*
X436750Y-121133D01*
X437000Y-121267D01*
Y-121533D01*
X436750Y-121667D01*
G01X459750Y-125000D02*
Y-117000D01*
X462250D01*
X463250Y-117400D01*
X464000Y-117933D01*
X464625Y-118733D01*
X465125Y-119667D01*
X465250Y-121000D01*
X465125Y-122333D01*
X464625Y-123267D01*
X464000Y-124067D01*
X463250Y-124600D01*
X462250Y-125000D01*
X459750D01*
G54D55*
X252260Y64000D03*
G54D19*
X48000Y353000D03*
Y341000D03*
X353000Y75000D03*
Y63000D03*
X627500Y34500D03*
Y46500D03*
X667500Y29000D03*
X658500D03*
X667500Y41000D03*
X658500D03*
X664500Y96500D03*
Y108500D03*
X700000Y182000D03*
Y194000D03*
G54D73*
X643878Y130866D03*
Y133425D03*
Y135984D03*
Y138543D03*
Y141102D03*
Y143661D03*
Y146220D03*
Y148780D03*
Y151339D03*
Y153898D03*
Y156457D03*
Y159016D03*
Y161575D03*
Y164134D03*
X666122Y130866D03*
Y133425D03*
Y135984D03*
Y138543D03*
Y141102D03*
Y143661D03*
Y146220D03*
Y148780D03*
Y151339D03*
Y153898D03*
Y156457D03*
Y159016D03*
Y161575D03*
Y164134D03*
X678878Y213866D03*
Y216425D03*
Y218984D03*
Y221543D03*
Y224102D03*
Y226661D03*
Y229220D03*
Y231780D03*
Y234339D03*
Y236898D03*
Y239457D03*
Y242016D03*
Y244575D03*
Y247134D03*
X701122Y213866D03*
Y216425D03*
Y218984D03*
Y221543D03*
Y224102D03*
Y226661D03*
Y229220D03*
Y231780D03*
Y234339D03*
Y236898D03*
Y239457D03*
Y242016D03*
Y244575D03*
Y247134D03*
G54D37*
X183000Y28500D03*
X333000D03*
X384000Y28000D03*
X534000D03*
G54D64*
X515000Y275000D03*
G54D46*
X189315Y371700D03*
X228685D03*
G54D28*
X89960Y90190D03*
Y353180D03*
X131370Y85150D03*
Y321900D03*
X564370Y85150D03*
Y321900D03*
X722900Y154800D03*
Y190200D03*
G54D82*
X725000Y304000D03*
G54D38*
X166614Y93000D03*
X183386D03*
X271614Y96000D03*
X288386D03*
X456614Y93000D03*
X473386D03*
X510614Y105000D03*
X527386D03*
G54D83*
X713484Y292878D03*
X716043D03*
X718602D03*
X721161D03*
X723720D03*
X713484Y315122D03*
X716043D03*
X718602D03*
X721161D03*
X723720D03*
X726280Y292878D03*
X728839D03*
X731398D03*
X733957D03*
X736516D03*
X726280Y315122D03*
X728839D03*
X731398D03*
X733957D03*
X736516D03*
G54D56*
X254100Y72700D03*
X262100D03*
X564100Y13000D03*
X572100D03*
G54D74*
X661750Y311500D03*
X702250D03*
G54D65*
X525000Y275000D03*
X535000D03*
G54D47*
X185378Y363334D03*
X193252D03*
X185378Y380066D03*
X193252D03*
X201126Y363334D03*
X209000D03*
X201126Y380066D03*
X209000D03*
X216874Y363334D03*
X224748D03*
X232622D03*
X216874Y380066D03*
X224748D03*
X232622D03*
G54D29*
X90800Y107000D03*
Y129800D03*
X649500Y97500D03*
Y120300D03*
X692700Y132500D03*
Y155300D03*
X684900Y180800D03*
Y203600D03*
X726700Y213500D03*
Y236300D03*
G54D57*
X262300Y64000D03*
G54D48*
X214299Y119524D03*
Y172476D03*
X216268Y119524D03*
X218236D03*
X220205D03*
X222173D03*
X224142D03*
X226110D03*
X228079D03*
X230047D03*
Y172476D03*
X226110D03*
X228079D03*
X222173D03*
X224142D03*
X218236D03*
X220205D03*
X216268D03*
X232016Y119524D03*
X233984D03*
X235953D03*
X237921D03*
X239890D03*
X241858D03*
X243827D03*
X245795D03*
X247764D03*
Y172476D03*
X245795D03*
X241858D03*
X243827D03*
X237921D03*
X239890D03*
X233984D03*
X235953D03*
X232016D03*
X249732Y119524D03*
X251701D03*
Y172476D03*
X249732D03*
X473299Y119524D03*
X475268D03*
X477236D03*
Y172476D03*
X475268D03*
X473299D03*
X479205Y119524D03*
X481173D03*
X483142D03*
X485110D03*
X487079D03*
X489047D03*
X491016D03*
X492984D03*
X494953D03*
X492984Y172476D03*
X494953D03*
X489047D03*
X491016D03*
X485110D03*
X487079D03*
X481173D03*
X483142D03*
X479205D03*
X496921Y119524D03*
X498890D03*
X500858D03*
X502827D03*
X504795D03*
X506764D03*
X508732D03*
X510701D03*
Y172476D03*
X506764D03*
X508732D03*
X504795D03*
X500858D03*
X502827D03*
X496921D03*
X498890D03*
G54D75*
X689700Y7050D03*
Y34550D03*
G54D39*
X178800Y109200D03*
X175600Y109600D03*
X182000Y109000D03*
X191000D03*
X196000Y106000D03*
X185200Y109200D03*
X188000Y109000D03*
X200000Y108000D03*
X282000Y109000D03*
Y106000D03*
X274000Y108000D03*
X271000D03*
Y105000D03*
X285000Y110000D03*
X287000Y108000D03*
X296000D03*
X436000Y106000D03*
X437000Y103000D03*
X434000Y108000D03*
X432000Y110000D03*
X431000Y120000D03*
X430000Y113000D03*
X448100Y108000D03*
X452100Y107800D03*
X525000Y113000D03*
X528000D03*
X544000D03*
X547200Y112200D03*
X531200Y113200D03*
X534000Y113000D03*
X540800Y113200D03*
X537000Y113000D03*
G54D66*
X547000Y73250D03*
Y94750D03*
G54D84*
X716736Y345630D03*
Y374370D03*
X734452Y345630D03*
Y374370D03*
G54D58*
X272150Y81000D03*
X291850D03*
X457150Y77000D03*
X476850D03*
X512150Y90000D03*
X531850D03*
X707550Y9800D03*
X727250D03*
G54D85*
X716834Y353700D03*
Y366299D03*
Y363149D03*
Y360000D03*
Y356850D03*
G54D76*
X707178Y21884D03*
Y24443D03*
Y27002D03*
Y29561D03*
Y32120D03*
Y34680D03*
Y37239D03*
Y39798D03*
Y42357D03*
Y44916D03*
X729422Y21884D03*
Y24443D03*
Y27002D03*
Y29561D03*
Y32120D03*
Y34680D03*
Y37239D03*
Y39798D03*
Y42357D03*
Y44916D03*
G54D49*
X206524Y143047D03*
Y139110D03*
Y141079D03*
Y135173D03*
Y137142D03*
Y131236D03*
Y133205D03*
Y129268D03*
Y127299D03*
Y160764D03*
Y158795D03*
Y154858D03*
Y156827D03*
Y150921D03*
Y152890D03*
Y146984D03*
Y148953D03*
Y145016D03*
Y164701D03*
Y162732D03*
X259476Y127299D03*
Y131236D03*
Y129268D03*
Y133205D03*
Y137142D03*
Y135173D03*
Y141079D03*
Y139110D03*
Y143047D03*
Y145016D03*
Y148953D03*
Y146984D03*
Y152890D03*
Y150921D03*
Y156827D03*
Y154858D03*
Y160764D03*
Y158795D03*
Y162732D03*
Y164701D03*
X465524Y143047D03*
Y139110D03*
Y141079D03*
Y135173D03*
Y137142D03*
Y131236D03*
Y133205D03*
Y129268D03*
Y127299D03*
Y160764D03*
Y158795D03*
Y154858D03*
Y156827D03*
Y150921D03*
Y152890D03*
Y146984D03*
Y148953D03*
Y145016D03*
Y164701D03*
Y162732D03*
X518476Y127299D03*
Y131236D03*
Y129268D03*
Y133205D03*
Y137142D03*
Y135173D03*
Y141079D03*
Y139110D03*
Y143047D03*
Y145016D03*
Y148953D03*
Y146984D03*
Y152890D03*
Y150921D03*
Y156827D03*
Y154858D03*
Y160764D03*
Y158795D03*
Y162732D03*
Y164701D03*
G54D67*
X619000Y108000D03*
Y148000D03*
X654000Y189500D03*
Y229500D03*
G54D68*
X651807Y38032D03*
Y36063D03*
Y43937D03*
Y41968D03*
Y40000D03*
G54D59*
X256600Y217200D03*
Y232200D03*
X276600Y217200D03*
Y232200D03*
G54D77*
X691500Y87394D03*
X696500D03*
X701500D03*
X706500D03*
X691500Y106606D03*
X696500D03*
X701500D03*
X706500D03*
G54D86*
X738720Y117933D03*
Y147067D03*
G54D87*
X734390Y132500D03*
G54D69*
X640193Y36063D03*
Y38032D03*
Y40000D03*
Y41968D03*
Y43937D03*
G54D78*
X709587Y119508D03*
Y145492D03*
G54D88*
X726600Y166600D03*
Y178400D03*
X738400Y166600D03*
Y178400D03*
G54D79*
X718300Y33400D03*
G54D89*
G01X0Y0D02*
X750000D01*
Y387800D01*
X0D01*
Y0D01*
G01X255000Y-52500D02*
X490000D01*
Y-135000D01*
X255000D01*
G01Y-52500D02*
Y-135000D01*
G01X490000Y-107500D02*
X255000D01*
G01Y-80000D02*
X490000D01*
G01X335000D02*
Y-107500D01*
G01X405000D02*
Y-135000D01*
M02*
