G04 ================== begin FILE IDENTIFICATION RECORD ==================*
G04 Layout Name:  2510300_REV-D.brd*
G04 Film Name:    Paste_top.gbr*
G04 File Format:  Gerber RS274X*
G04 File Origin:  Cadence Allegro 16.6-2015-S051*
G04 Origin Date:  Tue Apr 12 06:53:55 2016*
G04 *
G04 Layer:  VIA CLASS/PASTEMASK_TOP*
G04 Layer:  PIN/PASTEMASK_TOP*
G04 Layer:  PACKAGE GEOMETRY/PASTEMASK_TOP*
G04 Layer:  DRAWING FORMAT/TITLE_BLOCK*
G04 Layer:  BOARD GEOMETRY/PASTEMASK_TOP*
G04 *
G04 Offset:    (0.00 0.00)*
G04 Mirror:    No*
G04 Mode:      Positive*
G04 Rotation:  0*
G04 FullContactRelief:  No*
G04 UndefLineWidth:     0.00*
G04 ================== end FILE IDENTIFICATION RECORD ====================*
%FSLAX25Y25*MOIN*%
%IR0*IPPOS*OFA0.00000B0.00000*MIA0B0*SFA1.00000B1.00000*%
%ADD56R,.063X.21*%
%ADD25R,.102X.083*%
%ADD51R,.14X.055*%
%ADD50R,.083X.102*%
%ADD32R,.055X.14*%
%ADD26R,.076X.12*%
%ADD49C,.022*%
%ADD12R,.122X.039*%
%ADD38C,.014*%
%ADD64R,.145X.065*%
%ADD62R,.065X.145*%
%ADD35R,.039X.108*%
%ADD14R,.118X.084*%
%ADD59R,.162X.077*%
%ADD55R,.071X.177*%
%AMMACRO54*
4,1,21,-.01575,.00453,
.01122,.00453,
.012007,.004461,
.012769,.004257,
.013485,.003923,
.014132,.00347,
.01469,.002912,
.015143,.002265,
.015477,.001549,
.015681,.000787,
.01575,0.0,
.015681,-.000787,
.015477,-.001549,
.015143,-.002265,
.01469,-.002912,
.014132,-.00347,
.013485,-.003923,
.012769,-.004257,
.012007,-.004461,
.01122,-.00453,
-.01575,-.00453,
-.01575,.00453,
0.0*
%
%ADD54MACRO54*%
%ADD58R,.115X.11*%
%ADD42R,.031X.031*%
%ADD22R,.032X.03*%
%ADD63R,.06X.03*%
%ADD39R,.012X.05*%
%ADD34R,.01X.025*%
%ADD33R,.02X.025*%
%ADD24R,.031X.031*%
%ADD15R,.03X.032*%
%ADD44R,.04X.05*%
%ADD27R,.07X.012*%
%ADD11R,.025X.02*%
%ADD37R,.07X.013*%
%ADD36R,.013X.07*%
%ADD65R,.016X.06*%
%ADD57R,.06X.015*%
%ADD31R,.016X.032*%
%ADD29R,.05X.017*%
%ADD60R,.06X.016*%
%ADD17R,.063X.05*%
%ADD10R,.06X.044*%
%ADD18R,.05X.063*%
%ADD52R,.064X.06*%
%ADD20R,.055X.06*%
%ADD30R,.055X.06*%
%ADD21R,.06X.055*%
%ADD16R,.094X.032*%
%ADD61R,.024X.085*%
%ADD66R,.089X.02*%
%ADD45R,.036X.056*%
%ADD48R,.095X.063*%
%ADD13R,.096X.044*%
%ADD41R,.35X.35*%
%ADD40R,.063X.095*%
%ADD28R,.095X.083*%
%ADD46R,.083X.095*%
%ADD43R,.087X.056*%
%ADD23R,.098X.038*%
%ADD19R,.038X.098*%
%ADD47R,.087X.079*%
%AMMACRO53*
4,1,21,.01575,-.00453,
-.01122,-.00453,
-.012007,-.004461,
-.012769,-.004257,
-.013485,-.003923,
-.014132,-.00347,
-.01469,-.002912,
-.015143,-.002265,
-.015477,-.001549,
-.015681,-.000787,
-.01575,0.0,
-.015681,.000787,
-.015477,.001549,
-.015143,.002265,
-.01469,.002912,
-.014132,.00347,
-.013485,.003923,
-.012769,.004257,
-.012007,.004461,
-.01122,.00453,
.01575,.00453,
.01575,-.00453,
0.0*
%
%ADD53MACRO53*%
%ADD67C,.02*%
%ADD68C,.006*%
%ADD69C,.008*%
G75*
%LPD*%
G75*
G36*
G01X644504Y34567D02*
X645528D01*
Y32598D01*
X644504D01*
Y34567D01*
G37*
G36*
G01X646472D02*
X647496D01*
Y32598D01*
X646472D01*
Y34567D01*
G37*
G36*
G01X642890Y39567D02*
X645567D01*
Y35433D01*
X642890D01*
Y39567D01*
G37*
G36*
G01X646433D02*
X649110D01*
Y35433D01*
X646433D01*
Y39567D01*
G37*
G36*
G01X644504Y47402D02*
X645528D01*
Y45433D01*
X644504D01*
Y47402D01*
G37*
G36*
G01X646472D02*
X647496D01*
Y45433D01*
X646472D01*
Y47402D01*
G37*
G36*
G01X642890Y44606D02*
X645567D01*
Y40433D01*
X642890D01*
Y44606D01*
G37*
G36*
G01X646433Y44567D02*
X649110D01*
Y40433D01*
X646433D01*
Y44567D01*
G37*
G54D10*
X12480Y17500D03*
X47520D03*
G54D20*
X67950Y245350D03*
Y255450D03*
X190000Y315950D03*
Y326050D03*
G54D11*
X11100Y38000D03*
X16100D03*
X49500Y359000D03*
X44500D03*
X205500Y203000D03*
X210500D03*
X214500Y277000D03*
Y343000D03*
X219500Y277000D03*
Y343000D03*
X500100Y266700D03*
X505100D03*
X643500Y286000D03*
X638500D03*
G54D21*
X65950Y322050D03*
X76050D03*
X699950Y332750D03*
X710050D03*
G54D30*
X166614Y93000D03*
X183386D03*
X271614Y96000D03*
X288386D03*
X456614Y93000D03*
X473386D03*
X510614Y105000D03*
X527386D03*
G54D12*
X14980Y67126D03*
Y82874D03*
Y99626D03*
Y115374D03*
X50020Y67126D03*
Y82874D03*
Y99626D03*
Y115374D03*
G54D40*
X221650Y97000D03*
X232350D03*
X290650Y216000D03*
X301350D03*
X298450Y375900D03*
X309150D03*
X350650Y216000D03*
X349450Y377800D03*
X361350Y216000D03*
X360150Y377800D03*
X377650Y378000D03*
X388350D03*
X398650Y94000D03*
X409350D03*
X410650Y216000D03*
X421350D03*
X419550Y377900D03*
X430250D03*
X472650Y365000D03*
X498650Y300000D03*
X483350Y365000D03*
X509350Y300000D03*
G54D13*
X10550Y157500D03*
Y147500D03*
Y177500D03*
Y167500D03*
Y197500D03*
Y187500D03*
Y207500D03*
Y217500D03*
X44450Y157500D03*
Y147500D03*
Y177500D03*
Y167500D03*
Y197500D03*
Y187500D03*
Y207500D03*
Y217500D03*
G54D31*
X178800Y120700D03*
X175600D03*
X178800Y114300D03*
X175600D03*
X182000Y120700D03*
Y114300D03*
X185200Y120700D03*
Y114300D03*
X188400D03*
X191600D03*
X194800D03*
X188400Y120700D03*
X191600D03*
X194800D03*
X198000Y114300D03*
Y120700D03*
X274900Y119900D03*
X271700D03*
X268500D03*
X274900Y113500D03*
X271700D03*
X268500D03*
X278100Y119900D03*
Y113500D03*
X281300D03*
X284500D03*
X281300Y119900D03*
X284500D03*
X287700Y113500D03*
X290900D03*
X287700Y119900D03*
X290900D03*
X442200Y123100D03*
X439000D03*
X435800D03*
X442200Y116700D03*
X439000D03*
X435800D03*
X445400Y123100D03*
Y116700D03*
X448600D03*
X451800D03*
X455000D03*
X458200D03*
X448600Y123100D03*
X451800D03*
X455000D03*
X458200D03*
X528000D03*
X524800D03*
X528000Y116700D03*
X524800D03*
X531200Y123100D03*
Y116700D03*
X534400Y123100D03*
Y116700D03*
X537600D03*
X540800D03*
X544000D03*
X547200D03*
X537600Y123100D03*
X540800D03*
X544000D03*
X547200D03*
G54D22*
X65000Y332900D03*
Y339100D03*
X105800Y205300D03*
Y199100D03*
X106000Y352100D03*
Y345900D03*
Y358900D03*
Y365100D03*
X166000Y83100D03*
Y76900D03*
X170000Y108900D03*
Y115100D03*
X180000Y335900D03*
Y342100D03*
X194000Y225100D03*
Y218900D03*
X205000Y269900D03*
Y276100D03*
Y350100D03*
Y343900D03*
X198000Y350100D03*
Y343900D03*
X228000Y269900D03*
Y276100D03*
X226000Y349100D03*
Y342900D03*
X246900Y224600D03*
Y218400D03*
X240800Y243500D03*
Y237300D03*
X247000Y243500D03*
Y237300D03*
X250000Y279100D03*
Y272900D03*
X239000Y330900D03*
Y337100D03*
X251000Y253200D03*
Y259400D03*
X283500Y248900D03*
Y255100D03*
X283600Y261600D03*
Y267800D03*
X295000Y92900D03*
Y99100D03*
X362000Y62900D03*
Y69100D03*
X367000Y77900D03*
Y84100D03*
X438300Y239600D03*
Y233400D03*
X450000Y103100D03*
Y96900D03*
X473600Y300400D03*
Y306600D03*
X517500Y284400D03*
Y290600D03*
X534000Y72900D03*
Y79100D03*
X546000Y108100D03*
Y101900D03*
X545000Y283100D03*
Y276900D03*
X552000Y108100D03*
Y101900D03*
X549100Y210300D03*
Y204100D03*
X595000Y334900D03*
X601500D03*
X595000Y341100D03*
X601500D03*
X635000Y20400D03*
Y26600D03*
Y39100D03*
Y32900D03*
X636500Y155100D03*
Y148900D03*
X651000Y280100D03*
Y273900D03*
X671000Y231400D03*
Y237600D03*
X677300Y49000D03*
Y42800D03*
X680000Y371900D03*
Y378100D03*
X696700Y42500D03*
Y48700D03*
X734000Y285100D03*
Y278900D03*
X740000Y285100D03*
Y278900D03*
X746000D03*
Y285100D03*
G54D23*
X70000Y364600D03*
Y375400D03*
X676500Y144900D03*
Y134100D03*
X711000Y230900D03*
Y220100D03*
X740500Y14400D03*
Y25200D03*
G54D41*
X233000Y146000D03*
X492000D03*
G54D14*
X22738Y235237D03*
Y299473D03*
Y312737D03*
Y376973D03*
G54D32*
X191250Y96000D03*
X212750D03*
X241250Y97000D03*
X262750D03*
X481250Y105000D03*
X502750D03*
G54D50*
X331600Y91000D03*
X354400D03*
X675900Y279700D03*
X698700D03*
X716700Y264400D03*
X739500D03*
G54D60*
X707178Y21884D03*
Y24443D03*
Y27002D03*
Y29561D03*
Y32120D03*
Y34680D03*
Y37239D03*
Y39798D03*
Y42357D03*
Y44916D03*
X729422Y21884D03*
Y24443D03*
Y27002D03*
Y29561D03*
Y32120D03*
Y34680D03*
Y37239D03*
Y39798D03*
Y42357D03*
Y44916D03*
G54D15*
X33100Y30000D03*
X26900D03*
X24400Y127500D03*
X30600D03*
X53100Y39000D03*
X56900Y147500D03*
Y157500D03*
Y167500D03*
Y177500D03*
Y187500D03*
Y197500D03*
Y207500D03*
Y217500D03*
X59300Y39000D03*
X63500Y83200D03*
X69700D03*
X63100Y147500D03*
Y157500D03*
Y167500D03*
Y177500D03*
Y187500D03*
Y197500D03*
Y207500D03*
Y217500D03*
X62900Y295000D03*
X69100D03*
X76700Y16200D03*
X82900D03*
X76700Y9200D03*
X82900D03*
X76700Y31200D03*
X82900D03*
X76700Y24200D03*
X82900D03*
X89900Y84000D03*
X86900Y145000D03*
X84900Y175000D03*
X91100D03*
X84600Y167600D03*
X90800D03*
X86900Y182500D03*
Y192500D03*
Y202500D03*
Y210000D03*
Y217500D03*
Y225000D03*
Y232500D03*
Y240000D03*
Y247500D03*
Y257500D03*
X87400Y274900D03*
X87100Y297800D03*
X88900Y340000D03*
X101900Y90000D03*
X108100D03*
X96100Y84000D03*
X93100Y145000D03*
Y182500D03*
Y192500D03*
Y202500D03*
Y210000D03*
Y217500D03*
Y225000D03*
Y232500D03*
Y240000D03*
Y247500D03*
Y257500D03*
X93600Y274900D03*
X93300Y297800D03*
X107900Y292000D03*
X95100Y340000D03*
X114100Y292000D03*
X143800Y15500D03*
X143700Y30800D03*
X150000Y15500D03*
X149900Y30800D03*
X152400Y45600D03*
X146200D03*
Y51700D03*
X152400D03*
X152900Y90000D03*
X159100D03*
X173900Y75200D03*
Y81200D03*
X169900Y103000D03*
X176100D03*
X180100Y75200D03*
Y81200D03*
X191100Y350000D03*
X184900D03*
X214900Y181000D03*
Y187000D03*
X204100Y191000D03*
X197900D03*
X202900Y198000D03*
X209100D03*
X209900Y248000D03*
X213900Y270000D03*
X212900Y349000D03*
X222300Y74700D03*
X216100D03*
Y80900D03*
X222300D03*
X226900Y107000D03*
X221100Y181000D03*
Y187000D03*
X216100Y248000D03*
X220100Y270000D03*
X219100Y349000D03*
X234000Y66900D03*
X240200D03*
X234000Y60600D03*
X240200D03*
X233100Y107000D03*
X243900Y187000D03*
X250100D03*
X243900Y181000D03*
X250100D03*
X235900Y209000D03*
X242100D03*
X247100Y231100D03*
X240900D03*
X239100Y344000D03*
X232900D03*
X254000Y79700D03*
X260200D03*
X256900Y113000D03*
X263100D03*
X264900Y173000D03*
X255900Y187000D03*
X262100D03*
X255900Y181000D03*
X262100D03*
X259100Y205000D03*
X252900D03*
X259100Y199000D03*
X252900D03*
X258900Y253000D03*
X265100D03*
X258900Y261000D03*
X265100D03*
X258900Y269000D03*
X265100D03*
X268900Y69000D03*
X275100D03*
X281900D03*
X271100Y173000D03*
X272900Y192000D03*
X279100D03*
X272900Y198000D03*
X279100D03*
X272900Y204000D03*
X279100D03*
X270500Y241000D03*
X276700D03*
X275900Y313000D03*
X282100D03*
Y307000D03*
X275900D03*
X288100Y69000D03*
X301100D03*
X294900D03*
X320300Y374000D03*
X332400D03*
X326500D03*
X344700Y75100D03*
X338500D03*
X338600Y374000D03*
X369900Y63000D03*
Y69000D03*
X376100Y63000D03*
Y69000D03*
X380100Y78000D03*
X373900D03*
X415100Y74500D03*
X408900D03*
X408800Y80700D03*
X415000D03*
X424900Y144000D03*
Y137000D03*
Y158000D03*
Y151000D03*
Y179000D03*
Y172000D03*
Y165000D03*
X431100Y144000D03*
Y137000D03*
Y158000D03*
Y151000D03*
Y179000D03*
Y172000D03*
Y165000D03*
X441400Y305000D03*
X437400Y318500D03*
X441900Y334500D03*
Y344500D03*
X455900Y104000D03*
X458900Y180000D03*
X446900Y257500D03*
X453100D03*
X446900Y287500D03*
X453100D03*
X447600Y305000D03*
X443600Y318500D03*
X448100Y334500D03*
Y344500D03*
X467900Y104000D03*
X474100D03*
X462100D03*
X467900Y110000D03*
X474100D03*
X465100Y180000D03*
X474100Y186000D03*
X467900D03*
Y192000D03*
X474100D03*
X476900Y272500D03*
X473600Y293300D03*
X467400D03*
X479900Y186000D03*
X486100D03*
X483100Y272500D03*
X496900Y92000D03*
X503100D03*
X504400Y195000D03*
X510600D03*
X500000Y188800D03*
X506200D03*
X499700Y181900D03*
X505900D03*
X504300Y240500D03*
X510500D03*
X504100Y250000D03*
X510300D03*
X504000Y259300D03*
X510200D03*
X522900Y177000D03*
X529100D03*
X526900Y285000D03*
X533900Y109000D03*
X540100D03*
X536400Y189300D03*
X542600D03*
X543100Y181000D03*
X536900D03*
X533100Y285000D03*
X543100Y330000D03*
X536900D03*
X543100Y338000D03*
X536900D03*
X564100Y19700D03*
X564000Y6200D03*
X563300Y31400D03*
X563200Y37500D03*
X563500Y44100D03*
X556100Y330000D03*
X549900D03*
X556100Y338000D03*
X549900D03*
X570300Y19700D03*
X570200Y6200D03*
X569500Y31400D03*
X569400Y37500D03*
X569700Y44100D03*
X574300Y59600D03*
X568100D03*
X574700Y89800D03*
X580900D03*
X577100Y176000D03*
X570900D03*
Y200000D03*
X577100D03*
X571100Y217400D03*
X577300D03*
X570900Y319000D03*
X577100D03*
X607900Y335000D03*
X614100D03*
X607900Y341100D03*
X614100D03*
X647100Y17000D03*
X640900D03*
Y29000D03*
X647100D03*
Y23000D03*
X640900D03*
X646600Y305000D03*
X640400D03*
X646600Y311500D03*
X640400D03*
X646600Y318000D03*
X640400D03*
X653400Y330000D03*
X638400D03*
X644600D03*
X652900Y339500D03*
X638400D03*
X644600D03*
X637900Y360000D03*
X644100D03*
X671500Y55300D03*
X663100Y274500D03*
X656900D03*
X663100Y280500D03*
X656900D03*
X663100Y286500D03*
X656900D03*
X663100Y292500D03*
X656900D03*
X659600Y330000D03*
X659100Y339500D03*
X677700Y55300D03*
X683800D03*
Y42600D03*
Y49100D03*
X673400Y161500D03*
X679600D03*
X673400Y155500D03*
X679600D03*
X679900Y365000D03*
X686100D03*
X679900Y359000D03*
X686100D03*
X690000Y55300D03*
Y42600D03*
Y49100D03*
X698900Y58000D03*
X705100D03*
X707900Y237500D03*
X714100D03*
X707900Y243500D03*
X714100D03*
X719600Y323000D03*
X713400D03*
X737100Y36700D03*
Y43000D03*
X743300Y36700D03*
Y43000D03*
G54D24*
X92247Y9900D03*
Y17000D03*
Y31000D03*
Y24000D03*
X98153Y9900D03*
Y17000D03*
Y31000D03*
Y24000D03*
X640547Y292000D03*
X646453D03*
G54D33*
X195000Y234500D03*
Y239500D03*
X265000Y192500D03*
Y197500D03*
Y201500D03*
Y206500D03*
X495900Y241400D03*
Y246400D03*
G54D42*
X231500Y252547D03*
Y258453D03*
X239500Y252547D03*
Y258453D03*
X490000Y256047D03*
Y261953D03*
X481500Y256047D03*
Y261953D03*
G54D51*
X547000Y73250D03*
Y94750D03*
G54D43*
X252260Y64000D03*
G54D61*
X691500Y87394D03*
X696500D03*
X701500D03*
X706500D03*
X691500Y106606D03*
X696500D03*
X701500D03*
X706500D03*
G54D16*
X34500Y245211D03*
Y250132D03*
Y255053D03*
Y259974D03*
Y264895D03*
Y269816D03*
Y274737D03*
Y279658D03*
Y284579D03*
Y289500D03*
Y322711D03*
Y327632D03*
Y332553D03*
Y337474D03*
Y342395D03*
Y347316D03*
Y352237D03*
Y357158D03*
Y362079D03*
Y367000D03*
G54D52*
X619000Y108000D03*
Y148000D03*
X654000Y189500D03*
Y229500D03*
G54D34*
X186047Y332685D03*
X188016D03*
X189984D03*
X191953D03*
X186047Y343315D03*
X188016D03*
X189984D03*
X191953D03*
X243953Y280315D03*
X241984D03*
X240016D03*
X238047D03*
X243953Y269685D03*
X241984D03*
X240016D03*
X238047D03*
G54D25*
X90800Y107000D03*
Y129800D03*
X649500Y97500D03*
Y120300D03*
X692700Y132500D03*
Y155300D03*
X684900Y180800D03*
Y203600D03*
X726700Y213500D03*
Y236300D03*
G54D53*
X651807Y38032D03*
Y36063D03*
Y43937D03*
Y41968D03*
Y40000D03*
G54D17*
X48000Y353000D03*
Y341000D03*
X353000Y75000D03*
Y63000D03*
X627500Y34500D03*
Y46500D03*
X667500Y29000D03*
X658500D03*
X667500Y41000D03*
X658500D03*
X664500Y96500D03*
Y108500D03*
X700000Y182000D03*
Y194000D03*
G54D44*
X254100Y72700D03*
X262100D03*
X564100Y13000D03*
X572100D03*
G54D35*
X185378Y363334D03*
X193252D03*
X185378Y380066D03*
X193252D03*
X201126Y363334D03*
X209000D03*
X201126Y380066D03*
X209000D03*
X216874Y363334D03*
X224748D03*
X232622D03*
X216874Y380066D03*
X224748D03*
X232622D03*
G54D62*
X718300Y33400D03*
G54D26*
X90000Y364000D03*
G54D45*
X262300Y64000D03*
G54D18*
X47000Y366000D03*
X59000D03*
X137400Y23100D03*
X132000Y165000D03*
X144000D03*
X131000Y245000D03*
X143000D03*
X149400Y23100D03*
X564200Y51800D03*
X566000Y164000D03*
X576200Y51800D03*
X578000Y164000D03*
X576000Y246000D03*
X588000D03*
X651100Y252900D03*
X661600Y7000D03*
X671000Y18000D03*
X659000D03*
X663100Y252900D03*
X673600Y7000D03*
G54D36*
X214299Y119524D03*
Y172476D03*
X216268Y119524D03*
X218236D03*
X220205D03*
X222173D03*
X224142D03*
X226110D03*
X228079D03*
X230047D03*
Y172476D03*
X226110D03*
X228079D03*
X222173D03*
X224142D03*
X218236D03*
X220205D03*
X216268D03*
X232016Y119524D03*
X233984D03*
X235953D03*
X237921D03*
X239890D03*
X241858D03*
X243827D03*
X245795D03*
X247764D03*
Y172476D03*
X245795D03*
X241858D03*
X243827D03*
X237921D03*
X239890D03*
X233984D03*
X235953D03*
X232016D03*
X249732Y119524D03*
X251701D03*
Y172476D03*
X249732D03*
X473299Y119524D03*
X475268D03*
X477236D03*
Y172476D03*
X475268D03*
X473299D03*
X479205Y119524D03*
X481173D03*
X483142D03*
X485110D03*
X487079D03*
X489047D03*
X491016D03*
X492984D03*
X494953D03*
X492984Y172476D03*
X494953D03*
X489047D03*
X491016D03*
X485110D03*
X487079D03*
X481173D03*
X483142D03*
X479205D03*
X496921Y119524D03*
X498890D03*
X500858D03*
X502827D03*
X504795D03*
X506764D03*
X508732D03*
X510701D03*
Y172476D03*
X506764D03*
X508732D03*
X504795D03*
X500858D03*
X502827D03*
X496921D03*
X498890D03*
G54D27*
X81500Y367937D03*
Y360063D03*
Y362031D03*
Y364000D03*
Y365969D03*
X98500Y367937D03*
Y360063D03*
Y362031D03*
Y364000D03*
Y365969D03*
G54D63*
X719571Y91260D03*
Y98740D03*
X728429Y91260D03*
Y95000D03*
Y98740D03*
G54D54*
X640193Y36063D03*
Y38032D03*
Y40000D03*
Y41968D03*
Y43937D03*
G54D19*
X48600Y378000D03*
X59400D03*
X82600Y377000D03*
X93400D03*
X714100Y281500D03*
X724900D03*
G54D46*
X272150Y81000D03*
X291850D03*
X457150Y77000D03*
X476850D03*
X512150Y90000D03*
X531850D03*
X707550Y9800D03*
X727250D03*
G54D28*
X154000Y62150D03*
Y81850D03*
G54D37*
X206524Y143047D03*
Y139110D03*
Y141079D03*
Y135173D03*
Y137142D03*
Y131236D03*
Y133205D03*
Y129268D03*
Y127299D03*
Y160764D03*
Y158795D03*
Y154858D03*
Y156827D03*
Y150921D03*
Y152890D03*
Y146984D03*
Y148953D03*
Y145016D03*
Y164701D03*
Y162732D03*
X259476Y127299D03*
Y131236D03*
Y129268D03*
Y133205D03*
Y137142D03*
Y135173D03*
Y141079D03*
Y139110D03*
Y143047D03*
Y145016D03*
Y148953D03*
Y146984D03*
Y152890D03*
Y150921D03*
Y156827D03*
Y154858D03*
Y160764D03*
Y158795D03*
Y162732D03*
Y164701D03*
X465524Y143047D03*
Y139110D03*
Y141079D03*
Y135173D03*
Y137142D03*
Y131236D03*
Y133205D03*
Y129268D03*
Y127299D03*
Y160764D03*
Y158795D03*
Y154858D03*
Y156827D03*
Y150921D03*
Y152890D03*
Y146984D03*
Y148953D03*
Y145016D03*
Y164701D03*
Y162732D03*
X518476Y127299D03*
Y131236D03*
Y129268D03*
Y133205D03*
Y137142D03*
Y135173D03*
Y141079D03*
Y139110D03*
Y143047D03*
Y145016D03*
Y148953D03*
Y146984D03*
Y152890D03*
Y150921D03*
Y156827D03*
Y154858D03*
Y160764D03*
Y158795D03*
Y162732D03*
Y164701D03*
G54D55*
X653500Y62000D03*
X640500D03*
G54D64*
X725000Y304000D03*
G54D47*
X256600Y217200D03*
Y232200D03*
X276600Y217200D03*
Y232200D03*
G54D29*
X154800Y196000D03*
Y198500D03*
Y201000D03*
Y203500D03*
Y206000D03*
Y208500D03*
Y211000D03*
Y213500D03*
Y216000D03*
Y218500D03*
Y221000D03*
Y223500D03*
Y226000D03*
Y228500D03*
Y231000D03*
Y233500D03*
Y236000D03*
Y238500D03*
Y241000D03*
X182600Y196000D03*
Y198500D03*
Y201000D03*
Y203500D03*
Y206000D03*
Y208500D03*
Y211000D03*
Y213500D03*
Y216000D03*
Y218500D03*
Y221000D03*
Y223500D03*
Y226000D03*
Y228500D03*
Y231000D03*
Y233500D03*
Y236000D03*
Y238500D03*
Y241000D03*
X603600Y196000D03*
Y193500D03*
Y191000D03*
Y188500D03*
Y186000D03*
Y213500D03*
Y211000D03*
Y208500D03*
Y206000D03*
Y203500D03*
Y201000D03*
Y198500D03*
Y231000D03*
Y228500D03*
Y226000D03*
Y223500D03*
Y221000D03*
Y218500D03*
Y216000D03*
X631400Y196000D03*
Y193500D03*
Y191000D03*
Y188500D03*
Y186000D03*
Y213500D03*
Y211000D03*
Y208500D03*
Y206000D03*
Y203500D03*
Y201000D03*
Y198500D03*
Y231000D03*
Y228500D03*
Y226000D03*
Y223500D03*
Y221000D03*
Y218500D03*
Y216000D03*
G54D65*
X713484Y292878D03*
X716043D03*
X718602D03*
X721161D03*
X723720D03*
X713484Y315122D03*
X716043D03*
X718602D03*
X721161D03*
X723720D03*
X726280Y292878D03*
X728839D03*
X731398D03*
X733957D03*
X736516D03*
X726280Y315122D03*
X728839D03*
X731398D03*
X733957D03*
X736516D03*
G54D38*
X207126Y213976D03*
X210276D03*
X213425D03*
X207126Y229724D03*
X210276D03*
X213425D03*
X207126Y226575D03*
X210276D03*
X213425D03*
X207126Y223425D03*
X210276D03*
X213425D03*
X207126Y220276D03*
X210276D03*
X213425D03*
X207126Y217126D03*
X210276D03*
X213425D03*
X207126Y236024D03*
X210276D03*
X213425D03*
X207126Y232874D03*
X210276D03*
X213425D03*
X216575Y213976D03*
X219724D03*
X222874D03*
X216575Y229724D03*
X219724D03*
X222874D03*
X216575Y226575D03*
X219724D03*
X222874D03*
X216575Y223425D03*
X219724D03*
X222874D03*
X216575Y220276D03*
X219724D03*
X222874D03*
X216575Y217126D03*
X219724D03*
X222874D03*
X216575Y236024D03*
X219724D03*
X222874D03*
X216575Y232874D03*
X219724D03*
X222874D03*
X491526Y212376D03*
X494676D03*
X491526Y209226D03*
X494676D03*
X491526Y206076D03*
X494676D03*
X491526Y228124D03*
X494676D03*
X491526Y224974D03*
X494676D03*
X491526Y221824D03*
X494676D03*
X491526Y218675D03*
X494676D03*
X491526Y215525D03*
X494676D03*
X497825Y212376D03*
X500975D03*
X504124D03*
X507274D03*
X497825Y209226D03*
X500975D03*
X504124D03*
X507274D03*
X497825Y206076D03*
X500975D03*
X504124D03*
X507274D03*
X497825Y228124D03*
X500975D03*
X504124D03*
X507274D03*
X497825Y224974D03*
X500975D03*
X504124D03*
X507274D03*
X497825Y221824D03*
X500975D03*
X504124D03*
X507274D03*
X497825Y218675D03*
X500975D03*
X504124D03*
X507274D03*
X497825Y215525D03*
X500975D03*
X504124D03*
X507274D03*
G54D56*
X655000Y147500D03*
X690000Y230500D03*
G54D48*
X297000Y190650D03*
Y201350D03*
X498000Y73650D03*
Y84350D03*
G54D66*
X716834Y353700D03*
Y366299D03*
Y363149D03*
Y360000D03*
Y356850D03*
G54D57*
X643878Y130866D03*
Y133425D03*
Y135984D03*
Y138543D03*
Y141102D03*
Y143661D03*
Y146220D03*
Y148780D03*
Y151339D03*
Y153898D03*
Y156457D03*
Y159016D03*
Y161575D03*
Y164134D03*
X666122Y130866D03*
Y133425D03*
Y135984D03*
Y138543D03*
Y141102D03*
Y143661D03*
Y146220D03*
Y148780D03*
Y151339D03*
Y153898D03*
Y156457D03*
Y159016D03*
Y161575D03*
Y164134D03*
X678878Y213866D03*
Y216425D03*
Y218984D03*
Y221543D03*
Y224102D03*
Y226661D03*
Y229220D03*
Y231780D03*
Y234339D03*
Y236898D03*
Y239457D03*
Y242016D03*
Y244575D03*
Y247134D03*
X701122Y213866D03*
Y216425D03*
Y218984D03*
Y221543D03*
Y224102D03*
Y226661D03*
Y229220D03*
Y231780D03*
Y234339D03*
Y236898D03*
Y239457D03*
Y242016D03*
Y244575D03*
Y247134D03*
G54D39*
X202930Y284100D03*
X205095D03*
X207260D03*
X209425D03*
X211590D03*
X213755D03*
X202930Y335900D03*
X205095D03*
X207260D03*
X209425D03*
X211590D03*
X213755D03*
X215920Y284100D03*
X218085D03*
X220250D03*
X222415D03*
X224580D03*
X226745D03*
X228910D03*
X231075D03*
X215920Y335900D03*
X218085D03*
X220250D03*
X222415D03*
X224580D03*
X226745D03*
X228910D03*
X231075D03*
G54D67*
G01X255000Y-52500D02*
X490000D01*
Y-135000D01*
X255000D01*
G01Y-52500D02*
Y-135000D01*
G01X490000Y-107500D02*
X255000D01*
G01Y-80000D02*
X490000D01*
G01X335000D02*
Y-107500D01*
G01X405000D02*
Y-135000D01*
G54D58*
X661750Y311500D03*
X702250D03*
G54D49*
X301613Y230039D03*
X297676D03*
X301613Y233976D03*
X297676D03*
X293739D03*
X301613Y237913D03*
X297676D03*
X293739D03*
X301613Y241850D03*
X297676D03*
X293739D03*
X301613Y245787D03*
X297676D03*
X293739D03*
X301613Y249724D03*
X297676D03*
X293739D03*
X301613Y253661D03*
X297676D03*
X293739D03*
X301613Y257598D03*
X297676D03*
X293739D03*
X301613Y261535D03*
X297676D03*
X293739D03*
X301613Y265472D03*
X297676D03*
X293739D03*
X301613Y269409D03*
X297676D03*
X293739D03*
X301613Y273346D03*
X297676D03*
X293739D03*
X301613Y277284D03*
X297676D03*
X293739D03*
X301613Y281220D03*
X297676D03*
X293739D03*
X301613Y285158D03*
X297676D03*
X293739D03*
X301613Y289094D03*
X297676D03*
X293739D03*
X301613Y293032D03*
X297676D03*
X293739D03*
X301613Y296968D03*
X297676D03*
X293739D03*
X301613Y300906D03*
X297676D03*
X293739D03*
X301613Y304842D03*
X297676D03*
X293739D03*
X301613Y308780D03*
X297676D03*
X293739D03*
X301613Y312716D03*
X297676D03*
X293739D03*
X301613Y316654D03*
X297676D03*
X293739D03*
X301613Y320591D03*
X297676D03*
X293739D03*
X301613Y324528D03*
X297676D03*
X293739D03*
X301613Y328465D03*
X297676D03*
X293739D03*
X301613Y332402D03*
X297676D03*
X293739D03*
X301613Y336339D03*
X297676D03*
X293739D03*
X301613Y340276D03*
X297676D03*
X293739D03*
X301613Y344213D03*
X297676D03*
X293739D03*
X301613Y348150D03*
X297676D03*
X293739D03*
X301613Y352087D03*
X297676D03*
X293739D03*
X301613Y356024D03*
X297676D03*
X293739D03*
X301613Y359961D03*
X297676D03*
X293739D03*
X316561Y106387D03*
X312624D03*
X308687D03*
X316561Y110324D03*
X312624D03*
X308687D03*
X316561Y114261D03*
X312624D03*
X308687D03*
X316561Y118198D03*
X312624D03*
X308687D03*
X316561Y122135D03*
X312624D03*
X308687D03*
X316561Y126072D03*
X312624D03*
X308687D03*
X316561Y130009D03*
X312624D03*
X308687D03*
X316561Y133946D03*
X312624D03*
X308687D03*
X316561Y137884D03*
X312624D03*
X308687D03*
X316561Y141820D03*
X312624D03*
X308687D03*
X316561Y145758D03*
X312624D03*
X308687D03*
X316561Y149694D03*
X312624D03*
X308687D03*
X316561Y153632D03*
X312624D03*
X308687D03*
X316561Y157568D03*
X312624D03*
X308687D03*
X316561Y161506D03*
X312624D03*
X308687D03*
X316561Y165442D03*
X312624D03*
X308687D03*
X316561Y169380D03*
X312624D03*
X308687D03*
X316561Y173316D03*
X312624D03*
X308687D03*
X316561Y177254D03*
X312624D03*
X308687D03*
X316561Y181191D03*
X312624D03*
X308687D03*
X316561Y185128D03*
X312624D03*
X308687D03*
X316561Y189065D03*
X312624D03*
X308687D03*
X316561Y193002D03*
X312624D03*
X308687D03*
X316561Y196939D03*
X312624D03*
X308687D03*
X316561Y200876D03*
X312624D03*
X308687D03*
X316561Y204813D03*
X312624D03*
X308687D03*
X317361Y230039D03*
X313424D03*
X309487D03*
X305550D03*
X317361Y233976D03*
X313424D03*
X309487D03*
X305550D03*
X317361Y237913D03*
X313424D03*
X309487D03*
X305550D03*
X317361Y241850D03*
X313424D03*
X309487D03*
X305550D03*
X317361Y245787D03*
X313424D03*
X309487D03*
X305550D03*
X317361Y249724D03*
X313424D03*
X309487D03*
X305550D03*
X317361Y253661D03*
X313424D03*
X309487D03*
X305550D03*
X317361Y257598D03*
X313424D03*
X309487D03*
X305550D03*
X317361Y261535D03*
X313424D03*
X309487D03*
X305550D03*
X317361Y265472D03*
X313424D03*
X309487D03*
X305550D03*
X317361Y269409D03*
X313424D03*
X309487D03*
X305550D03*
X317361Y273346D03*
X313424D03*
X309487D03*
X305550D03*
X317361Y277284D03*
X313424D03*
X309487D03*
X305550D03*
X317361Y281220D03*
X313424D03*
X309487D03*
X305550D03*
X317361Y285158D03*
X313424D03*
X309487D03*
X305550D03*
X317361Y289094D03*
X313424D03*
X309487D03*
X305550D03*
X317361Y293032D03*
X313424D03*
X309487D03*
X305550D03*
X317361Y296968D03*
X313424D03*
X309487D03*
X305550D03*
X317361Y300906D03*
X313424D03*
X309487D03*
X305550D03*
X317361Y304842D03*
X313424D03*
X309487D03*
X305550D03*
X317361Y308780D03*
X313424D03*
X309487D03*
X305550D03*
X317361Y312716D03*
X313424D03*
X309487D03*
X305550D03*
X317361Y316654D03*
X313424D03*
X309487D03*
X305550D03*
X317361Y320591D03*
X313424D03*
X309487D03*
X305550D03*
X317361Y324528D03*
X313424D03*
X309487D03*
X305550D03*
X317361Y328465D03*
X313424D03*
X309487D03*
X305550D03*
X317361Y332402D03*
X313424D03*
X309487D03*
X305550D03*
X317361Y336339D03*
X313424D03*
X309487D03*
X305550D03*
X317361Y340276D03*
X313424D03*
X309487D03*
X305550D03*
X317361Y344213D03*
X313424D03*
X309487D03*
X305550D03*
X317361Y348150D03*
X313424D03*
X309487D03*
X305550D03*
X317361Y352087D03*
X313424D03*
X309487D03*
X305550D03*
X317361Y356024D03*
X313424D03*
X309487D03*
X305550D03*
X317361Y359961D03*
X313424D03*
X309487D03*
X305550D03*
X336246Y106387D03*
X332309D03*
X328372D03*
X324435D03*
X320498D03*
X336246Y110324D03*
X332309D03*
X328372D03*
X324435D03*
X320498D03*
X336246Y114261D03*
X332309D03*
X328372D03*
X324435D03*
X320498D03*
X336246Y118198D03*
X332309D03*
X328372D03*
X324435D03*
X320498D03*
X336246Y122135D03*
X332309D03*
X328372D03*
X324435D03*
X320498D03*
X336246Y126072D03*
X332309D03*
X328372D03*
X324435D03*
X320498D03*
X336246Y130009D03*
X332309D03*
X328372D03*
X324435D03*
X320498D03*
X336246Y133946D03*
X332309D03*
X328372D03*
X324435D03*
X320498D03*
X336246Y137884D03*
X332309D03*
X328372D03*
X324435D03*
X320498D03*
X336246Y141820D03*
X332309D03*
X328372D03*
X324435D03*
X320498D03*
X336246Y145758D03*
X332309D03*
X328372D03*
X324435D03*
X320498D03*
X336246Y149694D03*
X332309D03*
X328372D03*
X324435D03*
X320498D03*
X336246Y153632D03*
X332309D03*
X328372D03*
X324435D03*
X320498D03*
X336246Y157568D03*
X332309D03*
X328372D03*
X324435D03*
X320498D03*
X336246Y161506D03*
X332309D03*
X328372D03*
X324435D03*
X320498D03*
X336246Y165442D03*
X332309D03*
X328372D03*
X324435D03*
X320498D03*
X336246Y169380D03*
X332309D03*
X328372D03*
X324435D03*
X320498D03*
X336246Y173316D03*
X332309D03*
X328372D03*
X324435D03*
X320498D03*
X336246Y177254D03*
X332309D03*
X328372D03*
X324435D03*
X320498D03*
X336246Y181191D03*
X332309D03*
X328372D03*
X324435D03*
X320498D03*
X336246Y185128D03*
X332309D03*
X328372D03*
X324435D03*
X320498D03*
X336246Y189065D03*
X332309D03*
X328372D03*
X324435D03*
X320498D03*
X336246Y193002D03*
X332309D03*
X328372D03*
X324435D03*
X320498D03*
X336246Y196939D03*
X332309D03*
X328372D03*
X324435D03*
X320498D03*
X336246Y200876D03*
X332309D03*
X328372D03*
X324435D03*
X320498D03*
X336246Y204813D03*
X332309D03*
X328372D03*
X324435D03*
X320498D03*
X337046Y230039D03*
X333109D03*
X329172D03*
X325235D03*
X321298D03*
X337046Y233976D03*
X333109D03*
X329172D03*
X325235D03*
X321298D03*
X337046Y237913D03*
X333109D03*
X329172D03*
X325235D03*
X321298D03*
X337046Y241850D03*
X333109D03*
X329172D03*
X325235D03*
X321298D03*
X337046Y245787D03*
X333109D03*
X329172D03*
X325235D03*
X321298D03*
X337046Y249724D03*
X333109D03*
X329172D03*
X325235D03*
X321298D03*
X337046Y253661D03*
X333109D03*
X329172D03*
X325235D03*
X321298D03*
X337046Y257598D03*
X333109D03*
X329172D03*
X325235D03*
X321298D03*
X337046Y261535D03*
X333109D03*
X329172D03*
X325235D03*
X321298D03*
X337046Y265472D03*
X333109D03*
X329172D03*
X325235D03*
X321298D03*
X337046Y269409D03*
X333109D03*
X329172D03*
X325235D03*
X321298D03*
X337046Y273346D03*
X333109D03*
X329172D03*
X325235D03*
X321298D03*
X337046Y277284D03*
X333109D03*
X329172D03*
X325235D03*
X321298D03*
X337046Y281220D03*
X333109D03*
X329172D03*
X325235D03*
X321298D03*
X337046Y285158D03*
X333109D03*
X329172D03*
X325235D03*
X321298D03*
X337046Y289094D03*
X333109D03*
X329172D03*
X325235D03*
X321298D03*
X337046Y293032D03*
X333109D03*
X329172D03*
X325235D03*
X321298D03*
X337046Y296968D03*
X333109D03*
X329172D03*
X325235D03*
X321298D03*
X337046Y300906D03*
X333109D03*
X329172D03*
X325235D03*
X321298D03*
X337046Y304842D03*
X333109D03*
X329172D03*
X325235D03*
X321298D03*
X337046Y308780D03*
X333109D03*
X329172D03*
X325235D03*
X321298D03*
X337046Y312716D03*
X333109D03*
X329172D03*
X325235D03*
X321298D03*
X337046Y316654D03*
X333109D03*
X329172D03*
X325235D03*
X321298D03*
X337046Y320591D03*
X333109D03*
X329172D03*
X325235D03*
X321298D03*
X337046Y324528D03*
X333109D03*
X329172D03*
X325235D03*
X321298D03*
X337046Y328465D03*
X333109D03*
X329172D03*
X325235D03*
X321298D03*
X337046Y332402D03*
X333109D03*
X329172D03*
X325235D03*
X321298D03*
X337046Y336339D03*
X333109D03*
X329172D03*
X325235D03*
X321298D03*
X337046Y340276D03*
X333109D03*
X329172D03*
X325235D03*
X321298D03*
X337046Y344213D03*
X333109D03*
X329172D03*
X325235D03*
X321298D03*
X337046Y348150D03*
X333109D03*
X329172D03*
X325235D03*
X321298D03*
X337046Y352087D03*
X333109D03*
X329172D03*
X325235D03*
X321298D03*
X337046Y356024D03*
X333109D03*
X329172D03*
X325235D03*
X321298D03*
X337046Y359961D03*
X333109D03*
X329172D03*
X325235D03*
X321298D03*
X351994Y106387D03*
X348058D03*
X344120D03*
X340184D03*
X351994Y110324D03*
X348058D03*
X344120D03*
X340184D03*
X351994Y114261D03*
X348058D03*
X344120D03*
X340184D03*
X351994Y118198D03*
X348058D03*
X344120D03*
X340184D03*
X351994Y122135D03*
X348058D03*
X344120D03*
X340184D03*
X351994Y126072D03*
X348058D03*
X344120D03*
X340184D03*
X351994Y130009D03*
X348058D03*
X344120D03*
X340184D03*
X351994Y133946D03*
X348058D03*
X344120D03*
X340184D03*
X351994Y137884D03*
X348058D03*
X344120D03*
X340184D03*
X351994Y141820D03*
X348058D03*
X344120D03*
X340184D03*
X351994Y145758D03*
X348058D03*
X344120D03*
X340184D03*
X351994Y149694D03*
X348058D03*
X344120D03*
X340184D03*
X351994Y153632D03*
X348058D03*
X344120D03*
X340184D03*
X351994Y157568D03*
X348058D03*
X344120D03*
X340184D03*
X351994Y161506D03*
X348058D03*
X344120D03*
X340184D03*
X351994Y165442D03*
X348058D03*
X344120D03*
X340184D03*
X351994Y169380D03*
X348058D03*
X344120D03*
X340184D03*
X351994Y173316D03*
X348058D03*
X344120D03*
X340184D03*
X351994Y177254D03*
X348058D03*
X344120D03*
X340184D03*
X351994Y181191D03*
X348058D03*
X344120D03*
X340184D03*
X351994Y185128D03*
X348058D03*
X344120D03*
X340184D03*
X351994Y189065D03*
X348058D03*
X344120D03*
X340184D03*
X351994Y193002D03*
X348058D03*
X344120D03*
X340184D03*
X351994Y196939D03*
X348058D03*
X344120D03*
X340184D03*
X351994Y200876D03*
X348058D03*
X344120D03*
X340184D03*
X351994Y204813D03*
X348058D03*
X344120D03*
X340184D03*
X352794Y230039D03*
X348858D03*
X344920D03*
X340984D03*
X352794Y233976D03*
X348858D03*
X344920D03*
X340984D03*
X352794Y237913D03*
X348858D03*
X344920D03*
X340984D03*
X352794Y241850D03*
X348858D03*
X344920D03*
X340984D03*
X352794Y245787D03*
X348858D03*
X344920D03*
X340984D03*
X352794Y249724D03*
X348858D03*
X344920D03*
X340984D03*
X352794Y253661D03*
X348858D03*
X344920D03*
X340984D03*
X352794Y257598D03*
X348858D03*
X344920D03*
X340984D03*
X352794Y261535D03*
X348858D03*
X344920D03*
X340984D03*
X352794Y265472D03*
X348858D03*
X344920D03*
X340984D03*
X352794Y269409D03*
X348858D03*
X344920D03*
X340984D03*
X352794Y273346D03*
X348858D03*
X344920D03*
X340984D03*
X352794Y277284D03*
X348858D03*
X344920D03*
X340984D03*
X352794Y281220D03*
X348858D03*
X344920D03*
X340984D03*
X352794Y285158D03*
X348858D03*
X344920D03*
X340984D03*
X352794Y289094D03*
X348858D03*
X344920D03*
X340984D03*
X352794Y293032D03*
X348858D03*
X344920D03*
X340984D03*
X352794Y296968D03*
X348858D03*
X344920D03*
X340984D03*
X352794Y300906D03*
X348858D03*
X344920D03*
X340984D03*
X352794Y304842D03*
X348858D03*
X344920D03*
X340984D03*
X352794Y308780D03*
X348858D03*
X344920D03*
X340984D03*
X352794Y312716D03*
X348858D03*
X344920D03*
X340984D03*
X352794Y316654D03*
X348858D03*
X344920D03*
X340984D03*
X352794Y320591D03*
X348858D03*
X344920D03*
X340984D03*
X352794Y324528D03*
X348858D03*
X344920D03*
X340984D03*
X352794Y328465D03*
X348858D03*
X344920D03*
X340984D03*
X352794Y332402D03*
X348858D03*
X344920D03*
X340984D03*
X352794Y336339D03*
X348858D03*
X344920D03*
X340984D03*
X352794Y340276D03*
X348858D03*
X344920D03*
X340984D03*
X352794Y344213D03*
X348858D03*
X344920D03*
X340984D03*
X352794Y348150D03*
X348858D03*
X344920D03*
X340984D03*
X352794Y352087D03*
X348858D03*
X344920D03*
X340984D03*
X352794Y356024D03*
X348858D03*
X344920D03*
X340984D03*
X352794Y359961D03*
X348858D03*
X344920D03*
X340984D03*
X371680Y106387D03*
X367742D03*
X363806D03*
X359868D03*
X355932D03*
X371680Y110324D03*
X367742D03*
X363806D03*
X359868D03*
X355932D03*
X371680Y114261D03*
X367742D03*
X363806D03*
X359868D03*
X355932D03*
X371680Y118198D03*
X367742D03*
X363806D03*
X359868D03*
X355932D03*
X371680Y122135D03*
X367742D03*
X363806D03*
X359868D03*
X355932D03*
X371680Y126072D03*
X367742D03*
X363806D03*
X359868D03*
X355932D03*
X371680Y130009D03*
X367742D03*
X363806D03*
X359868D03*
X355932D03*
X371680Y133946D03*
X367742D03*
X363806D03*
X359868D03*
X355932D03*
X371680Y137884D03*
X367742D03*
X363806D03*
X359868D03*
X355932D03*
X371680Y141820D03*
X367742D03*
X363806D03*
X359868D03*
X355932D03*
X371680Y145758D03*
X367742D03*
X363806D03*
X359868D03*
X355932D03*
X371680Y149694D03*
X367742D03*
X363806D03*
X359868D03*
X355932D03*
X371680Y153632D03*
X367742D03*
X363806D03*
X359868D03*
X355932D03*
X371680Y157568D03*
X367742D03*
X363806D03*
X359868D03*
X355932D03*
X371680Y161506D03*
X367742D03*
X363806D03*
X359868D03*
X355932D03*
X371680Y165442D03*
X367742D03*
X363806D03*
X359868D03*
X355932D03*
X371680Y169380D03*
X367742D03*
X363806D03*
X359868D03*
X355932D03*
X371680Y173316D03*
X367742D03*
X363806D03*
X359868D03*
X355932D03*
X371680Y177254D03*
X367742D03*
X363806D03*
X359868D03*
X355932D03*
X371680Y181191D03*
X367742D03*
X363806D03*
X359868D03*
X355932D03*
X371680Y185128D03*
X367742D03*
X363806D03*
X359868D03*
X355932D03*
X371680Y189065D03*
X367742D03*
X363806D03*
X359868D03*
X355932D03*
X371680Y193002D03*
X367742D03*
X363806D03*
X359868D03*
X355932D03*
X371680Y196939D03*
X367742D03*
X363806D03*
X359868D03*
X355932D03*
X371680Y200876D03*
X367742D03*
X363806D03*
X359868D03*
X355932D03*
X371680Y204813D03*
X367742D03*
X363806D03*
X359868D03*
X355932D03*
X372480Y230039D03*
X368542D03*
X364606D03*
X360668D03*
X356732D03*
X372480Y233976D03*
X368542D03*
X364606D03*
X360668D03*
X356732D03*
X372480Y237913D03*
X368542D03*
X364606D03*
X360668D03*
X356732D03*
X372480Y241850D03*
X368542D03*
X364606D03*
X360668D03*
X356732D03*
X372480Y245787D03*
X368542D03*
X364606D03*
X360668D03*
X356732D03*
X372480Y249724D03*
X368542D03*
X364606D03*
X360668D03*
X356732D03*
X372480Y253661D03*
X368542D03*
X364606D03*
X360668D03*
X356732D03*
X372480Y257598D03*
X368542D03*
X364606D03*
X360668D03*
X356732D03*
X372480Y261535D03*
X368542D03*
X364606D03*
X360668D03*
X356732D03*
X372480Y265472D03*
X368542D03*
X364606D03*
X360668D03*
X356732D03*
X372480Y269409D03*
X368542D03*
X364606D03*
X360668D03*
X356732D03*
X372480Y273346D03*
X368542D03*
X364606D03*
X360668D03*
X356732D03*
X372480Y277284D03*
X368542D03*
X364606D03*
X360668D03*
X356732D03*
X372480Y281220D03*
X368542D03*
X364606D03*
X360668D03*
X356732D03*
X372480Y285158D03*
X368542D03*
X364606D03*
X360668D03*
X356732D03*
X372480Y289094D03*
X368542D03*
X364606D03*
X360668D03*
X356732D03*
X372480Y293032D03*
X368542D03*
X364606D03*
X360668D03*
X356732D03*
X372480Y296968D03*
X368542D03*
X364606D03*
X360668D03*
X356732D03*
X372480Y300906D03*
X368542D03*
X364606D03*
X360668D03*
X356732D03*
X372480Y304842D03*
X368542D03*
X364606D03*
X360668D03*
X356732D03*
X372480Y308780D03*
X368542D03*
X364606D03*
X360668D03*
X356732D03*
X372480Y312716D03*
X368542D03*
X364606D03*
X360668D03*
X356732D03*
X372480Y316654D03*
X368542D03*
X364606D03*
X360668D03*
X356732D03*
X372480Y320591D03*
X368542D03*
X364606D03*
X360668D03*
X356732D03*
X372480Y324528D03*
X368542D03*
X364606D03*
X360668D03*
X356732D03*
X372480Y328465D03*
X368542D03*
X364606D03*
X360668D03*
X356732D03*
X372480Y332402D03*
X368542D03*
X364606D03*
X360668D03*
X356732D03*
X372480Y336339D03*
X368542D03*
X364606D03*
X360668D03*
X356732D03*
X372480Y340276D03*
X368542D03*
X364606D03*
X360668D03*
X356732D03*
X372480Y344213D03*
X368542D03*
X364606D03*
X360668D03*
X356732D03*
X372480Y348150D03*
X368542D03*
X364606D03*
X360668D03*
X356732D03*
X372480Y352087D03*
X368542D03*
X364606D03*
X360668D03*
X356732D03*
X372480Y356024D03*
X368542D03*
X364606D03*
X360668D03*
X356732D03*
X372480Y359961D03*
X368542D03*
X364606D03*
X360668D03*
X356732D03*
X387428Y106387D03*
X383491D03*
X379554D03*
X375616D03*
X387428Y110324D03*
X383491D03*
X379554D03*
X375616D03*
X387428Y114261D03*
X383491D03*
X379554D03*
X375616D03*
X387428Y118198D03*
X383491D03*
X379554D03*
X375616D03*
X387428Y122135D03*
X383491D03*
X379554D03*
X375616D03*
X387428Y126072D03*
X383491D03*
X379554D03*
X375616D03*
X387428Y130009D03*
X383491D03*
X379554D03*
X375616D03*
X387428Y133946D03*
X383491D03*
X379554D03*
X375616D03*
X387428Y137884D03*
X383491D03*
X379554D03*
X375616D03*
X387428Y141820D03*
X383491D03*
X379554D03*
X375616D03*
X387428Y145758D03*
X383491D03*
X379554D03*
X375616D03*
X387428Y149694D03*
X383491D03*
X379554D03*
X375616D03*
X387428Y153632D03*
X383491D03*
X379554D03*
X375616D03*
X387428Y157568D03*
X383491D03*
X379554D03*
X375616D03*
X387428Y161506D03*
X383491D03*
X379554D03*
X375616D03*
X387428Y165442D03*
X383491D03*
X379554D03*
X375616D03*
X387428Y169380D03*
X383491D03*
X379554D03*
X375616D03*
X387428Y173316D03*
X383491D03*
X379554D03*
X375616D03*
X387428Y177254D03*
X383491D03*
X379554D03*
X375616D03*
X387428Y181191D03*
X383491D03*
X379554D03*
X375616D03*
X387428Y185128D03*
X383491D03*
X379554D03*
X375616D03*
X387428Y189065D03*
X383491D03*
X379554D03*
X375616D03*
X387428Y193002D03*
X383491D03*
X379554D03*
X375616D03*
X387428Y196939D03*
X383491D03*
X379554D03*
X375616D03*
X387428Y200876D03*
X383491D03*
X379554D03*
X375616D03*
X387428Y204813D03*
X383491D03*
X379554D03*
X375616D03*
X388228Y230039D03*
X384291D03*
X380354D03*
X376416D03*
X388228Y233976D03*
X384291D03*
X380354D03*
X376416D03*
X388228Y237913D03*
X384291D03*
X380354D03*
X376416D03*
X388228Y241850D03*
X384291D03*
X380354D03*
X376416D03*
X388228Y245787D03*
X384291D03*
X380354D03*
X376416D03*
X388228Y249724D03*
X384291D03*
X380354D03*
X376416D03*
X388228Y253661D03*
X384291D03*
X380354D03*
X376416D03*
X388228Y257598D03*
X384291D03*
X380354D03*
X376416D03*
X388228Y261535D03*
X384291D03*
X380354D03*
X376416D03*
X388228Y265472D03*
X384291D03*
X380354D03*
X376416D03*
X388228Y269409D03*
X384291D03*
X380354D03*
X376416D03*
X388228Y273346D03*
X384291D03*
X380354D03*
X376416D03*
X388228Y277284D03*
X384291D03*
X380354D03*
X376416D03*
X388228Y281220D03*
X384291D03*
X380354D03*
X376416D03*
X388228Y285158D03*
X384291D03*
X380354D03*
X376416D03*
X388228Y289094D03*
X384291D03*
X380354D03*
X376416D03*
X388228Y293032D03*
X384291D03*
X380354D03*
X376416D03*
X388228Y296968D03*
X384291D03*
X380354D03*
X376416D03*
X388228Y300906D03*
X384291D03*
X380354D03*
X376416D03*
X388228Y304842D03*
X384291D03*
X380354D03*
X376416D03*
X388228Y308780D03*
X384291D03*
X380354D03*
X376416D03*
X388228Y312716D03*
X384291D03*
X380354D03*
X376416D03*
X388228Y316654D03*
X384291D03*
X380354D03*
X376416D03*
X388228Y320591D03*
X384291D03*
X380354D03*
X376416D03*
X388228Y324528D03*
X384291D03*
X380354D03*
X376416D03*
X388228Y328465D03*
X384291D03*
X380354D03*
X376416D03*
X388228Y332402D03*
X384291D03*
X380354D03*
X376416D03*
X388228Y336339D03*
X384291D03*
X380354D03*
X376416D03*
X388228Y340276D03*
X384291D03*
X380354D03*
X376416D03*
X388228Y344213D03*
X384291D03*
X380354D03*
X376416D03*
X388228Y348150D03*
X384291D03*
X380354D03*
X376416D03*
X388228Y352087D03*
X384291D03*
X380354D03*
X376416D03*
X388228Y356024D03*
X384291D03*
X380354D03*
X376416D03*
X388228Y359961D03*
X384291D03*
X380354D03*
X376416D03*
X407113Y106387D03*
X403176D03*
X399239D03*
X395302D03*
X391365D03*
X407113Y110324D03*
X403176D03*
X399239D03*
X395302D03*
X391365D03*
X407113Y114261D03*
X403176D03*
X399239D03*
X395302D03*
X391365D03*
X407113Y118198D03*
X403176D03*
X399239D03*
X395302D03*
X391365D03*
X407113Y122135D03*
X403176D03*
X399239D03*
X395302D03*
X391365D03*
X407113Y126072D03*
X403176D03*
X399239D03*
X395302D03*
X391365D03*
X407113Y130009D03*
X403176D03*
X399239D03*
X395302D03*
X391365D03*
X407113Y133946D03*
X403176D03*
X399239D03*
X395302D03*
X391365D03*
X407113Y137884D03*
X403176D03*
X399239D03*
X395302D03*
X391365D03*
X407113Y141820D03*
X403176D03*
X399239D03*
X395302D03*
X391365D03*
X407113Y145758D03*
X403176D03*
X399239D03*
X395302D03*
X391365D03*
X407113Y149694D03*
X403176D03*
X399239D03*
X395302D03*
X391365D03*
X407113Y153632D03*
X403176D03*
X399239D03*
X395302D03*
X391365D03*
X407113Y157568D03*
X403176D03*
X399239D03*
X395302D03*
X391365D03*
X407113Y161506D03*
X403176D03*
X399239D03*
X395302D03*
X391365D03*
X407113Y165442D03*
X403176D03*
X399239D03*
X395302D03*
X391365D03*
X407113Y169380D03*
X403176D03*
X399239D03*
X395302D03*
X391365D03*
X407113Y173316D03*
X403176D03*
X399239D03*
X395302D03*
X391365D03*
X407113Y177254D03*
X403176D03*
X399239D03*
X395302D03*
X391365D03*
X407113Y181191D03*
X403176D03*
X399239D03*
X395302D03*
X391365D03*
X407113Y185128D03*
X403176D03*
X399239D03*
X395302D03*
X391365D03*
X407113Y189065D03*
X403176D03*
X399239D03*
X395302D03*
X391365D03*
X407113Y193002D03*
X403176D03*
X399239D03*
X395302D03*
X391365D03*
X407113Y196939D03*
X403176D03*
X399239D03*
X395302D03*
X391365D03*
X407113Y200876D03*
X403176D03*
X399239D03*
X395302D03*
X391365D03*
X407113Y204813D03*
X403176D03*
X399239D03*
X395302D03*
X391365D03*
X407913Y230039D03*
X403976D03*
X400039D03*
X396102D03*
X392165D03*
X407913Y233976D03*
X403976D03*
X400039D03*
X396102D03*
X392165D03*
X407913Y237913D03*
X403976D03*
X400039D03*
X396102D03*
X392165D03*
X407913Y241850D03*
X403976D03*
X400039D03*
X396102D03*
X392165D03*
X407913Y245787D03*
X403976D03*
X400039D03*
X396102D03*
X392165D03*
X407913Y249724D03*
X403976D03*
X400039D03*
X396102D03*
X392165D03*
X407913Y253661D03*
X403976D03*
X400039D03*
X396102D03*
X392165D03*
X407913Y257598D03*
X403976D03*
X400039D03*
X396102D03*
X392165D03*
X407913Y261535D03*
X403976D03*
X400039D03*
X396102D03*
X392165D03*
X407913Y265472D03*
X403976D03*
X400039D03*
X396102D03*
X392165D03*
X407913Y269409D03*
X403976D03*
X400039D03*
X396102D03*
X392165D03*
X407913Y273346D03*
X403976D03*
X400039D03*
X396102D03*
X392165D03*
X407913Y277284D03*
X403976D03*
X400039D03*
X396102D03*
X392165D03*
X407913Y281220D03*
X403976D03*
X400039D03*
X396102D03*
X392165D03*
X407913Y285158D03*
X403976D03*
X400039D03*
X396102D03*
X392165D03*
X407913Y289094D03*
X403976D03*
X400039D03*
X396102D03*
X392165D03*
X407913Y293032D03*
X403976D03*
X400039D03*
X396102D03*
X392165D03*
X407913Y296968D03*
X403976D03*
X400039D03*
X396102D03*
X392165D03*
X407913Y300906D03*
X403976D03*
X400039D03*
X396102D03*
X392165D03*
X407913Y304842D03*
X403976D03*
X400039D03*
X396102D03*
X392165D03*
X407913Y308780D03*
X403976D03*
X400039D03*
X396102D03*
X392165D03*
X407913Y312716D03*
X403976D03*
X400039D03*
X396102D03*
X392165D03*
X407913Y316654D03*
X403976D03*
X400039D03*
X396102D03*
X392165D03*
X407913Y320591D03*
X403976D03*
X400039D03*
X396102D03*
X392165D03*
X407913Y324528D03*
X403976D03*
X400039D03*
X396102D03*
X392165D03*
X407913Y328465D03*
X403976D03*
X400039D03*
X396102D03*
X392165D03*
X407913Y332402D03*
X403976D03*
X400039D03*
X396102D03*
X392165D03*
X407913Y336339D03*
X403976D03*
X400039D03*
X396102D03*
X392165D03*
X407913Y340276D03*
X403976D03*
X400039D03*
X396102D03*
X392165D03*
X407913Y344213D03*
X403976D03*
X400039D03*
X396102D03*
X392165D03*
X407913Y348150D03*
X403976D03*
X400039D03*
X396102D03*
X392165D03*
X407913Y352087D03*
X403976D03*
X400039D03*
X396102D03*
X392165D03*
X407913Y356024D03*
X403976D03*
X400039D03*
X396102D03*
X392165D03*
X407913Y359961D03*
X403976D03*
X400039D03*
X396102D03*
X392165D03*
X419724Y230039D03*
X415787D03*
X411850D03*
X423661Y233976D03*
X419724D03*
X415787D03*
X411850D03*
X423661Y237913D03*
X419724D03*
X415787D03*
X411850D03*
X423661Y241850D03*
X419724D03*
X415787D03*
X411850D03*
X423661Y245787D03*
X419724D03*
X415787D03*
X411850D03*
X423661Y249724D03*
X419724D03*
X415787D03*
X411850D03*
X423661Y253661D03*
X419724D03*
X415787D03*
X411850D03*
X423661Y257598D03*
X419724D03*
X415787D03*
X411850D03*
X423661Y261535D03*
X419724D03*
X415787D03*
X411850D03*
X423661Y265472D03*
X419724D03*
X415787D03*
X411850D03*
X423661Y269409D03*
X419724D03*
X415787D03*
X411850D03*
X423661Y273346D03*
X419724D03*
X415787D03*
X411850D03*
X423661Y277284D03*
X419724D03*
X415787D03*
X411850D03*
X423661Y281220D03*
X419724D03*
X415787D03*
X411850D03*
X423661Y285158D03*
X419724D03*
X415787D03*
X411850D03*
X423661Y289094D03*
X419724D03*
X415787D03*
X411850D03*
X423661Y293032D03*
X419724D03*
X415787D03*
X411850D03*
X423661Y296968D03*
X419724D03*
X415787D03*
X411850D03*
X423661Y300906D03*
X419724D03*
X415787D03*
X411850D03*
X423661Y304842D03*
X419724D03*
X415787D03*
X411850D03*
X423661Y308780D03*
X419724D03*
X415787D03*
X411850D03*
X423661Y312716D03*
X419724D03*
X415787D03*
X411850D03*
X423661Y316654D03*
X419724D03*
X415787D03*
X411850D03*
X423661Y320591D03*
X419724D03*
X415787D03*
X411850D03*
X423661Y324528D03*
X419724D03*
X415787D03*
X411850D03*
X423661Y328465D03*
X419724D03*
X415787D03*
X411850D03*
X423661Y332402D03*
X419724D03*
X415787D03*
X411850D03*
X423661Y336339D03*
X419724D03*
X415787D03*
X411850D03*
X423661Y340276D03*
X419724D03*
X415787D03*
X411850D03*
X423661Y344213D03*
X419724D03*
X415787D03*
X411850D03*
X423661Y348150D03*
X419724D03*
X415787D03*
X411850D03*
X423661Y352087D03*
X419724D03*
X415787D03*
X411850D03*
X423661Y356024D03*
X419724D03*
X415787D03*
X411850D03*
X419724Y359961D03*
X415787D03*
X411850D03*
G54D68*
G01X264667Y-92500D02*
Y-86500D01*
X266867D01*
X267600Y-86800D01*
X268150Y-87500D01*
X268333Y-88300D01*
X268150Y-89100D01*
X267692Y-89700D01*
X266867Y-90000D01*
X264667D01*
G01X270708Y-92500D02*
X273000Y-86500D01*
X275292Y-92500D01*
G01X274467Y-90400D02*
X271533D01*
G01X277575Y-91700D02*
X278308Y-92200D01*
X279133Y-92500D01*
X279867D01*
X280600Y-92200D01*
X281150Y-91700D01*
X281425Y-91000D01*
X281242Y-90300D01*
X280783Y-89700D01*
X279958Y-89300D01*
X278858Y-89100D01*
X278217Y-88700D01*
X277942Y-88000D01*
X278125Y-87300D01*
X278583Y-86800D01*
X279225Y-86500D01*
X279867D01*
X280508Y-86700D01*
X281058Y-87200D01*
G01X286000Y-86500D02*
Y-92500D01*
G01X283892Y-86500D02*
X288108D01*
G01X294333Y-92500D02*
X290667D01*
Y-86500D01*
X294333D01*
G01X292867Y-89400D02*
X290667D01*
G01X296617Y-92500D02*
Y-86500D01*
X299000Y-91500D01*
X301383Y-86500D01*
Y-92500D01*
G01X303208D02*
X305500Y-86500D01*
X307792Y-92500D01*
G01X306967Y-90400D02*
X304033D01*
G01X310075Y-91700D02*
X310808Y-92200D01*
X311633Y-92500D01*
X312367D01*
X313100Y-92200D01*
X313650Y-91700D01*
X313925Y-91000D01*
X313742Y-90300D01*
X313283Y-89700D01*
X312458Y-89300D01*
X311358Y-89100D01*
X310717Y-88700D01*
X310442Y-88000D01*
X310625Y-87300D01*
X311083Y-86800D01*
X311725Y-86500D01*
X312367D01*
X313008Y-86700D01*
X313558Y-87200D01*
G01X316483Y-92500D02*
Y-86500D01*
G01X319967D02*
X316483Y-90200D01*
G01X320517Y-92500D02*
X318042Y-88500D01*
G01X272250Y-96500D02*
Y-102500D01*
G01X270142Y-96500D02*
X274358D01*
G01X278750Y-102500D02*
X278017Y-102400D01*
X277375Y-102000D01*
X276825Y-101400D01*
X276458Y-100700D01*
X276275Y-99900D01*
Y-99100D01*
X276458Y-98300D01*
X276825Y-97600D01*
X277375Y-97000D01*
X278017Y-96600D01*
X278750Y-96500D01*
X279483Y-96600D01*
X280125Y-97000D01*
X280675Y-97600D01*
X281042Y-98300D01*
X281225Y-99100D01*
Y-99900D01*
X281042Y-100700D01*
X280675Y-101400D01*
X280125Y-102000D01*
X279483Y-102400D01*
X278750Y-102500D01*
G01X283417D02*
Y-96500D01*
X285617D01*
X286350Y-96800D01*
X286900Y-97500D01*
X287083Y-98300D01*
X286900Y-99100D01*
X286442Y-99700D01*
X285617Y-100000D01*
X283417D01*
G01X296325Y-101700D02*
X297058Y-102200D01*
X297883Y-102500D01*
X298617D01*
X299350Y-102200D01*
X299900Y-101700D01*
X300175Y-101000D01*
X299992Y-100300D01*
X299533Y-99700D01*
X298708Y-99300D01*
X297608Y-99100D01*
X296967Y-98700D01*
X296692Y-98000D01*
X296875Y-97300D01*
X297333Y-96800D01*
X297975Y-96500D01*
X298617D01*
X299258Y-96700D01*
X299808Y-97200D01*
G01X303650Y-96500D02*
X305850D01*
G01X304750D02*
Y-102500D01*
G01X303650D02*
X305850D01*
G01X309233D02*
Y-96500D01*
X311067D01*
X311800Y-96800D01*
X312350Y-97200D01*
X312808Y-97800D01*
X313175Y-98500D01*
X313267Y-99500D01*
X313175Y-100500D01*
X312808Y-101200D01*
X312350Y-101800D01*
X311800Y-102200D01*
X311067Y-102500D01*
X309233D01*
G01X319583D02*
X315917D01*
Y-96500D01*
X319583D01*
G01X318117Y-99400D02*
X315917D01*
G01X364983Y-97500D02*
Y-91500D01*
X366817D01*
X367550Y-91800D01*
X368100Y-92200D01*
X368558Y-92800D01*
X368925Y-93500D01*
X369017Y-94500D01*
X368925Y-95500D01*
X368558Y-96200D01*
X368100Y-96800D01*
X367550Y-97200D01*
X366817Y-97500D01*
X364983D01*
G01X374600D02*
Y-91500D01*
X371208Y-95800D01*
X375792D01*
G01X380000Y-97500D02*
Y-91500D01*
X378900Y-92700D01*
G01Y-97500D02*
X381100D01*
G01X386500Y-91500D02*
X385767Y-91700D01*
X385217Y-92200D01*
X384850Y-92800D01*
X384575Y-93600D01*
X384483Y-94500D01*
X384575Y-95400D01*
X384850Y-96200D01*
X385217Y-96800D01*
X385767Y-97300D01*
X386500Y-97500D01*
X387233Y-97300D01*
X387783Y-96800D01*
X388150Y-96200D01*
X388425Y-95400D01*
X388517Y-94500D01*
X388425Y-93600D01*
X388150Y-92800D01*
X387783Y-92200D01*
X387233Y-91700D01*
X386500Y-91500D01*
G01X393000D02*
X392267Y-91700D01*
X391717Y-92200D01*
X391350Y-92800D01*
X391075Y-93600D01*
X390983Y-94500D01*
X391075Y-95400D01*
X391350Y-96200D01*
X391717Y-96800D01*
X392267Y-97300D01*
X393000Y-97500D01*
X393733Y-97300D01*
X394283Y-96800D01*
X394650Y-96200D01*
X394925Y-95400D01*
X395017Y-94500D01*
X394925Y-93600D01*
X394650Y-92800D01*
X394283Y-92200D01*
X393733Y-91700D01*
X393000Y-91500D01*
G01X405542Y-99500D02*
X404625Y-98500D01*
X404167Y-97500D01*
Y-93500D01*
X404625Y-92500D01*
X405542Y-91500D01*
G01X410758Y-92500D02*
X411308Y-91900D01*
X411950Y-91600D01*
X412683Y-91500D01*
X413600Y-91700D01*
X414242Y-92200D01*
X414425Y-92800D01*
X414333Y-93400D01*
X413967Y-93900D01*
X412133Y-94900D01*
X411308Y-95600D01*
X410758Y-96600D01*
X410575Y-97500D01*
X414425D01*
G01X416983Y-96600D02*
X417533Y-97100D01*
X418175Y-97400D01*
X419000Y-97500D01*
X419825Y-97300D01*
X420467Y-96900D01*
X420925Y-96200D01*
X421017Y-95400D01*
X420833Y-94600D01*
X420375Y-94100D01*
X419733Y-93700D01*
X419092Y-93600D01*
X418450Y-93700D01*
X417625Y-94100D01*
X417900Y-91500D01*
X420375D01*
G01X425500Y-97500D02*
Y-91500D01*
X424400Y-92700D01*
G01Y-97500D02*
X426600D01*
G01X432000Y-91500D02*
X431267Y-91700D01*
X430717Y-92200D01*
X430350Y-92800D01*
X430075Y-93600D01*
X429983Y-94500D01*
X430075Y-95400D01*
X430350Y-96200D01*
X430717Y-96800D01*
X431267Y-97300D01*
X432000Y-97500D01*
X432733Y-97300D01*
X433283Y-96800D01*
X433650Y-96200D01*
X433925Y-95400D01*
X434017Y-94500D01*
X433925Y-93600D01*
X433650Y-92800D01*
X433283Y-92200D01*
X432733Y-91700D01*
X432000Y-91500D01*
G01X436483Y-96300D02*
X437033Y-97000D01*
X437767Y-97400D01*
X438592Y-97500D01*
X439325Y-97400D01*
X440058Y-96900D01*
X440517Y-96300D01*
X440608Y-95700D01*
X440425Y-95000D01*
X439783Y-94500D01*
X439142Y-94300D01*
X438317D01*
G01X439142D02*
X439692Y-94000D01*
X440150Y-93500D01*
X440333Y-92900D01*
X440150Y-92300D01*
X439692Y-91800D01*
X438867Y-91500D01*
X438042Y-91600D01*
X437217Y-92000D01*
G01X445000Y-91500D02*
X444267Y-91700D01*
X443717Y-92200D01*
X443350Y-92800D01*
X443075Y-93600D01*
X442983Y-94500D01*
X443075Y-95400D01*
X443350Y-96200D01*
X443717Y-96800D01*
X444267Y-97300D01*
X445000Y-97500D01*
X445733Y-97300D01*
X446283Y-96800D01*
X446650Y-96200D01*
X446925Y-95400D01*
X447017Y-94500D01*
X446925Y-93600D01*
X446650Y-92800D01*
X446283Y-92200D01*
X445733Y-91700D01*
X445000Y-91500D01*
G01X451500D02*
X450767Y-91700D01*
X450217Y-92200D01*
X449850Y-92800D01*
X449575Y-93600D01*
X449483Y-94500D01*
X449575Y-95400D01*
X449850Y-96200D01*
X450217Y-96800D01*
X450767Y-97300D01*
X451500Y-97500D01*
X452233Y-97300D01*
X452783Y-96800D01*
X453150Y-96200D01*
X453425Y-95400D01*
X453517Y-94500D01*
X453425Y-93600D01*
X453150Y-92800D01*
X452783Y-92200D01*
X452233Y-91700D01*
X451500Y-91500D01*
G01X458458Y-99500D02*
X459375Y-98500D01*
X459833Y-97500D01*
Y-93500D01*
X459375Y-92500D01*
X458458Y-91500D01*
G54D59*
X689700Y7050D03*
Y34550D03*
G54D69*
G01X258500Y-125000D02*
Y-117000D01*
X261000D01*
X262000Y-117400D01*
X262750Y-117933D01*
X263375Y-118733D01*
X263875Y-119667D01*
X264000Y-121000D01*
X263875Y-122333D01*
X263375Y-123267D01*
X262750Y-124067D01*
X262000Y-124600D01*
X261000Y-125000D01*
X258500D01*
G01X266625D02*
X269750Y-117000D01*
X272875Y-125000D01*
G01X271750Y-122200D02*
X267750D01*
G01X278250Y-117000D02*
Y-125000D01*
G01X275375Y-117000D02*
X281125D01*
G01X289250Y-125000D02*
X284250D01*
Y-117000D01*
X289250D01*
G01X287250Y-120867D02*
X284250D01*
G01X295250Y-125267D02*
X295000Y-125133D01*
Y-124867D01*
X295250Y-124733D01*
X295500Y-124867D01*
Y-125133D01*
X295250Y-125267D01*
G01Y-121667D02*
X295000Y-121533D01*
Y-121267D01*
X295250Y-121133D01*
X295500Y-121267D01*
Y-121533D01*
X295250Y-121667D01*
G01X267750Y-70000D02*
Y-62000D01*
X270250D01*
X271250Y-62400D01*
X272000Y-62933D01*
X272625Y-63733D01*
X273125Y-64667D01*
X273250Y-66000D01*
X273125Y-67333D01*
X272625Y-68267D01*
X272000Y-69067D01*
X271250Y-69600D01*
X270250Y-70000D01*
X267750D01*
G01X277500Y-62000D02*
X280500D01*
G01X279000D02*
Y-70000D01*
G01X277500D02*
X280500D01*
G01X288250Y-66000D02*
X290750D01*
Y-68400D01*
X290000Y-69200D01*
X289125Y-69733D01*
X287875Y-70000D01*
X286625Y-69733D01*
X285750Y-69200D01*
X285000Y-68400D01*
X284500Y-67467D01*
X284250Y-66400D01*
Y-65467D01*
X284500Y-64667D01*
X285000Y-63733D01*
X285750Y-62933D01*
X286500Y-62400D01*
X287500Y-62000D01*
X288375D01*
X289375Y-62267D01*
X290125Y-62800D01*
G01X294500Y-62000D02*
X297500D01*
G01X296000D02*
Y-70000D01*
G01X294500D02*
X297500D01*
G01X304500Y-62000D02*
Y-70000D01*
G01X301625Y-62000D02*
X307375D01*
G01X309875Y-70000D02*
X313000Y-62000D01*
X316125Y-70000D01*
G01X315000Y-67200D02*
X311000D01*
G01X319000Y-62000D02*
Y-70000D01*
X324000D01*
G01X336000Y-62000D02*
Y-70000D01*
X341000D01*
G01X345500Y-62000D02*
X348500D01*
G01X347000D02*
Y-70000D01*
G01X345500D02*
X348500D01*
G01X356250Y-66000D02*
X358750D01*
Y-68400D01*
X358000Y-69200D01*
X357125Y-69733D01*
X355875Y-70000D01*
X354625Y-69733D01*
X353750Y-69200D01*
X353000Y-68400D01*
X352500Y-67467D01*
X352250Y-66400D01*
Y-65467D01*
X352500Y-64667D01*
X353000Y-63733D01*
X353750Y-62933D01*
X354500Y-62400D01*
X355500Y-62000D01*
X356375D01*
X357375Y-62267D01*
X358125Y-62800D01*
G01X361375Y-70000D02*
Y-62000D01*
G01X366625D02*
Y-70000D01*
G01Y-66000D02*
X361375D01*
G01X372500Y-62000D02*
Y-70000D01*
G01X369625Y-62000D02*
X375375D01*
G01X388000D02*
X391000D01*
G01X389500D02*
Y-70000D01*
G01X388000D02*
X391000D01*
G01X395125D02*
Y-62000D01*
X400875Y-70000D01*
Y-62000D01*
G01X403625Y-70000D02*
Y-62000D01*
X409375Y-70000D01*
Y-62000D01*
G01X415000Y-70000D02*
X414000Y-69867D01*
X413125Y-69333D01*
X412375Y-68533D01*
X411875Y-67600D01*
X411625Y-66533D01*
Y-65467D01*
X411875Y-64400D01*
X412375Y-63467D01*
X413125Y-62667D01*
X414000Y-62133D01*
X415000Y-62000D01*
X416000Y-62133D01*
X416875Y-62667D01*
X417625Y-63467D01*
X418125Y-64400D01*
X418375Y-65467D01*
Y-66533D01*
X418125Y-67600D01*
X417625Y-68533D01*
X416875Y-69333D01*
X416000Y-69867D01*
X415000Y-70000D01*
G01X420375Y-62000D02*
X423500Y-70000D01*
X426625Y-62000D01*
G01X428875Y-70000D02*
X432000Y-62000D01*
X435125Y-70000D01*
G01X434000Y-67200D02*
X430000D01*
G01X440500Y-62000D02*
Y-70000D01*
G01X437625Y-62000D02*
X443375D01*
G01X447500D02*
X450500D01*
G01X449000D02*
Y-70000D01*
G01X447500D02*
X450500D01*
G01X457500D02*
X456500Y-69867D01*
X455625Y-69333D01*
X454875Y-68533D01*
X454375Y-67600D01*
X454125Y-66533D01*
Y-65467D01*
X454375Y-64400D01*
X454875Y-63467D01*
X455625Y-62667D01*
X456500Y-62133D01*
X457500Y-62000D01*
X458500Y-62133D01*
X459375Y-62667D01*
X460125Y-63467D01*
X460625Y-64400D01*
X460875Y-65467D01*
Y-66533D01*
X460625Y-67600D01*
X460125Y-68533D01*
X459375Y-69333D01*
X458500Y-69867D01*
X457500Y-70000D01*
G01X463125D02*
Y-62000D01*
X468875Y-70000D01*
Y-62000D01*
G01X471875Y-68934D02*
X472875Y-69600D01*
X474000Y-70000D01*
X475000D01*
X476000Y-69600D01*
X476750Y-68934D01*
X477125Y-68000D01*
X476875Y-67067D01*
X476250Y-66267D01*
X475125Y-65733D01*
X473625Y-65467D01*
X472750Y-64933D01*
X472375Y-64000D01*
X472625Y-63067D01*
X473250Y-62400D01*
X474125Y-62000D01*
X475000D01*
X475875Y-62267D01*
X476625Y-62933D01*
G01X316250Y-117000D02*
X315250Y-117267D01*
X314500Y-117933D01*
X314000Y-118733D01*
X313625Y-119800D01*
X313500Y-121000D01*
X313625Y-122200D01*
X314000Y-123267D01*
X314500Y-124067D01*
X315250Y-124733D01*
X316250Y-125000D01*
X317250Y-124733D01*
X318000Y-124067D01*
X318500Y-123267D01*
X318875Y-122200D01*
X319000Y-121000D01*
X318875Y-119800D01*
X318500Y-118733D01*
X318000Y-117933D01*
X317250Y-117267D01*
X316250Y-117000D01*
G01X326250Y-125000D02*
Y-117000D01*
X321625Y-122733D01*
X327875D01*
G01X331000Y-125267D02*
X335500Y-117000D01*
G01X341750Y-125000D02*
Y-117000D01*
X340250Y-118600D01*
G01Y-125000D02*
X343250D01*
G01X347875Y-118333D02*
X348625Y-117533D01*
X349500Y-117133D01*
X350500Y-117000D01*
X351750Y-117267D01*
X352625Y-117933D01*
X352875Y-118733D01*
X352750Y-119534D01*
X352250Y-120200D01*
X349750Y-121533D01*
X348625Y-122467D01*
X347875Y-123800D01*
X347625Y-125000D01*
X352875D01*
G01X356500Y-125267D02*
X361000Y-117000D01*
G01X364875Y-118333D02*
X365625Y-117533D01*
X366500Y-117133D01*
X367500Y-117000D01*
X368750Y-117267D01*
X369625Y-117933D01*
X369875Y-118733D01*
X369750Y-119534D01*
X369250Y-120200D01*
X366750Y-121533D01*
X365625Y-122467D01*
X364875Y-123800D01*
X364625Y-125000D01*
X369875D01*
G01X375750Y-117000D02*
X374750Y-117267D01*
X374000Y-117933D01*
X373500Y-118733D01*
X373125Y-119800D01*
X373000Y-121000D01*
X373125Y-122200D01*
X373500Y-123267D01*
X374000Y-124067D01*
X374750Y-124733D01*
X375750Y-125000D01*
X376750Y-124733D01*
X377500Y-124067D01*
X378000Y-123267D01*
X378375Y-122200D01*
X378500Y-121000D01*
X378375Y-119800D01*
X378000Y-118733D01*
X377500Y-117933D01*
X376750Y-117267D01*
X375750Y-117000D01*
G01X384250Y-125000D02*
Y-117000D01*
X382750Y-118600D01*
G01Y-125000D02*
X385750D01*
G01X390375Y-121667D02*
X391250Y-120733D01*
X392000Y-120200D01*
X393000Y-119933D01*
X393875Y-120200D01*
X394500Y-120733D01*
X395000Y-121533D01*
X395125Y-122467D01*
X395000Y-123267D01*
X394500Y-124067D01*
X393750Y-124733D01*
X392875Y-125000D01*
X391875Y-124733D01*
X391000Y-123934D01*
X390500Y-122733D01*
X390375Y-121400D01*
X390625Y-119667D01*
X391000Y-118733D01*
X391625Y-117800D01*
X392500Y-117133D01*
X393375Y-117000D01*
X394250Y-117267D01*
X394875Y-117933D01*
G01X408750Y-125000D02*
Y-117000D01*
X411875D01*
X412875Y-117400D01*
X413500Y-117933D01*
X413750Y-119000D01*
X413500Y-120067D01*
X412750Y-120733D01*
X411875Y-121133D01*
X408750D01*
G01X411875D02*
X413750Y-125000D01*
G01X422250D02*
X417250D01*
Y-117000D01*
X422250D01*
G01X420250Y-120867D02*
X417250D01*
G01X425125Y-117000D02*
X428250Y-125000D01*
X431375Y-117000D01*
G01X436750Y-125267D02*
X436500Y-125133D01*
Y-124867D01*
X436750Y-124733D01*
X437000Y-124867D01*
Y-125133D01*
X436750Y-125267D01*
G01Y-121667D02*
X436500Y-121533D01*
Y-121267D01*
X436750Y-121133D01*
X437000Y-121267D01*
Y-121533D01*
X436750Y-121667D01*
G01X459750Y-125000D02*
Y-117000D01*
X462250D01*
X463250Y-117400D01*
X464000Y-117933D01*
X464625Y-118733D01*
X465125Y-119667D01*
X465250Y-121000D01*
X465125Y-122333D01*
X464625Y-123267D01*
X464000Y-124067D01*
X463250Y-124600D01*
X462250Y-125000D01*
X459750D01*
M02*
