G04 ================== begin FILE IDENTIFICATION RECORD ==================*
G04 Layout Name:  2510300_REV-D.brd*
G04 Film Name:    Paste_bot.gbr*
G04 File Format:  Gerber RS274X*
G04 File Origin:  Cadence Allegro 16.6-2015-S051*
G04 Origin Date:  Tue Apr 12 06:53:55 2016*
G04 *
G04 Layer:  VIA CLASS/PASTEMASK_BOTTOM*
G04 Layer:  PIN/PASTEMASK_BOTTOM*
G04 Layer:  PACKAGE GEOMETRY/PASTEMASK_BOTTOM*
G04 Layer:  DRAWING FORMAT/TITLE_BLOCK*
G04 Layer:  BOARD GEOMETRY/PASTEMASK_BOTTOM*
G04 *
G04 Offset:    (0.00 0.00)*
G04 Mirror:    No*
G04 Mode:      Positive*
G04 Rotation:  0*
G04 FullContactRelief:  No*
G04 UndefLineWidth:     0.00*
G04 ================== end FILE IDENTIFICATION RECORD ====================*
%FSLAX25Y25*MOIN*%
%IR0*IPPOS*OFA0.00000B0.00000*MIA0B0*SFA1.00000B1.00000*%
%ADD32R,.12X.05*%
%AMMACRO24*
21,1,.025,.02,0.0,0.0,135.*%
%ADD24MACRO24*%
%ADD16R,.017X.1*%
%ADD27R,.083X.102*%
%ADD30R,.06X.009*%
%ADD34R,.124X.077*%
%ADD29R,.009X.06*%
%ADD17R,.017X.185*%
%ADD15R,.012X.02*%
%ADD12R,.032X.03*%
%ADD28R,.06X.03*%
%AMMACRO25*
21,1,.025,.02,0.0,0.0,45.*%
%ADD25MACRO25*%
%ADD21R,.02X.025*%
%ADD10R,.03X.032*%
%ADD37R,.04X.05*%
%ADD36R,.07X.012*%
%ADD22R,.025X.02*%
%ADD13R,.032X.016*%
%ADD18R,.06X.016*%
%ADD23R,.05X.063*%
%ADD35R,.055X.06*%
%ADD39R,.018X.016*%
%ADD31R,.055X.06*%
%ADD33R,.019X.07*%
%ADD14R,.079X.014*%
%ADD11R,.182X.178*%
%ADD20R,.095X.063*%
%ADD19R,.063X.095*%
%ADD26R,.083X.095*%
%ADD38R,.094X.086*%
%ADD40C,.02*%
%ADD41C,.006*%
%ADD42C,.008*%
G75*
%LPD*%
G75*
G54D10*
X20900Y146700D03*
X21900Y160000D03*
Y167500D03*
Y175000D03*
Y182500D03*
Y190000D03*
Y200000D03*
Y207500D03*
Y215000D03*
Y225000D03*
Y232500D03*
Y240000D03*
Y247500D03*
X39400Y122500D03*
Y115000D03*
X30600Y122500D03*
X24400D03*
X27100Y146700D03*
X28100Y160000D03*
Y167500D03*
Y175000D03*
Y182500D03*
Y190000D03*
Y200000D03*
Y207500D03*
Y215000D03*
Y225000D03*
Y232500D03*
Y240000D03*
Y247500D03*
X34400Y267500D03*
X45600Y122500D03*
Y115000D03*
X40600Y267500D03*
X73700Y65800D03*
X73900Y76000D03*
X87000Y25000D03*
X79900Y65800D03*
X80100Y76000D03*
X109300Y16400D03*
X103100D03*
X93200Y25000D03*
X106400Y48100D03*
X100200D03*
X171900Y100000D03*
X178100D03*
X166900Y145000D03*
X173100D03*
X166900Y265000D03*
X173100D03*
X166900Y302500D03*
X173100D03*
X192100Y158000D03*
X185900D03*
X192100Y164000D03*
X185900D03*
X191100Y184000D03*
X184900D03*
X205900Y112000D03*
X212100D03*
X200900Y175000D03*
X207100D03*
X200900Y169000D03*
X207100D03*
X232400Y252600D03*
Y258800D03*
X238600Y252600D03*
Y258800D03*
X255700Y140600D03*
X261900D03*
X256900Y132200D03*
X263100D03*
X279400Y312500D03*
Y305000D03*
X285600Y312500D03*
Y305000D03*
X309900Y213000D03*
X316100D03*
X331100Y81600D03*
X337300D03*
X323900Y213000D03*
X330100D03*
X349500Y81600D03*
X343300D03*
X380000Y367800D03*
X373800D03*
Y374300D03*
X380000D03*
X403300Y89500D03*
X399100Y76200D03*
X392900D03*
Y82200D03*
X399100D03*
X409500Y89500D03*
X423900Y195000D03*
X424900Y182000D03*
X423900Y202000D03*
Y209000D03*
X430100Y195000D03*
X431100Y182000D03*
X430100Y202000D03*
Y209000D03*
X453100Y152000D03*
X446900D03*
X468100Y169000D03*
X461900D03*
Y175000D03*
X468100D03*
X472300Y298100D03*
X478500D03*
X472300Y304400D03*
X478500D03*
X472300Y310700D03*
X478500D03*
X494900Y173500D03*
X490800Y298100D03*
X484600D03*
X490800Y310700D03*
X484600D03*
X490800Y304400D03*
X484600D03*
X501100Y173500D03*
X510900Y180000D03*
Y186000D03*
X528400Y141000D03*
Y151000D03*
X517100Y180000D03*
Y186000D03*
X525900Y265000D03*
X526100Y256000D03*
X519900D03*
X520000Y265000D03*
X513800D03*
X545600Y95000D03*
X539400D03*
X534600Y141000D03*
X548100Y147500D03*
X541900D03*
X534600Y151000D03*
X532100Y265000D03*
X538100Y250600D03*
X531900D03*
X543900Y269000D03*
X544400Y295000D03*
X550100Y269000D03*
X550600Y295000D03*
X599400Y267500D03*
Y297500D03*
X605600Y267500D03*
Y297500D03*
X610300Y323300D03*
X616500D03*
X614400Y355500D03*
X620600D03*
X645600Y254500D03*
X639400D03*
X669200Y175300D03*
X669300Y214300D03*
X657100Y208100D03*
X663300D03*
X669300D03*
X657100Y214300D03*
X663300D03*
X665600Y359000D03*
X659400D03*
X680400Y18400D03*
X674200D03*
X674100Y11800D03*
X680300D03*
X675400Y175300D03*
X675500Y214300D03*
Y208100D03*
X683100Y255000D03*
X676900D03*
X688400Y375500D03*
X697600Y254000D03*
X691400D03*
X697600Y260000D03*
X691400D03*
X703900Y252000D03*
X699900Y276500D03*
X706100D03*
X694600Y375500D03*
X710100Y252000D03*
X716900D03*
X723100D03*
X722400Y274000D03*
X735900Y264000D03*
X728600Y274000D03*
X742100Y264000D03*
G54D20*
X170000Y279650D03*
Y290350D03*
X251500Y285250D03*
Y295950D03*
X271100Y249850D03*
Y260550D03*
X269100Y304050D03*
Y314750D03*
X270000Y335350D03*
Y324650D03*
Y357850D03*
Y347150D03*
X274200Y288550D03*
Y277850D03*
X297000Y127650D03*
Y138350D03*
X420000Y129350D03*
Y118650D03*
X421000Y164350D03*
Y153650D03*
X436900Y251450D03*
Y240750D03*
X435200Y284650D03*
Y273950D03*
X437500Y317150D03*
Y327850D03*
X450000Y305350D03*
Y294650D03*
X455000Y352150D03*
Y362850D03*
X477500Y319650D03*
Y330350D03*
X503600Y107650D03*
Y118350D03*
X521400Y299350D03*
Y310050D03*
X602500Y287850D03*
Y277150D03*
G54D11*
X42710Y93530D03*
Y349830D03*
G54D21*
X314600Y143200D03*
X318600Y159000D03*
X314500Y153300D03*
Y158300D03*
X314600Y148200D03*
X302700Y177500D03*
X318500Y178700D03*
X318600Y164000D03*
X302700Y182500D03*
X318500Y183700D03*
X318600Y198400D03*
Y203400D03*
X322600Y172000D03*
Y167000D03*
X330200Y167800D03*
Y162800D03*
X330400Y186500D03*
Y191500D03*
X334400Y194400D03*
Y199400D03*
X330400Y202400D03*
Y207400D03*
X338400Y194400D03*
Y199400D03*
X369800Y194300D03*
X357500Y198200D03*
Y203200D03*
X361900Y198300D03*
Y203300D03*
X369800Y199300D03*
X381400Y153100D03*
Y158100D03*
X381600Y174800D03*
X381400Y194400D03*
X385400Y182600D03*
Y187600D03*
X381600Y179800D03*
X373700Y202400D03*
Y207400D03*
X385600Y207300D03*
Y202300D03*
X381400Y199400D03*
X389500Y198500D03*
Y203500D03*
X397400Y153000D03*
Y158000D03*
X397300Y174900D03*
X401200Y194600D03*
X397300Y179900D03*
X405300Y202200D03*
Y207200D03*
X393500Y202200D03*
Y207200D03*
X401200Y199600D03*
X409200Y203300D03*
Y198300D03*
X703500Y370500D03*
Y375500D03*
X706500Y353000D03*
Y348000D03*
G54D12*
X52500Y124400D03*
Y130600D03*
Y144400D03*
Y150600D03*
X50000Y263100D03*
Y256900D03*
Y283100D03*
Y276900D03*
Y298100D03*
Y291900D03*
Y313100D03*
Y306900D03*
Y321900D03*
Y328100D03*
X65000Y140600D03*
Y134400D03*
X60100Y231000D03*
Y237200D03*
X57500Y266900D03*
Y273100D03*
X65700Y313600D03*
Y307400D03*
X117500Y86900D03*
Y93100D03*
Y149400D03*
Y155600D03*
X117900Y195700D03*
Y189500D03*
X115800Y248400D03*
Y242200D03*
X117500Y261900D03*
Y268100D03*
Y310600D03*
Y304400D03*
X222000Y172400D03*
Y178600D03*
X230000Y172400D03*
Y178600D03*
X216000Y172400D03*
Y178600D03*
X241800Y184800D03*
Y191000D03*
X247800Y184800D03*
Y191000D03*
X259600Y151500D03*
Y157700D03*
X285100Y249900D03*
Y243700D03*
X285000Y256900D03*
Y263100D03*
Y279400D03*
Y291900D03*
Y298100D03*
Y285600D03*
Y319400D03*
Y334400D03*
Y325600D03*
Y340600D03*
X301000Y152900D03*
Y159100D03*
Y165900D03*
Y172100D03*
X465100Y231100D03*
Y237300D03*
X493000Y120600D03*
Y114400D03*
X486000Y177900D03*
Y184100D03*
X496000Y182400D03*
Y188600D03*
X488900Y262300D03*
Y256100D03*
X482800D03*
Y262300D03*
X502000Y182400D03*
Y188600D03*
X524000Y164400D03*
Y170600D03*
X518500Y249900D03*
Y243700D03*
X548500Y242100D03*
Y235900D03*
X550000Y261800D03*
Y255600D03*
X597500Y103100D03*
Y96900D03*
Y141900D03*
Y148100D03*
X609500Y309400D03*
Y315600D03*
X616500Y315100D03*
Y308900D03*
X656000Y181700D03*
Y187900D03*
X680200Y30800D03*
Y24600D03*
X677500Y188100D03*
Y181900D03*
X706300Y172400D03*
Y178600D03*
X700000Y172400D03*
Y178600D03*
X693900Y172400D03*
Y178600D03*
X700400Y284200D03*
Y290400D03*
X702000Y317100D03*
Y310900D03*
Y323900D03*
Y330100D03*
X707400Y297200D03*
Y291000D03*
X737900Y319400D03*
Y313200D03*
X744400Y319400D03*
Y313200D03*
G54D30*
X625941Y284362D03*
Y282394D03*
Y280425D03*
Y278457D03*
Y276488D03*
Y274520D03*
Y272551D03*
Y270583D03*
Y300110D03*
Y298142D03*
Y296173D03*
Y294205D03*
Y292236D03*
Y290268D03*
Y288299D03*
Y286331D03*
Y317827D03*
Y315858D03*
Y313890D03*
Y311921D03*
Y309953D03*
Y307984D03*
Y306016D03*
Y304047D03*
Y302079D03*
Y335543D03*
Y333575D03*
Y331606D03*
Y329638D03*
Y327669D03*
Y325701D03*
Y323732D03*
Y321764D03*
Y319795D03*
Y343417D03*
Y341449D03*
Y339480D03*
Y337512D03*
X687059Y270583D03*
Y272551D03*
Y274520D03*
Y276488D03*
Y278457D03*
Y280425D03*
Y282394D03*
Y284362D03*
Y286331D03*
Y288299D03*
Y290268D03*
Y292236D03*
Y294205D03*
Y296173D03*
Y298142D03*
Y300110D03*
Y302079D03*
Y304047D03*
Y306016D03*
Y307984D03*
Y309953D03*
Y311921D03*
Y313890D03*
Y315858D03*
Y317827D03*
Y319795D03*
Y321764D03*
Y323732D03*
Y325701D03*
Y327669D03*
Y329638D03*
Y331606D03*
Y333575D03*
Y335543D03*
Y337512D03*
Y339480D03*
Y341449D03*
Y343417D03*
G54D40*
G01X255000Y-52500D02*
X490000D01*
Y-135000D01*
X255000D01*
G01Y-52500D02*
Y-135000D01*
G01X490000Y-107500D02*
X255000D01*
G01Y-80000D02*
X490000D01*
G01X335000D02*
Y-107500D01*
G01X405000D02*
Y-135000D01*
G54D31*
X655114Y370500D03*
X671886D03*
G54D13*
X44200Y162700D03*
Y165900D03*
Y169100D03*
Y172300D03*
X50600Y162700D03*
Y165900D03*
Y169100D03*
Y172300D03*
X44200Y177700D03*
X50600D03*
X44200Y180900D03*
Y184100D03*
Y187300D03*
X50600Y180900D03*
Y184100D03*
Y187300D03*
X44200Y192700D03*
Y195900D03*
X50600Y192700D03*
Y195900D03*
X44200Y207700D03*
Y210900D03*
Y214100D03*
X50600Y207700D03*
Y210900D03*
Y214100D03*
X44200Y199100D03*
Y202300D03*
X50600Y199100D03*
Y202300D03*
X44200Y217300D03*
X50600D03*
X44200Y222700D03*
Y225900D03*
Y229100D03*
X50600Y222700D03*
Y225900D03*
Y229100D03*
X44200Y232300D03*
X50600D03*
X44200Y237700D03*
Y240900D03*
Y244100D03*
Y247300D03*
X50600Y237700D03*
Y240900D03*
Y244100D03*
Y247300D03*
G54D22*
X318000Y151600D03*
X317900Y175400D03*
X319100Y167500D03*
X314100D03*
X314000Y194900D03*
X319000D03*
X317900Y187000D03*
X310200Y198900D03*
X315200D03*
X306300Y202800D03*
X311300D03*
X310200Y206800D03*
X315200D03*
X330700Y159300D03*
X325700D03*
X323000Y151600D03*
X326800Y147600D03*
X321800D03*
X322900Y175400D03*
X326000Y171300D03*
X331000D03*
X322000Y194900D03*
X327000D03*
X322900Y187000D03*
X327000Y190900D03*
X322000D03*
X325900Y183100D03*
X330900D03*
X325900Y198900D03*
X330900D03*
X337800Y202800D03*
X322000Y202900D03*
X327000D03*
X333900Y206900D03*
X334500Y283000D03*
Y311000D03*
X346700Y194900D03*
X341700D03*
X354600Y206900D03*
X349600D03*
X345600Y198900D03*
X350600D03*
X348000Y211100D03*
X343000D03*
X342800Y202800D03*
X338900Y206900D03*
X339500Y283000D03*
X351500Y287000D03*
X346500D03*
X351500Y299000D03*
X346500D03*
X339500Y311000D03*
X368500Y211300D03*
X361400Y206800D03*
X366400D03*
X365400Y202800D03*
X370400D03*
X371000Y299000D03*
X366000D03*
X370000Y318500D03*
X388900Y159500D03*
X389900Y151800D03*
X384900D03*
X385900Y163500D03*
X380900D03*
X388800Y179200D03*
X390000Y175300D03*
X385000D03*
X388900Y163500D03*
X385900Y167500D03*
X380900D03*
X389800Y171400D03*
X384800D03*
X389900Y191100D03*
X384900D03*
X388900Y183100D03*
X389900Y195000D03*
X384900D03*
X373500Y211300D03*
X377200Y207200D03*
X382200D03*
X381800Y211300D03*
X376800D03*
X379000Y279000D03*
X374000D03*
X375000Y318500D03*
X393900Y159500D03*
X397800Y171400D03*
X392800D03*
X393800Y179200D03*
X393900Y163500D03*
X392900Y191100D03*
X397900D03*
X392900Y187100D03*
X397900D03*
X393900Y183100D03*
X396900Y206700D03*
X401900D03*
X400500Y211000D03*
X395500D03*
X484000Y230500D03*
X479000D03*
X479300Y234800D03*
X484300D03*
X633400Y207900D03*
X638400D03*
X693500Y346500D03*
X698500D03*
G54D41*
G01X263233Y-99300D02*
X263600Y-99000D01*
X263875Y-98500D01*
X264058Y-97800D01*
X263875Y-97200D01*
X263508Y-96800D01*
X262867Y-96500D01*
X260392D01*
Y-102500D01*
X263417D01*
X264058Y-102100D01*
X264425Y-101500D01*
X264608Y-100800D01*
X264425Y-100100D01*
X263875Y-99500D01*
X263233Y-99300D01*
X260392D01*
G01X269000Y-102500D02*
X268267Y-102400D01*
X267625Y-102000D01*
X267075Y-101400D01*
X266708Y-100700D01*
X266525Y-99900D01*
Y-99100D01*
X266708Y-98300D01*
X267075Y-97600D01*
X267625Y-97000D01*
X268267Y-96600D01*
X269000Y-96500D01*
X269733Y-96600D01*
X270375Y-97000D01*
X270925Y-97600D01*
X271292Y-98300D01*
X271475Y-99100D01*
Y-99900D01*
X271292Y-100700D01*
X270925Y-101400D01*
X270375Y-102000D01*
X269733Y-102400D01*
X269000Y-102500D01*
G01X275500Y-96500D02*
Y-102500D01*
G01X273392Y-96500D02*
X277608D01*
G01X282000D02*
Y-102500D01*
G01X279892Y-96500D02*
X284108D01*
G01X288500Y-102500D02*
X287767Y-102400D01*
X287125Y-102000D01*
X286575Y-101400D01*
X286208Y-100700D01*
X286025Y-99900D01*
Y-99100D01*
X286208Y-98300D01*
X286575Y-97600D01*
X287125Y-97000D01*
X287767Y-96600D01*
X288500Y-96500D01*
X289233Y-96600D01*
X289875Y-97000D01*
X290425Y-97600D01*
X290792Y-98300D01*
X290975Y-99100D01*
Y-99900D01*
X290792Y-100700D01*
X290425Y-101400D01*
X289875Y-102000D01*
X289233Y-102400D01*
X288500Y-102500D01*
G01X292617D02*
Y-96500D01*
X295000Y-101500D01*
X297383Y-96500D01*
Y-102500D01*
G01X306075Y-101700D02*
X306808Y-102200D01*
X307633Y-102500D01*
X308367D01*
X309100Y-102200D01*
X309650Y-101700D01*
X309925Y-101000D01*
X309742Y-100300D01*
X309283Y-99700D01*
X308458Y-99300D01*
X307358Y-99100D01*
X306717Y-98700D01*
X306442Y-98000D01*
X306625Y-97300D01*
X307083Y-96800D01*
X307725Y-96500D01*
X308367D01*
X309008Y-96700D01*
X309558Y-97200D01*
G01X313400Y-96500D02*
X315600D01*
G01X314500D02*
Y-102500D01*
G01X313400D02*
X315600D01*
G01X318983D02*
Y-96500D01*
X320817D01*
X321550Y-96800D01*
X322100Y-97200D01*
X322558Y-97800D01*
X322925Y-98500D01*
X323017Y-99500D01*
X322925Y-100500D01*
X322558Y-101200D01*
X322100Y-101800D01*
X321550Y-102200D01*
X320817Y-102500D01*
X318983D01*
G01X329333D02*
X325667D01*
Y-96500D01*
X329333D01*
G01X327867Y-99400D02*
X325667D01*
G01X264667Y-92500D02*
Y-86500D01*
X266867D01*
X267600Y-86800D01*
X268150Y-87500D01*
X268333Y-88300D01*
X268150Y-89100D01*
X267692Y-89700D01*
X266867Y-90000D01*
X264667D01*
G01X270708Y-92500D02*
X273000Y-86500D01*
X275292Y-92500D01*
G01X274467Y-90400D02*
X271533D01*
G01X277575Y-91700D02*
X278308Y-92200D01*
X279133Y-92500D01*
X279867D01*
X280600Y-92200D01*
X281150Y-91700D01*
X281425Y-91000D01*
X281242Y-90300D01*
X280783Y-89700D01*
X279958Y-89300D01*
X278858Y-89100D01*
X278217Y-88700D01*
X277942Y-88000D01*
X278125Y-87300D01*
X278583Y-86800D01*
X279225Y-86500D01*
X279867D01*
X280508Y-86700D01*
X281058Y-87200D01*
G01X286000Y-86500D02*
Y-92500D01*
G01X283892Y-86500D02*
X288108D01*
G01X294333Y-92500D02*
X290667D01*
Y-86500D01*
X294333D01*
G01X292867Y-89400D02*
X290667D01*
G01X296617Y-92500D02*
Y-86500D01*
X299000Y-91500D01*
X301383Y-86500D01*
Y-92500D01*
G01X303208D02*
X305500Y-86500D01*
X307792Y-92500D01*
G01X306967Y-90400D02*
X304033D01*
G01X310075Y-91700D02*
X310808Y-92200D01*
X311633Y-92500D01*
X312367D01*
X313100Y-92200D01*
X313650Y-91700D01*
X313925Y-91000D01*
X313742Y-90300D01*
X313283Y-89700D01*
X312458Y-89300D01*
X311358Y-89100D01*
X310717Y-88700D01*
X310442Y-88000D01*
X310625Y-87300D01*
X311083Y-86800D01*
X311725Y-86500D01*
X312367D01*
X313008Y-86700D01*
X313558Y-87200D01*
G01X316483Y-92500D02*
Y-86500D01*
G01X319967D02*
X316483Y-90200D01*
G01X320517Y-92500D02*
X318042Y-88500D01*
G01X364983Y-97500D02*
Y-91500D01*
X366817D01*
X367550Y-91800D01*
X368100Y-92200D01*
X368558Y-92800D01*
X368925Y-93500D01*
X369017Y-94500D01*
X368925Y-95500D01*
X368558Y-96200D01*
X368100Y-96800D01*
X367550Y-97200D01*
X366817Y-97500D01*
X364983D01*
G01X374600D02*
Y-91500D01*
X371208Y-95800D01*
X375792D01*
G01X380000Y-97500D02*
Y-91500D01*
X378900Y-92700D01*
G01Y-97500D02*
X381100D01*
G01X386500Y-91500D02*
X385767Y-91700D01*
X385217Y-92200D01*
X384850Y-92800D01*
X384575Y-93600D01*
X384483Y-94500D01*
X384575Y-95400D01*
X384850Y-96200D01*
X385217Y-96800D01*
X385767Y-97300D01*
X386500Y-97500D01*
X387233Y-97300D01*
X387783Y-96800D01*
X388150Y-96200D01*
X388425Y-95400D01*
X388517Y-94500D01*
X388425Y-93600D01*
X388150Y-92800D01*
X387783Y-92200D01*
X387233Y-91700D01*
X386500Y-91500D01*
G01X393000D02*
X392267Y-91700D01*
X391717Y-92200D01*
X391350Y-92800D01*
X391075Y-93600D01*
X390983Y-94500D01*
X391075Y-95400D01*
X391350Y-96200D01*
X391717Y-96800D01*
X392267Y-97300D01*
X393000Y-97500D01*
X393733Y-97300D01*
X394283Y-96800D01*
X394650Y-96200D01*
X394925Y-95400D01*
X395017Y-94500D01*
X394925Y-93600D01*
X394650Y-92800D01*
X394283Y-92200D01*
X393733Y-91700D01*
X393000Y-91500D01*
G01X405542Y-99500D02*
X404625Y-98500D01*
X404167Y-97500D01*
Y-93500D01*
X404625Y-92500D01*
X405542Y-91500D01*
G01X410758Y-92500D02*
X411308Y-91900D01*
X411950Y-91600D01*
X412683Y-91500D01*
X413600Y-91700D01*
X414242Y-92200D01*
X414425Y-92800D01*
X414333Y-93400D01*
X413967Y-93900D01*
X412133Y-94900D01*
X411308Y-95600D01*
X410758Y-96600D01*
X410575Y-97500D01*
X414425D01*
G01X416983Y-96600D02*
X417533Y-97100D01*
X418175Y-97400D01*
X419000Y-97500D01*
X419825Y-97300D01*
X420467Y-96900D01*
X420925Y-96200D01*
X421017Y-95400D01*
X420833Y-94600D01*
X420375Y-94100D01*
X419733Y-93700D01*
X419092Y-93600D01*
X418450Y-93700D01*
X417625Y-94100D01*
X417900Y-91500D01*
X420375D01*
G01X425500Y-97500D02*
Y-91500D01*
X424400Y-92700D01*
G01Y-97500D02*
X426600D01*
G01X432000Y-91500D02*
X431267Y-91700D01*
X430717Y-92200D01*
X430350Y-92800D01*
X430075Y-93600D01*
X429983Y-94500D01*
X430075Y-95400D01*
X430350Y-96200D01*
X430717Y-96800D01*
X431267Y-97300D01*
X432000Y-97500D01*
X432733Y-97300D01*
X433283Y-96800D01*
X433650Y-96200D01*
X433925Y-95400D01*
X434017Y-94500D01*
X433925Y-93600D01*
X433650Y-92800D01*
X433283Y-92200D01*
X432733Y-91700D01*
X432000Y-91500D01*
G01X436483Y-96300D02*
X437033Y-97000D01*
X437767Y-97400D01*
X438592Y-97500D01*
X439325Y-97400D01*
X440058Y-96900D01*
X440517Y-96300D01*
X440608Y-95700D01*
X440425Y-95000D01*
X439783Y-94500D01*
X439142Y-94300D01*
X438317D01*
G01X439142D02*
X439692Y-94000D01*
X440150Y-93500D01*
X440333Y-92900D01*
X440150Y-92300D01*
X439692Y-91800D01*
X438867Y-91500D01*
X438042Y-91600D01*
X437217Y-92000D01*
G01X445000Y-91500D02*
X444267Y-91700D01*
X443717Y-92200D01*
X443350Y-92800D01*
X443075Y-93600D01*
X442983Y-94500D01*
X443075Y-95400D01*
X443350Y-96200D01*
X443717Y-96800D01*
X444267Y-97300D01*
X445000Y-97500D01*
X445733Y-97300D01*
X446283Y-96800D01*
X446650Y-96200D01*
X446925Y-95400D01*
X447017Y-94500D01*
X446925Y-93600D01*
X446650Y-92800D01*
X446283Y-92200D01*
X445733Y-91700D01*
X445000Y-91500D01*
G01X451500D02*
X450767Y-91700D01*
X450217Y-92200D01*
X449850Y-92800D01*
X449575Y-93600D01*
X449483Y-94500D01*
X449575Y-95400D01*
X449850Y-96200D01*
X450217Y-96800D01*
X450767Y-97300D01*
X451500Y-97500D01*
X452233Y-97300D01*
X452783Y-96800D01*
X453150Y-96200D01*
X453425Y-95400D01*
X453517Y-94500D01*
X453425Y-93600D01*
X453150Y-92800D01*
X452783Y-92200D01*
X452233Y-91700D01*
X451500Y-91500D01*
G01X458458Y-99500D02*
X459375Y-98500D01*
X459833Y-97500D01*
Y-93500D01*
X459375Y-92500D01*
X458458Y-91500D01*
G54D14*
X73820Y96490D03*
Y98850D03*
Y101210D03*
Y103580D03*
Y105940D03*
Y108300D03*
Y110660D03*
Y113020D03*
Y115390D03*
Y117750D03*
Y120110D03*
Y122470D03*
Y124830D03*
Y127200D03*
Y129560D03*
Y131920D03*
Y134280D03*
Y136650D03*
Y139010D03*
Y141370D03*
Y143730D03*
Y146090D03*
Y148460D03*
Y150820D03*
Y153180D03*
Y155540D03*
Y157910D03*
Y160270D03*
Y162630D03*
Y164990D03*
Y167350D03*
Y169720D03*
Y172080D03*
Y174440D03*
Y176800D03*
Y179170D03*
Y181530D03*
Y183890D03*
Y186250D03*
Y188610D03*
Y190980D03*
Y193340D03*
Y195700D03*
Y198060D03*
Y200430D03*
Y202790D03*
Y205150D03*
Y207510D03*
Y209870D03*
Y212240D03*
Y214600D03*
Y216960D03*
Y219320D03*
Y221690D03*
Y224050D03*
Y226410D03*
Y228770D03*
Y231130D03*
Y233500D03*
Y235860D03*
Y238220D03*
Y240580D03*
Y242950D03*
Y245310D03*
Y247670D03*
Y250030D03*
Y252390D03*
Y254760D03*
Y257120D03*
Y259480D03*
Y261840D03*
Y264210D03*
Y266570D03*
Y268930D03*
Y271290D03*
Y273650D03*
Y276020D03*
Y278380D03*
Y280740D03*
Y283100D03*
Y299640D03*
Y302000D03*
Y304360D03*
Y306720D03*
Y309090D03*
Y311450D03*
Y313810D03*
Y316170D03*
Y318540D03*
Y320900D03*
Y323260D03*
Y325620D03*
Y327980D03*
Y330350D03*
Y332710D03*
Y335070D03*
Y337430D03*
Y339800D03*
Y342160D03*
Y344520D03*
X106100Y97670D03*
Y100030D03*
Y102390D03*
Y104760D03*
Y107120D03*
Y109480D03*
Y111840D03*
Y114200D03*
Y116570D03*
Y118930D03*
Y121290D03*
Y123650D03*
Y126010D03*
Y128380D03*
Y130740D03*
Y133100D03*
Y135460D03*
Y137830D03*
Y140190D03*
Y142550D03*
Y144910D03*
Y147270D03*
Y149640D03*
Y152000D03*
Y154360D03*
Y156720D03*
Y159090D03*
Y161450D03*
Y163810D03*
Y166170D03*
Y168530D03*
Y170900D03*
Y173260D03*
Y175620D03*
Y177980D03*
Y180350D03*
Y182710D03*
Y185070D03*
Y187430D03*
Y189790D03*
Y192160D03*
Y194520D03*
Y196880D03*
Y199240D03*
Y201610D03*
Y203970D03*
Y206330D03*
Y208690D03*
Y211050D03*
Y213420D03*
Y215780D03*
Y218140D03*
Y220500D03*
Y222870D03*
Y225230D03*
Y227590D03*
Y229950D03*
Y232310D03*
Y234680D03*
Y237040D03*
Y239400D03*
Y241760D03*
Y244130D03*
Y246490D03*
Y248850D03*
Y251210D03*
Y253570D03*
Y255940D03*
Y258300D03*
Y260660D03*
Y263020D03*
Y265390D03*
Y267750D03*
Y270110D03*
Y272470D03*
Y274830D03*
Y277200D03*
Y279560D03*
Y281920D03*
Y284280D03*
Y300820D03*
Y303180D03*
Y305540D03*
Y307900D03*
Y310270D03*
Y312630D03*
Y314990D03*
Y317350D03*
Y319720D03*
Y322080D03*
Y324440D03*
Y326800D03*
Y329160D03*
Y331530D03*
Y333890D03*
Y336250D03*
Y338610D03*
Y340980D03*
Y343340D03*
Y345700D03*
G54D23*
X332200Y89500D03*
X344200D03*
G54D32*
X666300Y191800D03*
G54D42*
G01X258500Y-125000D02*
Y-117000D01*
X261000D01*
X262000Y-117400D01*
X262750Y-117933D01*
X263375Y-118733D01*
X263875Y-119667D01*
X264000Y-121000D01*
X263875Y-122333D01*
X263375Y-123267D01*
X262750Y-124067D01*
X262000Y-124600D01*
X261000Y-125000D01*
X258500D01*
G01X266625D02*
X269750Y-117000D01*
X272875Y-125000D01*
G01X271750Y-122200D02*
X267750D01*
G01X278250Y-117000D02*
Y-125000D01*
G01X275375Y-117000D02*
X281125D01*
G01X289250Y-125000D02*
X284250D01*
Y-117000D01*
X289250D01*
G01X287250Y-120867D02*
X284250D01*
G01X295250Y-125267D02*
X295000Y-125133D01*
Y-124867D01*
X295250Y-124733D01*
X295500Y-124867D01*
Y-125133D01*
X295250Y-125267D01*
G01Y-121667D02*
X295000Y-121533D01*
Y-121267D01*
X295250Y-121133D01*
X295500Y-121267D01*
Y-121533D01*
X295250Y-121667D01*
G01X267750Y-70000D02*
Y-62000D01*
X270250D01*
X271250Y-62400D01*
X272000Y-62933D01*
X272625Y-63733D01*
X273125Y-64667D01*
X273250Y-66000D01*
X273125Y-67333D01*
X272625Y-68267D01*
X272000Y-69067D01*
X271250Y-69600D01*
X270250Y-70000D01*
X267750D01*
G01X277500Y-62000D02*
X280500D01*
G01X279000D02*
Y-70000D01*
G01X277500D02*
X280500D01*
G01X288250Y-66000D02*
X290750D01*
Y-68400D01*
X290000Y-69200D01*
X289125Y-69733D01*
X287875Y-70000D01*
X286625Y-69733D01*
X285750Y-69200D01*
X285000Y-68400D01*
X284500Y-67467D01*
X284250Y-66400D01*
Y-65467D01*
X284500Y-64667D01*
X285000Y-63733D01*
X285750Y-62933D01*
X286500Y-62400D01*
X287500Y-62000D01*
X288375D01*
X289375Y-62267D01*
X290125Y-62800D01*
G01X294500Y-62000D02*
X297500D01*
G01X296000D02*
Y-70000D01*
G01X294500D02*
X297500D01*
G01X304500Y-62000D02*
Y-70000D01*
G01X301625Y-62000D02*
X307375D01*
G01X309875Y-70000D02*
X313000Y-62000D01*
X316125Y-70000D01*
G01X315000Y-67200D02*
X311000D01*
G01X319000Y-62000D02*
Y-70000D01*
X324000D01*
G01X336000Y-62000D02*
Y-70000D01*
X341000D01*
G01X345500Y-62000D02*
X348500D01*
G01X347000D02*
Y-70000D01*
G01X345500D02*
X348500D01*
G01X356250Y-66000D02*
X358750D01*
Y-68400D01*
X358000Y-69200D01*
X357125Y-69733D01*
X355875Y-70000D01*
X354625Y-69733D01*
X353750Y-69200D01*
X353000Y-68400D01*
X352500Y-67467D01*
X352250Y-66400D01*
Y-65467D01*
X352500Y-64667D01*
X353000Y-63733D01*
X353750Y-62933D01*
X354500Y-62400D01*
X355500Y-62000D01*
X356375D01*
X357375Y-62267D01*
X358125Y-62800D01*
G01X361375Y-70000D02*
Y-62000D01*
G01X366625D02*
Y-70000D01*
G01Y-66000D02*
X361375D01*
G01X372500Y-62000D02*
Y-70000D01*
G01X369625Y-62000D02*
X375375D01*
G01X388000D02*
X391000D01*
G01X389500D02*
Y-70000D01*
G01X388000D02*
X391000D01*
G01X395125D02*
Y-62000D01*
X400875Y-70000D01*
Y-62000D01*
G01X403625Y-70000D02*
Y-62000D01*
X409375Y-70000D01*
Y-62000D01*
G01X415000Y-70000D02*
X414000Y-69867D01*
X413125Y-69333D01*
X412375Y-68533D01*
X411875Y-67600D01*
X411625Y-66533D01*
Y-65467D01*
X411875Y-64400D01*
X412375Y-63467D01*
X413125Y-62667D01*
X414000Y-62133D01*
X415000Y-62000D01*
X416000Y-62133D01*
X416875Y-62667D01*
X417625Y-63467D01*
X418125Y-64400D01*
X418375Y-65467D01*
Y-66533D01*
X418125Y-67600D01*
X417625Y-68533D01*
X416875Y-69333D01*
X416000Y-69867D01*
X415000Y-70000D01*
G01X420375Y-62000D02*
X423500Y-70000D01*
X426625Y-62000D01*
G01X428875Y-70000D02*
X432000Y-62000D01*
X435125Y-70000D01*
G01X434000Y-67200D02*
X430000D01*
G01X440500Y-62000D02*
Y-70000D01*
G01X437625Y-62000D02*
X443375D01*
G01X447500D02*
X450500D01*
G01X449000D02*
Y-70000D01*
G01X447500D02*
X450500D01*
G01X457500D02*
X456500Y-69867D01*
X455625Y-69333D01*
X454875Y-68533D01*
X454375Y-67600D01*
X454125Y-66533D01*
Y-65467D01*
X454375Y-64400D01*
X454875Y-63467D01*
X455625Y-62667D01*
X456500Y-62133D01*
X457500Y-62000D01*
X458500Y-62133D01*
X459375Y-62667D01*
X460125Y-63467D01*
X460625Y-64400D01*
X460875Y-65467D01*
Y-66533D01*
X460625Y-67600D01*
X460125Y-68533D01*
X459375Y-69333D01*
X458500Y-69867D01*
X457500Y-70000D01*
G01X463125D02*
Y-62000D01*
X468875Y-70000D01*
Y-62000D01*
G01X471875Y-68934D02*
X472875Y-69600D01*
X474000Y-70000D01*
X475000D01*
X476000Y-69600D01*
X476750Y-68934D01*
X477125Y-68000D01*
X476875Y-67067D01*
X476250Y-66267D01*
X475125Y-65733D01*
X473625Y-65467D01*
X472750Y-64933D01*
X472375Y-64000D01*
X472625Y-63067D01*
X473250Y-62400D01*
X474125Y-62000D01*
X475000D01*
X475875Y-62267D01*
X476625Y-62933D01*
G01X316250Y-117000D02*
X315250Y-117267D01*
X314500Y-117933D01*
X314000Y-118733D01*
X313625Y-119800D01*
X313500Y-121000D01*
X313625Y-122200D01*
X314000Y-123267D01*
X314500Y-124067D01*
X315250Y-124733D01*
X316250Y-125000D01*
X317250Y-124733D01*
X318000Y-124067D01*
X318500Y-123267D01*
X318875Y-122200D01*
X319000Y-121000D01*
X318875Y-119800D01*
X318500Y-118733D01*
X318000Y-117933D01*
X317250Y-117267D01*
X316250Y-117000D01*
G01X326250Y-125000D02*
Y-117000D01*
X321625Y-122733D01*
X327875D01*
G01X331000Y-125267D02*
X335500Y-117000D01*
G01X341750Y-125000D02*
Y-117000D01*
X340250Y-118600D01*
G01Y-125000D02*
X343250D01*
G01X347875Y-118333D02*
X348625Y-117533D01*
X349500Y-117133D01*
X350500Y-117000D01*
X351750Y-117267D01*
X352625Y-117933D01*
X352875Y-118733D01*
X352750Y-119534D01*
X352250Y-120200D01*
X349750Y-121533D01*
X348625Y-122467D01*
X347875Y-123800D01*
X347625Y-125000D01*
X352875D01*
G01X356500Y-125267D02*
X361000Y-117000D01*
G01X364875Y-118333D02*
X365625Y-117533D01*
X366500Y-117133D01*
X367500Y-117000D01*
X368750Y-117267D01*
X369625Y-117933D01*
X369875Y-118733D01*
X369750Y-119534D01*
X369250Y-120200D01*
X366750Y-121533D01*
X365625Y-122467D01*
X364875Y-123800D01*
X364625Y-125000D01*
X369875D01*
G01X375750Y-117000D02*
X374750Y-117267D01*
X374000Y-117933D01*
X373500Y-118733D01*
X373125Y-119800D01*
X373000Y-121000D01*
X373125Y-122200D01*
X373500Y-123267D01*
X374000Y-124067D01*
X374750Y-124733D01*
X375750Y-125000D01*
X376750Y-124733D01*
X377500Y-124067D01*
X378000Y-123267D01*
X378375Y-122200D01*
X378500Y-121000D01*
X378375Y-119800D01*
X378000Y-118733D01*
X377500Y-117933D01*
X376750Y-117267D01*
X375750Y-117000D01*
G01X384250Y-125000D02*
Y-117000D01*
X382750Y-118600D01*
G01Y-125000D02*
X385750D01*
G01X390375Y-121667D02*
X391250Y-120733D01*
X392000Y-120200D01*
X393000Y-119933D01*
X393875Y-120200D01*
X394500Y-120733D01*
X395000Y-121533D01*
X395125Y-122467D01*
X395000Y-123267D01*
X394500Y-124067D01*
X393750Y-124733D01*
X392875Y-125000D01*
X391875Y-124733D01*
X391000Y-123934D01*
X390500Y-122733D01*
X390375Y-121400D01*
X390625Y-119667D01*
X391000Y-118733D01*
X391625Y-117800D01*
X392500Y-117133D01*
X393375Y-117000D01*
X394250Y-117267D01*
X394875Y-117933D01*
G01X408750Y-125000D02*
Y-117000D01*
X411875D01*
X412875Y-117400D01*
X413500Y-117933D01*
X413750Y-119000D01*
X413500Y-120067D01*
X412750Y-120733D01*
X411875Y-121133D01*
X408750D01*
G01X411875D02*
X413750Y-125000D01*
G01X422250D02*
X417250D01*
Y-117000D01*
X422250D01*
G01X420250Y-120867D02*
X417250D01*
G01X425125Y-117000D02*
X428250Y-125000D01*
X431375Y-117000D01*
G01X436750Y-125267D02*
X436500Y-125133D01*
Y-124867D01*
X436750Y-124733D01*
X437000Y-124867D01*
Y-125133D01*
X436750Y-125267D01*
G01Y-121667D02*
X436500Y-121533D01*
Y-121267D01*
X436750Y-121133D01*
X437000Y-121267D01*
Y-121533D01*
X436750Y-121667D01*
G01X459750Y-125000D02*
Y-117000D01*
X462250D01*
X463250Y-117400D01*
X464000Y-117933D01*
X464625Y-118733D01*
X465125Y-119667D01*
X465250Y-121000D01*
X465125Y-122333D01*
X464625Y-123267D01*
X464000Y-124067D01*
X463250Y-124600D01*
X462250Y-125000D01*
X459750D01*
G54D33*
X662461Y183300D03*
X665020D03*
X667580D03*
X670139D03*
X662461Y200300D03*
X665020D03*
X667580D03*
X670139D03*
G54D15*
X103500Y33400D03*
X101300Y28200D03*
X105700D03*
X700000Y363600D03*
X696000D03*
Y358400D03*
X698000D03*
X700000D03*
G54D24*
X327532Y152168D03*
X331068Y148632D03*
G54D25*
X326732Y175532D03*
X330268Y179068D03*
G54D34*
X688000Y131350D03*
Y150650D03*
G54D16*
X141870Y94600D03*
Y158100D03*
Y173350D03*
Y236850D03*
Y252100D03*
Y315600D03*
X574870Y94600D03*
Y158100D03*
Y173350D03*
Y236850D03*
Y252100D03*
Y315600D03*
G54D26*
X592150Y37000D03*
X611850D03*
G54D35*
X686000Y174450D03*
Y184550D03*
X714800Y170950D03*
Y181050D03*
G54D17*
X141870Y113850D03*
Y138850D03*
Y192600D03*
Y217600D03*
Y271350D03*
Y296350D03*
X574870Y113850D03*
Y138850D03*
Y192600D03*
Y217600D03*
Y271350D03*
Y296350D03*
G54D18*
X130590Y96425D03*
Y99575D03*
Y102725D03*
Y105875D03*
Y109025D03*
Y112175D03*
Y115325D03*
Y118475D03*
Y121625D03*
Y124775D03*
Y127925D03*
Y131075D03*
Y134225D03*
Y137375D03*
Y140525D03*
Y143675D03*
Y146825D03*
Y149975D03*
Y153125D03*
Y156275D03*
Y175175D03*
Y178325D03*
Y181475D03*
Y184625D03*
Y187775D03*
Y190925D03*
Y194075D03*
Y197225D03*
Y200375D03*
Y203525D03*
Y206675D03*
Y209825D03*
Y212975D03*
Y216125D03*
Y219275D03*
Y222425D03*
Y225575D03*
Y228725D03*
Y231875D03*
Y235025D03*
Y253925D03*
Y257075D03*
Y260225D03*
Y263375D03*
Y266525D03*
Y269675D03*
Y272825D03*
Y275975D03*
Y279125D03*
Y282275D03*
Y285425D03*
Y288575D03*
Y291725D03*
Y294875D03*
Y298025D03*
Y301175D03*
Y304325D03*
Y307475D03*
Y310625D03*
Y313775D03*
X153150Y96425D03*
Y99575D03*
Y102725D03*
Y105875D03*
Y109025D03*
Y112175D03*
Y115325D03*
Y118475D03*
Y121625D03*
Y124775D03*
Y127925D03*
Y131075D03*
Y134225D03*
Y137375D03*
Y140525D03*
Y143675D03*
Y146825D03*
Y149975D03*
Y153125D03*
Y156275D03*
Y175175D03*
Y178325D03*
Y181475D03*
Y184625D03*
Y187775D03*
Y190925D03*
Y194075D03*
Y197225D03*
Y200375D03*
Y203525D03*
Y206675D03*
Y209825D03*
Y212975D03*
Y216125D03*
Y219275D03*
Y222425D03*
Y225575D03*
Y228725D03*
Y231875D03*
Y235025D03*
Y253925D03*
Y257075D03*
Y260225D03*
Y263375D03*
Y266525D03*
Y269675D03*
Y272825D03*
Y275975D03*
Y279125D03*
Y282275D03*
Y285425D03*
Y288575D03*
Y291725D03*
Y294875D03*
Y298025D03*
Y301175D03*
Y304325D03*
Y307475D03*
Y310625D03*
Y313775D03*
X563590Y96425D03*
Y99575D03*
Y102725D03*
Y105875D03*
Y109025D03*
Y112175D03*
Y115325D03*
Y118475D03*
Y121625D03*
Y124775D03*
Y127925D03*
Y131075D03*
Y134225D03*
Y137375D03*
Y140525D03*
Y143675D03*
Y146825D03*
Y149975D03*
Y153125D03*
Y156275D03*
Y175175D03*
Y178325D03*
Y181475D03*
Y184625D03*
Y187775D03*
Y190925D03*
Y194075D03*
Y197225D03*
Y200375D03*
Y203525D03*
Y206675D03*
Y209825D03*
Y212975D03*
Y216125D03*
Y219275D03*
Y222425D03*
Y225575D03*
Y228725D03*
Y231875D03*
Y235025D03*
Y253925D03*
Y257075D03*
Y260225D03*
Y263375D03*
Y266525D03*
Y269675D03*
Y272825D03*
Y275975D03*
Y279125D03*
Y282275D03*
Y285425D03*
Y288575D03*
Y291725D03*
Y294875D03*
Y298025D03*
Y301175D03*
Y304325D03*
Y307475D03*
Y310625D03*
Y313775D03*
X586150Y96425D03*
Y99575D03*
Y102725D03*
Y105875D03*
Y109025D03*
Y112175D03*
Y115325D03*
Y118475D03*
Y121625D03*
Y124775D03*
Y127925D03*
Y131075D03*
Y134225D03*
Y137375D03*
Y140525D03*
Y143675D03*
Y146825D03*
Y149975D03*
Y153125D03*
Y156275D03*
Y175175D03*
Y178325D03*
Y181475D03*
Y184625D03*
Y187775D03*
Y190925D03*
Y194075D03*
Y197225D03*
Y200375D03*
Y203525D03*
Y206675D03*
Y209825D03*
Y212975D03*
Y216125D03*
Y219275D03*
Y222425D03*
Y225575D03*
Y228725D03*
Y231875D03*
Y235025D03*
Y253925D03*
Y257075D03*
Y260225D03*
Y263375D03*
Y266525D03*
Y269675D03*
Y272825D03*
Y275975D03*
Y279125D03*
Y282275D03*
Y285425D03*
Y288575D03*
Y291725D03*
Y294875D03*
Y298025D03*
Y301175D03*
Y304325D03*
Y307475D03*
Y310625D03*
Y313775D03*
G54D36*
X706850Y259100D03*
Y261700D03*
Y264300D03*
Y266900D03*
X727150Y259100D03*
Y261700D03*
Y264300D03*
Y266900D03*
G54D27*
X605600Y166000D03*
X628400D03*
X654400Y75200D03*
X677200D03*
X712100Y17100D03*
X734900D03*
G54D19*
X167150Y125000D03*
X177850D03*
X181650Y174000D03*
X192350D03*
X230650Y379700D03*
X219950D03*
X239150Y174900D03*
X249850D03*
X269650Y375000D03*
X287650Y214000D03*
X280350Y375000D03*
X298350Y214000D03*
X320350Y93000D03*
X309650D03*
X349650Y372500D03*
X374650Y94000D03*
X360350Y372500D03*
X385350Y94000D03*
X392150Y372500D03*
X402850D03*
X427150D03*
X442650Y162000D03*
X437850Y372500D03*
X453350Y162000D03*
X463750Y270600D03*
X453050D03*
X462650Y286600D03*
X462850Y320000D03*
X452150D03*
X462850Y337500D03*
X452150D03*
X473350Y286600D03*
X602150Y117500D03*
X612850D03*
G54D37*
X701000Y352000D03*
X693000D03*
G54D28*
X636271Y194860D03*
Y202340D03*
X645129Y194860D03*
Y202340D03*
Y198600D03*
G54D38*
X720000Y309098D03*
Y333902D03*
G54D29*
X631894Y264630D03*
X633862D03*
Y349370D03*
X631894D03*
X635831Y264630D03*
X637799D03*
X639768D03*
X641736D03*
X643705D03*
X645673D03*
X647642D03*
X649610D03*
X651579D03*
Y349370D03*
X649610D03*
X647642D03*
X645673D03*
X643705D03*
X641736D03*
X639768D03*
X637799D03*
X635831D03*
X653547Y264630D03*
X655516D03*
X657484D03*
X659453D03*
X661421D03*
X663390D03*
X665358D03*
X667327D03*
X669295D03*
Y349370D03*
X667327D03*
X665358D03*
X663390D03*
X661421D03*
X659453D03*
X657484D03*
X655516D03*
X653547D03*
X671264Y264630D03*
X673232D03*
X675201D03*
X677169D03*
X679138D03*
X681106D03*
Y349370D03*
X679138D03*
X677169D03*
X675201D03*
X673232D03*
X671264D03*
G54D39*
X736900Y325300D03*
Y328700D03*
X743100Y325300D03*
Y328700D03*
M02*
